<?xml version="1.0" encoding="UTF-8"?>
<svg version="1.1" xmlns="http://www.w3.org/2000/svg" width="1008" height="606">
<path d="M0 0 C332.64 0 665.28 0 1008 0 C1008 199.98 1008 399.96 1008 606 C675.36 606 342.72 606 0 606 C0 406.02 0 206.04 0 0 Z " fill="#D6CDC1" transform="translate(0,0)"/>
<path d="M0 0 C9.80789419 10.18710979 13.64242156 21.96926671 13.5 35.86328125 C12.75240924 45.15025385 8.96503907 53.08520709 3.22265625 60.30859375 C2.74441406 60.92347656 2.26617188 61.53835937 1.7734375 62.171875 C-5.21408679 70.1098434 -15.16947454 74.44409598 -25.54321289 75.40869141 C-26.27408898 75.48545923 -27.00496508 75.56222706 -27.75798893 75.64132118 C-30.09652118 75.88033857 -32.43606704 76.09824805 -34.77734375 76.30859375 C-35.53672619 76.37708275 -36.29610863 76.44557175 -37.07850266 76.51613617 C-42.76526662 77.01812832 -48.45625096 77.45918921 -54.1484375 77.89453125 C-55.98271003 78.0373551 -57.81695833 78.18049034 -59.65118408 78.32391357 C-63.51254061 78.62524934 -67.37404421 78.92458775 -71.23568726 79.222229 C-77.28930845 79.68885851 -83.34256009 80.16016202 -89.39575195 80.63232422 C-95.41248019 81.10146212 -101.42922203 81.57041636 -107.4460907 82.03775024 C-121.78714208 83.15165392 -136.12677309 84.28188356 -150.46484375 85.43359375 C-152.401447 85.58872402 -154.33805182 85.74383466 -156.2746582 85.89892578 C-165.34586133 86.62624275 -174.41653042 87.35987919 -183.48666382 88.10041809 C-222.80246852 91.30959522 -262.12995462 94.35568283 -301.46142578 97.36621094 C-336.65997402 100.06083293 -371.85816249 102.76348225 -407.04368019 105.62407112 C-411.68880804 106.00101996 -416.334294 106.37353224 -420.97973633 106.74658203 C-423.612447 106.95938351 -426.24491385 107.17416332 -428.87719727 107.39208984 C-476.67045252 111.34117239 -476.67045252 111.34117239 -491.15234375 100.62109375 C-499.28316336 93.5726235 -505.82195401 84.15587901 -507.00048828 73.2421875 C-507.9507302 59.53963945 -505.64493732 48.17655146 -496.77734375 37.30859375 C-481.88572437 21.04801384 -460.06342978 21.86997492 -439.69921875 20.27734375 C-437.27270481 20.08409587 -434.84622246 19.89045108 -432.41976929 19.69644165 C-426.52254639 19.2260994 -420.62497325 18.76032512 -414.72722018 18.29669082 C-409.863049 17.91415979 -404.99906585 17.52930884 -400.13519287 17.14300537 C-399.43461561 17.08736644 -398.73403835 17.03172751 -398.01223147 16.97440255 C-396.58773722 16.86126844 -395.163243 16.7481341 -393.73874879 16.63499951 C-350.54299444 13.20561403 -307.34084535 9.85810464 -264.13747978 6.52614498 C-232.29055796 4.06942017 -200.4465292 1.57850897 -168.60546875 -0.953125 C-167.73835376 -1.02206246 -166.87123878 -1.09099993 -165.97784758 -1.16202641 C-148.8428218 -2.52442342 -131.70802184 -3.88964718 -114.5735054 -5.25843519 C-108.20412731 -5.76724812 -101.83470622 -6.2755204 -95.46525764 -6.78345019 C-91.77753376 -7.07758586 -88.08984269 -7.3721207 -84.40222931 -7.66763878 C-15.34735744 -13.2012229 -15.34735744 -13.2012229 0 0 Z " fill="#6EB2F4" transform="translate(557.77734375,77.69140625)"/>
<path d="M0 0 C3.38962725 0.01133621 6.77893807 0.00463941 10.16855431 -0.00688457 C42.07134846 -0.09847159 74.56212338 1.02205244 105.83520508 7.69824219 C106.74012695 7.89135986 107.64504883 8.08447754 108.57739258 8.28344727 C129.99642592 13.15882345 129.99642592 13.15882345 135.39770508 21.26074219 C135.01848254 31.3101395 127.75368617 37.38063207 120.88989258 43.89990234 C118.62551631 45.96496015 116.2378534 47.85978322 113.83520508 49.76074219 C106.46359539 55.66436656 96.61184638 63.60895722 94.39770508 73.26074219 C93.07252857 86.61119067 96.05017009 95.50375808 102.96020508 106.76074219 C109.96615614 118.2108723 112.64606137 129.76841282 109.77661133 143.15917969 C107.40318791 149.84695946 102.99615147 154.96098834 98.39770508 160.26074219 C97.55079102 161.30681641 97.55079102 161.30681641 96.68676758 162.37402344 C92.8923375 167.02557097 92.8923375 167.02557097 90.64770508 168.09277344 C87.22905652 169.86738441 84.5339377 172.41922039 81.64770508 174.94824219 C81.02299316 175.49061523 80.39828125 176.03298828 79.75463867 176.59179688 C78.51859625 177.66575116 77.28401265 178.74138718 76.05102539 179.81884766 C74.70164187 180.99567268 73.34383894 182.16283796 71.98364258 183.32714844 C70.09722555 184.94676147 68.23974191 186.59089576 66.39770508 188.26074219 C65.72223633 188.87046875 65.04676758 189.48019531 64.35083008 190.10839844 C56.34307909 197.67963669 50.74492005 206.22711695 50.2590332 217.46923828 C50.24031206 220.61992182 50.25456155 223.7673615 50.30395508 226.91769409 C50.35693211 230.36001144 50.37604419 233.80246305 50.39379883 237.24511719 C50.39773651 237.92799301 50.40167419 238.61086884 50.4057312 239.31443787 C50.43712729 248.3134607 49.95823683 257.28222463 49.39770508 266.26074219 C51.04770508 265.93074219 52.69770508 265.60074219 54.39770508 265.26074219 C51.13071374 268.52773353 48.13512962 268.37657413 43.69369507 268.38516235 C42.91901886 268.38156708 42.14434265 268.3779718 41.34619141 268.37426758 C40.5264534 268.3744136 39.70671539 268.37455963 38.86213684 268.37471008 C36.1513098 268.37401315 33.44055138 268.36623097 30.72973633 268.35839844 C28.85072365 268.35653348 26.97171048 268.35510994 25.09269714 268.35411072 C20.14595193 268.35029166 15.19923606 268.34046657 10.25250244 268.32940674 C5.20520423 268.31917949 0.15790129 268.31461028 -4.8894043 268.30957031 C-14.79371406 268.29884378 -24.69800205 268.28177466 -34.60229492 268.26074219 C-34.60816116 267.60643219 -34.6140274 266.95212219 -34.62007141 266.27798462 C-34.6843001 259.43130293 -34.76879437 252.58507853 -34.86474609 245.73876953 C-34.89787862 243.18804984 -34.92594639 240.6372589 -34.94873047 238.08642578 C-34.98249101 234.4072449 -35.03481907 230.72871021 -35.09057617 227.04980469 C-35.09696609 225.92023346 -35.10335602 224.79066223 -35.10993958 223.62686157 C-35.41374351 207.04524119 -42.02371601 197.27423233 -53.71948242 185.91308594 C-58.17800861 181.81100019 -62.87029413 178.03994822 -67.60229492 174.26074219 C-93.23278526 153.53938048 -93.23278526 153.53938048 -95.60229492 140.26074219 C-96.61314165 125.5454653 -93.56997921 115.13762922 -85.83129883 102.61816406 C-80.13430296 93.3560745 -78.32024264 85.27130882 -79.60229492 74.26074219 C-82.94201331 62.45365698 -93.47415803 53.97387482 -102.71948242 46.65136719 C-106.00076711 43.93030183 -109.067743 41.06388877 -112.10229492 38.07324219 C-112.60680176 37.58605713 -113.11130859 37.09887207 -113.63110352 36.59692383 C-117.8214262 32.40162789 -120.60229492 28.67422243 -120.60229492 22.63574219 C-119.21922374 17.96787696 -116.47637169 16.35832211 -112.36791992 13.95214844 C-79.28413533 -0.89445676 -35.534849 -0.11979122 0 0 Z " fill="#DD6544" transform="translate(498.602294921875,275.7392578125)"/>
<path d="M0 0 C1 2 1 2 0.5 4.375 C-0.23659757 7.24297932 -0.23659757 7.24297932 1 11 C4.63 11 8.26 11 12 11 C12.144375 10.0925 12.28875 9.185 12.4375 8.25 C12.86409473 5.78523044 13.35074221 3.41152893 14 1 C15.36839363 3.73678725 15.21634818 6.04264424 15.31640625 9.1015625 C15.35830078 10.31328125 15.40019531 11.525 15.44335938 12.7734375 C15.48267578 14.04445313 15.52199219 15.31546875 15.5625 16.625 C15.60568359 17.90375 15.64886719 19.1825 15.69335938 20.5 C15.79969886 23.66655348 15.90172833 26.83318753 16 30 C17.32069 28.90962685 17.32069 28.90962685 17.0625 26.234375 C17.02102012 23.92187164 16.97935514 21.6093716 16.9375 19.296875 C16.99294681 16.37205569 17.31806593 13.83428847 18 11 C18.33 11 18.66 11 19 11 C19.02578125 12.17175781 19.0515625 13.34351563 19.078125 14.55078125 C19.49722846 27.70698561 21.24013166 37.71667629 30 48 C30.49371094 48.60199219 30.98742187 49.20398438 31.49609375 49.82421875 C32.65062205 51.22731405 33.8232009 52.61553047 35 54 C32.07898986 52.80995883 30.70053772 51.67807805 28.5 49.3125 C27.675 48.549375 26.85 47.78625 26 47 C23.72476911 47.04497842 23.72476911 47.04497842 22 48 C22.495 49.98 22.495 49.98 23 52 C23.66 52 24.32 52 25 52 C25.66 52.70125 26.32 53.4025 27 54.125 C38.03084942 65.44361071 55.97488481 69.91345584 71.30078125 70.30078125 C73.2954684 70.31159523 75.29020625 70.32217909 77.28491211 70.31567383 C79.29922053 70.31252079 81.31204447 70.3360318 83.32617188 70.36132812 C96.6508886 70.3678759 110.85638505 68.70993132 120.98046875 59.125 C124.72396709 54.85687838 126.39338951 52.04015845 126.265625 46.15234375 C125.6833028 41.43382125 123.59715705 38.35644499 120.08203125 35.37109375 C114.77073961 31.62028779 109.10665809 29.16728993 103 27 C102.34 29.97 101.68 32.94 101 36 C99.91400606 32.74201817 100.12919395 32.13563201 101 29 C101.14129118 27.48729395 101.24462817 25.97071872 101.31640625 24.453125 C101.35830078 23.60878906 101.40019531 22.76445312 101.44335938 21.89453125 C101.48267578 21.02183594 101.52199219 20.14914062 101.5625 19.25 C101.62727539 17.91775391 101.62727539 17.91775391 101.69335938 16.55859375 C101.79913615 14.37254037 101.90122546 12.18637911 102 10 C116.04699145 11.66090213 128.50390434 17.98440032 137.53125 28.94921875 C142.64076785 36.08351895 144.94875858 43.23400525 144 52 C141.12205403 63.57756551 134.95697344 71.57208044 125 78 C101.3409114 91.14393811 71.91761981 90.8812927 46.41796875 83.74609375 C32.84716514 79.70375686 21.92412108 73.03286497 11 64 C10.68575214 65.68717539 10.37369845 67.37475949 10.0625 69.0625 C9.80146484 70.47208984 9.80146484 70.47208984 9.53515625 71.91015625 C7.13819291 85.74955775 5.85419024 102.23074865 13 115 C13.67804688 114.41992188 14.35609375 113.83984375 15.0546875 113.2421875 C37.20942701 94.64693523 62.41103377 88.08542132 91 90 C107.67764988 91.47628334 124.31748996 96.83692421 136.125 109.23046875 C142.30124291 116.7062961 144.62917133 123.25817218 144.34765625 132.9765625 C143.23413191 142.66047082 137.91589797 151.08602361 130.375 157.125 C110.30140296 171.0366454 84.9264429 173.41685093 61.28662109 169.54418945 C43.2511069 166.18641713 25.72822733 158.42993664 13 145 C8.81428528 152.61039041 7.63102107 159.71299312 7.6875 168.25 C7.68951416 169.07830322 7.69152832 169.90660645 7.69360352 170.76000977 C7.80307384 177.49800684 8.93790259 183.57865003 11 190 C11.34335662 191.33078741 11.68055002 192.66327243 12 194 C12.76441406 193.50371094 13.52882813 193.00742187 14.31640625 192.49609375 C42.01178291 174.93235909 72.44162626 168.16783158 105 174 C118.37445251 177.13080496 132.00343875 182.62005786 139.703125 194.6640625 C144.13489266 203.29836846 145.49685797 211.02087853 142.5625 220.4375 C137.82319421 232.35251527 127.59126992 239.65024739 116.25 244.6875 C92.06647791 254.26848773 63.83937981 253.18776915 40 243 C30.53236753 238.39203164 22.7699408 232.45223124 15.29296875 225.08984375 C13.2707122 222.77546257 13.2707122 222.77546257 11 223 C7.72793416 229.89893399 7.69607402 238.64581862 9.875 245.921875 C16.47847611 259.91081782 28.94135656 267.61734559 43 273 C60.69833563 279.33970231 79.17923654 281.30408891 97.90698242 281.53417969 C102.72672995 281.64457285 106.10992907 281.81295394 110 285 C111.12256131 287.24512262 111.13413762 288.51456649 111.125 291 C111.12886719 292.051875 111.12886719 292.051875 111.1328125 293.125 C111 295 111 295 110 297 C109.34 296.67 108.68 296.34 108 296 C108.33 295.34 108.66 294.68 109 294 C109.37615126 289.86935374 109.37615126 289.86935374 107.875 286.125 C105.11909116 284.47145469 103.14924548 284.60634432 100 285 C98 286 98 286 97 288 C96.60984439 291.12124489 96.44122451 293.09975061 98.125 295.8125 C100.66676215 297.42228269 103.0398108 297.67109009 106 298 C106 298.33 106 298.66 106 299 C69.85338575 299.46741312 32.4011748 294.7903981 4.75 269.25 C-5.37115023 258.63006618 -9.68889138 245.98006848 -9.35546875 231.5 C-8.64342394 224.48909727 -6.43199464 218.08748798 -2.6875 212.125 C-0.63161938 208.31781367 -1.01281154 207.1226627 -2 203 C-2.74073325 201.14550237 -3.5352542 199.31181517 -4.375 197.5 C-11.72100324 180.21027643 -12.3453271 161.32144243 -5.7578125 143.671875 C-4.92699098 141.67593691 -4.07216315 139.68965783 -3.18359375 137.71875 C-0.48429025 132.29545382 -0.48429025 132.29545382 -0.7578125 126.53515625 C-1.20898438 125.71917969 -1.66015625 124.90320313 -2.125 124.0625 C-11.79307592 104.72634816 -12.33024995 82.33099687 -5.5625 62 C-4.33897932 58.44066712 -3.08987278 55.16927088 -1.32421875 51.84375 C0.04983249 48.89298509 0.27388331 47.64329986 -0.25 44.5 C-0.35828125 43.7884375 -0.4665625 43.076875 -0.578125 42.34375 C-0.8806394 40.66311446 -1.19455246 38.98451536 -1.51586914 37.30737305 C-2.33356195 31.72124875 -2.1859479 26.10176185 -2.18530273 20.4675293 C-2.18750435 18.30823483 -2.20573992 16.14943971 -2.22460938 13.99023438 C-2.22754108 12.61458507 -2.22952737 11.23893336 -2.23046875 9.86328125 C-2.23457764 8.61844971 -2.23868652 7.37361816 -2.24291992 6.09106445 C-2 3 -2 3 0 0 Z " fill="#6BA9E5" transform="translate(68,245)"/>
<path d="M0 0 C0.04413145 2.86345229 0.07623419 5.7262135 0.1015625 8.58984375 C0.11517822 9.3933728 0.12879395 10.19690186 0.14282227 11.02478027 C0.22795499 23.88309663 -5.06275578 33.71422761 -13.5 43.125 C-26.25335952 55.25154034 -45.50107056 58.43679147 -62.125 61.5 C-88.72249015 66.43025718 -106.31534808 78.3480982 -125.83984375 96.6640625 C-151.82501482 120.98611368 -179.54993617 135.38702698 -215.84765625 134.4375 C-234.78483172 133.53775298 -252.3212799 126.31685682 -270 120 C-309.99392554 105.74473941 -349.50505205 102.56945433 -390.35498047 115.98120117 C-391.11311035 116.22845947 -391.87124023 116.47571777 -392.65234375 116.73046875 C-393.62675415 117.06147583 -393.62675415 117.06147583 -394.62084961 117.39916992 C-398.01491738 118.25630699 -401.52640661 118.56580083 -405 119 C-405 111.08 -405 103.16 -405 95 C-402.69 94.01 -400.38 93.02 -398 92 C-396.72361497 91.30210633 -395.46238732 90.57446786 -394.23046875 89.80078125 C-393.57916992 89.40020508 -392.92787109 88.99962891 -392.25683594 88.58691406 C-391.57395508 88.16635742 -390.89107422 87.74580078 -390.1875 87.3125 C-376.16159566 78.92644682 -356.76753928 68 -340 68 C-340 66.35 -340 64.7 -340 63 C-339.67 63 -339.34 63 -339 63 C-339 64.65 -339 66.3 -339 68 C-338.01 67.67 -337.02 67.34 -336 67 C-309.58245026 65.33561604 -285.72315781 70.11699299 -261.62744141 80.78515625 C-255.49288772 83.40539852 -251.54980526 84.58450379 -245 83 C-245.33 83.66 -245.66 84.32 -246 85 C-246.66 85 -247.32 85 -248 85 C-248 85.66 -248 86.32 -248 87 C-247.319375 87.17015625 -246.63875 87.3403125 -245.9375 87.515625 C-244.968125 87.75796875 -243.99875 88.0003125 -243 88.25 C-241.90558594 88.51941406 -240.81117188 88.78882813 -239.68359375 89.06640625 C-237.14128827 89.71074454 -234.6209598 90.37987193 -232.09765625 91.08984375 C-212.01212297 96.63979374 -194.87335576 93.14257515 -176.92724609 83.10742188 C-167.26087282 77.55299203 -158.4701989 71.27180538 -150 64 C-148.86544905 63.04974668 -147.72998635 62.10058117 -146.59375 61.15234375 C-139.94502487 55.56977782 -133.7221078 49.79199727 -127.64453125 43.58984375 C-124.18754853 40.2043496 -120.51295831 37.17965984 -116.7265625 34.171875 C-114.94683126 32.75420943 -113.19001353 31.30715003 -111.4609375 29.828125 C-77.36749992 0.7817522 -42.88887454 -0.58497101 0 0 Z " fill="#6EB0F1" transform="translate(953,423)"/>
<path d="M0 0 C16.4501397 15.01860082 28.39131993 36.52645539 29.71704102 59.02490234 C30.49676612 79.46330183 29.05646019 103.75130006 14.3125 119.77734375 C13.44431641 120.54884766 13.44431641 120.54884766 12.55859375 121.3359375 C11.9759375 120.87703125 11.39328125 120.418125 10.79296875 119.9453125 C4.38542853 115.14973209 -1.74652669 112.46458975 -9.44140625 110.3359375 C-9.0546875 109.7790625 -8.66796875 109.2221875 -8.26953125 108.6484375 C3.44864133 91.47725392 7.12639699 73.70831693 3.55859375 53.2109375 C-0.75409226 35.96019347 -11.27470117 20.83034357 -26.44140625 11.3359375 C-43.19828156 2.21154862 -62.32544873 -0.95419648 -81.00390625 3.8984375 C-92.54539371 7.84212378 -101.88367334 13.68716488 -110.44140625 22.3359375 C-111.37726562 23.22152344 -111.37726562 23.22152344 -112.33203125 24.125 C-124.64507376 36.71536329 -129.0069869 54.59671321 -128.9296875 71.67504883 C-128.33585164 90.40031946 -120.01455511 106.48911098 -106.44140625 119.3359375 C-91.96595226 131.48757279 -74.92675411 135.44544732 -56.44140625 136.3359375 C-56.11140625 135.6759375 -55.78140625 135.0159375 -55.44140625 134.3359375 C-55.58578125 134.90699219 -55.73015625 135.47804687 -55.87890625 136.06640625 C-58.38787608 147.02572587 -58.53268139 157.75692455 -54.44140625 168.3359375 C-53.42987869 169.93984374 -52.40217765 171.53363003 -51.36105347 173.1184845 C-47.2454309 180.58866918 -47.68440898 187.93228602 -47.85205078 196.19018555 C-47.86362606 197.86664764 -47.8725185 199.54313005 -47.87895203 201.21961975 C-47.90381283 205.7400509 -47.96588661 210.25927406 -48.03497171 214.77921653 C-48.10090731 219.51423636 -48.13216745 224.24948641 -48.16720581 228.9848175 C-48.23867143 237.9379681 -48.34103376 246.89048432 -48.4546746 255.84318811 C-48.60655896 267.95069076 -48.71035776 280.05860129 -48.81694031 292.16657162 C-48.98595336 311.22359576 -49.2189 330.27928895 -49.44140625 349.3359375 C-11.16140625 349.3359375 27.11859375 349.3359375 66.55859375 349.3359375 C66.55859375 352.9659375 66.55859375 356.5959375 66.55859375 360.3359375 C66.22859375 360.3359375 65.89859375 360.3359375 65.55859375 360.3359375 C65.55859375 357.0359375 65.55859375 353.7359375 65.55859375 350.3359375 C59.9248042 350.4311434 54.29136352 350.53754918 48.65795898 350.65332031 C46.75078772 350.69105758 44.84355849 350.72599413 42.9362793 350.7578125 C30.03972858 350.97541842 17.36233355 351.76012109 4.55859375 353.3359375 C4.55859375 353.0059375 4.55859375 352.6759375 4.55859375 352.3359375 C-3.02257212 352.26585041 -10.60370361 352.21283256 -18.18512154 352.18050098 C-21.70702841 352.16496879 -25.22871064 352.14396436 -28.75048828 352.10961914 C-32.81675134 352.07022061 -36.88278541 352.05612575 -40.94921875 352.04296875 C-42.18938751 352.02748489 -43.42955627 352.01200104 -44.70730591 351.99604797 C-52.19964901 351.99463343 -59.01422238 352.84028081 -66.30245972 354.59233093 C-69.32020086 355.30722432 -72.38233896 355.82609295 -75.44140625 356.3359375 C-75.11140625 291.3259375 -74.78140625 226.3159375 -74.44140625 159.3359375 C-77.74140625 159.0059375 -81.04140625 158.6759375 -84.44140625 158.3359375 C-107.42401814 152.51491269 -127.98405781 137.67048292 -140.48974609 117.47998047 C-153.17148292 96.1791309 -157.67009216 70.14479346 -151.75390625 45.8359375 C-150.02504701 39.33539561 -147.56255011 33.28447051 -144.44140625 27.3359375 C-143.81492187 26.02109375 -143.81492187 26.02109375 -143.17578125 24.6796875 C-132.3475183 3.02316159 -112.02788644 -12.07012159 -89.44140625 -19.6640625 C-57.44564673 -29.22903164 -25.22880496 -21.45730001 0 0 Z " fill="#DC9D3D" transform="translate(887.44140625,72.6640625)"/>
<path d="M0 0 C16.5 0 33 0 50 0 C50 47.19 50 94.38 50 143 C-6.76 143 -63.52 143 -122 143 C-115.38387356 135.28118582 -109.28402898 130.61833864 -100.34936523 126.06884766 C-85.64224521 118.57252655 -77.94134986 108.02790215 -72.5 92.5 C-66.02143013 74.03886292 -55.72468264 64.02838698 -38.81201172 54.97851562 C-24.95852163 47.49740699 -16.84610492 36.75604353 -11.546875 22.03125 C-11.29832764 21.34240723 -11.04978027 20.65356445 -10.79370117 19.94384766 C-10.32627056 18.62130775 -9.87430176 17.29313464 -9.44262695 15.95849609 C-7.20432865 9.47715552 -4.30351271 6.1478753 0 0 Z " fill="#DA9C3D" transform="translate(320,401)"/>
<path d="M0 0 C0.99 0 1.98 0 3 0 C3.15855469 0.58007812 3.31710938 1.16015625 3.48046875 1.7578125 C3.71378906 2.53898437 3.94710937 3.32015625 4.1875 4.125 C4.40792969 4.89070313 4.62835938 5.65640625 4.85546875 6.4453125 C5.91860431 9.22398204 5.91860431 9.22398204 8.57421875 11.578125 C12.35430093 15.91696591 11.65533923 21.15213988 11.625 26.625 C11.76513888 35.25911188 12.27509387 42.76604452 15 51 C15.34397199 52.33062848 15.68111536 53.66313745 16 55 C16.76441406 54.50371094 17.52882813 54.00742187 18.31640625 53.49609375 C46.01178291 35.93235909 76.44162626 29.16783158 109 35 C122.37445251 38.13080496 136.00343875 43.62005786 143.703125 55.6640625 C148.13489266 64.29836846 149.49685797 72.02087853 146.5625 81.4375 C141.82319421 93.35251527 131.59126992 100.65024739 120.25 105.6875 C96.06647791 115.26848773 67.83937981 114.18776915 44 104 C34.53236753 99.39203164 26.7699408 93.45223124 19.29296875 86.08984375 C17.2707122 83.77546257 17.2707122 83.77546257 15 84 C11.72793416 90.89893399 11.69607402 99.64581862 13.875 106.921875 C20.47847611 120.91081782 32.94135656 128.61734559 47 134 C64.69833563 140.33970231 83.17923654 142.30408891 101.90698242 142.53417969 C106.72672995 142.64457285 110.10992907 142.81295394 114 146 C115.12256131 148.24512262 115.13413762 149.51456649 115.125 152 C115.12886719 153.051875 115.12886719 153.051875 115.1328125 154.125 C115 156 115 156 114 158 C113.34 157.67 112.68 157.34 112 157 C112.33 156.34 112.66 155.68 113 155 C113.37615126 150.86935374 113.37615126 150.86935374 111.875 147.125 C109.11909116 145.47145469 107.14924548 145.60634432 104 146 C102 147 102 147 101 149 C100.60984439 152.12124489 100.44122451 154.09975061 102.125 156.8125 C104.66676215 158.42228269 107.0398108 158.67109009 110 159 C110 159.33 110 159.66 110 160 C73.85338575 160.46741312 36.4011748 155.7903981 8.75 130.25 C-1.37115023 119.63006618 -5.68889138 106.98006848 -5.35546875 92.5 C-4.64342394 85.48909727 -2.43199464 79.08748798 1.3125 73.125 C3.36838062 69.31781367 2.98718846 68.1226627 2 64 C1.25926675 62.14550237 0.4647458 60.31181517 -0.375 58.5 C-8.0216461 40.50267643 -8.05614253 21.42917257 -1.3125 3.125 C-0.6628125 1.578125 -0.6628125 1.578125 0 0 Z " fill="#6BA9E6" transform="translate(64,384)"/>
<path d="M0 0 C2.0458028 -0.00281129 4.09158596 -0.0083282 6.13738251 -0.01401138 C38.4486222 -0.06041205 71.4642306 0.9822341 103.1528244 7.74712753 C104.05774628 7.94024521 104.96266815 8.13336288 105.8950119 8.33233261 C114.16620569 10.2150124 122.62231095 12.51860944 129.7153244 17.30962753 C130.65762748 20.03241489 130.57183582 22.39202641 130.7153244 25.30962753 C113.51035528 37.85491752 87.70290798 39.62129397 67.0903244 41.55962753 C66.21055939 41.6433461 65.33079437 41.72706467 64.42436981 41.81332016 C44.99426358 43.57944304 25.53634513 43.71824098 6.04174805 43.74308395 C3.63610128 43.74705202 1.23051236 43.75589976 -1.17511749 43.76556015 C-95.83195838 44.06858417 -95.83195838 44.06858417 -120.2846756 26.30962753 C-121.2846756 25.30962753 -121.2846756 25.30962753 -121.8471756 22.05962753 C-121.2846756 18.30962753 -121.2846756 18.30962753 -118.2846756 15.68462753 C-84.5112315 -2.07254411 -37.10401823 0.04648017 0 0 Z " fill="#E2A13E" transform="translate(501.28467559814453,275.690372467041)"/>
<path d="M0 0 C6.6645651 6.22492362 13.94451197 15.38195879 14.46899414 24.93994141 C14.46113892 26.10082275 14.46113892 26.10082275 14.453125 27.28515625 C14.44829102 28.54972656 14.44829102 28.54972656 14.44335938 29.83984375 C14.43079102 31.1546875 14.43079102 31.1546875 14.41796875 32.49609375 C14.41345703 33.38039063 14.40894531 34.2646875 14.40429688 35.17578125 C14.39231618 37.40761286 14.37503516 39.63931894 14.35546875 41.87109375 C14.35546875 42.20109375 14.35546875 42.53109375 14.35546875 42.87109375 C14.68546875 41.88109375 15.01546875 40.89109375 15.35546875 39.87109375 C24.24585311 40.99546589 31.7537673 45.24467719 37.33203125 52.2578125 C39.80026663 56.14858049 39.94950517 60.4158206 39.35546875 64.87109375 C35.48619831 72.60963462 28.29220316 77.80381444 20.35546875 80.87109375 C10.91140676 83.69764674 1.86141332 84.38429261 -7.95703125 84.30859375 C-8.63673981 84.3058847 -9.31644836 84.30317566 -10.01675415 84.30038452 C-20.43656045 84.23743839 -29.81986352 83.49884636 -39.64453125 79.87109375 C-40.70929688 79.50886719 -41.7740625 79.14664063 -42.87109375 78.7734375 C-50.21947237 76.0294227 -56.77610857 72.10415571 -62.64453125 66.87109375 C-62.64453125 66.21109375 -62.64453125 65.55109375 -62.64453125 64.87109375 C-63.30453125 64.87109375 -63.96453125 64.87109375 -64.64453125 64.87109375 C-65.30453125 63.55109375 -65.96453125 62.23109375 -66.64453125 60.87109375 C-65.65453125 59.88109375 -65.65453125 59.88109375 -64.64453125 58.87109375 C-61.2468224 59.20103655 -59.37642255 60.69034585 -56.89453125 62.93359375 C-55.97414063 63.75537109 -55.97414063 63.75537109 -55.03515625 64.59375 C-54.57625 65.01527344 -54.11734375 65.43679688 -53.64453125 65.87109375 C-61.09183198 59.44448906 -66.55549676 51.62872131 -68.64453125 41.87109375 C-69.47780466 28.08793191 -68.81054472 16.9197538 -59.55078125 5.93359375 C-43.84083816 -11.06404959 -18.69344785 -15.0486397 0 0 Z " fill="#F2F2F2" transform="translate(155.64453125,232.12890625)"/>
<path d="M0 0 C15.84 0 31.68 0 48 0 C48 46.53 48 93.06 48 141 C32.16 141 16.32 141 0 141 C0 94.47 0 47.94 0 0 Z " fill="#D6CDC1" transform="translate(321,402)"/>
<path d="M0 0 C9.77099813 7.92558099 14.96148448 18.7572119 16.3515625 31.12890625 C16.87224493 42.51540891 13.18116551 52.41556323 5.8046875 61.07421875 C-1.5979969 68.97362007 -10.70614267 74.5331319 -21.72265625 75.23828125 C-35.23402981 75.58608643 -45.50813296 73.07743445 -56 64 C-65.98180444 53.54013979 -68.51154398 42.60796466 -68.2734375 28.5625 C-67.79544911 17.03398797 -61.97119184 8.42804456 -53.6875 0.75 C-37.6379576 -12.17580596 -16.47266938 -12.14680316 0 0 Z " fill="#F2F2F2" transform="translate(471,83)"/>
<path d="M0 0 C7.80840637 7.11465382 13.42817581 17.33142919 14.21875 27.93359375 C14.59933202 41.39668267 10.97209154 52.51459823 2 62.6875 C-7.32135219 71.48635487 -19.02380761 74.3403409 -31.43359375 74.2109375 C-42.55556044 73.55312129 -52.81421527 68.16926237 -60.40234375 60.04296875 C-68.68399023 49.45299049 -71.21055208 38.23847341 -70 25 C-67.47265278 12.25129281 -60.33054636 2.79617866 -49.67578125 -4.41015625 C-33.64724862 -13.93367856 -14.34256121 -11.28372114 0 0 Z " fill="#F2F2F2" transform="translate(899,192)"/>
<path d="M0 0 C7.22531036 5.16235967 13.129845 11.09126165 15 20 C16.32517444 36.69719797 7.05895541 51.69107874 -3.3359375 64.01171875 C-5.14598158 66.10127609 -5.14598158 66.10127609 -7 69 C-7.66 69 -8.32 69 -9 69 C-9 69.66 -9 70.32 -9 71 C-27.6845575 72.77093207 -46.38015074 74.39737567 -65.0869751 75.91516113 C-67.30970316 76.09582991 -69.5323207 76.27786385 -71.75482178 76.46130371 C-74.91825884 76.72183531 -78.08209303 76.97688513 -81.24609375 77.23046875 C-82.18356949 77.308452 -83.12104523 77.38643524 -84.08692932 77.46678162 C-90.07076789 77.93821965 -95.99841752 78.08973298 -102 78 C-102 77.67 -102 77.34 -102 77 C-100.79085938 76.86464844 -99.58171875 76.72929687 -98.3359375 76.58984375 C-84.46262074 74.84625725 -71.78862616 71.91182533 -62.61328125 60.3984375 C-55.95661953 50.50209296 -52.85107035 40.95150957 -54 29 C-54.90664021 25.47586294 -55.98113461 22.09909727 -57.22265625 18.6796875 C-58 16 -58 16 -57 13 C-41.65401508 -0.89076222 -19.76600264 -10.08524555 0 0 Z " fill="#010102" transform="translate(540,82)"/>
<path d="M0 0 C1 2 1 2 0.5 4.375 C-0.23659757 7.24297932 -0.23659757 7.24297932 1 11 C4.63 11 8.26 11 12 11 C12.144375 10.0925 12.28875 9.185 12.4375 8.25 C12.86409473 5.78523044 13.35074221 3.41152893 14 1 C15.36839363 3.73678725 15.21634818 6.04264424 15.31640625 9.1015625 C15.35830078 10.31328125 15.40019531 11.525 15.44335938 12.7734375 C15.48267578 14.04445313 15.52199219 15.31546875 15.5625 16.625 C15.60568359 17.90375 15.64886719 19.1825 15.69335938 20.5 C15.79969886 23.66655348 15.90172833 26.83318753 16 30 C17.32069 28.90962685 17.32069 28.90962685 17.0625 26.234375 C17.02102012 23.92187164 16.97935514 21.6093716 16.9375 19.296875 C16.99294681 16.37205569 17.31806593 13.83428847 18 11 C18.33 11 18.66 11 19 11 C19.02578125 12.17175781 19.0515625 13.34351563 19.078125 14.55078125 C19.49722846 27.70698561 21.24013166 37.71667629 30 48 C30.49371094 48.60199219 30.98742187 49.20398438 31.49609375 49.82421875 C32.65062205 51.22731405 33.8232009 52.61553047 35 54 C32.07898986 52.80995883 30.70053772 51.67807805 28.5 49.3125 C27.675 48.549375 26.85 47.78625 26 47 C23.72476911 47.04497842 23.72476911 47.04497842 22 48 C22.33 49.32 22.66 50.64 23 52 C23.66 52 24.32 52 25 52 C25.99 53.051875 25.99 53.051875 27 54.125 C38.03084942 65.44361071 55.97488481 69.91345584 71.30078125 70.30078125 C73.2954684 70.31159523 75.29020625 70.32217909 77.28491211 70.31567383 C79.29922053 70.31252079 81.31204447 70.3360318 83.32617188 70.36132812 C96.6508886 70.3678759 110.85638505 68.70993132 120.98046875 59.125 C124.72396709 54.85687838 126.39338951 52.04015845 126.265625 46.15234375 C125.6833028 41.43382125 123.59715705 38.35644499 120.08203125 35.37109375 C114.77073961 31.62028779 109.10665809 29.16728993 103 27 C102.34 29.97 101.68 32.94 101 36 C99.91400606 32.74201817 100.12919395 32.13563201 101 29 C101.14129118 27.48729395 101.24462817 25.97071872 101.31640625 24.453125 C101.35830078 23.60878906 101.40019531 22.76445312 101.44335938 21.89453125 C101.48267578 21.02183594 101.52199219 20.14914062 101.5625 19.25 C101.62727539 17.91775391 101.62727539 17.91775391 101.69335938 16.55859375 C101.79913615 14.37254037 101.90122546 12.18637911 102 10 C116.04699145 11.66090213 128.50390434 17.98440032 137.53125 28.94921875 C142.64076785 36.08351895 144.94875858 43.23400525 144 52 C141.12205403 63.57756551 134.95697344 71.57208044 125 78 C101.3409114 91.14393811 71.91761981 90.8812927 46.41796875 83.74609375 C32.79222131 79.68739074 22.03202604 72.97520763 11 64 C10.01 68.95 10.01 68.95 9 74 C2.98386554 69.62462948 0.33399968 65.00199903 -2 58 C-2.99 60.475 -2.99 60.475 -4 63 C-5 60 -5 60 -3.96875 57.6171875 C-3.4840625 56.71226562 -2.999375 55.80734375 -2.5 54.875 C0.13854332 49.35738316 0.32903363 45.8540767 -1 40 C-2.26066201 33.50205935 -2.18605729 27.05705302 -2.18530273 20.4675293 C-2.18750435 18.30823483 -2.20573992 16.14943971 -2.22460938 13.99023438 C-2.22754108 12.61458507 -2.22952737 11.23893336 -2.23046875 9.86328125 C-2.23457764 8.61844971 -2.23868652 7.37361816 -2.24291992 6.09106445 C-2 3 -2 3 0 0 Z " fill="#6CA8E4" transform="translate(68,245)"/>
<path d="M0 0 C7.66807052 6.59133955 7.66807052 6.59133955 8.203125 12.0859375 C8.32602081 18.08734935 7.61619879 21.18053765 3.44140625 25.6796875 C-8.74573389 37.48677129 -25.36593168 38.4276962 -41.43530273 38.36132812 C-62.84457071 37.99592312 -81.89146191 30.48982612 -97 15 C-93.59652411 6.23407081 -80.63837576 0.23413946 -72.6484375 -3.4921875 C-51.6625897 -12.16513959 -19.17599246 -14.3721504 0 0 Z " fill="#D6CDC1" transform="translate(187,361)"/>
<path d="M0 0 C1.22525391 -0.01611328 2.45050781 -0.03222656 3.71289062 -0.04882812 C16.96397594 -0.05581341 32.36075948 1.64064112 42.6328125 10.96484375 C46.10877439 15.0267535 47.12567785 17.88063353 47.01953125 23.2265625 C46.54444311 28.01329957 44.21038025 31.1726812 40.8125 34.375 C25.82404285 46.35322308 6.04835756 46.59645942 -12.1875 45.3125 C-30.38251092 43.15584126 -46.87405903 33.60316228 -58.1875 19.3125 C-48.04494225 10.71337495 -35.97031268 5.57389477 -23.1875 2.3125 C-22.56399658 2.13517334 -21.94049316 1.95784668 -21.2980957 1.77514648 C-14.24090999 -0.05915037 -7.25582697 -0.01878774 0 0 Z " fill="#D6CDC1" transform="translate(148.1875,433.6875)"/>
<path d="M0 0 C9.78310146 3.71757856 15.59511631 11.78214925 20.515625 20.7109375 C24.21527812 29.17845344 23.48309084 38.14570627 23.125 47.1875 C22.43688232 47.3827124 21.74876465 47.5779248 21.03979492 47.77905273 C1.66908257 53.33771709 -16.1049356 59.72968359 -32.80322266 71.17724609 C-37.42316528 74.26737408 -37.42316528 74.26737408 -40.07641602 73.79833984 C-40.66994873 73.5967627 -41.26348145 73.39518555 -41.875 73.1875 C-41.96307085 68.89596555 -42.01574921 64.60466776 -42.0625 60.3125 C-42.08763672 59.10851562 -42.11277344 57.90453125 -42.13867188 56.6640625 C-42.25914071 41.88655214 -38.15266529 32.48659784 -27.95825195 21.97338867 C-22.58077608 16.55151228 -17.07803607 11.43253061 -10.984375 6.8125 C-9.07535629 5.34184855 -7.37089814 3.78090339 -5.625 2.125 C-2.875 0.1875 -2.875 0.1875 0 0 Z " fill="#F2F2F2" transform="translate(589.875,443.8125)"/>
<path d="M0 0 C1.41171274 -0.01525726 1.41171274 -0.01525726 2.85194492 -0.03082275 C14.00556367 0.00387127 22.68561211 3.60248521 31.19946289 10.92578125 C41.00735708 21.11289104 44.84188445 32.89504796 44.69946289 46.7890625 C43.95187213 56.0760351 40.16450196 64.01098834 34.42211914 71.234375 C33.70475586 72.15669922 33.70475586 72.15669922 32.97290039 73.09765625 C26.96882654 79.91840514 17.09412375 85.15551847 8.04711914 86.171875 C6.85086914 86.1925 5.65461914 86.213125 4.42211914 86.234375 C4.42211914 85.574375 4.42211914 84.914375 4.42211914 84.234375 C5.08211914 84.234375 5.74211914 84.234375 6.42211914 84.234375 C6.78950195 83.40679687 6.78950195 83.40679687 7.16430664 82.5625 C8.67859792 79.75965031 10.55407061 77.47047734 12.54711914 74.984375 C16.21317024 70.24403692 19.17253439 65.33846353 21.85961914 59.984375 C22.18913574 59.3356543 22.51865234 58.68693359 22.8581543 58.01855469 C26.74499024 50.01755872 29.02397917 41.48834348 26.76977539 32.6875 C24.04550338 24.97067799 19.6673997 19.7551339 12.42211914 15.921875 C1.39077211 11.02605813 -9.34870712 10.72243229 -20.66772461 14.97265625 C-28.50067135 18.36868551 -35.24284333 22.41856126 -41.70288086 28.01171875 C-42.32163086 28.41519531 -42.94038086 28.81867188 -43.57788086 29.234375 C-46.9977264 28.09442649 -47.29676825 27.49641106 -49.20288086 24.609375 C-56.25692953 14.93822227 -65.92506849 10.22342188 -77.57788086 8.234375 C-84.94054881 7.49952138 -91.52745627 9.26515366 -98.57788086 11.234375 C-99.9100364 11.57238462 -101.24288567 11.90776097 -102.57788086 12.234375 C-102.24788086 11.244375 -101.91788086 10.254375 -101.57788086 9.234375 C-105.86788086 9.234375 -110.15788086 9.234375 -114.57788086 9.234375 C-114.57788086 8.904375 -114.57788086 8.574375 -114.57788086 8.234375 C-101.67682676 7.18040209 -88.77499137 6.13660388 -75.87211514 5.10516357 C-69.8783695 4.62572257 -63.88492776 4.14301077 -57.89208984 3.65234375 C-52.08956606 3.17738795 -46.28636428 2.71165071 -40.48262215 2.25183105 C-38.28804064 2.07641915 -36.09370503 1.89789706 -33.8996563 1.71594238 C-22.59898413 0.78087161 -11.34277554 0.0693878 0 0 Z " fill="#6CACEB" transform="translate(526.577880859375,66.765625)"/>
<path d="M0 0 C0.56847656 0.72574219 1.13695313 1.45148438 1.72265625 2.19921875 C3.17127697 3.9807986 4.67517464 5.71979488 6.24609375 7.39453125 C8.46085723 9.83827206 10.36260739 12.13345358 12 15 C11 18.6875 11 18.6875 9.96875 20.61328125 C7.47952612 26.74600622 7.99168891 34.66136995 9.87890625 40.91015625 C16.43679403 54.91330276 28.95939696 62.62425274 43 68 C60.69833563 74.33970231 79.17923654 76.30408891 97.90698242 76.53417969 C102.72672995 76.64457285 106.10992907 76.81295394 110 80 C111.12256131 82.24512262 111.13413762 83.51456649 111.125 86 C111.12886719 87.051875 111.12886719 87.051875 111.1328125 88.125 C111 90 111 90 110 92 C109.34 91.67 108.68 91.34 108 91 C108.33 90.34 108.66 89.68 109 89 C109.37615126 84.86935374 109.37615126 84.86935374 107.875 81.125 C105.11909116 79.47145469 103.14924548 79.60634432 100 80 C98 81 98 81 97 83 C96.60984439 86.12124489 96.44122451 88.09975061 98.125 90.8125 C100.66676215 92.42228269 103.0398108 92.67109009 106 93 C106 93.33 106 93.66 106 94 C69.85338575 94.46741312 32.4011748 89.7903981 4.75 64.25 C-5.37115023 53.63006618 -9.68889138 40.98006848 -9.35546875 26.5 C-8.50708826 18.14671516 -5.2881648 11.09765208 -1 4 C-0.23959428 1.73014106 -0.23959428 1.73014106 0 0 Z " fill="#6BA8E5" transform="translate(68,450)"/>
<path d="M0 0 C0 0.66 0 1.32 0 2 C0.59167969 2.04898437 1.18335938 2.09796875 1.79296875 2.1484375 C6.19104472 2.56456867 9.96928897 3.04965595 14 5 C14 5.66 14 6.32 14 7 C15.19625 7.061875 16.3925 7.12375 17.625 7.1875 C26.8146904 8.22316352 35.78911637 10.9692348 42 18 C44.48499142 21.54998775 44.43249013 24.74718041 44 29 C42.64794434 32.55919518 40.72695317 35.3171046 37.9375 37.9375 C26.30600084 42.14463799 14.65054609 36.09605293 3.8125 32 C1.98432464 31.32389437 0.15555237 30.6494005 -1.67382812 29.9765625 C-6.12299252 28.33623026 -10.56348564 26.67422837 -15 25 C-15 24.34 -15 23.68 -15 23 C-17.31 22.34 -19.62 21.68 -22 21 C-22.33 19.35 -22.66 17.7 -23 16 C-23.66 16 -24.32 16 -25 16 C-25 12.7 -25 9.4 -25 6 C-24.34 6 -23.68 6 -23 6 C-22.979375 5.2575 -22.95875 4.515 -22.9375 3.75 C-21.77799236 0.3487776 -20.12139356 -0.68803398 -16.95703125 -2.2734375 C-10.80016701 -4.55921943 -5.69671423 -2.39861652 0 0 Z " fill="#CCC3B8" transform="translate(739,271)"/>
<path d="M0 0 C8.89038436 1.12437214 16.39829855 5.37358344 21.9765625 12.38671875 C24.44479788 16.27748674 24.59403642 20.54472685 24 25 C20.13072956 32.73854087 12.93673441 37.93272069 5 41 C-4.44406199 43.82655299 -13.49405543 44.51319886 -23.3125 44.4375 C-23.99220856 44.43479095 -24.67191711 44.43208191 -25.3722229 44.42929077 C-35.7920292 44.36634464 -45.17533227 43.62775261 -55 40 C-56.06476563 39.63777344 -57.12953125 39.27554688 -58.2265625 38.90234375 C-65.57494112 36.15832895 -72.13157732 32.23306196 -78 27 C-78 26.34 -78 25.68 -78 25 C-78.66 25 -79.32 25 -80 25 C-80.66 23.68 -81.32 22.36 -82 21 C-81.34 20.34 -80.68 19.68 -80 19 C-76.73581545 19.3270726 -75.28563747 20.44430472 -73.1875 22.875 C-70.12726615 26.08824555 -67.18860364 27.4381478 -63 29 C-60.73070377 30.03114321 -58.47049356 31.08052827 -56.2109375 32.1328125 C-46.63426737 35.88903294 -35.64221846 34.67233297 -26.140625 31.37890625 C-15.31697658 26.62673225 -9.20752501 19.41505002 -4 9 C-3.34 9 -2.68 9 -2 9 C-1.34 6.03 -0.68 3.06 0 0 Z " fill="#D0C8BC" transform="translate(171,272)"/>
<path d="M0 0 C3.89888765 1.42930828 7.7935231 2.86987214 11.6875 4.3125 C12.79029297 4.71662109 13.89308594 5.12074219 15.02929688 5.53710938 C16.09599609 5.93349609 17.16269531 6.32988281 18.26171875 6.73828125 C19.73064575 7.28029175 19.73064575 7.28029175 21.22924805 7.83325195 C24.97512862 9.41062117 28.11335725 10.9910617 30.8125 14.0625 C32.57021759 18.41053825 32.65950013 22.37608898 32 27 C30.18766463 30.83378636 28.69973473 32.53351018 25.1875 34.875 C19.34977898 36.93537212 14.40974668 36.10162689 8.67578125 34.09375 C7.49121338 33.68310303 6.30664551 33.27245605 5.08618164 32.84936523 C3.82813271 32.40001067 2.57024177 31.95021358 1.3125 31.5 C0.0163694 31.04515604 -1.27993758 30.59081442 -2.57641602 30.13696289 C-11.08917441 27.13638642 -19.51677319 23.93831459 -27.83276367 20.42578125 C-31.8982426 18.72770691 -35.57907094 17.51145455 -40 17 C-40 16.67 -40 16.34 -40 16 C-39.10539063 15.96261719 -38.21078125 15.92523438 -37.2890625 15.88671875 C-21.87312259 15.04853865 -10.82696239 11.21810987 0 0 Z " fill="#CDC4B9" transform="translate(904,250)"/>
<path d="M0 0 C6.8186033 1.15158634 11.63616242 2.86815122 16.8125 7.6875 C18.68427139 11.33252849 19.11343626 14.9233845 19 19 C17.40594023 23.69362043 15.28109703 26.48718218 11 29 C4.42096112 30.86875423 -0.81835448 29.586646 -7 27 C-7 26.01 -7 25.02 -7 24 C-7.350625 23.29875 -7.70125 22.5975 -8.0625 21.875 C-9.41673929 17.72199952 -9.14342263 14.19746758 -8 10 C-6.11419223 6.49778557 -4.07633253 4.33485901 -0.1875 3.125 C0.8953125 3.063125 0.8953125 3.063125 2 3 C2 2.34 2 1.68 2 1 C1.34 0.67 0.68 0.34 0 0 Z " fill="#D1963D" transform="translate(778,381)"/>
<path d="M0 0 C6.99689594 1.20581427 12.98164403 2.68954506 17.9375 8.125 C19.53802004 12.45581893 19.65002973 16.44248821 19 21 C17.18766463 24.83378636 15.69973473 26.53351018 12.1875 28.875 C5.18924315 31.34497301 -0.35427048 29.53170648 -7 27 C-6.34 26.67 -5.68 26.34 -5 26 C-5.495 25.38125 -5.99 24.7625 -6.5 24.125 C-8.62750674 19.69269429 -8.93855624 15.82793331 -8 11 C-6.00982758 7.42541848 -3.78491147 4.55382891 0.203125 3.31640625 C0.79609375 3.21199219 1.3890625 3.10757812 2 3 C2 2.34 2 1.68 2 1 C1.34 0.67 0.68 0.34 0 0 Z " fill="#CF6243" transform="translate(912,355)"/>
<path d="M0 0 C3.56568061 1.54335429 6.31019147 3.24343581 8.9375 6.125 C10.53802004 10.45581893 10.65002973 14.44248821 10 19 C8.18766463 22.83378636 6.69973473 24.53351018 3.1875 26.875 C-4.61617313 29.62923758 -10.68638041 26.96247882 -18 24 C-17.01 23.34 -16.02 22.68 -15 22 C-15.66 21.01 -16.32 20.02 -17 19 C-17.76603375 14.7868144 -17.9475779 10.70817554 -15.83203125 6.89453125 C-11.32843264 1.46474269 -7.25546156 -2.17663847 0 0 Z " fill="#D89A3D" transform="translate(926,258)"/>
<path d="M0 0 C4.5007346 3.63889181 6.72702564 6.58872649 7.375 12.3125 C6.82414791 17.72921221 4.97706877 21.14275358 0.9375 24.9375 C-6.6335571 27.67596746 -13.86739762 26.22985768 -21 23 C-20.01 22.34 -19.02 21.68 -18 21 C-18.515625 20.175 -19.03125 19.35 -19.5625 18.5 C-21.27531453 14.32966898 -21.4692336 11.2128853 -20 7 C-17.77730751 3.41704776 -15.17252412 0.79224603 -11.6875 -1.5625 C-7.51088613 -2.24241389 -3.93057995 -1.51944379 0 0 Z " fill="#D16243" transform="translate(776,284)"/>
<path d="M0 0 C0.65484375 0.44730469 1.3096875 0.89460938 1.984375 1.35546875 C20.32849122 13.50715026 39.49926224 16.53728388 61 18 C51.18402218 25.4570302 40.9809699 26.28107235 29 25 C16.82336417 22.5559959 7.84669959 14.27004938 1.125 4.1875 C0 2 0 2 0 0 Z " fill="#050708" transform="translate(93,299)"/>
<path d="M0 0 C2 2 2 2 2.23047829 4.90104866 C2.22126036 6.15284353 2.21204243 7.4046384 2.20254517 8.69436646 C2.20017046 9.39027921 2.19779576 10.08619196 2.1953491 10.80319297 C2.18489169 13.14646251 2.16000936 15.48936058 2.13525391 17.83251953 C2.12483294 19.50766493 2.11529676 21.18281604 2.10658264 22.85797119 C2.08035165 27.41565514 2.04168684 31.97316016 2.00085878 36.53073359 C1.96031587 41.28996258 1.93111178 46.0492605 1.90072632 50.80856323 C1.84142449 59.82547276 1.77186388 68.84227307 1.69865549 77.85907924 C1.60034429 90.04030855 1.51780298 102.22164392 1.43439865 114.40298271 C1.30252685 133.60210115 1.14951869 152.80099211 1 172 C39.28 172 77.56 172 117 172 C117 175.63 117 179.26 117 183 C116.67 183 116.34 183 116 183 C116 179.7 116 176.4 116 173 C110.36621045 173.0952059 104.73276977 173.20161168 99.09936523 173.31738281 C97.19219397 173.35512008 95.28496474 173.39005663 93.37768555 173.421875 C80.48113483 173.63948092 67.8037398 174.42418359 55 176 C55 175.67 55 175.34 55 175 C47.36695736 174.97669324 39.73391847 174.95899237 32.1008482 174.94818783 C28.55541909 174.94299874 25.01001457 174.93597448 21.46459961 174.92456055 C17.3761371 174.91148272 13.28769988 174.90673897 9.19921875 174.90234375 C7.94356613 174.89718246 6.68791351 174.89202118 5.39421082 174.88670349 C-1.79572229 174.88625109 -8.85403471 175.19318363 -16 176 C-10.38308992 173.09103183 -6.5194164 173 0 173 C0 115.91 0 58.82 0 0 Z " fill="#7E7870" transform="translate(837,250)"/>
<path d="M0 0 C2.71663793 2.71663793 2.30753121 4.30194653 2.4140625 8.1015625 C2.45273438 9.31328125 2.49140625 10.525 2.53125 11.7734375 C2.57765625 13.67996094 2.57765625 13.67996094 2.625 15.625 C2.66367188 16.90375 2.70234375 18.1825 2.7421875 19.5 C2.83671049 22.66652017 2.92226357 25.8330304 3 29 C4.32069 27.90962685 4.32069 27.90962685 4.0625 25.234375 C4.02102012 22.92187164 3.97935514 20.6093716 3.9375 18.296875 C3.99294681 15.37205569 4.31806593 12.83428847 5 10 C5.33 10 5.66 10 6 10 C6.03867188 11.75763672 6.03867188 11.75763672 6.078125 13.55078125 C6.49722846 26.70698561 8.24013166 36.71667629 17 47 C17.49371094 47.60199219 17.98742187 48.20398438 18.49609375 48.82421875 C19.65062205 50.22731405 20.8232009 51.61553047 22 53 C19.07898986 51.80995883 17.70053772 50.67807805 15.5 48.3125 C14.675 47.549375 13.85 46.78625 13 46 C10.72476911 46.04497842 10.72476911 46.04497842 9 47 C9.33 48.32 9.66 49.64 10 51 C5.13560735 46.83052059 2.3033512 41.226291 1 35 C0.85442362 33.08465792 0.75345027 31.1656895 0.68359375 29.24609375 C0.64169922 28.14458984 0.59980469 27.04308594 0.55664062 25.90820312 C0.51732422 24.76287109 0.47800781 23.61753906 0.4375 22.4375 C0.39431641 21.28830078 0.35113281 20.13910156 0.30664062 18.95507812 C0.07321315 12.63030519 0 6.3291541 0 0 Z " fill="#6082A3" transform="translate(81,246)"/>
<path d="M0 0 C0 3.43935849 -0.81597459 4.82209477 -2.4375 7.8125 C-4.38355552 11.56717775 -5.66260971 14.72638963 -6 19 C-5.34 19.33 -4.68 19.66 -4 20 C-9.73193587 19.45625905 -14.31865933 17.82127347 -19.5625 15.5 C-24.38361761 13.37717368 -28.70617696 11.60214101 -34 11 C-34 10.67 -34 10.34 -34 10 C-33.10539063 9.96261719 -32.21078125 9.92523438 -31.2890625 9.88671875 C-18.91679417 9.21402612 -10.36068298 6.81159796 0 0 Z " fill="#121211" transform="translate(898,256)"/>
<path d="M0 0 C3.95820859 0.56545837 6.6659053 1.80902348 10 4 C9.15676554 9.92398891 6.14363774 13.9835568 3 19 C-0.3 17.35 -3.6 15.7 -7 14 C-5.53967505 8.68972746 -3.01679014 4.53669968 0 0 Z " fill="#B3583D" transform="translate(632,111)"/>
<path d="M0 0 C1.7280919 1.62643944 3.36358987 3.28407122 5 5 C5.59683594 5.56976563 6.19367188 6.13953125 6.80859375 6.7265625 C8.71642572 8.79161002 9.97773225 10.37131151 11 13 C10.37015535 17.02431717 8.83917957 20.38892792 7 24 C6.6184375 24.76828125 6.236875 25.5365625 5.84375 26.328125 C5.5653125 26.87984375 5.286875 27.4315625 5 28 C4.773125 27.154375 4.54625 26.30875 4.3125 25.4375 C3.17974645 22.47076452 2.35441285 21.05871011 0.4375 18.6875 C-2.51600446 14.7261231 -3.34724908 10.91491013 -3 6 C-1.5625 2.4375 -1.5625 2.4375 0 0 Z " fill="#080B0D" transform="translate(70,376)"/>
<path d="M0 0 C0.33 3.96 0.66 7.92 1 12 C-0.588125 12.66 -2.17625 13.32 -3.8125 14 C-4.70582031 14.37125 -5.59914063 14.7425 -6.51953125 15.125 C-9 16 -9 16 -12 16 C-13.32 13.03 -14.64 10.06 -16 7 C-14.54261898 6.01941648 -13.08406325 5.04057868 -11.625 4.0625 C-10.81289063 3.51722656 -10.00078125 2.97195312 -9.1640625 2.41015625 C-5.44327714 -0.01439883 -4.92935074 0 0 0 Z " fill="#B2583E" transform="translate(650,233)"/>
<path d="M0 0 C0.66 0 1.32 0 2 0 C3.69140625 2.265625 3.69140625 2.265625 5.5625 5.25 C6.18253906 6.22453125 6.80257812 7.1990625 7.44140625 8.203125 C9.42066067 11.75486977 10.31005559 13.56897422 9.44140625 17.578125 C9.15136719 18.45984375 8.86132812 19.3415625 8.5625 20.25 C8.27503906 21.14203125 7.98757812 22.0340625 7.69140625 22.953125 C7.46324219 23.62859375 7.23507813 24.3040625 7 25 C2.08849278 21.42799475 -1.25941524 17.94426116 -3 12 C-3.18021562 7.68266067 -2.3076551 3.69224816 0 0 Z " fill="#06090B" transform="translate(70,294)"/>
<path d="M0 0 C2.375 1.625 2.375 1.625 4 4 C4.61195145 7.6717087 4.48706506 9.28813568 2.375 12.375 C-0.71186432 14.48706506 -2.3282913 14.61195145 -6 14 C-8.375 12.375 -8.375 12.375 -10 10 C-10.61195145 6.3282913 -10.48706506 4.71186432 -8.375 1.625 C-5.28813568 -0.48706506 -3.6717087 -0.61195145 0 0 Z " fill="#EFEFEF" transform="translate(174,529)"/>
<path d="M0 0 C2.85109227 2.85109227 2.86327758 5.03504975 3 9 C1.5 11.4375 1.5 11.4375 -1 13 C-6.86310905 13.72003094 -6.86310905 13.72003094 -9.875 11.8125 C-11.32341076 9.47894933 -11.79934207 7.74232501 -12 5 C-11.18606507 2.41020705 -10.41871836 1.31403877 -8.25 -0.3125 C-5.19011781 -1.247464 -3.06768286 -0.80026509 0 0 Z " fill="#EEEEED" transform="translate(79,244)"/>
<path d="M0 0 C5.14837874 2.21793995 8.76994453 5.84441412 11 11 C10.40984928 15.0631616 8.93209887 18.39835228 7 22 C-1.05132571 15.9292143 -1.05132571 15.9292143 -2 10 C-1.86247324 6.5028909 -1.58558911 3.17117823 0 0 Z " fill="#07090C" transform="translate(69,454)"/>
<path d="M0 0 C0 0.33 0 0.66 0 1 C-4.92502898 1.43330728 -9.85055394 1.86028299 -14.77661133 2.28173828 C-16.44765543 2.42556358 -18.11855907 2.57103172 -19.78930664 2.71826172 C-28.87196377 3.5175138 -37.87089381 4.27521102 -47 4 C-47 4.66 -47 5.32 -47 6 C-47.87140625 5.96519531 -48.7428125 5.93039063 -49.640625 5.89453125 C-57.95645395 5.70553514 -65.04926282 6.62462496 -73 9 C-74.33147953 9.34066282 -75.66412421 9.67700656 -77 10 C-76.67 9.01 -76.34 8.02 -76 7 C-80.29 7 -84.58 7 -89 7 C-89 6.67 -89 6.34 -89 6 C-79.31583898 5.21155597 -69.63123856 4.42880798 -59.94604969 3.65309143 C-55.44761182 3.29262273 -50.94934206 2.93028096 -46.45141602 2.56347656 C-42.10104841 2.2087779 -37.75029292 1.85923712 -33.39923668 1.51309204 C-31.7491378 1.38094209 -30.09918023 1.2470138 -28.44938087 1.11117554 C-18.93639389 0.32922939 -9.55250643 -0.19902838 0 0 Z " fill="#516170" transform="translate(501,69)"/>
<path d="M0 0 C1.17539996 0.92652701 2.34010577 1.86663387 3.5 2.8125 C4.1496875 3.33457031 4.799375 3.85664063 5.46875 4.39453125 C7 6 7 6 7 9 C5.17806158 10.9249647 3.10764717 12.37535531 1 14 C-1.31 12.02 -3.62 10.04 -6 8 C-4.21844267 4.43688534 -2.83236991 2.64354525 0 0 Z " fill="#F0EFEF" transform="translate(368,196)"/>
<path d="M0 0 C1.32 0.66 2.64 1.32 4 2 C2.46751951 5.58402695 0.3325399 8.02850134 -2.375 10.8125 C-3.14585937 11.62332031 -3.91671875 12.43414062 -4.7109375 13.26953125 C-7 15 -7 15 -9.2890625 14.76171875 C-9.85367187 14.51035156 -10.41828125 14.25898438 -11 14 C-11 11 -11 11 -8.59375 8.30078125 C-7.5700032 7.29697757 -6.5383946 6.30114351 -5.5 5.3125 C-4.97535156 4.80138672 -4.45070313 4.29027344 -3.91015625 3.76367188 C-2.61339096 2.50227292 -1.30753883 1.25022788 0 0 Z " fill="#984B35" transform="translate(375,143)"/>
<path d="M0 0 C4.46628401 0.06905248 8.93167585 0.15710231 13.3972168 0.26245117 C14.91501621 0.29561916 16.43293656 0.32367632 17.95092773 0.34643555 C20.13838019 0.38013278 22.32473264 0.43245204 24.51171875 0.48828125 C25.82615967 0.51446533 27.14060059 0.54064941 28.49487305 0.56762695 C32.15375743 1.01896667 34.08810216 1.78527411 37 4 C38.12256131 6.24512262 38.13413762 7.51456649 38.125 10 C38.12886719 11.051875 38.12886719 11.051875 38.1328125 12.125 C38 14 38 14 37 16 C36.34 15.67 35.68 15.34 35 15 C35.33 14.34 35.66 13.68 36 13 C36.349104 8.90814871 36.349104 8.90814871 35 5.125 C32.34748953 3.63296286 30.01917725 3.81970074 27.03515625 3.9921875 C25 4 25 4 23.18432617 3.53393555 C20.78498642 2.94744219 18.47502325 2.68978871 16.015625 2.46484375 C15.08105469 2.37783203 14.14648438 2.29082031 13.18359375 2.20117188 C12.21550781 2.11416016 11.24742187 2.02714844 10.25 1.9375 C9.26644531 1.84662109 8.28289062 1.75574219 7.26953125 1.66210938 C4.84659453 1.43863463 2.42343149 1.21803267 0 1 C0 0.67 0 0.34 0 0 Z " fill="#546370" transform="translate(141,526)"/>
<path d="M0 0 C1.5625 1.0625 1.5625 1.0625 3 3 C2.89470715 8.58052085 1.25223599 11.69865562 -2 16 C-2 14.33333333 -2 12.66666667 -2 11 C-3.22976563 11.55880859 -3.22976563 11.55880859 -4.484375 12.12890625 C-5.56203125 12.60199219 -6.6396875 13.07507813 -7.75 13.5625 C-8.81734375 14.03816406 -9.8846875 14.51382812 -10.984375 15.00390625 C-13.98369837 15.9946154 -15.13421241 16.16161779 -18 15 C-17.11957031 14.67386719 -16.23914063 14.34773438 -15.33203125 14.01171875 C-13.58986328 13.35623047 -13.58986328 13.35623047 -11.8125 12.6875 C-10.66394531 12.25824219 -9.51539063 11.82898438 -8.33203125 11.38671875 C-5.29786399 10.1239645 -2.63412878 8.96576775 0 7 C0.41725678 3.37400578 0.41725678 3.37400578 0 0 Z " fill="#73442A" transform="translate(631,294)"/>
<path d="M0 0 C0 0.66 0 1.32 0 2 C2.64 2.33 5.28 2.66 8 3 C8 3.33 8 3.66 8 4 C4.20893744 4.34044412 0.41707386 4.67102759 -3.375 5 C-4.96634766 5.14308594 -4.96634766 5.14308594 -6.58984375 5.2890625 C-13.07998467 5.84649792 -19.48639986 6.13132994 -26 6 C-26 5.67 -26 5.34 -26 5 C-25.17592651 4.87939209 -25.17592651 4.87939209 -24.33520508 4.75634766 C-21.82665553 4.38555309 -19.31961554 4.00536472 -16.8125 3.625 C-15.94818359 3.49867188 -15.08386719 3.37234375 -14.19335938 3.2421875 C-9.53538493 2.52832169 -4.50578696 0 0 0 Z " fill="#272A2C" transform="translate(464,154)"/>
<path d="M0 0 C0.515625 0.66 1.03125 1.32 1.5625 2 C4.09916701 5.12205171 6.73839823 8.12999278 9.4140625 11.1328125 C11 13 11 13 13 16 C10.11801227 14.82585685 8.69329931 13.67796428 6.5 11.375 C4.09138014 8.54083369 4.09138014 8.54083369 0 9 C0 6.03 0 3.06 0 0 Z " fill="#837F7A" transform="translate(90,283)"/>
<path d="M0 0 C0 0.66 0 1.32 0 2 C-2.31 2.66 -4.62 3.32 -7 4 C-6.67 3.01 -6.34 2.02 -6 1 C-10.29 1 -14.58 1 -19 1 C-19 0.67 -19 0.34 -19 0 C-16.95920995 -0.1968121 -14.91729993 -0.38202831 -12.875 -0.5625 C-11.73804688 -0.66691406 -10.60109375 -0.77132812 -9.4296875 -0.87890625 C-6.11102007 -0.99608016 -3.2437314 -0.6655072 0 0 Z " fill="#5B758F" transform="translate(431,75)"/>
<path d="M0 0 C-1.39750048 3.15835107 -3.05198234 5.32272825 -5.5 7.75 C-6.41265625 8.67039062 -6.41265625 8.67039062 -7.34375 9.609375 C-9 11 -9 11 -11 11 C-9.60249952 7.84164893 -7.94801766 5.67727175 -5.5 3.25 C-4.8915625 2.63640625 -4.283125 2.0228125 -3.65625 1.390625 C-2 0 -2 0 0 0 Z " fill="#A07739" transform="translate(269,464)"/>
<path d="M0 0 C6.22222222 -0.47863248 6.22222222 -0.47863248 9.4375 1.5 C11.7384032 5.18144512 11.34728373 7.69368174 11 12 C10.67 12.66 10.34 13.32 10 14 C9.34 13.67 8.68 13.34 8 13 C8.33 12.34 8.66 11.68 9 11 C9.38938338 6.89294529 9.38938338 6.89294529 7.875 3.1875 C5.33323785 1.57771731 2.9601892 1.32890991 0 1 C0 0.67 0 0.34 0 0 Z " fill="#4C545B" transform="translate(168,528)"/>
<path d="M0 0 C2.0625 0.4375 2.0625 0.4375 4 1 C3.67 2.65 3.34 4.3 3 6 C1.68 5.67 0.36 5.34 -1 5 C-1 1 -1 1 0 0 Z " fill="#AA6349" transform="translate(550,239)"/>
<path d="M0 0 C0.99 1.32 1.98 2.64 3 4 C2.34 4 1.68 4 1 4 C0.67 5.98 0.34 7.96 0 10 C-1.32 10.33 -2.64 10.66 -4 11 C-2.7874262 7.27566618 -1.49140021 3.62197194 0 0 Z " fill="#527394" transform="translate(68,450)"/>
<path d="M0 0 C1.051875 0.6496875 1.051875 0.6496875 2.125 1.3125 C6.23942462 3.72748837 10.30517827 3.7356314 15 4 C15 4.33 15 4.66 15 5 C7.87399867 5.35368021 2.52940894 4.95671348 -4 2 C-2.3125 0.8125 -2.3125 0.8125 0 0 Z " fill="#624B40" transform="translate(759,305)"/>
<path d="M0 0 C2.475 0.99 2.475 0.99 5 2 C5 2.33 5 2.66 5 3 C3.63875 3.4021875 3.63875 3.4021875 2.25 3.8125 C-0.71471963 4.89576294 -2.6169754 5.98359457 -5 8 C-4.45773019 4.20411134 -2.79872437 2.52788007 0 0 Z " fill="#8C867F" transform="translate(904,250)"/>
<path d="M0 0 C-1.44077046 3.36179774 -3.24750021 5.59156268 -6 8 C-6.66 8 -7.32 8 -8 8 C-6.48291727 4.46014029 -4.24676932 0 0 0 Z " fill="#A37837" transform="translate(208,535)"/>
<path d="M0 0 C0.33 0 0.66 0 1 0 C2.7578125 5.95703125 2.7578125 5.95703125 3 8 C2.01 9.485 2.01 9.485 1 11 C-0.98362069 8.08291076 -0.9876191 6.87619096 -0.625 3.25 C-0.41875 2.1775 -0.2125 1.105 0 0 Z " fill="#6B482F" transform="translate(379,295)"/>
<path d="M0 0 C3.96 0 7.92 0 12 0 C12 0.33 12 0.66 12 1 C10.35 1 8.7 1 7 1 C7 1.66 7 2.32 7 3 C4.69 2.34 2.38 1.68 0 1 C0 0.67 0 0.34 0 0 Z " fill="#728292" transform="translate(161,527)"/>
<path d="M0 0 C2 0 2 0 4 1.875 C4.66 2.57625 5.32 3.2775 6 4 C6.66 4.66 7.32 5.32 8 6 C6.53984709 5.71758359 5.08190207 5.42373386 3.625 5.125 C2.81289063 4.96257812 2.00078125 4.80015625 1.1640625 4.6328125 C-1 4 -1 4 -3 2 C-2.01 1.67 -1.02 1.34 0 1 C0 0.67 0 0.34 0 0 Z " fill="#675844" transform="translate(911,279)"/>
<path d="M0 0 C0.66 0.33 1.32 0.66 2 1 C1.38511719 1.59748047 1.38511719 1.59748047 0.7578125 2.20703125 C0.21898437 2.73683594 -0.31984375 3.26664062 -0.875 3.8125 C-1.40867187 4.33457031 -1.94234375 4.85664062 -2.4921875 5.39453125 C-4.20776561 7.13259904 -4.20776561 7.13259904 -6 10 C-6.33 8.68 -6.66 7.36 -7 6 C-4.69 4.02 -2.38 2.04 0 0 Z " fill="#151A1F" transform="translate(489,90)"/>
<path d="M0 0 C1.5625 1.75 1.5625 1.75 3 4 C2.8125 6.1875 2.8125 6.1875 2 8 C1.01 8.495 1.01 8.495 0 9 C0 6.03 0 3.06 0 0 Z " fill="#181C1F" transform="translate(90,283)"/>
<path d="M0 0 C2 0 2 0 4 1.875 C4.66 2.57625 5.32 3.2775 6 4 C6.66 4.66 7.32 5.32 8 6 C3.545 5.01 3.545 5.01 -1 4 C-0.34 3.67 0.32 3.34 1 3 C0.67 2.01 0.34 1.02 0 0 Z " fill="#64493C" transform="translate(906,378)"/>
<path d="M0 0 C3.64734979 0.22330713 5.38372835 0.38372835 8 3 C4.37 3 0.74 3 -3 3 C-2.01 2.01 -1.02 1.02 0 0 Z " fill="#685840" transform="translate(920,257)"/>
</svg>
