<?xml version="1.0" encoding="UTF-8"?>
<svg version="1.1" xmlns="http://www.w3.org/2000/svg" width="1008" height="606">
<path d="M0 0 C332.64 0 665.28 0 1008 0 C1008 199.98 1008 399.96 1008 606 C675.36 606 342.72 606 0 606 C0 406.02 0 206.04 0 0 Z " fill="#D6CDC1" transform="translate(0,0)"/>
<path d="M0 0 C0.69198455 -0.00699921 1.3839691 -0.01399841 2.09692287 -0.02120972 C12.81404124 0.03629071 21.88009671 4.17081258 29.84741211 11.19921875 C40.37145292 22.19665932 43.36631412 32.77193919 43.12475586 47.63671875 C42.65352801 59.05871923 36.78406043 68.68775563 28.65991211 76.44921875 C21.18975357 82.6599456 13.67954642 85.28590726 4.20068359 86.70556641 C3.37007888 86.83288965 2.53947416 86.9602129 1.68369961 87.09139442 C-7.49055282 88.45849355 -16.69981529 89.39119498 -25.92993164 90.28515625 C-27.79282678 90.47010543 -29.65566418 90.65563707 -31.51844788 90.84170532 C-36.39503075 91.32768079 -41.27217624 91.80772027 -46.14953613 92.28582764 C-54.78536163 93.13277594 -63.42039379 93.98768599 -72.05493164 94.84765625 C-73.00651972 94.94226072 -73.9581078 95.0368652 -74.93853188 95.13433647 C-90.26153084 96.66169719 -105.56265181 98.34776517 -120.86013794 100.11105919 C-136.10861858 101.8684748 -151.36353526 103.48727866 -166.63891602 104.99584961 C-173.90352351 105.71449992 -181.16690715 106.44522541 -188.42993164 107.1796875 C-189.20466702 107.25801693 -189.97940239 107.33634636 -190.77761459 107.41704941 C-212.0801989 109.57486972 -233.36553713 111.89419357 -254.65258789 114.19921875 C-285.16292253 117.50195791 -315.67877181 120.72569122 -346.21484375 123.78149414 C-359.01431508 125.06316436 -371.8109556 126.36290804 -384.60039902 127.74110794 C-386.61994399 127.95868313 -388.63956581 128.17553126 -390.65921021 128.3921814 C-396.88999111 129.06123814 -403.1200047 129.73625379 -409.34887695 130.42285156 C-411.54513766 130.65976818 -413.74142519 130.89643638 -415.93774414 131.1328125 C-416.90319656 131.24179367 -417.86864899 131.35077484 -418.86335754 131.46305847 C-433.98902815 133.07060208 -447.37967888 132.69583973 -459.93774414 123.109375 C-468.29004047 115.90607181 -474.76023919 106.35734652 -476.15258789 95.19921875 C-477.13842426 81.52073912 -473.92586618 70.44115521 -465.52758789 59.57421875 C-455.35428261 48.2996794 -441.95327473 45.74420058 -427.6315918 44.21972656 C-426.10949856 44.05020397 -424.58749466 43.87987751 -423.06557655 43.70878983 C-419.17269438 43.27425741 -415.27852142 42.85297996 -411.38357639 42.43737984 C-409.2826698 42.21310517 -407.18200414 41.98671646 -405.08141327 41.75950623 C-396.5898654 40.84401506 -388.09517749 39.96044845 -379.5991044 39.08814096 C-375.90831204 38.70858815 -372.21783056 38.32603337 -368.52731323 37.94381714 C-362.17129991 37.28585938 -355.81513552 36.62938004 -349.4588623 35.97393799 C-333.18359786 34.29549279 -316.90930149 32.60768769 -300.63494301 30.92048502 C-297.96453601 30.64366418 -295.29412049 30.36692577 -292.623703 30.09020615 C-255.9557437 26.2902566 -219.29241319 22.44686182 -182.63089305 18.5853281 C-177.02015458 17.99440796 -171.40934316 17.40418426 -165.79849243 16.81433105 C-136.13367398 13.69562364 -106.46956991 10.57252699 -76.81568527 7.35120773 C-73.39134691 6.97949255 -69.96689272 6.60886572 -66.54238892 6.23867798 C-65.45437548 6.12104033 -64.36636204 6.00340267 -63.24537849 5.88220024 C-61.11256418 5.65160426 -58.97974542 5.42104943 -56.84692192 5.19053841 C-50.92378577 4.54950976 -45.00163281 3.90025923 -39.0801897 3.24378395 C-35.54459626 2.85353953 -32.00823817 2.47060528 -28.47163963 2.08958817 C-26.892199 1.91782167 -25.31308929 1.74297238 -23.7343998 1.56443405 C-15.81681052 0.66996956 -7.97234143 0.04925594 0 0 Z " fill="#6EB2F4" transform="translate(527.152587890625,60.80078125)"/>
<path d="M0 0 C1.31640625 1.55078125 1.31640625 1.55078125 1.44140625 4.73828125 C-1.40215869 14.37480688 -11.38306934 21.04632467 -18.68359375 27.55078125 C-19.46734375 28.24945313 -20.25109375 28.948125 -21.05859375 29.66796875 C-23.72884812 32.02467052 -26.33631517 34.30514518 -29.24609375 36.36328125 C-34.56290065 41.13477462 -39.38531125 47.51663268 -39.921875 54.7734375 C-40.14944555 66.54721895 -37.54798288 73.84832699 -31.12109375 83.55078125 C-24.44479086 93.65155546 -22.47815085 102.39823479 -23.68359375 114.55078125 C-27.23163991 131.08467637 -43.54788872 141.92988897 -56.24609375 151.55078125 C-71.72823661 162.66319813 -71.72823661 162.66319813 -80.68359375 178.55078125 C-81.34359375 178.55078125 -82.00359375 178.55078125 -82.68359375 178.55078125 C-83.87131989 185.12603317 -83.86725697 191.63245772 -83.87109375 198.30078125 C-83.88333984 199.43644531 -83.89558594 200.57210937 -83.90820312 201.7421875 C-83.91013672 202.82886719 -83.91207031 203.91554688 -83.9140625 205.03515625 C-83.91817139 206.02225586 -83.92228027 207.00935547 -83.92651367 208.02636719 C-83.86049388 210.79725307 -83.86049388 210.79725307 -81.68359375 213.55078125 C-82.67359375 213.88078125 -83.66359375 214.21078125 -84.68359375 214.55078125 C-84.68359375 221.48078125 -84.68359375 228.41078125 -84.68359375 235.55078125 C-83.03359375 235.22078125 -81.38359375 234.89078125 -79.68359375 234.55078125 C-82.95058509 237.81777259 -85.94616921 237.66661319 -90.38760376 237.67520142 C-91.16227997 237.67160614 -91.93695618 237.66801086 -92.73510742 237.66430664 C-93.55484543 237.66445267 -94.37458344 237.66459869 -95.21916199 237.66474915 C-97.92998903 237.66405221 -100.64074745 237.65627003 -103.3515625 237.6484375 C-105.23057518 237.64657254 -107.10958835 237.64514901 -108.98860168 237.64414978 C-113.9353469 237.64033073 -118.88206277 237.63050563 -123.82879639 237.6194458 C-128.8760946 237.60921855 -133.92339754 237.60464934 -138.97070312 237.59960938 C-148.87501289 237.58888284 -158.77930088 237.57181373 -168.68359375 237.55078125 C-168.68906219 236.6102314 -168.68906219 236.6102314 -168.69464111 235.65068054 C-168.73669859 229.07949768 -168.80620496 222.50899823 -168.89111328 215.93823242 C-168.91920668 213.49136211 -168.94047858 211.044403 -168.95458984 208.59741211 C-168.97618037 205.06448283 -169.02291489 201.53260818 -169.07421875 198 C-169.07544739 196.91933762 -169.07667603 195.83867523 -169.07794189 194.7252655 C-169.34011871 180.89423339 -174.54423085 171.65678264 -184.19140625 162.0546875 C-189.43675146 157.1534247 -194.97960294 152.70863375 -200.69262695 148.37329102 C-219.75722406 133.8805804 -219.75722406 133.8805804 -225.68359375 124.55078125 C-226.11414063 123.89207031 -226.5446875 123.23335937 -226.98828125 122.5546875 C-231.23663037 114.80511273 -230.74040692 105.10277159 -229.12890625 96.63671875 C-227.00018071 89.92616491 -223.1092937 84.10414801 -219.21337891 78.29492188 C-213.6723897 69.91514753 -212.57078561 61.48737107 -213.68359375 51.55078125 C-215.57023452 46.22910131 -218.55984103 42.3690708 -222.68359375 38.55078125 C-222.68359375 37.89078125 -222.68359375 37.23078125 -222.68359375 36.55078125 C-223.23917969 36.31488281 -223.79476563 36.07898438 -224.3671875 35.8359375 C-227.24734966 34.23800605 -229.34728451 32.24577625 -231.74609375 29.98828125 C-235.57362864 26.43231176 -239.45054651 23.09857691 -243.55859375 19.86328125 C-249.0106141 15.43156757 -252.67742603 11.79287725 -254.80859375 4.92578125 C-254.68359375 1.55078125 -254.68359375 1.55078125 -252.99609375 -1.07421875 C-220.06076274 -28.52032793 -31.10097269 -26.77137093 0 0 Z " fill="#DD6644" transform="translate(632.68359375,306.44921875)"/>
<path d="M0 0 C1.37924904 0.00212242 1.37924904 0.00212242 2.78636169 0.00428772 C5.68964046 0.00983313 8.59283876 0.02237508 11.49609375 0.03515625 C13.4785145 0.04017832 15.46093648 0.04473998 17.44335938 0.04882812 C22.27346795 0.05978461 27.10351726 0.07701083 31.93359375 0.09765625 C31.9777252 2.96110854 32.00982794 5.82386975 32.03515625 8.6875 C32.04877197 9.49102905 32.0623877 10.29455811 32.07641602 11.12243652 C32.16154874 23.98075288 26.87083797 33.81188386 18.43359375 43.22265625 C5.68023423 55.34919659 -13.56747681 58.53444772 -30.19140625 61.59765625 C-56.7888964 66.52791343 -74.38175433 78.44575445 -93.90625 96.76171875 C-119.89142107 121.08376993 -147.61634242 135.48468323 -183.9140625 134.53515625 C-202.85123797 133.63540923 -220.38768615 126.41451307 -238.06640625 120.09765625 C-278.06033179 105.84239566 -317.5714583 102.66711058 -358.42138672 116.07885742 C-363.3348579 117.68134871 -367.91514379 118.6112458 -373.06640625 119.09765625 C-373.27093776 115.72356066 -373.39442074 112.35106633 -373.50390625 108.97265625 C-373.56255859 108.02132812 -373.62121094 107.07 -373.68164062 106.08984375 C-373.84916427 99.19744218 -373.84916427 99.19744218 -371.75170898 96.25048828 C-369.94454846 94.64929749 -368.11715424 93.37026164 -366.06640625 92.09765625 C-365.44612549 91.6814502 -364.82584473 91.26524414 -364.18676758 90.83642578 C-362.24073415 89.56890213 -360.26321567 88.38707765 -358.25390625 87.22265625 C-357.526875 86.79847412 -356.79984375 86.37429199 -356.05078125 85.93725586 C-323.7160649 67.47952194 -290.09237345 62.35321952 -253.83935547 71.7043457 C-245.51662418 74.03101443 -237.58705151 77.38816698 -229.69384766 80.8828125 C-223.55929397 83.50305477 -219.61621151 84.68216004 -213.06640625 83.09765625 C-213.39640625 83.75765625 -213.72640625 84.41765625 -214.06640625 85.09765625 C-214.72640625 85.09765625 -215.38640625 85.09765625 -216.06640625 85.09765625 C-216.06640625 85.75765625 -216.06640625 86.41765625 -216.06640625 87.09765625 C-215.38578125 87.2678125 -214.70515625 87.43796875 -214.00390625 87.61328125 C-213.03453125 87.855625 -212.06515625 88.09796875 -211.06640625 88.34765625 C-209.97199219 88.61707031 -208.87757813 88.88648438 -207.75 89.1640625 C-205.20769452 89.80840079 -202.68736605 90.47752818 -200.1640625 91.1875 C-180.07852922 96.73744999 -162.93976201 93.2402314 -144.99365234 83.20507812 C-135.32727907 77.65064828 -126.53660515 71.36946163 -118.06640625 64.09765625 C-116.9318553 63.14740293 -115.7963926 62.19823742 -114.66015625 61.25 C-108.01933583 55.67407122 -101.79986997 49.9069168 -95.734375 43.70703125 C-91.4424134 39.50932943 -86.78064229 35.80589488 -82.06640625 32.09765625 C-80.39906389 30.76516797 -78.73219882 29.43208148 -77.06640625 28.09765625 C-77.6490625 28.16984375 -78.23171875 28.24203125 -78.83203125 28.31640625 C-88.37885946 29.39717925 -97.83545283 30.17464072 -107.06640625 27.09765625 C-107.72640625 26.43765625 -108.38640625 25.77765625 -109.06640625 25.09765625 C-108.91138653 22.07477168 -108.60303556 20.59621803 -106.359375 18.51171875 C-97.58033302 13.09772693 -83.77692972 14.30375618 -74.0390625 16.26953125 C-71.44007877 17.36058977 -69.94411355 19.03091801 -68.06640625 21.09765625 C-66.61234375 20.13666016 -66.61234375 20.13666016 -65.12890625 19.15625 C-50.31293613 9.52353546 -36.67546443 3.29705541 -19.06640625 1.09765625 C-18.07199524 0.96652687 -18.07199524 0.96652687 -17.05749512 0.83274841 C-11.35015005 0.12888701 -5.74626071 -0.03400194 0 0 Z " fill="#6EB0F1" transform="translate(921.06640625,422.90234375)"/>
<path d="M0 0 C6.62283926 12.73157684 6.62283926 12.73157684 5.58984375 18.15234375 C5.00537033 19.52517666 4.41649573 20.89614067 3.82421875 22.265625 C1.0777855 31.37701492 1.96244549 43.04843832 5.74609375 51.68359375 C11.49388104 62.30178024 19.84848619 70.0559447 31.29296875 74.1015625 C38.11343675 75.75457371 45.0072729 75.90788024 52 76 C49.1937413 77.87083913 46.48693152 79.2016669 43.4375 80.625 C35.87939545 84.36736245 28.87210736 88.99537281 24 96 C38.301165 110.5367136 56.62384303 117.99414439 76.99121094 118.29223633 C93.71619827 118.37949896 109.80039337 118.11454209 122.9375 106.375 C126.84547891 101.87490307 127.45595617 99.28632241 127.3046875 93.49609375 C126.65060249 88.13762807 123.41192706 85.15573856 119.4375 81.875 C114.68908331 78.50344763 109.57158301 76.59395093 104 75 C103.37391846 74.81977295 102.74783691 74.6395459 102.1027832 74.45385742 C95.42609404 72.73464611 88.92466017 72.73743895 82.0625 72.8125 C80.94681641 72.81314453 79.83113281 72.81378906 78.68164062 72.81445312 C72.06458227 72.84934095 65.56838105 73.19368228 59 74 C61.72228685 71.93530822 64.47740444 70.05972635 67.375 68.25 C73.41364003 64.24741459 77.53447893 59.3534553 81 53 C77.37 53 73.74 53 70 53 C70 52.67 70 52.34 70 52 C78.25 52 86.5 52 95 52 C95 52.33 95 52.66 95 53 C90.71 53 86.42 53 82 53 C82 53.66 82 54.32 82 55 C83.4540625 55.03867187 83.4540625 55.03867187 84.9375 55.078125 C102.54138335 55.73693969 121.57340435 59.67731184 135 72 C135 72.66 135 73.32 135 74 C135.66 74 136.32 74 137 74 C143.25693481 82.60328536 145.93047951 90.3954875 145 101 C143.15803474 110.62775117 137.02648209 118.54991957 129 124 C106.76855659 137.24611426 79.83336386 139.09782916 55 133 C39.55494001 128.98522905 25.95421134 121.54614317 14 111 C8.42978965 116.57021035 8.67188259 126.00074971 8.625 133.4375 C8.68149324 142.42698741 9.70954632 150.96006289 14 159 C15.2375 158.14728516 15.2375 158.14728516 16.5 157.27734375 C42.95715557 139.41905516 74.08296002 133.28204941 105.5078125 139.0234375 C119.30204718 141.83585428 132.90453336 148.09929097 141 160 C145.13062525 168.1912399 146.1378102 175.09780656 143.875 184 C140.62946124 193.82677014 132.92530758 201.54357058 124.09375 206.6953125 C101.17407853 217.98495265 74.08290664 218.95895078 49.92358398 211.16259766 C35.2784629 206.1335386 23.60328987 198.23527403 13 187 C9.03453766 193.87628044 9.1541382 200.24223889 10 208 C11.13721987 211.77556998 12.75822989 214.76955179 15 218 C15.69222656 219.02480469 15.69222656 219.02480469 16.3984375 220.0703125 C28.9308151 236.29242564 52.5295154 242.2270991 71.79199219 244.86206055 C80.58770106 245.97234869 89.38334674 246.34856785 98.24560547 246.48291016 C107.098822 246.71946395 107.098822 246.71946395 111 250 C112.12256131 252.24512262 112.13413762 253.51456649 112.125 256 C112.12886719 257.051875 112.12886719 257.051875 112.1328125 258.125 C112 260 112 260 111 262 C110.34 261.67 109.68 261.34 109 261 C109.33 260.34 109.66 259.68 110 259 C110.37615126 254.86935374 110.37615126 254.86935374 108.875 251.125 C106.17393914 249.50436349 104.09341008 249.74221583 101 250 C100.01 250.33 99.02 250.66 98 251 C97.54440428 256.19212465 97.54440428 256.19212465 99.125 260.9375 C101.68102669 262.38591512 104.10340247 262.67815583 107 263 C107 263.33 107 263.66 107 264 C71.51553287 264.45885087 33.4249584 260.10533032 6.3125 234.8125 C-3.1099976 224.98975471 -7.96239004 213.58828672 -8.4375 200.0625 C-8.24514643 191.70885907 -6.13965312 184.21431699 -1.6875 177.125 C0.37276772 173.3096894 -0.0133843 172.13463175 -1 168 C-1.75669897 165.99883444 -2.57121043 164.01872067 -3.4375 162.0625 C-10.75366577 144.96333447 -11.17184378 126.16564758 -4.7578125 108.59765625 C-3.92897213 106.61383418 -3.07452711 104.64031655 -2.18359375 102.68359375 C-1.59771484 101.35521484 -1.59771484 101.35521484 -1 100 C-0.56429687 99.02160156 -0.12859375 98.04320312 0.3203125 97.03515625 C1.21469153 93.04129128 0.25561518 91.55105432 -1.6875 88 C-10.30281917 70.37506787 -11.23175514 46.93433687 -5.296875 28.2265625 C-3.89178899 24.73077621 -2.28828299 21.37997415 -0.625 18 C1.87889043 13.17237718 1.87889043 13.17237718 1.375 8 C0.694375 6.515 0.694375 6.515 0 5 C-0.125 2.0625 -0.125 2.0625 0 0 Z " fill="#6BA9E6" transform="translate(67,280)"/>
<path d="M0 0 C3.875 1.75 3.875 1.75 5 4 C5.08543895 6.10528933 5.10714725 8.21331157 5.09765625 10.3203125 C5.09443359 11.57714844 5.09121094 12.83398438 5.08789062 14.12890625 C5.07951172 15.44761719 5.07113281 16.76632812 5.0625 18.125 C5.05748489 19.46484211 5.05292201 20.804686 5.04882812 22.14453125 C5.03701086 25.42973206 5.02053617 28.71484397 5 32 C5.81339844 31.3709375 6.62679687 30.741875 7.46484375 30.09375 C31.00472557 12.33161728 57.34997208 6.31198506 86.65771484 9.26806641 C101.16314025 11.34027004 117.41690844 17.45951101 127 29 C132.2963971 37.0009403 135.01462789 44.37595607 134 54 C131.62281372 65.0025176 124.96433285 72.56279704 115.8125 78.8125 C101.43274247 87.32788714 86.42010102 89.43722162 70 89 C69.63261719 90.0828125 69.63261719 90.0828125 69.2578125 91.1875 C65.67885762 99.19013203 58.52582879 104.89500248 51 109 C51.8971875 108.84144531 52.794375 108.68289063 53.71875 108.51953125 C68.55527669 106.42290361 84.94708225 106.53298481 99 112 C99.94875 112.36222656 100.8975 112.72445312 101.875 113.09765625 C108.46279537 115.98961999 113.74072527 120.48145055 117 127 C117.62269163 131.86589033 117.82574572 136.49917839 115.125 140.75 C107.91021065 149.33903494 95.71046175 153.16095597 85 155 C60.20430404 156.46702135 37.38346019 154.01266949 17.70703125 137.609375 C15.55072525 135.57642747 13.69428688 133.43093334 12 131 C19.25236035 122.85656465 28.21434275 117.61587606 38 113 C37.14019531 112.98582031 36.28039062 112.97164063 35.39453125 112.95703125 C21.10108601 112.38030554 10.81469249 108.56281787 1 98 C-7.87754485 88.3171487 -9.73433001 77.9188098 -9.35546875 65.171875 C-9.15875473 61.86356939 -8.57543912 59.18972843 -7.25 56.125 C-5.54159214 52.14921212 -6.4224953 49.72190387 -7.8125 45.6875 C-8.21082031 44.70136719 -8.60914062 43.71523438 -9.01953125 42.69921875 C-10 40 -10 40 -10 36 C-10.66 36 -11.32 36 -12 36 C-12 25.77 -12 15.54 -12 5 C-11.34 6.32 -10.68 7.64 -10 9 C-8.41666667 11.41666667 -8.41666667 11.41666667 -6 13 C-2.37350049 13.08916154 -2.37350049 13.08916154 1 12 C3.32821558 9.18138229 3.32821558 9.18138229 2.75 6 C2.14014017 2.84584582 2.14014017 2.84584582 0 0 Z " fill="#6AA7E4" transform="translate(78,244)"/>
<path d="M0 0 C16.5 0 33 0 50 0 C50 47.19 50 94.38 50 143 C-6.76 143 -63.52 143 -122 143 C-115.38387356 135.28118582 -109.28402898 130.61833864 -100.34936523 126.06884766 C-85.64224521 118.57252655 -77.94134986 108.02790215 -72.5 92.5 C-66.02143013 74.03886292 -55.72468264 64.02838698 -38.81201172 54.97851562 C-24.95852163 47.49740699 -16.84610492 36.75604353 -11.546875 22.03125 C-11.29832764 21.34240723 -11.04978027 20.65356445 -10.79370117 19.94384766 C-10.32627056 18.62130775 -9.87430176 17.29313464 -9.44262695 15.95849609 C-7.20432865 9.47715552 -4.30351271 6.1478753 0 0 Z " fill="#DA9C3D" transform="translate(320,401)"/>
<path d="M0 0 C7.6602012 6.75748389 13.09507769 15.0413808 15.3203125 25.046875 C16.19841322 39.57152464 14.88390935 51.41258866 5.3203125 63.046875 C-2.81536921 71.83404684 -11.61040668 75.79866069 -23.28466797 77.54882812 C-24.11392729 77.67600975 -24.94318661 77.80319138 -25.797575 77.93422699 C-35.20804697 79.33597291 -44.65756571 80.28362355 -54.125 81.203125 C-56.03341043 81.39288309 -57.941765 81.58320382 -59.85006714 81.77404785 C-64.82763406 82.27068393 -69.80577362 82.76129344 -74.78411865 83.25006104 C-82.70916091 84.02880945 -90.63347202 84.81494307 -98.55748749 85.60406494 C-100.47262517 85.79462035 -102.38781161 85.98468635 -104.30304718 86.17425537 C-116.23084664 87.35607716 -128.14425809 88.58488578 -140.02175903 90.20935059 C-146.59606298 91.06941994 -153.05352742 91.17262184 -159.6796875 91.046875 C-159.6796875 90.716875 -159.6796875 90.386875 -159.6796875 90.046875 C-157.0396875 90.046875 -154.3996875 90.046875 -151.6796875 90.046875 C-151.6796875 89.386875 -151.6796875 88.726875 -151.6796875 88.046875 C-153.1646875 87.551875 -153.1646875 87.551875 -154.6796875 87.046875 C-153.42414063 87.08167969 -152.16859375 87.11648437 -150.875 87.15234375 C-136.32739284 87.44012737 -124.81107897 86.10680723 -113.44921875 76.078125 C-104.70733575 67.02461766 -101.25403259 55.74636882 -101.40625 43.37109375 C-102.42107821 31.03368225 -107.74965764 22.47473182 -116.6171875 14.234375 C-125.1611789 7.13628983 -134.67048797 4.56673667 -145.69140625 4.70703125 C-150.34970901 5.23679902 -154.62061283 6.71328977 -159.02734375 8.26953125 C-161.6796875 9.046875 -161.6796875 9.046875 -163.6796875 8.046875 C-163.3496875 7.386875 -163.0196875 6.726875 -162.6796875 6.046875 C-164.6596875 6.046875 -166.6396875 6.046875 -168.6796875 6.046875 C-168.6796875 5.716875 -168.6796875 5.386875 -168.6796875 5.046875 C-151.76380553 3.21046476 -134.84682818 1.38453835 -117.9285059 -0.429245 C-110.07134882 -1.27183845 -102.21457462 -2.11773374 -94.35864258 -2.97167969 C-87.50366385 -3.71681244 -80.64802183 -4.45546786 -73.79154199 -5.18666363 C-70.16816251 -5.57329213 -66.54517143 -5.9629444 -62.92296028 -6.36038208 C-15.37717167 -11.56996197 -15.37717167 -11.56996197 0 0 Z " fill="#6DAFF0" transform="translate(554.6796875,69.953125)"/>
<path d="M0 0 C16.4501397 15.01860082 28.39131993 36.52645539 29.71704102 59.02490234 C30.76558213 86.50959156 25.0547772 110.06775253 6.18457031 130.84912109 C1.371203 135.99597427 -3.47432131 140.56173443 -9.44140625 144.3359375 C-9.48007812 142.45261719 -9.48007812 142.45261719 -9.51953125 140.53125 C-9.79996585 128.41573225 -9.79996585 128.41573225 -13.69921875 117.05078125 C-13.94414063 116.48488281 -14.1890625 115.91898438 -14.44140625 115.3359375 C-14.11140625 114.6759375 -13.78140625 114.0159375 -13.44140625 113.3359375 C-12.78140625 113.3359375 -12.12140625 113.3359375 -11.44140625 113.3359375 C1.41403176 98.11665321 6.1396312 79.87143438 4.55859375 60.3359375 C2.48139307 41.27812544 -7.44325051 26.56603564 -21.81640625 14.4609375 C-37.52820776 2.97815921 -56.62605113 0.04865274 -75.59521484 2.62890625 C-89.24041583 5.21014946 -100.81135779 12.60344171 -110.44140625 22.3359375 C-111.37726562 23.22152344 -111.37726562 23.22152344 -112.33203125 24.125 C-124.64507376 36.71536329 -129.0069869 54.59671321 -128.9296875 71.67504883 C-128.36575663 89.4573331 -120.93148565 104.19390502 -108.8203125 117.10546875 C-104.52260441 121.13501115 -99.72271237 124.69528444 -94.44140625 127.3359375 C-93.78140625 126.6759375 -93.12140625 126.0159375 -92.44140625 125.3359375 C-92.415625 126.57988281 -92.38984375 127.82382813 -92.36328125 129.10546875 C-92.10042856 137.68222268 -91.82277183 145.3394142 -88.28125 153.3046875 C-87.44140625 155.3359375 -87.44140625 155.3359375 -87.44140625 158.3359375 C-113.44317879 148.08043908 -134.05346772 132.20950329 -146.25390625 106.7734375 C-155.83944176 84.35190806 -156.94226349 58.15425595 -148.2734375 35.25 C-147.10165498 32.54238603 -145.8118297 29.94780336 -144.44140625 27.3359375 C-143.81492187 26.02109375 -143.81492187 26.02109375 -143.17578125 24.6796875 C-132.3475183 3.02316159 -112.02788644 -12.07012159 -89.44140625 -19.6640625 C-57.44564673 -29.22903164 -25.22880496 -21.45730001 0 0 Z " fill="#DB9C3D" transform="translate(887.44140625,72.6640625)"/>
<path d="M0 0 C1.3125 3.5625 1.3125 3.5625 1 7 C-10.57216163 20.96640197 -43.9355219 21.643116 -60.38964844 23.35205078 C-67.91756559 24.05039182 -75.45356018 24.55243319 -83 25 C-83.88880859 25.05784668 -84.77761719 25.11569336 -85.69335938 25.17529297 C-132.20398966 28.15063131 -180.59906886 27.07751282 -226.3125 17.5625 C-227.2506958 17.36930176 -228.1888916 17.17610352 -229.15551758 16.97705078 C-237.53460428 15.12611196 -246.10056525 12.52042788 -252 6 C-251.953125 3.02734375 -251.953125 3.02734375 -251 0 C-220.33861261 -25.70660046 -28.48219886 -25.45217771 0 0 Z " fill="#E2A13D" transform="translate(631,305)"/>
<path d="M0 0 C15.84 0 31.68 0 48 0 C48 46.53 48 93.06 48 141 C32.16 141 16.32 141 0 141 C0 94.47 0 47.94 0 0 Z " fill="#D6CDC1" transform="translate(321,402)"/>
<path d="M0 0 C0.515625 0.66 1.03125 1.32 1.5625 2 C2.366875 2.99 3.17125 3.98 4 5 C4.48597656 5.60457031 4.97195312 6.20914062 5.47265625 6.83203125 C20.98169733 25.42088191 43.30639405 32.18893141 66.6875 34.3125 C69.79087319 34.56828436 72.89283257 34.7928555 76 35 C72.8987712 44.14046383 65.24654282 50.50188574 57 55 C57.8971875 54.84144531 58.794375 54.68289063 59.71875 54.51953125 C74.55527669 52.42290361 90.94708225 52.53298481 105 58 C105.94875 58.36222656 106.8975 58.72445312 107.875 59.09765625 C114.46279537 61.98961999 119.74072527 66.48145055 123 73 C123.62269163 77.86589033 123.82574572 82.49917839 121.125 86.75 C113.91021065 95.33903494 101.71046175 99.16095597 91 101 C66.20430404 102.46702135 43.38346019 100.01266949 23.70703125 83.609375 C21.55072525 81.57642747 19.69428688 79.43093334 18 77 C25.25236035 68.85656465 34.21434275 63.61587606 44 59 C43.14019531 58.98582031 42.28039062 58.97164063 41.39453125 58.95703125 C27.10108601 58.38030554 16.81469249 54.56281787 7 44 C-0.62029327 35.68844902 -3.33101222 26.87683984 -3.4375 15.75 C-3.44765137 14.99348145 -3.45780273 14.23696289 -3.46826172 13.45751953 C-3.38760194 8.2850692 -2.3082911 4.62882777 0 0 Z " fill="#D6CDC1" transform="translate(72,298)"/>
<path d="M0 0 C6.62283926 12.73157684 6.62283926 12.73157684 5.58984375 18.15234375 C5.00537033 19.52517666 4.41649573 20.89614067 3.82421875 22.265625 C1.0777855 31.37701492 1.96244549 43.04843832 5.74609375 51.68359375 C11.49388104 62.30178024 19.84848619 70.0559447 31.29296875 74.1015625 C38.11343675 75.75457371 45.0072729 75.90788024 52 76 C49.1937413 77.87083913 46.48693152 79.2016669 43.4375 80.625 C35.87939545 84.36736245 28.87210736 88.99537281 24 96 C38.301165 110.5367136 56.62384303 117.99414439 76.99121094 118.29223633 C93.71619827 118.37949896 109.80039337 118.11454209 122.9375 106.375 C126.84547891 101.87490307 127.45595617 99.28632241 127.3046875 93.49609375 C126.65060249 88.13762807 123.41192706 85.15573856 119.4375 81.875 C114.68908331 78.50344763 109.57158301 76.59395093 104 75 C103.37391846 74.81977295 102.74783691 74.6395459 102.1027832 74.45385742 C95.42609404 72.73464611 88.92466017 72.73743895 82.0625 72.8125 C80.94681641 72.81314453 79.83113281 72.81378906 78.68164062 72.81445312 C72.06458227 72.84934095 65.56838105 73.19368228 59 74 C61.72228685 71.93530822 64.47740444 70.05972635 67.375 68.25 C73.41364003 64.24741459 77.53447893 59.3534553 81 53 C77.37 53 73.74 53 70 53 C70 52.67 70 52.34 70 52 C78.25 52 86.5 52 95 52 C95 52.33 95 52.66 95 53 C90.71 53 86.42 53 82 53 C82 53.66 82 54.32 82 55 C83.4540625 55.03867187 83.4540625 55.03867187 84.9375 55.078125 C102.54138335 55.73693969 121.57340435 59.67731184 135 72 C135 72.66 135 73.32 135 74 C135.66 74 136.32 74 137 74 C143.25693481 82.60328536 145.93047951 90.3954875 145 101 C143.15803474 110.62775117 137.02648209 118.54991957 129 124 C106.76855659 137.24611426 79.83336386 139.09782916 55 133 C39.55494001 128.98522905 25.95421134 121.54614317 14 111 C11.53698577 113.46301423 11.23233479 115.27360036 10.375 118.625 C10.11460938 119.62789063 9.85421875 120.63078125 9.5859375 121.6640625 C9.39257812 122.43492187 9.19921875 123.20578125 9 124 C8.67 124 8.34 124 8 124 C7.62875 122.6696875 7.62875 122.6696875 7.25 121.3125 C5.94198292 117.84625474 4.30501008 115.86380041 2 113 C0.86125048 110.70328155 -0.06253316 108.39054045 -1 106 C-1.99 106.99 -2.98 107.98 -4 109 C-3.5658021 105.52641684 -2.52148579 103.06041783 -0.8125 100.0625 C0.67998545 97.15351018 1.06615769 96.38867645 0.5 93.0625 C-0.30762073 91.41360768 -1.11658977 89.765357 -1.93359375 88.12109375 C-10.30211519 70.439743 -11.19638036 46.82282939 -5.296875 28.2265625 C-3.89178899 24.73077621 -2.28828299 21.37997415 -0.625 18 C1.87889043 13.17237718 1.87889043 13.17237718 1.375 8 C0.694375 6.515 0.694375 6.515 0 5 C-0.125 2.0625 -0.125 2.0625 0 0 Z " fill="#6BAAE7" transform="translate(67,280)"/>
<path d="M0 0 C9.63256304 8.16232973 14.93251177 17.28846074 16.3203125 29.9140625 C16.77126166 41.30804448 13.41975472 52.27185103 6 61 C-1.62439682 69.20516142 -10.83823902 74.37137952 -22.09375 75.23828125 C-34.26789353 75.50354355 -44.85181097 73.38079127 -54 65 C-54.61488281 64.47535156 -55.22976563 63.95070313 -55.86328125 63.41015625 C-63.329379 56.61552767 -67.44996421 47.21668359 -68.3359375 37.203125 C-68.46791636 23.84686403 -65.55811419 13.07936345 -56.1875 3.0625 C-40.0913746 -11.9951657 -17.68441747 -13.01361618 0 0 Z " fill="#F2F2F2" transform="translate(438,83)"/>
<path d="M0 0 C9.09512109 6.51275635 13.75117463 14.75352388 17.25 25.25 C18.43566629 38.04538355 17.72665056 49.4489052 9.9375 60.0625 C3.1367059 68.14564722 -5.83045461 75.46984915 -16.77368164 76.42700195 C-31.57037433 76.85140715 -42.43723512 75.69936404 -53.75 65.25 C-61.52960537 57.73621258 -65.7763493 48.4950053 -66.09350586 37.75146484 C-66.24931279 25.37628793 -63.88743314 15.97824102 -55.75390625 6.28125 C-40.35408288 -9.32870741 -18.397065 -11.2975265 0 0 Z " fill="#F2F2F2" transform="translate(860.75,172.75)"/>
<path d="M0 0 C6.06931618 4.30760317 9.8439264 10.39629784 12.25 17.375 C14.44819645 31.89332073 6.2253892 46.69597158 -2.00976562 58.12304688 C-10.44255621 69.15255991 -10.44255621 69.15255991 -15.13237 69.95045471 C-16.61290807 70.11351525 -18.09455326 70.26669251 -19.5769043 70.41235352 C-20.78942619 70.54205536 -20.78942619 70.54205536 -22.02644348 70.67437744 C-24.70823322 70.95918683 -27.39114221 71.23150918 -30.07421875 71.50390625 C-31.93797646 71.69962836 -33.80164853 71.89616761 -35.66523743 72.0934906 C-40.58221716 72.6120618 -45.50021501 73.12025246 -50.41851807 73.62609863 C-56.3747383 74.24046969 -62.32976735 74.8662553 -68.28490162 75.49104977 C-72.92330206 75.97757219 -77.56187408 76.4621751 -82.20109558 76.94081116 C-83.48756989 77.07422157 -83.48756989 77.07422157 -84.80003357 77.21032715 C-86.3900862 77.37517925 -87.98024236 77.53903757 -89.57052612 77.7016449 C-92.9186695 78.04987771 -96.23973879 78.44554242 -99.5728302 78.92564392 C-102.82419195 79.38549318 -105.90658763 79.47436418 -109.1875 79.4375 C-110.23808594 79.42847656 -111.28867187 79.41945313 -112.37109375 79.41015625 C-113.54865234 79.39275391 -113.54865234 79.39275391 -114.75 79.375 C-114.75 79.045 -114.75 78.715 -114.75 78.375 C-112.11 78.375 -109.47 78.375 -106.75 78.375 C-106.75 77.715 -106.75 77.055 -106.75 76.375 C-107.74 76.045 -108.73 75.715 -109.75 75.375 C-108.49445313 75.40980469 -107.23890625 75.44460937 -105.9453125 75.48046875 C-91.39770534 75.76825237 -79.88139147 74.43493223 -68.51953125 64.40625 C-59.74213086 55.31595916 -56.42606803 44.11203399 -56.44140625 31.71875 C-56.8839142 26.92398026 -58.38633002 22.67811994 -60.0703125 18.1875 C-60.75 15.375 -60.75 15.375 -60.1328125 13.23828125 C-46.8774154 -4.62280467 -19.02367968 -11.41420781 0 0 Z " fill="#010102" transform="translate(509.75,81.625)"/>
<path d="M0 0 C2.475 0.99 2.475 0.99 5 2 C11.41172538 4.52226782 17.18765392 5.50082846 24.0625 5.6875 C24.92810547 5.72166016 25.79371094 5.75582031 26.68554688 5.79101562 C28.78994387 5.87240114 30.8949457 5.93789769 33 6 C29.91190305 7.76462683 28.76687864 8 25 8 C25 64.43 25 120.86 25 179 C63.28 179 101.56 179 141 179 C141 182.63 141 186.26 141 190 C140.67 190 140.34 190 140 190 C140 186.7 140 183.4 140 180 C134.36621045 180.0952059 128.73276977 180.20161168 123.09936523 180.31738281 C121.19219397 180.35512008 119.28496474 180.39005663 117.37768555 180.421875 C104.48113483 180.63948092 91.8037398 181.42418359 79 183 C79 182.67 79 182.34 79 182 C71.41883413 181.92991291 63.83770264 181.87689506 56.25628471 181.84456348 C52.73437784 181.82903129 49.21269561 181.80802686 45.69091797 181.77368164 C41.62465491 181.73428311 37.55862084 181.72018825 33.4921875 181.70703125 C32.25201874 181.69154739 31.01184998 181.67606354 29.73410034 181.66011047 C22.24175724 181.65869593 15.42718387 182.50434331 8.13894653 184.25639343 C5.12120539 184.97128682 2.05906729 185.49015545 -1 186 C-0.67 124.62 -0.34 63.24 0 0 Z " fill="#DF9F3E" transform="translate(813,243)"/>
<path d="M0 0 C4.38630851 3.97711115 7.70341524 7.58495264 8.4375 13.5625 C8.34618358 19.14294802 5.61216207 22.9265445 2 27 C-6.66248686 35.0556943 -21.63005928 37.52625247 -33 38 C-33.99 31.07 -33.99 31.07 -35 24 C-34.29646155 28.92476913 -33.90009899 33.10485037 -34 38 C-54.92152701 38.90816918 -76.8521874 35.23008615 -93 21 C-97.82914021 16.46445532 -100.92348307 11.30283962 -103 5 C-103 4.01 -103 3.02 -103 2 C-94.68179657 -4.92882889 -84.2186909 -7.52832992 -73.59375 -7.23828125 C-69.8932384 -6.89832461 -66.55493547 -6.07318807 -63 -5 C-63 -5.66 -63 -6.32 -63 -7 C-42.061259 -12.06582443 -18.52406632 -12.28463638 0 0 Z " fill="#F2F2F2" transform="translate(187,279)"/>
<path d="M0 0 C3.83837557 3.6152142 6.14103182 6.94351093 6.3125 12.25 C6.24500532 16.92963108 5.11014852 19.3987754 2 23 C-11.21985639 35.61895383 -28.9010904 36.40561641 -46.2421875 36.21484375 C-66.20050722 35.69235766 -83.49052659 27.24705545 -97.19921875 12.94140625 C-98.09060547 11.98041016 -98.09060547 11.98041016 -99 11 C-91.59599829 3.22380431 -82.96687964 -0.94063497 -72.9375 -4.3125 C-72.21860596 -4.55476318 -71.49971191 -4.79702637 -70.7590332 -5.04663086 C-49.32108218 -11.88216437 -19.39269364 -13.27068643 0 0 Z " fill="#D6CDC1" transform="translate(189,443)"/>
<path d="M0 0 C0.56847656 0.72574219 1.13695313 1.45148438 1.72265625 2.19921875 C3.17127697 3.9807986 4.67517464 5.71979488 6.24609375 7.39453125 C8.46085723 9.83827206 10.36260739 12.13345358 12 15 C11 18.6875 11 18.6875 9.96875 20.61328125 C7.47952612 26.74600622 7.99168891 34.66136995 9.87890625 40.91015625 C11.0717592 43.4572713 12.39733764 45.69052244 14 48 C14.46148437 48.68320312 14.92296875 49.36640625 15.3984375 50.0703125 C27.9308151 66.29242564 51.5295154 72.2270991 70.79199219 74.86206055 C79.58770106 75.97234869 88.38334674 76.34856785 97.24560547 76.48291016 C106.098822 76.71946395 106.098822 76.71946395 110 80 C111.12256131 82.24512262 111.13413762 83.51456649 111.125 86 C111.12886719 87.051875 111.12886719 87.051875 111.1328125 88.125 C111 90 111 90 110 92 C109.34 91.67 108.68 91.34 108 91 C108.33 90.34 108.66 89.68 109 89 C109.37615126 84.86935374 109.37615126 84.86935374 107.875 81.125 C105.17393914 79.50436349 103.09341008 79.74221583 100 80 C98.515 80.495 98.515 80.495 97 81 C96.54440428 86.19212465 96.54440428 86.19212465 98.125 90.9375 C100.68102669 92.38591512 103.10340247 92.67815583 106 93 C106 93.33 106 93.66 106 94 C70.51553287 94.45885087 32.4249584 90.10533032 5.3125 64.8125 C-4.1099976 54.98975471 -8.96239004 43.58828672 -9.4375 30.0625 C-9.2120589 20.27191516 -5.9959359 12.26913528 -1 4 C-0.23959428 1.73014106 -0.23959428 1.73014106 0 0 Z " fill="#6BA8E4" transform="translate(68,450)"/>
<path d="M0 0 C0.515625 0.66 1.03125 1.32 1.5625 2 C2.366875 2.99 3.17125 3.98 4 5 C4.48597656 5.60457031 4.97195312 6.20914062 5.47265625 6.83203125 C20.98169733 25.42088191 43.30639405 32.18893141 66.6875 34.3125 C69.79087319 34.56828436 72.89283257 34.7928555 76 35 C72.84545327 44.0451799 66.09642196 49.95015554 57.6875 54.0625 C46.81427391 59.14624157 34.52773089 60.03438356 23.0625 56.0625 C12.16503009 51.24036957 3.40057998 42.00270996 -1.375 31.125 C-3.09163535 25.99664168 -3.38620075 21.11022568 -3.4375 15.75 C-3.44765137 14.99348145 -3.45780273 14.23696289 -3.46826172 13.45751953 C-3.38760194 8.2850692 -2.3082911 4.62882777 0 0 Z " fill="#F1F1F1" transform="translate(72,298)"/>
<path d="M0 0 C4.38630851 3.97711115 7.70341524 7.58495264 8.4375 13.5625 C8.34618358 19.14294802 5.61216207 22.9265445 2 27 C-6.5467869 34.94809892 -21.70895505 37.73686124 -33 38 C-33.13277344 37.04738281 -33.26554687 36.09476562 -33.40234375 35.11328125 C-33.57894531 33.85902344 -33.75554687 32.60476563 -33.9375 31.3125 C-34.19853516 29.45044922 -34.19853516 29.45044922 -34.46484375 27.55078125 C-34.89822897 24.67525452 -35.39649282 21.84355187 -36 19 C-36.66 19 -37.32 19 -38 19 C-39.26171875 17.05859375 -39.26171875 17.05859375 -40.6875 14.4375 C-46.36863321 4.77821116 -52.8149743 0.56570118 -63 -4 C-63 -4.99 -63 -5.98 -63 -7 C-42.061259 -12.06582443 -18.52406632 -12.28463638 0 0 Z " fill="#D4CBBF" transform="translate(187,279)"/>
<path d="M0 0 C0 0.66 0 1.32 0 2 C0.59167969 2.04898437 1.18335938 2.09796875 1.79296875 2.1484375 C6.19104472 2.56456867 9.96928897 3.04965595 14 5 C14 5.66 14 6.32 14 7 C15.19625 7.061875 16.3925 7.12375 17.625 7.1875 C26.8146904 8.22316352 35.78911637 10.9692348 42 18 C44.48499142 21.54998775 44.43249013 24.74718041 44 29 C42.64794434 32.55919518 40.72695317 35.3171046 37.9375 37.9375 C26.30600084 42.14463799 14.65054609 36.09605293 3.8125 32 C1.98432464 31.32389437 0.15555237 30.6494005 -1.67382812 29.9765625 C-6.12299252 28.33623026 -10.56348564 26.67422837 -15 25 C-15 24.34 -15 23.68 -15 23 C-17.31 22.34 -19.62 21.68 -22 21 C-22.33 19.35 -22.66 17.7 -23 16 C-23.66 16 -24.32 16 -25 16 C-25 12.7 -25 9.4 -25 6 C-24.34 6 -23.68 6 -23 6 C-22.979375 5.2575 -22.95875 4.515 -22.9375 3.75 C-21.77799236 0.3487776 -20.12139356 -0.68803398 -16.95703125 -2.2734375 C-10.80016701 -4.55921943 -5.69671423 -2.39861652 0 0 Z " fill="#CCC3B8" transform="translate(739,271)"/>
<path d="M0 0 C6.8186033 1.15158634 11.63616242 2.86815122 16.8125 7.6875 C18.68427139 11.33252849 19.11343626 14.9233845 19 19 C17.40594023 23.69362043 15.28109703 26.48718218 11 29 C4.42096112 30.86875423 -0.81835448 29.586646 -7 27 C-7 26.01 -7 25.02 -7 24 C-7.350625 23.29875 -7.70125 22.5975 -8.0625 21.875 C-9.41673929 17.72199952 -9.14342263 14.19746758 -8 10 C-6.11419223 6.49778557 -4.07633253 4.33485901 -0.1875 3.125 C0.8953125 3.063125 0.8953125 3.063125 2 3 C2 2.34 2 1.68 2 1 C1.34 0.67 0.68 0.34 0 0 Z " fill="#D1963D" transform="translate(778,381)"/>
<path d="M0 0 C6.99689594 1.20581427 12.98164403 2.68954506 17.9375 8.125 C19.53802004 12.45581893 19.65002973 16.44248821 19 21 C17.18766463 24.83378636 15.69973473 26.53351018 12.1875 28.875 C5.18924315 31.34497301 -0.35427048 29.53170648 -7 27 C-6.34 26.67 -5.68 26.34 -5 26 C-5.495 25.38125 -5.99 24.7625 -6.5 24.125 C-8.62750674 19.69269429 -8.93855624 15.82793331 -8 11 C-6.00982758 7.42541848 -3.78491147 4.55382891 0.203125 3.31640625 C0.79609375 3.21199219 1.3890625 3.10757812 2 3 C2 2.34 2 1.68 2 1 C1.34 0.67 0.68 0.34 0 0 Z " fill="#CF6243" transform="translate(912,355)"/>
<path d="M0 0 C3.56568061 1.54335429 6.31019147 3.24343581 8.9375 6.125 C10.53802004 10.45581893 10.65002973 14.44248821 10 19 C8.18766463 22.83378636 6.69973473 24.53351018 3.1875 26.875 C-4.61617313 29.62923758 -10.68638041 26.96247882 -18 24 C-17.01 23.34 -16.02 22.68 -15 22 C-15.66 21.01 -16.32 20.02 -17 19 C-17.76603375 14.7868144 -17.9475779 10.70817554 -15.83203125 6.89453125 C-11.32843264 1.46474269 -7.25546156 -2.17663847 0 0 Z " fill="#D89A3D" transform="translate(926,258)"/>
<path d="M0 0 C4.5007346 3.63889181 6.72702564 6.58872649 7.375 12.3125 C6.82414791 17.72921221 4.97706877 21.14275358 0.9375 24.9375 C-6.6335571 27.67596746 -13.86739762 26.22985768 -21 23 C-20.01 22.34 -19.02 21.68 -18 21 C-18.515625 20.175 -19.03125 19.35 -19.5625 18.5 C-21.27531453 14.32966898 -21.4692336 11.2128853 -20 7 C-17.77730751 3.41704776 -15.17252412 0.79224603 -11.6875 -1.5625 C-7.51088613 -2.24241389 -3.93057995 -1.51944379 0 0 Z " fill="#D16243" transform="translate(776,284)"/>
<path d="M0 0 C6.62283926 12.73157684 6.62283926 12.73157684 5.58984375 18.15234375 C5.00537033 19.52517666 4.41649573 20.89614067 3.82421875 22.265625 C0.9974857 31.64341237 2.15855869 42.78132518 5.98828125 51.63671875 C7.23925026 54.55886644 7.87309 57.42450618 8.4921875 60.53125 C9.36559254 64.7773422 10.46276159 68.97391615 11.51171875 73.1796875 C12 76 12 76 11 79 C11 78.34 11 77.68 11 77 C10.29875 76.9175 9.5975 76.835 8.875 76.75 C2.71238377 75.14236098 -0.60205295 71.65613757 -3.921875 66.48828125 C-9.74861424 53.04033597 -8.44443949 36.53126672 -3.38671875 23.140625 C-2.22188156 20.50251485 -0.9681501 18.01385889 0.4375 15.5 C2.40165979 11.10028206 1.66351043 9.40830263 0 5 C-0.125 2.0625 -0.125 2.0625 0 0 Z " fill="#060707" transform="translate(67,280)"/>
<path d="M0 0 C14.13530896 -0.39467771 27.27751765 0.39434775 41 4 C40.67 4.99 40.34 5.98 40 7 C37.52718977 8.14386436 35.1121797 9.12253885 32.5625 10.0625 C25.91354015 12.64927317 19.65507659 15.62561114 13.4375 19.125 C12.35094116 19.73613647 12.35094116 19.73613647 11.24243164 20.35961914 C6.4154219 23.11449788 1.69222045 26.02213861 -3 29 C-2.11845354 22.45136915 -2.11845354 22.45136915 -1.48461914 20.03613281 C-0.97189943 17.88193514 -0.79410708 15.88214166 -0.68359375 13.671875 C-0.64169922 12.87265625 -0.59980469 12.0734375 -0.55664062 11.25 C-0.49766602 10.0125 -0.49766602 10.0125 -0.4375 8.75 C-0.39431641 7.90953125 -0.35113281 7.0690625 -0.30664062 6.203125 C-0.20091457 4.13559329 -0.09998705 2.06781719 0 0 Z " fill="#C8C0B5" transform="translate(553,490)"/>
<path d="M0 0 C0.639375 0.66 1.27875 1.32 1.9375 2 C2.95786928 3.0004735 3.97877452 4.00040047 5 5 C5.93005859 5.9590625 5.93005859 5.9590625 6.87890625 6.9375 C17.60987843 17.37203648 29.71633961 18.81183202 44 19 C41.1937413 20.87083913 38.48693152 22.2016669 35.4375 23.625 C27.87939545 27.36736245 20.87210736 31.99537281 16 39 C17.65 40.98 19.3 42.96 21 45 C13.98974753 42.01791042 8.56892856 34.55061621 5.09765625 27.92578125 C1.86205966 19.30136187 -0.40254795 9.22878443 0 0 Z " fill="#669CD1" transform="translate(75,337)"/>
<path d="M0 0 C2.5625 2.625 2.5625 2.625 4 5 C-1.53846154 10.84615385 -1.53846154 10.84615385 -5 12 C-5.99 11.67 -6.98 11.34 -8 11 C-9.59484834 11.2375306 -11.18931479 11.47804645 -12.78125 11.734375 C-20.36773213 12.64261582 -27.74019437 12.41993521 -35 10 C-35.66 9.34 -36.32 8.68 -37 8 C-36.84498028 4.97711543 -36.53662931 3.49856178 -34.29296875 1.4140625 C-25.72170082 -3.87179609 -9.26306004 -3.82437541 0 0 Z " fill="#0D0D0D" transform="translate(849,440)"/>
<path d="M0 0 C0.33 0 0.66 0 1 0 C1 56.43 1 112.86 1 171 C39.28 171 77.56 171 117 171 C117 174.63 117 178.26 117 182 C116.67 182 116.34 182 116 182 C116 178.7 116 175.4 116 172 C110.36621045 172.0952059 104.73276977 172.20161168 99.09936523 172.31738281 C97.19219397 172.35512008 95.28496474 172.39005663 93.37768555 172.421875 C80.48113483 172.63948092 67.8037398 173.42418359 55 175 C55 174.67 55 174.34 55 174 C47.36695736 173.97669324 39.73391847 173.95899237 32.1008482 173.94818783 C28.55541909 173.94299874 25.01001457 173.93597448 21.46459961 173.92456055 C17.3761371 173.91148272 13.28769988 173.90673897 9.19921875 173.90234375 C7.94356613 173.89718246 6.68791351 173.89202118 5.39421082 173.88670349 C-1.79572229 173.88625109 -8.85403471 174.19318363 -16 175 C-10.38308992 172.09103183 -6.5194164 172 0 172 C0 115.24 0 58.48 0 0 Z " fill="#7E7970" transform="translate(837,251)"/>
<path d="M0 0 C0.495 1.98 0.495 1.98 1 4 C0.34 4 -0.32 4 -1 4 C-2.18772614 10.57525192 -2.18366322 17.08167647 -2.1875 23.75 C-2.19974609 24.88566406 -2.21199219 26.02132813 -2.22460938 27.19140625 C-2.22654297 28.27808594 -2.22847656 29.36476563 -2.23046875 30.484375 C-2.23457764 31.47147461 -2.23868652 32.45857422 -2.24291992 33.47558594 C-2.17690013 36.24647182 -2.17690013 36.24647182 0 39 C-1.485 39.495 -1.485 39.495 -3 40 C-3 46.93 -3 53.86 -3 61 C-1.35 60.67 0.3 60.34 2 60 C-1.26699134 63.26699134 -4.26257546 63.11583194 -8.70401001 63.12442017 C-9.47868622 63.12082489 -10.25336243 63.11722961 -11.05151367 63.11352539 C-11.87125168 63.11367142 -12.69098969 63.11381744 -13.53556824 63.1139679 C-16.24639528 63.11327096 -18.9571537 63.10548878 -21.66796875 63.09765625 C-23.54698143 63.09579129 -25.4259946 63.09436776 -27.30500793 63.09336853 C-32.25175315 63.08954948 -37.19846902 63.07972438 -42.14520264 63.06866455 C-47.19250085 63.0584373 -52.23980379 63.05386809 -57.28710938 63.04882812 C-67.19141914 63.03810159 -77.09570713 63.02103248 -87 63 C-87.01030746 62.36408432 -87.02061493 61.72816864 -87.03123474 61.07298279 C-87.13964781 54.43779948 -87.25421614 47.80274245 -87.37231445 41.16772461 C-87.41555201 38.69346771 -87.45723472 36.21918312 -87.49731445 33.74487305 C-87.55528841 30.18269517 -87.61890423 26.62065523 -87.68359375 23.05859375 C-87.70030624 21.95728622 -87.71701874 20.8559787 -87.73423767 19.72129822 C-87.83641839 14.39048787 -88.08113098 9.25488442 -89 4 C-86.30492941 6.69507059 -86.06339565 8.70570233 -85.87974548 12.45513916 C-85.88196609 13.37003113 -85.88418671 14.2849231 -85.88647461 15.22753906 C-85.88665588 16.81042725 -85.88665588 16.81042725 -85.88684082 18.42529297 C-85.89195679 19.52760254 -85.89707275 20.62991211 -85.90234375 21.765625 C-85.90335083 22.78382324 -85.90435791 23.80202148 -85.90539551 24.85107422 C-85.91062335 28.65072762 -85.92458462 32.45036495 -85.9375 36.25 C-85.958125 44.7475 -85.97875 53.245 -86 62 C-58.94 62 -31.88 62 -4 62 C-4.11841077 45.2919659 -4.11841077 45.2919659 -4.27026367 28.58422852 C-4.27903371 26.47412575 -4.28667642 24.36401786 -4.29296875 22.25390625 C-4.3159906 20.63881165 -4.3159906 20.63881165 -4.33947754 18.99108887 C-4.34170647 12.50712107 -3.70528479 6.95042746 -1 1 C-0.67 0.67 -0.34 0.34 0 0 Z " fill="#4A261A" transform="translate(551,481)"/>
<path d="M0 0 C4.95 0 9.9 0 15 0 C11 2 11 2 6 2 C6 58.76 6 115.52 6 174 C5.67 174 5.34 174 5 174 C5 117.24 5 60.48 5 2 C3.35 2 1.7 2 0 2 C0 1.34 0 0.68 0 0 Z " fill="#B78639" transform="translate(831,249)"/>
<path d="M0 0 C1.36026098 1.30585054 2.68364976 2.64989719 4 4 C4.66 4.48984375 5.32 4.9796875 6 5.484375 C8.47097066 7.59967564 9.77774759 8.95755876 11 12 C10.48919059 17.58221558 8.13454247 22.87211954 6 28 C5.67 28 5.34 28 5 28 C4.7525 27.113125 4.505 26.22625 4.25 25.3125 C2.95467171 21.87988002 1.37603087 19.75926166 -1 17 C-2.2866645 14.426671 -2.16824551 12.49776962 -2.1875 9.625 C-2.20167969 8.66851562 -2.21585937 7.71203125 -2.23046875 6.7265625 C-1.99745572 3.96989983 -1.40920164 2.35052605 0 0 Z " fill="#06090A" transform="translate(70,376)"/>
<path d="M0 0 C2.5 2.125 2.5 2.125 4 5 C4 8.50732933 3.6345092 10.2434698 1.375 12.9375 C-2.11319754 14.49800943 -4.36432898 13.99154664 -8 13 C-10 11.3125 -10 11.3125 -11 9 C-10.87304813 5.88967921 -10.47953174 3.79921957 -8.875 1.125 C-5.79484632 -0.72309221 -3.49557617 -0.49060718 0 0 Z " fill="#EEEEEE" transform="translate(78,244)"/>
<path d="M0 0 C0.639375 0.66 1.27875 1.32 1.9375 2 C8.40071627 8.76617732 8.40071627 8.76617732 16 14 C14.78934835 17.63195496 13.46308874 18.42896192 10.4375 20.6875 C9.61121094 21.31011719 8.78492187 21.93273437 7.93359375 22.57421875 C6.97646484 23.27998047 6.97646484 23.27998047 6 24 C3.20501276 21.20501276 2.77749616 17.98031746 1.875 14.25 C1.69324219 13.54617188 1.51148437 12.84234375 1.32421875 12.1171875 C0.30376662 7.98934355 -0.20215533 4.28569306 0 0 Z " fill="#C4BCB2" transform="translate(75,337)"/>
<path d="M0 0 C2.375 1.625 2.375 1.625 4 4 C4.61195145 7.6717087 4.48706506 9.28813568 2.375 12.375 C-0.71186432 14.48706506 -2.3282913 14.61195145 -6 14 C-8.375 12.375 -8.375 12.375 -10 10 C-10.61195145 6.3282913 -10.48706506 4.71186432 -8.375 1.625 C-5.28813568 -0.48706506 -3.6717087 -0.61195145 0 0 Z " fill="#F0F0EF" transform="translate(174,529)"/>
<path d="M0 0 C5.14837874 2.21793995 8.76994453 5.84441412 11 11 C10.40984928 15.0631616 8.93209887 18.39835228 7 22 C2.78880897 20.59626966 0.96491046 17.81632428 -1 14 C-2.34963422 8.96251176 -2.57037933 4.68716231 0 0 Z " fill="#070A0D" transform="translate(69,454)"/>
<path d="M0 0 C4.51478398 0.53115106 7.34666857 2.36620292 11 5 C9.35 7.97 7.7 10.94 6 14 C2.2635203 13.06588007 -0.60899585 11.77257035 -4 10 C-3.43454163 6.04179141 -2.19097652 3.3340947 0 0 Z " fill="#AC553B" transform="translate(633,109)"/>
<path d="M0 0 C0.66 0.33 1.32 0.66 2 1 C5.12887506 11.61798891 3.7462142 24.18974475 -1 34 C-1.33 34 -1.66 34 -2 34 C-2.0583721 29.64589022 -2.09372173 25.29188207 -2.125 20.9375 C-2.14175781 19.70837891 -2.15851562 18.47925781 -2.17578125 17.21289062 C-2.20876483 11.09443607 -2.17209842 5.75520567 0 0 Z " fill="#F0F0F0" transform="translate(550,485)"/>
<path d="M0 0 C0 3.63 0 7.26 0 11 C-5 13 -5 13 -8 13 C-10.6875 4.9375 -10.6875 4.9375 -9 1 C-5.35559672 -1.16694249 -4.23509757 -1.05877439 0 0 Z " fill="#DB6544" transform="translate(655,232)"/>
<path d="M0 0 C0 0.33 0 0.66 0 1 C-2.64 1.33 -5.28 1.66 -8 2 C-8 2.66 -8 3.32 -8 4 C-7.34 4.33 -6.68 4.66 -6 5 C-7.8871875 4.7525 -7.8871875 4.7525 -9.8125 4.5 C-19.53111119 3.48417012 -27.03250303 3.93300047 -36.34765625 7.22265625 C-39 8 -39 8 -41 7 C-40.67 6.34 -40.34 5.68 -40 5 C-41.98 5 -43.96 5 -46 5 C-46 4.67 -46 4.34 -46 4 C-40.73527668 3.42488787 -35.46998327 2.85542292 -30.20410156 2.29101562 C-28.41552547 2.09852892 -26.62711005 1.90454268 -24.83886719 1.70898438 C-22.25757736 1.42697055 -19.67574369 1.15048599 -17.09375 0.875 C-15.90888 0.74375732 -15.90888 0.74375732 -14.70007324 0.60986328 C-9.77018537 0.09051523 -4.95745809 -0.07900332 0 0 Z " fill="#526272" transform="translate(432,71)"/>
<path d="M0 0 C0.33 1.32 0.66 2.64 1 4 C0.34 4 -0.32 4 -1 4 C-2.18772614 10.57525192 -2.18366322 17.08167647 -2.1875 23.75 C-2.19974609 24.88566406 -2.21199219 26.02132813 -2.22460938 27.19140625 C-2.22654297 28.27808594 -2.22847656 29.36476563 -2.23046875 30.484375 C-2.23457764 31.47147461 -2.23868652 32.45857422 -2.24291992 33.47558594 C-2.17690013 36.24647182 -2.17690013 36.24647182 0 39 C-1.485 39.495 -1.485 39.495 -3 40 C-3 46.93 -3 53.86 -3 61 C-0.525 60.505 -0.525 60.505 2 60 C1.34 60.66 0.68 61.32 0 62 C-1.32 62 -2.64 62 -4 62 C-4.07638722 54.75926511 -4.12874111 47.51863508 -4.16479492 40.27758789 C-4.1798334 37.81693641 -4.20026942 35.35631151 -4.22631836 32.89575195 C-4.26291856 29.34840308 -4.27977635 25.80141023 -4.29296875 22.25390625 C-4.31619453 20.61742882 -4.31619453 20.61742882 -4.33988953 18.94789124 C-4.34129819 12.48002242 -3.69835977 6.93519549 -1 1 C-0.67 0.67 -0.34 0.34 0 0 Z " fill="#53372D" transform="translate(551,481)"/>
<path d="M0 0 C6.51254792 12.51955558 6.51254792 12.51955558 5.58984375 18.78515625 C4.85203424 20.95054138 4.04691004 22.96776287 3 25 C2.67 24.01 2.34 23.02 2 22 C-1.20148213 24.13432142 -1.52206739 24.68419896 -2.6875 28.125 C-2.93886719 28.84945313 -3.19023438 29.57390625 -3.44921875 30.3203125 C-3.63097656 30.87460937 -3.81273437 31.42890625 -4 32 C-5.10719511 29.20852626 -5.01233302 28.03830002 -4.07421875 25.125 C-3.61660156 24.09375 -3.15898438 23.0625 -2.6875 22 C-2.23761719 20.96875 -1.78773437 19.9375 -1.32421875 18.875 C0 16 0 16 1.22265625 13.83984375 C2.52727791 10.75202062 0.97481786 8.08692323 0 5 C-0.125 2.0625 -0.125 2.0625 0 0 Z " fill="#2E3D4B" transform="translate(67,280)"/>
<path d="M0 0 C3.72901814 -0.08736736 7.45777165 -0.14051482 11.1875 -0.1875 C12.24259766 -0.21263672 13.29769531 -0.23777344 14.38476562 -0.26367188 C15.91713867 -0.27817383 15.91713867 -0.27817383 17.48046875 -0.29296875 C18.41785889 -0.3086792 19.35524902 -0.32438965 20.32104492 -0.34057617 C23.53256353 0.06770492 25.39378631 1.11169302 28 3 C29.12256131 5.24512262 29.13413762 6.51456649 29.125 9 C29.12886719 10.051875 29.12886719 10.051875 29.1328125 11.125 C29 13 29 13 28 15 C27.34 14.67 26.68 14.34 26 14 C26.33 13.34 26.66 12.68 27 12 C27.349104 7.90814871 27.349104 7.90814871 26 4.125 C23.26691443 2.58763936 21.02104893 2.81698586 17.9375 2.9921875 C16 3 16 3 13 2 C10.77425665 1.77548542 8.54418481 1.59217122 6.3125 1.4375 C5.13300781 1.35371094 3.95351562 1.26992188 2.73828125 1.18359375 C1.83464844 1.12300781 0.93101562 1.06242188 0 1 C0 0.67 0 0.34 0 0 Z " fill="#62707C" transform="translate(150,527)"/>
<path d="M0 0 C3.875 1.75 3.875 1.75 5 4 C5.08543895 6.10528933 5.10714725 8.21331157 5.09765625 10.3203125 C5.09443359 11.57714844 5.09121094 12.83398438 5.08789062 14.12890625 C5.07951172 15.44761719 5.07113281 16.76632812 5.0625 18.125 C5.05748489 19.46484211 5.05292201 20.804686 5.04882812 22.14453125 C5.03701086 25.42973206 5.02053617 28.71484397 5 32 C5.66 32.33 6.32 32.66 7 33 C7 33.66 7 34.32 7 35 C7.66 35.33 8.32 35.66 9 36 C7.515 36.495 7.515 36.495 6 37 C5.67 37.99 5.34 38.98 5 40 C3.8247967 36.47439011 3.83958538 33.60250154 3.7890625 29.8828125 C3.76099303 28.45701979 3.73232855 27.03123869 3.703125 25.60546875 C3.66189979 23.36507505 3.6249988 21.12489798 3.59863281 18.88427734 C3.57093483 16.71667121 3.52506871 14.55003978 3.4765625 12.3828125 C3.45674316 11.08746582 3.43692383 9.79211914 3.41650391 8.45751953 C2.98198898 4.85048532 2.10438149 2.91789861 0 0 Z " fill="#3F4C58" transform="translate(78,244)"/>
<path d="M0 0 C8.25 0 16.5 0 25 0 C25 0.33 25 0.66 25 1 C20.71 1 16.42 1 12 1 C12 1.66 12 2.32 12 3 C18.93 3.495 18.93 3.495 26 4 C26 4.33 26 4.66 26 5 C17.585 5.495 17.585 5.495 9 6 C9.66 4.35 10.32 2.7 11 1 C7.37 1 3.74 1 0 1 C0 0.67 0 0.34 0 0 Z " fill="#50606F" transform="translate(137,332)"/>
<path d="M0 0 C3.60409919 -0.05800828 7.20807851 -0.09359869 10.8125 -0.125 C11.83666016 -0.14175781 12.86082031 -0.15851563 13.91601562 -0.17578125 C14.89892578 -0.18222656 15.88183594 -0.18867188 16.89453125 -0.1953125 C17.80050049 -0.20578613 18.70646973 -0.21625977 19.63989258 -0.22705078 C22 0 22 0 25 2 C14.96788765 3.24844065 5.13270429 4.35762486 -5 4 C-5 3.67 -5 3.34 -5 3 C-2.36 3 0.28 3 3 3 C3 2.34 3 1.68 3 1 C2.01 0.67 1.02 0.34 0 0 Z " fill="#505A62" transform="translate(400,157)"/>
<path d="M0 0 C1.32 0.66 2.64 1.32 4 2 C3.65120368 5.25543229 2.97866739 6.01873107 0.4375 8.25 C-0.366875 8.8275 -1.17125 9.405 -2 10 C-2.99 9.01 -3.98 8.02 -5 7 C-3.70700306 4.11562221 -2.34058637 2.12780579 0 0 Z " fill="#E7E7E7" transform="translate(366,195)"/>
<path d="M0 0 C1.95292969 0.07250977 1.95292969 0.07250977 3.9453125 0.14648438 C5.32552554 0.20301019 6.70573382 0.25965233 8.0859375 0.31640625 C9.47393969 0.36962918 10.86196047 0.42236957 12.25 0.47460938 C15.65385891 0.60461788 19.05744867 0.73959508 22.4609375 0.87890625 C22.4609375 1.20890625 22.4609375 1.53890625 22.4609375 1.87890625 C21.75598145 1.9039624 21.05102539 1.92901855 20.32470703 1.95483398 C17.07832303 2.07208667 13.83213933 2.19421775 10.5859375 2.31640625 C9.47734375 2.35572266 8.36875 2.39503906 7.2265625 2.43554688 C0.6043676 2.68874844 -5.95502295 3.11992574 -12.5390625 3.87890625 C-7.94342682 0.35558557 -5.86014605 -0.22931006 0 0 Z " fill="#47525D" transform="translate(138.5390625,350.12109375)"/>
<path d="M0 0 C0 3.63 0 7.26 0 11 C-5 13 -5 13 -8 13 C-7.67 12.01 -7.34 11.02 -7 10 C-5 10 -3 10 -1 10 C-1.33 7.36 -1.66 4.72 -2 2 C-3.98 2.33 -5.96 2.66 -8 3 C-8 4.98 -8 6.96 -8 9 C-10 6 -10 6 -9.9375 3.4375 C-9 1 -9 1 -6.6875 -0.375 C-4 -1 -4 -1 0 0 Z " fill="#573E32" transform="translate(655,232)"/>
<path d="M0 0 C0 0.33 0 0.66 0 1 C-2.64 1.33 -5.28 1.66 -8 2 C-8 2.66 -8 3.32 -8 4 C-7.34 4.33 -6.68 4.66 -6 5 C-7.43861294 4.91253716 -8.87597508 4.80434652 -10.3125 4.6875 C-11.11300781 4.62949219 -11.91351563 4.57148437 -12.73828125 4.51171875 C-15.36272334 3.91793306 -16.30820672 3.04219706 -18 1 C-11.96445452 0.30739642 -6.07593562 -0.11251733 0 0 Z " fill="#59738D" transform="translate(432,71)"/>
<path d="M0 0 C0.99 0.66 1.98 1.32 3 2 C2.38461538 8.52307692 2.38461538 8.52307692 0.4375 10.9375 C-0.036875 11.288125 -0.51125 11.63875 -1 12 C-1 11.34 -1 10.68 -1 10 C-1.928125 10.515625 -2.85625 11.03125 -3.8125 11.5625 C-7 13 -7 13 -10 12 C-9.36191406 11.69707031 -8.72382812 11.39414062 -8.06640625 11.08203125 C-7.24011719 10.66308594 -6.41382813 10.24414062 -5.5625 9.8125 C-4.73878906 9.40644531 -3.91507813 9.00039063 -3.06640625 8.58203125 C-0.77441279 7.14415009 -0.77441279 7.14415009 -0.21484375 4.44921875 C0.02912792 2.07771237 0.02912792 2.07771237 0 0 Z " fill="#73492B" transform="translate(631,306)"/>
<path d="M0 0 C1.125 3.75 1.125 3.75 0 6 C-0.22467831 7.53668865 -0.40796805 9.07968054 -0.5625 10.625 C-0.64628906 11.44226563 -0.73007813 12.25953125 -0.81640625 13.1015625 C-0.87699219 13.72804688 -0.93757813 14.35453125 -1 15 C-1.66 14.01 -2.32 13.02 -3 12 C-3.99 12.99 -4.98 13.98 -6 15 C-5.39644592 11.14974121 -4.23227397 8.13898841 -2.4375 4.6875 C-1.98246094 3.80449219 -1.52742188 2.92148437 -1.05859375 2.01171875 C-0.53458984 1.01591797 -0.53458984 1.01591797 0 0 Z " fill="#486480" transform="translate(69,374)"/>
<path d="M0 0 C1.12642186 3.37926557 0.96344705 3.72928278 -0.43359375 6.79296875 C-0.75263672 7.50517578 -1.07167969 8.21738281 -1.40039062 8.95117188 C-1.74263672 9.68916016 -2.08488281 10.42714844 -2.4375 11.1875 C-2.77587891 11.93708984 -3.11425781 12.68667969 -3.46289062 13.45898438 C-4.2999411 15.30992698 -5.14885404 17.15549666 -6 19 C-7.26286699 14.88421424 -6.42575401 12.88896757 -4.6875 8.9375 C-4.23761719 7.89464844 -3.78773437 6.85179687 -3.32421875 5.77734375 C-2 3 -2 3 0 0 Z " fill="#4A5F73" transform="translate(69,293)"/>
<path d="M0 0 C-1.39750048 3.15835107 -3.05198234 5.32272825 -5.5 7.75 C-6.41265625 8.67039062 -6.41265625 8.67039062 -7.34375 9.609375 C-9 11 -9 11 -11 11 C-9.60249952 7.84164893 -7.94801766 5.67727175 -5.5 3.25 C-4.8915625 2.63640625 -4.283125 2.0228125 -3.65625 1.390625 C-2 0 -2 0 0 0 Z " fill="#A07739" transform="translate(269,464)"/>
<path d="M0 0 C6.22222222 -0.47863248 6.22222222 -0.47863248 9.4375 1.5 C11.7384032 5.18144512 11.34728373 7.69368174 11 12 C10.67 12.66 10.34 13.32 10 14 C9.34 13.67 8.68 13.34 8 13 C8.33 12.34 8.66 11.68 9 11 C9.38938338 6.89294529 9.38938338 6.89294529 7.875 3.1875 C5.33323785 1.57771731 2.9601892 1.32890991 0 1 C0 0.67 0 0.34 0 0 Z " fill="#4C545B" transform="translate(168,528)"/>
<path d="M0 0 C1.051875 0.6496875 1.051875 0.6496875 2.125 1.3125 C6.23942462 3.72748837 10.30517827 3.7356314 15 4 C15 4.33 15 4.66 15 5 C7.87399867 5.35368021 2.52940894 4.95671348 -4 2 C-2.3125 0.8125 -2.3125 0.8125 0 0 Z " fill="#624B40" transform="translate(759,305)"/>
<path d="M0 0 C0.33 0 0.66 0 1 0 C1 2.64 1 5.28 1 8 C2.65 7.67 4.3 7.34 6 7 C1.25 11.875 1.25 11.875 -1 13 C-0.67 8.71 -0.34 4.42 0 0 Z " fill="#916E3A" transform="translate(879,204)"/>
<path d="M0 0 C-1.44077046 3.36179774 -3.24750021 5.59156268 -6 8 C-6.66 8 -7.32 8 -8 8 C-6.48291727 4.46014029 -4.24676932 0 0 0 Z " fill="#A37837" transform="translate(208,535)"/>
<path d="M0 0 C0.1546875 0.86625 0.1546875 0.86625 0.3125 1.75 C0.87824003 4.10641749 0.87824003 4.10641749 2.625 6 C4 8 4 8 3.6875 10.25 C3.460625 10.8275 3.23375 11.405 3 12 C-0.14340842 8.58325171 -0.65504062 5.57071175 -1 1 C-0.67 0.67 -0.34 0.34 0 0 Z " fill="#613E26" transform="translate(379,307)"/>
<path d="M0 0 C0.33 1.32 0.66 2.64 1 4 C-2.3 4 -5.6 4 -9 4 C-6.43425105 1.43425105 -3.68548192 0 0 0 Z " fill="#212324" transform="translate(431,154)"/>
<path d="M0 0 C2 0 2 0 4 1.875 C4.66 2.57625 5.32 3.2775 6 4 C6.66 4.66 7.32 5.32 8 6 C6.53984709 5.71758359 5.08190207 5.42373386 3.625 5.125 C2.81289063 4.96257812 2.00078125 4.80015625 1.1640625 4.6328125 C-1 4 -1 4 -3 2 C-2.01 1.67 -1.02 1.34 0 1 C0 0.67 0 0.34 0 0 Z " fill="#675844" transform="translate(911,279)"/>
<path d="M0 0 C0 0.66 0 1.32 0 2 C-3.3 2.33 -6.6 2.66 -10 3 C-4.28571429 -1.28571429 -4.28571429 -1.28571429 0 0 Z " fill="#5B6A79" transform="translate(136,351)"/>
<path d="M0 0 C2 0 2 0 4 1.875 C4.66 2.57625 5.32 3.2775 6 4 C6.66 4.66 7.32 5.32 8 6 C3.545 5.01 3.545 5.01 -1 4 C-0.34 3.67 0.32 3.34 1 3 C0.67 2.01 0.34 1.02 0 0 Z " fill="#64493C" transform="translate(906,378)"/>
<path d="M0 0 C3.64734979 0.22330713 5.38372835 0.38372835 8 3 C4.37 3 0.74 3 -3 3 C-2.01 2.01 -1.02 1.02 0 0 Z " fill="#685840" transform="translate(920,257)"/>
</svg>
