<?xml version="1.0" encoding="UTF-8"?>
<svg version="1.1" xmlns="http://www.w3.org/2000/svg" width="1008" height="606">
<path d="M0 0 C332.64 0 665.28 0 1008 0 C1008 199.98 1008 399.96 1008 606 C675.36 606 342.72 606 0 606 C0 406.02 0 206.04 0 0 Z " fill="#D6CDC1" transform="translate(0,0)"/>
<path d="M0 0 C3.33397937 0.01533099 6.66762385 0.02072891 10.00161362 0.02017403 C25.56354406 0.02087161 41.06940473 0.32343487 56.60693359 1.20581055 C55.38063911 4.92591397 54.09860738 8.58317421 52.60693359 12.20581055 C54.58693359 12.53581055 56.56693359 12.86581055 58.60693359 13.20581055 C59.20441406 12.04952148 59.20441406 12.04952148 59.81396484 10.86987305 C60.34376953 9.86698242 60.87357422 8.8640918 61.41943359 7.83081055 C62.20253906 6.33420898 62.20253906 6.33420898 63.00146484 4.80737305 C64.60693359 2.20581055 64.60693359 2.20581055 67.60693359 0.20581055 C67.60693359 0.86581055 67.60693359 1.52581055 67.60693359 2.20581055 C68.20828125 2.27050537 68.80962891 2.3352002 69.42919922 2.40185547 C120.00003084 7.96827826 120.00003084 7.96827826 132.60693359 19.20581055 C134.09104541 23.04704113 133.70204013 24.91548533 132.41943359 28.83081055 C127.78031043 37.19722921 119.3760354 43.89930798 111.98193359 49.76831055 C104.62202055 55.6477201 94.81467048 63.58194343 92.60693359 73.20581055 C91.28175708 86.55625902 94.2593986 95.44882644 101.16943359 106.70581055 C108.17538465 118.15594066 110.85528989 129.71348118 107.98583984 143.10424805 C102.62809936 158.20117012 87.90720577 168.84966306 75.84130859 178.39331055 C63.31720544 188.41259307 52.29398274 198.11532418 48.60693359 214.20581055 C49.56394165 214.18224487 49.56394165 214.18224487 50.5402832 214.15820312 C63.93206347 213.87322046 76.52347916 214.21936986 89.60693359 217.20581055 C89.60693359 217.53581055 89.60693359 217.86581055 89.60693359 218.20581055 C87.91922844 218.06237087 86.23177874 217.91592486 84.54443359 217.76831055 C83.13484375 217.64649414 83.13484375 217.64649414 81.69677734 217.5222168 C79.62712629 217.31028034 77.56364655 217.02666025 75.51318359 216.67456055 C70.05728739 216.019853 64.65804372 216.10129355 59.16943359 216.14331055 C53.44599609 216.17424805 53.44599609 216.17424805 47.60693359 216.20581055 C47.93693359 225.11581055 48.26693359 234.02581055 48.60693359 243.20581055 C49.26693359 243.53581055 49.92693359 243.86581055 50.60693359 244.20581055 C49.61693359 244.53581055 48.62693359 244.86581055 47.60693359 245.20581055 C47.60693359 252.13581055 47.60693359 259.06581055 47.60693359 266.20581055 C49.25693359 265.87581055 50.90693359 265.54581055 52.60693359 265.20581055 C49.33994225 268.47280189 46.34435814 268.32164249 41.90292358 268.33023071 C41.12824738 268.32663544 40.35357117 268.32304016 39.55541992 268.31933594 C38.73568192 268.31948196 37.91594391 268.31962799 37.07136536 268.31977844 C34.36053831 268.31908151 31.64977989 268.31129932 28.93896484 268.3034668 C27.05995216 268.30160184 25.180939 268.3001783 23.30192566 268.29917908 C18.35518045 268.29536002 13.40846457 268.28553493 8.46173096 268.2744751 C3.41443275 268.26424785 -1.6328702 268.25967864 -6.68017578 268.25463867 C-16.58448555 268.24391214 -26.48877354 268.22684302 -36.39306641 268.20581055 C-36.39893265 267.55150055 -36.40479889 266.89719055 -36.4108429 266.22305298 C-36.47507158 259.37637129 -36.55956585 252.53014689 -36.65551758 245.68383789 C-36.6886501 243.1331182 -36.71671788 240.58232726 -36.73950195 238.03149414 C-36.7732625 234.35231326 -36.82559055 230.67377856 -36.88134766 226.99487305 C-36.88773758 225.86530182 -36.8941275 224.73573059 -36.90071106 223.57192993 C-37.204515 206.99030955 -43.8144875 197.21930069 -55.51025391 185.8581543 C-59.9687801 181.75606855 -64.66106562 177.98501658 -69.39306641 174.20581055 C-95.02355675 153.48444884 -95.02355675 153.48444884 -97.39306641 140.20581055 C-98.40391313 125.49053365 -95.3607507 115.08269758 -87.62207031 102.56323242 C-81.92507444 93.30114286 -80.11101413 85.21637718 -81.39306641 74.20581055 C-84.73278479 62.39872534 -95.26492952 53.91894318 -104.51025391 46.59643555 C-107.7915386 43.87537019 -110.85851448 41.00895713 -113.89306641 38.01831055 C-114.39757324 37.53112549 -114.90208008 37.04394043 -115.421875 36.54199219 C-119.61219768 32.34669625 -122.39306641 28.61929078 -122.39306641 22.58081055 C-121.00999523 17.91294532 -118.26714317 16.30339047 -114.15869141 13.8972168 C-80.57380454 -1.17426194 -35.98923052 -0.17053358 0 0 Z " fill="#DD6544" transform="translate(500.39306640625,275.794189453125)"/>
<path d="M0 0 C9.45622485 8.06560355 16.35481928 18.12842444 17.36328125 30.80859375 C17.6615877 44.640593 14.4680388 55.42024294 5.125 65.8125 C-4.26439268 75.04452855 -15.95298515 78.36001386 -28.734375 79.765625 C-30.69310065 80.00408857 -32.65182274 80.24258229 -34.61045456 80.48181534 C-36.78155911 80.74415345 -38.95351014 80.99831463 -41.12573242 81.2512207 C-46.28105581 81.85514606 -51.43052298 82.50325952 -56.58007812 83.15429688 C-65.39190813 84.26643871 -74.20575878 85.36096495 -83.0213089 86.44321442 C-89.14971189 87.19564114 -95.2773314 87.95405099 -101.40442276 88.71708298 C-105.40178714 89.21353454 -109.39979847 89.70461411 -113.39800262 90.19425201 C-115.28793002 90.42665076 -117.17761212 90.66105439 -119.06702423 90.8976059 C-128.04483183 92.01998594 -136.80889661 93.10348605 -145.875 92.8125 C-147.91918858 92.94468771 -149.96223191 93.10349814 -152 93.3125 C-152.93070312 93.4053125 -153.86140625 93.498125 -154.8203125 93.59375 C-155.83738281 93.70203125 -155.83738281 93.70203125 -156.875 93.8125 C-157.27332031 93.11382812 -157.67164063 92.41515625 -158.08203125 91.6953125 C-158.61183594 90.78523438 -159.14164062 89.87515625 -159.6875 88.9375 C-160.20957031 88.03257812 -160.73164063 87.12765625 -161.26953125 86.1953125 C-162.81233799 83.57976817 -162.81233799 83.57976817 -165.875 81.8125 C-166.64585937 82.534375 -167.41671875 83.25625 -168.2109375 84 C-169.22371795 84.93775968 -170.23675196 85.87524557 -171.25 86.8125 C-171.75789063 87.28945312 -172.26578125 87.76640625 -172.7890625 88.2578125 C-176.6484375 91.8125 -176.6484375 91.8125 -178.875 91.8125 C-178.215 93.4625 -177.555 95.1125 -176.875 96.8125 C-182.56677757 97.53085001 -188.25931674 98.24270884 -193.95263672 98.94873047 C-195.88677533 99.18948791 -197.82069945 99.43197534 -199.75439453 99.67626953 C-202.5440411 100.02838875 -205.33441601 100.37414853 -208.125 100.71875 C-208.98053467 100.8281189 -209.83606934 100.93748779 -210.7175293 101.0501709 C-215.81327539 101.67206114 -220.74121769 101.91600368 -225.875 101.8125 C-225.875 102.4725 -225.875 103.1325 -225.875 103.8125 C-244.454091 106.09134074 -263.0333013 108.36920644 -281.6126461 110.64597702 C-290.24344628 111.70364402 -298.87421018 112.76160521 -307.50488281 113.8203125 C-315.04589409 114.7453524 -322.58697944 115.66978589 -330.12814677 116.59355283 C-334.10427509 117.08063465 -338.08037089 117.56797794 -342.05637741 118.05605316 C-357.9079834 120.00169478 -373.76123499 121.93313779 -389.62089086 123.81219721 C-391.13090746 123.991246 -392.64085863 124.17084747 -394.15074039 124.35102987 C-396.23087377 124.59900707 -398.311266 124.84468009 -400.39175415 125.08966064 C-401.57465845 125.22969135 -402.75756275 125.36972206 -403.97631264 125.51399612 C-406.875 125.8125 -406.875 125.8125 -409.875 125.8125 C-409.84019531 125.08546875 -409.80539062 124.3584375 -409.76953125 123.609375 C-409.41557871 110.46256639 -412.15789268 99.30788179 -421.06640625 89.3671875 C-429.11277 81.54038745 -439.11638041 76.79237045 -450.4375 76.5625 C-461.66985911 76.72939984 -471.78027821 80.22120866 -480.09765625 87.8515625 C-488.16638704 96.38782722 -492.68887445 106.13029033 -492.94140625 117.91015625 C-492.65531689 125.18376149 -490.97766831 130.89671389 -487.8359375 137.44921875 C-487.51882813 138.22910156 -487.20171875 139.00898438 -486.875 139.8125 C-487.37 140.8025 -487.37 140.8025 -487.875 141.8125 C-492.38079427 133.57480743 -495.07544631 126.70096093 -494.75 117.25 C-494.64728483 112.64707638 -495.38892315 109.76038707 -497.8046875 105.859375 C-502.53513246 96.81283062 -502.18790584 84.86716285 -500.0703125 75.1015625 C-496.05473393 63.44253782 -487.46893905 54.68295288 -476.85546875 48.66796875 C-471.67114304 46.24377441 -466.30909085 45.27460946 -460.68359375 44.4609375 C-459.82452927 44.33478561 -458.96546478 44.20863373 -458.08036804 44.07865906 C-445.1757399 42.23115849 -432.21943395 40.75987066 -419.27441406 39.2277832 C-410.14663894 38.14714021 -401.02049515 37.05284995 -391.89453125 35.95703125 C-390.39854338 35.77746572 -390.39854338 35.77746572 -388.87233353 35.59427261 C-370.7885315 33.42169068 -352.71162214 31.19447139 -334.63671875 28.94921875 C-333.96263127 28.8654872 -333.2885438 28.78175565 -332.59402943 28.69548678 C-323.59131441 27.57708758 -314.5888046 26.4570405 -305.58634186 25.3366127 C-293.01739099 23.77232387 -280.44829815 22.20917887 -267.87890625 20.6484375 C-267.20160178 20.56433349 -266.52429731 20.48022948 -265.82646847 20.39357686 C-241.32848684 17.35200988 -216.82379357 14.36973063 -192.3125 11.4375 C-166.14941392 8.30760599 -139.99664181 5.10438149 -113.85170746 1.8261261 C-110.43745679 1.39814706 -107.02312384 0.97082656 -103.60879135 0.5435009 C-83.47062861 -1.97713078 -83.47062861 -1.97713078 -63.33636475 -4.52867126 C-59.46602541 -5.02104354 -55.5949822 -5.50767508 -51.72369385 -5.99252319 C-49.32135684 -6.29561206 -46.92022784 -6.60713154 -44.51904297 -6.91918945 C-28.75563255 -8.91865479 -13.4602359 -9.89723228 0 0 Z " fill="#6EB1F3" transform="translate(552.875,65.1875)"/>
<path d="M0 0 C3.875 1.75 3.875 1.75 5 4 C5.15441209 6.10374996 5.24992639 8.21195119 5.31640625 10.3203125 C5.35830078 11.57714844 5.40019531 12.83398438 5.44335938 14.12890625 C5.48267578 15.44761719 5.52199219 16.76632813 5.5625 18.125 C5.60569512 19.46485751 5.64930973 20.80470156 5.69335938 22.14453125 C5.79970981 25.42957815 5.90173808 28.71470281 6 32 C7.13489868 31.0867395 7.13489868 31.0867395 8.29272461 30.1550293 C19.84097111 20.96246262 32.61635362 14.5127157 47 11 C48.31871094 10.66355469 48.31871094 10.66355469 49.6640625 10.3203125 C70.22078052 5.99570035 95.47660674 7.88654721 113.78125 18.6328125 C123.19435934 24.95547329 130.28037588 31.95169083 133.62109375 43.06640625 C135.37843104 52.03426147 133.01056042 61.46286804 128 69 C117.3004498 81.84383633 102.03108167 88.44538841 85.66015625 90.71484375 C57.25288459 92.92800365 29.68125265 88.6802124 6.36328125 71.296875 C5.91339844 70.86890625 5.46351562 70.4409375 5 70 C5 69.34 5 68.68 5 68 C3.515 67.505 3.515 67.505 2 67 C-4.64902766 81.94634369 -2.25753673 98.58999466 1 114 C1.33501751 115.66632895 1.669138 117.33284097 2 119 C2.83660156 118.29875 3.67320313 117.5975 4.53515625 116.875 C27.4108558 98.07023041 53.64046767 90.44184744 83.20898438 93.20654297 C99.56002837 95.14246559 116.71644988 100.64703766 127.4375 113.875 C133.21187548 122.49471991 135.21385012 130.63755316 134 141 C131.73403122 151.36943328 124.3803191 158.97425159 115.8125 164.8125 C95.48264034 176.85141131 67.85650763 178.50388302 45.16918945 172.90893555 C29.28144147 168.49598138 15.73805709 160.34770563 3 150 C-2.65809362 155.65809362 -2.32632974 165.92241459 -2.375 173.5 C-2.33415799 181.02681065 -1.30941675 187.80850017 1 195 C1.33942393 196.33179589 1.67374783 197.66491633 2 199 C2.46672119 198.69819824 2.93344238 198.39639648 3.41430664 198.08544922 C30.33189054 180.81209813 60.72043552 172.05990897 92.875 178.1875 C107.65070917 181.54063018 121.11692756 187.2268236 130 200 C134.31245707 208.41840211 135.19132291 215.96365071 132.875 225.0625 C129.30450861 235.7574441 120.57354769 243.89429941 110.67407227 248.89770508 C103.33945003 252.38493126 96.0309161 254.64525707 88 256 C86.92298828 256.19529297 86.92298828 256.19529297 85.82421875 256.39453125 C62.8098536 259.74613782 37.18397555 255.61443426 18 242 C12.13048342 237.57788312 6.54379171 232.82068844 1 228 C-2.53214341 235.39186464 -2.33490296 244.68610402 0.0625 252.43359375 C6.76022696 266.72086457 19.17425796 273.93107756 33.25 279.75 C48.60887498 285.27919499 65.12308243 287.75310159 81.40234375 288.1640625 C82.3042041 288.19089111 83.20606445 288.21771973 84.13525391 288.24536133 C85.87799262 288.28906488 87.621463 288.31087495 89.36474609 288.30737305 C93.66367492 288.40731769 95.50245866 288.62970708 99.0546875 291.2734375 C101.89411335 295.25319501 101.40272335 297.2478645 101 302 C100.34 302.33 99.68 302.66 99 303 C99.0928125 301.1128125 99.0928125 301.1128125 99.1875 299.1875 C99.17106609 295.93816354 99.17106609 295.93816354 97.875 293 C95.10184376 291.52098334 93.08815875 291.61398016 90 292 C88 293 88 293 87 295 C86.60984439 298.12124489 86.44122451 300.09975061 88.125 302.8125 C90.66676215 304.42228269 93.0398108 304.67109009 96 305 C96 305.33 96 305.66 96 306 C64.145845 306.90580536 25.09005626 302.91044084 0 281 C0 280.34 0 279.68 0 279 C-0.59039062 278.74992187 -1.18078125 278.49984375 -1.7890625 278.2421875 C-10.23395176 273.4975324 -15.19979534 261.35745839 -18.140625 252.60546875 C-20.98873835 240.65633863 -19.09810881 229.98606547 -14 219 C-13.42894531 218.14792969 -12.85789062 217.29585937 -12.26953125 216.41796875 C-10.77736113 214.0873446 -10.77736113 214.0873446 -11.1640625 211.51953125 C-12.06531038 208.80315328 -13.16446385 206.28098198 -14.375 203.6875 C-22.71817499 183.92989431 -21.84292657 162.51323417 -13.875 142.8125 C-13.35507091 141.5675394 -12.83186387 140.32394036 -12.3046875 139.08203125 C-10.18337133 134.64600274 -10.18337133 134.64600274 -11.109375 130.06640625 C-12.19225117 127.75369214 -13.27557527 125.4411877 -14.359375 123.12890625 C-18.64588865 112.97872914 -19.4986309 103.05075979 -19.4375 92.125 C-19.45748047 90.86558594 -19.47746094 89.60617187 -19.49804688 88.30859375 C-19.4921761 76.88407056 -16.95135905 67.03600941 -12.1875 56.6875 C-9.84125696 51.29903356 -9.69738883 47.64464841 -11 42 C-11.88584022 37.48712021 -12.11664962 33.22920898 -12.09765625 28.6328125 C-12.0962413 27.95322479 -12.09482635 27.27363708 -12.09336853 26.57345581 C-12.08781518 24.42392388 -12.07527169 22.27449992 -12.0625 20.125 C-12.05747896 18.65885568 -12.05291711 17.19270971 -12.04882812 15.7265625 C-12.03786111 12.15100717 -12.02062919 8.57551414 -12 5 C-11.70480469 5.61230469 -11.40960938 6.22460938 -11.10546875 6.85546875 C-9.69519647 9.59129731 -8.50177172 11.1743828 -6 13 C-2.37350049 13.08916154 -2.37350049 13.08916154 1 12 C3.32821558 9.18138229 3.32821558 9.18138229 2.75 6 C2.14014017 2.84584582 2.14014017 2.84584582 0 0 Z " fill="#6BA9E7" transform="translate(78,238)"/>
<path d="M0 0 C0.04413145 2.86345229 0.07623419 5.7262135 0.1015625 8.58984375 C0.11517822 9.3933728 0.12879395 10.19690186 0.14282227 11.02478027 C0.22795499 23.88309663 -5.06275578 33.71422761 -13.5 43.125 C-26.25335952 55.25154034 -45.50107056 58.43679147 -62.125 61.5 C-88.72249015 66.43025718 -106.31534808 78.3480982 -125.83984375 96.6640625 C-151.82501482 120.98611368 -179.54993617 135.38702698 -215.84765625 134.4375 C-234.78483172 133.53775298 -252.3212799 126.31685682 -270 120 C-309.99392554 105.74473941 -349.50505205 102.56945433 -390.35498047 115.98120117 C-395.26845165 117.58369246 -399.84873754 118.51358955 -405 119 C-405.20453151 115.62590441 -405.32801449 112.25341008 -405.4375 108.875 C-405.49615234 107.92367187 -405.55480469 106.97234375 -405.61523438 105.9921875 C-405.78275802 99.09978593 -405.78275802 99.09978593 -403.68530273 96.15283203 C-401.87814221 94.55164124 -400.05074799 93.27260539 -398 92 C-397.37971924 91.58379395 -396.75943848 91.16758789 -396.12036133 90.73876953 C-394.1743279 89.47124588 -392.19680942 88.2894214 -390.1875 87.125 C-389.46046875 86.70081787 -388.7334375 86.27663574 -387.984375 85.83959961 C-355.64965865 67.38186569 -322.0259672 62.25556327 -285.77294922 71.60668945 C-277.45021793 73.93335818 -269.52064526 77.29051073 -261.62744141 80.78515625 C-255.49288772 83.40539852 -251.54980526 84.58450379 -245 83 C-245.33 83.66 -245.66 84.32 -246 85 C-246.66 85 -247.32 85 -248 85 C-248 85.66 -248 86.32 -248 87 C-247.319375 87.17015625 -246.63875 87.3403125 -245.9375 87.515625 C-244.968125 87.75796875 -243.99875 88.0003125 -243 88.25 C-241.90558594 88.51941406 -240.81117188 88.78882813 -239.68359375 89.06640625 C-237.14128827 89.71074454 -234.6209598 90.37987193 -232.09765625 91.08984375 C-212.01212297 96.63979374 -194.87335576 93.14257515 -176.92724609 83.10742188 C-167.26087282 77.55299203 -158.4701989 71.27180538 -150 64 C-148.86544905 63.04974668 -147.72998635 62.10058117 -146.59375 61.15234375 C-139.95796736 55.58064491 -133.73976351 49.82124378 -127.68359375 43.62109375 C-123.38260708 39.42027562 -118.70804274 35.73516306 -114 32 C-113.67 31.67 -113.34 31.34 -113 31 C-113.57967529 30.92483154 -114.15935059 30.84966309 -114.7565918 30.7722168 C-117.40193751 30.42241246 -120.04457534 30.05513173 -122.6875 29.6875 C-123.59951172 29.56955078 -124.51152344 29.45160156 -125.45117188 29.33007812 C-134.30999527 28.0737359 -134.30999527 28.0737359 -138 25 C-138.625 22.0625 -138.625 22.0625 -138 19 C-133.88277755 14.76514263 -129.89951915 13.04789685 -124.03027344 12.89990234 C-122.47301744 12.9541499 -120.91603459 13.01665588 -119.359375 13.0859375 C-117.6302563 13.13079505 -115.90108598 13.1736968 -114.171875 13.21484375 C-111.47900296 13.28824153 -108.78885969 13.37326162 -106.09765625 13.49365234 C-93.09837142 14.04655655 -84.11463269 12.26289774 -72.73834229 5.90567017 C-52.34738513 -4.7179462 -22.16897416 -0.30236763 0 0 Z " fill="#6EB0F1" transform="translate(953,423)"/>
<path d="M0 0 C16.5 0 33 0 50 0 C50 47.19 50 94.38 50 143 C-6.76 143 -63.52 143 -122 143 C-115.38387356 135.28118582 -109.28402898 130.61833864 -100.34936523 126.06884766 C-85.64224521 118.57252655 -77.94134986 108.02790215 -72.5 92.5 C-66.02143013 74.03886292 -55.72468264 64.02838698 -38.81201172 54.97851562 C-24.95852163 47.49740699 -16.84610492 36.75604353 -11.546875 22.03125 C-11.29832764 21.34240723 -11.04978027 20.65356445 -10.79370117 19.94384766 C-10.32627056 18.62130775 -9.87430176 17.29313464 -9.44262695 15.95849609 C-7.20432865 9.47715552 -4.30351271 6.1478753 0 0 Z " fill="#DA9C3D" transform="translate(320,401)"/>
<path d="M0 0 C16.4501397 15.01860082 28.39131993 36.52645539 29.71704102 59.02490234 C30.81504165 87.80603995 24.25102355 110.33748914 5.0703125 132.16796875 C-8.10575913 146.12484462 -25.39285033 156.09967018 -44.44140625 159.3359375 C-46.09140625 159.3359375 -47.74140625 159.3359375 -49.44140625 159.3359375 C-49.44140625 179.7959375 -49.44140625 200.2559375 -49.44140625 221.3359375 C-48.12140625 221.0059375 -46.80140625 220.6759375 -45.44140625 220.3359375 C-37.60974904 220.37451709 -30.58199465 221.05126683 -23.44140625 224.3359375 C-26.44140625 225.3359375 -26.44140625 225.3359375 -29.61328125 224.421875 C-39.88407209 221.50832413 -52.03756749 222.17668857 -61.44140625 227.3359375 C-66.51829136 230.61283607 -71.16612611 234.06065736 -75.44140625 238.3359375 C-75.11140625 212.2659375 -74.78140625 186.1959375 -74.44140625 159.3359375 C-77.74140625 159.0059375 -81.04140625 158.6759375 -84.44140625 158.3359375 C-107.42401814 152.51491269 -127.98405781 137.67048292 -140.48974609 117.47998047 C-153.17148292 96.1791309 -157.67009216 70.14479346 -151.75390625 45.8359375 C-150.02504701 39.33539561 -147.56255011 33.28447051 -144.44140625 27.3359375 C-143.81492187 26.02109375 -143.81492187 26.02109375 -143.17578125 24.6796875 C-132.3475183 3.02316159 -112.02788644 -12.07012159 -89.44140625 -19.6640625 C-57.44564673 -29.22903164 -25.22880496 -21.45730001 0 0 Z M-110.44140625 21.3359375 C-111.13878906 21.99980469 -111.83617187 22.66367188 -112.5546875 23.34765625 C-125.28182452 36.32192214 -130.00997791 53.93588595 -129.9296875 71.67504883 C-129.33554172 90.4100921 -121.00751109 106.47571129 -107.44140625 119.3359375 C-92.68608496 131.92864681 -74.84443606 137.84266261 -55.47802734 136.53857422 C-36.60186754 134.66046194 -20.30939359 125.31200316 -8.3203125 110.76171875 C-6.55725512 108.34651971 -4.96861206 105.90591287 -3.44140625 103.3359375 C-2.9825 102.57023437 -2.52359375 101.80453125 -2.05078125 101.015625 C6.52964368 85.35376505 8.01407857 67.0328768 3.71484375 49.8359375 C-0.46912998 37.17093593 -6.88679664 27.54205071 -16.44140625 18.3359375 C-17.00085938 17.74554688 -17.5603125 17.15515625 -18.13671875 16.546875 C-30.48027343 4.46182408 -48.68963642 0.81722364 -65.22485352 0.91577148 C-83.04877741 1.39182645 -97.93786466 8.70327155 -110.44140625 21.3359375 Z " fill="#DC9D3D" transform="translate(887.44140625,72.6640625)"/>
<path d="M0 0 C0.33 0 0.66 0 1 0 C1.14695312 0.87011719 1.14695312 0.87011719 1.296875 1.7578125 C2.491502 7.99870874 4.41856281 12.41856281 9 17 C9.13525391 19.52197266 9.13525391 19.52197266 8.9765625 22.6640625 C8.925 23.78554688 8.8734375 24.90703125 8.8203125 26.0625 C8.75585938 27.238125 8.69140625 28.41375 8.625 29.625 C8.56828125 30.80835938 8.5115625 31.99171875 8.453125 33.2109375 C8.31133757 36.14121112 8.15989667 39.07066772 8 42 C8.66 42 9.32 42 10 42 C11.33333333 47.33333333 12.66666667 52.66666667 14 58 C14.70008179 57.54729736 14.70008179 57.54729736 15.41430664 57.08544922 C42.33189054 39.81209813 72.72043552 31.05990897 104.875 37.1875 C119.65070917 40.54063018 133.11692756 46.2268236 142 59 C146.31245707 67.41840211 147.19132291 74.96365071 144.875 84.0625 C141.30450861 94.7574441 132.57354769 102.89429941 122.67407227 107.89770508 C115.33945003 111.38493126 108.0309161 113.64525707 100 115 C99.28199219 115.13019531 98.56398438 115.26039063 97.82421875 115.39453125 C74.8098536 118.74613782 49.18397555 114.61443426 30 101 C24.13048342 96.57788312 18.54379171 91.82068844 13 87 C9.46785659 94.39186464 9.66509704 103.68610402 12.0625 111.43359375 C18.76022696 125.72086457 31.17425796 132.93107756 45.25 138.75 C60.60887498 144.27919499 77.12308243 146.75310159 93.40234375 147.1640625 C94.75513428 147.20430542 94.75513428 147.20430542 96.13525391 147.24536133 C97.87799262 147.28906488 99.621463 147.31087495 101.36474609 147.30737305 C105.66367492 147.40731769 107.50245866 147.62970708 111.0546875 150.2734375 C113.89411335 154.25319501 113.40272335 156.2478645 113 161 C112.34 161.33 111.68 161.66 111 162 C111.0928125 160.1128125 111.0928125 160.1128125 111.1875 158.1875 C111.17106609 154.93816354 111.17106609 154.93816354 109.875 152 C107.10184376 150.52098334 105.08815875 150.61398016 102 151 C100 152 100 152 99 154 C98.60984439 157.12124489 98.44122451 159.09975061 100.125 161.8125 C102.66676215 163.42228269 105.0398108 163.67109009 108 164 C108 164.33 108 164.66 108 165 C76.145845 165.90580536 37.09005626 161.91044084 12 140 C12 139.34 12 138.68 12 138 C11.40960938 137.74992188 10.81921875 137.49984375 10.2109375 137.2421875 C1.76604824 132.4975324 -3.19979534 120.35745839 -6.140625 111.60546875 C-8.98873835 99.65633863 -7.09810881 88.98606547 -2 78 C-1.42894531 77.14792969 -0.85789062 76.29585938 -0.26953125 75.41796875 C1.22263887 73.0873446 1.22263887 73.0873446 0.8359375 70.51953125 C-0.06531038 67.80315328 -1.16446385 65.28098198 -2.375 62.6875 C-10.10327973 44.38603757 -10.16227471 23.71724563 -3.3125 5.125 C-2.6628125 3.578125 -2.6628125 3.578125 -2 2 C-1.34 2 -0.68 2 0 2 C0 1.34 0 0.68 0 0 Z " fill="#6BAAE7" transform="translate(66,379)"/>
<path d="M0 0 C3.875 1.75 3.875 1.75 5 4 C5.15441209 6.10374996 5.24992639 8.21195119 5.31640625 10.3203125 C5.35830078 11.57714844 5.40019531 12.83398438 5.44335938 14.12890625 C5.48267578 15.44761719 5.52199219 16.76632813 5.5625 18.125 C5.60569512 19.46485751 5.64930973 20.80470156 5.69335938 22.14453125 C5.79970981 25.42957815 5.90173808 28.71470281 6 32 C7.13489868 31.0867395 7.13489868 31.0867395 8.29272461 30.1550293 C19.84097111 20.96246262 32.61635362 14.5127157 47 11 C47.87914062 10.77570313 48.75828125 10.55140625 49.6640625 10.3203125 C70.22078052 5.99570035 95.47660674 7.88654721 113.78125 18.6328125 C123.19435934 24.95547329 130.28037588 31.95169083 133.62109375 43.06640625 C135.37843104 52.03426147 133.01056042 61.46286804 128 69 C117.3004498 81.84383633 102.03108167 88.44538841 85.66015625 90.71484375 C57.25288459 92.92800365 29.68125265 88.6802124 6.36328125 71.296875 C5.91339844 70.86890625 5.46351562 70.4409375 5 70 C5 69.34 5 68.68 5 68 C4.34 68 3.68 68 3 68 C2.46375 67.05125 1.9275 66.1025 1.375 65.125 C0.10272525 62.88141871 -1.20286905 60.67419533 -2.56640625 58.484375 C-3.10136719 57.62328125 -3.63632813 56.7621875 -4.1875 55.875 C-4.69667969 55.06804687 -5.20585938 54.26109375 -5.73046875 53.4296875 C-7.03971791 50.92398604 -7.58885948 48.78386711 -8 46 C-8.66 46 -9.32 46 -10 46 C-12.31965226 37.32026399 -12.23331608 28.77326831 -12.125 19.875 C-12.11494507 18.42708956 -12.10582368 16.97917232 -12.09765625 15.53125 C-12.07585344 12.02068963 -12.04146381 8.51038972 -12 5 C-11.70480469 5.61230469 -11.40960938 6.22460938 -11.10546875 6.85546875 C-9.69519647 9.59129731 -8.50177172 11.1743828 -6 13 C-2.37350049 13.08916154 -2.37350049 13.08916154 1 12 C3.32821558 9.18138229 3.32821558 9.18138229 2.75 6 C2.14014017 2.84584582 2.14014017 2.84584582 0 0 Z " fill="#6BA9E6" transform="translate(78,238)"/>
<path d="M0 0 C0.66524689 0.00020016 1.33049377 0.00040031 2.01589966 0.00060654 C18.68201782 0.01059661 35.29641287 0.32075288 51.9375 1.25 C50.71120552 4.97010342 49.42917379 8.62736366 47.9375 12.25 C49.9175 12.58 51.8975 12.91 53.9375 13.25 C54.53498047 12.09371094 54.53498047 12.09371094 55.14453125 10.9140625 C55.67433594 9.91117187 56.20414063 8.90828125 56.75 7.875 C57.53310547 6.37839844 57.53310547 6.37839844 58.33203125 4.8515625 C59.9375 2.25 59.9375 2.25 62.9375 0.25 C62.9375 0.91 62.9375 1.57 62.9375 2.25 C63.53884766 2.31469482 64.14019531 2.37938965 64.75976562 2.44604492 C111.43860338 7.58406892 111.43860338 7.58406892 125.9375 17.25 C126.63802461 19.913063 126.71494818 22.49035737 126.9375 25.25 C109.31303401 38.10117311 82.99662182 39.58675262 61.9375 41.4375 C61.02162109 41.51993958 60.10574219 41.60237915 59.16210938 41.68731689 C22.55754928 44.91470004 -14.43997925 45.40671947 -51.0625 42.25 C-52.97603271 42.08709473 -52.97603271 42.08709473 -54.92822266 41.92089844 C-111.76822558 36.88249012 -111.76822558 36.88249012 -125.0625 25.25 C-126.0625 21.75 -126.0625 21.75 -125.0625 18.25 C-97.86129937 -5.55105055 -33.64056372 -0.02196104 0 0 Z " fill="#E1A03E" transform="translate(505.0625,275.75)"/>
<path d="M0 0 C15.84 0 31.68 0 48 0 C48 46.53 48 93.06 48 141 C32.16 141 16.32 141 0 141 C0 94.47 0 47.94 0 0 Z " fill="#D6CDC1" transform="translate(321,402)"/>
<path d="M0 0 C0.78753662 0.00757324 1.57507324 0.01514648 2.38647461 0.02294922 C13.55832576 0.33706797 22.96786797 4.61913455 31.125 12.25 C39.34474407 21.03662297 43.75676699 32.004001 43.44140625 44.05078125 C42.07732677 56.87312835 36.4845474 66.69681134 27.1875 75.4375 C18.82208997 81.96827019 8.43919685 85.17781596 -2.1796875 84.78515625 C-15.32948794 83.04875827 -25.25351946 77.24283042 -33.796875 67.265625 C-40.42968509 57.95912402 -42.9518034 46.54254434 -41.3671875 35.26953125 C-38.96810345 24.39092598 -33.59153595 14.33347041 -24.421875 7.7109375 C-16.49584573 2.77540393 -9.38970057 -0.12739337 0 0 Z " fill="#F2F2F2" transform="translate(506.8125,60.5625)"/>
<path d="M0 0 C10.38683976 8.90028288 15.73762474 18.4410064 17.38671875 31.93359375 C18.01224043 43.35978982 12.89292359 55.3364683 5.38671875 63.78515625 C-4.5494802 73.22660671 -15.74432319 76.27861633 -29.0859375 76.03125 C-40.2530529 75.42045834 -50.0648007 70.18873006 -57.74609375 62.07421875 C-64.92759352 53.15331495 -68.33190635 42.25148313 -67.74609375 30.88671875 C-66.26402699 17.75021789 -60.25051056 7.83596189 -50.1796875 -0.60546875 C-34.90000212 -10.99875728 -14.98351792 -10.95480039 0 0 Z " fill="#F2F2F2" transform="translate(126.87109375,149.17578125)"/>
<path d="M0 0 C2.31731455 1.70196044 4.41569896 3.49024582 6.51171875 5.45703125 C7.14980469 6.05386719 7.78789063 6.65070313 8.4453125 7.265625 C16.57362194 15.67361821 19.92856333 26.85440064 19.7890625 38.35546875 C18.94550073 47.78910318 15.44852679 56.14023878 9.51171875 63.45703125 C9.01027344 64.08222656 8.50882813 64.70742188 7.9921875 65.3515625 C1.12516678 73.02057104 -9.25888206 77.74264527 -19.48828125 78.45703125 C-31.61583536 78.56196682 -42.13619702 75.32626249 -51.48828125 67.45703125 C-60.90272058 57.64126591 -64.80078125 47.90538272 -64.80078125 34.39746094 C-64.5583766 22.98791499 -60.12606693 13.82034061 -52.48828125 5.45703125 C-38.16325883 -7.32383453 -16.64626747 -10.32225377 0 0 Z " fill="#F2F2F2" transform="translate(868.48828125,300.54296875)"/>
<path d="M0 0 C0.86625 0.66 1.7325 1.32 2.625 2 C3.429375 2.53625 4.23375 3.0725 5.0625 3.625 C13.01293899 10.99369955 18.18366257 20.57364908 18.828125 31.41796875 C18.99060852 44.48435184 16.70303199 55.53498566 7.41015625 65.3359375 C3.65318631 68.79910114 0.48495226 71.29175667 -4.375 73 C-4.72111328 71.83984375 -4.72111328 71.83984375 -5.07421875 70.65625 C-7.1349426 64.07496592 -9.44870242 58.67131873 -13.375 53 C-15.685 54.98 -17.995 56.96 -20.375 59 C-18.93651336 62.83596438 -17.15650206 66.35903277 -15.1796875 69.9375 C-14.21905512 72.39970339 -14.23852509 74.37968174 -14.375 77 C-29.53387112 77.60035133 -40.72595241 76.7444814 -52.375 66 C-61.68718653 57.30737426 -64.9885683 47.076652 -65.453125 34.5078125 C-65.2155467 23.8405467 -65.2155467 23.8405467 -61.375 20 C-60.66666667 21.41666667 -59.95833333 22.83333333 -59.25 24.25 C-58.79496094 25.15621094 -58.33992188 26.06242187 -57.87109375 26.99609375 C-56.85082435 29.04462422 -55.84352381 31.09965278 -54.84765625 33.16015625 C-54.34105469 34.20042969 -53.83445312 35.24070313 -53.3125 36.3125 C-52.84714844 37.27800781 -52.38179688 38.24351562 -51.90234375 39.23828125 C-50.31623905 42.10625062 -48.48981529 44.50315357 -46.375 47 C-42.89724821 45.48446596 -40.4192016 43.4226544 -37.625 40.875 C-36.82578125 40.15054688 -36.0265625 39.42609375 -35.203125 38.6796875 C-34.29820312 37.84824219 -34.29820312 37.84824219 -33.375 37 C-33.65988281 36.43023437 -33.94476563 35.86046875 -34.23828125 35.2734375 C-35.34635417 33.05729167 -36.45442708 30.84114583 -37.5625 28.625 C-38.21412109 27.32755859 -38.21412109 27.32755859 -38.87890625 26.00390625 C-39.98259237 23.78788894 -41.07244698 21.56738417 -42.15234375 19.33984375 C-42.45825439 18.7144873 -42.76416504 18.08913086 -43.0793457 17.44482422 C-43.96550924 15.6330181 -44.84614928 13.81851359 -45.7265625 12.00390625 C-47.13929799 9.42951386 -48.34585956 8.01069371 -50.375 6 C-50.375 5.01 -50.375 4.02 -50.375 3 C-36.53449793 -9.56442741 -15.42010206 -9.13783826 0 0 Z " fill="#F2F2F2" transform="translate(487.375,196)"/>
<path d="M0 0 C4.51153957 4.19885861 6.78876823 7.46521876 7.3125 13.75 C7.20399681 19.13570384 5.15239396 22.88899823 1.375 26.59375 C-14.38599594 39.46523002 -34.75845768 39.14519657 -54 38 C-68.30556906 36.33826753 -81.71873616 30.93443158 -93 22 C-93.58265625 21.54367187 -94.1653125 21.08734375 -94.765625 20.6171875 C-96.1875 19.375 -96.1875 19.375 -98 17 C-97.88667024 13.56044178 -97.24506739 12.25574183 -94.84765625 9.75390625 C-69.15876241 -10.45853337 -28.93438437 -20.59074233 0 0 Z " fill="#D6CDC1" transform="translate(188,274)"/>
<path d="M0 0 C3.4141446 3.05185228 6.72130825 6.45979319 7.23828125 11.171875 C7.43547182 18.02165271 6.33295604 21.38852396 1.59765625 26.51953125 C-11.14316206 38.82423353 -29.62467817 38.55345645 -46.08203125 38.3046875 C-66.68512716 37.63354075 -83.17090117 28.81340713 -98 15 C-93.96806798 5.1925978 -80.94020452 -0.38166809 -71.80078125 -4.41015625 C-49.23119219 -13.57153974 -20.90385932 -13.37956441 0 0 Z " fill="#D6CDC1" transform="translate(188,358)"/>
<path d="M0 0 C1.28156982 0.00161133 2.56313965 0.00322266 3.88354492 0.00488281 C13.46253769 0.12864711 21.86589455 1.04856106 30.875 4.375 C31.69484375 4.66375 32.5146875 4.9525 33.359375 5.25 C39.23622819 7.7244645 44.02852983 12.68205966 46.875 18.375 C47.46113098 24.04093277 46.97263123 27.72169889 43.6640625 32.42578125 C35.08259438 41.7754594 21.14857845 45.76653118 8.77270508 46.49951172 C-11.76976375 47.19222038 -32.73140878 44.29290758 -48.67285156 29.98583984 C-51.93541268 26.88711035 -55.0525924 23.661347 -58.125 20.375 C-50.87860615 12.75064676 -42.27311099 8.54034809 -32.5 5.0625 C-31.8203418 4.82023682 -31.14068359 4.57797363 -30.44042969 4.32836914 C-20.31563656 0.89896468 -10.67255521 -0.01391558 0 0 Z " fill="#D6CDC1" transform="translate(148.125,431.625)"/>
<path d="M0 0 C5.85651238 3.95166694 11.24316356 9.66786875 12.75 16.75 C13.49661486 25.25311364 12.83495154 32.78054185 9.75 40.75 C11.73 40.75 13.71 40.75 15.75 40.75 C15.75 41.08 15.75 41.41 15.75 41.75 C8.5430839 42.64899106 1.33576088 43.54464471 -5.87207317 44.43624783 C-9.22033475 44.85052694 -12.56845552 45.26587785 -15.91625977 45.68383789 C-19.78106578 46.16576803 -23.64634003 46.64378146 -27.51171875 47.12109375 C-28.69142746 47.26904892 -29.87113617 47.41700409 -31.08659363 47.56944275 C-38.79638619 48.51656402 -46.50045306 49.21990625 -54.25 49.75 C-54.20359375 48.55286377 -54.20359375 48.55286377 -54.15625 47.33154297 C-53.8637217 38.4962741 -54.89869875 30.20936444 -59.0625 22.3125 C-60.25 19.75 -60.25 19.75 -59.63671875 17.3984375 C-54.20014952 7.01535598 -41.48714917 -0.00404103 -30.75 -3.625 C-19.77175705 -6.70096725 -9.96049818 -5.73770142 0 0 Z " fill="#010202" transform="translate(197.25,141.25)"/>
<path d="M0 0 C3.87092066 3.57315754 7.03406466 7.6612603 10 12 C10.67675781 12.928125 10.67675781 12.928125 11.3671875 13.875 C12.34433936 17.15630008 10.53005988 19.02628361 9 22 C7.37445818 33.8198312 9.44481883 42.64452863 16.6875 52.234375 C33.21588405 70.61507796 62.55400559 75.46521443 86 77 C87.80046652 77.06421962 89.60130609 77.1185963 91.40234375 77.1640625 C92.75513428 77.20430542 92.75513428 77.20430542 94.13525391 77.24536133 C95.87799262 77.28906488 97.621463 77.31087495 99.36474609 77.30737305 C103.66367492 77.40731769 105.50245866 77.62970708 109.0546875 80.2734375 C111.89411335 84.25319501 111.40272335 86.2478645 111 91 C110.01 91.495 110.01 91.495 109 92 C109.0928125 90.1128125 109.0928125 90.1128125 109.1875 88.1875 C109.17106609 84.93816354 109.17106609 84.93816354 107.875 82 C105.10184376 80.52098334 103.08815875 80.61398016 100 81 C98 82 98 82 97 84 C96.60984439 87.12124489 96.44122451 89.09975061 98.125 91.8125 C100.66676215 93.42228269 103.0398108 93.67109009 106 94 C106 94.33 106 94.66 106 95 C74.145845 95.90580536 35.09005626 91.91044084 10 70 C10 69.34 10 68.68 10 68 C9.11441406 67.62488281 9.11441406 67.62488281 8.2109375 67.2421875 C-0.23395176 62.4975324 -5.19979534 50.35745839 -8.140625 41.60546875 C-11.74900835 26.46666044 -7.19253554 13.31951026 0 0 Z " fill="#6AA6E1" transform="translate(68,449)"/>
<path d="M0 0 C3.58806317 3.38872633 6.45684799 6.76141332 9 11 C9 11.66 9 12.32 9 13 C9.70125 12.855625 10.4025 12.71125 11.125 12.5625 C16.86719815 11.43902645 22.15220515 10.7793285 28 11 C28 11.33 28 11.66 28 12 C22.39 12.99 16.78 13.98 11 15 C12.093125 17.248125 13.18625 19.49625 14.3125 21.8125 C14.65063721 22.51608643 14.98877441 23.21967285 15.3371582 23.94458008 C16.90749088 27.12776099 18.40190455 29.59376391 21 32 C21 32.66 21 33.32 21 34 C21.56589844 34.27585938 22.13179688 34.55171875 22.71484375 34.8359375 C31.03111165 39.07225859 38.54690355 44.41613062 46 50 C46.70382812 50.47050781 47.40765625 50.94101563 48.1328125 51.42578125 C50.42694778 53.35995806 51.55747394 55.37901686 53 58 C53.47179687 58.74378906 53.94359375 59.48757812 54.4296875 60.25390625 C57.85514809 65.72538519 60.45183848 71.19654972 62.7265625 77.23828125 C64.11393666 80.24709577 65.84154027 82.50001184 68 85 C66.44997253 88.88397689 63.99523379 91.02979619 60.875 93.75 C59.96492188 94.54921875 59.05484375 95.3484375 58.1171875 96.171875 C57.41851562 96.77515625 56.71984375 97.3784375 56 98 C49.3657275 95.41597264 46.24733684 87.80814053 43.5078125 81.640625 C42.66202388 79.54867446 41.83823876 77.44761008 41.04296875 75.3359375 C40.22941451 72.85037815 40.22941451 72.85037815 38 72 C37.34 72.99 36.68 73.98 36 75 C36.0825 73.948125 36.165 72.89625 36.25 71.8125 C35.94855244 67.2154247 35.17395365 66.25839373 32 63 C29.36787336 61.21404316 26.60366854 59.70888086 23.8125 58.1875 C6.90957453 48.53963822 -2.1499984 35.91745516 -9 18 C-17.83192851 17.72373244 -26.33926516 18.80851427 -35.0625 20 C-51.87063998 22.29001061 -51.87063998 22.29001061 -60 22 C-60 21.67 -60 21.34 -60 21 C-54.62997833 20.2796032 -49.25890243 19.56786279 -43.88671875 18.86376953 C-42.06316976 18.62357434 -40.23991856 18.38110608 -38.41699219 18.13623047 C-35.78136953 17.78260092 -33.14474799 17.4374364 -30.5078125 17.09375 C-29.70634796 16.9843811 -28.90488342 16.87501221 -28.07913208 16.7623291 C-22.36234597 16.02869813 -16.7604132 15.88047951 -11 16 C-11.66 14.35 -12.32 12.7 -13 11 C-8.73958774 7.23645964 -4.48151089 3.50118038 0 0 Z " fill="#CA6244" transform="translate(387,146)"/>
<path d="M0 0 C0 0.66 0 1.32 0 2 C0.59167969 2.04898437 1.18335938 2.09796875 1.79296875 2.1484375 C6.19104472 2.56456867 9.96928897 3.04965595 14 5 C14 5.66 14 6.32 14 7 C15.19625 7.061875 16.3925 7.12375 17.625 7.1875 C26.8146904 8.22316352 35.78911637 10.9692348 42 18 C44.48499142 21.54998775 44.43249013 24.74718041 44 29 C42.64794434 32.55919518 40.72695317 35.3171046 37.9375 37.9375 C26.30600084 42.14463799 14.65054609 36.09605293 3.8125 32 C1.98432464 31.32389437 0.15555237 30.6494005 -1.67382812 29.9765625 C-6.12299252 28.33623026 -10.56348564 26.67422837 -15 25 C-15 24.34 -15 23.68 -15 23 C-17.31 22.34 -19.62 21.68 -22 21 C-22.33 19.35 -22.66 17.7 -23 16 C-23.66 16 -24.32 16 -25 16 C-25 12.7 -25 9.4 -25 6 C-24.34 6 -23.68 6 -23 6 C-22.979375 5.2575 -22.95875 4.515 -22.9375 3.75 C-21.77799236 0.3487776 -20.12139356 -0.68803398 -16.95703125 -2.2734375 C-10.80016701 -4.55921943 -5.69671423 -2.39861652 0 0 Z " fill="#CCC3B8" transform="translate(739,271)"/>
<path d="M0 0 C4.03441111 1.3448037 5.12667247 3.95309903 7.1875 7.4375 C7.55552734 8.03626953 7.92355469 8.63503906 8.30273438 9.25195312 C11 13.72070675 11 13.72070675 11 16 C9.948125 16.7734375 9.948125 16.7734375 8.875 17.5625 C6.23604594 19.79987409 5.02338423 21.37196582 3.25 24.25 C-1.87653792 32.20858956 -8.84973836 38.28183404 -18 41 C-20.5400742 41.50475834 -23.0762737 41.98305905 -25.625 42.4375 C-33.75759603 43.95986305 -33.75759603 43.95986305 -40 49 C-41.7983808 51.73303811 -43.48426755 54.51615451 -45.15625 57.328125 C-47.80505298 61.16664458 -51.06307792 63.57649212 -55 66 C-57.94442226 63.22272834 -60.22993965 60.43209656 -62.375 57 C-62.91898438 56.154375 -63.46296875 55.30875 -64.0234375 54.4375 C-65 52 -65 52 -64.3671875 49.95703125 C-61.72722734 46.17811685 -58.88278886 42.59586771 -56 39 C-55.52433594 38.36320312 -55.04867187 37.72640625 -54.55859375 37.0703125 C-47.60780623 28.15904645 -37.80975652 24.61950692 -27 22.6875 C-17.26727448 20.6041044 -14.25749026 16.53534588 -8.80078125 8.453125 C-6.21383794 4.92904604 -3.56264011 2.53495546 0 0 Z " fill="#D3973C" transform="translate(648,164)"/>
<path d="M0 0 C0.99 1.051875 0.99 1.051875 2 2.125 C12.43483932 12.50105149 23.44821888 17.0931286 38.125 17.125 C40.08352063 17.093338 42.04200257 17.05524131 44 17 C40.85409472 18.8466683 38.56849948 19.24774283 34.9375 19.1875 C34.08027344 19.18105469 33.22304688 19.17460937 32.33984375 19.16796875 C30 19 30 19 27 18 C27 32.19 27 46.38 27 61 C65.28 61 103.56 61 143 61 C143 64.63 143 68.26 143 72 C142.67 72 142.34 72 142 72 C142 68.7 142 65.4 142 62 C136.36621045 62.0952059 130.73276977 62.20161168 125.09936523 62.31738281 C123.19219397 62.35512008 121.28496474 62.39005663 119.37768555 62.421875 C106.48113483 62.63948092 93.8037398 63.42418359 81 65 C81 64.67 81 64.34 81 64 C73.41883413 63.92991291 65.83770264 63.87689506 58.25628471 63.84456348 C54.73437784 63.82903129 51.21269561 63.80802686 47.69091797 63.77368164 C43.62465491 63.73428311 39.55862084 63.72018825 35.4921875 63.70703125 C34.25201874 63.69154739 33.01184998 63.67606354 31.73410034 63.66011047 C24.24175724 63.65869593 17.42718387 64.50434331 10.13894653 66.25639343 C7.10398542 66.97536618 4.08096833 67.52107433 1 68 C1.00222061 67.19233688 1.00444122 66.38467377 1.00672913 65.55253601 C1.0267569 57.94522414 1.04198685 50.33792503 1.05181217 42.73059368 C1.05703324 38.81948917 1.06411685 34.90840643 1.07543945 30.99731445 C1.08629584 27.22369485 1.09228269 23.45009619 1.09487724 19.67646217 C1.09672652 18.23594648 1.10033762 16.79543194 1.10573006 15.35492516 C1.11297686 13.3390858 1.11340837 11.32322542 1.11352539 9.30737305 C1.115746 8.15931686 1.11796661 7.01126068 1.12025452 5.82841492 C1.12681725 2.92104512 1.12681725 2.92104512 0 0 Z " fill="#D99C3E" transform="translate(811,361)"/>
<path d="M0 0 C0.33 0.99 0.66 1.98 1 3 C2.89512842 3.87440168 2.89512842 3.87440168 5.26171875 4.40625 C11.56386404 6.1289934 17.66673793 8.28971406 23.8125 10.5 C24.91787109 10.89058594 26.02324219 11.28117187 27.16210938 11.68359375 C28.22880859 12.06644531 29.29550781 12.44929688 30.39453125 12.84375 C31.35206299 13.18599609 32.30959473 13.52824219 33.29614258 13.88085938 C37.02849663 15.4257001 40.13079739 17.01090737 42.8125 20.0625 C44.57021759 24.41053825 44.65950013 28.37608898 44 33 C42.18766463 36.83378636 40.69973473 38.53351018 37.1875 40.875 C30.11895332 43.36978118 24.38923133 41.42741371 17.671875 38.97265625 C16.80105286 38.66428329 15.93023071 38.35591034 15.03302002 38.03819275 C12.2682314 37.05654795 9.50915631 36.05985215 6.75 35.0625 C4.88056963 34.39547092 3.01078109 33.72944477 1.140625 33.06445312 C-2.96556301 31.60285704 -7.06816117 30.1316513 -11.16778564 28.65174866 C-12.77157913 28.08125304 -14.38511396 27.53829535 -16 27 C-15.23816406 26.34257812 -15.23816406 26.34257812 -14.4609375 25.671875 C-6.85833904 18.66723372 -2.28764558 10.06564053 0 0 Z " fill="#C7BFB4" transform="translate(887,343)"/>
<path d="M0 0 C7.86554999 7.19135999 12.28293391 15.62821084 13.3203125 26.29296875 C13.77279179 39.88243023 10.12280233 50.85271185 1 61 C-6.95514404 68.82181761 -17.57920103 73.70349299 -28.7734375 74.09765625 C-29.63195312 74.08605469 -30.49046875 74.07445312 -31.375 74.0625 C-32.24898437 74.05347656 -33.12296875 74.04445313 -34.0234375 74.03515625 C-34.67570313 74.02355469 -35.32796875 74.01195312 -36 74 C-36 73.34 -36 72.68 -36 72 C-35.21496094 71.64808594 -34.42992187 71.29617187 -33.62109375 70.93359375 C-23.01217761 65.94805402 -15.51436737 59.74198883 -11.0625 48.66796875 C-5.97628998 33.92285027 -8.24127324 21.89484436 -15 8 C-13.06629769 6.99267601 -11.12789694 5.99436712 -9.1875 5 C-8.10855469 4.443125 -7.02960937 3.88625 -5.91796875 3.3125 C-3 2 -3 2 0 2 C0 1.34 0 0.68 0 0 Z " fill="#040404" transform="translate(557,70)"/>
<path d="M0 0 C6.8186033 1.15158634 11.63616242 2.86815122 16.8125 7.6875 C18.68427139 11.33252849 19.11343626 14.9233845 19 19 C17.40594023 23.69362043 15.28109703 26.48718218 11 29 C4.42096112 30.86875423 -0.81835448 29.586646 -7 27 C-7 26.01 -7 25.02 -7 24 C-7.350625 23.29875 -7.70125 22.5975 -8.0625 21.875 C-9.41673929 17.72199952 -9.14342263 14.19746758 -8 10 C-6.11419223 6.49778557 -4.07633253 4.33485901 -0.1875 3.125 C0.8953125 3.063125 0.8953125 3.063125 2 3 C2 2.34 2 1.68 2 1 C1.34 0.67 0.68 0.34 0 0 Z " fill="#D1963D" transform="translate(778,381)"/>
<path d="M0 0 C6.99689594 1.20581427 12.98164403 2.68954506 17.9375 8.125 C19.53802004 12.45581893 19.65002973 16.44248821 19 21 C17.18766463 24.83378636 15.69973473 26.53351018 12.1875 28.875 C5.18924315 31.34497301 -0.35427048 29.53170648 -7 27 C-6.34 26.67 -5.68 26.34 -5 26 C-5.495 25.38125 -5.99 24.7625 -6.5 24.125 C-8.62750674 19.69269429 -8.93855624 15.82793331 -8 11 C-6.00982758 7.42541848 -3.78491147 4.55382891 0.203125 3.31640625 C0.79609375 3.21199219 1.3890625 3.10757812 2 3 C2 2.34 2 1.68 2 1 C1.34 0.67 0.68 0.34 0 0 Z " fill="#CF6243" transform="translate(912,355)"/>
<path d="M0 0 C3.56568061 1.54335429 6.31019147 3.24343581 8.9375 6.125 C10.53802004 10.45581893 10.65002973 14.44248821 10 19 C8.18766463 22.83378636 6.69973473 24.53351018 3.1875 26.875 C-4.61617313 29.62923758 -10.68638041 26.96247882 -18 24 C-17.01 23.34 -16.02 22.68 -15 22 C-15.66 21.01 -16.32 20.02 -17 19 C-17.76603375 14.7868144 -17.9475779 10.70817554 -15.83203125 6.89453125 C-11.32843264 1.46474269 -7.25546156 -2.17663847 0 0 Z " fill="#D89A3D" transform="translate(926,258)"/>
<path d="M0 0 C4.5007346 3.63889181 6.72702564 6.58872649 7.375 12.3125 C6.82414791 17.72921221 4.97706877 21.14275358 0.9375 24.9375 C-6.6335571 27.67596746 -13.86739762 26.22985768 -21 23 C-20.01 22.34 -19.02 21.68 -18 21 C-18.515625 20.175 -19.03125 19.35 -19.5625 18.5 C-21.27531453 14.32966898 -21.4692336 11.2128853 -20 7 C-17.77730751 3.41704776 -15.17252412 0.79224603 -11.6875 -1.5625 C-7.51088613 -2.24241389 -3.93057995 -1.51944379 0 0 Z " fill="#D16243" transform="translate(776,284)"/>
<path d="M0 0 C1.1368927 0.00068733 1.1368927 0.00068733 2.29675293 0.00138855 C3.89365207 0.00439943 5.49054857 0.01225076 7.08740234 0.0246582 C9.5232186 0.04290857 11.95865374 0.04516767 14.39453125 0.04492188 C15.9505241 0.04983817 17.50651439 0.05566698 19.0625 0.0625 C20.14863586 0.06416924 20.14863586 0.06416924 21.25671387 0.06587219 C24.96924626 0.10048934 28.42050255 0.34759697 32.03125 1.23046875 C29.14391663 4.32840761 26.20340434 6.52762838 22.59375 8.73046875 C19.71158065 10.49424415 17.2123355 12.05317561 14.79296875 14.421875 C10.70581577 17.09846882 7.06028128 16.77754713 2.28125 16.66796875 C0.99734375 16.67860352 0.99734375 16.67860352 -0.3125 16.68945312 C-5.79438971 16.63546482 -13.82473451 16.37448424 -17.96875 12.23046875 C-18.34375 9.41796875 -18.34375 9.41796875 -17.96875 6.23046875 C-12.71794368 0.82963939 -7.26629513 -0.07210712 0 0 Z " fill="#050505" transform="translate(832.96875,435.76953125)"/>
<path d="M0 0 C2 2 2 2 2 5 C-0.0762657 6.03513247 -2.16131479 7.05266211 -4.25 8.0625 C-5.41015625 8.63097656 -6.5703125 9.19945313 -7.765625 9.78515625 C-11 11 -11 11 -13.2890625 10.8515625 C-15.65760741 9.67269768 -16.79599573 7.73233367 -18.3984375 5.6875 C-21.66336757 2.24737856 -25.81824879 0.14789949 -30 -2 C-30.66515625 -2.34417969 -31.3303125 -2.68835938 -32.015625 -3.04296875 C-40.28807996 -6.51153746 -51.76373259 -6.48021693 -60.31640625 -4.0625 C-62.95805864 -2.9966403 -62.95805864 -2.9966403 -65.25 -1.77734375 C-66.11625 -1.39255859 -66.11625 -1.39255859 -67 -1 C-67.66 -1.33 -68.32 -1.66 -69 -2 C-68.67 -2.33 -68.34 -2.66 -68 -3 C-70.97 -3.495 -70.97 -3.495 -74 -4 C-74 -4.33 -74 -4.66 -74 -5 C-68.68525291 -5.72304252 -63.36912957 -6.43459728 -58.05151367 -7.13623047 C-56.24837332 -7.37570628 -54.4456232 -7.61814199 -52.64331055 -7.86376953 C-33.69978437 -10.4414779 -15.96886288 -12.78970712 0 0 Z " fill="#69A2DA" transform="translate(555,67)"/>
<path d="M0 0 C0.69965443 1.26418246 1.38434763 2.53665402 2.0625 3.8125 C2.44535156 4.52019531 2.82820312 5.22789062 3.22265625 5.95703125 C4 8 4 8 3 11 C1.36328125 12.359375 1.36328125 12.359375 -0.6875 13.75 C-7.84809507 18.9542182 -11.99340351 25.18181836 -16 33 C-17.4589426 32.52269162 -18.91713496 32.04308958 -20.375 31.5625 C-21.18710937 31.29566406 -21.99921875 31.02882813 -22.8359375 30.75390625 C-25 30 -25 30 -27 29 C-24.3755188 17.91885717 -14.5690278 7.48066523 -5.3828125 1.21484375 C-3 0 -3 0 0 0 Z " fill="#C15C3F" transform="translate(625,243)"/>
<path d="M0 0 C2.89932357 2.39509338 3.50168276 4.31245243 4 8 C4.886875 8.2475 5.77375 8.495 6.6875 8.75 C14.13068266 11.55874817 17.61517948 17.04826419 21 24 C21.36059866 25.66098088 21.69794851 27.32738116 22 29 C18.39585115 29.02953103 14.79173424 29.04697407 11.1875 29.0625 C10.18267578 29.07087891 9.17785156 29.07925781 8.14257812 29.08789062 C3.03949728 29.10429925 -2.04349678 29.01538078 -7.13671875 28.68359375 C-8.02447998 28.6261499 -8.91224121 28.56870605 -9.8269043 28.50952148 C-12 28 -12 28 -14 25 C-13.01 25.33 -12.02 25.66 -11 26 C-6.92693464 26.45256282 -4.73388661 26.44033197 -1.1875 24.3125 C2.13584308 19.28000905 2.41961835 13.9164279 3 8 C-0.3 8 -3.6 8 -7 8 C-7 7.67 -7 7.34 -7 7 C-2.545 6.505 -2.545 6.505 2 6 C1.34 4.02 0.68 2.04 0 0 Z " fill="#E8AD52" transform="translate(469,290)"/>
<path d="M0 0 C3.07367159 1.37998983 5.27563276 2.98567885 7.71484375 5.30078125 C8.74448242 6.27241211 8.74448242 6.27241211 9.79492188 7.26367188 C10.50197266 7.93978516 11.20902344 8.61589844 11.9375 9.3125 C12.64068359 9.97701172 13.34386719 10.64152344 14.06835938 11.32617188 C17.76740793 14.83108105 21.41784087 18.37578029 25 22 C22.69 23.98 20.38 25.96 18 28 C12.98176582 23.67054306 8.03152576 19.26790572 3.125 14.8125 C2.55370361 14.30170898 1.98240723 13.79091797 1.39379883 13.26464844 C-1.37852213 10.73104248 -3.65873249 8.55690562 -5 5 C-3.35 3.35 -1.7 1.7 0 0 Z " fill="#F0F0EF" transform="translate(400,230)"/>
<path d="M0 0 C1.08667969 0.01804687 2.17335938 0.03609375 3.29296875 0.0546875 C4.54013672 0.08949219 4.54013672 0.08949219 5.8125 0.125 C6.31623716 7.07937138 5.97215645 11.4203283 1.8125 17.125 C-1.88876859 19.59251239 -3.80973532 19.43221156 -8.1875 19.125 C-10.94892665 18.10763229 -11.86835371 17.76329259 -13.1875 15.125 C-13.73552111 9.42558046 -12.79711802 6.55967357 -9.1875 2.125 C-5.66070901 -0.22619399 -4.15870515 -0.08943452 0 0 Z " fill="#E8A949" transform="translate(466.1875,297.875)"/>
<path d="M0 0 C6.27 0 12.54 0 19 0 C15.20217731 1.89891134 13.94977945 2.25406874 9.9375 2.1875 C8.65166016 2.17783203 8.65166016 2.17783203 7.33984375 2.16796875 C5 2 5 2 2 1 C2 15.19 2 29.38 2 44 C40.28 44 78.56 44 118 44 C118 47.63 118 51.26 118 55 C117.67 55 117.34 55 117 55 C117 51.7 117 48.4 117 45 C111.36621045 45.0952059 105.73276977 45.20161168 100.09936523 45.31738281 C98.19219397 45.35512008 96.28496474 45.39005663 94.37768555 45.421875 C81.48113483 45.63948092 68.8037398 46.42418359 56 48 C56 47.67 56 47.34 56 47 C48.36695736 46.97669324 40.73391847 46.95899237 33.1008482 46.94818783 C29.55541909 46.94299874 26.01001457 46.93597448 22.46459961 46.92456055 C18.3761371 46.91148272 14.28769988 46.90673897 10.19921875 46.90234375 C8.94356613 46.89718246 7.68791351 46.89202118 6.39421082 46.88670349 C-0.79572229 46.88625109 -7.85403471 47.19318363 -15 48 C-9.38308992 45.09103183 -5.5194164 45 1 45 C0.67 30.15 0.34 15.3 0 0 Z " fill="#807C75" transform="translate(836,378)"/>
<path d="M0 0 C1.95357699 3.90715399 2.24651067 5.24671584 2.22705078 9.41113281 C2.22680908 10.50699707 2.22656738 11.60286133 2.22631836 12.73193359 C2.21608643 13.87742676 2.20585449 15.02291992 2.1953125 16.203125 C2.19329834 17.26063965 2.19128418 18.3181543 2.18920898 19.40771484 C2.17875098 23.3551874 2.1508284 27.30259809 2.125 31.25 C2.08375 40.0775 2.0425 48.905 2 58 C29.06 58 56.12 58 84 58 C83.92084328 40.03448589 83.92084328 40.03448589 83.81982422 22.0690918 C83.8139843 19.8208027 83.80888756 17.5725115 83.8046875 15.32421875 C83.79445557 14.15201782 83.78422363 12.97981689 83.77368164 11.77209473 C83.77331909 10.09766296 83.77331909 10.09766296 83.77294922 8.3894043 C83.768508 7.41899704 83.76406677 6.44858978 83.75949097 5.44877625 C84 3 84 3 86 0 C86 1.65 86 3.3 86 5 C86.63800537 4.98428955 87.27601074 4.9685791 87.93334961 4.95239258 C101.32512987 4.66740991 113.91654557 5.01355931 127 8 C127 8.33 127 8.66 127 9 C125.31229485 8.85656032 123.62484514 8.71011431 121.9375 8.5625 C120.99777344 8.48128906 120.05804687 8.40007812 119.08984375 8.31640625 C117.0201927 8.1044698 114.95671296 7.8208497 112.90625 7.46875 C107.45035379 6.81404246 102.05111012 6.895483 96.5625 6.9375 C90.8390625 6.9684375 90.8390625 6.9684375 85 7 C85.33 15.91 85.66 24.82 86 34 C86.66 34.33 87.32 34.66 88 35 C86.515 35.495 86.515 35.495 85 36 C85 42.93 85 49.86 85 57 C86.65 56.67 88.3 56.34 90 56 C86.73300866 59.26699134 83.73742454 59.11583194 79.29598999 59.12442017 C78.52131378 59.12082489 77.74663757 59.11722961 76.94848633 59.11352539 C76.12874832 59.11367142 75.30901031 59.11381744 74.46443176 59.1139679 C71.75360472 59.11327096 69.0428463 59.10548878 66.33203125 59.09765625 C64.45301857 59.09579129 62.5740054 59.09436776 60.69499207 59.09336853 C55.74824685 59.08954948 50.80153098 59.07972438 45.85479736 59.06866455 C39.92016455 59.05663931 33.98552194 59.05204528 28.05088043 59.04621124 C19.03389988 59.03651233 10.01698371 59.01735148 1 59 C0.67 39.53 0.34 20.06 0 0 Z " fill="#46271A" transform="translate(463,485)"/>
<path d="M0 0 C6.3280196 5.06241568 8.50210231 12.50630692 11 20 C12.32 19.67 13.64 19.34 15 19 C12.55392477 21.86469884 10.14518652 22.92891276 6.625 24.1875 C5.68914062 24.53167969 4.75328125 24.87585938 3.7890625 25.23046875 C1.04476969 25.98764758 -1.17096621 26.14916724 -4 26 C-2.68 25.67 -1.36 25.34 0 25 C-1.57665186 18.95616788 -3.19175707 13.99011142 -7 9 C-5.44499019 5.18315774 -2.96404505 2.80804268 0 0 Z " fill="#6CAEF0" transform="translate(473,248)"/>
<path d="M0 0 C2.4375 1.6875 2.4375 1.6875 4 4 C4.48376933 7.87015465 4.29551985 10.78627221 2 14 C-0.61567749 16.03441582 -2.13976562 16 -5.5 16 C-9 15 -9 15 -11.5 12.3125 C-13.24256489 8.46433586 -13.45803142 6.94526149 -12 3 C-8.19652102 -1.36281413 -5.4599441 -1.58834738 0 0 Z " fill="#669CD2" transform="translate(340,223)"/>
<path d="M0 0 C2.38586603 2.38586603 3.4148152 4.70857882 4.875 7.75 C6.99970164 12.08272491 9.17739897 16.09178319 12 20 C11.525625 20.86625 11.05125 21.7325 10.5625 22.625 C9.06765105 25.85387374 8.41781687 28.49033826 8 32 C7.443125 31.29875 6.88625 30.5975 6.3125 29.875 C4.71916739 27.8941 3.06893257 25.95809121 1.375 24.0625 C-0.9742615 21.03318912 -2.03692398 18.67719936 -3 15 C-3.66 15.66 -4.32 16.32 -5 17 C-4.34122452 12.6520818 -2.72535435 9.02582681 -1 5 C-0.30859478 2.22111387 -0.30859478 2.22111387 0 0 Z " fill="#0F1317" transform="translate(69,284)"/>
<path d="M0 0 C1.7280919 1.62643944 3.36358987 3.28407122 5 5 C5.59683594 5.56976563 6.19367188 6.13953125 6.80859375 6.7265625 C8.71607881 8.79123453 9.98023696 10.37078486 11 13 C10.47244432 16.08317378 9.49928766 18.55449292 8.18359375 21.38671875 C5.65666345 26.96598069 5.71178298 32.78277098 5.4375 38.8125 C5.37272461 40.13797852 5.37272461 40.13797852 5.30664062 41.49023438 C5.20108464 43.65999623 5.10008929 45.8299791 5 48 C4.67 48 4.34 48 4 48 C4.02618408 47.27409668 4.05236816 46.54819336 4.0793457 45.80029297 C4.1836681 42.49208459 4.24843872 39.1842228 4.3125 35.875 C4.35439453 34.73289062 4.39628906 33.59078125 4.43945312 32.4140625 C4.70661572 25.35254369 4.70661572 25.35254369 1.54296875 19.3203125 C0.70378906 18.55460937 -0.13539062 17.78890625 -1 17 C-2.35550385 14.2889923 -2.16917207 12.08660831 -2.1875 9.0625 C-2.20167969 8.00160156 -2.21585937 6.94070313 -2.23046875 5.84765625 C-2 3 -2 3 0 0 Z " fill="#0C1116" transform="translate(70,373)"/>
<path d="M0 0 C1.85772162 0.08984301 3.71247985 0.24611861 5.5625 0.4375 C7.08037109 0.59025391 7.08037109 0.59025391 8.62890625 0.74609375 C9.80259766 0.87177734 9.80259766 0.87177734 11 1 C10.52822724 7.48687548 8.83734494 12.1422556 6 18 C2.7 17.34 -0.6 16.68 -4 16 C-5.27710684 12.16867948 -4.44164418 10.64332645 -3.125 6.875 C-2.75632812 5.79992187 -2.38765625 4.72484375 -2.0078125 3.6171875 C-1 1 -1 1 0 0 Z " fill="#B98639" transform="translate(370,215)"/>
<path d="M0 0 C3.3 1.65 6.6 3.3 10 5 C8.53967505 10.31027254 6.01679014 14.46330032 3 19 C-0.48670834 17.8905928 -3.77484237 16.73662334 -7 15 C-5.44397006 9.48316659 -2.84444899 4.94035877 0 0 Z " fill="#B95B3F" transform="translate(623,123)"/>
<path d="M0 0 C3.7952131 1.49097658 5.61042731 3.75700849 8 7 C7.29875 7.61875 6.5975 8.2375 5.875 8.875 C2.06064252 12.64563991 -0.38091766 17.36485428 -3 22 C-4.98 21.34 -6.96 20.68 -9 20 C-8.0448702 12.59774403 -4.28958386 5.97477752 0 0 Z " fill="#66A2DD" transform="translate(562,268)"/>
<path d="M0 0 C2.64 0 5.28 0 8 0 C8.22334756 9.83968906 8.42484006 19.67955927 8.59840012 29.52025986 C8.6796781 34.08965529 8.7684933 38.65864538 8.87451172 43.22753906 C8.97653915 47.63637588 9.05879629 52.04517825 9.12732697 56.45465851 C9.15695828 58.13731038 9.19372553 59.81985214 9.2377243 61.50218964 C9.29812062 63.85801186 9.33317932 66.21294854 9.36230469 68.56933594 C9.38603653 69.26561096 9.40976837 69.96188599 9.43421936 70.67926025 C9.4430542 72.63372803 9.4430542 72.63372803 9 76 C7.68 77.32 6.36 78.64 5 80 C5.33 53.93 5.66 27.86 6 1 C4.02 1 2.04 1 0 1 C0 0.67 0 0.34 0 0 Z " fill="#977544" transform="translate(807,231)"/>
<path d="M0 0 C2.375 1.625 2.375 1.625 4 4 C4.61195145 7.6717087 4.48706506 9.28813568 2.375 12.375 C-0.71186432 14.48706506 -2.3282913 14.61195145 -6 14 C-8.375 12.375 -8.375 12.375 -10 10 C-10.61195145 6.3282913 -10.48706506 4.71186432 -8.375 1.625 C-5.28813568 -0.48706506 -3.6717087 -0.61195145 0 0 Z " fill="#F0EFEF" transform="translate(174,529)"/>
<path d="M0 0 C2.5 2.125 2.5 2.125 4 5 C4 8.50732933 3.6345092 10.2434698 1.375 12.9375 C-2.11319754 14.49800943 -4.36432898 13.99154664 -8 13 C-10 11.3125 -10 11.3125 -11 9 C-10.87304813 5.88967921 -10.47953174 3.79921957 -8.875 1.125 C-5.79484632 -0.72309221 -3.49557617 -0.49060718 0 0 Z " fill="#F0EFEF" transform="translate(78,238)"/>
<path d="M0 0 C3.59253891 3.45436433 6.79239749 7.19364503 10 11 C9.566875 12.051875 9.566875 12.051875 9.125 13.125 C7.97866412 16.05452503 6.97374346 19.00921653 6 22 C1.73659264 20.47735451 0.07387345 17.93320826 -2 14 C-3.17498184 9.49061022 -3.56854886 6.21125626 -1.5625 1.9375 C-1.046875 1.298125 -0.53125 0.65875 0 0 Z " fill="#070A0C" transform="translate(70,452)"/>
<path d="M0 0 C1.9375 1.6875 1.9375 1.6875 3 4 C2.92897215 7.4803645 2.61415498 9.29485909 0.3125 11.9375 C-2.89943934 13.41325591 -4.66474802 13.06444212 -8 12 C-9.9375 10.3125 -9.9375 10.3125 -11 8 C-10.92897215 4.5196355 -10.61415498 2.70514091 -8.3125 0.0625 C-5.10056066 -1.41325591 -3.33525198 -1.06444212 0 0 Z " fill="#699DCF" transform="translate(653,218)"/>
<path d="M0 0 C0.33 0 0.66 0 1 0 C1 1.65 1 3.3 1 5 C1.63800537 4.98428955 2.27601074 4.9685791 2.93334961 4.95239258 C16.32512987 4.66740991 28.91654557 5.01355931 42 8 C42 8.33 42 8.66 42 9 C40.31229485 8.85656032 38.62484514 8.71011431 36.9375 8.5625 C35.99777344 8.48128906 35.05804687 8.40007812 34.08984375 8.31640625 C32.0201927 8.1044698 29.95671296 7.8208497 27.90625 7.46875 C22.45035379 6.81404246 17.05111012 6.895483 11.5625 6.9375 C5.8390625 6.9684375 5.8390625 6.9684375 0 7 C0.33 15.91 0.66 24.82 1 34 C1.66 34.33 2.32 34.66 3 35 C1.515 35.495 1.515 35.495 0 36 C0 42.93 0 49.86 0 57 C2.475 56.505 2.475 56.505 5 56 C4.34 56.66 3.68 57.32 3 58 C1.68 58 0.36 58 -1 58 C-1.0253109 50.22209364 -1.04285035 42.44419786 -1.05493164 34.66625977 C-1.059967 32.01912031 -1.06679563 29.37198365 -1.07543945 26.72485352 C-1.08753979 22.92463493 -1.09323622 19.12445305 -1.09765625 15.32421875 C-1.10281754 14.13664474 -1.10797882 12.94907074 -1.11329651 11.72550964 C-1.11337204 10.62459488 -1.11344757 9.52368011 -1.11352539 8.3894043 C-1.115746 7.41899704 -1.11796661 6.44858978 -1.12025452 5.44877625 C-1 3 -1 3 0 0 Z " fill="#5B473E" transform="translate(548,485)"/>
<path d="M0 0 C2.4375 0.8125 2.4375 0.8125 4.4375 2.8125 C4.8008156 5.64636167 4.7943671 7.21772151 3.3125 9.6875 C0.51598948 11.36540631 -1.49940532 10.56125648 -4.5625 9.8125 C-5.89328101 3.40055513 -5.89328101 3.40055513 -4.4375 0.8125 C-2.5625 -0.1875 -2.5625 -0.1875 0 0 Z " fill="#AC563C" transform="translate(547.5625,245.1875)"/>
<path d="M0 0 C1.43791516 0.14168137 2.8753237 0.28851043 4.3125 0.4375 C5.11300781 0.51871094 5.91351562 0.59992188 6.73828125 0.68359375 C9 1 9 1 12 2 C11.1875 4.9375 11.1875 4.9375 10 8 C6.59068103 9.13643966 5.99664544 8.86747764 2.8125 7.5625 C2.09707031 7.27503906 1.38164063 6.98757813 0.64453125 6.69140625 C-0.16951172 6.34916016 -0.16951172 6.34916016 -1 6 C-0.67 4.02 -0.34 2.04 0 0 Z " fill="#0D0906" transform="translate(603,284)"/>
<path d="M0 0 C3.125 0.375 3.125 0.375 6 1 C6.625 3.3125 6.625 3.3125 7 6 C6.01 7.485 6.01 7.485 5 9 C2 9.375 2 9.375 -1 9 C-3 6 -3 6 -2.75 3.9375 C-2 2 -2 2 0 0 Z " fill="#A87B39" transform="translate(593,87)"/>
<path d="M0 0 C1.33333333 2.66666667 2.66666667 5.33333333 4 8 C3.34 8 2.68 8 2 8 C2 17.24 2 26.48 2 36 C1.67 36 1.34 36 1 36 C-0.00013174 31.85758584 -0.11516542 27.98519696 -0.09765625 23.73046875 C-0.0962413 23.04946609 -0.09482635 22.36846344 -0.09336853 21.66682434 C-0.08780298 19.50700353 -0.07525703 17.34728911 -0.0625 15.1875 C-0.05748054 13.71679838 -0.05291841 12.24609512 -0.04882812 10.77539062 C-0.03784488 7.1835596 -0.02060422 3.5917902 0 0 Z " fill="#617B93" transform="translate(66,243)"/>
<path d="M0 0 C0.33 1.32 0.66 2.64 1 4 C2.65 4.33 4.3 4.66 6 5 C6 5.33 6 5.66 6 6 C4.35 6 2.7 6 1 6 C0.896875 6.721875 0.79375 7.44375 0.6875 8.1875 C-0.05986932 11.24491993 -1.28045189 13.38329635 -3 16 C-4.32 15.67 -5.64 15.34 -7 15 C-6.5788897 10.08704646 -4.38433097 8.38433097 -1 5 C-0.12761142 2.32209104 -0.12761142 2.32209104 0 0 Z " fill="#4F7EAC" transform="translate(432,121)"/>
<path d="M0 0 C1.670625 0.2475 1.670625 0.2475 3.375 0.5 C10.69784608 1.40405507 17.8135962 1.21193528 25.08984375 0.0234375 C27 0 27 0 30 2 C25.83423084 2.50766936 21.66726208 3.00474723 17.5 3.5 C15.74042969 3.71462891 15.74042969 3.71462891 13.9453125 3.93359375 C7.91808019 4.64467172 2.06907438 5.18026954 -4 5 C-4 4.67 -4 4.34 -4 4 C-1.69 4 0.62 4 3 4 C3 3.01 3 2.02 3 1 C2.01 0.67 1.02 0.34 0 0 Z " fill="#526474" transform="translate(494,143)"/>
<path d="M0 0 C-1.77503906 0.03867187 -1.77503906 0.03867187 -3.5859375 0.078125 C-15.27678051 0.43617853 -15.27678051 0.43617853 -26.25 4.2578125 C-27.11625 4.62519531 -27.11625 4.62519531 -28 5 C-28.66 4.67 -29.32 4.34 -30 4 C-29.67 3.67 -29.34 3.34 -29 3 C-31.97 2.505 -31.97 2.505 -35 2 C-35 1.67 -35 1.34 -35 1 C-31.52226842 0.48967332 -28.04263225 -0.00633268 -24.5625 -0.5 C-23.58861328 -0.64308594 -22.61472656 -0.78617188 -21.61132812 -0.93359375 C-5.63312543 -3.17802356 -5.63312543 -3.17802356 0 0 Z " fill="#586470" transform="translate(516,61)"/>
<path d="M0 0 C2.22825644 2.22825644 2.69239369 3.65761628 3.625 6.625 C3.88539063 7.44226563 4.14578125 8.25953125 4.4140625 9.1015625 C4.60742188 9.72804688 4.80078125 10.35453125 5 11 C6.32 10.67 7.64 10.34 9 10 C6.55392477 12.86469884 4.14518652 13.92891276 0.625 15.1875 C-0.31085938 15.53167969 -1.24671875 15.87585938 -2.2109375 16.23046875 C-4.95523031 16.98764758 -7.17096621 17.14916724 -10 17 C-8.68 16.67 -7.36 16.34 -6 16 C-6.33 13.36 -6.66 10.72 -7 8 C-5 10 -5 10 -5 14 C-2.36 13.34 0.28 12.68 3 12 C2.7834375 11.38511719 2.566875 10.77023437 2.34375 10.13671875 C2.0653125 9.32847656 1.786875 8.52023437 1.5 7.6875 C1.2215625 6.88699219 0.943125 6.08648437 0.65625 5.26171875 C0 3 0 3 0 0 Z " fill="#505A62" transform="translate(479,257)"/>
<path d="M0 0 C0 3 0 3 -1 4.875 C-2.19709196 7.41882041 -2.22545611 9.21937464 -2 12 C-1.67 12.33 -1.34 12.66 -1 13 C-0.95936168 14.66617115 -0.957279 16.33388095 -1 18 C-1.99 18 -2.98 18 -4 18 C-4.33 16.35 -4.66 14.7 -5 13 C-6.175625 13.7115625 -6.175625 13.7115625 -7.375 14.4375 C-8.88948678 15.33898023 -10.4235897 16.21179485 -12 17 C-11.3125 15.125 -11.3125 15.125 -10 13 C-9.195625 12.773125 -8.39125 12.54625 -7.5625 12.3125 C-4.86320101 11.26682323 -4.86320101 11.26682323 -4.078125 8.94921875 C-3.57549263 7.34130806 -3.10672307 5.72233995 -2.67578125 4.09375 C-2 2 -2 2 0 0 Z " fill="#68635C" transform="translate(595,141)"/>
<path d="M0 0 C1.5625 1.0625 1.5625 1.0625 3 3 C2.89470715 8.58052085 1.25223599 11.69865562 -2 16 C-2 14.33333333 -2 12.66666667 -2 11 C-3.22976563 11.55880859 -3.22976563 11.55880859 -4.484375 12.12890625 C-5.56203125 12.60199219 -6.6396875 13.07507813 -7.75 13.5625 C-8.81734375 14.03816406 -9.8846875 14.51382812 -10.984375 15.00390625 C-13.98369837 15.9946154 -15.13421241 16.16161779 -18 15 C-17.11957031 14.67386719 -16.23914063 14.34773438 -15.33203125 14.01171875 C-13.58986328 13.35623047 -13.58986328 13.35623047 -11.8125 12.6875 C-10.66394531 12.25824219 -9.51539063 11.82898438 -8.33203125 11.38671875 C-5.29786399 10.1239645 -2.63412878 8.96576775 0 7 C0.41725678 3.37400578 0.41725678 3.37400578 0 0 Z " fill="#73442A" transform="translate(631,294)"/>
<path d="M0 0 C2.21460369 1.82945522 2.94372483 2.67038832 3.4375 5.5625 C3.73987379 8.17317795 3.73987379 8.17317795 6.0625 9.3125 C6.701875 9.539375 7.34125 9.76625 8 10 C7.01 10 6.02 10 5 10 C4.95101563 10.71027344 4.90203125 11.42054688 4.8515625 12.15234375 C4.77679688 13.07144531 4.70203125 13.99054688 4.625 14.9375 C4.55539062 15.85402344 4.48578125 16.77054687 4.4140625 17.71484375 C4.27742188 18.46894531 4.14078125 19.22304688 4 20 C3.34 20.33 2.68 20.66 2 21 C2.33 16.71 2.66 12.42 3 8 C-0.3 8 -3.6 8 -7 8 C-7 7.67 -7 7.34 -7 7 C-2.545 6.505 -2.545 6.505 2 6 C1.34 4.02 0.68 2.04 0 0 Z " fill="#F5D8AB" transform="translate(469,290)"/>
<path d="M0 0 C-1.52524036 3.60286506 -3.67485437 5.94299983 -6.4375 8.6875 C-7.21996094 9.47511719 -8.00242187 10.26273437 -8.80859375 11.07421875 C-11 13 -11 13 -14 14 C-12.41438362 10.14406926 -9.93490046 7.66783709 -7 4.75 C-6.113125 3.85796875 -5.22625 2.9659375 -4.3125 2.046875 C-2 0 -2 0 0 0 Z " fill="#924A34" transform="translate(619,246)"/>
<path d="M0 0 C1.65 1.65 3.3 3.3 5 5 C4.67 5.66 4.34 6.32 4 7 C3.34 6.01 2.68 5.02 2 4 C-1.16115776 5.36983503 -1.9927092 5.9890638 -4 9 C-3.69159401 11.15274948 -3.69159401 11.15274948 -3 13 C-4.32 11.68 -5.64 10.36 -7 9 C-5.44499019 5.18315774 -2.96404505 2.80804268 0 0 Z " fill="#476683" transform="translate(473,248)"/>
<path d="M0 0 C-1.39750048 3.15835107 -3.05198234 5.32272825 -5.5 7.75 C-6.41265625 8.67039062 -6.41265625 8.67039062 -7.34375 9.609375 C-9 11 -9 11 -11 11 C-9.60249952 7.84164893 -7.94801766 5.67727175 -5.5 3.25 C-4.8915625 2.63640625 -4.283125 2.0228125 -3.65625 1.390625 C-2 0 -2 0 0 0 Z " fill="#A07739" transform="translate(269,464)"/>
<path d="M0 0 C1.9375 0.3125 1.9375 0.3125 4 1 C4.33 1.99 4.66 2.98 5 4 C4.67 4.66 4.34 5.32 4 6 C2.35 5.67 0.7 5.34 -1 5 C-0.67 3.35 -0.34 1.7 0 0 Z " fill="#949391" transform="translate(463,236)"/>
<path d="M0 0 C1.051875 0.6496875 1.051875 0.6496875 2.125 1.3125 C6.23942462 3.72748837 10.30517827 3.7356314 15 4 C15 4.33 15 4.66 15 5 C7.87399867 5.35368021 2.52940894 4.95671348 -4 2 C-2.3125 0.8125 -2.3125 0.8125 0 0 Z " fill="#624B40" transform="translate(759,305)"/>
<path d="M0 0 C1.2065625 0.0309375 1.2065625 0.0309375 2.4375 0.0625 C2.1075 1.7125 1.7775 3.3625 1.4375 5.0625 C0.1175 5.0625 -1.2025 5.0625 -2.5625 5.0625 C-3.125 3.125 -3.125 3.125 -3.5625 1.0625 C-2.5625 0.0625 -2.5625 0.0625 0 0 Z " fill="#171008" transform="translate(590.5625,282.9375)"/>
<path d="M0 0 C5.94 0 11.88 0 18 0 C17.34 1.32 16.68 2.64 16 4 C16 3.34 16 2.68 16 2 C10.72 1.67 5.44 1.34 0 1 C0 0.67 0 0.34 0 0 Z " fill="#6E5B3F" transform="translate(539,277)"/>
<path d="M0 0 C0.66 1.32 1.32 2.64 2 4 C0.93283928 5.20205464 -0.15438337 6.38632333 -1.25 7.5625 C-2.15492188 8.55443359 -2.15492188 8.55443359 -3.078125 9.56640625 C-5 11 -5 11 -7.234375 10.71484375 C-7.81703125 10.47894531 -8.3996875 10.24304688 -9 10 C-8.4225 9.773125 -7.845 9.54625 -7.25 9.3125 C-4.4336339 7.66961977 -2.91922886 5.60466773 -1 3 C-1.33 2.34 -1.66 1.68 -2 1 C-1.34 0.67 -0.68 0.34 0 0 Z " fill="#5F5C57" transform="translate(425,248)"/>
<path d="M0 0 C0.33 1.32 0.66 2.64 1 4 C2.65 4.33 4.3 4.66 6 5 C6 5.33 6 5.66 6 6 C4.35 6 2.7 6 1 6 C0.896875 6.763125 0.79375 7.52625 0.6875 8.3125 C-0.05790616 11.22636046 -0.84458939 12.02950397 -3 14 C-2.80083984 13.11248047 -2.80083984 13.11248047 -2.59765625 12.20703125 C-1.68994822 8.14553475 -0.7908887 4.08625829 0 0 Z " fill="#304962" transform="translate(432,121)"/>
<path d="M0 0 C1.98 0.495 1.98 0.495 4 1 C4 2.32 4 3.64 4 5 C3.01 5.33 2.02 5.66 1 6 C0.34 5.67 -0.32 5.34 -1 5 C-0.67 3.35 -0.34 1.7 0 0 Z " fill="#EDEDEC" transform="translate(588,271)"/>
<path d="M0 0 C-1.485 1.98 -1.485 1.98 -3 4 C-5.92879371 3.37240135 -8.36095629 2.41377341 -11 1 C-7.27569643 0.30710631 -3.78916254 -0.11144596 0 0 Z " fill="#271E13" transform="translate(426,281)"/>
<path d="M0 0 C-1.44077046 3.36179774 -3.24750021 5.59156268 -6 8 C-6.66 8 -7.32 8 -8 8 C-6.48291727 4.46014029 -4.24676932 0 0 0 Z " fill="#A37837" transform="translate(208,535)"/>
<path d="M0 0 C0.33 0 0.66 0 1 0 C2.7578125 5.95703125 2.7578125 5.95703125 3 8 C2.01 9.485 2.01 9.485 1 11 C-0.98362069 8.08291076 -0.9876191 6.87619096 -0.625 3.25 C-0.41875 2.1775 -0.2125 1.105 0 0 Z " fill="#6B482F" transform="translate(379,295)"/>
<path d="M0 0 C0.66 0.33 1.32 0.66 2 1 C-1 4 -4 7 -7 10 C-6.84518205 7.29068581 -6.51827919 5.53415961 -4.59765625 3.5546875 C-3.10228292 2.32320358 -1.5537076 1.1570163 0 0 Z " fill="#5880A7" transform="translate(90,265)"/>
<path d="M0 0 C2 0 2 0 4 1.875 C4.66 2.57625 5.32 3.2775 6 4 C6.66 4.66 7.32 5.32 8 6 C6.53984709 5.71758359 5.08190207 5.42373386 3.625 5.125 C2.81289063 4.96257812 2.00078125 4.80015625 1.1640625 4.6328125 C-1 4 -1 4 -3 2 C-2.01 1.67 -1.02 1.34 0 1 C0 0.67 0 0.34 0 0 Z " fill="#675844" transform="translate(911,279)"/>
<path d="M0 0 C1.32 0.66 2.64 1.32 4 2 C0.7 2 -2.6 2 -6 2 C-6 1.34 -6 0.68 -6 0 C-3 -1 -3 -1 0 0 Z " fill="#1A1B1C" transform="translate(527,142)"/>
<path d="M0 0 C2 0 2 0 4 1.875 C4.66 2.57625 5.32 3.2775 6 4 C6.66 4.66 7.32 5.32 8 6 C3.545 5.01 3.545 5.01 -1 4 C-0.34 3.67 0.32 3.34 1 3 C0.67 2.01 0.34 1.02 0 0 Z " fill="#64493C" transform="translate(906,378)"/>
<path d="M0 0 C3.64734979 0.22330713 5.38372835 0.38372835 8 3 C4.37 3 0.74 3 -3 3 C-2.01 2.01 -1.02 1.02 0 0 Z " fill="#685840" transform="translate(920,257)"/>
</svg>
