<?xml version="1.0" encoding="UTF-8"?>
<svg version="1.1" xmlns="http://www.w3.org/2000/svg" width="1008" height="606">
<path d="M0 0 C332.64 0 665.28 0 1008 0 C1008 199.98 1008 399.96 1008 606 C675.36 606 342.72 606 0 606 C0 406.02 0 206.04 0 0 Z " fill="#D6CDC1" transform="translate(0,0)"/>
<path d="M0 0 C2.20137061 0.00523297 4.40272704 0.00715213 6.60410309 0.00866318 C37.07860039 0.04501504 67.44785343 1.11738817 97.5430069 6.31765366 C98.2030069 4.99765366 98.8630069 3.67765366 99.5430069 2.31765366 C102.5430069 3.31765366 102.5430069 3.31765366 103.7851944 5.75515366 C106.25314073 9.35287098 108.46311875 9.43420241 112.6680069 10.31765366 C119.95860179 12.00003119 127.65800409 14.2452194 132.5430069 20.31765366 C132.68992643 28.98590598 128.29810978 33.48248352 122.5351944 39.46609116 C117.95028484 44.14764607 113.33016387 48.74502284 108.2930069 52.94265366 C103.35909729 57.15529258 99.40875795 62.13040814 95.5430069 67.31765366 C95.06218658 67.94027084 94.58136627 68.56288803 94.08597565 69.20437241 C89.50145554 76.41324677 90.53303206 87.20758231 92.13285065 95.30202866 C94.02055669 101.04343876 97.09874624 106.11001202 100.1055069 111.31765366 C106.90200487 123.11609953 110.05653582 135.66710736 106.85160065 149.24734116 C103.32646672 158.71652937 97.00593854 166.35292518 89.8555069 173.31765366 C89.14998688 174.01479477 88.44446686 174.71193588 87.71756744 175.43020248 C83.10996041 179.93284068 78.31680227 184.05616411 73.26566315 188.05593491 C61.62671301 197.72444585 50.43005791 208.89255254 47.5430069 224.31765366 C47.5430069 225.63765366 47.5430069 226.95765366 47.5430069 228.31765366 C48.50001495 228.29408798 48.50001495 228.29408798 49.47635651 228.27004623 C62.86813677 227.98506357 75.45955246 228.33121297 88.5430069 231.31765366 C88.5430069 231.64765366 88.5430069 231.97765366 88.5430069 232.31765366 C86.85530175 232.17421398 85.16785204 232.02776797 83.4805069 231.88015366 C82.07091705 231.75833725 82.07091705 231.75833725 80.63285065 231.63405991 C78.5631996 231.42212345 76.49971985 231.13850336 74.4492569 230.78640366 C68.99336069 230.13169611 63.59411702 230.21313666 58.1055069 230.25515366 C52.3820694 230.28609116 52.3820694 230.28609116 46.5430069 230.31765366 C46.8730069 239.22765366 47.2030069 248.13765366 47.5430069 257.31765366 C48.2030069 257.64765366 48.8630069 257.97765366 49.5430069 258.31765366 C48.5530069 258.64765366 47.5630069 258.97765366 46.5430069 259.31765366 C46.5430069 266.24765366 46.5430069 273.17765366 46.5430069 280.31765366 C48.1930069 279.98765366 49.8430069 279.65765366 51.5430069 279.31765366 C48.27601556 282.584645 45.28043144 282.4334856 40.83899689 282.44207382 C40.06432068 282.43847855 39.28964447 282.43488327 38.49149323 282.43117905 C37.67175522 282.43132507 36.85201721 282.4314711 36.00743866 282.43162155 C33.29661162 282.43092462 30.5858532 282.42314243 27.87503815 282.41530991 C25.99602547 282.41344495 24.1170123 282.41202141 22.23799896 282.41102219 C17.29125375 282.40720313 12.34453788 282.39737804 7.39780426 282.38631821 C2.35050605 282.37609096 -2.6967969 282.37152175 -7.74410248 282.36648178 C-17.64841225 282.35575525 -27.55270024 282.33868613 -37.4569931 282.31765366 C-37.46285934 281.64272873 -37.46872559 280.9678038 -37.47476959 280.27242661 C-37.53908934 273.19836938 -37.62360537 266.12475097 -37.71944427 259.05105209 C-37.75253948 256.41699665 -37.78061848 253.78287293 -37.80342865 251.14870834 C-37.83725863 247.34535453 -37.88958914 243.54261796 -37.94527435 239.73952866 C-37.95166428 238.57653244 -37.9580542 237.41353622 -37.96463776 236.2152977 C-38.2825527 218.22281636 -44.44137521 206.77626136 -57.05538177 194.37551498 C-61.42954037 190.17713223 -65.99650025 186.29241414 -70.7382431 182.51296616 C-82.32065817 173.16049881 -96.96820373 161.05588995 -98.67134857 145.33962631 C-99.7302391 130.54484744 -96.48803677 119.20513208 -88.68599701 106.69192123 C-82.71037797 97.03062843 -81.06240366 87.71276054 -82.4569931 76.31765366 C-86.08748602 63.8790028 -96.74667012 54.25962989 -106.38277435 46.11843491 C-121.71523818 32.80719983 -121.71523818 32.80719983 -124.0819931 22.63015366 C-123.06693084 18.87442327 -120.62437496 17.26307054 -117.4569931 15.31765366 C-85.61058792 -2.84785375 -35.49309583 -0.09004871 0 0 Z " fill="#DD6544" transform="translate(501.45699310302734,261.68234634399414)"/>
<path d="M0 0 C0.74858434 -0.00320251 1.49716867 -0.00640503 2.26843739 -0.00970459 C12.95196893 0.19008986 22.863226 4.68820981 30.3449707 12.36328125 C30.3449707 13.02328125 30.3449707 13.68328125 30.3449707 14.36328125 C31.0049707 14.36328125 31.6649707 14.36328125 32.3449707 14.36328125 C40.18998357 27.35316303 44.97764663 37.90294574 41.6574707 53.6171875 C38.01438819 65.5027442 30.99953762 75.21761228 20.2824707 81.61328125 C6.37447646 88.55322619 -11.15429482 89.27778413 -26.3425293 91.64453125 C-28.97954652 92.05838431 -31.61651306 92.4725486 -34.25341797 92.88711548 C-39.83188445 93.7635358 -45.41077719 94.63719539 -50.98999023 95.5088501 C-58.97590857 96.75652447 -66.96112174 98.00866437 -74.94615746 99.26197362 C-87.08957927 101.16789995 -99.23343821 103.07102091 -111.37768555 104.97167969 C-123.72067449 106.90346251 -136.06319711 108.83818439 -148.4050293 110.77734375 C-149.55563182 110.95812344 -149.55563182 110.95812344 -150.72947884 111.14255524 C-154.34547816 111.71072698 -157.96145872 112.279018 -161.5774231 112.84741211 C-164.97382415 113.38127211 -168.37028279 113.91476471 -171.76675892 114.44814682 C-206.60463385 119.91930955 -241.4324031 125.4541638 -276.2565918 131.01171875 C-277.6701149 131.23728591 -279.08363826 131.46285149 -280.49716187 131.68841553 C-281.55146235 131.85665895 -281.55146235 131.85665895 -282.62706184 132.02830124 C-284.053223 132.25588539 -285.47938445 132.48346768 -286.90554619 132.71104813 C-290.47104057 133.28002041 -294.03652491 133.84905546 -297.60198975 134.41821289 C-314.82566397 137.16738099 -332.05136437 139.90336605 -349.2800293 142.62109375 C-350.14182108 142.75705334 -351.00361286 142.89301292 -351.89151955 143.0330925 C-360.32033181 144.3627629 -368.74929168 145.69148876 -377.17865658 147.01765156 C-380.27576946 147.50502393 -383.37279919 147.99292293 -386.46980095 148.4810009 C-387.94488356 148.71338553 -389.41999732 148.94557247 -390.89514351 149.17755318 C-400.31853541 150.65992473 -409.73114605 152.18901625 -419.12353516 153.85766602 C-432.86277705 155.82475692 -444.83638101 154.59317974 -456.4675293 146.67578125 C-465.19972184 139.88127985 -471.24632667 131.24109202 -473.6550293 120.36328125 C-474.95845525 106.79445211 -473.5103923 95.83027242 -465.4050293 84.55078125 C-456.91021119 74.40112844 -446.64594818 69.46275459 -433.76782227 67.38378906 C-432.82165983 67.22154469 -431.8754974 67.05930031 -430.90066338 66.89213943 C-427.82090853 66.36876109 -424.73847677 65.86441332 -421.6550293 65.36328125 C-420.62129433 65.192556 -419.58755936 65.02183075 -418.52249908 64.84593201 C-410.63678694 63.54382483 -402.74448444 62.28498801 -394.8503418 61.03515625 C-392.34503553 60.63734896 -389.83973577 60.23950065 -387.33444214 59.84161377 C-382.13284101 59.01624542 -376.93090319 58.19303676 -371.72875977 57.37109375 C-365.73708045 56.42433158 -359.74647439 55.47097386 -353.75629818 54.51475215 C-347.9404316 53.5867168 -342.12349682 52.66550764 -336.30614853 51.74680328 C-333.85069788 51.35809363 -331.39556569 50.96736645 -328.9407692 50.57454681 C-325.52105903 50.02790144 -322.10020256 49.48907611 -318.67895508 48.95214844 C-317.67629608 48.79011932 -316.67363708 48.62809021 -315.64059448 48.46115112 C-310.23736058 47.62238636 -305.12308372 47.19928246 -299.6550293 47.36328125 C-301.36557331 48.50364393 -303.09927763 49.61414176 -304.8894043 50.625 C-315.10977786 56.41760303 -322.47317293 63.70442661 -326.4675293 74.92578125 C-329.80525772 87.3039855 -328.07157534 99.47368407 -321.9675293 110.55078125 C-315.96668277 119.95751365 -306.94558027 125.93532386 -296.1550293 128.67578125 C-283.61824268 130.96319495 -272.28314396 128.32365438 -261.6550293 121.36328125 C-252.29046235 114.7529987 -247.89811472 105.4012892 -245.6550293 94.36328125 C-244.37448453 81.94631342 -247.17016495 71.37039748 -254.6550293 61.36328125 C-261.35263438 53.90844207 -270.5194779 48.19241343 -280.66967773 47.15795898 C-281.3609375 47.12130127 -282.05219727 47.08464355 -282.7644043 47.046875 C-283.89555664 46.9840332 -283.89555664 46.9840332 -285.04956055 46.91992188 C-285.82686523 46.88060547 -286.60416992 46.84128906 -287.4050293 46.80078125 C-288.59418945 46.73600586 -288.59418945 46.73600586 -289.80737305 46.66992188 C-291.75640744 46.56425134 -293.70569678 46.46330159 -295.6550293 46.36328125 C-295.6550293 46.03328125 -295.6550293 45.70328125 -295.6550293 45.36328125 C-294.02985128 45.10667419 -292.40467326 44.85006714 -290.77949524 44.59346008 C-289.14981701 44.33614105 -289.14981701 44.33614105 -287.487216 44.07362366 C-284.9779252 43.6774218 -282.46863318 43.28122769 -279.9593401 42.88504028 C-273.39439348 41.84850653 -266.82945917 40.81189504 -260.26456761 39.77501267 C-256.29145712 39.14748957 -252.31833802 38.52002093 -248.34521484 37.89257812 C-247.11698486 37.69861291 -247.11698486 37.69861291 -245.86394215 37.5007292 C-233.88664674 35.60934684 -221.90892258 33.7206987 -209.93094838 31.83362031 C-202.03939698 30.5902303 -194.14797573 29.34601489 -186.2565918 28.1015625 C-185.37422875 27.96243014 -184.49186571 27.82329778 -183.58276439 27.67994928 C-159.60897909 23.89939086 -135.64060966 20.08690189 -111.67902762 16.22975296 C-106.24313888 15.35492186 -100.80683527 14.48271027 -95.370224 13.61238098 C-94.61762777 13.49189433 -93.86503153 13.37140769 -93.08962935 13.24726993 C-90.09317157 12.76762655 -87.09669691 12.28808927 -84.10016525 11.80890763 C-75.44922935 10.42550801 -66.79978465 9.0335664 -58.15268731 7.62636477 C-52.10739217 6.64344539 -46.05972017 5.67593347 -40.0110817 4.71381569 C-37.56241368 4.32174085 -35.11454739 3.92461622 -32.66762924 3.52176476 C-21.78943846 1.73287762 -11.0463359 0.04651667 0 0 Z " fill="#6EB1F3" transform="translate(526.655029296875,49.63671875)"/>
<path d="M0 0 C3.875 1.75 3.875 1.75 5 4 C5.15441209 6.10374996 5.24992639 8.21195119 5.31640625 10.3203125 C5.35830078 11.57714844 5.40019531 12.83398438 5.44335938 14.12890625 C5.48267578 15.44761719 5.52199219 16.76632812 5.5625 18.125 C5.60569512 19.46485751 5.64930973 20.80470156 5.69335938 22.14453125 C5.79970981 25.42957815 5.90173808 28.71470281 6 32 C6.43062744 31.61328125 6.86125488 31.2265625 7.30493164 30.828125 C28.40487383 12.25396916 55.69117967 7.32773464 83 9 C96.41986048 10.30822539 109.23958577 14.86407705 120 23 C121.5778125 24.11375 121.5778125 24.11375 123.1875 25.25 C129.84994763 31.76439324 133.85309764 39.98349536 134.375 49.3125 C134.14415789 58.97489133 128.80617439 67.50041004 122 74 C103.74631823 89.60347349 79.72600818 89.91309854 57 89 C38.80564226 87.54353906 18.82627106 81.27623775 5.5859375 68.3828125 C3.9354441 66.76452828 3.9354441 66.76452828 1 66 C-1.99796872 81.89994122 -5.55871265 101.07807055 3 116 C3.55945313 115.5153125 4.11890625 115.030625 4.6953125 114.53125 C22.3649945 99.75916858 42.97003736 91.94724782 66 91 C66.81726563 90.95875 67.63453125 90.9175 68.4765625 90.875 C88.46472424 90.34019969 110.45951036 95.16733464 125.3515625 109.1796875 C132.1926757 116.73409212 134.48149837 124.57863795 134.3203125 134.67578125 C133.55755046 142.59176289 129.85330157 150.68169109 123.77734375 155.9140625 C103.70565964 170.98899825 79.32322074 174.23626216 54.875 171.3125 C38.50504421 168.57788757 21.6241668 162.45778864 8.89453125 151.54296875 C6.72180135 149.77342584 4.42616763 148.39536066 2 147 C-3.62458317 160.98612868 -4.17775789 176.72553902 1 191 C1.64020207 192.34624052 2.29817174 193.68483487 3 195 C3.88300781 194.40832031 4.76601562 193.81664062 5.67578125 193.20703125 C20.80039321 183.19179899 39.40818382 174 58 174 C57.34 179.61 56.68 185.22 56 191 C54.76765625 191.30292969 53.5353125 191.60585938 52.265625 191.91796875 C37.60195325 195.59464806 25.37767001 200.15567196 13 209 C24.52185406 223.55392092 40.62948877 231.82793555 59 234 C73.29948249 235.23010986 86.54537098 233.98719644 100.375 230.4375 C101.35122314 230.19545334 101.35122314 230.19545334 102.34716797 229.94851685 C114.30941445 226.92826144 123.99593464 222.28981446 131.7578125 212.50390625 C132.37269531 211.75947266 132.37269531 211.75947266 133 211 C133.33 211 133.66 211 134 211 C133.49795116 221.37567594 129.8684818 229.0797055 122.23046875 236.1875 C105.14312482 250.07283728 81.25934689 253.9097001 59.79882812 251.78173828 C36.34715146 248.76273285 18.55336791 239.55336791 2 223 C-1.96546234 229.87628044 -1.8458618 236.24223889 -1 244 C0.13721987 247.77556998 1.75822989 250.76955179 4 254 C4.69222656 255.02480469 4.69222656 255.02480469 5.3984375 256.0703125 C18.67359147 273.25388743 43.24714433 278.27605411 63.4375 281.125 C71.32346676 282.13574216 79.25080536 282.36296268 87.19506836 282.48291016 C96.10722498 282.71975272 96.10722498 282.71975272 100 286 C101.12256131 288.24512262 101.13413762 289.51456649 101.125 292 C101.12886719 293.051875 101.12886719 293.051875 101.1328125 294.125 C101 296 101 296 100 298 C99.34 297.67 98.68 297.34 98 297 C98.33 296.34 98.66 295.68 99 295 C99.37615126 290.86935374 99.37615126 290.86935374 97.875 287.125 C95.17393914 285.50436349 93.09341008 285.74221583 90 286 C89.01 286.33 88.02 286.66 87 287 C86.54440428 292.19212465 86.54440428 292.19212465 88.125 296.9375 C90.68102669 298.38591512 93.10340247 298.67815583 96 299 C96 299.33 96 299.66 96 300 C60.51553287 300.45885087 22.4249584 296.10533032 -4.6875 270.8125 C-13.96895327 261.15321766 -19.00416946 249.93637267 -19.4375 236.625 C-19.25410224 227.97910571 -17.23741498 220.43431347 -12.6875 213.0625 C-10.68006158 209.41937101 -10.90131892 208.87257886 -12 205 C-12.69299759 203.15537377 -13.38869921 201.31147037 -14.12060547 199.48193359 C-21.71746401 180.46935337 -22.44207458 160.5963782 -14.4375 141.4375 C-14.02371094 140.52871094 -13.60992187 139.61992187 -13.18359375 138.68359375 C-10.48015816 133.37695919 -10.48015816 133.37695919 -10.7578125 127.75390625 C-11.20898438 127.03074219 -11.66015625 126.30757813 -12.125 125.5625 C-18.21537487 114.19936224 -19.36646969 103.58190448 -19.4375 90.875 C-19.4475708 89.70791504 -19.4576416 88.54083008 -19.46801758 87.33837891 C-19.3648246 76.93272077 -17.67991275 66.99955256 -13.4375 57.4375 C-13.02371094 56.48746094 -12.60992187 55.53742188 -12.18359375 54.55859375 C-11 52 -11 52 -9.84082031 50.2331543 C-8.63143992 47.02113267 -9.47858158 44.99737223 -10.36328125 41.7109375 C-12.18842654 33.9452614 -12.34592595 26.60316842 -12.1875 18.625 C-12.17239296 17.29168216 -12.15871542 15.95834733 -12.14648438 14.625 C-12.11160627 11.41621435 -12.06260026 8.2083437 -12 5 C-11.70480469 5.61230469 -11.40960938 6.22460938 -11.10546875 6.85546875 C-9.69519647 9.59129731 -8.50177172 11.1743828 -6 13 C-2.37350049 13.08916154 -2.37350049 13.08916154 1 12 C3.32821558 9.18138229 3.32821558 9.18138229 2.75 6 C2.14014017 2.84584582 2.14014017 2.84584582 0 0 Z " fill="#6CAAE7" transform="translate(78,244)"/>
<path d="M0 0 C0.04413145 2.86345229 0.07623419 5.7262135 0.1015625 8.58984375 C0.11517822 9.3933728 0.12879395 10.19690186 0.14282227 11.02478027 C0.22795499 23.88309663 -5.06275578 33.71422761 -13.5 43.125 C-26.25335952 55.25154034 -45.50107056 58.43679147 -62.125 61.5 C-88.72249015 66.43025718 -106.31534808 78.3480982 -125.83984375 96.6640625 C-151.82501482 120.98611368 -179.54993617 135.38702698 -215.84765625 134.4375 C-234.78483172 133.53775298 -252.3212799 126.31685682 -270 120 C-309.99392554 105.74473941 -349.50505205 102.56945433 -390.35498047 115.98120117 C-395.26845165 117.58369246 -399.84873754 118.51358955 -405 119 C-405.20453151 115.62590441 -405.32801449 112.25341008 -405.4375 108.875 C-405.49615234 107.92367187 -405.55480469 106.97234375 -405.61523438 105.9921875 C-405.78275802 99.09978593 -405.78275802 99.09978593 -403.68530273 96.15283203 C-401.87814221 94.55164124 -400.05074799 93.27260539 -398 92 C-397.37971924 91.58379395 -396.75943848 91.16758789 -396.12036133 90.73876953 C-394.1743279 89.47124588 -392.19680942 88.2894214 -390.1875 87.125 C-389.46046875 86.70081787 -388.7334375 86.27663574 -387.984375 85.83959961 C-355.64965865 67.38186569 -322.0259672 62.25556327 -285.77294922 71.60668945 C-277.45021793 73.93335818 -269.52064526 77.29051073 -261.62744141 80.78515625 C-255.49288772 83.40539852 -251.54980526 84.58450379 -245 83 C-245.33 83.66 -245.66 84.32 -246 85 C-246.66 85 -247.32 85 -248 85 C-248 85.66 -248 86.32 -248 87 C-247.319375 87.17015625 -246.63875 87.3403125 -245.9375 87.515625 C-244.968125 87.75796875 -243.99875 88.0003125 -243 88.25 C-241.90558594 88.51941406 -240.81117188 88.78882813 -239.68359375 89.06640625 C-237.14128827 89.71074454 -234.6209598 90.37987193 -232.09765625 91.08984375 C-212.01212297 96.63979374 -194.87335576 93.14257515 -176.92724609 83.10742188 C-167.26087282 77.55299203 -158.4701989 71.27180538 -150 64 C-148.86544905 63.04974668 -147.72998635 62.10058117 -146.59375 61.15234375 C-139.94502487 55.56977782 -133.7221078 49.79199727 -127.64453125 43.58984375 C-124.18754853 40.2043496 -120.51295831 37.17965984 -116.7265625 34.171875 C-114.94683126 32.75420943 -113.19001353 31.30715003 -111.4609375 29.828125 C-77.36749992 0.7817522 -42.88887454 -0.58497101 0 0 Z " fill="#6EB0F1" transform="translate(953,423)"/>
<path d="M0 0 C6.41748037 4.29731812 10.7403086 9.55447303 13 17 C15.66391856 35.55313192 5.05096683 52.1907243 -4.75 67.0234375 C-6.08908261 68.75108632 -6.08908261 68.75108632 -6 70 C-6.6360466 70.10085403 -7.2720932 70.20170807 -7.92741394 70.30561829 C-16.34751106 71.64081422 -24.76752444 72.97653772 -33.1875 74.3125 C-33.88789524 74.42362373 -34.58829048 74.53474747 -35.30990982 74.64923859 C-52.16594608 77.32365951 -69.02146577 80.00125853 -85.875 82.69140625 C-86.56532318 82.80158648 -87.25564636 82.9117667 -87.96688843 83.02528572 C-91.46686365 83.58390901 -94.96683148 84.14257857 -98.46679688 84.70126343 C-99.16248779 84.81231289 -99.85817871 84.92336235 -100.57495117 85.03777695 C-101.98478351 85.2628264 -103.39461423 85.48788593 -104.80444336 85.71295547 C-122.74223245 88.57648286 -140.6819543 91.42739513 -158.625 94.2578125 C-159.48679178 94.39377209 -160.34858356 94.52973167 -161.23649025 94.66981125 C-169.66530251 95.99948165 -178.09426239 97.32820751 -186.52362728 98.65437031 C-189.62074016 99.14174268 -192.7177699 99.62964168 -195.81477165 100.11771965 C-197.28985426 100.35010428 -198.76496803 100.58229122 -200.24011421 100.81427193 C-209.66350612 102.29664348 -219.07611676 103.825735 -228.46850586 105.49438477 C-242.20774776 107.46147567 -254.18135171 106.22989849 -265.8125 98.3125 C-274.54469254 91.5179986 -280.59129737 82.87781077 -283 72 C-284.30342595 58.43117086 -282.855363 47.46699117 -274.75 36.1875 C-266.25518189 26.03784719 -255.99091889 21.09947334 -243.11279297 19.02050781 C-242.16663054 18.85826344 -241.2204681 18.69601906 -240.24563408 18.52885818 C-237.16587924 18.00547984 -234.08344748 17.50113207 -231 17 C-229.96626503 16.82927475 -228.93253006 16.6585495 -227.86746979 16.48265076 C-219.98175764 15.18054358 -212.08945515 13.92170676 -204.1953125 12.671875 C-201.69000623 12.27406771 -199.18470647 11.8762194 -196.67941284 11.47833252 C-191.47781171 10.65296417 -186.27587389 9.82975551 -181.07373047 9.0078125 C-175.08205116 8.06105033 -169.0914451 7.10769261 -163.10126889 6.1514709 C-157.2854023 5.22343555 -151.46846753 4.30222639 -145.65111923 3.38352203 C-143.19566858 2.99481238 -140.74053639 2.6040852 -138.2857399 2.21126556 C-134.86602973 1.66462019 -131.44517327 1.12579486 -128.02392578 0.58886719 C-127.02126678 0.42683807 -126.01860779 0.26480896 -124.98556519 0.09786987 C-119.58233128 -0.74089489 -114.46805443 -1.16399879 -109 -1 C-110.71054402 0.14036268 -112.44424833 1.25086051 -114.234375 2.26171875 C-124.45474856 8.05432178 -131.81814363 15.34114536 -135.8125 26.5625 C-139.15022842 38.94070425 -137.41654604 51.11040282 -131.3125 62.1875 C-125.31165347 71.5942324 -116.29055098 77.57204261 -105.5 80.3125 C-92.96321339 82.5999137 -81.62811466 79.96037313 -71 73 C-61.63543305 66.38971745 -57.24308543 57.03800795 -55 46 C-53.85987609 34.94464116 -56.46227115 25.93978701 -61 16 C-44.71822852 2.11168042 -21.50033554 -13.44269587 0 0 Z " fill="#6EB1F3" transform="translate(336,98)"/>
<path d="M0 0 C16.5 0 33 0 50 0 C50 47.19 50 94.38 50 143 C-6.76 143 -63.52 143 -122 143 C-115.38387356 135.28118582 -109.28402898 130.61833864 -100.34936523 126.06884766 C-85.64224521 118.57252655 -77.94134986 108.02790215 -72.5 92.5 C-66.02143013 74.03886292 -55.72468264 64.02838698 -38.81201172 54.97851562 C-24.95852163 47.49740699 -16.84610492 36.75604353 -11.546875 22.03125 C-11.29832764 21.34240723 -11.04978027 20.65356445 -10.79370117 19.94384766 C-10.32627056 18.62130775 -9.87430176 17.29313464 -9.44262695 15.95849609 C-7.20432865 9.47715552 -4.30351271 6.1478753 0 0 Z " fill="#DA9C3D" transform="translate(320,401)"/>
<path d="M0 0 C16.4501397 15.01860082 28.39131993 36.52645539 29.71704102 59.02490234 C30.81504165 87.80603995 24.25102355 110.33748914 5.0703125 132.16796875 C-4.92680521 142.75750825 -16.71146155 150.47804273 -30.44140625 155.3359375 C-30.4671875 154.30855469 -30.49296875 153.28117188 -30.51953125 152.22265625 C-30.81104672 144.34411723 -31.48837967 137.70457059 -34.69921875 130.375 C-35.06660156 129.36566406 -35.06660156 129.36566406 -35.44140625 128.3359375 C-35.11140625 127.6759375 -34.78140625 127.0159375 -34.44140625 126.3359375 C-34.11140625 127.3259375 -33.78140625 128.3159375 -33.44140625 129.3359375 C-21.03943305 123.43480518 -11.52395375 115.14018334 -4.44140625 103.3359375 C-3.98121094 102.56894531 -3.52101563 101.80195313 -3.046875 101.01171875 C5.52501516 85.34406454 7.01481317 67.03581516 2.71484375 49.8359375 C-2.89431864 32.85685136 -13.5440029 18.35878165 -29.46875 9.6875 C-46.35815618 1.45366346 -66.18969197 -1.16352819 -84.2734375 5.015625 C-94.48685192 9.27226381 -102.65294753 14.46462284 -110.44140625 22.3359375 C-111.37726562 23.22152344 -111.37726562 23.22152344 -112.33203125 24.125 C-124.64507376 36.71536329 -129.0069869 54.59671321 -128.9296875 71.67504883 C-128.34946827 89.97094993 -120.53674456 104.22275319 -108.32421875 117.60546875 C-106.62219191 119.56150165 -106.62219191 119.56150165 -104.44140625 119.3359375 C-105.48257127 121.44236858 -106.54542661 123.52897529 -107.66015625 125.59765625 C-112.47847691 134.7201475 -113.71582316 143.12049138 -114.44140625 153.3359375 C-114.77140625 153.3359375 -115.10140625 153.3359375 -115.44140625 153.3359375 C-115.374375 152.74167969 -115.30734375 152.14742187 -115.23828125 151.53515625 C-115.15017958 146.81437499 -115.69023368 144.19251654 -118.86328125 140.57421875 C-121.46044971 138.1820899 -124.17745289 135.92772471 -126.88867188 133.66650391 C-137.42719522 124.63585104 -143.93681321 112.86618586 -148.81640625 100.0859375 C-149.05512451 99.46122559 -149.29384277 98.83651367 -149.53979492 98.19287109 C-156.96679832 77.59065915 -155.72999368 52.47971234 -147.06640625 32.4609375 C-146.20803246 30.74418993 -145.33318887 29.03557026 -144.44140625 27.3359375 C-143.81492187 26.02109375 -143.81492187 26.02109375 -143.17578125 24.6796875 C-132.3475183 3.02316159 -112.02788644 -12.07012159 -89.44140625 -19.6640625 C-57.44564673 -29.22903164 -25.22880496 -21.45730001 0 0 Z " fill="#DB9C3D" transform="translate(887.44140625,72.6640625)"/>
<path d="M0 0 C3.875 1.75 3.875 1.75 5 4 C5.15441209 6.10374996 5.24992639 8.21195119 5.31640625 10.3203125 C5.35830078 11.57714844 5.40019531 12.83398438 5.44335938 14.12890625 C5.48267578 15.44761719 5.52199219 16.76632812 5.5625 18.125 C5.60569512 19.46485751 5.64930973 20.80470156 5.69335938 22.14453125 C5.79970981 25.42957815 5.90173808 28.71470281 6 32 C6.43062744 31.61328125 6.86125488 31.2265625 7.30493164 30.828125 C28.40487383 12.25396916 55.69117967 7.32773464 83 9 C96.41986048 10.30822539 109.23958577 14.86407705 120 23 C121.5778125 24.11375 121.5778125 24.11375 123.1875 25.25 C129.84994763 31.76439324 133.85309764 39.98349536 134.375 49.3125 C134.14415789 58.97489133 128.80617439 67.50041004 122 74 C103.74631823 89.60347349 79.72600818 89.91309854 57 89 C38.80564226 87.54353906 18.82627106 81.27623775 5.5859375 68.3828125 C3.9354441 66.76452828 3.9354441 66.76452828 1 66 C0.34 69.63 -0.32 73.26 -1 77 C-1.8353125 75.948125 -1.8353125 75.948125 -2.6875 74.875 C-4.28083261 72.8941 -5.93106743 70.95809121 -7.625 69.0625 C-9.9742615 66.03318912 -11.03692398 63.67719936 -12 60 C-12.66 60.66 -13.32 61.32 -14 62 C-13.67402416 59.47368727 -13.21542309 57.37382243 -11.9375 55.15625 C-9.09748812 50.14886064 -8.8755883 47.22111914 -10.37890625 41.64453125 C-12.20394359 33.87924593 -12.3452492 26.56908782 -12.1875 18.625 C-12.17239296 17.29168216 -12.15871542 15.95834733 -12.14648438 14.625 C-12.11160627 11.41621435 -12.06260026 8.2083437 -12 5 C-11.70480469 5.61230469 -11.40960938 6.22460938 -11.10546875 6.85546875 C-9.69519647 9.59129731 -8.50177172 11.1743828 -6 13 C-2.37350049 13.08916154 -2.37350049 13.08916154 1 12 C3.32821558 9.18138229 3.32821558 9.18138229 2.75 6 C2.14014017 2.84584582 2.14014017 2.84584582 0 0 Z " fill="#6BA9E6" transform="translate(78,244)"/>
<path d="M0 0 C2.85354842 1.85095032 5.63153286 3.71403476 8.3203125 5.80078125 C29.38343805 21.99109418 56.56061686 27.60768857 82.7109375 24.50390625 C95.6527864 22.69095526 106.82544318 18.94781374 117.66015625 11.453125 C119.84356489 10.09715169 121.49042976 9.44047884 124 9 C133.91429577 18.97296025 138.29039371 29.49845155 138.31689453 43.36132812 C138.12591868 54.46150462 133.7560506 63.8469804 126.1875 71.9375 C110.85468438 86.28110171 85.65742153 89.99538506 65.48144531 89.55664062 C43.19956068 88.59005838 25.19037931 80.37661284 10 64 C20.34176022 53.25978317 35.42521051 47.42913158 50 45 C51.32 45 52.64 45 54 45 C54.09087891 43.66195312 54.09087891 43.66195312 54.18359375 42.296875 C54.26738281 41.12640625 54.35117188 39.9559375 54.4375 38.75 C54.51871094 37.58984375 54.59992188 36.4296875 54.68359375 35.234375 C54.9340338 32.67432116 55.3414807 30.46534629 56 28 C35.30539002 32.4582527 18.43531274 37.98597981 1 50 C-0.59024394 47.6146341 -1.57404053 45.8113165 -2.5625 43.1875 C-2.81128906 42.54167969 -3.06007813 41.89585937 -3.31640625 41.23046875 C-7.22731387 28.46973588 -6.20946937 13.1763501 -1 1 C-0.67 0.67 -0.34 0.34 0 0 Z " fill="#F2F2F2" transform="translate(80,390)"/>
<path d="M0 0 C1.35921586 1.30693833 2.68409365 2.64946454 4 4 C4.54011719 4.53238281 5.08023438 5.06476563 5.63671875 5.61328125 C9.9813806 10.18074627 9.9813806 10.18074627 10.0625 13.75 C9.47201572 15.55618722 8.87327046 17.35993803 8.2421875 19.15234375 C4.07215138 32.28998181 4.11476854 48.72715512 10.1015625 61.31640625 C10.39804688 61.87199219 10.69453125 62.42757812 11 63 C11.88300781 62.40832031 12.76601562 61.81664062 13.67578125 61.20703125 C28.80039321 51.19179899 47.40818382 42 66 42 C65.34 47.61 64.68 53.22 64 59 C62.76765625 59.30292969 61.5353125 59.60585938 60.265625 59.91796875 C45.60195325 63.59464806 33.37767001 68.15567196 21 77 C32.52185406 91.55392092 48.62948877 99.82793555 67 102 C81.29948249 103.23010986 94.54537098 101.98719644 108.375 98.4375 C109.02581543 98.27613556 109.67663086 98.11477112 110.34716797 97.94851685 C122.30941445 94.92826144 131.99593464 90.28981446 139.7578125 80.50390625 C140.16773438 80.00761719 140.57765625 79.51132812 141 79 C141.33 79 141.66 79 142 79 C141.49795116 89.37567594 137.8684818 97.0797055 130.23046875 104.1875 C113.14312482 118.07283728 89.25934689 121.9097001 67.79882812 119.78173828 C44.34715146 116.76273285 26.55336791 107.55336791 10 91 C6.03453766 97.87628044 6.1541382 104.24223889 7 112 C8.13721987 115.77556998 9.75822989 118.76955179 12 122 C12.46148437 122.68320312 12.92296875 123.36640625 13.3984375 124.0703125 C26.67359147 141.25388743 51.24714433 146.27605411 71.4375 149.125 C79.32346676 150.13574216 87.25080536 150.36296268 95.19506836 150.48291016 C104.10722498 150.71975272 104.10722498 150.71975272 108 154 C109.12256131 156.24512262 109.13413762 157.51456649 109.125 160 C109.12886719 161.051875 109.12886719 161.051875 109.1328125 162.125 C109 164 109 164 108 166 C107.34 165.67 106.68 165.34 106 165 C106.33 164.34 106.66 163.68 107 163 C107.37615126 158.86935374 107.37615126 158.86935374 105.875 155.125 C103.17393914 153.50436349 101.09341008 153.74221583 98 154 C97.01 154.33 96.02 154.66 95 155 C94.54440428 160.19212465 94.54440428 160.19212465 96.125 164.9375 C98.68102669 166.38591512 101.10340247 166.67815583 104 167 C104 167.33 104 167.66 104 168 C68.51553287 168.45885087 30.4249584 164.10533032 3.3125 138.8125 C-5.96895327 129.15321766 -11.00416946 117.93637267 -11.4375 104.625 C-11.25410224 95.97910571 -9.23741498 88.43431347 -4.6875 81.0625 C-2.68006158 77.41937101 -2.90131892 76.87257886 -4 73 C-4.69299759 71.15537377 -5.38869921 69.31147037 -6.12060547 67.48193359 C-13.89010088 48.03729683 -14.33932969 27.45843594 -6 8 C-5.01 8 -4.02 8 -3 8 C-2.690625 7.05125 -2.38125 6.1025 -2.0625 5.125 C-1 2 -1 2 0 0 Z " fill="#6CAAE8" transform="translate(70,376)"/>
<path d="M0 0 C15.84 0 31.68 0 48 0 C48 46.53 48 93.06 48 141 C32.16 141 16.32 141 0 141 C0 94.47 0 47.94 0 0 Z " fill="#D6CDC1" transform="translate(321,402)"/>
<path d="M0 0 C0 54.78 0 109.56 0 166 C38.28 166 76.56 166 116 166 C116 169.63 116 173.26 116 177 C115.67 177 115.34 177 115 177 C115 173.7 115 170.4 115 167 C73.92509447 166.11258612 73.92509447 166.11258612 35 177 C34.04351563 177.4640625 33.08703125 177.928125 32.1015625 178.40625 C21.29814397 183.97821371 11.45059655 191.40533456 2 199 C1.67 198.34 1.34 197.68 1 197 C0.11957031 197.27714844 -0.76085937 197.55429687 -1.66796875 197.83984375 C-2.82941406 198.20207031 -3.99085938 198.56429687 -5.1875 198.9375 C-6.33605469 199.29714844 -7.48460937 199.65679687 -8.66796875 200.02734375 C-15.62843091 202.05917854 -22.09531012 202.21660641 -29.3125 202.25 C-30.41529297 202.270625 -31.51808594 202.29125 -32.65429688 202.3125 C-39.83253746 202.34678413 -46.40863949 202.15604408 -52.0625 197.1875 C-53.37824815 194.11742098 -52.89521119 192.16767038 -52 189 C-51.01 188.01 -51.01 188.01 -50 187 C-50 186.01 -50 185.02 -50 184 C-43.5 180 -43.5 180 -39 180 C-38.67 179.01 -38.34 178.02 -38 177 C-35.69 176.67 -33.38 176.34 -31 176 C-31 175.34 -31 174.68 -31 174 C-28.525 173.01 -28.525 173.01 -26 172 C-25.67 117.55 -25.34 63.1 -25 7 C-26.65 7 -28.3 7 -30 7 C-30 6.67 -30 6.34 -30 6 C-28.81664062 5.90203125 -27.63328125 5.8040625 -26.4140625 5.703125 C-14.75781154 4.63586884 -14.75781154 4.63586884 -3.75 0.8046875 C-2 0 -2 0 0 0 Z " fill="#DD9E3E" transform="translate(838,256)"/>
<path d="M0 0 C8.9953084 6.43671442 15.23688588 14.95682264 17.921875 25.765625 C19.83655905 38.24936497 17.75005633 49.79408636 10.5625 60.25 C3.17157269 69.66658886 -6.77946322 75.70491503 -18.6875 77.3125 C-31.08053505 78.45925811 -42.7875886 74.57730161 -52.3125 66.6875 C-60.40029869 59.15748053 -65.02344058 49.74832589 -66.00390625 38.76953125 C-66.37158603 27.13424542 -64.32271735 17.40326175 -56.66796875 8.41015625 C-40.98587038 -8.19987693 -19.97660818 -12.17589531 0 0 Z " fill="#F2F2F2" transform="translate(263.6875,102.6875)"/>
<path d="M0 0 C7.2846273 5.47450779 13.55362498 15.88078188 15 25 C15.88152982 39.40962202 13.52919631 50.47056608 4.44140625 61.97265625 C-3.13046223 70.23452713 -13.05225078 74.34366974 -24.02734375 75.25 C-36.9718232 75.74253667 -47.44487082 71.77840856 -57 63 C-65.45495288 53.38319101 -69.40384322 43.60557442 -69.2109375 30.77734375 C-68.3126718 18.95017877 -63.77905681 9.92256346 -55 2 C-54.49984375 1.50757813 -53.9996875 1.01515625 -53.484375 0.5078125 C-38.51903411 -13.5484189 -15.75587893 -11.35071895 0 0 Z " fill="#F2F2F2" transform="translate(842,187)"/>
<path d="M0 0 C9.03841313 6.77511164 15.0838948 16.4672808 17.10546875 27.5859375 C18.65507776 39.72454139 15.68713726 50.94430679 8.38671875 60.7890625 C1.39384596 69.54970851 -8.24544924 74.83508046 -19.3203125 76.54296875 C-30.67441039 77.76155166 -41.66109121 74.91987398 -50.89453125 68.10546875 C-60.38517168 60.24405493 -65.80940084 50.31912681 -66.96484375 38.05859375 C-67.5505304 26.58136127 -65.33526614 16.80731304 -57.73339844 7.86987305 C-42.30129043 -9.15856924 -19.7064902 -12.56018057 0 0 Z " fill="#F2F2F2" transform="translate(530.61328125,180.2109375)"/>
<path d="M0 0 C6.41748037 4.29731812 10.7403086 9.55447303 13 17 C15.66391856 35.55313192 5.05096683 52.1907243 -4.75 67.0234375 C-6.08908261 68.75108632 -6.08908261 68.75108632 -6 70 C-6.72265045 70.1141777 -7.4453009 70.22835541 -8.18984985 70.34599304 C-15.15615697 71.44689285 -22.12226448 72.54904627 -29.08817482 73.65245342 C-32.66545311 74.2190568 -36.24279507 74.78525011 -39.8203125 75.3503418 C-43.28279227 75.89730072 -46.74509852 76.44534543 -50.20726776 76.99426651 C-51.59710361 77.21454733 -52.9869811 77.43456562 -54.37689972 77.65432358 C-62.09205376 78.8750259 -69.80051748 80.12582438 -77.49902344 81.44775391 C-78.52749043 81.62335641 -78.52749043 81.62335641 -79.57673454 81.80250645 C-82.82853052 82.35776783 -86.07885876 82.91902268 -89.32754517 83.49235535 C-95.31061719 84.51855739 -100.92858745 85.2602034 -107 85 C-107 84.67 -107 84.34 -107 84 C-104.525 83.505 -104.525 83.505 -102 83 C-103.32 82.34 -104.64 81.68 -106 81 C-104.56720703 81.05220703 -104.56720703 81.05220703 -103.10546875 81.10546875 C-89.39002316 81.39263162 -79.14141994 78.74688466 -67.8125 70.75 C-59.08896012 62.22031656 -54.8924848 51.49324341 -54.5625 39.3125 C-54.84792583 30.86185656 -57.52483247 23.61227174 -61 16 C-44.71822852 2.11168042 -21.50033554 -13.44269587 0 0 Z " fill="#010202" transform="translate(336,98)"/>
<path d="M0 0 C4.43919635 4.0184882 7.79702792 7.60492951 8.3125 13.6875 C8.20484109 19.09980713 6.16269861 22.83198764 2.41015625 26.59375 C-12.23601178 38.73180046 -33.2153506 39.41429924 -51.30517578 37.79345703 C-66.00776927 36.06623697 -80.49256474 31.57454574 -92 22 C-92.5775 21.53335937 -93.155 21.06671875 -93.75 20.5859375 C-95.1875 19.3125 -95.1875 19.3125 -97 17 C-96.43308754 11.87717284 -92.77709694 9.125437 -89 6 C-64.19307252 -11.80142409 -26.5703088 -17.41525422 0 0 Z " fill="#D6CDC1" transform="translate(187,279)"/>
<path d="M0 0 C3.65064018 2.82094923 6.66212835 5.94925671 8.75 10.125 C9.41073595 15.28817948 9.51936413 19.72561975 6.5 24.125 C4.494569 26.50680041 2.85470284 28.37234477 -0.25 29.125 C-2.25899487 28.85104615 -4.25889599 28.50790462 -6.25 28.125 C-8.92389346 28.03329607 -11.57338784 28.07885151 -14.25 28.125 C-9.96 28.455 -5.67 28.785 -1.25 29.125 C-1.25 29.785 -1.25 30.445 -1.25 31.125 C-22.31692815 40.46431502 -45.27144986 41.81436467 -67.25 34.125 C-78.13649565 29.7749462 -89.38240927 23.91727448 -96.25 14.125 C-73.21626492 -11.73881857 -29.55931749 -17.0534524 0 0 Z " fill="#D6CDC1" transform="translate(186.25,360.875)"/>
<path d="M0 0 C3 1 3 1 4.2421875 3.4375 C6.71013383 7.03521732 8.92011185 7.11654875 13.125 8 C25.92687633 11.02999339 25.92687633 11.02999339 30 15 C31.04941459 17.88992634 31.05319043 19.86176486 31 23 C24.7744567 27.30999152 18.42295267 30.30646709 11 32 C9.515 31.505 9.515 31.505 8 31 C8.2475 30.154375 8.495 29.30875 8.75 28.4375 C9.09265178 23.72603799 7.56801386 21.8909301 5 18 C0.73767684 21.96574248 0.73767684 21.96574248 -2 27 C-2 27.99 -2 28.98 -2 30 C-0.35 30.66 1.3 31.32 3 32 C2.505 32.99 2.505 32.99 2 34 C-0.36328125 34.6328125 -0.36328125 34.6328125 -3.3125 35.125 C-4.27800781 35.29257812 -5.24351562 35.46015625 -6.23828125 35.6328125 C-9 36 -9 36 -13 36 C-13 34.35 -13 32.7 -13 31 C-14.32 31 -15.64 31 -17 31 C-16.505 33.97 -16.505 33.97 -16 37 C-18.72876308 37.33695862 -21.45793163 37.66968429 -24.1875 38 C-24.95642578 38.09539062 -25.72535156 38.19078125 -26.51757812 38.2890625 C-30.36928811 38.75192894 -34.11170851 39.12467468 -38 39 C-37.67 37.68 -37.34 36.36 -37 35 C-39.12390958 33.51924614 -41.24906405 32.04033944 -43.375 30.5625 C-43.97828125 30.14162109 -44.5815625 29.72074219 -45.203125 29.28710938 C-48.50074821 26.9779257 -48.50074821 26.9779257 -52 25 C-52.33 27.31 -52.66 29.62 -53 32 C-52.278125 32.49371094 -51.55625 32.98742187 -50.8125 33.49609375 C-49.884375 34.13675781 -48.95625 34.77742188 -48 35.4375 C-47.071875 36.07558594 -46.14375 36.71367187 -45.1875 37.37109375 C-44.465625 37.90863281 -43.74375 38.44617188 -43 39 C-43 39.33 -43 39.66 -43 40 C-57.90560378 40.99221543 -72.75290776 41.12072239 -87.6875 41.0625 C-89.96158754 41.05746919 -92.23567618 41.05290911 -94.50976562 41.04882812 C-100.00653807 41.03796105 -105.50325648 41.02078587 -111 41 C-112.32 38.36 -113.64 35.72 -115 33 C-113.71738281 33.15984375 -112.43476563 33.3196875 -111.11328125 33.484375 C-93.67683596 35.40698598 -77.22367664 34.55051028 -62 25 C-58.48175356 22.17432176 -55.19695577 19.18280995 -52 16 C-52.7425 15.2575 -53.485 14.515 -54.25 13.75 C-56.5 11.5 -58.75 9.25 -61 7 C-59.68 5.35 -58.36 3.7 -57 2 C-56.16855469 2.74056641 -56.16855469 2.74056641 -55.3203125 3.49609375 C-54.59585938 4.13675781 -53.87140625 4.77742188 -53.125 5.4375 C-52.40570312 6.07558594 -51.68640625 6.71367187 -50.9453125 7.37109375 C-49.09249509 9.05014465 -49.09249509 9.05014465 -47 10 C-46.01 7.03 -45.02 4.06 -44 1 C-29.67456282 0.60811874 -16.12702927 1.59539927 -2 4 C-1.34 2.68 -0.68 1.36 0 0 Z " fill="#E2A03D" transform="translate(601,264)"/>
<path d="M0 0 C1.4122114 -0.00323424 2.8244225 -0.00659968 4.2366333 -0.01008606 C7.17778291 -0.01601222 10.11890345 -0.01793307 13.06005859 -0.01733398 C16.009015 -0.0172533 18.95781413 -0.02411517 21.90673828 -0.0378418 C41.29771295 -0.1268355 60.43601937 0.44540617 79.765625 2.16796875 C79.765625 2.49796875 79.765625 2.82796875 79.765625 3.16796875 C76.795625 3.16796875 73.825625 3.16796875 70.765625 3.16796875 C69.775625 6.13796875 68.785625 9.10796875 67.765625 12.16796875 C63.72817994 10.14924622 61.14551825 8.08696747 57.765625 5.16796875 C56.775625 6.81796875 55.785625 8.46796875 54.765625 10.16796875 C59.220625 13.63296875 59.220625 13.63296875 63.765625 17.16796875 C55.62407659 27.66628117 44.97050212 33.87151258 31.98828125 36.79296875 C27.63257447 37.29981463 23.3343193 37.31260069 18.953125 37.29296875 C17.67598633 37.29876953 17.67598633 37.29876953 16.37304688 37.3046875 C0.61822127 37.28068929 -8.91258498 32.93871699 -20.61328125 21.9296875 C-26.05538322 16.11582904 -31.234375 9.36966389 -31.234375 1.16796875 C-20.81251364 0.41968001 -10.45354797 0.00898211 0 0 Z " fill="#020201" transform="translate(486.234375,261.83203125)"/>
<path d="M0 0 C0.20753906 0.61746094 0.41507812 1.23492187 0.62890625 1.87109375 C5.6137994 15.57433558 16.03630496 25.51815248 29 32 C30.2890625 33.77734375 30.2890625 33.77734375 31.625 35.9375 C32.07101562 36.64777344 32.51703125 37.35804688 32.9765625 38.08984375 C34 40 34 40 34 42 C31.03 42 28.06 42 25 42 C24.01 40.02 24.01 40.02 23 38 C23 38.99 23 39.98 23 41 C14.88142822 41.14692401 6.89861748 40.70108107 -1.1875 40 C-2.33025391 39.90460938 -3.47300781 39.80921875 -4.65039062 39.7109375 C-7.43396138 39.47800271 -10.21711439 39.24095912 -13 39 C-12.505 38.01 -12.505 38.01 -12 37 C-11.34 37 -10.68 37 -10 37 C-10.495 35.02 -10.495 35.02 -11 33 C-12.32 33 -13.64 33 -15 33 C-14.505 35.475 -14.505 35.475 -14 38 C-33.23750486 37.40070078 -59.38727885 35.42645153 -75 23 C-75.87890625 21.16015625 -75.87890625 21.16015625 -76 19 C-73.66687025 13.80134848 -70.72432714 12.37955999 -65.66015625 10.2578125 C-45.02649219 3.16705495 -21.80013528 -0.42559917 0 0 Z " fill="#E1A03D" transform="translate(455,264)"/>
<path d="M0 0 C0.56847656 0.72574219 1.13695313 1.45148438 1.72265625 2.19921875 C3.17127697 3.9807986 4.67517464 5.71979488 6.24609375 7.39453125 C8.46085723 9.83827206 10.36260739 12.13345358 12 15 C11 18.6875 11 18.6875 9.96875 20.61328125 C7.47952612 26.74600622 7.99168891 34.66136995 9.87890625 40.91015625 C11.0717592 43.4572713 12.39733764 45.69052244 14 48 C14.46148437 48.68320312 14.92296875 49.36640625 15.3984375 50.0703125 C28.67359147 67.25388743 53.24714433 72.27605411 73.4375 75.125 C81.32346676 76.13574216 89.25080536 76.36296268 97.19506836 76.48291016 C106.10722498 76.71975272 106.10722498 76.71975272 110 80 C111.12256131 82.24512262 111.13413762 83.51456649 111.125 86 C111.12886719 87.051875 111.12886719 87.051875 111.1328125 88.125 C111 90 111 90 110 92 C109.34 91.67 108.68 91.34 108 91 C108.33 90.34 108.66 89.68 109 89 C109.37615126 84.86935374 109.37615126 84.86935374 107.875 81.125 C105.17393914 79.50436349 103.09341008 79.74221583 100 80 C98.515 80.495 98.515 80.495 97 81 C96.54440428 86.19212465 96.54440428 86.19212465 98.125 90.9375 C100.68102669 92.38591512 103.10340247 92.67815583 106 93 C106 93.33 106 93.66 106 94 C70.51553287 94.45885087 32.4249584 90.10533032 5.3125 64.8125 C-3.96895327 55.15321766 -9.00416946 43.93637267 -9.4375 30.625 C-9.22388864 20.55475015 -6.14141842 12.50993394 -1 4 C-0.23959428 1.73014106 -0.23959428 1.73014106 0 0 Z " fill="#6BA8E5" transform="translate(68,450)"/>
<path d="M0 0 C1.39675186 0.00374012 2.79350639 0.00658235 4.19026184 0.00857544 C7.82833374 0.01613342 11.46624045 0.03571234 15.10424805 0.0579834 C18.83184578 0.07861284 22.55947075 0.08761334 26.28710938 0.09765625 C33.57299116 0.11896748 40.85873787 0.15300594 48.14453125 0.1953125 C44.89105098 2.36429935 42.13242834 3.19263468 38.39453125 4.3203125 C21.37532611 9.7654636 6.95952253 20.09334276 -6.85546875 31.1953125 C-7.35046875 30.2053125 -7.35046875 30.2053125 -7.85546875 29.1953125 C-9.17611328 29.61103516 -9.17611328 29.61103516 -10.5234375 30.03515625 C-11.68488281 30.39738281 -12.84632813 30.75960938 -14.04296875 31.1328125 C-15.19152344 31.49246094 -16.34007812 31.85210937 -17.5234375 32.22265625 C-24.48389966 34.25449104 -30.95077887 34.41191891 -38.16796875 34.4453125 C-39.27076172 34.4659375 -40.37355469 34.4865625 -41.50976562 34.5078125 C-48.68800621 34.54209663 -55.26410824 34.35135658 -60.91796875 29.3828125 C-62.2337169 26.31273348 -61.75067994 24.36298288 -60.85546875 21.1953125 C-60.19546875 20.5353125 -59.53546875 19.8753125 -58.85546875 19.1953125 C-58.85546875 18.2053125 -58.85546875 17.2153125 -58.85546875 16.1953125 C-52.35546875 12.1953125 -52.35546875 12.1953125 -47.85546875 12.1953125 C-47.52546875 11.2053125 -47.19546875 10.2153125 -46.85546875 9.1953125 C-43.39046875 8.7003125 -43.39046875 8.7003125 -39.85546875 8.1953125 C-39.85546875 7.5353125 -39.85546875 6.8753125 -39.85546875 6.1953125 C-37.75343721 5.56316871 -35.64869359 4.94004248 -33.54296875 4.3203125 C-32.37121094 3.97226562 -31.19945312 3.62421875 -29.9921875 3.265625 C-19.95723058 0.56482991 -10.37053289 -0.0826921 0 0 Z " fill="#D3CABE" transform="translate(846.85546875,423.8046875)"/>
<path d="M0 0 C0 0.66 0 1.32 0 2 C0.59167969 2.04898437 1.18335938 2.09796875 1.79296875 2.1484375 C6.19104472 2.56456867 9.96928897 3.04965595 14 5 C14 5.66 14 6.32 14 7 C15.19625 7.061875 16.3925 7.12375 17.625 7.1875 C26.8146904 8.22316352 35.78911637 10.9692348 42 18 C44.48499142 21.54998775 44.43249013 24.74718041 44 29 C42.64794434 32.55919518 40.72695317 35.3171046 37.9375 37.9375 C26.30600084 42.14463799 14.65054609 36.09605293 3.8125 32 C1.98432464 31.32389437 0.15555237 30.6494005 -1.67382812 29.9765625 C-6.12299252 28.33623026 -10.56348564 26.67422837 -15 25 C-15 24.34 -15 23.68 -15 23 C-17.31 22.34 -19.62 21.68 -22 21 C-22.33 19.35 -22.66 17.7 -23 16 C-23.66 16 -24.32 16 -25 16 C-25 12.7 -25 9.4 -25 6 C-24.34 6 -23.68 6 -23 6 C-22.979375 5.2575 -22.95875 4.515 -22.9375 3.75 C-21.77799236 0.3487776 -20.12139356 -0.68803398 -16.95703125 -2.2734375 C-10.80016701 -4.55921943 -5.69671423 -2.39861652 0 0 Z " fill="#CCC3B8" transform="translate(739,271)"/>
<path d="M0 0 C0.33 0 0.66 0 1 0 C1.02578125 0.81082031 1.0515625 1.62164062 1.078125 2.45703125 C1.79403532 16.43355315 5.7973845 25.95744263 15.8125 35.75 C24.34841505 41.7753518 32.75399119 44.18406472 43 46 C36.64773268 52.35226732 23.91286251 51.33724636 15.5625 51.375 C-5.47044959 51.23414053 -24.44282046 45.742856 -39.6875 30.5625 C-41.13539268 29.05155756 -42.57685767 27.53427709 -44 26 C-33.65823978 15.25978317 -18.57478949 9.42913158 -4 7 C-2.68 7 -1.36 7 0 7 C0 4.69 0 2.38 0 0 Z " fill="#D2C9BE" transform="translate(134,428)"/>
<path d="M0 0 C2.85354842 1.85095032 5.63153286 3.71403476 8.3203125 5.80078125 C23.43917587 17.42199712 41.12007196 23.23587153 60 25 C59.01 25.33 58.02 25.66 57 26 C57 26.66 57 27.32 57 28 C56.07272095 28.18006592 56.07272095 28.18006592 55.12670898 28.36376953 C34.58764278 32.41630361 17.70400991 38.64271062 0 50 C-0.65256456 48.29422658 -1.29673041 46.58523911 -1.9375 44.875 C-2.29714844 43.92367187 -2.65679687 42.97234375 -3.02734375 41.9921875 C-7.23973651 29.03358166 -6.32620063 13.44919184 -1 1 C-0.67 0.67 -0.34 0.34 0 0 Z " fill="#D5CCC0" transform="translate(80,390)"/>
<path d="M0 0 C1 1 1 1 1.1875 4.25 C-0.14717115 8.46475099 -0.5427887 8.77922965 -4.25 10.75 C-6.14504189 11.55307369 -8.06387449 12.30176715 -10 13 C-10.88300781 13.32097656 -11.76601563 13.64195312 -12.67578125 13.97265625 C-20.31347322 16.19471819 -27.90280864 16.30794443 -35.8125 16.375 C-36.88636963 16.38893799 -37.96023926 16.40287598 -39.06665039 16.41723633 C-46.06096923 16.3753672 -52.56741533 16.0165138 -58.0625 11.1875 C-59.42568743 8.00672933 -59.08695369 6.26086108 -58 3 C-53.05529158 -2.76882649 -44.33925555 -3.84014861 -37.125 -4.6875 C-25.19943488 -5.59180826 -10.49005142 -6.7019773 0 0 Z " fill="#050504" transform="translate(844,442)"/>
<path d="M0 0 C-0.66 5.61 -1.32 11.22 -2 17 C-3.23234375 17.30292969 -4.4646875 17.60585938 -5.734375 17.91796875 C-21.01483948 21.74813984 -33.32304721 26.6149656 -46 36 C-50.65965806 32.26843318 -53.58419092 29.53622915 -56 24 C-54.54179557 18.63551069 -48.95895266 16.57010961 -44.4921875 13.953125 C-31.53520692 6.61951622 -15.07257296 0 0 0 Z " fill="#6AA8E5" transform="translate(136,418)"/>
<path d="M0 0 C6.8186033 1.15158634 11.63616242 2.86815122 16.8125 7.6875 C18.68427139 11.33252849 19.11343626 14.9233845 19 19 C17.40594023 23.69362043 15.28109703 26.48718218 11 29 C4.42096112 30.86875423 -0.81835448 29.586646 -7 27 C-7 26.01 -7 25.02 -7 24 C-7.350625 23.29875 -7.70125 22.5975 -8.0625 21.875 C-9.41673929 17.72199952 -9.14342263 14.19746758 -8 10 C-6.11419223 6.49778557 -4.07633253 4.33485901 -0.1875 3.125 C0.8953125 3.063125 0.8953125 3.063125 2 3 C2 2.34 2 1.68 2 1 C1.34 0.67 0.68 0.34 0 0 Z " fill="#D1963D" transform="translate(778,381)"/>
<path d="M0 0 C6.99689594 1.20581427 12.98164403 2.68954506 17.9375 8.125 C19.53802004 12.45581893 19.65002973 16.44248821 19 21 C17.18766463 24.83378636 15.69973473 26.53351018 12.1875 28.875 C5.18924315 31.34497301 -0.35427048 29.53170648 -7 27 C-6.34 26.67 -5.68 26.34 -5 26 C-5.495 25.38125 -5.99 24.7625 -6.5 24.125 C-8.62750674 19.69269429 -8.93855624 15.82793331 -8 11 C-6.00982758 7.42541848 -3.78491147 4.55382891 0.203125 3.31640625 C0.79609375 3.21199219 1.3890625 3.10757812 2 3 C2 2.34 2 1.68 2 1 C1.34 0.67 0.68 0.34 0 0 Z " fill="#CF6243" transform="translate(912,355)"/>
<path d="M0 0 C3.56568061 1.54335429 6.31019147 3.24343581 8.9375 6.125 C10.53802004 10.45581893 10.65002973 14.44248821 10 19 C8.18766463 22.83378636 6.69973473 24.53351018 3.1875 26.875 C-4.61617313 29.62923758 -10.68638041 26.96247882 -18 24 C-17.01 23.34 -16.02 22.68 -15 22 C-15.66 21.01 -16.32 20.02 -17 19 C-17.76603375 14.7868144 -17.9475779 10.70817554 -15.83203125 6.89453125 C-11.32843264 1.46474269 -7.25546156 -2.17663847 0 0 Z " fill="#D89A3D" transform="translate(926,258)"/>
<path d="M0 0 C4.5007346 3.63889181 6.72702564 6.58872649 7.375 12.3125 C6.82414791 17.72921221 4.97706877 21.14275358 0.9375 24.9375 C-6.6335571 27.67596746 -13.86739762 26.22985768 -21 23 C-20.01 22.34 -19.02 21.68 -18 21 C-18.515625 20.175 -19.03125 19.35 -19.5625 18.5 C-21.27531453 14.32966898 -21.4692336 11.2128853 -20 7 C-17.77730751 3.41704776 -15.17252412 0.79224603 -11.6875 -1.5625 C-7.51088613 -2.24241389 -3.93057995 -1.51944379 0 0 Z " fill="#D16243" transform="translate(776,284)"/>
<path d="M0 0 C-1.27132105 9.4691499 -5.74333346 15.68775866 -13.0625 21.68359375 C-16.46923851 23.99825277 -20.18762826 25.48592161 -24 27 C-24.99 27.495 -24.99 27.495 -26 28 C-29.51398019 28.29565227 -33.03754333 28.2781437 -36.5625 28.3125 C-37.52736328 28.34150391 -38.49222656 28.37050781 -39.48632812 28.40039062 C-46.25909912 28.45984101 -51.06481937 27.21226753 -57 24 C-60.52613212 22.11074738 -63.22672175 21.63738771 -67.25 21.375 C-68.32765625 21.30023438 -69.4053125 21.22546875 -70.515625 21.1484375 C-71.74539062 21.07496094 -71.74539062 21.07496094 -73 21 C-73 20.67 -73 20.34 -73 20 C-72.10752563 20.01740234 -72.10752563 20.01740234 -71.19702148 20.03515625 C-57.54485429 20.18007547 -44.81024903 18.74580603 -31.625 15.375 C-30.97481903 15.21531738 -30.32463806 15.05563477 -29.65475464 14.89111328 C-19.91700162 12.46494954 -10.97890555 9.0704665 -3.82275391 1.78271484 C-2 0 -2 0 0 0 Z " fill="#060707" transform="translate(210,459)"/>
<path d="M0 0 C3 1 3 1 4.2421875 3.4375 C6.71013383 7.03521732 8.92011185 7.11654875 13.125 8 C25.92687633 11.02999339 25.92687633 11.02999339 30 15 C31.04941459 17.88992634 31.05319043 19.86176486 31 23 C24.7744567 27.30999152 18.42295267 30.30646709 11 32 C10.01 31.67 9.02 31.34 8 31 C8.268125 30.175 8.53625 29.35 8.8125 28.5 C9.03983029 24.2565013 8.21380629 22.30835294 5.87890625 18.8359375 C2.33554657 15.37361099 -2.30587599 14.24957417 -7 13 C-5.125 7.25 -5.125 7.25 -4 5 C-5.5778125 5.0309375 -5.5778125 5.0309375 -7.1875 5.0625 C-10.32704904 5.01103198 -12.96883396 4.73482813 -16 4 C-16 3.67 -16 3.34 -16 3 C-9.07 3.495 -9.07 3.495 -2 4 C-1.34 2.68 -0.68 1.36 0 0 Z " fill="#DE9E3D" transform="translate(601,264)"/>
<path d="M0 0 C0 54.78 0 109.56 0 166 C38.28 166 76.56 166 116 166 C116 169.63 116 173.26 116 177 C115.67 177 115.34 177 115 177 C115 173.7 115 170.4 115 167 C109.36621045 167.0952059 103.73276977 167.20161168 98.09936523 167.31738281 C96.19219397 167.35512008 94.28496474 167.39005663 92.37768555 167.421875 C79.48113483 167.63948092 66.8037398 168.42418359 54 170 C54 169.67 54 169.34 54 169 C46.36695736 168.97669324 38.73391847 168.95899237 31.1008482 168.94818783 C27.55541909 168.94299874 24.01001457 168.93597448 20.46459961 168.92456055 C16.3761371 168.91148272 12.28769988 168.90673897 8.19921875 168.90234375 C6.94356613 168.89718246 5.68791351 168.89202118 4.39421082 168.88670349 C-2.79572229 168.88625109 -9.85403471 169.19318363 -17 170 C-11.38308992 167.09103183 -7.5194164 167 -1 167 C-1 112.55 -1 58.1 -1 2 C-2.98 2.99 -2.98 2.99 -5 4 C-5.99 3.67 -6.98 3.34 -8 3 C-2.25 0 -2.25 0 0 0 Z " fill="#7E786F" transform="translate(838,256)"/>
<path d="M0 0 C2.38586603 2.38586603 3.4148152 4.70857882 4.875 7.75 C6.99970164 12.08272491 9.17739897 16.09178319 12 20 C11.34 20 10.68 20 10 20 C9.34 23.96 8.68 27.92 8 32 C7.443125 31.29875 6.88625 30.5975 6.3125 29.875 C4.71916739 27.8941 3.06893257 25.95809121 1.375 24.0625 C-0.9742615 21.03318912 -2.03692398 18.67719936 -3 15 C-3.66 15.66 -4.32 16.32 -5 17 C-4.43449764 12.6173567 -2.72977604 9.02721979 -0.83984375 5.0859375 C0.18674314 2.91095885 0.18674314 2.91095885 0 0 Z " fill="#0E1217" transform="translate(69,289)"/>
<path d="M0 0 C1.35921586 1.30693833 2.68409365 2.64946454 4 4 C4.54011719 4.53238281 5.08023438 5.06476563 5.63671875 5.61328125 C9.9813806 10.18074627 9.9813806 10.18074627 10.0625 13.75 C9.711875 14.8225 9.36125 15.895 9 17 C8.47415931 18.95699473 7.95370108 20.91544055 7.4375 22.875 C6.96121958 24.58414026 6.48301203 26.29274992 6 28 C5.67 28 5.34 28 5 28 C4.7525 27.113125 4.505 26.22625 4.25 25.3125 C2.94802442 21.8622647 1.31966596 19.82709289 -1 17 C-2.9386481 13.21963621 -3.43190264 10.2326459 -3 6 C-1.5 2.625 -1.5 2.625 0 0 Z " fill="#070A0C" transform="translate(70,376)"/>
<path d="M0 0 C0.75410156 0.00322266 1.50820312 0.00644531 2.28515625 0.00976562 C3.06246094 0.01814453 3.83976562 0.02652344 4.640625 0.03515625 C5.43339844 0.03966797 6.22617188 0.04417969 7.04296875 0.04882812 C8.99222008 0.0605706 10.94143238 0.07850479 12.890625 0.09765625 C12.890625 0.75765625 12.890625 1.41765625 12.890625 2.09765625 C0.98469824 7.37574899 -8.06302778 9.46061491 -21.109375 9.09765625 C-18.4650713 6.23099065 -16.20468839 4.41846409 -12.609375 2.91015625 C-11.8565625 2.58660156 -11.10375 2.26304687 -10.328125 1.9296875 C-6.82526742 0.61611591 -3.74483735 -0.02836998 0 0 Z " fill="#F0F0F0" transform="translate(172.109375,389.90234375)"/>
<path d="M0 0 C2.5 2.125 2.5 2.125 4 5 C4 8.50732933 3.6345092 10.2434698 1.375 12.9375 C-2.11319754 14.49800943 -4.36432898 13.99154664 -8 13 C-10 11.3125 -10 11.3125 -11 9 C-10.87304813 5.88967921 -10.47953174 3.79921957 -8.875 1.125 C-5.79484632 -0.72309221 -3.49557617 -0.49060718 0 0 Z " fill="#EFEEEE" transform="translate(78,244)"/>
<path d="M0 0 C2.375 1.625 2.375 1.625 4 4 C4.61195145 7.6717087 4.48706506 9.28813568 2.375 12.375 C-0.71186432 14.48706506 -2.3282913 14.61195145 -6 14 C-8.375 12.375 -8.375 12.375 -10 10 C-10.61195145 6.3282913 -10.48706506 4.71186432 -8.375 1.625 C-5.28813568 -0.48706506 -3.6717087 -0.61195145 0 0 Z " fill="#F0EFEF" transform="translate(174,529)"/>
<path d="M0 0 C5.16484202 2.23656105 8.80305504 5.79435754 11 11 C10.40974092 15.36164897 8.91523036 19.05609357 7 23 C5.31066078 21.3563186 3.64740076 19.6857124 2 18 C1.13375 17.13375 1.13375 17.13375 0.25 16.25 C-1.72340505 12.69787092 -2.02868405 9.03010894 -2 5 C-1.0625 1.9375 -1.0625 1.9375 0 0 Z " fill="#080C10" transform="translate(69,454)"/>
<path d="M0 0 C4.15151338 1.44202476 7.29978445 3.5010438 10.8125 6.125 C11.78832031 6.84945313 12.76414062 7.57390625 13.76953125 8.3203125 C14.50558594 8.87460937 15.24164062 9.42890625 16 10 C15.67 10.99 15.34 11.98 15 13 C17.97 13.495 17.97 13.495 21 14 C21 14.33 21 14.66 21 15 C12.98340366 16.12513633 5.07861415 16.09579384 -3 16 C-3 15.67 -3 15.34 -3 15 C2.445 14.505 2.445 14.505 8 14 C4.7 11.69 1.4 9.38 -2 7 C-1 2 -1 2 0 0 Z " fill="#140C07" transform="translate(549,289)"/>
<path d="M0 0 C3 1 3 1 4.4375 3.4375 C6.09552981 6.15666889 7.08436939 6.89407115 10 8 C9.01 8 8.02 8 7 8 C6.87625 8.763125 6.7525 9.52625 6.625 10.3125 C6 13 6 13 4 16 C0.37 15.01 -3.26 14.02 -7 13 C-5.125 7.25 -5.125 7.25 -4 5 C-5.5778125 5.0309375 -5.5778125 5.0309375 -7.1875 5.0625 C-10.32704904 5.01103198 -12.96883396 4.73482813 -16 4 C-16 3.67 -16 3.34 -16 3 C-9.07 3.495 -9.07 3.495 -2 4 C-1.34 2.68 -0.68 1.36 0 0 Z " fill="#A55437" transform="translate(601,264)"/>
<path d="M0 0 C4.88764045 4.56179775 4.88764045 4.56179775 6 8 C5.67966043 10.00212229 5.34740923 12.00239695 5 14 C5.66 14.66 6.32 15.32 7 16 C4.69 16.33 2.38 16.66 0 17 C0 16.34 0 15.68 0 15 C-2.97 14.505 -2.97 14.505 -6 14 C-6.6796875 12.29296875 -6.6796875 12.29296875 -7 10 C-5.8203125 7.67578125 -5.8203125 7.67578125 -4.125 5.3125 C-3.57070313 4.52488281 -3.01640625 3.73726563 -2.4453125 2.92578125 C-1 1 -1 1 0 0 Z " fill="#0D0904" transform="translate(605,281)"/>
<path d="M0 0 C0.50789062 0.39832031 1.01578125 0.79664063 1.5390625 1.20703125 C5.55834216 4.30052177 9.42712594 6.76932973 14 9 C14.33 9.66 14.66 10.32 15 11 C13.02 13.97 13.02 13.97 11 17 C9.0625 16.6875 9.0625 16.6875 7 16 C6.67 15.01 6.34 14.02 6 13 C3.91255028 11.1070193 3.91255028 11.1070193 1.4375 9.3125 C0.61121094 8.68988281 -0.21507812 8.06726563 -1.06640625 7.42578125 C-1.70449219 6.95527344 -2.34257813 6.48476563 -3 6 C-2.01 4.02 -1.02 2.04 0 0 Z " fill="#CC9037" transform="translate(543,266)"/>
<path d="M0 0 C9.39146903 -0.09908936 18.65741704 -0.12998844 28 1 C28 1.33 28 1.66 28 2 C25.03 2 22.06 2 19 2 C18.01 4.97 17.02 7.94 16 11 C11.89607196 8.94803598 9.32836557 7.10143155 6 4 C6 3.01 6 2.02 6 1 C4.02 1 2.04 1 0 1 C0 0.67 0 0.34 0 0 Z " fill="#120E09" transform="translate(538,263)"/>
<path d="M0 0 C0.33 0 0.66 0 1 0 C0.4978637 10.37748351 -3.13396756 18.06321026 -10.7578125 25.18359375 C-16.47816532 29.81767748 -23.0394624 33.58511961 -30 36 C-30.99 35.67 -31.98 35.34 -33 35 C-32.34 35 -31.68 35 -31 35 C-31 34.34 -31 33.68 -31 33 C-35.62 33 -40.24 33 -45 33 C-45 32.67 -45 32.34 -45 32 C-43.80503906 31.97421875 -42.61007813 31.9484375 -41.37890625 31.921875 C-29.1471053 31.63164173 -29.1471053 31.63164173 -18 27 C-16.96875 26.4225 -15.9375 25.845 -14.875 25.25 C-6.3408118 18.57107011 -2.55125033 11.60021059 -1 1 C-0.67 0.67 -0.34 0.34 0 0 Z " fill="#4F759A" transform="translate(211,455)"/>
<path d="M0 0 C-4.18950659 2.79300439 -7.54473967 3.11338104 -12.51074219 3.44702148 C-18.68402385 3.92831968 -24.72546577 4.8181019 -30.828125 5.84765625 C-33.0312387 6.20905326 -35.23436404 6.57037931 -37.4375 6.93164062 C-40.85645305 7.49810167 -44.27504211 8.06667783 -47.69335938 8.63696289 C-51.02908757 9.19172558 -54.36601684 9.73876564 -57.703125 10.28515625 C-59.22525604 10.54293602 -59.22525604 10.54293602 -60.77813721 10.80592346 C-66.26871843 11.70192188 -71.43684129 12.18101295 -77 12 C-77 11.67 -77 11.34 -77 11 C-68.14287141 9.55836726 -59.28467046 8.12356637 -50.42504883 6.69733429 C-46.31065148 6.03477688 -42.19665323 5.36992421 -38.08349609 4.69970703 C-34.10973188 4.05229181 -30.13501348 3.41106154 -26.15957642 2.77400208 C-24.64747977 2.53059736 -23.13573215 2.28501344 -21.62435913 2.03715515 C-19.49786839 1.68881271 -17.37023773 1.34843214 -15.2421875 1.00976562 C-14.0341748 0.81435181 -12.82616211 0.61893799 -11.58154297 0.41760254 C-7.66286072 -0.03930993 -3.94143734 -0.07012124 0 0 Z " fill="#56697A" transform="translate(227,97)"/>
<path d="M0 0 C1.67542976 0.28604898 3.34385343 0.61781233 5 1 C5 2.32 5 3.64 5 5 C4.01 5.495 4.01 5.495 3 6 C6.79106256 6.34044412 10.58292614 6.67102759 14.375 7 C15.43589844 7.09539062 16.49679687 7.19078125 17.58984375 7.2890625 C24.07998467 7.84649792 30.48639986 8.13132994 37 8 C37.33 6.68 37.66 5.36 38 4 C38.66 5.98 39.32 7.96 40 10 C29.24082289 10.21125191 18.75873141 9.59397447 8.0625 8.5 C6.58925813 8.35480341 5.11595082 8.21026928 3.64257812 8.06640625 C0.09426911 7.71852732 -3.4530846 7.36184504 -7 7 C-7 6.67 -7 6.34 -7 6 C-3.535 5.505 -3.535 5.505 0 5 C-0.2784375 4.0409375 -0.2784375 4.0409375 -0.5625 3.0625 C-0.706875 2.381875 -0.85125 1.70125 -1 1 C-0.67 0.67 -0.34 0.34 0 0 Z " fill="#513422" transform="translate(440,296)"/>
<path d="M0 0 C2.97 0.495 2.97 0.495 6 1 C3.02480663 5.69165109 -0.31393365 9.84703191 -4 14 C-5.65 13.67 -7.3 13.34 -9 13 C-7.50923566 9.7173068 -5.61379679 7.06922559 -3.375 4.25 C-2.74335938 3.45078125 -2.11171875 2.6515625 -1.4609375 1.828125 C-0.97882813 1.22484375 -0.49671875 0.6215625 0 0 Z " fill="#946D35" transform="translate(404,239)"/>
<path d="M0 0 C3 5.22222222 3 5.22222222 3 8 C0.03 8 -2.94 8 -6 8 C-6.99 5.69 -7.98 3.38 -9 1 C-3.375 -1.125 -3.375 -1.125 0 0 Z " fill="#6CAEF0" transform="translate(486,298)"/>
<path d="M0 0 C1.33333333 2.66666667 2.66666667 5.33333333 4 8 C3.34 8 2.68 8 2 8 C2 16.91 2 25.82 2 35 C1.67 35 1.34 35 1 35 C0.15937224 30.63106263 -0.11732956 26.5164802 -0.09765625 22.0703125 C-0.09443359 20.78125 -0.09121094 19.4921875 -0.08789062 18.1640625 C-0.07953733 16.81770764 -0.07107241 15.47135348 -0.0625 14.125 C-0.0574783 12.75520996 -0.05291657 11.38541815 -0.04882812 10.015625 C-0.03707254 6.6770381 -0.02063964 3.33854185 0 0 Z " fill="#5F7A93" transform="translate(66,249)"/>
<path d="M0 0 C1.67542976 0.28604898 3.34385343 0.61781233 5 1 C4.67 2.65 4.34 4.3 4 6 C4.73605469 5.855625 5.47210937 5.71125 6.23046875 5.5625 C7.20628906 5.376875 8.18210937 5.19125 9.1875 5 C10.15042969 4.814375 11.11335937 4.62875 12.10546875 4.4375 C14.7934206 4.03122388 17.28771019 3.92066428 20 4 C12.91697905 8.01371187 3.9787809 8.30687619 -4 8 C-2.68 7.34 -1.36 6.68 0 6 C-0.2784375 4.7934375 -0.2784375 4.7934375 -0.5625 3.5625 C-0.706875 2.716875 -0.85125 1.87125 -1 1 C-0.67 0.67 -0.34 0.34 0 0 Z " fill="#6F4122" transform="translate(584,294)"/>
<path d="M0 0 C3.89569135 -0.08732726 7.79112982 -0.14050185 11.6875 -0.1875 C12.79029297 -0.21263672 13.89308594 -0.23777344 15.02929688 -0.26367188 C16.09599609 -0.27333984 17.16269531 -0.28300781 18.26171875 -0.29296875 C19.24100342 -0.3086792 20.22028809 -0.32438965 21.22924805 -0.34057617 C24.4966933 0.06105271 26.35539654 1.07199121 29 3 C30.12256131 5.24512262 30.13413762 6.51456649 30.125 9 C30.12886719 10.051875 30.12886719 10.051875 30.1328125 11.125 C30 13 30 13 29 15 C28.34 14.67 27.68 14.34 27 14 C27.33 13.34 27.66 12.68 28 12 C28.349104 7.90814871 28.349104 7.90814871 27 4.125 C24.26691443 2.58763936 22.02104893 2.81698586 18.9375 2.9921875 C17 3 17 3 14 2 C11.60745424 1.77439324 9.21071877 1.59151405 6.8125 1.4375 C5.54019531 1.35371094 4.26789063 1.26992188 2.95703125 1.18359375 C1.98121094 1.12300781 1.00539062 1.06242188 0 1 C0 0.67 0 0.34 0 0 Z " fill="#62707C" transform="translate(149,527)"/>
<path d="M0 0 C0 0.99 0 1.98 0 3 C-2.30078125 5.04296875 -2.30078125 5.04296875 -5.3125 7.1875 C-6.29863281 7.90292969 -7.28476562 8.61835938 -8.30078125 9.35546875 C-11 11 -11 11 -14 11 C-12.50610707 7.16341134 -10.36376981 5.53814574 -7 3.25 C-6.113125 2.63640625 -5.22625 2.0228125 -4.3125 1.390625 C-2 0 -2 0 0 0 Z " fill="#CC5D3E" transform="translate(494,283)"/>
<path d="M0 0 C0.33 0 0.66 0 1 0 C0.50010219 10.33122132 -3.03539278 17.77902018 -10.64453125 24.8203125 C-11.31548828 25.40425781 -11.31548828 25.40425781 -12 26 C-12 22.27870632 -11.2177686 21.89515511 -8.6875 19.3125 C-3.62171735 13.73502214 -2.07804688 8.36665368 -1 1 C-0.67 0.67 -0.34 0.34 0 0 Z " fill="#3F4D59" transform="translate(211,455)"/>
<path d="M0 0 C-2.6652464 0.50881977 -5.33178419 1.00720141 -8 1.5 C-9.11568359 1.71462891 -9.11568359 1.71462891 -10.25390625 1.93359375 C-15.25220015 2.84632568 -19.91920316 3.13856719 -25 3 C-25 2.67 -25 2.34 -25 2 C-23.35 1.67 -21.7 1.34 -20 1 C-21.32 0.34 -22.64 -0.32 -24 -1 C-22.97519531 -0.98839844 -21.95039063 -0.97679687 -20.89453125 -0.96484375 C-19.533856 -0.95545978 -18.17317876 -0.94636023 -16.8125 -0.9375 C-16.13896484 -0.92912109 -15.46542969 -0.92074219 -14.77148438 -0.91210938 C-11.82531805 -0.89773783 -9.14055967 -0.96771739 -6.26171875 -1.62890625 C-3.49907937 -2.08218905 -2.32844889 -1.46606041 0 0 Z " fill="#434E58" transform="translate(254,180)"/>
<path d="M0 0 C-0.66 5.61 -1.32 11.22 -2 17 C-4.97 17.33 -7.94 17.66 -11 18 C-7 16 -7 16 -3 16 C-3.0309375 14.205625 -3.0309375 14.205625 -3.0625 12.375 C-3.06882571 8.81995131 -2.69888875 5.49444376 -2 2 C-4.31 2 -6.62 2 -9 2 C-9 1.67 -9 1.34 -9 1 C-5.846632 0.29925156 -3.27275026 0 0 0 Z " fill="#52677C" transform="translate(136,418)"/>
<path d="M0 0 C1.67542976 0.28604898 3.34385343 0.61781233 5 1 C5 2.32 5 3.64 5 5 C3 7 3 7 1 8 C-1.69565202 7.83219837 -4.32405554 7.38844355 -7 7 C-7 6.67 -7 6.34 -7 6 C-3.535 5.505 -3.535 5.505 0 5 C-0.2784375 4.0409375 -0.2784375 4.0409375 -0.5625 3.0625 C-0.706875 2.381875 -0.85125 1.70125 -1 1 C-0.67 0.67 -0.34 0.34 0 0 Z " fill="#8A462B" transform="translate(440,296)"/>
<path d="M0 0 C3.3 1.65 6.6 3.3 10 5 C9.67 5.99 9.34 6.98 9 8 C5.08788267 6.84414715 2.1254959 5.64465038 -1 3 C-0.67 2.01 -0.34 1.02 0 0 Z " fill="#7C4733" transform="translate(615,137)"/>
<path d="M0 0 C0.66 0.33 1.32 0.66 2 1 C1.67 1.33 1.34 1.66 1 2 C4.96 2 8.92 2 13 2 C13 2.33 13 2.66 13 3 C5.94546999 4.20443195 -0.83437211 5.28100502 -8 5 C-5.45378681 2.99940392 -3.01962385 1.20784954 0 0 Z " fill="#212529" transform="translate(260,174)"/>
<path d="M0 0 C0.66 0.33 1.32 0.66 2 1 C-1.96 4.96 -5.92 8.92 -10 13 C-10.66 12.01 -11.32 11.02 -12 10 C-10.82630859 9.04287109 -10.82630859 9.04287109 -9.62890625 8.06640625 C-8.61699219 7.24011719 -7.60507812 6.41382812 -6.5625 5.5625 C-5.55316406 4.73878906 -4.54382813 3.91507812 -3.50390625 3.06640625 C-1.70216039 1.58798996 -1.70216039 1.58798996 0 0 Z " fill="#13191F" transform="translate(287,104)"/>
<path d="M0 0 C-1.39750048 3.15835107 -3.05198234 5.32272825 -5.5 7.75 C-6.41265625 8.67039062 -6.41265625 8.67039062 -7.34375 9.609375 C-9 11 -9 11 -11 11 C-9.60249952 7.84164893 -7.94801766 5.67727175 -5.5 3.25 C-4.8915625 2.63640625 -4.283125 2.0228125 -3.65625 1.390625 C-2 0 -2 0 0 0 Z " fill="#A07739" transform="translate(269,464)"/>
<path d="M0 0 C2.0625 0.4375 2.0625 0.4375 4 1 C4.33 2.32 4.66 3.64 5 5 C3.35 5.33 1.7 5.66 0 6 C-0.38218767 4.34385343 -0.71395102 2.67542976 -1 1 C-0.67 0.67 -0.34 0.34 0 0 Z " fill="#77A1CA" transform="translate(631,238)"/>
<path d="M0 0 C1.65 0.33 3.3 0.66 5 1 C4.6875 2.9375 4.6875 2.9375 4 5 C3.01 5.33 2.02 5.66 1 6 C0.34 5.67 -0.32 5.34 -1 5 C-0.67 3.35 -0.34 1.7 0 0 Z " fill="#709ECB" transform="translate(346,236)"/>
<path d="M0 0 C6.22222222 -0.47863248 6.22222222 -0.47863248 9.4375 1.5 C11.7384032 5.18144512 11.34728373 7.69368174 11 12 C10.67 12.66 10.34 13.32 10 14 C9.34 13.67 8.68 13.34 8 13 C8.33 12.34 8.66 11.68 9 11 C9.38938338 6.89294529 9.38938338 6.89294529 7.875 3.1875 C5.33323785 1.57771731 2.9601892 1.32890991 0 1 C0 0.67 0 0.34 0 0 Z " fill="#4C545B" transform="translate(168,528)"/>
<path d="M0 0 C1.32 0.66 2.64 1.32 4 2 C3.67 3.32 3.34 4.64 3 6 C1.35 5.67 -0.3 5.34 -2 5 C-1.125 1.125 -1.125 1.125 0 0 Z " fill="#E8E8E7" transform="translate(584,286)"/>
<path d="M0 0 C1.65 0.33 3.3 0.66 5 1 C4.67 2.32 4.34 3.64 4 5 C2.35 5 0.7 5 -1 5 C-0.67 3.35 -0.34 1.7 0 0 Z " fill="#130D07" transform="translate(584,294)"/>
<path d="M0 0 C-4.52099819 3.01399879 -7.86032065 3.12108347 -13.25 3.0625 C-14.32765625 3.05347656 -15.4053125 3.04445313 -16.515625 3.03515625 C-17.33546875 3.02355469 -18.1553125 3.01195313 -19 3 C-19 2.67 -19 2.34 -19 2 C-12.56971459 0.67611771 -6.5705166 -0.24794402 0 0 Z " fill="#4F6070" transform="translate(227,97)"/>
<path d="M0 0 C1.051875 0.6496875 1.051875 0.6496875 2.125 1.3125 C6.23942462 3.72748837 10.30517827 3.7356314 15 4 C15 4.33 15 4.66 15 5 C7.87399867 5.35368021 2.52940894 4.95671348 -4 2 C-2.3125 0.8125 -2.3125 0.8125 0 0 Z " fill="#624B40" transform="translate(759,305)"/>
<path d="M0 0 C0.66 0.33 1.32 0.66 2 1 C0.68 2.65 -0.64 4.3 -2 6 C-1.34 6.66 -0.68 7.32 0 8 C-0.99 8.33 -1.98 8.66 -3 9 C-5.6875 7.5625 -5.6875 7.5625 -8 6 C-7.01 5.34 -6.02 4.68 -5 4 C-3.32576317 2.67618483 -1.65788785 1.34423339 0 0 Z " fill="#432B16" transform="translate(488,289)"/>
<path d="M0 0 C0.99 1.32 1.98 2.64 3 4 C2.34 4 1.68 4 1 4 C0.731875 4.969375 0.46375 5.93875 0.1875 6.9375 C-0.204375 7.948125 -0.59625 8.95875 -1 10 C-1.99 10.33 -2.98 10.66 -4 11 C-3.71125 10.29875 -3.4225 9.5975 -3.125 8.875 C-1.97866412 5.94547497 -0.97374346 2.99078347 0 0 Z " fill="#537495" transform="translate(68,450)"/>
<path d="M0 0 C1.485 0.99 1.485 0.99 3 2 C2.38461538 9.50769231 2.38461538 9.50769231 0.4375 12 C-0.036875 12.33 -0.51125 12.66 -1 13 C-1.042721 11.33388095 -1.04063832 9.66617115 -1 8 C-0.67 7.67 -0.34 7.34 0 7 C0.04092937 4.66702567 0.04241723 2.33294775 0 0 Z " fill="#654832" transform="translate(631,280)"/>
<path d="M0 0 C0.33 0 0.66 0 1 0 C0.67 5.61 0.34 11.22 0 17 C-0.33 17 -0.66 17 -1 17 C-1.04898438 16.31292969 -1.09796875 15.62585938 -1.1484375 14.91796875 C-1.22320313 14.01691406 -1.29796875 13.11585938 -1.375 12.1875 C-1.44460938 11.29417969 -1.51421875 10.40085938 -1.5859375 9.48046875 C-1.86645036 6.75601501 -1.86645036 6.75601501 -4 4 C-3.01 4 -2.02 4 -1 4 C-0.67 2.68 -0.34 1.36 0 0 Z " fill="#73644E" transform="translate(773,209)"/>
<path d="M0 0 C0.33 0.66 0.66 1.32 1 2 C-0.2363168 2.89422914 -1.48971562 3.76487891 -2.75 4.625 C-3.44609375 5.11226563 -4.1421875 5.59953125 -4.859375 6.1015625 C-7 7 -7 7 -9.265625 6.1484375 C-9.83796875 5.76945312 -10.4103125 5.39046875 -11 5 C-10.37351563 4.72285156 -9.74703125 4.44570313 -9.1015625 4.16015625 C-8.28429687 3.79792969 -7.46703125 3.43570312 -6.625 3.0625 C-5.81289062 2.70285156 -5.00078125 2.34320313 -4.1640625 1.97265625 C-2.76316215 1.3430097 -1.37374716 0.68687358 0 0 Z " fill="#4A6886" transform="translate(197,480)"/>
<path d="M0 0 C-1.44077046 3.36179774 -3.24750021 5.59156268 -6 8 C-6.66 8 -7.32 8 -8 8 C-6.48291727 4.46014029 -4.24676932 0 0 0 Z " fill="#A37837" transform="translate(208,535)"/>
<path d="M0 0 C2 0 2 0 4 1.875 C4.66 2.57625 5.32 3.2775 6 4 C6.66 4.66 7.32 5.32 8 6 C6.53984709 5.71758359 5.08190207 5.42373386 3.625 5.125 C2.81289063 4.96257812 2.00078125 4.80015625 1.1640625 4.6328125 C-1 4 -1 4 -3 2 C-2.01 1.67 -1.02 1.34 0 1 C0 0.67 0 0.34 0 0 Z " fill="#675844" transform="translate(911,279)"/>
<path d="M0 0 C-0.33 1.32 -0.66 2.64 -1 4 C-3.31 4.33 -5.62 4.66 -8 5 C-3.22727273 0 -3.22727273 0 0 0 Z " fill="#979188" transform="translate(795,437)"/>
<path d="M0 0 C1.01176799 2.02353598 1.48320742 3.80363152 2 6 C2.309375 7.051875 2.309375 7.051875 2.625 8.125 C3 10 3 10 2 12 C-0.13503265 8.17473317 -1.50555836 5.42363568 -1 1 C-0.67 0.67 -0.34 0.34 0 0 Z " fill="#583929" transform="translate(379,281)"/>
<path d="M0 0 C0 1.32 0 2.64 0 4 C-0.66 4 -1.32 4 -2 4 C-2 3.34 -2 2.68 -2 2 C-4.31 2 -6.62 2 -9 2 C-9 1.67 -9 1.34 -9 1 C-5.846632 0.29925156 -3.27275026 0 0 0 Z " fill="#5D7185" transform="translate(136,418)"/>
<path d="M0 0 C2 0 2 0 4 1.875 C4.66 2.57625 5.32 3.2775 6 4 C6.66 4.66 7.32 5.32 8 6 C3.545 5.01 3.545 5.01 -1 4 C-0.34 3.67 0.32 3.34 1 3 C0.67 2.01 0.34 1.02 0 0 Z " fill="#64493C" transform="translate(906,378)"/>
<path d="M0 0 C3.64734979 0.22330713 5.38372835 0.38372835 8 3 C4.37 3 0.74 3 -3 3 C-2.01 2.01 -1.02 1.02 0 0 Z " fill="#685840" transform="translate(920,257)"/>
<path d="M0 0 C1.65 0 3.3 0 5 0 C5 1.32 5 2.64 5 4 C3.0625 3.6875 3.0625 3.6875 1 3 C0.67 2.01 0.34 1.02 0 0 Z " fill="#8D513C" transform="translate(619,141)"/>
</svg>
