<?xml version="1.0" encoding="UTF-8"?>
<svg version="1.1" xmlns="http://www.w3.org/2000/svg" width="1008" height="606">
<path d="M0 0 C332.64 0 665.28 0 1008 0 C1008 199.98 1008 399.96 1008 606 C675.36 606 342.72 606 0 606 C0 406.02 0 206.04 0 0 Z " fill="#D6CDC1" transform="translate(0,0)"/>
<path d="M0 0 C3.09423168 3.09423168 3.93706005 6.5523812 4.125 10.875 C4.08375 11.57625 4.0425 12.2775 4 13 C6.97 13 9.94 13 13 13 C12.34 8.71 11.68 4.42 11 0 C11.495 0.99 11.495 0.99 12 2 C13.42372925 1.99214478 13.42372925 1.99214478 14.8762207 1.98413086 C40.81302329 1.85448903 66.59292848 2.08484027 92.4375 4.5 C93.14120728 4.56571198 93.84491455 4.63142395 94.56994629 4.6991272 C107.08522382 5.88474052 107.08522382 5.88474052 111 7 C111.33 8.32 111.66 9.64 112 11 C113.65 11 115.3 11 117 11 C117.66 9.68 118.32 8.36 119 7 C121.79268497 7.68647005 124.58288035 8.38147744 127.37109375 9.0859375 C129.83937144 9.70765653 132.31090364 10.31656496 134.78515625 10.9140625 C143.53683247 13.10420731 151.81269031 15.29958678 158.6875 21.375 C160.5323845 25.06476899 160.10522609 27.06263204 159 31 C156.14776079 35.81148763 152.71746012 39.56214574 148.75 43.4375 C147.8822998 44.29553223 147.8822998 44.29553223 146.99707031 45.17089844 C143.40876436 48.69502005 139.72294646 52.06069066 135.90234375 55.33203125 C123.88207139 65.8386238 123.88207139 65.8386238 118.76171875 80.40625 C118.43559401 92.25593421 120.56475097 100.30438399 127 110.4375 C134.33792037 122.07412745 137.3550998 134.2401378 134.375 147.85546875 C128.7210011 163.7320996 114.38813157 174.51206192 101.7578125 184.73046875 C89.96158396 194.43812991 78.70296729 204.56406112 75 220 C74.54842199 225.4126642 74.61712308 230.76273706 74.75 236.1875 C74.77011616 237.63083431 74.7883578 239.07419601 74.8046875 240.51757812 C74.8482316 244.0122993 74.91696842 247.5059674 75 251 C75.66 251.33 76.32 251.66 77 252 C76.01 252.33 75.02 252.66 74 253 C74 259.93 74 266.86 74 274 C75.65 273.67 77.3 273.34 79 273 C75.73300866 276.26699134 72.73742454 276.11583194 68.29598999 276.12442017 C67.52131378 276.12082489 66.74663757 276.11722961 65.94848633 276.11352539 C65.12874832 276.11367142 64.30901031 276.11381744 63.46443176 276.1139679 C60.75360472 276.11327096 58.0428463 276.10548878 55.33203125 276.09765625 C53.45301857 276.09579129 51.5740054 276.09436776 49.69499207 276.09336853 C44.74824685 276.08954948 39.80153098 276.07972438 34.85479736 276.06866455 C29.80749915 276.0584373 24.76019621 276.05386809 19.71289062 276.04882812 C9.80858086 276.03810159 -0.09570713 276.02103248 -10 276 C-10.00586624 275.33316193 -10.01173248 274.66632385 -10.01777649 273.97927856 C-10.08199459 267.00284104 -10.16648637 260.02685274 -10.26245117 253.05078125 C-10.29558804 250.45155786 -10.32365449 247.85226447 -10.34643555 245.25292969 C-10.38018798 241.50425542 -10.43251586 237.75621629 -10.48828125 234.0078125 C-10.49467117 232.85636749 -10.5010611 231.70492249 -10.50764465 230.51858521 C-10.76923303 215.97650752 -15.58089954 205.31894101 -25.75 194.875 C-29.9657309 190.83677356 -34.39447805 187.12954744 -38.94140625 183.47265625 C-65.72727273 161.81818182 -65.72727273 161.81818182 -71 146 C-71.82598 131.1164757 -69.5461404 120.9687438 -62 108 C-61.07845677 106.39862979 -60.16143464 104.7946451 -59.25 103.1875 C-58.86328125 102.52105469 -58.4765625 101.85460937 -58.078125 101.16796875 C-54.09745702 93.16336466 -53.22405729 82.93992489 -55.8046875 74.30859375 C-60.05483735 66.11606353 -67.42137596 59.36641036 -74 53 C-74.99 53.495 -74.99 53.495 -76 54 C-76.350625 53.31808594 -76.70125 52.63617188 -77.0625 51.93359375 C-80.04369915 47.41972165 -83.99073699 43.96265344 -87.90625 40.25976562 C-91.49223039 36.78394777 -94.18952861 33.76334356 -96 29 C-95.93263528 25.09284626 -95.62582909 22.85761764 -93.3125 19.6875 C-90.64592242 17.74161906 -88.17102591 16.86482525 -85 16 C-86.98 13.36 -88.96 10.72 -91 8 C-86.14285714 10.42857143 -86.14285714 10.42857143 -84 13 C-84 13.66 -84 14.32 -84 15 C-83.37738281 14.75765625 -82.75476563 14.5153125 -82.11328125 14.265625 C-56.25619278 4.88927493 -27.22747178 3.67797116 0 3 C0 2.01 0 1.02 0 0 Z " fill="#DC6543" transform="translate(474,268)"/>
<path d="M0 0 C8.82448493 6.9707638 14.28331764 17.65316869 16.09765625 28.66015625 C17.2725977 41.69748737 13.33441602 53.02507535 5.12890625 63.0703125 C-1.3345642 70.08411467 -9.38324932 75.13154255 -18.90234375 76.66015625 C-18.53882813 76.221875 -18.1753125 75.78359375 -17.80078125 75.33203125 C-7.7286858 62.62569545 -4.56577246 50.59339711 -5.90234375 34.66015625 C-6.72575978 30.93831581 -8.00395772 27.95108877 -9.90234375 24.66015625 C-10.30324219 23.89574219 -10.70414063 23.13132813 -11.1171875 22.34375 C-16.24542581 13.5588548 -25.06274656 7.37833382 -34.6875 4.28515625 C-46.67041421 1.9555496 -58.81386086 2.61628808 -69.3203125 9.16796875 C-79.0128164 16.14916921 -84.77250834 25.14081462 -87.65234375 36.66015625 C-87.73484375 37.65015625 -87.81734375 38.64015625 -87.90234375 39.66015625 C-87.96550781 40.36269531 -88.02867187 41.06523438 -88.09375 41.7890625 C-88.63712959 52.70923948 -84.95808321 63.33046383 -77.90234375 71.66015625 C-70.41789932 79.62850873 -60.86265781 84.7534249 -49.90234375 85.66015625 C-41.47941343 85.84072348 -34.85193561 84.2585036 -27.265625 80.62109375 C-26.48574219 80.30398437 -25.70585938 79.986875 -24.90234375 79.66015625 C-24.24234375 79.99015625 -23.58234375 80.32015625 -22.90234375 80.66015625 C-34.11734649 86.79445837 -44.3488399 89.45689948 -57.01904297 86.53808594 C-63.10341372 85.40220772 -68.15300274 86.11250932 -74.16015625 87.36328125 C-75.18865692 87.5611322 -76.21715759 87.75898315 -77.27682495 87.96282959 C-80.53094324 88.59344801 -83.77882526 89.25136579 -87.02734375 89.91015625 C-89.21319169 90.33773054 -91.39938816 90.76352714 -93.5859375 91.1875 C-101.71127765 92.77328983 -109.82314994 94.39804237 -117.90066528 96.2130127 C-122.84314731 97.31708561 -127.81058101 98.29754563 -132.77734375 99.28515625 C-133.88464844 99.51460938 -134.99195313 99.7440625 -136.1328125 99.98046875 C-154.07593174 103.52270616 -154.07593174 103.52270616 -159.21044922 100.13916016 C-159.76877441 99.65108887 -160.32709961 99.16301758 -160.90234375 98.66015625 C-161.36125 99.09328125 -161.82015625 99.52640625 -162.29296875 99.97265625 C-163.21335937 100.80796875 -163.21335937 100.80796875 -164.15234375 101.66015625 C-165.05726563 102.49546875 -165.05726563 102.49546875 -165.98046875 103.34765625 C-167.90234375 104.66015625 -167.90234375 104.66015625 -171.90234375 104.66015625 C-171.90234375 105.32015625 -171.90234375 105.98015625 -171.90234375 106.66015625 C-172.49208984 106.77353836 -173.08183594 106.88692047 -173.68945312 107.0037384 C-201.45699422 112.34322947 -229.22013252 117.70314646 -256.96484375 123.16015625 C-258.10668121 123.3847049 -259.24851868 123.60925354 -260.42495728 123.84060669 C-271.01852253 125.92431662 -281.61143966 128.01131254 -292.20410156 130.09960938 C-342.82671048 140.07888121 -342.82671048 140.07888121 -364.64306641 144.15136719 C-372.81626127 145.67990043 -380.97603049 147.26475261 -389.12890625 148.8984375 C-391.03586526 149.2785192 -392.94284753 149.65848415 -394.84985352 150.03833008 C-398.52155297 150.76981709 -402.19082319 151.51221198 -405.85913086 152.26049805 C-407.52058258 152.59207532 -409.18211804 152.92323338 -410.84375 153.25390625 C-411.60229279 153.4118013 -412.36083557 153.56969635 -413.1423645 153.7323761 C-419.52791883 154.9859215 -419.52791883 154.9859215 -422.90234375 153.66015625 C-422.37125 153.11488281 -421.84015625 152.56960937 -421.29296875 152.0078125 C-412.4878901 142.60823036 -408.31522384 132.220713 -408.65625 119.26171875 C-409.80451233 107.12294551 -415.13740812 97.21124035 -424.4609375 89.41796875 C-435.63607353 81.37187081 -446.54211461 80.6604307 -459.90234375 81.66015625 C-469.96879563 83.50645642 -478.41670358 89.73625475 -484.27734375 98.03515625 C-485.18444387 99.55815674 -486.06050936 101.1001319 -486.90234375 102.66015625 C-487.31484375 103.37300781 -487.72734375 104.08585937 -488.15234375 104.8203125 C-492.47858397 113.57794462 -492.28994535 124.71716014 -490.1015625 134.08984375 C-488.79926286 137.8006435 -487.31718073 141.00881451 -485.203125 144.328125 C-484.77386719 145.09769531 -484.34460938 145.86726562 -483.90234375 146.66015625 C-484.39734375 147.65015625 -484.39734375 147.65015625 -484.90234375 148.66015625 C-494.56813346 138.32000912 -498.4558274 127.34029447 -498.21484375 113.2578125 C-497.11036203 100.54246668 -490.88304316 90.96823246 -481.63671875 82.58203125 C-473.70647573 77.0082033 -465.56425404 74.55111304 -456.13354492 72.7121582 C-454.91396937 72.46286969 -453.69439383 72.21358118 -452.43786144 71.95673847 C-448.59555929 71.17601431 -444.74954695 70.41632227 -440.90234375 69.66015625 C-438.51300194 69.18315975 -436.12372853 68.70582047 -433.73452759 68.2281189 C-426.90100233 66.86991356 -420.0619466 65.54115838 -413.22142649 64.21869159 C-409.71325742 63.53981698 -406.2057171 62.85770682 -402.6980896 62.17604065 C-395.89511335 60.85446059 -389.09159197 59.53570907 -382.28787017 58.21797329 C-374.31368568 56.67341073 -366.34010069 55.12576361 -358.36653435 53.57801366 C-343.53056898 50.69830272 -328.69403919 47.82150995 -313.85720837 44.94626164 C-302.19851647 42.68689885 -290.54004028 40.42642802 -278.88183594 38.16455078 C-278.1591332 38.0243366 -277.43643047 37.88412241 -276.69182765 37.73965931 C-273.80652163 37.1798702 -270.92121594 36.62007939 -268.03591102 36.06028461 C-226.4310659 27.9883972 -184.82616609 19.91664678 -143.2109375 11.8984375 C-142.26758545 11.71665073 -141.3242334 11.53486397 -140.35229492 11.34756851 C-131.57424384 9.65610365 -122.79599651 7.96568038 -114.01669693 6.28070641 C-98.98726237 3.39587132 -83.96382995 0.48889592 -68.9609375 -2.53125 C-66.53891085 -3.01641291 -64.1168735 -3.50152235 -61.69482422 -3.98657227 C-57.41107585 -4.84498788 -53.13068748 -5.71782109 -48.85205078 -6.60131836 C-30.80835744 -10.26678143 -15.69717001 -11.05570701 0 0 Z " fill="#6EB0F2" transform="translate(551.90234375,51.33984375)"/>
<path d="M0 0 C1 2 1 2 0.3125 4.875 C-0.32179317 8.02885885 -0.32179317 8.02885885 1.5 10.4375 C4.02112828 12.32872563 4.02112828 12.32872563 7.625 11.9375 C11.25516924 11.3249155 11.25516924 11.3249155 13 8 C13.07905064 5.66800612 13.08798769 3.33167378 13 1 C15.75439516 3.75439516 15.30989276 5.46603203 15.4140625 9.3203125 C15.45273438 10.57714844 15.49140625 11.83398438 15.53125 13.12890625 C15.5621875 14.44761719 15.593125 15.76632813 15.625 17.125 C15.66318029 18.46486918 15.70223206 19.80471383 15.7421875 21.14453125 C15.8367203 24.42954619 15.92227156 27.71455138 16 31 C16.95773315 30.20662231 16.95773315 30.20662231 17.93481445 29.3972168 C40.77968897 10.74820911 67.66411623 5.38049498 96.73925781 8.27246094 C110.96009518 10.26846714 126.49827542 16.20186089 136.01171875 27.359375 C141.47160664 35.14830598 145.00949091 42.33505921 144 52 C143.93039063 52.69738281 143.86078125 53.39476562 143.7890625 54.11328125 C142.17164927 64.23109956 135.87506304 72.26809275 127.77734375 78.22265625 C106.93855062 91.55831149 81.30837367 92.80161684 57.375 88.9375 C39.59611071 84.84355036 25.1261336 77.47530359 11 66 C10.49762237 68.97036873 10.00023702 71.94137688 9.51171875 74.9140625 C9.15063796 77.0915726 8.76984395 79.26585826 8.375 81.4375 C7.47463824 89.99093676 7.80532281 98.12500299 9.375 106.5625 C9.50100586 107.24111084 9.62701172 107.91972168 9.75683594 108.61889648 C10.44018854 112.0173402 11.24311018 114.99801 13 118 C13.66902344 117.38253906 14.33804688 116.76507813 15.02734375 116.12890625 C38.5882104 95.35106815 65.61341899 91.60354352 96 93 C111.57446388 94.50720618 126.43769431 101.37545105 137 113 C143.43396933 121.3352605 144.92704186 129.59786792 144 140 C142.07005717 149.74038262 136.49564192 156.8985062 128.61328125 162.78125 C126.13097325 164.34818194 123.63304467 165.7028954 121 167 C120.08476562 167.45117188 119.16953125 167.90234375 118.2265625 168.3671875 C96.60998262 178.16129474 69.11823252 178.2233507 46.87304688 170.23632812 C33.99310649 165.33136453 23.01238982 158.51795082 13 149 C6.20459016 160.73752609 6.25357748 176.94565596 9.375 189.875 C10.29124605 193.12350873 11.40816466 196.02396002 13 199 C13.55945313 198.57589844 14.11890625 198.15179688 14.6953125 197.71484375 C26.14558444 189.33884097 38.40827631 183.87726287 52 180 C53.64935547 179.51853516 53.64935547 179.51853516 55.33203125 179.02734375 C77.60847137 173.55370418 105.62841072 175.02109549 125.78125 186.59765625 C134.6439734 192.45719778 140.78186172 199.13569157 143.6875 209.4375 C144.94757337 219.77010166 142.82739051 228.41743201 136.71484375 236.90625 C126.44012135 249.45124136 110.63104271 254.71322971 95 257 C65.39645534 258.70486694 43.44523898 253.87677801 19.36328125 236.26171875 C18.91339844 235.84535156 18.46351562 235.42898438 18 235 C18 234.34 18 233.68 18 233 C16.68 232.34 15.36 231.68 14 231 C14 230.34 14 229.68 14 229 C13.01 229 12.02 229 11 229 C7.7605203 235.78994945 7.87663771 244.41237675 9.65234375 251.6640625 C10.59251307 253.94790729 11.66536499 255.92257705 13 258 C13.474375 258.74636719 13.94875 259.49273437 14.4375 260.26171875 C25.72179887 276.23876691 45.53322069 282.7398108 64 286 C75.81804568 288.00819269 87.56676482 289.4051103 99.56762695 289.44604492 C103.46349201 289.52928123 105.58313219 289.75956141 109.02734375 291.74609375 C111.25913605 294.29608218 111.6338214 295.29061673 111.5 298.625 C111.4896875 299.40101563 111.479375 300.17703125 111.46875 300.9765625 C111 303 111 303 108 305 C108.10699219 304.38511719 108.21398437 303.77023437 108.32421875 303.13671875 C108.44410156 302.32847656 108.56398438 301.52023437 108.6875 300.6875 C108.81511719 299.88699219 108.94273437 299.08648438 109.07421875 298.26171875 C109.21053174 295.93945845 109.21053174 295.93945845 107.70703125 294.23046875 C105.09463684 292.34739269 103.125881 292.60926488 100 293 C98 294 98 294 97 296 C96.60984439 299.12124489 96.44122451 301.09975061 98.125 303.8125 C100.66676215 305.42228269 103.0398108 305.67109009 106 306 C106 306.33 106 306.66 106 307 C80.27793909 307.73143301 53.48996804 305.10086004 30 294 C28.88496094 293.48824219 27.76992187 292.97648437 26.62109375 292.44921875 C18.06185633 288.21507415 11.64413006 282.72430056 5 276 C4.38253906 275.39285156 3.76507813 274.78570312 3.12890625 274.16015625 C-6.18260806 264.2681839 -9.63078742 251.32896106 -9.3203125 238.08203125 C-8.90601281 230.62637766 -6.17031897 224.07913341 -2.6875 217.5625 C-0.82615813 213.63300049 -0.85180689 212.98000618 -2 209 C-2.75840915 207.19400412 -3.55321127 205.40305198 -4.375 203.625 C-12.006464 185.50856807 -12.10462821 165.5791142 -6 147 C-4.54181615 143.45028859 -2.83036583 140.0597864 -0.9765625 136.69921875 C0.26452274 134.08673447 0.26452274 134.08673447 -0.64453125 131.703125 C-1.31548828 130.36507812 -1.31548828 130.36507812 -2 129 C-2.50936913 127.60164732 -2.99838201 126.19579833 -3.47265625 124.78515625 C-3.73240234 124.01623047 -3.99214844 123.24730469 -4.25976562 122.45507812 C-4.52466797 121.66552734 -4.78957031 120.87597656 -5.0625 120.0625 C-5.33126953 119.27681641 -5.60003906 118.49113281 -5.87695312 117.68164062 C-6.13541016 116.91142578 -6.39386719 116.14121094 -6.66015625 115.34765625 C-6.89355713 114.65679932 -7.12695801 113.96594238 -7.36743164 113.25415039 C-12.59879103 94.61225874 -9.9470923 73.00822073 -2.1875 55.625 C0.16996846 50.26121856 0.29855407 46.62706762 -1 41 C-2.29444724 34.36740053 -2.18604798 27.76765235 -2.18530273 21.0402832 C-2.18750388 18.80856659 -2.20573672 16.57733345 -2.22460938 14.34570312 C-2.22754113 12.92448085 -2.22952738 11.50325624 -2.23046875 10.08203125 C-2.23457764 8.79530518 -2.23868652 7.5085791 -2.24291992 6.18286133 C-2 3 -2 3 0 0 Z " fill="#6BA9E7" transform="translate(68,237)"/>
<path d="M0 0 C1.37924904 0.00212242 1.37924904 0.00212242 2.78636169 0.00428772 C5.68964046 0.00983313 8.59283876 0.02237508 11.49609375 0.03515625 C13.4785145 0.04017832 15.46093648 0.04473998 17.44335938 0.04882812 C22.27346795 0.05978461 27.10351726 0.07701083 31.93359375 0.09765625 C31.9777252 2.96110854 32.00982794 5.82386975 32.03515625 8.6875 C32.04877197 9.49102905 32.0623877 10.29455811 32.07641602 11.12243652 C32.16154874 23.98075288 26.87083797 33.81188386 18.43359375 43.22265625 C5.68023423 55.34919659 -13.56747681 58.53444772 -30.19140625 61.59765625 C-56.7888964 66.52791343 -74.38175433 78.44575445 -93.90625 96.76171875 C-119.89142107 121.08376993 -147.61634242 135.48468323 -183.9140625 134.53515625 C-202.85123797 133.63540923 -220.38768615 126.41451307 -238.06640625 120.09765625 C-278.06033179 105.84239566 -317.5714583 102.66711058 -358.42138672 116.07885742 C-363.3348579 117.68134871 -367.91514379 118.6112458 -373.06640625 119.09765625 C-373.27093776 115.72356066 -373.39442074 112.35106633 -373.50390625 108.97265625 C-373.56255859 108.02132812 -373.62121094 107.07 -373.68164062 106.08984375 C-373.84916427 99.19744218 -373.84916427 99.19744218 -371.75170898 96.25048828 C-369.94454846 94.64929749 -368.11715424 93.37026164 -366.06640625 92.09765625 C-365.44612549 91.6814502 -364.82584473 91.26524414 -364.18676758 90.83642578 C-362.24073415 89.56890213 -360.26321567 88.38707765 -358.25390625 87.22265625 C-357.526875 86.79847412 -356.79984375 86.37429199 -356.05078125 85.93725586 C-323.7160649 67.47952194 -290.09237345 62.35321952 -253.83935547 71.7043457 C-245.51662418 74.03101443 -237.58705151 77.38816698 -229.69384766 80.8828125 C-223.55929397 83.50305477 -219.61621151 84.68216004 -213.06640625 83.09765625 C-213.39640625 83.75765625 -213.72640625 84.41765625 -214.06640625 85.09765625 C-214.72640625 85.09765625 -215.38640625 85.09765625 -216.06640625 85.09765625 C-216.06640625 85.75765625 -216.06640625 86.41765625 -216.06640625 87.09765625 C-215.38578125 87.2678125 -214.70515625 87.43796875 -214.00390625 87.61328125 C-213.03453125 87.855625 -212.06515625 88.09796875 -211.06640625 88.34765625 C-209.97199219 88.61707031 -208.87757813 88.88648438 -207.75 89.1640625 C-205.20769452 89.80840079 -202.68736605 90.47752818 -200.1640625 91.1875 C-180.07852922 96.73744999 -162.93976201 93.2402314 -144.99365234 83.20507812 C-135.32727907 77.65064828 -126.53660515 71.36946163 -118.06640625 64.09765625 C-116.9318553 63.14740293 -115.7963926 62.19823742 -114.66015625 61.25 C-108.02293329 55.67709181 -101.80368254 49.91623287 -95.74609375 43.71484375 C-92.11760477 40.17098425 -88.25553985 37.0282027 -84.28125 33.875 C-82.03341846 32.13729302 -82.03341846 32.13729302 -80.06640625 30.09765625 C-80.72125 30.05801758 -81.37609375 30.01837891 -82.05078125 29.97753906 C-85.05742849 29.78537693 -88.06160392 29.56671839 -91.06640625 29.34765625 C-92.09636719 29.28578125 -93.12632812 29.22390625 -94.1875 29.16015625 C-100.72268271 28.66065184 -105.53858556 27.72202925 -111.06640625 24.09765625 C-112.10534334 21.38383476 -112.16701972 20.40723617 -111.25390625 17.59765625 C-106.88868118 12.6088276 -100.43468156 11.05455064 -94.00390625 10.34765625 C-92.02631792 10.23281047 -90.04653624 10.15360587 -88.06640625 10.09765625 C-87.42219727 10.07719238 -86.77798828 10.05672852 -86.11425781 10.03564453 C-77.80209159 9.80206996 -69.93824883 9.92699362 -61.77734375 11.7578125 C-55.3520153 12.56329316 -50.34158339 10.49745603 -44.69140625 7.72265625 C-36.35493746 3.84811192 -28.13695742 2.23007563 -19.06640625 1.09765625 C-18.07199524 0.96652687 -18.07199524 0.96652687 -17.05749512 0.83274841 C-11.35015005 0.12888701 -5.74626071 -0.03400194 0 0 Z " fill="#6EB0F1" transform="translate(921.06640625,422.90234375)"/>
<path d="M0 0 C16.5 0 33 0 50 0 C50 47.19 50 94.38 50 143 C-6.76 143 -63.52 143 -122 143 C-115.38387356 135.28118582 -109.28402898 130.61833864 -100.34936523 126.06884766 C-85.64224521 118.57252655 -77.94134986 108.02790215 -72.5 92.5 C-66.02143013 74.03886292 -55.72468264 64.02838698 -38.81201172 54.97851562 C-24.95852163 47.49740699 -16.84610492 36.75604353 -11.546875 22.03125 C-11.29832764 21.34240723 -11.04978027 20.65356445 -10.79370117 19.94384766 C-10.32627056 18.62130775 -9.87430176 17.29313464 -9.44262695 15.95849609 C-7.20432865 9.47715552 -4.30351271 6.1478753 0 0 Z " fill="#DA9C3D" transform="translate(320,401)"/>
<path d="M0 0 C16.4501397 15.01860082 28.39131993 36.52645539 29.71704102 59.02490234 C30.81504165 87.80603995 24.25102355 110.33748914 5.0703125 132.16796875 C-8.10575913 146.12484462 -25.39285033 156.09967018 -44.44140625 159.3359375 C-46.09140625 159.3359375 -47.74140625 159.3359375 -49.44140625 159.3359375 C-49.44140625 175.5059375 -49.44140625 191.6759375 -49.44140625 208.3359375 C-46.80140625 208.3359375 -44.16140625 208.3359375 -41.44140625 208.3359375 C-41.44140625 208.6659375 -41.44140625 208.9959375 -41.44140625 209.3359375 C-42.49199219 209.43390625 -43.54257812 209.531875 -44.625 209.6328125 C-55.54133235 210.75383686 -63.31833285 212.97100257 -72.44140625 219.3359375 C-73.76056445 220.03023129 -75.08790031 220.71124245 -76.44140625 221.3359375 C-76.11140625 220.6759375 -75.78140625 220.0159375 -75.44140625 219.3359375 C-75.32146545 217.42685564 -75.26409337 215.51371502 -75.23608398 213.60107422 C-75.21613876 212.39998016 -75.19619354 211.19888611 -75.17564392 209.96139526 C-75.15893143 208.65929108 -75.14221893 207.35718689 -75.125 206.015625 C-75.10443 204.67326212 -75.08343352 203.33090571 -75.06202698 201.98855591 C-75.00681094 198.45405312 -74.95739967 194.91949193 -74.90917969 191.3848877 C-74.85896121 187.77867428 -74.80327696 184.17254578 -74.74804688 180.56640625 C-74.64047108 173.48965701 -74.53902483 166.41283166 -74.44140625 159.3359375 C-75.45685265 159.2447187 -75.45685265 159.2447187 -76.49281311 159.1516571 C-77.38600754 159.0676918 -78.27920197 158.9837265 -79.19946289 158.8972168 C-80.08267715 158.81577927 -80.96589142 158.73434174 -81.87586975 158.6504364 C-102.34126088 156.14166561 -121.47383708 141.72010711 -134.44140625 126.3359375 C-150.94781674 104.73088021 -156.21154189 79.35660439 -153.125 52.59228516 C-151.64113551 43.65128131 -148.64965341 35.3563615 -144.44140625 27.3359375 C-143.81492187 26.02109375 -143.81492187 26.02109375 -143.17578125 24.6796875 C-132.3475183 3.02316159 -112.02788644 -12.07012159 -89.44140625 -19.6640625 C-57.44564673 -29.22903164 -25.22880496 -21.45730001 0 0 Z M-110.44140625 21.3359375 C-111.13878906 21.99980469 -111.83617187 22.66367188 -112.5546875 23.34765625 C-125.28182452 36.32192214 -130.00997791 53.93588595 -129.9296875 71.67504883 C-129.33554172 90.4100921 -121.00751109 106.47571129 -107.44140625 119.3359375 C-92.68608496 131.92864681 -74.84443606 137.84266261 -55.47802734 136.53857422 C-36.60186754 134.66046194 -20.30939359 125.31200316 -8.3203125 110.76171875 C-6.55725512 108.34651971 -4.96861206 105.90591287 -3.44140625 103.3359375 C-2.9825 102.57023437 -2.52359375 101.80453125 -2.05078125 101.015625 C6.52964368 85.35376505 8.01407857 67.0328768 3.71484375 49.8359375 C-0.46912998 37.17093593 -6.88679664 27.54205071 -16.44140625 18.3359375 C-17.00085938 17.74554688 -17.5603125 17.15515625 -18.13671875 16.546875 C-30.48027343 4.46182408 -48.68963642 0.81722364 -65.22485352 0.91577148 C-83.04877741 1.39182645 -97.93786466 8.70327155 -110.44140625 21.3359375 Z " fill="#DC9D3D" transform="translate(887.44140625,72.6640625)"/>
<path d="M0 0 C0.5671875 0.73089844 1.134375 1.46179688 1.71875 2.21484375 C3.91184182 4.99176823 3.91184182 4.99176823 6.28125 7.25390625 C8.68415677 9.75411382 10.4744095 11.87534863 12 15 C11.62423317 18.43373134 10.67468182 21.00219537 9.25390625 24.140625 C4.33953451 35.34722972 5.99776404 51.80108286 10 63 C10.63932266 64.34665837 11.29690234 65.68551307 12 67 C12.55945313 66.57589844 13.11890625 66.15179688 13.6953125 65.71484375 C25.14558444 57.33884097 37.40827631 51.87726287 51 48 C52.64935547 47.51853516 52.64935547 47.51853516 54.33203125 47.02734375 C76.60847137 41.55370418 104.62841072 43.02109549 124.78125 54.59765625 C133.6439734 60.45719778 139.78186172 67.13569157 142.6875 77.4375 C143.94757337 87.77010166 141.82739051 96.41743201 135.71484375 104.90625 C125.44012135 117.45124136 109.63104271 122.71322971 94 125 C64.39645534 126.70486694 42.44523898 121.87677801 18.36328125 104.26171875 C17.68845703 103.63716797 17.68845703 103.63716797 17 103 C17 102.34 17 101.68 17 101 C15.68 100.34 14.36 99.68 13 99 C13 98.34 13 97.68 13 97 C12.01 97 11.02 97 10 97 C6.7605203 103.78994945 6.87663771 112.41237675 8.65234375 119.6640625 C9.59251307 121.94790729 10.66536499 123.92257705 12 126 C12.474375 126.74636719 12.94875 127.49273437 13.4375 128.26171875 C24.72179887 144.23876691 44.53322069 150.7398108 63 154 C74.81804568 156.00819269 86.56676482 157.4051103 98.56762695 157.44604492 C102.46349201 157.52928123 104.58313219 157.75956141 108.02734375 159.74609375 C110.25913605 162.29608218 110.6338214 163.29061673 110.5 166.625 C110.4896875 167.40101563 110.479375 168.17703125 110.46875 168.9765625 C110 171 110 171 107 173 C107.10699219 172.38511719 107.21398437 171.77023437 107.32421875 171.13671875 C107.44410156 170.32847656 107.56398438 169.52023437 107.6875 168.6875 C107.81511719 167.88699219 107.94273437 167.08648438 108.07421875 166.26171875 C108.21053174 163.93945845 108.21053174 163.93945845 106.70703125 162.23046875 C104.09463684 160.34739269 102.125881 160.60926488 99 161 C97 162 97 162 96 164 C95.60984439 167.12124489 95.44122451 169.09975061 97.125 171.8125 C99.66676215 173.42228269 102.0398108 173.67109009 105 174 C105 174.33 105 174.66 105 175 C79.27793909 175.73143301 52.48996804 173.10086004 29 162 C27.88496094 161.48824219 26.76992187 160.97648438 25.62109375 160.44921875 C17.06185633 156.21507415 10.64413006 150.72430056 4 144 C3.07380859 143.08927734 3.07380859 143.08927734 2.12890625 142.16015625 C-7.18260806 132.2681839 -10.63078742 119.32896106 -10.3203125 106.08203125 C-9.90601281 98.62637766 -7.17031897 92.07913341 -3.6875 85.5625 C-1.82615813 81.63300049 -1.85180689 80.98000618 -3 77 C-3.75840915 75.19400412 -4.55321127 73.40305198 -5.375 71.625 C-13.19659157 53.05722174 -13.45110935 31.56084228 -6.12353516 12.75 C-4.26655793 8.40270247 -2.19711711 4.18439719 0 0 Z " fill="#6BA9E7" transform="translate(69,369)"/>
<path d="M0 0 C3.09423168 3.09423168 3.93706005 6.5523812 4.125 10.875 C4.08375 11.57625 4.0425 12.2775 4 13 C6.97 13 9.94 13 13 13 C12.34 8.71 11.68 4.42 11 0 C11.495 0.99 11.495 0.99 12 2 C13.42372925 1.99214478 13.42372925 1.99214478 14.8762207 1.98413086 C40.81302329 1.85448903 66.59292848 2.08484027 92.4375 4.5 C93.14120728 4.56571198 93.84491455 4.63142395 94.56994629 4.6991272 C107.08522382 5.88474052 107.08522382 5.88474052 111 7 C111.33 8.32 111.66 9.64 112 11 C113.65 11 115.3 11 117 11 C117.66 9.68 118.32 8.36 119 7 C121.79268497 7.68647005 124.58288035 8.38147744 127.37109375 9.0859375 C129.83937144 9.70765653 132.31090364 10.31656496 134.78515625 10.9140625 C153.93984754 15.70760681 153.93984754 15.70760681 157.25390625 21.00390625 C158.34739426 23.92941606 158.26752951 25.11284945 157 28 C151.83909533 32.16358471 146.0047081 34.32413379 139.6875 36.0625 C138.34147705 36.43810059 138.34147705 36.43810059 136.96826172 36.82128906 C117.81998093 41.89579518 97.7284738 43.76077054 78 45 C77.03675308 45.06255478 77.03675308 45.06255478 76.05404663 45.12637329 C59.94409109 46.14474578 43.82522171 46.28429054 27.6875 46.3125 C26.9976149 46.31409245 26.3077298 46.31568489 25.59693909 46.31732559 C2.2138513 46.36300859 -20.84150286 45.43168414 -44 42 C-44.78807037 41.88423615 -45.57614075 41.76847229 -46.38809204 41.64920044 C-55.56681189 40.28766241 -64.69244994 38.87813311 -73.6875 36.5625 C-74.48865234 36.37107422 -75.28980469 36.17964844 -76.11523438 35.98242188 C-82.74568973 34.3126495 -90.99346547 31.92270321 -95 26 C-95.1875 23 -95.1875 23 -94 20 C-91.35163531 17.85232117 -88.50161687 16 -85 16 C-86.98 13.36 -88.96 10.72 -91 8 C-86.14285714 10.42857143 -86.14285714 10.42857143 -84 13 C-84 13.66 -84 14.32 -84 15 C-83.37738281 14.75765625 -82.75476563 14.5153125 -82.11328125 14.265625 C-56.25619278 4.88927493 -27.22747178 3.67797116 0 3 C0 2.01 0 1.02 0 0 Z " fill="#E0A03E" transform="translate(474,268)"/>
<path d="M0 0 C15.84 0 31.68 0 48 0 C48 46.53 48 93.06 48 141 C32.16 141 16.32 141 0 141 C0 94.47 0 47.94 0 0 Z " fill="#D6CDC1" transform="translate(321,402)"/>
<path d="M0 0 C10.03058623 6.11027625 18.23344635 14.28916847 21.53271484 25.86987305 C24.2986231 38.47831063 21.89973565 50.90330005 15.25 61.75 C8.27237128 71.49431941 -1.74722913 77.58698541 -13.5625 79.78125 C-25.26552028 80.83152105 -36.91844104 78.28564067 -46.09375 70.74609375 C-55.08057908 62.51430564 -61.08505341 53.15238812 -62.203125 40.74609375 C-62.46358828 27.91827728 -58.64448176 17.09778572 -49.82421875 7.67578125 C-45.33256156 3.47891331 -40.73449982 0.24055892 -35 -2 C-34.11054688 -2.35578125 -33.22109375 -2.7115625 -32.3046875 -3.078125 C-22.02587062 -5.94550181 -9.35269732 -5.15411803 0 0 Z " fill="#F2F2F2" transform="translate(525,58)"/>
<path d="M0 0 C0.82999512 0.00829834 1.65999023 0.01659668 2.51513672 0.02514648 C14.67923586 0.35888129 23.02613478 4.91703714 31.59765625 13.38671875 C39.63854389 22.07634042 43.18307462 31.9326101 42.87109375 43.76953125 C41.80587245 55.31788283 37.38613482 65.72851065 28.88671875 73.76953125 C17.39754443 82.24254927 5.64455231 84.61511608 -8.375 83.4375 C-16.26355758 81.84443363 -23.38444767 77.78327664 -29.375 72.4375 C-30.65234375 70.21875 -30.65234375 70.21875 -31.375 68.4375 C-32.035 68.4375 -32.695 68.4375 -33.375 68.4375 C-34.52582685 66.18993216 -35.67076858 63.93968252 -36.8125 61.6875 C-37.13798828 61.05328125 -37.46347656 60.4190625 -37.79882812 59.765625 C-42.53833374 50.38433553 -43.01576332 39.09620315 -40.50390625 28.90234375 C-36.10971254 17.73676958 -28.82438937 9.37404255 -18.375 3.4375 C-12.2658453 0.79647901 -6.62191045 -0.08604283 0 0 Z " fill="#F2F2F2" transform="translate(101.375,131.5625)"/>
<path d="M0 0 C8.6390231 6.95458037 14.17056072 16.5578389 15.8359375 27.50390625 C16.88258927 40.6545793 14.14668966 51.12381443 6.15625 61.734375 C-1.05538102 69.73526177 -11.84544238 74.98839144 -22.546875 75.7421875 C-35.93664855 76.00774668 -46.30752435 72.65008833 -56.32421875 63.5390625 C-65.07969982 54.4890045 -68.56639282 43.44962713 -68.44140625 31.08984375 C-67.70644946 21.58716298 -64.60247882 13.50866475 -58.1640625 6.50390625 C-57.5659375 5.81554687 -56.9678125 5.1271875 -56.3515625 4.41796875 C-41.27210846 -11.93837454 -17.71459958 -12.24673581 0 0 Z " fill="#F2F2F2" transform="translate(867.1640625,290.49609375)"/>
<path d="M0 0 C2.31753947 1.88968603 4.06190985 3.69524414 6 6 C6 6.66 6 7.32 6 8 C-0.75 12 -0.75 12 -3 12 C-3.30974159 13.32483532 -3.57050858 14.66113159 -3.8125 16 C-3.96332031 16.7425 -4.11414063 17.485 -4.26953125 18.25 C-3.44484863 26.6641531 4.44063275 32.62519797 10.35546875 37.88671875 C12.0947671 39.52349004 13.6376426 41.03765256 15 43 C15.0078125 46.1953125 15.0078125 46.1953125 14 49 C13.7834375 49.65484375 13.566875 50.3096875 13.34375 50.984375 C8.1767589 61.79678231 -0.54288786 69.77181351 -11.69140625 74.02734375 C-23.1862034 77.57552438 -35.12406009 76.93276788 -45.95703125 71.5234375 C-56.24382277 65.35980592 -63.36652966 57.05255428 -66.75 45.421875 C-69.3608141 33.60068896 -68.00069383 21.71259463 -61.6328125 11.2265625 C-54.66632288 1.72680392 -45.85490254 -5.24858128 -34.19140625 -7.72265625 C-21.29633061 -9.35465335 -10.85635716 -7.10354234 0 0 Z " fill="#F2F2F2" transform="translate(383,276)"/>
<path d="M0 0 C7.42231472 4.40342093 13.10680887 10.09684738 15.3125 18.5625 C17.35126757 35.14709008 10.39764359 48.5929028 2.3125 62.5625 C5.7775 62.0675 5.7775 62.0675 9.3125 61.5625 C5.90133135 63.51384679 2.61462303 64.24442084 -1.22851562 64.9987793 C-1.87616379 65.12747406 -2.52381195 65.25616882 -3.19108582 65.38876343 C-5.32416379 65.81082085 -7.45881682 66.22415607 -9.59375 66.63671875 C-11.08065949 66.92745128 -12.56751586 67.21845563 -14.05432129 67.50971985 C-17.1671237 68.11798835 -20.28076543 68.72171982 -23.39501953 69.32250977 C-27.3850332 70.09280704 -31.37234215 70.87622199 -35.35907745 71.66328716 C-38.42740505 72.26720066 -41.49723228 72.86318701 -44.56755066 73.4568882 C-46.03846588 73.74249351 -47.50886219 74.03078496 -48.97871399 74.32181358 C-51.0331495 74.72755191 -53.08940248 75.12233698 -55.14648438 75.5144043 C-56.31578491 75.7415361 -57.48508545 75.96866791 -58.68981934 76.2026825 C-61.44727235 76.533665 -63.10343398 76.48087429 -65.6875 75.5625 C-65.15640625 75.01722656 -64.6253125 74.47195312 -64.078125 73.91015625 C-55.25701023 64.49345526 -51.14690105 54.14746615 -51.4296875 41.1796875 C-52.02288498 35.15783428 -53.64093293 29.51128006 -56.5 24.1875 C-57.6875 21.5625 -57.6875 21.5625 -57.02734375 19.16796875 C-51.91224165 9.2211084 -38.78966743 2.52984393 -28.8359375 -1.62890625 C-19.70835731 -3.97308627 -8.60280292 -3.96629866 0 0 Z " fill="#010101" transform="translate(194.6875,129.4375)"/>
<path d="M0 0 C1.16756836 -0.0103125 2.33513672 -0.020625 3.53808594 -0.03125 C17.72483313 0.11249413 31.78191743 3.00467229 42.46875 12.91015625 C45.78455009 16.51148357 46.7770813 19.55623174 47.3125 24.375 C47.0399419 30.33720835 44.05272681 34.55841953 39.875 38.5625 C24.29531892 51.03958935 0.836328 50.02453154 -17.86523438 48.16503906 C-31.84780405 46.13047719 -46.29995641 39.70661336 -56.125 29.4375 C-56.785 28.7775 -57.445 28.1175 -58.125 27.4375 C-58.03789527 23.98234589 -57.29157381 22.62214691 -54.96484375 20.04296875 C-38.58507424 6.39683506 -21.34542632 0.15666368 0 0 Z " fill="#D6CDC1" transform="translate(148.125,261.5625)"/>
<path d="M0 0 C3.93573116 3.98292218 6.14993333 7.10294731 6.3125 12.75 C6.22973469 18.51046537 4.48691498 21.30526483 0.59765625 25.51953125 C-12.13776237 37.81901867 -30.91413026 37.5530427 -47.38671875 37.31640625 C-55.08563892 37.05691649 -61.78203395 35.80291575 -69 33 C-69.97453125 32.62617188 -70.9490625 32.25234375 -71.953125 31.8671875 C-82.45266945 27.43860869 -91.34660499 21.44285695 -99 13 C-90.12713229 0.73456522 -72.89325932 -8.00602746 -58.203125 -10.69921875 C-38.58699097 -13.37730797 -16.00698842 -13.29005582 0 0 Z " fill="#D6CDC1" transform="translate(189,358)"/>
<path d="M0 0 C4.06608693 3.73893051 6.83887361 7.09870857 7.3125 12.6875 C7.19130385 18.28272235 5.04476396 21.91029618 1.22265625 25.81640625 C-13.93989582 38.88951911 -35.50061635 38.20777987 -54.32128906 36.83007812 C-70.09201706 35.03270822 -86.03406117 25.42419862 -96.1875 13.4375 C-96.785625 12.633125 -97.38375 11.82875 -98 11 C-76.5368952 -12.56218595 -26.08379243 -17.33568974 0 0 Z " fill="#D6CDC1" transform="translate(188,440)"/>
<path d="M0 0 C0.5534764 2.07553648 1 3.84365964 1 6 C1.59167969 6.04898437 2.18335938 6.09796875 2.79296875 6.1484375 C7.19104472 6.56456867 10.96928897 7.04965595 15 9 C15 9.66 15 10.32 15 11 C15.62648438 11.06058594 16.25296875 11.12117188 16.8984375 11.18359375 C17.71570313 11.26738281 18.53296875 11.35117187 19.375 11.4375 C20.59316406 11.55931641 20.59316406 11.55931641 21.8359375 11.68359375 C24 12 24 12 26 13 C26 13.66 26 14.32 26 15 C27.2375 15.061875 28.475 15.12375 29.75 15.1875 C37.12110509 16.02857697 44.39420504 18.45342766 49.75 23.6875 C51.47260693 28.25240838 51.76751191 32.1834712 51 37 C49.18766463 40.83378636 47.69973473 42.53351018 44.1875 44.875 C37.22797872 47.33130163 31.64557525 45.50461475 25.0625 43 C24.28326172 42.71382813 23.50402344 42.42765625 22.70117188 42.1328125 C20.79705683 41.43191126 18.8979805 40.71734696 17 40 C17 39.34 17 38.68 17 38 C16.40832031 37.95101562 15.81664062 37.90203125 15.20703125 37.8515625 C10.80895528 37.43543133 7.03071103 36.95034405 3 35 C3 34.34 3 33.68 3 33 C2.1646875 32.96132813 2.1646875 32.96132813 1.3125 32.921875 C-5.21425983 32.43677799 -10.71913932 30.86518603 -15.7265625 26.4921875 C-17 25 -17 25 -17 23 C-17.60328125 23.27714844 -18.2065625 23.55429687 -18.828125 23.83984375 C-19.62734375 24.20207031 -20.4265625 24.56429688 -21.25 24.9375 C-22.03890625 25.29714844 -22.8278125 25.65679687 -23.640625 26.02734375 C-30.18836288 28.72665953 -34.13109351 28 -42 28 C-42 46.15 -42 64.3 -42 83 C-3.72 83 34.56 83 74 83 C74 86.63 74 90.26 74 94 C73.67 94 73.34 94 73 94 C73 90.7 73 87.4 73 84 C67.36621045 84.0952059 61.73276977 84.20161168 56.09936523 84.31738281 C54.19219397 84.35512008 52.28496474 84.39005663 50.37768555 84.421875 C37.48113483 84.63948092 24.8037398 85.42418359 12 87 C12 86.67 12 86.34 12 86 C4.41883413 85.92991291 -3.16229736 85.87689506 -10.74371529 85.84456348 C-14.26562216 85.82903129 -17.78730439 85.80802686 -21.30908203 85.77368164 C-25.37534509 85.73428311 -29.44137916 85.72018825 -33.5078125 85.70703125 C-34.74798126 85.69154739 -35.98815002 85.67606354 -37.26589966 85.66011047 C-44.75824276 85.65869593 -51.57281613 86.50434331 -58.86105347 88.25639343 C-61.87879461 88.97128682 -64.94093271 89.49015545 -68 90 C-67.67 65.91 -67.34 41.82 -67 17 C-59.08 20.96 -59.08 20.96 -51 25 C-39.1351597 27.96621008 -27.49917588 26.17879866 -16.875 20.375 C-8.90053697 15.30946059 -3.74329689 8.57838872 0 0 Z " fill="#DB9D3E" transform="translate(880,339)"/>
<path d="M0 0 C5.15472774 2.18128791 8.49201856 6.04834433 11 11 C9.9375 14.625 9.9375 14.625 8.9296875 16.57421875 C6.37678808 23.23535546 6.88050403 32.29717369 9.5625 38.875 C10.6666989 40.9812441 10.6666989 40.9812441 12 43 C12.474375 43.74636719 12.94875 44.49273437 13.4375 45.26171875 C24.72179887 61.23876691 44.53322069 67.7398108 63 71 C74.81804568 73.00819269 86.56676482 74.4051103 98.56762695 74.44604492 C102.46349201 74.52928123 104.58313219 74.75956141 108.02734375 76.74609375 C110.25913605 79.29608218 110.6338214 80.29061673 110.5 83.625 C110.4896875 84.40101563 110.479375 85.17703125 110.46875 85.9765625 C110 88 110 88 107 90 C107.10699219 89.38511719 107.21398437 88.77023437 107.32421875 88.13671875 C107.44410156 87.32847656 107.56398438 86.52023437 107.6875 85.6875 C107.81511719 84.88699219 107.94273437 84.08648438 108.07421875 83.26171875 C108.21053174 80.93945845 108.21053174 80.93945845 106.70703125 79.23046875 C104.09463684 77.34739269 102.125881 77.60926488 99 78 C97 79 97 79 96 81 C95.60984439 84.12124489 95.44122451 86.09975061 97.125 88.8125 C99.66676215 90.42228269 102.0398108 90.67109009 105 91 C105 91.33 105 91.66 105 92 C79.27793909 92.73143301 52.48996804 90.10086004 29 79 C27.88496094 78.48824219 26.76992187 77.97648438 25.62109375 77.44921875 C17.06185633 73.21507415 10.64413006 67.72430056 4 61 C3.07380859 60.08927734 3.07380859 60.08927734 2.12890625 59.16015625 C-7.18143366 49.26943152 -10.6181449 36.34088056 -10.328125 23.09765625 C-9.94059924 16.07128879 -7.53643395 9.07824585 -4 3 C-1.875 2.25 -1.875 2.25 0 2 C0 1.34 0 0.68 0 0 Z " fill="#6AA6E2" transform="translate(69,452)"/>
<path d="M0 0 C0.556875 0.474375 1.11375 0.94875 1.6875 1.4375 C4.18346074 3.12395996 6.0446237 3.58953107 9 4 C8.01 4.66 7.02 5.32 6 6 C6.44730469 6.89460937 6.89460938 7.78921875 7.35546875 8.7109375 C7.64542725 9.29149902 7.93538574 9.87206055 8.23413086 10.47021484 C8.87479385 11.75022832 9.51756911 13.02918656 10.16235352 14.30712891 C11.59120905 17.14487095 12.9901798 19.97822992 14.296875 22.875 C18.43604978 31.9471639 23.99443807 37.08638863 32.75 41.75 C48.09426795 49.97596325 56.24540822 63.09465072 62.60546875 78.8984375 C63.83427999 81.63142385 65.09024579 83.71280174 67 86 C65.44997253 89.88397689 62.99523379 92.02979619 59.875 94.75 C58.96492188 95.54921875 58.05484375 96.3484375 57.1171875 97.171875 C56.41851562 97.77515625 55.71984375 98.3784375 55 99 C49.20335332 96.72184192 46.85431864 91.23917698 44 86 C43.01365533 83.6574314 42.05559721 81.30276791 41.125 78.9375 C36.51758318 67.91819502 29.78753914 62.16068281 19.67041016 56.46142578 C5.61362883 48.36276672 -1.63733027 35.9564973 -7.5078125 21.296875 C-9.06192028 17.86319184 -10.83278663 15.06944382 -13 12 C-12.01 11.01 -11.02 10.02 -10 9 C-10.33 8.34 -10.66 7.68 -11 7 C-9.39125 6.38125 -9.39125 6.38125 -7.75 5.75 C-4.47734926 4.36260851 -2.34482838 2.72000092 0 0 Z " fill="#D06242" transform="translate(391,149)"/>
<path d="M0 0 C0 0.66 0 1.32 0 2 C0.59167969 2.04898437 1.18335938 2.09796875 1.79296875 2.1484375 C6.19104472 2.56456867 9.96928897 3.04965595 14 5 C14 5.66 14 6.32 14 7 C15.19625 7.061875 16.3925 7.12375 17.625 7.1875 C26.8146904 8.22316352 35.78911637 10.9692348 42 18 C44.48499142 21.54998775 44.43249013 24.74718041 44 29 C42.64794434 32.55919518 40.72695317 35.3171046 37.9375 37.9375 C26.30600084 42.14463799 14.65054609 36.09605293 3.8125 32 C1.98432464 31.32389437 0.15555237 30.6494005 -1.67382812 29.9765625 C-6.12299252 28.33623026 -10.56348564 26.67422837 -15 25 C-15 24.34 -15 23.68 -15 23 C-17.31 22.34 -19.62 21.68 -22 21 C-22.33 19.35 -22.66 17.7 -23 16 C-23.66 16 -24.32 16 -25 16 C-25 12.7 -25 9.4 -25 6 C-24.34 6 -23.68 6 -23 6 C-22.979375 5.2575 -22.95875 4.515 -22.9375 3.75 C-21.77799236 0.3487776 -20.12139356 -0.68803398 -16.95703125 -2.2734375 C-10.80016701 -4.55921943 -5.69671423 -2.39861652 0 0 Z " fill="#CCC3B8" transform="translate(739,271)"/>
<path d="M0 0 C0.5534764 2.07553648 1 3.84365964 1 6 C1.59167969 6.04898437 2.18335938 6.09796875 2.79296875 6.1484375 C7.19104472 6.56456867 10.96928897 7.04965595 15 9 C15 9.66 15 10.32 15 11 C15.62648438 11.06058594 16.25296875 11.12117188 16.8984375 11.18359375 C17.71570313 11.26738281 18.53296875 11.35117187 19.375 11.4375 C20.59316406 11.55931641 20.59316406 11.55931641 21.8359375 11.68359375 C24 12 24 12 26 13 C26 13.66 26 14.32 26 15 C27.2375 15.061875 28.475 15.12375 29.75 15.1875 C37.12110509 16.02857697 44.39420504 18.45342766 49.75 23.6875 C51.47260693 28.25240838 51.76751191 32.1834712 51 37 C49.18766463 40.83378636 47.69973473 42.53351018 44.1875 44.875 C37.22797872 47.33130163 31.64557525 45.50461475 25.0625 43 C24.28326172 42.71382813 23.50402344 42.42765625 22.70117188 42.1328125 C20.79705683 41.43191126 18.8979805 40.71734696 17 40 C17 39.34 17 38.68 17 38 C16.40832031 37.95101562 15.81664062 37.90203125 15.20703125 37.8515625 C10.80895528 37.43543133 7.03071103 36.95034405 3 35 C3 34.34 3 33.68 3 33 C2.1646875 32.96132813 2.1646875 32.96132813 1.3125 32.921875 C-4.44892842 32.49366073 -9.23744396 31.39690744 -14 28 C-15.875 25.75 -15.875 25.75 -16 23 C-13.97529358 19.33698152 -11.1773471 16.31518285 -8.3984375 13.2109375 C-4.69867344 9.05581786 -2.31534067 5.07593916 0 0 Z " fill="#CCC4B8" transform="translate(880,339)"/>
<path d="M0 0 C1.63820852 2.07289562 3.14252648 4.13280065 4.625 6.3125 C5.04523438 6.90740234 5.46546875 7.50230469 5.8984375 8.11523438 C9 12.62156301 9 12.62156301 9 16 C7.68781556 17.35415196 6.35147138 18.68505488 5 20 C4.05975217 21.55736824 3.164736 23.14278016 2.3125 24.75 C-3.14877587 34.07681371 -11.22828934 40.22680421 -21.625 42.94921875 C-22.95825626 43.27895763 -24.29159116 43.60837866 -25.625 43.9375 C-34.00552208 46.05277355 -37.55874119 48.42748218 -42.0625 55.9375 C-42.5575 56.80246094 -43.0525 57.66742188 -43.5625 58.55859375 C-46.70077428 63.88854328 -49.04702976 66.6188119 -55 69 C-58.3 64.38 -61.6 59.76 -65 55 C-63.700625 53.2984375 -63.700625 53.2984375 -62.375 51.5625 C-60.14936789 48.62093029 -58.13232001 45.63241318 -56.1875 42.5 C-49.38335519 32.2406254 -40.63198553 27.2272215 -28.875 24.5625 C-22.1501211 22.92602757 -18.00406492 21.22098018 -14.26953125 15.21875 C-13.09127356 13.11713363 -11.92454357 11.00901205 -10.76953125 8.89453125 C-8.46721901 5.12849732 -4.8236745 0 0 0 Z " fill="#D3973C" transform="translate(639,171)"/>
<path d="M0 0 C7.50076597 5.1823474 11.49257641 15.35435609 13.5546875 23.9140625 C15.32453994 35.22652139 12.99047412 46.37438978 6.71484375 55.95703125 C-0.30202157 65.32823954 -9.23010206 72.43521712 -21.06640625 74.3359375 C-20.70289063 73.89765625 -20.339375 73.459375 -19.96484375 73.0078125 C-9.89394118 60.30298157 -6.72715719 48.26825734 -8.06640625 32.3359375 C-8.8957238 28.6300728 -10.18926806 25.62377348 -12.06640625 22.3359375 C-12.59492187 21.40523437 -13.1234375 20.47453125 -13.66796875 19.515625 C-15.09214857 17.0924944 -16.55431216 14.7048849 -18.06640625 12.3359375 C-4.64459747 -1.49259276 -4.64459747 -1.49259276 0 0 Z " fill="#050505" transform="translate(554.06640625,53.6640625)"/>
<path d="M0 0 C23.88731577 -0.67124134 23.88731577 -0.67124134 28.86816406 3.63623047 C29.45210937 4.34199219 29.45210937 4.34199219 30.04785156 5.06201172 C21.55175781 10.72607422 21.55175781 10.72607422 19.86450195 11.81738281 C17.9830782 13.06792917 17.9830782 13.06792917 16.08862305 14.66992188 C9.52061981 19.77077307 4.08788839 19.76080645 -4.01464844 19.18701172 C-5.71331055 19.12513672 -5.71331055 19.12513672 -7.44628906 19.06201172 C-14.21143228 18.69952297 -19.27493862 17.8649926 -24.95214844 14.06201172 C-25.98614209 11.34731813 -26.05268741 10.3713624 -25.13964844 7.56201172 C-20.77442337 2.57318307 -14.32042375 1.0189061 -7.88964844 0.31201172 C-5.25978274 0.15928581 -2.63266206 0.08362883 0 0 Z " fill="#050505" transform="translate(834.9521484375,432.93798828125)"/>
<path d="M0 0 C6.8186033 1.15158634 11.63616242 2.86815122 16.8125 7.6875 C18.68427139 11.33252849 19.11343626 14.9233845 19 19 C17.40594023 23.69362043 15.28109703 26.48718218 11 29 C4.42096112 30.86875423 -0.81835448 29.586646 -7 27 C-7 26.01 -7 25.02 -7 24 C-7.350625 23.29875 -7.70125 22.5975 -8.0625 21.875 C-9.41673929 17.72199952 -9.14342263 14.19746758 -8 10 C-6.11419223 6.49778557 -4.07633253 4.33485901 -0.1875 3.125 C0.8953125 3.063125 0.8953125 3.063125 2 3 C2 2.34 2 1.68 2 1 C1.34 0.67 0.68 0.34 0 0 Z " fill="#D1963D" transform="translate(778,381)"/>
<path d="M0 0 C6.99689594 1.20581427 12.98164403 2.68954506 17.9375 8.125 C19.53802004 12.45581893 19.65002973 16.44248821 19 21 C17.18766463 24.83378636 15.69973473 26.53351018 12.1875 28.875 C5.18924315 31.34497301 -0.35427048 29.53170648 -7 27 C-6.34 26.67 -5.68 26.34 -5 26 C-5.495 25.38125 -5.99 24.7625 -6.5 24.125 C-8.62750674 19.69269429 -8.93855624 15.82793331 -8 11 C-6.00982758 7.42541848 -3.78491147 4.55382891 0.203125 3.31640625 C0.79609375 3.21199219 1.3890625 3.10757812 2 3 C2 2.34 2 1.68 2 1 C1.34 0.67 0.68 0.34 0 0 Z " fill="#CF6243" transform="translate(912,355)"/>
<path d="M0 0 C3.56568061 1.54335429 6.31019147 3.24343581 8.9375 6.125 C10.53802004 10.45581893 10.65002973 14.44248821 10 19 C8.18766463 22.83378636 6.69973473 24.53351018 3.1875 26.875 C-4.61617313 29.62923758 -10.68638041 26.96247882 -18 24 C-17.01 23.34 -16.02 22.68 -15 22 C-15.66 21.01 -16.32 20.02 -17 19 C-17.76603375 14.7868144 -17.9475779 10.70817554 -15.83203125 6.89453125 C-11.32843264 1.46474269 -7.25546156 -2.17663847 0 0 Z " fill="#D89A3D" transform="translate(926,258)"/>
<path d="M0 0 C4.5007346 3.63889181 6.72702564 6.58872649 7.375 12.3125 C6.82414791 17.72921221 4.97706877 21.14275358 0.9375 24.9375 C-6.6335571 27.67596746 -13.86739762 26.22985768 -21 23 C-20.01 22.34 -19.02 21.68 -18 21 C-18.515625 20.175 -19.03125 19.35 -19.5625 18.5 C-21.27531453 14.32966898 -21.4692336 11.2128853 -20 7 C-17.77730751 3.41704776 -15.17252412 0.79224603 -11.6875 -1.5625 C-7.51088613 -2.24241389 -3.93057995 -1.51944379 0 0 Z " fill="#D16243" transform="translate(776,284)"/>
<path d="M0 0 C2.89932357 2.39509338 3.50168276 4.31245243 4 8 C4.886875 8.2475 5.77375 8.495 6.6875 8.75 C13.37147467 11.27225459 16.83758935 15.78283523 20 22 C20 22.66 20 23.32 20 24 C7.79454561 24.22510059 -3.92421981 23.88894886 -16 22 C-16.2020691 16.6339427 -15.46587615 14.21525477 -12 10 C-7.78462755 6.50726283 -3.27465451 6.33325704 2 6 C1.34 4.02 0.68 2.04 0 0 Z " fill="#E7A848" transform="translate(469,290)"/>
<path d="M0 0 C2.55293014 2.45996629 4.34243046 4.84272469 6 8 C6 8.99 6 9.98 6 11 C4.27734375 12.4375 4.27734375 12.4375 1.9375 14 C-4.70406148 18.91307939 -8.44497904 25.6666959 -12 33 C-15.9492568 32.44894091 -19.34920174 31.61064629 -23 30 C-21.34693633 19.38657983 -12.97729995 9.87160893 -4.8671875 3.26171875 C-3.28121617 2.12200251 -1.64623768 1.05079001 0 0 Z " fill="#BC5A3E" transform="translate(620,244)"/>
<path d="M0 0 C2.56513849 0.4250112 5.12636902 0.86446925 7.6875 1.3125 C8.7693457 1.48942383 8.7693457 1.48942383 9.87304688 1.66992188 C14.17060441 2.43524034 17.36057684 3.43732926 21 6 C19.53967505 11.31027254 17.01679014 15.46330032 14 20 C6.95992045 19.0026554 0.56098608 17.7758018 -6 15 C-5.56856647 13.62308448 -5.12948836 12.24856381 -4.6875 10.875 C-4.44386719 10.10929688 -4.20023437 9.34359375 -3.94921875 8.5546875 C-2.84423487 5.58078027 -1.45689039 2.81583857 0 0 Z " fill="#C48D3A" transform="translate(374,219)"/>
<path d="M0 0 C-1.875 4.75 -1.875 4.75 -3 7 C-3.495 5.515 -3.495 5.515 -4 4 C-4.60328125 4.27714844 -5.2065625 4.55429687 -5.828125 4.83984375 C-7.02695312 5.38318359 -7.02695312 5.38318359 -8.25 5.9375 C-9.03890625 6.29714844 -9.8278125 6.65679687 -10.640625 7.02734375 C-17.18836288 9.72665953 -21.13109351 9 -29 9 C-29 27.15 -29 45.3 -29 64 C9.28 64 47.56 64 87 64 C87 67.63 87 71.26 87 75 C86.67 75 86.34 75 86 75 C86 71.7 86 68.4 86 65 C80.36621045 65.0952059 74.73276977 65.20161168 69.09936523 65.31738281 C67.19219397 65.35512008 65.28496474 65.39005663 63.37768555 65.421875 C50.48113483 65.63948092 37.8037398 66.42418359 25 68 C25 67.67 25 67.34 25 67 C17.36695736 66.97669324 9.73391847 66.95899237 2.1008482 66.94818783 C-1.44458091 66.94299874 -4.98998543 66.93597448 -8.53540039 66.92456055 C-12.6238629 66.91148272 -16.71230012 66.90673897 -20.80078125 66.90234375 C-22.05643387 66.89718246 -23.31208649 66.89202118 -24.60578918 66.88670349 C-31.79572229 66.88625109 -38.85403471 67.19318363 -46 68 C-40.38308992 65.09103183 -36.5194164 65 -30 65 C-30 46.52 -30 28.04 -30 9 C-31.32 8.67 -32.64 8.34 -34 8 C-33.03320312 7.96261719 -32.06640625 7.92523438 -31.0703125 7.88671875 C-20.51778867 7.35386854 -9.1164131 0 0 0 Z " fill="#84827D" transform="translate(867,358)"/>
<path d="M0 0 C8.1343174 6.93809426 12.05141374 16.50013141 13 27 C13.02308181 28.66650683 13.02986378 30.33360091 13 32 C10.03 32 7.06 32 4 32 C3.01 27.71 2.02 23.42 1 19 C0.34 19 -0.32 19 -1 19 C-2.54296875 17.171875 -2.54296875 17.171875 -4.1875 14.75 C-4.73792969 13.96109375 -5.28835938 13.1721875 -5.85546875 12.359375 C-7 10 -7 10 -6.8671875 7.90625 C-5.85984549 5.69191262 -4.70954881 4.40893932 -2.9375 2.75 C-2.38964844 2.22921875 -1.84179688 1.7084375 -1.27734375 1.171875 C-0.64505859 0.59179688 -0.64505859 0.59179688 0 0 Z " fill="#66A1DC" transform="translate(474,249)"/>
<path d="M0 0 C2.69990662 1.79993774 4.5418865 3.083773 6 6 C6.43023798 9.87214182 6.31669086 11.52496371 4.125 14.8125 C1.61855093 17.39266816 0.74538327 17.91717964 -2.8125 18.3125 C-6.7307645 17.92835642 -8.21293267 16.70743683 -11 14 C-12.42662219 11.14675563 -12.31033868 9.16545451 -12 6 C-8.54235344 0.81353016 -6.24330406 -0.61208863 0 0 Z " fill="#659CD1" transform="translate(341,223)"/>
<path d="M0 0 C3.91936232 0.96265039 5.35438059 1.5186585 7.5625 4.875 C8.12171637 8.78951456 8.19524809 10.9132229 6 14.25 C2.73410572 16.42726285 0.48266134 16.875 -3.4375 16.875 C-6.94699663 14.96766488 -8.14860949 13.72361588 -9.4375 9.9375 C-9.4375 6.27207859 -8.66928648 4.74443977 -6.4375 1.875 C-3.4375 -0.125 -3.4375 -0.125 0 0 Z " fill="#669CD1" transform="translate(646.4375,219.125)"/>
<path d="M0 0 C2.38586603 2.38586603 3.4148152 4.70857882 4.875 7.75 C6.54779177 11.2153637 8.12278137 14.33782645 10.5625 17.3125 C11.036875 18.199375 11.51125 19.08625 12 20 C10.8125 23.5 10.8125 23.5 9 27 C8.60235737 28.98821313 8.24544834 30.98732362 8 33 C-1.18145161 21.77822581 -1.18145161 21.77822581 -3 15 C-3.66 15.66 -4.32 16.32 -5 17 C-4.34122452 12.6520818 -2.72535435 9.02582681 -1 5 C-0.30859478 2.22111387 -0.30859478 2.22111387 0 0 Z " fill="#11151A" transform="translate(69,282)"/>
<path d="M0 0 C2.89932357 2.39509338 3.50168276 4.31245243 4 8 C4.886875 8.2475 5.77375 8.495 6.6875 8.75 C13.37147467 11.27225459 16.83758935 15.78283523 20 22 C20 22.66 20 23.32 20 24 C13.4 24 6.8 24 0 24 C0.66 22.02 1.32 20.04 2 18 C2.26633864 16.21603365 2.47922931 14.42283846 2.625 12.625 C2.74875 11.09875 2.8725 9.5725 3 8 C-0.3 8 -3.6 8 -7 8 C-7 7.67 -7 7.34 -7 7 C-2.545 6.505 -2.545 6.505 2 6 C1.34 4.02 0.68 2.04 0 0 Z " fill="#E7AB51" transform="translate(469,290)"/>
<path d="M0 0 C3.47899158 1.39159663 4.48052501 2.63251488 6 6 C5.56429687 6.57105469 5.12859375 7.14210938 4.6796875 7.73046875 C-0.24049974 14.42916524 -3.73555558 21.37100534 -7 29 C-9.31 28.34 -11.62 27.68 -14 27 C-13.39758696 22.37559398 -11.45878649 18.66016675 -9.25 14.625 C-8.71246094 13.62907837 -8.71246094 13.62907837 -8.1640625 12.61303711 C-5.72846488 8.16292428 -3.12599258 4.005178 0 0 Z " fill="#6DB1F4" transform="translate(558,275)"/>
<path d="M0 0 C4.06877768 1.65109819 6.97714121 4.53595778 10.125 7.5 C10.66253906 7.99886719 11.20007813 8.49773437 11.75390625 9.01171875 C13.86763446 10.97785496 15.95863889 12.95863889 18 15 C16.02 16.98 14.04 18.96 12 21 C9.17131143 19.70396588 7.0298979 18.30810402 4.765625 16.1796875 C4.19199219 15.64472656 3.61835938 15.10976563 3.02734375 14.55859375 C2.44082031 14.00300781 1.85429687 13.44742188 1.25 12.875 C0.64800781 12.31167969 0.04601562 11.74835938 -0.57421875 11.16796875 C-2.05334151 9.78275854 -3.52719641 8.3919271 -5 7 C-3.64062915 4.1394109 -2.35479531 2.14072301 0 0 Z " fill="#F0F0F0" transform="translate(411,242)"/>
<path d="M0 0 C1.7280919 1.62643944 3.36358987 3.28407122 5 5 C5.59683594 5.56976563 6.19367188 6.13953125 6.80859375 6.7265625 C8.71642572 8.79161002 9.97773225 10.37131151 11 13 C10.37015535 17.02431717 8.83917957 20.38892792 7 24 C6.6184375 24.76828125 6.236875 25.5365625 5.84375 26.328125 C5.5653125 26.87984375 5.286875 27.4315625 5 28 C4.773125 27.154375 4.54625 26.30875 4.3125 25.4375 C3.17974645 22.47076452 2.35441285 21.05871011 0.4375 18.6875 C-2.51600446 14.7261231 -3.34724908 10.91491013 -3 6 C-1.5625 2.4375 -1.5625 2.4375 0 0 Z " fill="#070A0D" transform="translate(70,372)"/>
<path d="M0 0 C-0.99 0.66 -1.98 1.32 -3 2 C-1.35 3.65 0.3 5.3 2 7 C0.41452154 11.28079185 -2.54479174 13.20711718 -6 16 C-8.17277152 14.04808712 -10.33822461 12.08902463 -12.5 10.125 C-13.12003906 9.56941406 -13.74007813 9.01382812 -14.37890625 8.44140625 C-14.96542969 7.90644531 -15.55195313 7.37148438 -16.15625 6.8203125 C-16.70087891 6.32805176 -17.24550781 5.83579102 -17.80664062 5.32861328 C-19 4 -19 4 -19 2 C-12.56971459 0.67611771 -6.5705166 -0.24794402 0 0 Z " fill="#0E0B06" transform="translate(431,275)"/>
<path d="M0 0 C5.27315333 0.4452885 10.01770224 1.08373163 15 3 C14.2575 3.66 13.515 4.32 12.75 5 C9.53819246 8.17520574 7.81524279 11.91316847 6 16 C4.3501725 15.57781184 2.70516335 15.13675575 1.0625 14.6875 C0.14597656 14.44386719 -0.77054688 14.20023437 -1.71484375 13.94921875 C-2.84599609 13.47935547 -2.84599609 13.47935547 -4 13 C-5 10 -5 10 -4.00390625 7.51953125 C-3.52824219 6.62621094 -3.05257812 5.73289062 -2.5625 4.8125 C-2.08941406 3.91144531 -1.61632812 3.01039063 -1.12890625 2.08203125 C-0.75636719 1.39496094 -0.38382813 0.70789063 0 0 Z " fill="#0D0A06" transform="translate(605,279)"/>
<path d="M0 0 C2.0625 2.125 2.0625 2.125 3 5 C2.93058104 8.47094801 2.61574088 10.26584741 0.375 12.9375 C-3.11319754 14.49800943 -5.36432898 13.99154664 -9 13 C-11 11.3125 -11 11.3125 -12 9 C-11.87426834 5.9195743 -11.45859649 3.80928792 -9.9375 1.125 C-6.75794558 -0.72119289 -3.5608293 -0.78471498 0 0 Z " fill="#EDEDED" transform="translate(79,236)"/>
<path d="M0 0 C2.375 1.625 2.375 1.625 4 4 C4.61195145 7.6717087 4.48706506 9.28813568 2.375 12.375 C-0.71186432 14.48706506 -2.3282913 14.61195145 -6 14 C-8.375 12.375 -8.375 12.375 -10 10 C-10.61195145 6.3282913 -10.48706506 4.71186432 -8.375 1.625 C-5.28813568 -0.48706506 -3.6717087 -0.61195145 0 0 Z " fill="#F0F0F0" transform="translate(174,529)"/>
<path d="M0 0 C5.18305928 2.2560191 8.8341555 5.74323843 11 11 C10.40904344 15.66489606 8.900278 19.71609802 7 24 C1.36520752 18.4478984 -1.35319168 14.27824101 -2.1171875 6.3671875 C-1.9878237 3.75403876 -1.32575393 2.2301442 0 0 Z " fill="#090C0F" transform="translate(69,452)"/>
<path d="M0 0 C3.3 1.65 6.6 3.3 10 5 C8.68938409 9.23429756 7.05643741 13.07407404 5 17 C0.87248551 16.39301257 -2.3321148 14.96189209 -6 13 C-4.58707905 8.1725201 -2.57025846 4.2837641 0 0 Z " fill="#B85A3E" transform="translate(621,126)"/>
<path d="M0 0 C2.64 0 5.28 0 8 0 C8 19.14 8 38.28 8 58 C8.66 58.33 9.32 58.66 10 59 C8.68 60.32 7.36 61.64 6 63 C5.34 62.67 4.68 62.34 4 62 C4.495 61.505 4.495 61.505 5 61 C5.12344027 59.12903889 5.17792394 57.25349072 5.20532227 55.37866211 C5.22526749 54.17749252 5.24521271 52.97632294 5.26576233 51.73875427 C5.29083107 49.77785606 5.29083107 49.77785606 5.31640625 47.77734375 C5.33696958 46.43355153 5.35796588 45.08976588 5.37937927 43.74598694 C5.43466419 40.20325013 5.48404498 36.66045433 5.53222656 33.11761475 C5.58239487 29.5047885 5.63810525 25.89204828 5.69335938 22.27929688 C5.80101937 15.18627253 5.9024468 8.09317112 6 1 C4.02 1 2.04 1 0 1 C0 0.67 0 0.34 0 0 Z " fill="#967545" transform="translate(807,231)"/>
<path d="M0 0 C-1.875 4.75 -1.875 4.75 -3 7 C-3.495 5.515 -3.495 5.515 -4 4 C-4.60328125 4.27714844 -5.2065625 4.55429687 -5.828125 4.83984375 C-7.02695312 5.38318359 -7.02695312 5.38318359 -8.25 5.9375 C-9.03890625 6.29714844 -9.8278125 6.65679687 -10.640625 7.02734375 C-17.18836288 9.72665953 -21.13109351 9 -29 9 C-29 27.48 -29 45.96 -29 65 C-27.68 65.33 -26.36 65.66 -25 66 C-27.56204544 66.33719047 -30.12454318 66.66987153 -32.6875 67 C-33.40873047 67.09539062 -34.12996094 67.19078125 -34.87304688 67.2890625 C-38.60992871 67.76683735 -42.22291531 68.11919794 -46 68 C-40.53616358 64.96453532 -36.34740918 65 -30 65 C-30 46.52 -30 28.04 -30 9 C-31.32 8.67 -32.64 8.34 -34 8 C-33.03320312 7.96261719 -32.06640625 7.92523438 -31.0703125 7.88671875 C-20.51778867 7.35386854 -9.1164131 0 0 0 Z " fill="#736A5B" transform="translate(867,358)"/>
<path d="M0 0 C0.33 0 0.66 0 1 0 C1.02578125 1.17175781 1.0515625 2.34351563 1.078125 3.55078125 C1.40628905 13.75320603 2.0714987 22.81758896 7.6953125 31.66796875 C8.12585938 32.43753906 8.55640625 33.20710938 9 34 C8.67 34.66 8.34 35.32 8 36 C-2 25.03333333 -2 25.03333333 -2 19 C-1.34 19 -0.68 19 0 19 C-0.08378906 18.21496094 -0.16757812 17.42992187 -0.25390625 16.62109375 C-0.81293539 10.85389441 -1.16353027 5.68837021 0 0 Z " fill="#667686" transform="translate(59,164)"/>
<path d="M0 0 C0.763125 0.20625 1.52625 0.4125 2.3125 0.625 C2.6425 2.935 2.9725 5.245 3.3125 7.625 C0.3125 9.625 0.3125 9.625 -2.3125 9.3125 C-4.6875 8.625 -4.6875 8.625 -5.6875 7.625 C-5.9375 4.6875 -5.9375 4.6875 -5.6875 1.625 C-2.6875 -0.375 -2.6875 -0.375 0 0 Z " fill="#A77B3A" transform="translate(593.6875,93.375)"/>
<path d="M0 0 C3.125 0.375 3.125 0.375 6 1 C6.625 3.875 6.625 3.875 7 7 C5 9 5 9 1.9375 9.1875 C-1 9 -1 9 -2 8 C-2.1875 5.0625 -2.1875 5.0625 -2 2 C-1.34 1.34 -0.68 0.68 0 0 Z " fill="#AB573D" transform="translate(544,247)"/>
<path d="M0 0 C2.75439516 2.75439516 2.30989276 4.46603203 2.4140625 8.3203125 C2.45273438 9.57714844 2.49140625 10.83398438 2.53125 12.12890625 C2.5621875 13.44761719 2.593125 14.76632813 2.625 16.125 C2.66318029 17.46486918 2.70223206 18.80471383 2.7421875 20.14453125 C2.8367203 23.42954619 2.92227156 26.71455138 3 30 C3.45375 29.505 3.9075 29.01 4.375 28.5 C6 27 6 27 8 27 C6.84826645 29.46800047 5.95216435 31.04783565 4 33 C3.75746187 35.21072977 3.75746187 35.21072977 3.875 37.625 C3.89304687 38.44226563 3.91109375 39.25953125 3.9296875 40.1015625 C3.95289062 40.72804688 3.97609375 41.35453125 4 42 C0.02679152 38.02679152 0.80413791 32.19133671 0.68359375 26.85546875 C0.66281265 26.08568192 0.64203156 25.31589508 0.62062073 24.52278137 C0.55553951 22.07777333 0.49643409 19.63266317 0.4375 17.1875 C0.39427532 15.52407823 0.35065979 13.86066656 0.30664062 12.19726562 C0.19990093 8.13161352 0.09851829 4.06585929 0 0 Z " fill="#434D56" transform="translate(81,238)"/>
<path d="M0 0 C8.09678324 -0.2703935 16.00619109 0.1667939 24.0625 0.9375 C25.43668091 1.06777588 25.43668091 1.06777588 26.83862305 1.20068359 C30.65335941 1.58325332 34.29283105 1.99269162 38 3 C37.67 4.32 37.34 5.64 37 7 C37 6.01 37 5.02 37 4 C29.74 3.67 22.48 3.34 15 3 C15.99 3.99 16.98 4.98 18 6 C17.67 6.99 17.34 7.98 17 9 C16.38125 8.195625 15.7625 7.39125 15.125 6.5625 C13.25835959 3.96125481 13.25835959 3.96125481 11 3 C11 2.34 11 1.68 11 1 C7.37 1 3.74 1 0 1 C0 0.67 0 0.34 0 0 Z " fill="#685333" transform="translate(547,272)"/>
<path d="M0 0 C2.21460369 1.82945522 2.94372483 2.67038832 3.4375 5.5625 C3.73987379 8.17317795 3.73987379 8.17317795 6.0625 9.3125 C6.701875 9.539375 7.34125 9.76625 8 10 C7.01 10 6.02 10 5 10 C4.95101563 10.71027344 4.90203125 11.42054688 4.8515625 12.15234375 C4.77679688 13.07144531 4.70203125 13.99054688 4.625 14.9375 C4.55539062 15.85402344 4.48578125 16.77054687 4.4140625 17.71484375 C4.27742188 18.46894531 4.14078125 19.22304688 4 20 C3.34 20.33 2.68 20.66 2 21 C2.33 16.71 2.66 12.42 3 8 C-0.3 8 -3.6 8 -7 8 C-7 7.67 -7 7.34 -7 7 C-2.545 6.505 -2.545 6.505 2 6 C1.34 4.02 0.68 2.04 0 0 Z " fill="#F5D8AB" transform="translate(469,290)"/>
<path d="M0 0 C1.9375 0.8125 1.9375 0.8125 4 2 C4.33 2.99 4.66 3.98 5 5 C4.01 6.485 4.01 6.485 3 8 C1.35 7.67 -0.3 7.34 -2 7 C-2.33 5.35 -2.66 3.7 -3 2 C-2.01 1.34 -1.02 0.68 0 0 Z " fill="#171008" transform="translate(589,283)"/>
<path d="M0 0 C0.66 0.66 1.32 1.32 2 2 C1.45730469 2.47050781 0.91460937 2.94101563 0.35546875 3.42578125 C-0.35996094 4.04839844 -1.07539063 4.67101562 -1.8125 5.3125 C-2.52019531 5.92738281 -3.22789062 6.54226562 -3.95703125 7.17578125 C-4.63121094 7.77777344 -5.30539062 8.37976563 -6 9 C-6.5878125 9.5053125 -7.175625 10.010625 -7.78125 10.53125 C-8.38453125 11.25828125 -8.38453125 11.25828125 -9 12 C-8.76716851 15.14921909 -8.76716851 15.14921909 -8 18 C-9.65 16.35 -11.3 14.7 -13 13 C-12.01 11.68 -11.02 10.36 -10 9 C-10.33 8.34 -10.66 7.68 -11 7 C-9.39125 6.38125 -9.39125 6.38125 -7.75 5.75 C-4.47734926 4.36260851 -2.34482838 2.72000092 0 0 Z " fill="#7D4738" transform="translate(391,149)"/>
<path d="M0 0 C0.66 0 1.32 0 2 0 C2.33 1.98 2.66 3.96 3 6 C4.65 6.33 6.3 6.66 8 7 C8 7.33 8 7.66 8 8 C6.35 8 4.7 8 3 8 C2.566875 9.7015625 2.566875 9.7015625 2.125 11.4375 C1.75375 12.613125 1.3825 13.78875 1 15 C0.01 15.495 0.01 15.495 -1 16 C-0.67 14.02 -0.34 12.04 0 10 C-0.99 10.66 -1.98 11.32 -3 12 C-1.25 8.125 -1.25 8.125 1 7 C0.67 4.69 0.34 2.38 0 0 Z " fill="#334C65" transform="translate(431,120)"/>
<path d="M0 0 C1.65 0 3.3 0 5 0 C5.38218767 1.65614657 5.71395102 3.32457024 6 5 C5 6 5 6 2.4375 6.0625 C1.2309375 6.0315625 1.2309375 6.0315625 0 6 C-1.125 2.25 -1.125 2.25 0 0 Z " fill="#EEEEEE" transform="translate(586,274)"/>
<path d="M0 0 C0.66 0.33 1.32 0.66 2 1 C-2.62 5.62 -7.24 10.24 -12 15 C-12 10.91678393 -10.42111745 9.89782894 -7.6875 6.9375 C-6.88699219 6.05964844 -6.08648437 5.18179688 -5.26171875 4.27734375 C-3 2 -3 2 0 0 Z " fill="#567CA2" transform="translate(73,132)"/>
<path d="M0 0 C-1.875 4.75 -1.875 4.75 -3 7 C-3.33 6.01 -3.66 5.02 -4 4 C-4.58007812 4.27714844 -5.16015625 4.55429687 -5.7578125 4.83984375 C-10.17841841 6.88966266 -14.09514353 8.4969378 -19 9 C-19 8.34 -19 7.68 -19 7 C-18.35933594 6.82984375 -17.71867188 6.6596875 -17.05859375 6.484375 C-11.97342849 5.05961931 -4.84790899 0 0 0 Z " fill="#84807B" transform="translate(867,358)"/>
<path d="M0 0 C1.5625 1.0625 1.5625 1.0625 3 3 C2.6875 6.6875 2.6875 6.6875 2 10 C1.01 10 0.02 10 -1 10 C-2.485 10.7734375 -2.485 10.7734375 -4 11.5625 C-7 13 -7 13 -10 12 C-9.36191406 11.69707031 -8.72382812 11.39414062 -8.06640625 11.08203125 C-7.24011719 10.66308594 -6.41382813 10.24414062 -5.5625 9.8125 C-4.73878906 9.40644531 -3.91507813 9.00039063 -3.06640625 8.58203125 C-0.77441279 7.14415009 -0.77441279 7.14415009 -0.21484375 4.44921875 C0.02912792 2.07771237 0.02912792 2.07771237 0 0 Z " fill="#714829" transform="translate(631,289)"/>
<path d="M0 0 C0.66 0.33 1.32 0.66 2 1 C-2.29 5.29 -6.58 9.58 -11 14 C-11 9.82308582 -8.77013484 7.86318847 -6 5 C-4.05228995 3.24842937 -2.05675499 1.62627139 0 0 Z " fill="#11181F" transform="translate(149,137)"/>
<path d="M0 0 C-1.39750048 3.15835107 -3.05198234 5.32272825 -5.5 7.75 C-6.41265625 8.67039062 -6.41265625 8.67039062 -7.34375 9.609375 C-9 11 -9 11 -11 11 C-9.60249952 7.84164893 -7.94801766 5.67727175 -5.5 3.25 C-4.8915625 2.63640625 -4.283125 2.0228125 -3.65625 1.390625 C-2 0 -2 0 0 0 Z " fill="#A07739" transform="translate(269,464)"/>
<path d="M0 0 C2.77398263 3.46747828 4.95912413 7.06402511 7 11 C6.67 11.66 6.34 12.32 6 13 C-0.51936219 5.88610478 -0.51936219 5.88610478 -2 1 C-1.34 0.67 -0.68 0.34 0 0 Z " fill="#516374" transform="translate(61,187)"/>
<path d="M0 0 C1.25541557 3.76624671 0.37061958 5.37188934 -1 9 C-2.32 9 -3.64 9 -5 9 C-5.3125 6.75 -5.3125 6.75 -5 4 C-2.5 1.6875 -2.5 1.6875 0 0 Z " fill="#5588BB" transform="translate(431,129)"/>
<path d="M0 0 C1.051875 0.6496875 1.051875 0.6496875 2.125 1.3125 C6.23942462 3.72748837 10.30517827 3.7356314 15 4 C15 4.33 15 4.66 15 5 C7.87399867 5.35368021 2.52940894 4.95671348 -4 2 C-2.3125 0.8125 -2.3125 0.8125 0 0 Z " fill="#624B40" transform="translate(759,305)"/>
<path d="M0 0 C1.98 0.495 1.98 0.495 4 1 C3.67 2.65 3.34 4.3 3 6 C1.68 5.67 0.36 5.34 -1 5 C-0.67 3.35 -0.34 1.7 0 0 Z " fill="#8F8D8A" transform="translate(464,237)"/>
<path d="M0 0 C-1.15173355 2.46800047 -2.04783565 4.04783565 -4 6 C-4.24253813 8.21072977 -4.24253813 8.21072977 -4.125 10.625 C-4.10695313 11.44226563 -4.08890625 12.25953125 -4.0703125 13.1015625 C-4.04710938 13.72804688 -4.02390625 14.35453125 -4 15 C-6 13 -6 13 -6.375 9.1875 C-6.30270863 5.88016988 -5.96995307 4.95192491 -4.125 2 C-2 0 -2 0 0 0 Z " fill="#52799F" transform="translate(89,265)"/>
<path d="M0 0 C0.66 0.33 1.32 0.66 2 1 C-1.33333333 4.33333333 -4.66666667 7.66666667 -8 11 C-8.33 10.34 -8.66 9.68 -9 9 C-6 6 -3 3 0 0 Z " fill="#11181E" transform="translate(545,57)"/>
<path d="M0 0 C0.66 0.99 1.32 1.98 2 3 C1.01 4.98 0.02 6.96 -1 9 C-1.66 9 -2.32 9 -3 9 C-3.66 10.32 -4.32 11.64 -5 13 C-4.39254603 8.14036821 -2.27241033 4.2594482 0 0 Z " fill="#4E6984" transform="translate(69,369)"/>
<path d="M0 0 C-1.44077046 3.36179774 -3.24750021 5.59156268 -6 8 C-6.66 8 -7.32 8 -8 8 C-6.48291727 4.46014029 -4.24676932 0 0 0 Z " fill="#A37837" transform="translate(208,535)"/>
<path d="M0 0 C1.98 0.495 1.98 0.495 4 1 C4 2.32 4 3.64 4 5 C2.35 4.67 0.7 4.34 -1 4 C-0.67 2.68 -0.34 1.36 0 0 Z " fill="#9C542F" transform="translate(434,285)"/>
<path d="M0 0 C2 0 2 0 4 1.875 C4.66 2.57625 5.32 3.2775 6 4 C6.66 4.66 7.32 5.32 8 6 C6.53984709 5.71758359 5.08190207 5.42373386 3.625 5.125 C2.81289063 4.96257812 2.00078125 4.80015625 1.1640625 4.6328125 C-1 4 -1 4 -3 2 C-2.01 1.67 -1.02 1.34 0 1 C0 0.67 0 0.34 0 0 Z " fill="#675844" transform="translate(911,279)"/>
<path d="M0 0 C0.99 0.33 1.98 0.66 3 1 C3 2.32 3 3.64 3 5 C1.68 5 0.36 5 -1 5 C-0.67 3.35 -0.34 1.7 0 0 Z " fill="#150F07" transform="translate(437,292)"/>
<path d="M0 0 C2 0 2 0 4 1.875 C4.66 2.57625 5.32 3.2775 6 4 C6.66 4.66 7.32 5.32 8 6 C3.545 5.01 3.545 5.01 -1 4 C-0.34 3.67 0.32 3.34 1 3 C0.67 2.01 0.34 1.02 0 0 Z " fill="#64493C" transform="translate(906,378)"/>
<path d="M0 0 C3.64734979 0.22330713 5.38372835 0.38372835 8 3 C4.37 3 0.74 3 -3 3 C-2.01 2.01 -1.02 1.02 0 0 Z " fill="#685840" transform="translate(920,257)"/>
<path d="M0 0 C0.33 0.66 0.66 1.32 1 2 C2.32 2.66 3.64 3.32 5 4 C0.545 4.495 0.545 4.495 -4 5 C-2.68 3.35 -1.36 1.7 0 0 Z " fill="#20201F" transform="translate(133,201)"/>
<path d="M0 0 C0.99 0 1.98 0 3 0 C3 0.99 3 1.98 3 3 C3.66 3.33 4.32 3.66 5 4 C4.34 4.66 3.68 5.32 3 6 C1.5 4.6875 1.5 4.6875 0 3 C0 2.01 0 1.02 0 0 Z " fill="#638FBB" transform="translate(57,183)"/>
</svg>
