<?xml version="1.0" encoding="UTF-8"?>
<svg version="1.1" xmlns="http://www.w3.org/2000/svg" width="1008" height="606">
<path d="M0 0 C332.64 0 665.28 0 1008 0 C1008 199.98 1008 399.96 1008 606 C675.36 606 342.72 606 0 606 C0 406.02 0 206.04 0 0 Z " fill="#D6CDC1" transform="translate(0,0)"/>
<path d="M0 0 C10.42312662 2.40533691 19.00844826 11.78984304 24.609375 20.50390625 C28 26.4375 28 26.4375 28 29 C28.81267334 28.83773926 29.62534668 28.67547852 30.46264648 28.50830078 C34.54641475 27.92148281 38.47939094 27.85667839 42.59765625 27.8671875 C43.42140244 27.86586823 44.24514862 27.86454895 45.09385681 27.8631897 C47.75011037 27.86128462 50.40625731 27.86757832 53.0625 27.875 C53.96073486 27.87588623 54.85896973 27.87677246 55.78442383 27.87768555 C68.87852907 27.89293444 81.9322518 28.10319375 95 29 C95 27.68 95 26.36 95 25 C93.35 25.33 91.7 25.66 90 26 C89.375 24.125 89.375 24.125 89 22 C89.66 21.34 90.32 20.68 91 20 C94.53571429 20.53571429 94.53571429 20.53571429 96 22 C96.58007812 21.00419922 96.58007812 21.00419922 97.171875 19.98828125 C104.98963021 6.73292898 104.98963021 6.73292898 110 4 C114.84709504 4.26269221 117.78963237 6.88548952 121.3125 9.9375 C121.86228516 10.39318359 122.41207031 10.84886719 122.97851562 11.31835938 C124.36433314 12.49415237 125.68798204 13.74238789 127 15 C127 15.66 127 16.32 127 17 C125.6696875 17.556875 125.6696875 17.556875 124.3125 18.125 C118.84480307 21.21992279 116.15364918 25.22430447 114 31 C119.15792307 31.50255186 124.31643877 31.99708776 129.4765625 32.4765625 C132.70433288 32.77699936 135.92729446 33.0965548 139.1484375 33.4609375 C140.27507812 33.57695312 141.40171875 33.69296875 142.5625 33.8125 C143.53316406 33.92207031 144.50382813 34.03164063 145.50390625 34.14453125 C148.54685787 33.9683353 149.7798012 33.02168691 152 31 C152.32355469 31.76183594 152.64710938 32.52367187 152.98046875 33.30859375 C155.81814916 37.09033805 158.8931899 37.74459189 163.3125 39.0625 C168.86170862 40.77179032 173.30498097 42.54275872 178 46 C178.639375 46.433125 179.27875 46.86625 179.9375 47.3125 C181.3754949 49.59637425 181.20953012 51.38830172 180.69140625 53.984375 C177.06288886 64.5624257 167.14017972 72.19668977 158.96875 79.265625 C150.44724183 86.77266791 140.70800304 95.94852352 139.6640625 107.8203125 C139.3847465 120.90414168 142.46400714 129.66755055 149.13110352 140.93017578 C151.79549884 145.47306112 153.76930205 149.8839581 155 155 C155.18046875 155.74894531 155.3609375 156.49789062 155.546875 157.26953125 C157.48369791 168.94055897 156.54572457 179.91755745 150.08203125 189.98828125 C143.74585241 198.81407372 136.38181758 206.38831362 127.875 213.125 C114.35098791 223.99044561 99.2009014 237.1359217 96 255 C95.98383597 256.66658828 95.98187387 258.3334319 96 260 C96.63800537 259.98428955 97.27601074 259.9685791 97.93334961 259.95239258 C111.32512987 259.66740991 123.91654557 260.01355931 137 263 C137 263.33 137 263.66 137 264 C135.31229485 263.85656032 133.62484514 263.71011431 131.9375 263.5625 C130.99777344 263.48128906 130.05804687 263.40007812 129.08984375 263.31640625 C127.0201927 263.1044698 124.95671296 262.8208497 122.90625 262.46875 C117.45035379 261.81404246 112.05111012 261.895483 106.5625 261.9375 C100.8390625 261.9684375 100.8390625 261.9684375 95 262 C95.33 270.91 95.66 279.82 96 289 C96.66 289.33 97.32 289.66 98 290 C97.01 290.33 96.02 290.66 95 291 C95 297.93 95 304.86 95 312 C96.65 311.67 98.3 311.34 100 311 C96.73300866 314.26699134 93.73742454 314.11583194 89.29598999 314.12442017 C88.52131378 314.12082489 87.74663757 314.11722961 86.94848633 314.11352539 C86.12874832 314.11367142 85.30901031 314.11381744 84.46443176 314.1139679 C81.75360472 314.11327096 79.0428463 314.10548878 76.33203125 314.09765625 C74.45301857 314.09579129 72.5740054 314.09436776 70.69499207 314.09336853 C65.74824685 314.08954948 60.80153098 314.07972438 55.85479736 314.06866455 C50.80749915 314.0584373 45.76019621 314.05386809 40.71289062 314.04882812 C30.80858086 314.03810159 20.90429287 314.02103248 11 314 C10.99120064 312.9688205 10.99120064 312.9688205 10.98222351 311.91680908 C10.92392681 305.38636583 10.85164474 298.8562372 10.76428509 292.32611465 C10.71986564 288.97016227 10.68209684 285.61444786 10.65356445 282.25830078 C10.6197436 278.38545313 10.56741325 274.51321265 10.51171875 270.640625 C10.50532883 269.455755 10.4989389 268.27088501 10.49235535 267.05010986 C10.14102517 246.81113201 2.10429054 235.48020122 -11.96484375 221.796875 C-15.87067019 218.07348833 -19.91057132 214.51944071 -24 211 C-35.40365088 201.10787869 -45.11341948 191.65974157 -50 177 C-51.03829604 160.55747583 -47.93889499 148.55285462 -39.52978516 134.35351562 C-34.08137708 125.08894914 -32.57376953 115.64918754 -34 105 C-37.98891159 90.93739644 -51.2163036 80.39691161 -61.74780273 71.02001953 C-67.087166 66.19359874 -73.24808955 60.2022985 -75 53 C-74.84471575 49.81667278 -74.36491551 48.42188196 -72.2734375 46.00390625 C-54.00861001 29.90449645 -15.93882513 31.13060466 7 29 C3.08632712 23.94925261 -0.82184413 20.42646734 -6.3125 17.1875 C-12.88648796 13.22702407 -12.88648796 13.22702407 -14 11 C-12.60974609 9.93458984 -12.60974609 9.93458984 -11.19140625 8.84765625 C-9.98174158 7.91930895 -8.77210776 6.99092145 -7.5625 6.0625 C-6.64500977 5.35963867 -6.64500977 5.35963867 -5.70898438 4.64257812 C-2.75031115 2.44328176 -2.75031115 2.44328176 0 0 Z " fill="#DD6544" transform="translate(453,230)"/>
<path d="M0 0 C8.5181377 6.63750989 15.1653855 15.71476419 17.25 26.4375 C18.66492834 39.77509463 16.94471532 51.20585409 9 62.30859375 C2.90380123 69.72472842 -3.85384367 73.97880745 -12.75 77.4375 C-12.09 79.0875 -11.43 80.7375 -10.75 82.4375 C-11.19730469 82.05078125 -11.64460938 81.6640625 -12.10546875 81.265625 C-13.36416392 80.18137586 -14.62606593 79.10084183 -15.890625 78.0234375 C-17.3305074 76.79530251 -18.760981 75.55613195 -20.1875 74.3125 C-29.8765822 67.22292766 -39.90177096 65.60349058 -51.75 66.4375 C-62.13679637 68.17593709 -72.3137027 74.04159512 -78.75 82.4375 C-79.47602435 84.05467338 -80.18421224 85.67996413 -80.875 87.3125 C-82.078125 89.625 -82.078125 89.625 -83.75 91.4375 C-86.94861769 92.26053613 -89.85095456 92.31500227 -93.15234375 92.3515625 C-96.6851591 92.43595114 -99.74174213 92.93081645 -103.1875 93.6875 C-110.33051154 95.21340355 -117.50681707 96.41762243 -124.71484375 97.59375 C-136.97215055 99.616208 -149.21221474 101.72668794 -161.4453125 103.890625 C-162.30155212 104.04205082 -163.15779175 104.19347664 -164.03997803 104.34949112 C-168.48284333 105.1355635 -172.92549308 105.92284603 -177.36801147 106.71087646 C-186.78504549 108.38129313 -196.20303119 110.04633121 -205.62109375 111.7109375 C-206.54824251 111.87484608 -207.47539127 112.03875465 -208.43063545 112.20763016 C-223.92657605 114.94651793 -239.42895601 117.64581619 -254.9375 120.3125 C-272.12559071 123.26878762 -289.29398223 126.32259054 -306.45477295 129.43325806 C-324.86956516 132.76862102 -343.30615227 135.96835207 -361.75100708 139.1328125 C-381.10720873 142.45406679 -400.45028401 145.84234949 -419.78279114 149.29878235 C-421.42563082 149.5924489 -423.06852266 149.88582384 -424.71147156 150.17887878 C-428.66038483 150.8834573 -432.60829417 151.59295584 -436.5546875 152.31152344 C-438.07941973 152.58662931 -439.60415899 152.86169618 -441.12890625 153.13671875 C-442.15661888 153.32614296 -442.15661888 153.32614296 -443.20509338 153.51939392 C-456.4325943 155.89272883 -468.52112386 154.13438419 -479.75 146.4375 C-482.52096733 144.20867845 -485.1664068 141.88029793 -487.75 139.4375 C-487.255 138.4475 -487.255 138.4475 -486.75 137.4375 C-486.28851563 137.88480469 -485.82703125 138.33210937 -485.3515625 138.79296875 C-475.09827982 148.29650547 -464.22460415 151.98765382 -450.3515625 151.75 C-437.54186462 150.63852947 -428.69093219 144.37579258 -420.51171875 134.87890625 C-417.73932702 131.03689998 -416.12831876 126.94623764 -414.75 122.4375 C-414.46382812 121.55191406 -414.46382812 121.55191406 -414.171875 120.6484375 C-412.03135951 109.43055078 -413.11669312 97.65123769 -419.328125 87.98046875 C-426.27662916 78.54364891 -434.61703648 72.10687369 -446.23046875 69.80859375 C-451.04758147 69.09909653 -455.89312229 68.74978655 -460.75 68.4375 C-460.75 68.1075 -460.75 67.7775 -460.75 67.4375 C-460.21328076 67.34723101 -459.67656153 67.25696201 -459.12357807 67.1639576 C-425.46953748 61.5009772 -391.84817373 55.67020882 -358.24737549 49.69985962 C-345.00208349 47.34641021 -331.75550252 45.0002275 -318.50902653 42.65345311 C-316.24465322 42.25226686 -313.9802925 41.85100966 -311.71593475 41.44973564 C-270.72680127 34.18620358 -229.72925159 26.97041479 -188.73198366 19.75296497 C-184.97295925 19.09119794 -181.21393834 18.42941099 -177.45491821 17.76761961 C-175.61066251 17.44293428 -173.76640544 17.11825677 -171.92214698 16.79358721 C-167.38053849 15.9940591 -162.83895133 15.19441029 -158.29741001 14.39450073 C-150.36660017 12.99774742 -142.4356687 11.60171526 -134.50388485 10.21050215 C-130.23717791 9.4621014 -125.97060167 8.71295786 -121.70410156 7.96337891 C-120.87194968 7.81718927 -120.0397978 7.67099964 -119.18242919 7.52038002 C-107.57118895 5.47900381 -95.96788542 3.39682043 -84.36911702 1.28579819 C-79.64678985 0.42775013 -74.923198 -0.42331314 -70.19958818 -1.27426821 C-66.5306619 -1.936041 -62.8628418 -2.60296024 -59.19723892 -3.28291893 C-16.70494311 -11.15954361 -16.70494311 -11.15954361 0 0 Z " fill="#6EB2F4" transform="translate(550.75,53.5625)"/>
<path d="M0 0 C3.875 1.75 3.875 1.75 5 4 C5.15441209 6.10374996 5.24992639 8.21195119 5.31640625 10.3203125 C5.35830078 11.57714844 5.40019531 12.83398438 5.44335938 14.12890625 C5.48267578 15.44761719 5.52199219 16.76632812 5.5625 18.125 C5.60569512 19.46485751 5.64930973 20.80470156 5.69335938 22.14453125 C5.79970981 25.42957815 5.90173808 28.71470281 6 32 C6.43062744 31.61328125 6.86125488 31.2265625 7.30493164 30.828125 C28.40487383 12.25396916 55.69117967 7.32773464 83 9 C96.41986048 10.30822539 109.23958577 14.86407705 120 23 C121.5778125 24.11375 121.5778125 24.11375 123.1875 25.25 C129.84994763 31.76439324 133.85309764 39.98349536 134.375 49.3125 C134.14415789 58.97489133 128.80617439 67.50041004 122 74 C103.74631823 89.60347349 79.72600818 89.91309854 57 89 C38.80564226 87.54353906 18.82627106 81.27623775 5.5859375 68.3828125 C3.9354441 66.76452828 3.9354441 66.76452828 1 66 C-1.99796872 81.89994122 -5.55871265 101.07807055 3 116 C3.55945313 115.5153125 4.11890625 115.030625 4.6953125 114.53125 C22.3649945 99.75916858 42.97003736 91.94724782 66 91 C66.81726563 90.95875 67.63453125 90.9175 68.4765625 90.875 C88.46472424 90.34019969 110.45951036 95.16733464 125.3515625 109.1796875 C132.18671373 116.72750853 134.51854373 124.59410382 134.30078125 134.69140625 C133.39957274 144.6046999 128.22539696 151.42420497 121 158 C103.36177974 171.38981173 78.80536083 174.20073829 57.35888672 171.69091797 C36.71639918 168.6703484 18.92678045 160.56595237 3 147 C-3.70645228 157.05967842 -3.30105106 171.13531315 -1.390625 182.68359375 C-0.33953766 187.06491189 0.87111581 191.01991217 3 195 C3.88300781 194.40832031 4.76601562 193.81664062 5.67578125 193.20703125 C17.76716101 185.20034804 29.97361848 179.71103047 44 176 C45.06903564 175.71527832 45.06903564 175.71527832 46.15966797 175.42480469 C54.02806373 173.58637909 61.96380724 173.60160119 70 173.625 C70.73199615 173.62587616 71.46399231 173.62675232 72.21817017 173.62765503 C91.98751835 173.7057627 111.22480012 176.54855207 126.16015625 190.81640625 C131.66696918 197.35209293 134.41274702 204.95745619 134.2734375 213.44140625 C133.22131799 223.28623883 128.15877034 231.56542446 120.74609375 237.9375 C110.90846567 245.26440117 99.92451591 248.72732756 88 251 C86.94554687 251.22945312 85.89109375 251.45890625 84.8046875 251.6953125 C60.82995826 256.17286241 35.37208133 248.92863779 15.5 235.4375 C10.35868021 231.65098745 5.5150254 227.5150254 1 223 C0.01 225.97 -0.98 228.94 -2 232 C-2.99 231.67 -3.98 231.34 -5 231 C-5.75178748 242.77800386 -3.77269448 252.81244181 4.0234375 261.96875 C14.06624588 272.28942265 24.18012988 275.12368904 38.07983398 276.92016602 C45.19578218 277.84009607 52.0520759 279.18245399 59 281 C51.33319411 288.98416822 42.78420316 290.39111991 32 291 C20.38424272 290.77697746 7.38806539 281.46157296 -1 274 C-1.68449219 273.40832031 -2.36898437 272.81664062 -3.07421875 272.20703125 C-12.11588959 263.85424962 -18.22537206 252.76297858 -19.3125 240.46484375 C-19.6400583 230.40266228 -18.01188587 221.68911822 -12.6875 213.0625 C-10.70768918 209.46951 -10.91484039 208.80649251 -12 205 C-12.75840915 203.19400412 -13.55321127 201.40305198 -14.375 199.625 C-21.75189874 182.13426617 -22.41067617 162.49652861 -15.7578125 144.671875 C-14.92699098 142.67593691 -14.07216315 140.68965783 -13.18359375 138.71875 C-10.48669573 133.39071244 -10.48669573 133.39071244 -10.7578125 127.75390625 C-11.20898438 127.03074219 -11.66015625 126.30757813 -12.125 125.5625 C-18.21537487 114.19936224 -19.36646969 103.58190448 -19.4375 90.875 C-19.4475708 89.70791504 -19.4576416 88.54083008 -19.46801758 87.33837891 C-19.3648246 76.93272077 -17.67991275 66.99955256 -13.4375 57.4375 C-13.02371094 56.48746094 -12.60992187 55.53742188 -12.18359375 54.55859375 C-11 52 -11 52 -9.84082031 50.2331543 C-8.63143992 47.02113267 -9.47858158 44.99737223 -10.36328125 41.7109375 C-12.18842654 33.9452614 -12.34592595 26.60316842 -12.1875 18.625 C-12.17239296 17.29168216 -12.15871542 15.95834733 -12.14648438 14.625 C-12.11160627 11.41621435 -12.06260026 8.2083437 -12 5 C-11.70480469 5.61230469 -11.40960938 6.22460938 -11.10546875 6.85546875 C-9.69519647 9.59129731 -8.50177172 11.1743828 -6 13 C-2.37350049 13.08916154 -2.37350049 13.08916154 1 12 C3.32821558 9.18138229 3.32821558 9.18138229 2.75 6 C2.14014017 2.84584582 2.14014017 2.84584582 0 0 Z " fill="#6BAAE7" transform="translate(78,244)"/>
<path d="M0 0 C0.04413145 2.86345229 0.07623419 5.7262135 0.1015625 8.58984375 C0.11517822 9.3933728 0.12879395 10.19690186 0.14282227 11.02478027 C0.22795499 23.88309663 -5.06275578 33.71422761 -13.5 43.125 C-26.25335952 55.25154034 -45.50107056 58.43679147 -62.125 61.5 C-88.72249015 66.43025718 -106.31534808 78.3480982 -125.83984375 96.6640625 C-151.82501482 120.98611368 -179.54993617 135.38702698 -215.84765625 134.4375 C-234.78483172 133.53775298 -252.3212799 126.31685682 -270 120 C-309.99392554 105.74473941 -349.50505205 102.56945433 -390.35498047 115.98120117 C-395.26845165 117.58369246 -399.84873754 118.51358955 -405 119 C-405.20453151 115.62590441 -405.32801449 112.25341008 -405.4375 108.875 C-405.49615234 107.92367187 -405.55480469 106.97234375 -405.61523438 105.9921875 C-405.78275802 99.09978593 -405.78275802 99.09978593 -403.68530273 96.15283203 C-401.87814221 94.55164124 -400.05074799 93.27260539 -398 92 C-397.37971924 91.58379395 -396.75943848 91.16758789 -396.12036133 90.73876953 C-394.1743279 89.47124588 -392.19680942 88.2894214 -390.1875 87.125 C-389.46046875 86.70081787 -388.7334375 86.27663574 -387.984375 85.83959961 C-355.64965865 67.38186569 -322.0259672 62.25556327 -285.77294922 71.60668945 C-277.45021793 73.93335818 -269.52064526 77.29051073 -261.62744141 80.78515625 C-255.49288772 83.40539852 -251.54980526 84.58450379 -245 83 C-245.33 83.66 -245.66 84.32 -246 85 C-246.66 85 -247.32 85 -248 85 C-248 85.66 -248 86.32 -248 87 C-247.319375 87.17015625 -246.63875 87.3403125 -245.9375 87.515625 C-244.968125 87.75796875 -243.99875 88.0003125 -243 88.25 C-241.90558594 88.51941406 -240.81117188 88.78882813 -239.68359375 89.06640625 C-237.14128827 89.71074454 -234.6209598 90.37987193 -232.09765625 91.08984375 C-212.01212297 96.63979374 -194.87335576 93.14257515 -176.92724609 83.10742188 C-167.26087282 77.55299203 -158.4701989 71.27180538 -150 64 C-148.86544905 63.04974668 -147.72998635 62.10058117 -146.59375 61.15234375 C-139.94502487 55.56977782 -133.7221078 49.79199727 -127.64453125 43.58984375 C-124.18754853 40.2043496 -120.51295831 37.17965984 -116.7265625 34.171875 C-114.94683126 32.75420943 -113.19001353 31.30715003 -111.4609375 29.828125 C-77.36749992 0.7817522 -42.88887454 -0.58497101 0 0 Z " fill="#6EB0F1" transform="translate(953,423)"/>
<path d="M0 0 C16.5 0 33 0 50 0 C50 47.19 50 94.38 50 143 C-6.76 143 -63.52 143 -122 143 C-115.38387356 135.28118582 -109.28402898 130.61833864 -100.34936523 126.06884766 C-85.64224521 118.57252655 -77.94134986 108.02790215 -72.5 92.5 C-66.02143013 74.03886292 -55.72468264 64.02838698 -38.81201172 54.97851562 C-24.95852163 47.49740699 -16.84610492 36.75604353 -11.546875 22.03125 C-11.29832764 21.34240723 -11.04978027 20.65356445 -10.79370117 19.94384766 C-10.32627056 18.62130775 -9.87430176 17.29313464 -9.44262695 15.95849609 C-7.20432865 9.47715552 -4.30351271 6.1478753 0 0 Z " fill="#DA9C3D" transform="translate(320,401)"/>
<path d="M0 0 C16.4501397 15.01860082 28.39131993 36.52645539 29.71704102 59.02490234 C30.81504165 87.80603995 24.25102355 110.33748914 5.0703125 132.16796875 C-8.10575913 146.12484462 -25.39285033 156.09967018 -44.44140625 159.3359375 C-46.09140625 159.3359375 -47.74140625 159.3359375 -49.44140625 159.3359375 C-48.94640625 168.2459375 -48.94640625 168.2459375 -48.44140625 177.3359375 C-50.56077862 174.51010768 -52.59618247 171.69907131 -54.56640625 168.7734375 C-55.08460938 168.00902344 -55.6028125 167.24460938 -56.13671875 166.45703125 C-57.44140625 164.3359375 -57.44140625 164.3359375 -58.44140625 161.3359375 C-60.30887696 160.24833981 -60.30887696 160.24833981 -62.44140625 159.3359375 C-63.59194048 158.55111833 -64.73758709 157.75909834 -65.87890625 156.9609375 C-74.37955523 151.63618154 -84.46180834 149.03873718 -94.44140625 150.3359375 C-97.1389223 151.02818709 -99.73224424 151.82203904 -102.34765625 152.77734375 C-104.44140625 153.3359375 -104.44140625 153.3359375 -107.44140625 152.3359375 C-106.78140625 151.6759375 -106.12140625 151.0159375 -105.44140625 150.3359375 C-106.19164062 149.86285156 -106.941875 149.38976562 -107.71484375 148.90234375 C-114.92669285 144.24279893 -121.22396718 139.27076571 -127.44140625 133.3359375 C-128.055 132.79710937 -128.66859375 132.25828125 -129.30078125 131.703125 C-142.97439863 119.22124492 -152.49986097 97.70844988 -153.6184082 79.44604492 C-154.00342602 60.56790024 -153.3576532 44.32925521 -144.44140625 27.3359375 C-143.81492187 26.02109375 -143.81492187 26.02109375 -143.17578125 24.6796875 C-132.3475183 3.02316159 -112.02788644 -12.07012159 -89.44140625 -19.6640625 C-57.44564673 -29.22903164 -25.22880496 -21.45730001 0 0 Z M-110.44140625 21.3359375 C-111.13878906 21.99980469 -111.83617187 22.66367188 -112.5546875 23.34765625 C-125.28182452 36.32192214 -130.00997791 53.93588595 -129.9296875 71.67504883 C-129.33554172 90.4100921 -121.00751109 106.47571129 -107.44140625 119.3359375 C-92.68608496 131.92864681 -74.84443606 137.84266261 -55.47802734 136.53857422 C-36.60186754 134.66046194 -20.30939359 125.31200316 -8.3203125 110.76171875 C-6.55725512 108.34651971 -4.96861206 105.90591287 -3.44140625 103.3359375 C-2.9825 102.57023437 -2.52359375 101.80453125 -2.05078125 101.015625 C6.52964368 85.35376505 8.01407857 67.0328768 3.71484375 49.8359375 C-0.46912998 37.17093593 -6.88679664 27.54205071 -16.44140625 18.3359375 C-17.00085938 17.74554688 -17.5603125 17.15515625 -18.13671875 16.546875 C-30.48027343 4.46182408 -48.68963642 0.81722364 -65.22485352 0.91577148 C-83.04877741 1.39182645 -97.93786466 8.70327155 -110.44140625 21.3359375 Z " fill="#DB9D3D" transform="translate(887.44140625,72.6640625)"/>
<path d="M0 0 C0.99 0 1.98 0 3 0 C3.23074219 0.73605469 3.46148437 1.47210938 3.69921875 2.23046875 C4.02535156 3.20628906 4.35148437 4.18210937 4.6875 5.1875 C5.00074219 6.15042969 5.31398438 7.11335938 5.63671875 8.10546875 C6.83099309 11.17603622 6.83099309 11.17603622 9.63671875 13.171875 C13.26664307 17.51578444 12.41401975 21.60474179 12.125 27.0625 C11.84096322 37.20293039 12.15949887 45.84513916 17 55 C17.88300781 54.40832031 18.76601562 53.81664062 19.67578125 53.20703125 C31.76716101 45.20034804 43.97361848 39.71103047 58 36 C58.71269043 35.81018555 59.42538086 35.62037109 60.15966797 35.42480469 C68.02806373 33.58637909 75.96380724 33.60160119 84 33.625 C84.73199615 33.62587616 85.46399231 33.62675232 86.21817017 33.62765503 C105.98751835 33.7057627 125.22480012 36.54855207 140.16015625 50.81640625 C145.66696918 57.35209293 148.41274702 64.95745619 148.2734375 73.44140625 C147.22131799 83.28623883 142.15877034 91.56542446 134.74609375 97.9375 C124.90846567 105.26440117 113.92451591 108.72732756 102 111 C100.94554687 111.22945313 99.89109375 111.45890625 98.8046875 111.6953125 C74.82995826 116.17286241 49.37208133 108.92863779 29.5 95.4375 C24.35868021 91.65098745 19.5150254 87.5150254 15 83 C14.01 85.97 13.02 88.94 12 92 C10.515 91.505 10.515 91.505 9 91 C8.24821252 102.77800386 10.22730552 112.81244181 18.0234375 121.96875 C28.06624588 132.28942265 38.18012988 135.12368904 52.07983398 136.92016602 C59.19578218 137.84009607 66.0520759 139.18245399 73 141 C65.33319411 148.98416822 56.78420316 150.39111991 46 151 C34.38424272 150.77697746 21.38806539 141.46157296 13 134 C12.31550781 133.40832031 11.63101563 132.81664062 10.92578125 132.20703125 C1.88411041 123.85424962 -4.22537206 112.76297858 -5.3125 100.46484375 C-5.6400583 90.40266228 -4.01188587 81.68911822 1.3125 73.0625 C3.29231082 69.46951 3.08515961 68.80649251 2 65 C1.24159085 63.19400412 0.44678873 61.40305198 -0.375 59.625 C-8.05775294 41.40908143 -8.12703763 21.62160214 -1.3125 3.125 C-0.6628125 1.578125 -0.6628125 1.578125 0 0 Z " fill="#6CAAE7" transform="translate(64,384)"/>
<path d="M0 0 C0.33 0 0.66 0 1 0 C1 46.53 1 93.06 1 141 C39.28 141 77.56 141 117 141 C117 144.63 117 148.26 117 152 C116.67 152 116.34 152 116 152 C116 148.7 116 145.4 116 142 C74.92509447 141.11258612 74.92509447 141.11258612 36 152 C35.04351563 152.4640625 34.08703125 152.928125 33.1015625 153.40625 C21.87255876 159.19771325 11.66949937 166.92312405 2 175 C1.46761719 175.44214844 0.93523437 175.88429688 0.38671875 176.33984375 C-6.88722024 182.39872295 -13.7323342 188.65138051 -20.359375 195.4140625 C-23.79412367 198.77767732 -27.44642404 201.77661864 -31.2109375 204.76171875 C-33.0835321 206.26451526 -34.92247843 207.81014224 -36.7265625 209.39453125 C-53.79752728 224.325747 -76.69855831 238.24131097 -100.16015625 237.53125 C-110.89994339 236.04537914 -121.97837895 233.15700068 -132 229 C-132 228.34 -132 227.68 -132 227 C-129.69309749 225.48762907 -127.37868587 224.07889453 -125 222.6875 C-109.96972602 213.59084942 -97.1719218 201.72424312 -84.48828125 189.66015625 C-41.59722379 149 -41.59722379 149 -25 149 C-25 107.42 -25 65.84 -25 23 C-20.71 20.69 -16.42 18.38 -12 16 C-6.43406073 11.30373874 -3.20049264 6.50422698 0 0 Z " fill="#D6CDC1" transform="translate(837,281)"/>
<path d="M0 0 C3.875 1.75 3.875 1.75 5 4 C5.15441209 6.10374996 5.24992639 8.21195119 5.31640625 10.3203125 C5.35830078 11.57714844 5.40019531 12.83398438 5.44335938 14.12890625 C5.48267578 15.44761719 5.52199219 16.76632812 5.5625 18.125 C5.60569512 19.46485751 5.64930973 20.80470156 5.69335938 22.14453125 C5.79970981 25.42957815 5.90173808 28.71470281 6 32 C6.43062744 31.61328125 6.86125488 31.2265625 7.30493164 30.828125 C28.40487383 12.25396916 55.69117967 7.32773464 83 9 C96.41986048 10.30822539 109.23958577 14.86407705 120 23 C121.5778125 24.11375 121.5778125 24.11375 123.1875 25.25 C129.84994763 31.76439324 133.85309764 39.98349536 134.375 49.3125 C134.14415789 58.97489133 128.80617439 67.50041004 122 74 C103.74631823 89.60347349 79.72600818 89.91309854 57 89 C38.78231931 87.54167205 18.95882258 81.24018661 5.5859375 68.48046875 C3.86159011 66.790515 3.86159011 66.790515 1 65 C1 64.34 1 63.68 1 63 C-0.08732881 61.24690034 -1.21983977 59.52166565 -2.375 57.8125 C-5.16404309 53.53033283 -7.00121 49.99395 -8 45 C-8.66 45 -9.32 45 -10 45 C-12.02993695 36.22458484 -12.24154973 27.79131172 -12.125 18.8125 C-12.1149393 17.46550153 -12.10581897 16.11849569 -12.09765625 14.77148438 C-12.07430604 11.51412979 -12.0415577 8.25716451 -12 5 C-11.70480469 5.61230469 -11.40960938 6.22460938 -11.10546875 6.85546875 C-9.69519647 9.59129731 -8.50177172 11.1743828 -6 13 C-2.37350049 13.08916154 -2.37350049 13.08916154 1 12 C3.32821558 9.18138229 3.32821558 9.18138229 2.75 6 C2.14014017 2.84584582 2.14014017 2.84584582 0 0 Z " fill="#6BA9E6" transform="translate(78,244)"/>
<path d="M0 0 C15.84 0 31.68 0 48 0 C48 46.53 48 93.06 48 141 C32.16 141 16.32 141 0 141 C0 94.47 0 47.94 0 0 Z " fill="#D6CDC1" transform="translate(321,402)"/>
<path d="M0 0 C7.60948484 7.07548591 12.4895902 15.98821126 13.3671875 26.38671875 C13.63962955 39.08221866 11.77504552 49.6721933 3.03125 59.40625 C2.24427734 60.33050781 2.24427734 60.33050781 1.44140625 61.2734375 C-5.13036467 68.47919102 -14.34981374 72.86165398 -24.0546875 73.66015625 C-37.11367699 74.10698702 -47.98661672 70.97273529 -57.96875 62.40625 C-65.44919357 55.42010887 -70.26498562 45.49205348 -71.15234375 35.296875 C-71.52494987 22.9351189 -67.75237182 13.58168273 -60.96875 3.40625 C-60.30875 3.40625 -59.64875 3.40625 -58.96875 3.40625 C-58.96875 2.74625 -58.96875 2.08625 -58.96875 1.40625 C-41.3036356 -13.88836191 -18.32178737 -14.83192311 0 0 Z " fill="#F2F2F2" transform="translate(124.96875,132.59375)"/>
<path d="M0 0 C1.24751901 1.04089061 2.47736872 2.10336937 3.6875 3.1875 C4.29207031 3.68894531 4.89664063 4.19039062 5.51953125 4.70703125 C12.71810082 11.15280923 17.34346893 20.49688765 17.92578125 30.12890625 C18.27778253 44.62224468 15.69996994 55.10840955 5.6875 66.1875 C-3.97006385 74.5880476 -14.34727441 77.61820999 -27.0234375 77.4609375 C-40.71589207 76.32260992 -49.88240433 69.6699073 -58.5859375 59.52734375 C-65.90995093 49.60181424 -66.28616938 38.07581745 -65.3125 26.1875 C-62.97417341 14.73638062 -55.597329 5.96643911 -46.3125 -0.8125 C-31.78479127 -8.86352103 -14.01031573 -10.03041798 0 0 Z " fill="#F2F2F2" transform="translate(529.3125,125.8125)"/>
<path d="M0 0 C9.77729411 6.75001476 16.38469408 16.54093036 19.08984375 28.078125 C20.97500997 39.4968461 18.48770106 50.67645421 12.140625 60.3203125 C5.90784458 68.83844574 -2.71740006 74.4265814 -12.9765625 77.2421875 C-22.22835414 78.41656353 -30.87639597 78.19349117 -39.5 74.5625 C-39.46519531 73.91023438 -39.43039062 73.25796875 -39.39453125 72.5859375 C-39.22632006 67.15511899 -39.24711183 63.16141087 -42.5 58.5625 C-45.88340867 56.14577952 -49.1727244 54.99779727 -53.17358398 53.93017578 C-61.95667095 51.50894414 -61.95667095 51.50894414 -64.4375 47.1875 C-64.56640625 45.12109375 -64.56640625 45.12109375 -64.5 42.5625 C-64.57089844 41.41910156 -64.64179687 40.27570313 -64.71484375 39.09765625 C-65.27871313 25.55103816 -61.58480031 15.65672256 -52.5 5.5625 C-37.60108549 -8.26889104 -17.50302281 -10.4161115 0 0 Z " fill="#F2F2F2" transform="translate(821.5,228.4375)"/>
<path d="M0 0 C5.62492234 4.21198477 11.02653119 9.73753642 12.45703125 16.83984375 C14.77397393 36.27379157 4.97596322 52.27182443 -5.54296875 67.83984375 C-4.38539063 67.62328125 -3.2278125 67.40671875 -2.03515625 67.18359375 C-0.49614432 66.90206718 1.04292105 66.62083262 2.58203125 66.33984375 C3.34257812 66.19675781 4.103125 66.05367188 4.88671875 65.90625 C9.13746039 65.13671919 13.11562322 64.67339999 17.45703125 64.83984375 C17.45703125 65.16984375 17.45703125 65.49984375 17.45703125 65.83984375 C16.55575752 65.99778664 16.55575752 65.99778664 15.63627625 66.15892029 C11.54536076 66.87586854 7.45445389 67.59286525 3.3636322 68.31034851 C-2.95537807 69.41862966 -9.27460488 70.52564833 -15.59423828 71.63037109 C-28.50148791 73.88876448 -41.40397944 76.168494 -54.296875 78.5078125 C-57.73795508 79.12848505 -61.17917488 79.74837625 -64.62045288 80.36795044 C-66.8029033 80.76300238 -68.98474179 81.16145138 -71.16592407 81.56344604 C-74.21459809 82.12510039 -77.26519246 82.67499349 -80.31640625 83.22265625 C-81.19434341 83.38779221 -82.07228058 83.55292816 -82.9768219 83.72306824 C-96.86384869 86.17925493 -109.69083827 84.96394046 -121.54296875 76.83984375 C-124.31393608 74.6110222 -126.95937555 72.28264168 -129.54296875 69.83984375 C-129.04796875 68.84984375 -129.04796875 68.84984375 -128.54296875 67.83984375 C-128.08148438 68.28714844 -127.62 68.73445313 -127.14453125 69.1953125 C-116.89124857 78.69884922 -106.0175729 82.38999757 -92.14453125 82.15234375 C-79.33483337 81.04087322 -70.48390094 74.77813633 -62.3046875 65.28125 C-59.53229577 61.43924373 -57.92128751 57.34858139 -56.54296875 52.83984375 C-56.3521875 52.24945313 -56.16140625 51.6590625 -55.96484375 51.05078125 C-53.95829052 40.53495598 -55.25743884 30.52961621 -59.54296875 20.83984375 C-60.39453125 18.80859375 -60.39453125 18.80859375 -60.54296875 16.83984375 C-56.58873364 10.98130278 -50.38788637 6.79766774 -44.54296875 2.96484375 C-43.98665771 2.59593018 -43.43034668 2.2270166 -42.85717773 1.84692383 C-30.29100309 -6.05165885 -13.00227312 -7.72862389 0 0 Z " fill="#020202" transform="translate(192.54296875,123.16015625)"/>
<path d="M0 0 C4.43919635 4.0184882 7.79702792 7.60492951 8.3125 13.6875 C8.20484109 19.09980713 6.16269861 22.83198764 2.41015625 26.59375 C-12.23601178 38.73180046 -33.2153506 39.41429924 -51.30517578 37.79345703 C-66.00776927 36.06623697 -80.49256474 31.57454574 -92 22 C-92.5775 21.53335937 -93.155 21.06671875 -93.75 20.5859375 C-95.1875 19.3125 -95.1875 19.3125 -97 17 C-96.43308754 11.87717284 -92.77709694 9.125437 -89 6 C-64.19307252 -11.80142409 -26.5703088 -17.41525422 0 0 Z " fill="#D6CDC1" transform="translate(187,279)"/>
<path d="M0 0 C1.04510742 0.00563965 2.09021484 0.0112793 3.16699219 0.01708984 C17.70468573 0.24305276 32.950653 1.99920214 44 12.5 C47.4924939 16.74762771 47.67795182 19.92208561 47.3125 25.3125 C44.98904688 32.00951193 39.85444747 36.06769923 33.8125 39.4375 C26.55279839 42.83201667 17.34555576 45.742568 9.3125 45.3125 C8.8175 43.3325 8.8175 43.3325 8.3125 41.3125 C8.3125 42.9625 8.3125 44.6125 8.3125 46.3125 C-13.92360614 47.26396571 -35.12607402 42.13683588 -52.05859375 26.91796875 C-56.2421362 22.79462115 -60.23302694 18.70036769 -62.6875 13.3125 C-50.76160866 4.67054975 -40.37666389 1.55856998 -25.6875 3.3125 C-21.80827502 4.2875598 -18.27226165 5.54380703 -14.6875 7.3125 C-17.3275 5.9925 -19.9675 4.6725 -22.6875 3.3125 C-22.6875 2.9825 -22.6875 2.6525 -22.6875 2.3125 C-15.06784742 0.68377945 -7.78712582 -0.0443747 0 0 Z " fill="#F1F1F1" transform="translate(147.6875,433.6875)"/>
<path d="M0 0 C4.81562818 5.06358735 6.44802248 8.45828147 6.328125 15.40234375 C5.78903976 19.67010193 4.13501402 22.1197501 1 25 C-15.41852856 37.45647048 -36.93146832 37.74857695 -56.61669922 35.73193359 C-71.07104504 33.48743052 -88.55807057 25.43854464 -97.76171875 13.765625 C-98.17035156 13.18296875 -98.57898438 12.6003125 -99 12 C-74.85507574 -12.03365733 -28.85097403 -22.29393448 0 0 Z " fill="#D6CDC1" transform="translate(189,363)"/>
<path d="M0 0 C0.33 0 0.66 0 1 0 C1 46.53 1 93.06 1 141 C39.28 141 77.56 141 117 141 C117 144.63 117 148.26 117 152 C116.67 152 116.34 152 116 152 C116 148.7 116 145.4 116 142 C110.36621045 142.0952059 104.73276977 142.20161168 99.09936523 142.31738281 C97.19219397 142.35512008 95.28496474 142.39005663 93.37768555 142.421875 C80.48113483 142.63948092 67.8037398 143.42418359 55 145 C55 144.67 55 144.34 55 144 C47.41883413 143.92991291 39.83770264 143.87689506 32.25628471 143.84456348 C28.73437784 143.82903129 25.21269561 143.80802686 21.69091797 143.77368164 C17.62465491 143.73428311 13.55862084 143.72018825 9.4921875 143.70703125 C8.25201874 143.69154739 7.01184998 143.67606354 5.73410034 143.66011047 C-1.75824276 143.65869593 -8.57281613 144.50434331 -15.86105347 146.25639343 C-18.87879461 146.97128682 -21.94093271 147.49015545 -25 148 C-25 106.75 -25 65.5 -25 23 C-20.71 20.69 -16.42 18.38 -12 16 C-6.43406073 11.30373874 -3.20049264 6.50422698 0 0 Z " fill="#DE9F3E" transform="translate(837,281)"/>
<path d="M0 0 C10.42312662 2.40533691 19.00844826 11.78984304 24.609375 20.50390625 C28 26.4375 28 26.4375 28 29 C29.21901001 28.75660889 29.21901001 28.75660889 30.46264648 28.50830078 C34.54641475 27.92148281 38.47939094 27.85667839 42.59765625 27.8671875 C43.42140244 27.86586823 44.24514862 27.86454895 45.09385681 27.8631897 C47.75011037 27.86128462 50.40625731 27.86757832 53.0625 27.875 C53.96073486 27.87588623 54.85896973 27.87677246 55.78442383 27.87768555 C68.87852907 27.89293444 81.9322518 28.10319375 95 29 C95.33 28.34 95.66 27.68 96 27 C95.55213458 31.92651958 93.36942365 35.50385024 90 39 C80.05671773 46.74991118 68.66941682 51.25395759 56.015625 51.02734375 C54.91605469 51.01509766 53.81648438 51.00285156 52.68359375 50.99023438 C50.37884704 50.95483724 48.07415463 50.91572509 45.76953125 50.87304688 C44.12791016 50.85661133 44.12791016 50.85661133 42.453125 50.83984375 C41.45442383 50.82300537 40.45572266 50.80616699 39.42675781 50.78881836 C36.81744735 50.75379116 36.81744735 50.75379116 35 53 C34.34 54.32 33.68 55.64 33 57 C30.525 53.04 30.525 53.04 28 49 C24.06924356 49.57452746 24.06924356 49.57452746 21 52 C21.433125 52.80824219 21.86625 53.61648438 22.3125 54.44921875 C22.869375 55.51785156 23.42625 56.58648437 24 57.6875 C24.556875 58.74324219 25.11375 59.79898438 25.6875 60.88671875 C26.9672274 63.92226262 27.28851043 65.76026826 27 69 C29.97 69 32.94 69 36 69 C36 66.69 36 64.38 36 62 C36.33 62 36.66 62 37 62 C37 64.64 37 67.28 37 70 C33.37 70 29.74 70 26 70 C25.62875 68.535625 25.2575 67.07125 24.875 65.5625 C23.22263968 59.96682569 20.46699905 55.64510553 17 51 C18.66797853 56.68629044 20.58224554 61.16800231 24 66 C24 68 24 68 21.9140625 70.10546875 C18.39623215 72.39253004 16.53177702 72.44855704 12.375 72.3125 C10.54195313 72.26029297 10.54195313 72.26029297 8.671875 72.20703125 C3.76533171 71.93038572 -1.11726738 71.55802659 -6 71 C-6 70.67 -6 70.34 -6 70 C-1.545 69.505 -1.545 69.505 3 69 C-2.91294234 51.22942467 -2.91294234 51.22942467 -15.73828125 38.75390625 C-16.48464844 38.50511719 -17.23101562 38.25632812 -18 38 C-18 37.34 -18 36.68 -18 36 C-21.3 35.34 -24.6 34.68 -28 34 C-28 33.67 -28 33.34 -28 33 C-24.04187005 32.51914376 -20.08346029 32.04062863 -16.125 31.5625 C-15.01640625 31.42779297 -13.9078125 31.29308594 -12.765625 31.15429688 C-6.18343445 30.36056213 0.39971473 29.62642029 7 29 C2.75058098 23.12580312 -2.12032442 19.72716486 -8.23681641 16.02172852 C-12.91129801 13.17740397 -12.91129801 13.17740397 -14 11 C-13.07316406 10.28972656 -12.14632813 9.57945312 -11.19140625 8.84765625 C-9.98174158 7.91930895 -8.77210776 6.99092145 -7.5625 6.0625 C-6.95083984 5.59392578 -6.33917969 5.12535156 -5.70898438 4.64257812 C-2.75031115 2.44328176 -2.75031115 2.44328176 0 0 Z " fill="#CF6242" transform="translate(453,230)"/>
<path d="M0 0 C3.67801182 1.16885969 6.21092249 3.33242643 9.078125 5.81640625 C9.62791016 6.27208984 10.17769531 6.72777344 10.74414062 7.19726562 C12.12995814 8.37305862 13.45360704 9.62129414 14.765625 10.87890625 C14.765625 11.53890625 14.765625 12.19890625 14.765625 12.87890625 C13.4353125 13.43578125 13.4353125 13.43578125 12.078125 14.00390625 C6.75634497 17.01623457 3.64238274 21.0780187 1.765625 26.87890625 C1.105625 26.87890625 0.445625 26.87890625 -0.234375 26.87890625 C-0.275625 27.68328125 -0.316875 28.48765625 -0.359375 29.31640625 C-1.56291359 34.21652766 -4.11307866 37.94623844 -7.234375 41.87890625 C-8.224375 42.37390625 -8.224375 42.37390625 -9.234375 42.87890625 C-10.10810681 44.89038587 -10.10810681 44.89038587 -10.796875 47.25390625 C-11.04566406 48.04539062 -11.29445313 48.836875 -11.55078125 49.65234375 C-11.77636719 50.38710938 -12.00195312 51.121875 -12.234375 51.87890625 C-12.564375 52.86890625 -12.894375 53.85890625 -13.234375 54.87890625 C-12.4403125 55.50539063 -11.64625 56.131875 -10.828125 56.77734375 C-9.8071875 57.59460938 -8.78625 58.411875 -7.734375 59.25390625 C-6.7134375 60.06601562 -5.6925 60.878125 -4.640625 61.71484375 C-3.8465625 62.42898438 -3.0525 63.143125 -2.234375 63.87890625 C-2.234375 64.53890625 -2.234375 65.19890625 -2.234375 65.87890625 C-4.85944302 65.90581469 -7.48423673 65.92570029 -10.109375 65.94140625 C-10.85574219 65.94978516 -11.60210938 65.95816406 -12.37109375 65.96679688 C-18.0078125 65.9921875 -18.0078125 65.9921875 -20.234375 64.87890625 C-20.234375 65.53890625 -20.234375 66.19890625 -20.234375 66.87890625 C-32.16135837 68.14391094 -44.0693701 67.99250564 -56.046875 67.94140625 C-58.10742078 67.93638013 -60.16796776 67.9318192 -62.22851562 67.92773438 C-67.23049861 67.91681935 -72.23242337 67.89961629 -77.234375 67.87890625 C-75.749375 67.38390625 -75.749375 67.38390625 -74.234375 66.87890625 C-74.564375 65.22890625 -74.894375 63.57890625 -75.234375 61.87890625 C-75.564375 62.86890625 -75.894375 63.85890625 -76.234375 64.87890625 C-79.204375 64.87890625 -82.174375 64.87890625 -85.234375 64.87890625 C-85.40453125 64.24984375 -85.5746875 63.62078125 -85.75 62.97265625 C-87.38007853 57.2153576 -89.40356903 52.15006219 -92.234375 46.87890625 C-87.94540162 43.90045251 -87.94540162 43.90045251 -85.171875 43.81640625 C-82.18812858 45.45265429 -80.94293516 48.01096598 -79.234375 50.87890625 C-78.821875 50.05648437 -78.409375 49.2340625 -77.984375 48.38671875 C-74.1885939 44.92522519 -71.56540292 45.44666952 -66.58203125 45.5859375 C-64.92494141 45.66908203 -64.92494141 45.66908203 -63.234375 45.75390625 C-51.94052735 46.25555374 -41.97368506 45.26270638 -31.796875 39.94140625 C-30.84941406 39.45800781 -29.90195312 38.97460938 -28.92578125 38.4765625 C-23.1496532 35.04777241 -20.07382481 31.87330029 -17.234375 25.87890625 C-16.8958865 23.08417036 -16.8958865 23.08417036 -17.234375 20.87890625 C-18.884375 21.20890625 -20.534375 21.53890625 -22.234375 21.87890625 C-22.859375 20.00390625 -22.859375 20.00390625 -23.234375 17.87890625 C-22.574375 17.21890625 -21.914375 16.55890625 -21.234375 15.87890625 C-17.69866071 16.41462054 -17.69866071 16.41462054 -16.234375 17.87890625 C-15.65429688 16.88310547 -15.65429688 16.88310547 -15.0625 15.8671875 C-5.52765003 -0.29957544 -5.52765003 -0.29957544 0 0 Z " fill="#E4A23D" transform="translate(565.234375,234.12109375)"/>
<path d="M0 0 C0.99 0.845625 1.98 1.69125 3 2.5625 C3.64839844 3.11292969 4.29679687 3.66335938 4.96484375 4.23046875 C6.25307079 5.35055867 7.51964054 6.49649397 8.75390625 7.67578125 C23.5505597 21.57760469 43.24792978 27.44276091 63.0625 29.125 C64.02349609 29.21136719 64.98449219 29.29773438 65.97460938 29.38671875 C68.31599448 29.59639503 70.65771078 29.8007244 73 30 C72.24178175 31.42513968 71.47594344 32.84622651 70.70703125 34.265625 C70.28139893 35.05743164 69.8557666 35.84923828 69.41723633 36.66503906 C63.80624486 45.90940124 54.26742326 51.40676543 44 54 C31.30870537 55.6829089 19.39358077 54.62722923 9.0078125 46.72265625 C0.62998509 39.51150242 -5.06527495 32.04021675 -7 21 C-7.22147634 16.65232323 -7.18401787 12.34827411 -7 8 C-5.02 8.99 -5.02 8.99 -3 10 C-2.814375 8.3603125 -2.814375 8.3603125 -2.625 6.6875 C-2 3 -2 3 0 0 Z " fill="#F2F1F1" transform="translate(79,466)"/>
<path d="M0 0 C0.33 0 0.66 0 1 0 C1.06058594 0.99 1.12117187 1.98 1.18359375 3 C1.60460466 9.69466638 2.05074129 16.35518903 3 23 C3.70125 23.12890625 4.4025 23.2578125 5.125 23.390625 C12.69685737 24.99552955 20.19733045 26.5964406 25 33 C27.05723305 36.33213804 27.21752265 38.8640487 27.125 42.75 C27.10695313 43.73484375 27.08890625 44.7196875 27.0703125 45.734375 C27.04710937 46.48203125 27.02390625 47.2296875 27 48 C26.01 48 25.02 48 24 48 C23.62875 48.928125 23.62875 48.928125 23.25 49.875 C21.73978613 52.44236357 20.72295055 52.88437809 18 54 C7.34101584 56.25423364 -3.44037611 50.68375767 -13.1875 47 C-15.01567536 46.32389437 -16.84444763 45.6494005 -18.67382812 44.9765625 C-23.12299252 43.33623026 -27.56348564 41.67422837 -32 40 C-32 39.34 -32 38.68 -32 38 C-34.31 37.34 -36.62 36.68 -39 36 C-39.33 34.35 -39.66 32.7 -40 31 C-40.66 31 -41.32 31 -42 31 C-42 27.7 -42 24.4 -42 21 C-41.34 21 -40.68 21 -40 21 C-39.979375 20.2575 -39.95875 19.515 -39.9375 18.75 C-38.79904766 15.4105398 -37.1742285 14.44488435 -34.1796875 12.69921875 C-28.78902087 10.96995472 -23.81021083 12.1127603 -18.62890625 13.96875 C-17.47841797 14.37480469 -16.32792969 14.78085937 -15.14257812 15.19921875 C-13.37043945 15.84310547 -13.37043945 15.84310547 -11.5625 16.5 C-10.35400391 16.92925781 -9.14550781 17.35851562 -7.90039062 17.80078125 C-4.92995771 18.85745699 -1.96351022 19.92409413 1 21 C0.75552124 20.13713379 0.75552124 20.13713379 0.50610352 19.25683594 C0.00962472 17.04291893 -0.11479744 15.15326203 -0.09765625 12.890625 C-0.09443359 12.13652344 -0.09121094 11.38242187 -0.08789062 10.60546875 C-0.07532227 9.43951172 -0.07532227 9.43951172 -0.0625 8.25 C-0.05798828 7.45722656 -0.05347656 6.66445313 -0.04882812 5.84765625 C-0.03708565 3.89840492 -0.01915146 1.94919262 0 0 Z " fill="#CCC3B8" transform="translate(756,256)"/>
<path d="M0 0 C0 0.66 0 1.32 0 2 C0.75410156 2.09667969 1.50820313 2.19335938 2.28515625 2.29296875 C7.0282573 3.52822241 9.25724072 7.11644704 12 11 C16.25602765 18.2960474 19.32491491 26.00621632 22 34 C17.1666528 34.08333357 12.76307437 33.95261487 8 33 C8 31.35 8 29.7 8 28 C6.68 27.67 5.36 27.34 4 27 C3.34 28.65 2.68 30.3 2 32 C-5.20994696 32.30925018 -11.92753523 31.15225053 -19 29.8125 C-20.19592773 29.58618896 -21.39185547 29.35987793 -22.62402344 29.12670898 C-49.77030485 23.82705288 -49.77030485 23.82705288 -56 16 C-55.95703125 13 -55.95703125 13 -55 10 C-44.23003678 0.97043008 -12.26228784 -8.17485856 0 0 Z " fill="#DF9F3D" transform="translate(435,266)"/>
<path d="M0 0 C1.04510742 0.00563965 2.09021484 0.0112793 3.16699219 0.01708984 C17.70468573 0.24305276 32.950653 1.99920214 44 12.5 C47.4924939 16.74762771 47.67795182 19.92208561 47.3125 25.3125 C44.98904688 32.00951193 39.85444747 36.06769923 33.8125 39.4375 C26.31785497 42.94187233 17.54727017 45.3125 9.3125 45.3125 C8.6525 40.6925 7.9925 36.0725 7.3125 31.3125 C6.6525 31.3125 5.9925 31.3125 5.3125 31.3125 C5.044375 30.69503906 4.77625 30.07757813 4.5 29.44140625 C1.37771922 22.69358233 -2.4398929 17.5601071 -7.6875 12.3125 C-8.1928125 11.8071875 -8.698125 11.301875 -9.21875 10.78125 C-13.1743152 7.17729059 -17.78172156 5.26390964 -22.6875 3.3125 C-22.6875 2.9825 -22.6875 2.6525 -22.6875 2.3125 C-15.06784742 0.68377945 -7.78712582 -0.0443747 0 0 Z " fill="#D4CBC0" transform="translate(147.6875,433.6875)"/>
<path d="M0 0 C0.73089844 1.14275391 0.73089844 1.14275391 1.4765625 2.30859375 C4.76617898 5.81717851 7.85696054 6.7001015 12.375 8.0625 C17.81136073 9.74720554 22.48223852 11.37326082 27 15 C28.1875 18.5 28.1875 18.5 28 22 C23.34440451 27.61882214 14.05595998 30.25726737 7 31 C7.2475 30.13375 7.495 29.2675 7.75 28.375 C8.07576692 23.97714658 6.73225974 22.35677625 4 19 C3.34 18.67 2.68 18.34 2 18 C2 17.01 2 16.02 2 15 C1.67 15.66 1.34 16.32 1 17 C-5.75 16.125 -5.75 16.125 -8 15 C-7.67 13.35 -7.34 11.7 -7 10 C-7.66 11.98 -8.32 13.96 -9 16 C-8.36191406 16.12117188 -7.72382812 16.24234375 -7.06640625 16.3671875 C-6.24011719 16.53476562 -5.41382813 16.70234375 -4.5625 16.875 C-3.73878906 17.03742188 -2.91507813 17.19984375 -2.06640625 17.3671875 C-1.04353516 17.68042969 -1.04353516 17.68042969 0 18 C0.495 18.99 0.495 18.99 1 20 C-0.40873909 22.60005221 -2.03205232 25.01930536 -3.65234375 27.4921875 C-5.31557551 30.11274804 -5.31557551 30.11274804 -5 34 C-9.455 34.495 -9.455 34.495 -14 35 C-14.66 32.69 -15.32 30.38 -16 28 C-17.65 28.33 -19.3 28.66 -21 29 C-20.34 29.33 -19.68 29.66 -19 30 C-19.185625 30.61875 -19.37125 31.2375 -19.5625 31.875 C-20.23686176 34.04160178 -20.23686176 34.04160178 -19 36 C-25.46794133 37.51233701 -31.35590042 38.21432579 -38 38 C-37.51080078 37.12601562 -37.51080078 37.12601562 -37.01171875 36.234375 C-34.48076051 31.48602856 -32.67707866 27.1524628 -31.5625 21.875 C-30.3044424 16.33525772 -28.30257515 11.83970643 -24 8 C-21.80859375 7.29296875 -21.80859375 7.29296875 -20 7 C-21.65 5.02 -23.3 3.04 -25 1 C-23.91460938 1.144375 -22.82921875 1.28875 -21.7109375 1.4375 C-20.2656509 1.62519956 -18.82033693 1.81268838 -17.375 2 C-16.66214844 2.09539062 -15.94929687 2.19078125 -15.21484375 2.2890625 C-11.12431188 2.81445191 -7.13248508 3.24894488 -3 3 C-1.12109566 1.62493901 -1.12109566 1.62493901 0 0 Z " fill="#E09F3C" transform="translate(604,261)"/>
<path d="M0 0 C1 3 1 3 0.171875 5.015625 C-6.13169181 14.92122999 -15.88481878 19.90041423 -27 23 C-32.3236853 24.15564804 -37.57645694 24.21809681 -43 24.25 C-43.8765625 24.270625 -44.753125 24.29125 -45.65625 24.3125 C-50.85718553 24.34383094 -54.54248428 23.98537151 -59 21 C-63.91911371 15.8245553 -65.46883246 8.77199303 -67 2 C-62.07748173 1.01715557 -57.39578736 0.85444508 -52.40234375 0.8671875 C-51.57859756 0.86586823 -50.75485138 0.86454895 -49.90614319 0.8631897 C-47.24988963 0.86128462 -44.59374269 0.86757832 -41.9375 0.875 C-41.03926514 0.87588623 -40.14103027 0.87677246 -39.21557617 0.87768555 C-26.12147093 0.89293444 -13.0677482 1.10319375 0 2 C0 1.34 0 0.68 0 0 Z " fill="#050403" transform="translate(548,257)"/>
<path d="M0 0 C-0.33 0.66 -0.66 1.32 -1 2 C-2.32 1.67 -3.64 1.34 -5 1 C-4.443125 1.79019531 -3.88625 2.58039063 -3.3125 3.39453125 C2.87637843 12.44789829 7.20441907 21.82206206 11.18139648 32.02392578 C12.02899148 34.0699842 12.98745392 36.03105338 14 38 C11.25707334 40.60423936 9.63505198 41.91454239 5.8359375 42.42578125 C4.69382812 42.38839844 3.55171875 42.35101563 2.375 42.3125 C0.54195313 42.26029297 0.54195313 42.26029297 -1.328125 42.20703125 C-6.23466829 41.93038572 -11.11726738 41.55802659 -16 41 C-16 40.67 -16 40.34 -16 40 C-11.545 39.505 -11.545 39.505 -7 39 C-12.91294234 21.22942467 -12.91294234 21.22942467 -25.73828125 8.75390625 C-26.48464844 8.50511719 -27.23101562 8.25632812 -28 8 C-28 7.34 -28 6.68 -28 6 C-31.3 5.34 -34.6 4.68 -38 4 C-38 3.67 -38 3.34 -38 3 C-34.06282842 2.51811014 -30.12520624 2.03999963 -26.1875 1.5625 C-25.08728516 1.42779297 -23.98707031 1.29308594 -22.85351562 1.15429688 C-17.50711534 0.50768209 -12.15857701 -0.11519188 -6.80078125 -0.66015625 C-5.48267456 -0.79562866 -5.48267456 -0.79562866 -4.13793945 -0.93383789 C-2 -1 -2 -1 0 0 Z " fill="#070503" transform="translate(463,260)"/>
<path d="M0 0 C0.66 0 1.32 0 2 0 C2.20753906 0.61746094 2.41507812 1.23492187 2.62890625 1.87109375 C6.94091207 13.72459929 14.73380377 22.81008556 26.25 28.25 C32.30817241 30.47796638 38.71154325 31.09709183 45.07983398 31.92016602 C52.19578218 32.84009607 59.0520759 34.18245399 66 36 C58.33319411 43.98416822 49.78420316 45.39111991 39 46 C27.39544807 45.7771926 14.37571042 36.451364 6 29 C5.20916016 28.32517578 5.20916016 28.32517578 4.40234375 27.63671875 C-1.13203172 21.17737802 -1.41987875 11.57672545 -1.23828125 3.51953125 C-1 1 -1 1 0 0 Z " fill="#050506" transform="translate(71,489)"/>
<path d="M0 0 C2 2 2 2 2.5625 4.25 C1.79428745 8.00570581 0.07117439 9.34292642 -2.90234375 11.6484375 C-12.07251462 17.55696473 -28.04699052 19.71989929 -38.546875 17.44921875 C-39.27390625 17.19785156 -40.0009375 16.94648438 -40.75 16.6875 C-41.48734375 16.44386719 -42.2246875 16.20023437 -42.984375 15.94921875 C-45.18710956 14.91188445 -46.45291761 13.86978669 -48 12 C-48.625 9.6875 -48.625 9.6875 -48 7 C-37.61939579 -5.48818143 -13.85044805 -6.43056517 0 0 Z " fill="#050404" transform="translate(832,443)"/>
<path d="M0 0 C3.67801182 1.16885969 6.21092249 3.33242643 9.078125 5.81640625 C9.62791016 6.27208984 10.17769531 6.72777344 10.74414062 7.19726562 C12.12995814 8.37305862 13.45360704 9.62129414 14.765625 10.87890625 C14.765625 11.53890625 14.765625 12.19890625 14.765625 12.87890625 C13.87875 13.25015625 12.991875 13.62140625 12.078125 14.00390625 C6.75634497 17.01623457 3.64238274 21.0780187 1.765625 26.87890625 C1.105625 26.87890625 0.445625 26.87890625 -0.234375 26.87890625 C-0.275625 27.68328125 -0.316875 28.48765625 -0.359375 29.31640625 C-1.55584761 34.18775903 -3.99889655 38.05589067 -7.234375 41.87890625 C-8.719375 42.37390625 -8.719375 42.37390625 -10.234375 42.87890625 C-10.770625 42.15703125 -11.306875 41.43515625 -11.859375 40.69140625 C-14.4436638 37.63106425 -17.10685514 35.36670614 -20.234375 32.87890625 C-19.62159888 29.91715502 -18.98064978 28.49831842 -17.234375 25.87890625 C-17.06723931 23.25359101 -17.06723931 23.25359101 -17.234375 20.87890625 C-18.884375 21.20890625 -20.534375 21.53890625 -22.234375 21.87890625 C-22.859375 20.00390625 -22.859375 20.00390625 -23.234375 17.87890625 C-22.574375 17.21890625 -21.914375 16.55890625 -21.234375 15.87890625 C-17.69866071 16.41462054 -17.69866071 16.41462054 -16.234375 17.87890625 C-15.65429688 16.88310547 -15.65429688 16.88310547 -15.0625 15.8671875 C-5.52765003 -0.29957544 -5.52765003 -0.29957544 0 0 Z " fill="#D6993C" transform="translate(565.234375,234.12109375)"/>
<path d="M0 0 C2.61216867 0.01757235 5.18986756 0.10005531 7.796875 0.234375 C8.97555145 0.29241302 8.97555145 0.29241302 10.17803955 0.35162354 C11.84605718 0.4362502 13.5139244 0.5238858 15.18164062 0.61425781 C17.72479312 0.74866777 20.2683437 0.86298409 22.8125 0.9765625 C24.43235714 1.06125698 26.05215182 1.14715628 27.671875 1.234375 C28.43038757 1.26577576 29.18890015 1.29717651 29.97039795 1.32952881 C34.41095131 1.59604931 37.45305213 2.26048742 41 5 C42.12256131 7.24512262 42.13413762 8.51456649 42.125 11 C42.12886719 12.051875 42.12886719 12.051875 42.1328125 13.125 C42 15 42 15 41 17 C40.34 16.67 39.68 16.34 39 16 C39.33 15.34 39.66 14.68 40 14 C40.37615126 9.86935374 40.37615126 9.86935374 38.875 6.125 C36.17393914 4.50436349 34.09341008 4.74221583 31 5 C30.01 5.33 29.02 5.66 28 6 C27.54440428 11.19212465 27.54440428 11.19212465 29.125 15.9375 C31.68102669 17.38591512 34.10340247 17.67815583 37 18 C37 18.33 37 18.66 37 19 C15.14639853 19.28258967 -6.09390838 17.71859714 -27 11 C-27 10.34 -27 9.68 -27 9 C-26.04480469 8.92523437 -25.08960937 8.85046875 -24.10546875 8.7734375 C-15.39060789 7.88718046 -6.53706717 6.53706717 0 0 Z " fill="#6CAAE6" transform="translate(137,525)"/>
<path d="M0 0 C2.22990727 0.06034932 4.4590536 0.1492275 6.6875 0.25 C7.92886719 0.29640625 9.17023437 0.3428125 10.44921875 0.390625 C14.43875608 1.07529807 16.18611639 2.13769392 19 5 C19 5.66 19 6.32 19 7 C18.0925 7.53625 17.185 8.0725 16.25 8.625 C9.78767928 12.77609072 8.56061685 20.35519119 6.79296875 27.3671875 C5.70081493 30.99335339 4.04523793 33.82635493 2 37 C7.28 37 12.56 37 18 37 C18 37.33 18 37.66 18 38 C8.27088552 39.39879438 -1.14183749 40.30384747 -11 40 C-11 39.67 -11 39.34 -11 39 C-8.03 39 -5.06 39 -2 39 C-5.80411834 35.08060535 -9.81576108 31.50897269 -14 28 C-13.26521955 26.02945242 -12.52878644 24.05949397 -11.78125 22.09375 C-11.19160829 20.51351023 -10.64716761 18.91630051 -10.125 17.3125 C-9 15 -9 15 -6.625 12.8125 C-3.0781468 9.01230015 -1.68774068 4.85579024 0 0 Z " fill="#0A0603" transform="translate(565,261)"/>
<path d="M0 0 C2.79443385 2.71406296 5.33168304 5.50859973 7.75 8.5625 C8.67039062 9.70912109 8.67039062 9.70912109 9.609375 10.87890625 C11 13 11 13 11 16 C10.54284064 17.57556706 10.03895471 19.13800522 9.5 20.6875 C9.2215625 21.49574219 8.943125 22.30398438 8.65625 23.13671875 C8.4396875 23.75160156 8.223125 24.36648438 8 25 C7.01 24.67 6.02 24.34 5 24 C5 28.62 5 33.24 5 38 C4.01 38.495 4.01 38.495 3 39 C2.63258661 47.55937129 3.26022667 54.86222087 6 63 C-1.50857429 57.55563857 -6.2676152 48.68961393 -8.5625 39.75390625 C-10.94130476 24.78017986 -7.02844675 13.01990955 0 0 Z " fill="#69A2DA" transform="translate(68,451)"/>
<path d="M0 0 C6.8186033 1.15158634 11.63616242 2.86815122 16.8125 7.6875 C18.68427139 11.33252849 19.11343626 14.9233845 19 19 C17.40594023 23.69362043 15.28109703 26.48718218 11 29 C4.42096112 30.86875423 -0.81835448 29.586646 -7 27 C-7 26.01 -7 25.02 -7 24 C-7.350625 23.29875 -7.70125 22.5975 -8.0625 21.875 C-9.41673929 17.72199952 -9.14342263 14.19746758 -8 10 C-6.11419223 6.49778557 -4.07633253 4.33485901 -0.1875 3.125 C0.8953125 3.063125 0.8953125 3.063125 2 3 C2 2.34 2 1.68 2 1 C1.34 0.67 0.68 0.34 0 0 Z " fill="#D1963D" transform="translate(778,381)"/>
<path d="M0 0 C6.99689594 1.20581427 12.98164403 2.68954506 17.9375 8.125 C19.53802004 12.45581893 19.65002973 16.44248821 19 21 C17.18766463 24.83378636 15.69973473 26.53351018 12.1875 28.875 C5.18924315 31.34497301 -0.35427048 29.53170648 -7 27 C-6.34 26.67 -5.68 26.34 -5 26 C-5.495 25.38125 -5.99 24.7625 -6.5 24.125 C-8.62750674 19.69269429 -8.93855624 15.82793331 -8 11 C-6.00982758 7.42541848 -3.78491147 4.55382891 0.203125 3.31640625 C0.79609375 3.21199219 1.3890625 3.10757812 2 3 C2 2.34 2 1.68 2 1 C1.34 0.67 0.68 0.34 0 0 Z " fill="#CF6243" transform="translate(912,355)"/>
<path d="M0 0 C3.27414641 2.64718221 5.44070206 5.10522025 7 9 C7.1953125 11.796875 7.1953125 11.796875 7.125 14.75 C7.10695313 15.73484375 7.08890625 16.7196875 7.0703125 17.734375 C7.04710937 18.48203125 7.02390625 19.2296875 7 20 C6.01 20 5.02 20 4 20 C3.7525 20.61875 3.505 21.2375 3.25 21.875 C1.73026159 24.45855529 0.76167084 24.91163319 -2 26 C-8.98639472 26.8353298 -14.6374993 25.88113239 -21 23 C-20.01 22.34 -19.02 21.68 -18 21 C-18.515625 20.175 -19.03125 19.35 -19.5625 18.5 C-21.27531453 14.32966898 -21.4692336 11.2128853 -20 7 C-17.77730751 3.41704776 -15.17252412 0.79224603 -11.6875 -1.5625 C-7.51088613 -2.24241389 -3.93057995 -1.51944379 0 0 Z " fill="#D16343" transform="translate(776,284)"/>
<path d="M0 0 C3.56568061 1.54335429 6.31019147 3.24343581 8.9375 6.125 C10.53802004 10.45581893 10.65002973 14.44248821 10 19 C8.18766463 22.83378636 6.69973473 24.53351018 3.1875 26.875 C-4.61617313 29.62923758 -10.68638041 26.96247882 -18 24 C-17.01 23.34 -16.02 22.68 -15 22 C-15.66 21.01 -16.32 20.02 -17 19 C-17.76603375 14.7868144 -17.9475779 10.70817554 -15.83203125 6.89453125 C-11.32843264 1.46474269 -7.25546156 -2.17663847 0 0 Z " fill="#D89A3D" transform="translate(926,258)"/>
<path d="M0 0 C0.73089844 1.14275391 0.73089844 1.14275391 1.4765625 2.30859375 C4.76617898 5.81717851 7.85696054 6.7001015 12.375 8.0625 C17.81136073 9.74720554 22.48223852 11.37326082 27 15 C28.1875 18.5 28.1875 18.5 28 22 C23.34440451 27.61882214 14.05595998 30.25726737 7 31 C7.2475 30.13375 7.495 29.2675 7.75 28.375 C8.07576692 23.97714658 6.73225974 22.35677625 4 19 C3.34 18.67 2.68 18.34 2 18 C2 17.01 2 16.02 2 15 C1.67 15.66 1.34 16.32 1 17 C-5.75 16.125 -5.75 16.125 -8 15 C-7.01 11.7 -6.02 8.4 -5 5 C-6.27617188 4.96261719 -7.55234375 4.92523438 -8.8671875 4.88671875 C-10.53648838 4.82107209 -12.20575789 4.7546243 -13.875 4.6875 C-14.71675781 4.66494141 -15.55851563 4.64238281 -16.42578125 4.61914062 C-17.63427734 4.5659668 -17.63427734 4.5659668 -18.8671875 4.51171875 C-19.61081543 4.48553467 -20.35444336 4.45935059 -21.12060547 4.43237305 C-23 4 -23 4 -25 1 C-23.91460938 1.144375 -22.82921875 1.28875 -21.7109375 1.4375 C-20.2656509 1.62519956 -18.82033693 1.81268838 -17.375 2 C-16.30572266 2.14308594 -16.30572266 2.14308594 -15.21484375 2.2890625 C-11.12431188 2.81445191 -7.13248508 3.24894488 -3 3 C-1.12109566 1.62493901 -1.12109566 1.62493901 0 0 Z " fill="#DE9E3C" transform="translate(604,261)"/>
<path d="M0 0 C0.33 0 0.66 0 1 0 C1 46.53 1 93.06 1 141 C39.28 141 77.56 141 117 141 C117 144.63 117 148.26 117 152 C116.67 152 116.34 152 116 152 C116 148.7 116 145.4 116 142 C110.36621045 142.0952059 104.73276977 142.20161168 99.09936523 142.31738281 C97.19219397 142.35512008 95.28496474 142.39005663 93.37768555 142.421875 C80.48113483 142.63948092 67.8037398 143.42418359 55 145 C55 144.67 55 144.34 55 144 C47.36695736 143.97669324 39.73391847 143.95899237 32.1008482 143.94818783 C28.55541909 143.94299874 25.01001457 143.93597448 21.46459961 143.92456055 C17.3761371 143.91148272 13.28769988 143.90673897 9.19921875 143.90234375 C7.94356613 143.89718246 6.68791351 143.89202118 5.39421082 143.88670349 C-1.79572229 143.88625109 -8.85403471 144.19318363 -16 145 C-10.5791638 142.19257746 -6.08709267 141.9571834 0 142 C-0.00607553 141.28032106 -0.01215105 140.56064213 -0.01841068 139.81915474 C-0.16573166 122.32695525 -0.30747256 104.83471952 -0.4429636 87.34242439 C-0.50862067 78.88336872 -0.57618284 70.4243362 -0.64819336 61.96533203 C-0.7109355 54.59451192 -0.77014046 47.22367345 -0.82505554 39.85279071 C-0.85427099 35.94812957 -0.88528632 32.04350105 -0.92053413 28.13888931 C-0.95362751 24.46675584 -0.98200563 20.79461667 -1.00670624 17.12241745 C-1.02137979 15.12605793 -1.04110783 13.1297376 -1.06095886 11.13342285 C-1.06799835 9.95269196 -1.07503784 8.77196106 -1.08229065 7.55545044 C-1.09058679 6.52488588 -1.09888292 5.49432133 -1.10743046 4.43252754 C-1 2 -1 2 0 0 Z " fill="#7E7970" transform="translate(837,281)"/>
<path d="M0 0 C0.33 0.66 0.66 1.32 1 2 C0.06553465 4.03144641 -0.93224776 6.03533587 -2 8 C2.455 8.99 2.455 8.99 7 10 C7.66 8.35 8.32 6.7 9 5 C9.33 5.66 9.66 6.32 10 7 C9.0625 9.125 9.0625 9.125 8 11 C8.598125 11.226875 9.19625 11.45375 9.8125 11.6875 C12.6679498 13.40076988 13.65980327 14.9669232 15 18 C14.74756206 21.5341312 13.99789249 23.00316126 12 26 C10.03222656 26.70776367 10.03222656 26.70776367 7.640625 27.16796875 C6.77179687 27.33876953 5.90296875 27.50957031 5.0078125 27.68554688 C4.09773437 27.85119141 3.18765625 28.01683594 2.25 28.1875 C1.35539063 28.36474609 0.46078125 28.54199219 -0.4609375 28.72460938 C-5.0324811 29.59778769 -9.32325403 30.22454575 -14 30 C-14.74926071 26.33694766 -15.2380014 23.57644848 -14 20 C-12.35 20 -10.7 20 -9 20 C-8.67 22.64 -8.34 25.28 -8 28 C-5.36 27.34 -2.72 26.68 0 26 C0.11214844 25.27425781 0.22429688 24.54851562 0.33984375 23.80078125 C1.02961387 20.87436007 2.05510814 18.77712191 3.5625 16.1875 C4.01753906 15.39730469 4.47257813 14.60710937 4.94140625 13.79296875 C5.29074219 13.20128906 5.64007812 12.60960937 6 12 C3.03 11.01 0.06 10.02 -3 9 C-2.5020163 5.26512223 -2.12508244 3.18762365 0 0 Z " fill="#070502" transform="translate(598,268)"/>
<path d="M0 0 C2.38586603 2.38586603 3.4148152 4.70857882 4.875 7.75 C6.99970164 12.08272491 9.17739897 16.09178319 12 20 C11.34 20 10.68 20 10 20 C9.34 23.96 8.68 27.92 8 32 C7.443125 31.29875 6.88625 30.5975 6.3125 29.875 C4.71916739 27.8941 3.06893257 25.95809121 1.375 24.0625 C-0.9742615 21.03318912 -2.03692398 18.67719936 -3 15 C-3.66 15.66 -4.32 16.32 -5 17 C-4.43449764 12.6173567 -2.72977604 9.02721979 -0.83984375 5.0859375 C0.18674314 2.91095885 0.18674314 2.91095885 0 0 Z " fill="#0E1217" transform="translate(69,289)"/>
<path d="M0 0 C4.3772188 1.81096699 6.2418373 7.35924931 8.3046875 11.38671875 C9.20603341 14.58239971 9.12164444 17.52306671 8.9921875 20.82421875 C6.0221875 20.82421875 3.0521875 20.82421875 -0.0078125 20.82421875 C-0.17796875 20.19515625 -0.348125 19.56609375 -0.5234375 18.91796875 C-2.15351603 13.1606701 -4.17700653 8.09537469 -7.0078125 2.82421875 C-2.61168258 -0.22864925 -2.61168258 -0.22864925 0 0 Z " fill="#6EB2F5" transform="translate(480.0078125,278.17578125)"/>
<path d="M0 0 C5.73371975 0.71025808 8.49484025 5.85222763 12 10 C10.68 13.96 9.36 17.92 8 22 C3.26890646 19.63445323 1.14538691 17.23350448 -1.25 12.5625 C-2.39771621 8.64113628 -2.60010628 5.42525241 -1 1.625 C-0.67 1.08875 -0.34 0.5525 0 0 Z " fill="#06090B" transform="translate(69,378)"/>
<path d="M0 0 C1.46067199 0.45082469 2.91848032 0.91093537 4.375 1.375 C5.18710937 1.63023437 5.99921875 1.88546875 6.8359375 2.1484375 C9 3 9 3 11 5 C7.7 8.96 4.4 12.92 1 17 C-2.3 16.01 -5.6 15.02 -9 14 C-7.31184863 10.62369726 -5.54968586 7.81066899 -3.375 4.75 C-2.74335938 3.85796875 -2.11171875 2.9659375 -1.4609375 2.046875 C-0.73777344 1.03367188 -0.73777344 1.03367188 0 0 Z " fill="#B3833A" transform="translate(398,235)"/>
<path d="M0 0 C0.556875 0.78375 1.11375 1.5675 1.6875 2.375 C4.07668565 5.08704858 5.60073413 5.96133543 9 7 C8.01 7.33 7.02 7.66 6 8 C5.64587656 9.32796291 5.31478446 10.66216607 5 12 C3.5 13.625 3.5 13.625 2 15 C1.67 15.66 1.34 16.32 1 17 C-5.75 16.125 -5.75 16.125 -8 15 C-7.01 11.7 -6.02 8.4 -5 5 C-6.27617188 4.96261719 -7.55234375 4.92523438 -8.8671875 4.88671875 C-10.53648838 4.82107209 -12.20575789 4.7546243 -13.875 4.6875 C-14.71675781 4.66494141 -15.55851563 4.64238281 -16.42578125 4.61914062 C-17.63427734 4.5659668 -17.63427734 4.5659668 -18.8671875 4.51171875 C-19.61081543 4.48553467 -20.35444336 4.45935059 -21.12060547 4.43237305 C-23 4 -23 4 -25 1 C-23.91460938 1.144375 -22.82921875 1.28875 -21.7109375 1.4375 C-20.2656509 1.62519956 -18.82033693 1.81268838 -17.375 2 C-16.30572266 2.14308594 -16.30572266 2.14308594 -15.21484375 2.2890625 C-11.12431188 2.81445191 -7.13248508 3.24894488 -3 3 C-1.12109566 1.62493901 -1.12109566 1.62493901 0 0 Z " fill="#CF6241" transform="translate(604,261)"/>
<path d="M0 0 C2.5 2.125 2.5 2.125 4 5 C4 8.50732933 3.6345092 10.2434698 1.375 12.9375 C-2.11319754 14.49800943 -4.36432898 13.99154664 -8 13 C-10 11.3125 -10 11.3125 -11 9 C-10.87304813 5.88967921 -10.47953174 3.79921957 -8.875 1.125 C-5.79484632 -0.72309221 -3.49557617 -0.49060718 0 0 Z " fill="#EFEEEE" transform="translate(78,244)"/>
<path d="M0 0 C2.375 1.625 2.375 1.625 4 4 C4.61195145 7.6717087 4.48706506 9.28813568 2.375 12.375 C-0.71186432 14.48706506 -2.3282913 14.61195145 -6 14 C-8.375 12.375 -8.375 12.375 -10 10 C-10.61195145 6.3282913 -10.48706506 4.71186432 -8.375 1.625 C-5.28813568 -0.48706506 -3.6717087 -0.61195145 0 0 Z " fill="#F0EFEF" transform="translate(174,529)"/>
<path d="M0 0 C0.66 0 1.32 0 2 0 C2 45.54 2 91.08 2 138 C1.67 138 1.34 138 1 138 C0.67 94.11 0.34 50.22 0 5 C-0.99 5.495 -0.99 5.495 -2 6 C-1.49396008 3.83125748 -1.00016187 2.00032373 0 0 Z " fill="#BA8530" transform="translate(835,285)"/>
<path d="M0 0 C3.9252025 3.70090521 6.94580156 7.54959656 10 12 C9.525625 12.9075 9.05125 13.815 8.5625 14.75 C7.35371179 17.26427949 6.52006114 19.29568209 6 22 C2.53494295 20.84498098 1.07493548 19.28981635 -0.984375 16.3125 C-2.96060033 11.81278695 -2.69174146 6.79850131 -2 2 C-1.34 1.34 -0.68 0.68 0 0 Z " fill="#080A0B" transform="translate(70,454)"/>
<path d="M0 0 C0.4846875 0.37511719 0.969375 0.75023437 1.46875 1.13671875 C3.62719088 2.78460535 5.80642707 4.39918258 8 6 C8.63550781 6.4640625 9.27101563 6.928125 9.92578125 7.40625 C19.86636766 14.15679315 31.94983397 15.66227539 43.6796875 13.5078125 C45.15327856 13.14561672 46.62385759 12.77074928 48.08984375 12.37890625 C50.87719141 11.8259968 53.27865834 12.30222009 56 13 C56 13.33 56 13.66 56 14 C39.68566465 17.21313991 25.19489306 19.40037422 10.1484375 10.46484375 C6.50056882 7.97766056 3.00245674 5.24788917 0 2 C0 1.34 0 0.68 0 0 Z " fill="#4A535A" transform="translate(63,191)"/>
<path d="M0 0 C2.64 0.66 5.28 1.32 8 2 C8 2.33 8 2.66 8 3 C-1.07895604 3.83348936 -10.06141747 4.1361062 -19.17578125 4.09765625 C-20.46695358 4.0962413 -21.75812592 4.09482635 -23.08842468 4.09336853 C-26.4732365 4.08960297 -29.85800342 4.07982587 -33.24279785 4.06866455 C-36.71589552 4.05832003 -40.18900065 4.05384336 -43.66210938 4.04882812 C-50.44142436 4.03819638 -57.22071001 4.02119444 -64 4 C-64 3.67 -64 3.34 -64 3 C-42.88 2.67 -21.76 2.34 0 2 C0 1.34 0 0.68 0 0 Z " fill="#362016" transform="translate(545,299)"/>
<path d="M0 0 C3.95820859 0.56545837 6.6659053 1.80902348 10 4 C9.67 5.65 9.34 7.3 9 9 C6 10 6 10 3.95703125 9.00390625 C3.24933594 8.52824219 2.54164063 8.05257812 1.8125 7.5625 C1.09707031 7.08941406 0.38164063 6.61632812 -0.35546875 6.12890625 C-0.89816406 5.75636719 -1.44085937 5.38382813 -2 5 C-1.34 3.35 -0.68 1.7 0 0 Z " fill="#A1553D" transform="translate(616,135)"/>
<path d="M0 0 C1.98 0 3.96 0 6 0 C6.33 2.64 6.66 5.28 7 8 C10.3 7.34 13.6 6.68 17 6 C17.33 6.66 17.66 7.32 18 8 C6.47835991 10.29612756 6.47835991 10.29612756 1 10 C0.37542727 6.56484998 0 3.50935186 0 0 Z " fill="#2B1F14" transform="translate(583,288)"/>
<path d="M0 0 C6.6206907 6.30447861 9.90515691 12.95810618 11 22 C8.69 21.67 6.38 21.34 4 21 C4.66 20.01 5.32 19.02 6 18 C6.66 18 7.32 18 8 18 C7.59007812 17.33613281 7.18015625 16.67226563 6.7578125 15.98828125 C5.94957031 14.66376953 5.94957031 14.66376953 5.125 13.3125 C4.59132813 12.44238281 4.05765625 11.57226562 3.5078125 10.67578125 C1.46170563 7.04473668 0 4.20230146 0 0 Z " fill="#DFA449" transform="translate(469,280)"/>
<path d="M0 0 C3.125 0.375 3.125 0.375 6 1 C6.625 3.3125 6.625 3.3125 7 6 C6.01 7.485 6.01 7.485 5 9 C2.5 9.3125 2.5 9.3125 0 9 C-2 7 -2 7 -2.25 4.5 C-2 2 -2 2 0 0 Z " fill="#6C9DCF" transform="translate(634,233)"/>
<path d="M0 0 C3.125 0.375 3.125 0.375 6 1 C6.625 3.3125 6.625 3.3125 7 6 C6.01 7.485 6.01 7.485 5 9 C2.5 9.3125 2.5 9.3125 0 9 C-2 7 -2 7 -2.25 4.5 C-2 2 -2 2 0 0 Z " fill="#699DCF" transform="translate(344,233)"/>
<path d="M0 0 C1.33333333 2.66666667 2.66666667 5.33333333 4 8 C3.34 8 2.68 8 2 8 C2 16.91 2 25.82 2 35 C1.67 35 1.34 35 1 35 C0.15937224 30.63106263 -0.11732956 26.5164802 -0.09765625 22.0703125 C-0.09443359 20.78125 -0.09121094 19.4921875 -0.08789062 18.1640625 C-0.07953733 16.81770764 -0.07107241 15.47135348 -0.0625 14.125 C-0.0574783 12.75520996 -0.05291657 11.38541815 -0.04882812 10.015625 C-0.03707254 6.6770381 -0.02063964 3.33854185 0 0 Z " fill="#5F7A93" transform="translate(66,249)"/>
<path d="M0 0 C2.0625 0.4375 2.0625 0.4375 4 1 C4.12375 1.78375 4.2475 2.5675 4.375 3.375 C4.79117993 6.14057822 4.79117993 6.14057822 7 8 C1.21408489 8.10477512 -4.29309366 7.99250545 -10 7 C-10 6.67 -10 6.34 -10 6 C-7.36 6 -4.72 6 -2 6 C-1.855625 5.195625 -1.71125 4.39125 -1.5625 3.5625 C-1 1 -1 1 0 0 Z " fill="#63391F" transform="translate(439,292)"/>
<path d="M0 0 C3.89569135 -0.08732726 7.79112982 -0.14050185 11.6875 -0.1875 C12.79029297 -0.21263672 13.89308594 -0.23777344 15.02929688 -0.26367188 C16.09599609 -0.27333984 17.16269531 -0.28300781 18.26171875 -0.29296875 C19.24100342 -0.3086792 20.22028809 -0.32438965 21.22924805 -0.34057617 C24.4966933 0.06105271 26.35539654 1.07199121 29 3 C30.12256131 5.24512262 30.13413762 6.51456649 30.125 9 C30.12886719 10.051875 30.12886719 10.051875 30.1328125 11.125 C30 13 30 13 29 15 C28.34 14.67 27.68 14.34 27 14 C27.33 13.34 27.66 12.68 28 12 C28.349104 7.90814871 28.349104 7.90814871 27 4.125 C24.26691443 2.58763936 22.02104893 2.81698586 18.9375 2.9921875 C17 3 17 3 14 2 C11.60745424 1.77439324 9.21071877 1.59151405 6.8125 1.4375 C5.54019531 1.35371094 4.26789063 1.26992188 2.95703125 1.18359375 C1.98121094 1.12300781 1.00539062 1.06242188 0 1 C0 0.67 0 0.34 0 0 Z " fill="#62707C" transform="translate(149,527)"/>
<path d="M0 0 C3.10766415 1.55383208 3.6862046 4.14998673 5.125 7.25 C5.66382813 8.38953125 6.20265625 9.5290625 6.7578125 10.703125 C7.92089919 13.79005949 8.28065374 15.75417848 8 19 C10.97 19 13.94 19 17 19 C17 16.69 17 14.38 17 12 C17.33 12 17.66 12 18 12 C18 14.64 18 17.28 18 20 C14.37 20 10.74 20 7 20 C6.608125 18.494375 6.21625 16.98875 5.8125 15.4375 C4.74552304 11.7984385 3.56436107 9.06665671 1.25 6.0625 C0.5075 5.051875 -0.235 4.04125 -1 3 C-0.67 2.01 -0.34 1.02 0 0 Z " fill="#383938" transform="translate(472,280)"/>
<path d="M0 0 C0 0.33 0 0.66 0 1 C-4.60711552 1.86018808 -9.21526763 2.71450293 -13.82446289 3.56347656 C-15.39116536 3.85289324 -16.95757656 4.14389141 -18.52368164 4.43652344 C-20.77935627 4.85771641 -23.03602926 5.27314522 -25.29296875 5.6875 C-26.33701118 5.88436401 -26.33701118 5.88436401 -27.40214539 6.08520508 C-30.98011398 6.73611689 -34.36224428 7.14785121 -38 7 C-35.49006286 4.49006286 -33.96726337 4.48040045 -30.5 3.9375 C-26.62079435 3.3714257 -26.62079435 3.3714257 -23 2 C-21.06624999 1.79434269 -19.12753572 1.63396054 -17.1875 1.5 C-11.36919883 1.09524861 -5.84278451 -0.13587871 0 0 Z " fill="#465563" transform="translate(210,188)"/>
<path d="M0 0 C2.97 0 5.94 0 9 0 C8.67 0.99 8.34 1.98 8 3 C8.86882812 3.13277344 9.73765625 3.26554688 10.6328125 3.40234375 C11.78523438 3.57894531 12.93765625 3.75554688 14.125 3.9375 C15.83042969 4.19853516 15.83042969 4.19853516 17.5703125 4.46484375 C20.71732669 4.95589266 23.85930783 5.47018719 27 6 C27 6.33 27 6.66 27 7 C20.55139796 7.29854639 15.18716929 6.25825856 9 4.5 C8.12988281 4.26152344 7.25976562 4.02304687 6.36328125 3.77734375 C4.23951325 3.193891 2.11875921 2.60133866 0 2 C0 1.34 0 0.68 0 0 Z " fill="#536576" transform="translate(110,534)"/>
<path d="M0 0 C1 2 1 2 0.22265625 4.3828125 C-0.16019531 5.28773438 -0.54304687 6.19265625 -0.9375 7.125 C-1.31777344 8.03507813 -1.69804688 8.94515625 -2.08984375 9.8828125 C-2.39019531 10.58148438 -2.69054687 11.28015625 -3 12 C-3.66 11.34 -4.32 10.68 -5 10 C-7.60280568 10.32041397 -7.60280568 10.32041397 -10 11 C-10.625 9.125 -10.625 9.125 -11 7 C-10.34 6.34 -9.68 5.68 -9 5 C-5.46428571 5.53571429 -5.46428571 5.53571429 -4 7 C-2.68 4.69 -1.36 2.38 0 0 Z " fill="#955C40" transform="translate(553,245)"/>
<path d="M0 0 C0.99 0.99 1.98 1.98 3 3 C2.67 3.66 2.34 4.32 2 5 C1.01 5 0.02 5 -1 5 C-3.15028304 5.94978897 -3.15028304 5.94978897 -5 7 C-5 6.34 -5 5.68 -5 5 C-6.27617188 4.96261719 -7.55234375 4.92523438 -8.8671875 4.88671875 C-10.53648838 4.82107209 -12.20575789 4.7546243 -13.875 4.6875 C-14.71675781 4.66494141 -15.55851563 4.64238281 -16.42578125 4.61914062 C-17.63427734 4.5659668 -17.63427734 4.5659668 -18.8671875 4.51171875 C-19.61081543 4.48553467 -20.35444336 4.45935059 -21.12060547 4.43237305 C-23 4 -23 4 -25 1 C-23.91460938 1.144375 -22.82921875 1.28875 -21.7109375 1.4375 C-20.2656509 1.62519956 -18.82033693 1.81268838 -17.375 2 C-16.30572266 2.14308594 -16.30572266 2.14308594 -15.21484375 2.2890625 C-11.12431188 2.81445191 -7.13248508 3.24894488 -3 3 C-1.12109566 1.62493901 -1.12109566 1.62493901 0 0 Z " fill="#745E3F" transform="translate(604,261)"/>
<path d="M0 0 C0.58265625 0.23589844 1.1653125 0.47179687 1.765625 0.71484375 C0.83601078 1.86708403 -0.1033875 3.01143551 -1.046875 4.15234375 C-1.82998047 5.10947266 -1.82998047 5.10947266 -2.62890625 6.0859375 C-4.234375 7.71484375 -4.234375 7.71484375 -7.234375 8.71484375 C-7.894375 8.05484375 -8.554375 7.39484375 -9.234375 6.71484375 C-8.16721428 5.51278911 -7.07999163 4.32852042 -5.984375 3.15234375 C-5.38109375 2.49105469 -4.7778125 1.82976562 -4.15625 1.1484375 C-2.234375 -0.28515625 -2.234375 -0.28515625 0 0 Z " fill="#0F0A06" transform="translate(440.234375,283.28515625)"/>
<path d="M0 0 C0 0.33 0 0.66 0 1 C-2.6652464 1.50881977 -5.33178419 2.00720141 -8 2.5 C-9.11568359 2.71462891 -9.11568359 2.71462891 -10.25390625 2.93359375 C-15.25220015 3.84632568 -19.91920316 4.13856719 -25 4 C-17.41024094 -0.21857967 -8.45724513 -1.82411169 0 0 Z " fill="#33383D" transform="translate(119,204)"/>
<path d="M0 0 C2.3515625 0.1953125 2.3515625 0.1953125 5 1 C6.3984375 3.1796875 6.3984375 3.1796875 7.375 5.875 C7.88160156 7.20144531 7.88160156 7.20144531 8.3984375 8.5546875 C9 11 9 11 8 14 C6.85018626 12.23174858 5.70528078 10.46030479 4.5625 8.6875 C3.92441406 7.70136719 3.28632813 6.71523438 2.62890625 5.69921875 C1 3 1 3 0 0 Z " fill="#D89939" transform="translate(458,261)"/>
<path d="M0 0 C0.33 0.66 0.66 1.32 1 2 C0.06553465 4.03144641 -0.93224776 6.03533587 -2 8 C2.455 8.99 2.455 8.99 7 10 C7.66 8.35 8.32 6.7 9 5 C10.60031344 8.20062687 9.03173691 10.72271806 8 14 C6.72497277 13.36248638 5.45367537 12.7174183 4.1875 12.0625 C1.83267947 10.91873003 -0.56081908 9.94857036 -3 9 C-2.5020163 5.26512223 -2.12508244 3.18762365 0 0 Z " fill="#5B361E" transform="translate(598,268)"/>
<path d="M0 0 C0 0.33 0 0.66 0 1 C-1.65 1 -3.3 1 -5 1 C-5 1.66 -5 2.32 -5 3 C-2.69 3.33 -0.38 3.66 2 4 C-0.89910284 4.86688859 -3.11452831 5.0458562 -6.109375 4.66015625 C-7.24052734 4.5199707 -7.24052734 4.5199707 -8.39453125 4.37695312 C-9.56048828 4.22129883 -9.56048828 4.22129883 -10.75 4.0625 C-11.54277344 3.96259766 -12.33554688 3.86269531 -13.15234375 3.75976562 C-15.10240371 3.51307129 -17.05132586 3.2574122 -19 3 C-19 2.67 -19 2.34 -19 2 C-16.95928485 1.66089006 -14.91737379 1.32897296 -12.875 1 C-11.73804687 0.814375 -10.60109375 0.62875 -9.4296875 0.4375 C-6.23862398 0.03043951 -3.21182209 -0.07809902 0 0 Z " fill="#55626F" transform="translate(109,119)"/>
<path d="M0 0 C0.99 0.66 1.98 1.32 3 2 C2.25 8.75 2.25 8.75 0 11 C-0.99 11 -1.98 11 -3 11 C-3.66 11.350625 -4.32 11.70125 -5 12.0625 C-7 13 -7 13 -10 12 C-9.36191406 11.69707031 -8.72382812 11.39414062 -8.06640625 11.08203125 C-7.24011719 10.66308594 -6.41382813 10.24414062 -5.5625 9.8125 C-4.73878906 9.40644531 -3.91507813 9.00039063 -3.06640625 8.58203125 C-0.77441279 7.14415009 -0.77441279 7.14415009 -0.21484375 4.44921875 C0.02912792 2.07771237 0.02912792 2.07771237 0 0 Z " fill="#704728" transform="translate(631,277)"/>
<path d="M0 0 C2.64 0.66 5.28 1.32 8 2 C8 2.33 8 2.66 8 3 C4.87598221 3.22537111 1.75088667 3.42738648 -1.375 3.625 C-2.26445313 3.68945312 -3.15390625 3.75390625 -4.0703125 3.8203125 C-4.92109375 3.871875 -5.771875 3.9234375 -6.6484375 3.9765625 C-7.82672119 4.05511475 -7.82672119 4.05511475 -9.02880859 4.13525391 C-11 4 -11 4 -13 2 C-8.71 2 -4.42 2 0 2 C0 1.34 0 0.68 0 0 Z " fill="#5C4336" transform="translate(545,299)"/>
<path d="M0 0 C0.33 0 0.66 0 1 0 C1.06058594 0.99 1.12117187 1.98 1.18359375 3 C1.60460466 9.69466638 2.05074129 16.35518903 3 23 C1.02 22.67 -0.96 22.34 -3 22 C-1.68 21.67 -0.36 21.34 1 21 C0.83701416 20.42475586 0.67402832 19.84951172 0.50610352 19.25683594 C0.00962472 17.04291893 -0.11479744 15.15326203 -0.09765625 12.890625 C-0.09282227 11.75947266 -0.09282227 11.75947266 -0.08789062 10.60546875 C-0.07951172 9.82816406 -0.07113281 9.05085938 -0.0625 8.25 C-0.05798828 7.45722656 -0.05347656 6.66445313 -0.04882812 5.84765625 C-0.03708565 3.89840492 -0.01915146 1.94919262 0 0 Z " fill="#716E6A" transform="translate(756,256)"/>
<path d="M0 0 C1.65 0.33 3.3 0.66 5 1 C4.67 2.65 4.34 4.3 4 6 C2.35 5.67 0.7 5.34 -1 5 C-0.67 3.35 -0.34 1.7 0 0 Z " fill="#EBEBEA" transform="translate(584,283)"/>
<path d="M0 0 C-1.39750048 3.15835107 -3.05198234 5.32272825 -5.5 7.75 C-6.41265625 8.67039062 -6.41265625 8.67039062 -7.34375 9.609375 C-9 11 -9 11 -11 11 C-9.60249952 7.84164893 -7.94801766 5.67727175 -5.5 3.25 C-4.8915625 2.63640625 -4.283125 2.0228125 -3.65625 1.390625 C-2 0 -2 0 0 0 Z " fill="#A07739" transform="translate(269,464)"/>
<path d="M0 0 C1.98 0 3.96 0 6 0 C6 0.33 6 0.66 6 1 C4.35 1 2.7 1 1 1 C1.33 6.94 1.66 12.88 2 19 C-1.375 14.5 -1.375 14.5 -2 11 C-1.34 11 -0.68 11 0 11 C0 7.37 0 3.74 0 0 Z " fill="#746856" transform="translate(837,231)"/>
<path d="M0 0 C-0.98828125 1.55078125 -0.98828125 1.55078125 -3 3 C-5.84978871 2.89140867 -8.39495008 2.64357584 -11.1875 2.1875 C-12.31188477 2.02411133 -12.31188477 2.02411133 -13.45898438 1.85742188 C-15.30823349 1.58651277 -17.15447261 1.29519943 -19 1 C-19 0.67 -19 0.34 -19 0 C-16.58373582 -0.19534474 -14.16734771 -0.38153404 -11.75 -0.5625 C-11.06808594 -0.61857422 -10.38617188 -0.67464844 -9.68359375 -0.73242188 C-6.2579419 -0.98186254 -3.27298823 -1.13879745 0 0 Z " fill="#9D9A95" transform="translate(127,520)"/>
<path d="M0 0 C0.66 0.33 1.32 0.66 2 1 C1.34 5.29 0.68 9.58 0 14 C-0.66 12.68 -1.32 11.36 -2 10 C-2.66 10 -3.32 10 -4 10 C-2.66666667 6.66666667 -1.33333333 3.33333333 0 0 Z " fill="#486887" transform="translate(68,451)"/>
<path d="M0 0 C6.22222222 -0.47863248 6.22222222 -0.47863248 9.4375 1.5 C11.7384032 5.18144512 11.34728373 7.69368174 11 12 C10.67 12.66 10.34 13.32 10 14 C9.34 13.67 8.68 13.34 8 13 C8.33 12.34 8.66 11.68 9 11 C9.38938338 6.89294529 9.38938338 6.89294529 7.875 3.1875 C5.33323785 1.57771731 2.9601892 1.32890991 0 1 C0 0.67 0 0.34 0 0 Z " fill="#4C545B" transform="translate(168,528)"/>
<path d="M0 0 C1.051875 0.6496875 1.051875 0.6496875 2.125 1.3125 C6.23942462 3.72748837 10.30517827 3.7356314 15 4 C15 4.33 15 4.66 15 5 C7.87399867 5.35368021 2.52940894 4.95671348 -4 2 C-2.3125 0.8125 -2.3125 0.8125 0 0 Z " fill="#624B40" transform="translate(759,305)"/>
<path d="M0 0 C0.33 0.99 0.66 1.98 1 3 C6.445 2.505 6.445 2.505 12 2 C12 2.33 12 2.66 12 3 C9.54407842 3.55571948 7.08647254 4.09497489 4.625 4.625 C3.92632812 4.78484375 3.22765625 4.9446875 2.5078125 5.109375 C0.68829213 5.49427354 -1.15634853 5.75556082 -3 6 C-3.66 5.34 -4.32 4.68 -5 4 C-3.68 4 -2.36 4 -1 4 C-0.67 2.68 -0.34 1.36 0 0 Z " fill="#45586B" transform="translate(442,143)"/>
<path d="M0 0 C0.99 0.66 1.98 1.32 3 2 C2.38125 2.4125 1.7625 2.825 1.125 3.25 C-1.06768281 5.05573879 -1.92788417 6.4090534 -3 9 C-4.5625 6.625 -4.5625 6.625 -6 4 C-5.67 3.34 -5.34 2.68 -5 2 C-4.01 2 -3.02 2 -2 2 C-1.34 1.34 -0.68 0.68 0 0 Z " fill="#755632" transform="translate(489,278)"/>
<path d="M0 0 C2.97 0 5.94 0 9 0 C8.34 1.32 7.68 2.64 7 4 C4.69 3.34 2.38 2.68 0 2 C0 1.34 0 0.68 0 0 Z " fill="#537AA0" transform="translate(110,534)"/>
<path d="M0 0 C-1.44077046 3.36179774 -3.24750021 5.59156268 -6 8 C-6.66 8 -7.32 8 -8 8 C-6.48291727 4.46014029 -4.24676932 0 0 0 Z " fill="#A37837" transform="translate(208,535)"/>
<path d="M0 0 C0.99 1.32 1.98 2.64 3 4 C2.01 4 1.02 4 0 4 C-0.66 5.98 -1.32 7.96 -2 10 C-2.66 10 -3.32 10 -4 10 C-2.8905928 6.51329166 -1.73662334 3.22515763 0 0 Z " fill="#446280" transform="translate(69,374)"/>
<path d="M0 0 C2.5722047 1.28610235 3.00974907 2.33393981 4 5 C3.625 7.25 3.625 7.25 3 9 C0.9375 6.1875 0.9375 6.1875 -1 3 C-0.67 2.01 -0.34 1.02 0 0 Z " fill="#553627" transform="translate(472,280)"/>
<path d="M0 0 C0.99 0.99 1.98 1.98 3 3 C2.67 3.66 2.34 4.32 2 5 C1.01 5 0.02 5 -1 5 C-3.15028304 5.94978897 -3.15028304 5.94978897 -5 7 C-3.70700306 4.11562221 -2.34058637 2.12780579 0 0 Z " fill="#7E402C" transform="translate(604,261)"/>
<path d="M0 0 C2 0 2 0 4 1.875 C4.66 2.57625 5.32 3.2775 6 4 C6.66 4.66 7.32 5.32 8 6 C6.53984709 5.71758359 5.08190207 5.42373386 3.625 5.125 C2.81289063 4.96257812 2.00078125 4.80015625 1.1640625 4.6328125 C-1 4 -1 4 -3 2 C-2.01 1.67 -1.02 1.34 0 1 C0 0.67 0 0.34 0 0 Z " fill="#675844" transform="translate(911,279)"/>
<path d="M0 0 C0.66 0.66 1.32 1.32 2 2 C-2.29 2.66 -6.58 3.32 -11 4 C-10.67 3.01 -10.34 2.02 -10 1 C-8.37675914 0.77837671 -6.751279 0.57310197 -5.125 0.375 C-4.22007812 0.25898438 -3.31515625 0.14296875 -2.3828125 0.0234375 C-1.59648438 0.01570313 -0.81015625 0.00796875 0 0 Z " fill="#714523" transform="translate(599,294)"/>
<path d="M0 0 C0.1546875 0.86625 0.1546875 0.86625 0.3125 1.75 C1.09792798 4.32049158 2.30504197 5.93657284 4 8 C3.34 8 2.68 8 2 8 C1.67 8.66 1.34 9.32 1 10 C-0.83691257 6.21812119 -1.15837626 4.05431692 0 0 Z " fill="#5E3D23" transform="translate(379,278)"/>
<path d="M0 0 C0.99 0.33 1.98 0.66 3 1 C2.0479279 2.00596297 1.08812654 3.00461563 0.125 4 C-0.40867187 4.556875 -0.94234375 5.11375 -1.4921875 5.6875 C-3 7 -3 7 -5 7 C-5 5 -5 5 -2.5 2.375 C-1.675 1.59125 -0.85 0.8075 0 0 Z " fill="#D6D5D4" transform="translate(435,268)"/>
<path d="M0 0 C0.66 0.33 1.32 0.66 2 1 C0.6875 3.5 0.6875 3.5 -1 6 C-1.99 6 -2.98 6 -4 6 C-4.33 5.34 -4.66 4.68 -5 4 C-3.35 2.68 -1.7 1.36 0 0 Z " fill="#804936" transform="translate(444,237)"/>
<path d="M0 0 C2 0 2 0 4 1.875 C4.66 2.57625 5.32 3.2775 6 4 C6.66 4.66 7.32 5.32 8 6 C3.545 5.01 3.545 5.01 -1 4 C-0.34 3.67 0.32 3.34 1 3 C0.67 2.01 0.34 1.02 0 0 Z " fill="#64493C" transform="translate(906,378)"/>
<path d="M0 0 C1.32 0 2.64 0 4 0 C3.67 1.32 3.34 2.64 3 4 C1.68 3.67 0.36 3.34 -1 3 C-0.67 2.01 -0.34 1.02 0 0 Z " fill="#DF6744" transform="translate(439,294)"/>
<path d="M0 0 C3.64734979 0.22330713 5.38372835 0.38372835 8 3 C4.37 3 0.74 3 -3 3 C-2.01 2.01 -1.02 1.02 0 0 Z " fill="#685840" transform="translate(920,257)"/>
</svg>
