<?xml version="1.0" encoding="UTF-8"?>
<svg version="1.1" xmlns="http://www.w3.org/2000/svg" width="1008" height="606">
<path d="M0 0 C332.64 0 665.28 0 1008 0 C1008 199.98 1008 399.96 1008 606 C675.36 606 342.72 606 0 606 C0 406.02 0 206.04 0 0 Z " fill="#D6CDC1" transform="translate(0,0)"/>
<path d="M0 0 C1.54396652 3.49965745 1.03130282 5.47899061 -0.0625 9.125 C-5.9914628 18.0369722 -15.46767283 25.09380264 -23.75 31.6875 C-31.19158075 37.71315766 -39.26373265 44.64850798 -40.49609375 54.640625 C-40.50821583 66.22933684 -37.83087069 73.56750149 -31.5 83.125 C-24.83282874 93.21195869 -22.83308966 101.9845729 -24.0625 114.125 C-27.7384501 129.81342991 -41.57871948 139.01606462 -53.53125 148.359375 C-72.03784339 162.58319262 -72.03784339 162.58319262 -84.0625 182.125 C-83.10549194 182.10143433 -83.10549194 182.10143433 -82.12915039 182.07739258 C-68.73737013 181.79240991 -56.14595443 182.13855931 -43.0625 185.125 C-43.0625 185.455 -43.0625 185.785 -43.0625 186.125 C-44.75020515 185.98156032 -46.43765486 185.83511431 -48.125 185.6875 C-49.53458984 185.56568359 -49.53458984 185.56568359 -50.97265625 185.44140625 C-53.0423073 185.2294698 -55.10578704 184.9458497 -57.15625 184.59375 C-62.61214621 183.93904246 -68.01138988 184.020483 -73.5 184.0625 C-79.2234375 184.0934375 -79.2234375 184.0934375 -85.0625 184.125 C-84.7325 193.035 -84.4025 201.945 -84.0625 211.125 C-83.4025 211.455 -82.7425 211.785 -82.0625 212.125 C-83.0525 212.455 -84.0425 212.785 -85.0625 213.125 C-85.0625 220.055 -85.0625 226.985 -85.0625 234.125 C-83.4125 233.795 -81.7625 233.465 -80.0625 233.125 C-83.32949134 236.39199134 -86.32507546 236.24083194 -90.76651001 236.24942017 C-91.54118622 236.24582489 -92.31586243 236.24222961 -93.11401367 236.23852539 C-93.93375168 236.23867142 -94.75348969 236.23881744 -95.59806824 236.2389679 C-98.30889528 236.23827096 -101.0196537 236.23048878 -103.73046875 236.22265625 C-105.60948143 236.22079129 -107.4884946 236.21936776 -109.36750793 236.21836853 C-114.31425315 236.21454948 -119.26096902 236.20472438 -124.20770264 236.19366455 C-129.25500085 236.1834373 -134.30230379 236.17886809 -139.34960938 236.17382812 C-149.25391914 236.16310159 -159.15820713 236.14603248 -169.0625 236.125 C-169.06836624 235.50605362 -169.07423248 234.88710724 -169.08027649 234.24940491 C-169.14447835 227.77592133 -169.2289659 221.30292263 -169.32495117 214.82983398 C-169.35809475 212.41778986 -169.38615918 210.00567015 -169.40893555 207.59350586 C-169.44267572 204.11539665 -169.49500262 200.63797356 -169.55078125 197.16015625 C-169.55717117 196.09104507 -169.5635611 195.0219339 -169.57014465 193.92042542 C-169.85491561 179.24063113 -175.84058873 169.73814516 -186.2265625 159.6640625 C-190.25070204 156.06118274 -194.49522922 152.8095256 -198.81640625 149.57421875 C-202.85510675 146.54969951 -206.75145386 143.35993397 -210.6328125 140.13671875 C-212.08948293 138.93063311 -213.55952193 137.74005164 -215.0546875 136.58203125 C-222.07621594 131.01161869 -227.02948029 123.52619619 -230.0625 115.125 C-231.7580023 100.27789879 -227.6381036 89.93028983 -219.59228516 77.78125 C-214.10501078 69.44109235 -213.18291468 62.06317179 -214.0625 52.125 C-216.67231059 41.65072663 -227.2615981 33.72240739 -235.2890625 27.34765625 C-253.68662335 12.60369551 -253.68662335 12.60369551 -255.25 5 C-255.0625 1.125 -255.0625 1.125 -253.375 -1.5625 C-220.1595492 -28.60677415 -30.33894695 -27.58086086 0 0 Z " fill="#DC6544" transform="translate(633.0625,307.875)"/>
<path d="M0 0 C9.55166261 8.13794405 16.1914695 18.60877026 17.39453125 31.296875 C17.54769889 45.58741588 13.9516282 56.19197057 4.21484375 66.75390625 C-2.86519917 73.48575033 -10.96514521 76.62858218 -20.50366211 78.23144531 C-21.23970389 78.35775455 -21.97574568 78.4840638 -22.73409176 78.61420059 C-32.1179418 80.17758341 -41.56123889 81.25965165 -51.0078125 82.36328125 C-53.06951261 82.60802328 -55.13115129 82.8532833 -57.19273376 83.09901428 C-61.62381779 83.62653262 -66.0551935 84.15149723 -70.48681641 84.67446899 C-82.75589419 86.12318795 -95.02245376 87.59304716 -107.2890625 89.0625 C-108.56571903 89.21532125 -109.84237556 89.36814251 -111.15771866 89.52559471 C-135.92463028 92.49198579 -160.67683814 95.56922479 -185.42550659 98.6836853 C-238.9480159 105.41912147 -292.48473489 112.03846178 -346.02718019 118.61339539 C-347.14573759 118.75075366 -348.26429498 118.88811193 -349.41674805 119.02963257 C-350.53379608 119.16680248 -351.65084411 119.30397239 -352.80174208 119.44529897 C-360.67774389 120.41269875 -368.55341921 121.38272727 -376.42895508 122.35391235 C-386.0942259 123.54575591 -395.75991481 124.73413667 -405.42615366 125.91810465 C-410.43440913 126.53162159 -415.44246136 127.14669135 -420.45002747 127.76581192 C-425.09072167 128.33950025 -429.73195047 128.90864349 -434.3736372 129.47424352 C-436.06200141 129.68076917 -437.75016645 129.8889309 -439.43810749 130.09888709 C-441.74019802 130.38497946 -444.04294481 130.66506821 -446.34594727 130.94371033 C-447.62808609 131.1012123 -448.91022491 131.25871428 -450.23121643 131.42098904 C-462.51699775 132.52339842 -474.53453039 130.50580828 -484.44140625 122.8125 C-493.37594067 115.16762308 -499.95596736 106.75047287 -501.13769531 94.76269531 C-502.06686009 81.66673143 -500.47078627 70.61153644 -491.62890625 60.31640625 C-482.42886303 50.94936555 -473.81428865 46.2919626 -460.75 44.40234375 C-459.89093552 44.27619186 -459.03187103 44.15003998 -458.14677429 44.02006531 C-445.2383149 42.17201624 -432.27814782 40.70035717 -419.32928467 39.16781616 C-410.26004578 38.09411052 -401.1924329 37.00680595 -392.125 35.91796875 C-391.13277687 35.7988658 -390.14055374 35.67976284 -389.11826324 35.5570507 C-352.11670093 31.11155293 -315.13848982 26.47254585 -278.15600491 21.87160206 C-267.90697007 20.59663078 -257.657581 19.32452395 -247.40800571 18.05390453 C-240.69877491 17.22175372 -233.99016165 16.3848825 -227.28215599 15.54291439 C-223.42871764 15.06005254 -219.57481243 14.58100385 -215.72076797 14.10300636 C-213.98695554 13.88709857 -212.2533516 13.6695083 -210.5199852 13.45004845 C-208.18589294 13.15468996 -205.85113264 12.86531549 -203.51611328 12.57739258 C-201.5931694 12.33657707 -201.5931694 12.33657707 -199.63137817 12.09089661 C-195.69536467 11.73143626 -191.89093963 11.69626567 -187.94140625 11.75390625 C-187.94140625 12.08390625 -187.94140625 12.41390625 -187.94140625 12.75390625 C-188.77542969 12.97304687 -189.60945313 13.1921875 -190.46875 13.41796875 C-202.26666553 16.74246728 -210.71538187 21.66266087 -217.94140625 31.75390625 C-223.85907217 42.45856743 -226.05395591 53.9053393 -222.81640625 65.94140625 C-218.90023216 77.21413167 -212.36431861 85.68833029 -201.75390625 91.12890625 C-192.13352313 95.74767812 -180.941306 96.29788414 -170.5234375 94 C-165.52620405 92.24235237 -161.17016932 89.97582097 -156.94140625 86.75390625 C-156.13703125 86.15835938 -155.33265625 85.5628125 -154.50390625 84.94921875 C-146.55105664 78.1359543 -142.47083142 68.18642201 -141.62890625 57.95703125 C-141.0416734 44.31566086 -144.75029185 33.99169559 -153.94140625 23.75390625 C-163.2375335 15.54743494 -174.96731118 13.20069675 -186.94140625 11.75390625 C-186.94140625 11.42390625 -186.94140625 11.09390625 -186.94140625 10.75390625 C-172.91619837 9.01437907 -158.89092858 7.27535176 -144.86559391 5.53684711 C-138.34811351 4.7289618 -131.83065063 3.92093576 -125.31323242 3.11254883 C-122.7797853 2.79833865 -120.24633804 2.48412966 -117.71289062 2.16992188 C-116.46405783 2.01501219 -115.21522503 1.8601025 -113.92854881 1.70049858 C-107.68449249 0.9262081 -101.44027189 0.15328407 -95.19570923 -0.61691284 C-92.753029 -0.91825434 -90.31035115 -1.21961518 -87.86767578 -1.52099609 C-86.68323694 -1.66710768 -85.4987981 -1.81321926 -84.27846718 -1.96375847 C-77.69040956 -2.77792314 -71.10389056 -3.60305117 -64.51895618 -4.44209957 C-60.73704087 -4.92332253 -56.95441445 -5.39878971 -53.17165947 -5.87336159 C-51.46789626 -6.08869483 -49.76448186 -6.30681128 -48.06147957 -6.52808189 C-31.19246782 -8.71878604 -14.5587449 -10.65860406 0 0 Z " fill="#6EB1F3" transform="translate(552.94140625,65.24609375)"/>
<path d="M0 0 C3.875 1.75 3.875 1.75 5 4 C5.15441209 6.10374996 5.24992639 8.21195119 5.31640625 10.3203125 C5.35830078 11.57714844 5.40019531 12.83398438 5.44335938 14.12890625 C5.48267578 15.44761719 5.52199219 16.76632812 5.5625 18.125 C5.60569512 19.46485751 5.64930973 20.80470156 5.69335938 22.14453125 C5.79970981 25.42957815 5.90173808 28.71470281 6 32 C6.43062744 31.61328125 6.86125488 31.2265625 7.30493164 30.828125 C28.40487383 12.25396916 55.69117967 7.32773464 83 9 C98.4306969 10.50425033 115.21472741 16.32685452 125.9375 27.9375 C132.35323249 35.86100655 134.97104338 43.84688471 134 54 C131.8990323 63.97959659 126.28458621 71.32258176 117.96875 77.109375 C116.03139367 78.31772612 114.07297318 79.49333766 112.08984375 80.625 C111.40019531 81.07875 110.71054688 81.5325 110 82 C110 82.66 110 83.32 110 84 C108.82179687 84.12246094 107.64359375 84.24492187 106.4296875 84.37109375 C102.49358174 84.85944648 98.922188 85.90340213 95.125 87.0625 C68.57584939 93.95089475 39.29641684 89.45756291 15.70556641 76.01123047 C11.64193978 73.60190589 7.53851235 71.14723454 4 68 C4 67.34 4 66.68 4 66 C3.01 66 2.02 66 1 66 C-2.90349905 83.26368925 -3.13022998 97.98321037 2 115 C5.15506339 115 6.70411763 112.95253728 9.125 111 C20.79557019 101.98020389 33.89008264 96.9027431 48 93 C47.71253906 93.70125 47.42507812 94.4025 47.12890625 95.125 C43.36593256 104.70821328 41.33726175 113.69665352 41 124 C40.67 124 40.34 124 40 124 C40 120.37 40 116.74 40 113 C29.82270823 117.99419306 20.93877993 122.74913044 13 131 C23.17254395 144.4717474 39.90592143 150.73003398 56 154 C58.27381036 154.14140159 58.27381036 154.14140159 60.25 154 C64.01469297 154 65.67417691 154.57124883 69.0625 156 C78.09493853 159.52516004 88.54896266 159.29775965 97.66796875 156.03125 C106.28722914 152.21971777 112.13729378 147.36932346 118 140 C119 142 119 142 118.21484375 144.7578125 C114.66043806 154.12753025 110.55503827 163.50451688 101 168 C76.07712306 175.53042679 48.37320119 173.48941386 25 162 C20.51523904 159.56079039 16.24332257 156.83863648 12 154 C11.22011719 153.48824219 10.44023438 152.97648438 9.63671875 152.44921875 C8.04332128 151.36673029 6.511033 150.19477028 5 149 C5 148.34 5 147.68 5 147 C4.01 147 3.02 147 2 147 C-3.62458317 160.98612868 -4.17775789 176.72553902 1 191 C1.64020207 192.34624052 2.29817174 193.68483487 3 195 C3.88300781 194.40832031 4.76601562 193.81664062 5.67578125 193.20703125 C24.8587725 180.50441692 44.9942574 174.09551155 68 173 C69.24716797 172.93619141 69.24716797 172.93619141 70.51953125 172.87109375 C89.16010372 172.39475885 110.69885166 176.29068843 124.875 189.25 C131.08134813 195.94867863 134.41165553 204.36399331 134.27734375 213.4375 C133.27960945 222.65600283 128.82955927 230.9343429 121.77734375 236.87109375 C103.2105703 250.55342284 78.03835981 254.59207443 55.50073242 251.17993164 C33.61105737 247.39631375 17.5409967 238.5409967 2 223 C-1.96546234 229.87628044 -1.8458618 236.24223889 -1 244 C0.13721987 247.77556998 1.75822989 250.76955179 4 254 C4.69222656 255.02480469 4.69222656 255.02480469 5.3984375 256.0703125 C18.67359147 273.25388743 43.24714433 278.27605411 63.4375 281.125 C71.32346676 282.13574216 79.25080536 282.36296268 87.19506836 282.48291016 C96.10722498 282.71975272 96.10722498 282.71975272 100 286 C101.12256131 288.24512262 101.13413762 289.51456649 101.125 292 C101.12886719 293.051875 101.12886719 293.051875 101.1328125 294.125 C101 296 101 296 100 298 C99.34 297.67 98.68 297.34 98 297 C98.33 296.34 98.66 295.68 99 295 C99.37615126 290.86935374 99.37615126 290.86935374 97.875 287.125 C95.17393914 285.50436349 93.09341008 285.74221583 90 286 C89.01 286.33 88.02 286.66 87 287 C86.54440428 292.19212465 86.54440428 292.19212465 88.125 296.9375 C90.68102669 298.38591512 93.10340247 298.67815583 96 299 C96 299.33 96 299.66 96 300 C60.51553287 300.45885087 22.4249584 296.10533032 -4.6875 270.8125 C-13.96895327 261.15321766 -19.00416946 249.93637267 -19.4375 236.625 C-19.25410224 227.97910571 -17.23741498 220.43431347 -12.6875 213.0625 C-10.68006158 209.41937101 -10.90131892 208.87257886 -12 205 C-12.69299759 203.15537377 -13.38869921 201.31147037 -14.12060547 199.48193359 C-21.71746401 180.46935337 -22.44207458 160.5963782 -14.4375 141.4375 C-14.02371094 140.52871094 -13.60992187 139.61992187 -13.18359375 138.68359375 C-10.48015816 133.37695919 -10.48015816 133.37695919 -10.7578125 127.75390625 C-11.20898438 127.03074219 -11.66015625 126.30757813 -12.125 125.5625 C-17.22241955 116.32864983 -19.58345376 105.50043636 -20 95 C-20.0515625 94.18917969 -20.103125 93.37835938 -20.15625 92.54296875 C-20.66489577 78.40685496 -17.44374339 62.24641044 -9.82714844 50.13500977 C-8.68996718 47.19975295 -9.3965139 45.73318269 -10.36328125 42.765625 C-12.48262331 35.07380438 -12.33335432 27.64081037 -12.1875 19.75 C-12.17240782 18.31121211 -12.15872752 16.8724087 -12.14648438 15.43359375 C-12.11387918 11.95539915 -12.06235489 8.47780375 -12 5 C-11.70480469 5.61230469 -11.40960938 6.22460938 -11.10546875 6.85546875 C-9.69519647 9.59129731 -8.50177172 11.1743828 -6 13 C-2.37350049 13.08916154 -2.37350049 13.08916154 1 12 C3.32821558 9.18138229 3.32821558 9.18138229 2.75 6 C2.14014017 2.84584582 2.14014017 2.84584582 0 0 Z " fill="#6BA9E6" transform="translate(78,244)"/>
<path d="M0 0 C1.37924904 0.00212242 1.37924904 0.00212242 2.78636169 0.00428772 C5.68964046 0.00983313 8.59283876 0.02237508 11.49609375 0.03515625 C13.4785145 0.04017832 15.46093648 0.04473998 17.44335938 0.04882812 C22.27346795 0.05978461 27.10351726 0.07701083 31.93359375 0.09765625 C31.9777252 2.96110854 32.00982794 5.82386975 32.03515625 8.6875 C32.04877197 9.49102905 32.0623877 10.29455811 32.07641602 11.12243652 C32.16154874 23.98075288 26.87083797 33.81188386 18.43359375 43.22265625 C5.68023423 55.34919659 -13.56747681 58.53444772 -30.19140625 61.59765625 C-56.7888964 66.52791343 -74.38175433 78.44575445 -93.90625 96.76171875 C-119.89142107 121.08376993 -147.61634242 135.48468323 -183.9140625 134.53515625 C-202.85123797 133.63540923 -220.38768615 126.41451307 -238.06640625 120.09765625 C-278.06033179 105.84239566 -317.5714583 102.66711058 -358.42138672 116.07885742 C-363.3348579 117.68134871 -367.91514379 118.6112458 -373.06640625 119.09765625 C-373.27093776 115.72356066 -373.39442074 112.35106633 -373.50390625 108.97265625 C-373.56255859 108.02132812 -373.62121094 107.07 -373.68164062 106.08984375 C-373.84916427 99.19744218 -373.84916427 99.19744218 -371.75170898 96.25048828 C-369.94454846 94.64929749 -368.11715424 93.37026164 -366.06640625 92.09765625 C-365.44612549 91.6814502 -364.82584473 91.26524414 -364.18676758 90.83642578 C-362.24073415 89.56890213 -360.26321567 88.38707765 -358.25390625 87.22265625 C-357.526875 86.79847412 -356.79984375 86.37429199 -356.05078125 85.93725586 C-323.7160649 67.47952194 -290.09237345 62.35321952 -253.83935547 71.7043457 C-245.51662418 74.03101443 -237.58705151 77.38816698 -229.69384766 80.8828125 C-223.55929397 83.50305477 -219.61621151 84.68216004 -213.06640625 83.09765625 C-213.39640625 83.75765625 -213.72640625 84.41765625 -214.06640625 85.09765625 C-214.72640625 85.09765625 -215.38640625 85.09765625 -216.06640625 85.09765625 C-216.06640625 85.75765625 -216.06640625 86.41765625 -216.06640625 87.09765625 C-215.38578125 87.2678125 -214.70515625 87.43796875 -214.00390625 87.61328125 C-213.03453125 87.855625 -212.06515625 88.09796875 -211.06640625 88.34765625 C-209.97199219 88.61707031 -208.87757813 88.88648438 -207.75 89.1640625 C-205.20769452 89.80840079 -202.68736605 90.47752818 -200.1640625 91.1875 C-180.07852922 96.73744999 -162.93976201 93.2402314 -144.99365234 83.20507812 C-135.32727907 77.65064828 -126.53660515 71.36946163 -118.06640625 64.09765625 C-116.9318553 63.14740293 -115.7963926 62.19823742 -114.66015625 61.25 C-108.02365667 55.67769919 -101.80249375 49.92022367 -95.75 43.71484375 C-92.09911561 40.15430147 -88.19930671 37.02045222 -84.18359375 33.875 C-81.98701211 32.27011883 -81.98701211 32.27011883 -81.06640625 30.09765625 C-82.02675781 30.25878906 -82.98710938 30.41992188 -83.9765625 30.5859375 C-88.4877066 31.22682169 -92.95369088 31.2815421 -97.50390625 31.28515625 C-98.31150391 31.29740234 -99.11910156 31.30964844 -99.95117188 31.32226562 C-105.89418132 31.33663229 -111.9187369 31.00533464 -117.12890625 27.84765625 C-118.06640625 26.09765625 -118.06640625 26.09765625 -118.25390625 23.16015625 C-117.06640625 20.09765625 -117.06640625 20.09765625 -113.81640625 17.84765625 C-101.74715787 12.68434143 -85.57534921 12.23975795 -73.06640625 16.09765625 C-70.12890625 17.72265625 -70.12890625 17.72265625 -68.06640625 19.09765625 C-64.14350698 19.09765625 -62.64245867 17.69311375 -59.37890625 15.53515625 C-46.58974541 7.43402445 -34.06942536 2.97138404 -19.06640625 1.09765625 C-18.07199524 0.96652687 -18.07199524 0.96652687 -17.05749512 0.83274841 C-11.35015005 0.12888701 -5.74626071 -0.03400194 0 0 Z " fill="#6EB0F1" transform="translate(921.06640625,422.90234375)"/>
<path d="M0 0 C2.52060966 2.20169106 4.89606938 4.48504153 7.25 6.86328125 C7.94738281 7.52714844 8.64476562 8.19101563 9.36328125 8.875 C22.0334166 21.7911574 26.78845512 39.4165234 26.67236328 57.10742188 C26.0693288 75.60047945 17.80946884 90.25037371 5.60546875 103.671875 C4.25 104.86328125 4.25 104.86328125 2.25 104.86328125 C1.92 104.53328125 1.59 104.20328125 1.25 103.86328125 C1.97896484 105.55517578 1.97896484 105.55517578 2.72265625 107.28125 C4.47131035 111.96665377 4.75085428 116.20951002 4.6875 121.17578125 C4.67992676 122.00956299 4.67235352 122.84334473 4.66455078 123.70239258 C4.32330229 136.51913784 -0.82417161 145.2781881 -9.875 154.05078125 C-18.12354976 161.14090524 -28.42094475 164.25536621 -39.19921875 164.07421875 C-51.00955808 163.09755975 -61.13512243 158.3844793 -69.22265625 149.70703125 C-71.79188704 146.60555572 -73.90024259 143.44083403 -75.75 139.86328125 C-76.23146484 138.93515625 -76.23146484 138.93515625 -76.72265625 137.98828125 C-80.02135378 130.1327783 -78.97473464 121.20343332 -78.75 112.86328125 C-78.75 111.87328125 -78.75 110.88328125 -78.75 109.86328125 C-79.33265625 109.59515625 -79.9153125 109.32703125 -80.515625 109.05078125 C-94.1860474 101.78538193 -102.39508272 86.45380407 -107.125 72.36328125 C-111.86978591 54.30119705 -109.05740359 34.91659042 -99.73046875 18.828125 C-96.52168994 14.02445022 -92.84833871 9.91972893 -88.75 5.86328125 C-87.75419922 4.81720703 -87.75419922 4.81720703 -86.73828125 3.75 C-80.13250957 -2.72994746 -72.1549035 -6.50894229 -63.75 -10.13671875 C-62.85796875 -10.52214844 -61.9659375 -10.90757813 -61.046875 -11.3046875 C-41.16604857 -18.13471335 -16.20126881 -12.58820176 0 0 Z " fill="#D5CCC1" transform="translate(866.75,87.13671875)"/>
<path d="M0 0 C16.5 0 33 0 50 0 C50 47.19 50 94.38 50 143 C-6.76 143 -63.52 143 -122 143 C-115.38387356 135.28118582 -109.28402898 130.61833864 -100.34936523 126.06884766 C-85.64224521 118.57252655 -77.94134986 108.02790215 -72.5 92.5 C-66.02143013 74.03886292 -55.72468264 64.02838698 -38.81201172 54.97851562 C-24.95852163 47.49740699 -16.84610492 36.75604353 -11.546875 22.03125 C-11.29832764 21.34240723 -11.04978027 20.65356445 -10.79370117 19.94384766 C-10.32627056 18.62130775 -9.87430176 17.29313464 -9.44262695 15.95849609 C-7.20432865 9.47715552 -4.30351271 6.1478753 0 0 Z " fill="#DA9C3D" transform="translate(320,401)"/>
<path d="M0 0 C9.55166261 8.13794405 16.1914695 18.60877026 17.39453125 31.296875 C17.54769889 45.58741588 13.9516282 56.19197057 4.21484375 66.75390625 C-10.68239419 80.91849314 -34.82025564 80.47646592 -54.13671875 82.75 C-56.45959856 83.02713487 -58.78242258 83.30473778 -61.10519409 83.58277893 C-67.19179885 84.31030043 -73.27903235 85.0324104 -79.36645508 85.75305176 C-89.03527859 86.89857288 -98.7031399 88.05219561 -108.37099457 89.20586014 C-111.86157959 89.62200294 -115.35232547 90.0367777 -118.84307861 90.45150757 C-128.55599401 91.60827722 -138.26643225 92.77429425 -147.96386719 94.05517578 C-149.06899438 94.20080947 -149.06899438 94.20080947 -150.19644737 94.34938526 C-153.44005612 94.77855895 -156.68206641 95.21591627 -159.92288208 95.6658783 C-165.99710411 96.48574913 -171.81123974 96.91807112 -177.94140625 96.75390625 C-174.87065476 95.18060489 -171.83631635 93.98719511 -168.56640625 92.87890625 C-164.21211407 91.31553007 -160.64717223 89.577347 -156.94140625 86.75390625 C-155.73484375 85.86058594 -155.73484375 85.86058594 -154.50390625 84.94921875 C-146.55105664 78.1359543 -142.47083142 68.18642201 -141.62890625 57.95703125 C-141.0416734 44.31566086 -144.75029185 33.99169559 -153.94140625 23.75390625 C-163.2375335 15.54743494 -174.96731118 13.20069675 -186.94140625 11.75390625 C-186.94140625 11.42390625 -186.94140625 11.09390625 -186.94140625 10.75390625 C-172.91619837 9.01437907 -158.89092858 7.27535176 -144.86559391 5.53684711 C-138.34811351 4.7289618 -131.83065063 3.92093576 -125.31323242 3.11254883 C-122.7797853 2.79833865 -120.24633804 2.48412966 -117.71289062 2.16992188 C-116.46405783 2.01501219 -115.21522503 1.8601025 -113.92854881 1.70049858 C-107.68449249 0.9262081 -101.44027189 0.15328407 -95.19570923 -0.61691284 C-92.753029 -0.91825434 -90.31035115 -1.21961518 -87.86767578 -1.52099609 C-86.09101752 -1.74016347 -86.09101752 -1.74016347 -84.27846718 -1.96375847 C-77.69040956 -2.77792314 -71.10389056 -3.60305117 -64.51895618 -4.44209957 C-60.73704087 -4.92332253 -56.95441445 -5.39878971 -53.17165947 -5.87336159 C-51.46789626 -6.08869483 -49.76448186 -6.30681128 -48.06147957 -6.52808189 C-31.19246782 -8.71878604 -14.5587449 -10.65860406 0 0 Z " fill="#6EB0F2" transform="translate(552.94140625,65.24609375)"/>
<path d="M0 0 C16.4501397 15.01860082 28.39131993 36.52645539 29.71704102 59.02490234 C30.81182485 87.72172013 24.31989206 110.58044857 4.96484375 132.23828125 C-0.54917062 138.01373595 -6.11351445 142.44144552 -12.91015625 146.58203125 C-15.38321675 148.29561792 -16.81278532 149.83248303 -18.44140625 152.3359375 C-18.28285156 151.37300781 -18.12429688 150.41007813 -17.9609375 149.41796875 C-16.49828623 139.08068739 -15.73276517 127.49828354 -20.6640625 118.05078125 C-20.92058594 117.48488281 -21.17710937 116.91898438 -21.44140625 116.3359375 C-21.11140625 115.6759375 -20.78140625 115.0159375 -20.44140625 114.3359375 C-19.45140625 116.8109375 -19.45140625 116.8109375 -18.44140625 119.3359375 C-5.63035011 109.40083274 2.09432264 94.26489717 4.55859375 78.3359375 C6.34726541 60.04049733 2.65193897 41.43068782 -9.09375 26.90234375 C-20.62850914 13.54372987 -35.88848115 3.48213869 -53.88623047 2.15576172 C-73.46515686 1.1706363 -90.58297459 4.42692638 -105.81640625 17.7734375 C-107.37509613 19.27681903 -108.91824418 20.79657158 -110.44140625 22.3359375 C-111.37726562 23.22152344 -111.37726562 23.22152344 -112.33203125 24.125 C-124.64507376 36.71536329 -129.0069869 54.59671321 -128.9296875 71.67504883 C-128.33300347 90.49013005 -119.96260391 106.34592975 -106.44140625 119.3359375 C-104.16918692 121.18211571 -101.91377521 122.75782965 -99.44140625 124.3359375 C-98.78140625 123.0159375 -98.12140625 121.6959375 -97.44140625 120.3359375 C-97.60253906 121.30789062 -97.76367188 122.27984375 -97.9296875 123.28125 C-98.54252892 127.59608746 -98.63258051 131.85785899 -98.62890625 136.2109375 C-98.62955078 137.00161621 -98.63019531 137.79229492 -98.63085938 138.60693359 C-98.58098271 144.10810282 -98.01139036 149.03724112 -96.44140625 154.3359375 C-120.29895218 143.36005468 -139.01668182 126.23668545 -148.44140625 101.3359375 C-156.03106266 79.21015948 -156.45599471 54.15726812 -147.06640625 32.4609375 C-146.20803246 30.74418993 -145.33318887 29.03557026 -144.44140625 27.3359375 C-143.81492187 26.02109375 -143.81492187 26.02109375 -143.17578125 24.6796875 C-132.3475183 3.02316159 -112.02788644 -12.07012159 -89.44140625 -19.6640625 C-57.44564673 -29.22903164 -25.22880496 -21.45730001 0 0 Z " fill="#DB9C3D" transform="translate(887.44140625,72.6640625)"/>
<path d="M0 0 C3.875 1.75 3.875 1.75 5 4 C5.15441209 6.10374996 5.24992639 8.21195119 5.31640625 10.3203125 C5.35830078 11.57714844 5.40019531 12.83398438 5.44335938 14.12890625 C5.48267578 15.44761719 5.52199219 16.76632812 5.5625 18.125 C5.60569512 19.46485751 5.64930973 20.80470156 5.69335938 22.14453125 C5.79970981 25.42957815 5.90173808 28.71470281 6 32 C6.43062744 31.61328125 6.86125488 31.2265625 7.30493164 30.828125 C28.40487383 12.25396916 55.69117967 7.32773464 83 9 C98.4306969 10.50425033 115.21472741 16.32685452 125.9375 27.9375 C132.35323249 35.86100655 134.97104338 43.84688471 134 54 C131.8990323 63.97959659 126.28458621 71.32258176 117.96875 77.109375 C116.03139367 78.31772612 114.07297318 79.49333766 112.08984375 80.625 C111.40019531 81.07875 110.71054688 81.5325 110 82 C110 82.66 110 83.32 110 84 C108.82179688 84.12246094 107.64359375 84.24492187 106.4296875 84.37109375 C102.49358174 84.85944648 98.922188 85.90340213 95.125 87.0625 C68.57584939 93.95089475 39.29641684 89.45756291 15.70556641 76.01123047 C11.64193978 73.60190589 7.53851235 71.14723454 4 68 C4 67.34 4 66.68 4 66 C3.01 66 2.02 66 1 66 C0.34 68.64 -0.32 71.28 -1 74 C-5.63625957 72.17861231 -7.90689407 68.92594855 -10.3125 64.6875 C-11.48051112 60.12163834 -10.37660371 55.7194538 -9.38671875 51.19995117 C-8.97299508 47.7765445 -9.38123747 45.89187332 -10.42578125 42.640625 C-12.4999916 35.00488649 -12.33221415 27.57912664 -12.1875 19.75 C-12.17240782 18.31121211 -12.15872752 16.8724087 -12.14648438 15.43359375 C-12.11387918 11.95539915 -12.06235489 8.47780375 -12 5 C-11.70480469 5.61230469 -11.40960938 6.22460938 -11.10546875 6.85546875 C-9.69519647 9.59129731 -8.50177172 11.1743828 -6 13 C-2.37350049 13.08916154 -2.37350049 13.08916154 1 12 C3.32821558 9.18138229 3.32821558 9.18138229 2.75 6 C2.14014017 2.84584582 2.14014017 2.84584582 0 0 Z " fill="#69A6E2" transform="translate(78,244)"/>
<path d="M0 0 C1.3125 3.5625 1.3125 3.5625 1 7 C-10.33904459 20.68505381 -43.21390192 21.69162976 -59.44042969 23.35205078 C-67.28458038 24.05733136 -75.13765087 24.55068793 -83 25 C-83.90588867 25.05784668 -84.81177734 25.11569336 -85.74511719 25.17529297 C-219.2465043 33.65436712 -219.2465043 33.65436712 -250.98828125 7.7578125 C-252 6 -252 6 -251.97265625 2.99609375 C-251 0 -251 0 -248.9453125 -1.72265625 C-207.0349122 -21.63299877 -34.31052669 -30.66047066 0 0 Z " fill="#E2A13D" transform="translate(631,306)"/>
<path d="M0 0 C0.99 0 1.98 0 3 0 C3 0.66 3 1.32 3 2 C3.55558594 2.26167969 4.11117187 2.52335937 4.68359375 2.79296875 C7.27021742 4.14080469 9.63298144 5.69878443 12.0625 7.3125 C21.85581389 13.55638531 31.78629593 17.09837488 43 20 C44.13179687 20.35964844 45.26359375 20.71929687 46.4296875 21.08984375 C53.10385367 22.7353861 60.10412595 22.38951185 66.9375 22.375 C68.04141586 22.37667679 68.04141586 22.37667679 69.16763306 22.37838745 C80.32083306 22.37002229 90.30818921 21.30715638 101 18 C106.31445841 16.66812099 106.31445841 16.66812099 109.08984375 18.01171875 C117.60543518 25.73516214 123.51230285 35.50323181 124.17578125 47.0625 C124.46768648 60.33650608 121.59820204 71.15607198 112.5 81.25 C102.74769962 90.39867638 90.88355049 93.49023588 77.86328125 93.30078125 C73.23155914 92.94017195 69.63957118 91.66500219 65.39453125 89.875 C62.62051948 88.86133175 60.25438425 88.95100565 57.328125 89.09375 C42.74174565 88.50637902 24.33424259 79.97217227 14.41796875 69.296875 C13.23417842 67.9011112 12.1091611 66.45577395 11 65 C18.20405763 56.91080219 27.19504536 51.45679756 37 47 C37.66 47 38.32 47 39 47 C39.33773437 45.96359375 39.67546875 44.9271875 40.0234375 43.859375 C40.47379737 42.4895304 40.92432714 41.11974166 41.375 39.75 C41.70757812 38.72712891 41.70757812 38.72712891 42.046875 37.68359375 C43.15573613 34.3243968 44.28878245 31.10258135 46 28 C32.0363632 32.2784207 19.3792323 36.909548 8 46.421875 C5.77742304 48.17562713 3.45062192 49.58748875 1 51 C0.34838988 49.12699975 -0.29602195 47.2514945 -0.9375 45.375 C-1.29714844 44.33085937 -1.65679687 43.28671875 -2.02734375 42.2109375 C-5.77944269 29.82449041 -5.91035507 11.82071013 0 0 Z " fill="#F2F2F2" transform="translate(79,310)"/>
<path d="M0 0 C15.84 0 31.68 0 48 0 C48 46.53 48 93.06 48 141 C32.16 141 16.32 141 0 141 C0 94.47 0 47.94 0 0 Z " fill="#D6CDC1" transform="translate(321,402)"/>
<path d="M0 0 C2.89570216 1.52901452 5.55394641 3.15494131 8.16015625 5.140625 C8.96453125 5.676875 9.76890625 6.213125 10.59765625 6.765625 C18.98187024 14.53635992 24.11333896 24.56495658 24.63110352 36.0065918 C24.81528136 49.13893675 20.88240795 59.30218021 12.16015625 69.140625 C2.32886823 78.46774441 -9.03132177 80.7334782 -22.1484375 80.47265625 C-32.47757197 79.96569207 -40.37733905 75.68722051 -47.68359375 68.53515625 C-56.44482818 58.80574193 -60.19627398 48.54113076 -60.05078125 35.51953125 C-59.33037244 23.97964942 -53.47636616 13.86147712 -45.1953125 5.96484375 C-32.5332074 -3.84146318 -14.81848811 -6.50456047 0 0 Z " fill="#F2F2F2" transform="translate(387.83984375,80.859375)"/>
<path d="M0 0 C7.87220744 5.95701005 12.37737425 14.58524775 15.47265625 23.87109375 C16.69468325 37.05887207 15.91697452 49.37947326 7.21875 59.96484375 C-1.42411115 69.40045055 -10.74765512 74.84445674 -23.66015625 76.07421875 C-36.16140953 76.36836589 -47.26083461 72.06636531 -56.33984375 63.49609375 C-59.65781451 59.9361063 -62.29302478 56.19241395 -64.52734375 51.87109375 C-64.84832031 51.25234375 -65.16929687 50.63359375 -65.5 49.99609375 C-69.32408657 40.88943177 -69.0312293 28.14955349 -65.96484375 18.87109375 C-61.01040923 7.63760159 -53.77468581 -0.1240241 -42.6796875 -5.51171875 C-27.72806589 -11.26698629 -12.98007946 -8.78117893 0 0 Z " fill="#F2F2F2" transform="translate(855.52734375,175.12890625)"/>
<path d="M0 0 C5.61450369 3.79586973 10.33047249 9.14252288 12.46484375 15.67578125 C15.23955023 31.41922455 7.27269361 46.48523361 -1.47265625 59.11328125 C-3.33425457 61.68123071 -5.22254103 64.21615081 -7.17578125 66.71484375 C-5.19578125 67.70484375 -5.19578125 67.70484375 -3.17578125 68.71484375 C-13.4502187 70.02527946 -23.72540817 71.32963615 -34.00158596 72.62635803 C-38.77381813 73.22874391 -43.54577201 73.83317632 -48.31713867 74.44238281 C-52.92658967 75.03083786 -57.53670697 75.61379015 -62.14732552 76.19302368 C-63.90131221 76.41434167 -65.65505515 76.63760091 -67.40853691 76.86288452 C-69.87516369 77.17944582 -72.34258754 77.48892928 -74.81030273 77.796875 C-75.52600433 77.89038239 -76.24170593 77.98388977 -76.97909546 78.08023071 C-82.07375933 78.70557014 -87.0426737 78.78889212 -92.17578125 78.71484375 C-89.10502976 77.14154239 -86.07069135 75.94813261 -82.80078125 74.83984375 C-78.44648907 73.27646757 -74.88154723 71.5382845 -71.17578125 68.71484375 C-69.96921875 67.82152344 -69.96921875 67.82152344 -68.73828125 66.91015625 C-60.78543164 60.0968918 -56.70520642 50.14735951 -55.86328125 39.91796875 C-55.54742519 32.36621926 -56.15992214 25.96997622 -59.49609375 19.046875 C-60.17578125 16.71484375 -60.17578125 16.71484375 -59.6640625 14.2265625 C-57.73436789 10.9698863 -55.23314263 8.9336424 -52.23828125 6.71484375 C-51.65997559 6.27914062 -51.08166992 5.8434375 -50.48583984 5.39453125 C-35.41574479 -5.63458242 -16.67665896 -9.85030664 0 0 Z " fill="#010202" transform="translate(467.17578125,83.28515625)"/>
<path d="M0 0 C5.94 0.99 5.94 0.99 12 2 C19.22769392 2.40153855 25.90141192 1.3452485 33 0 C31 2 31 2 25 3 C25 59.43 25 115.86 25 174 C63.28 174 101.56 174 141 174 C141 177.63 141 181.26 141 185 C140.67 185 140.34 185 140 185 C140 181.7 140 178.4 140 175 C134.36621045 175.0952059 128.73276977 175.20161168 123.09936523 175.31738281 C121.19219397 175.35512008 119.28496474 175.39005663 117.37768555 175.421875 C104.48113483 175.63948092 91.8037398 176.42418359 79 178 C79 177.67 79 177.34 79 177 C71.41883413 176.92991291 63.83770264 176.87689506 56.25628471 176.84456348 C52.73437784 176.82903129 49.21269561 176.80802686 45.69091797 176.77368164 C41.62465491 176.73428311 37.55862084 176.72018825 33.4921875 176.70703125 C32.25201874 176.69154739 31.01184998 176.67606354 29.73410034 176.66011047 C22.24175724 176.65869593 15.42718387 177.50434331 8.13894653 179.25639343 C5.12120539 179.97128682 2.05906729 180.49015545 -1 181 C-0.67 121.27 -0.34 61.54 0 0 Z " fill="#E6A33D" transform="translate(813,248)"/>
<path d="M0 0 C1 3 1 3 0 5.1875 C-1.34690354 8.9756662 -1.0376449 12.19281366 0 16 C2.13835499 19.90802809 4.24691383 22.58730175 8 25 C7.76216797 26.7325 7.76216797 26.7325 7.51953125 28.5 C5.88648452 41.70360337 7.17899067 53.32584851 11 66 C14.15506339 66 15.70411763 63.95253728 18.125 62 C29.79557019 52.98020389 42.89008264 47.9027431 57 44 C56.71253906 44.70125 56.42507812 45.4025 56.12890625 46.125 C52.36593256 55.70821328 50.33726175 64.69665352 50 75 C49.67 75 49.34 75 49 75 C49 71.37 49 67.74 49 64 C38.82270823 68.99419306 29.93877993 73.74913044 22 82 C32.17254395 95.4717474 48.90592143 101.73003398 65 105 C67.27381036 105.14140159 67.27381036 105.14140159 69.25 105 C73.01469297 105 74.67417691 105.57124883 78.0625 107 C87.09493853 110.52516004 97.54896266 110.29775965 106.66796875 107.03125 C115.28722914 103.21971777 121.13729378 98.36932346 127 91 C128 93 128 93 127.21484375 95.7578125 C123.66043806 105.12753025 119.55503827 114.50451688 110 119 C85.07712306 126.53042679 57.37320119 124.48941386 34 113 C29.51523904 110.56079039 25.24332257 107.83863648 21 105 C20.22011719 104.48824219 19.44023438 103.97648437 18.63671875 103.44921875 C17.04332128 102.36673029 15.511033 101.19477028 14 100 C14 99.34 14 98.68 14 98 C13.01 98 12.02 98 11 98 C9.68 102.29 8.36 106.58 7 111 C6.67 111 6.34 111 6 111 C5.7525 110.113125 5.505 109.22625 5.25 108.3125 C3.94802442 104.8622647 2.31966596 102.82709289 0 100 C-2.27398052 95.565738 -2.83189084 91.65916553 -1.32421875 86.83984375 C-0.59350887 84.87627739 0.19892693 82.93592657 1 81 C0.34 81 -0.32 81 -1 81 C-7.1396858 70.30587514 -10.5112122 58.32152575 -11 46 C-11.0515625 45.18917969 -11.103125 44.37835938 -11.15625 43.54296875 C-11.68389571 28.87881501 -8.21934319 12.32901478 0 0 Z " fill="#6BAAE7" transform="translate(69,293)"/>
<path d="M0 0 C4.14900359 4.11268846 6.67369962 7.22644678 7.375 13.1875 C6.7733376 19.30440109 4.40562966 22.98025632 -0.2890625 26.921875 C-16.63467467 38.20468694 -38.80200033 39.10031159 -57.875 35.75 C-73.7417004 32.73416559 -86.37404526 27.35385793 -98 16 C-96.86125548 9.76401812 -92.07773552 6.49098074 -87.13671875 2.9453125 C-63.57360698 -12.30309927 -23.63032377 -19.20950596 0 0 Z " fill="#D6CDC1" transform="translate(188,280)"/>
<path d="M0 0 C3.7658846 3.5506912 5.36454572 6.32564162 5.625 11.5 C5.39636356 17.49425096 2.6911819 20.62716728 -1.5625 24.6875 C-16.72865875 36.40850664 -36.83761989 36.67084604 -55.11132812 34.83105469 C-73.08489168 32.34497527 -87.6791341 23.14337386 -99.8125 10.0625 C-76.82496754 -13.81071673 -27.12501473 -18.68612126 0 0 Z " fill="#D6CDC1" transform="translate(189.8125,443.9375)"/>
<path d="M0 0 C0.56847656 0.72574219 1.13695313 1.45148438 1.72265625 2.19921875 C3.17127697 3.9807986 4.67517464 5.71979488 6.24609375 7.39453125 C8.46085723 9.83827206 10.36260739 12.13345358 12 15 C11 18.6875 11 18.6875 9.96875 20.61328125 C7.47952612 26.74600622 7.99168891 34.66136995 9.87890625 40.91015625 C11.0717592 43.4572713 12.39733764 45.69052244 14 48 C14.46148437 48.68320312 14.92296875 49.36640625 15.3984375 50.0703125 C28.67359147 67.25388743 53.24714433 72.27605411 73.4375 75.125 C81.32346676 76.13574216 89.25080536 76.36296268 97.19506836 76.48291016 C106.10722498 76.71975272 106.10722498 76.71975272 110 80 C111.12256131 82.24512262 111.13413762 83.51456649 111.125 86 C111.12886719 87.051875 111.12886719 87.051875 111.1328125 88.125 C111 90 111 90 110 92 C109.34 91.67 108.68 91.34 108 91 C108.33 90.34 108.66 89.68 109 89 C109.37615126 84.86935374 109.37615126 84.86935374 107.875 81.125 C105.17393914 79.50436349 103.09341008 79.74221583 100 80 C98.515 80.495 98.515 80.495 97 81 C96.54440428 86.19212465 96.54440428 86.19212465 98.125 90.9375 C100.68102669 92.38591512 103.10340247 92.67815583 106 93 C106 93.33 106 93.66 106 94 C70.51553287 94.45885087 32.4249584 90.10533032 5.3125 64.8125 C-3.96895327 55.15321766 -9.00416946 43.93637267 -9.4375 30.625 C-9.22388864 20.55475015 -6.14141842 12.50993394 -1 4 C-0.23959428 1.73014106 -0.23959428 1.73014106 0 0 Z " fill="#6BA8E5" transform="translate(68,450)"/>
<path d="M0 0 C0 0.66 0 1.32 0 2 C0.59167969 2.04898437 1.18335938 2.09796875 1.79296875 2.1484375 C6.19104472 2.56456867 9.96928897 3.04965595 14 5 C14 5.66 14 6.32 14 7 C15.19625 7.061875 16.3925 7.12375 17.625 7.1875 C26.8146904 8.22316352 35.78911637 10.9692348 42 18 C44.48499142 21.54998775 44.43249013 24.74718041 44 29 C42.64794434 32.55919518 40.72695317 35.3171046 37.9375 37.9375 C26.30600084 42.14463799 14.65054609 36.09605293 3.8125 32 C1.98432464 31.32389437 0.15555237 30.6494005 -1.67382812 29.9765625 C-6.12299252 28.33623026 -10.56348564 26.67422837 -15 25 C-15 24.34 -15 23.68 -15 23 C-17.31 22.34 -19.62 21.68 -22 21 C-22.33 19.35 -22.66 17.7 -23 16 C-23.66 16 -24.32 16 -25 16 C-25 12.7 -25 9.4 -25 6 C-24.34 6 -23.68 6 -23 6 C-22.979375 5.2575 -22.95875 4.515 -22.9375 3.75 C-21.77799236 0.3487776 -20.12139356 -0.68803398 -16.95703125 -2.2734375 C-10.80016701 -4.55921943 -5.69671423 -2.39861652 0 0 Z " fill="#CCC3B8" transform="translate(739,271)"/>
<path d="M0 0 C0.99 0 1.98 0 3 0 C3 0.66 3 1.32 3 2 C3.55558594 2.26167969 4.11117187 2.52335937 4.68359375 2.79296875 C7.27021742 4.14080469 9.63298144 5.69878443 12.0625 7.3125 C21.87938855 13.57141572 31.78953024 17.01488654 43 20 C45.33597648 20.65778607 47.66799169 21.32821588 50 22 C49.875 23.8125 49.875 23.8125 49 26 C44.80650103 28.40076249 40.54642646 29.8500694 35.9375 31.25 C25.58924925 34.56441373 16.360688 39.43286238 8 46.421875 C5.77742304 48.17562713 3.45062192 49.58748875 1 51 C0.34838988 49.12699975 -0.29602195 47.2514945 -0.9375 45.375 C-1.29714844 44.33085937 -1.65679687 43.28671875 -2.02734375 42.2109375 C-5.77944269 29.82449041 -5.91035507 11.82071013 0 0 Z " fill="#D5CCC0" transform="translate(79,310)"/>
<path d="M0 0 C5.94 0.99 5.94 0.99 12 2 C19.22769392 2.40153855 25.90141192 1.3452485 33 0 C31 2 31 2 25 3 C25 59.43 25 115.86 25 174 C63.28 174 101.56 174 141 174 C141 177.63 141 181.26 141 185 C140.67 185 140.34 185 140 185 C140 181.7 140 178.4 140 175 C134.36621045 175.0952059 128.73276977 175.20161168 123.09936523 175.31738281 C121.19219397 175.35512008 119.28496474 175.39005663 117.37768555 175.421875 C104.48113483 175.63948092 91.8037398 176.42418359 79 178 C79 177.67 79 177.34 79 177 C71.41883413 176.92991291 63.83770264 176.87689506 56.25628471 176.84456348 C52.73437784 176.82903129 49.21269561 176.80802686 45.69091797 176.77368164 C41.62465491 176.73428311 37.55862084 176.72018825 33.4921875 176.70703125 C32.25201874 176.69154739 31.01184998 176.67606354 29.73410034 176.66011047 C22.24175724 176.65869593 15.42718387 177.50434331 8.13894653 179.25639343 C5.12120539 179.97128682 2.05906729 180.49015545 -1 181 C-0.67 121.27 -0.34 61.54 0 0 Z M2 2 C2 60.41 2 118.82 2 179 C12.395 177.02 12.395 177.02 23 175 C23 118.57 23 62.14 23 4 C16.07 3.34 9.14 2.68 2 2 Z " fill="#A27A3E" transform="translate(813,248)"/>
<path d="M0 0 C0 3.63 0 7.26 0 11 C0.66 11 1.32 11 2 11 C2.21914062 11.76183594 2.43828125 12.52367187 2.6640625 13.30859375 C6.32653225 25.23395258 11.62794962 33.08529975 22 40 C22 40.66 22 41.32 22 42 C4.27297652 41.59460029 -12.28616297 33.82244003 -25.26953125 22.015625 C-27 20 -27 20 -27 17 C-21.58734115 10.54301638 -8.95269794 0 0 0 Z " fill="#D1C8BD" transform="translate(118,357)"/>
<path d="M0 0 C1 2 1 2 0.21484375 4.7578125 C-3.33956194 14.12753025 -7.44496173 23.50451688 -17 28 C-21.2871397 29.29535574 -25.59680831 30.19686682 -30 31 C-31.7325 31.3403125 -31.7325 31.3403125 -33.5 31.6875 C-44.68387355 32.68606014 -53.85838513 32.88408475 -62.95703125 25.6484375 C-71.14404383 18.37347744 -71.14404383 18.37347744 -74 14 C-74 13.34 -74 12.68 -74 12 C-73.2265625 12.144375 -72.453125 12.28875 -71.65625 12.4375 C-64.83882952 13.71360342 -64.83882952 13.71360342 -57.9375 13.875 C-54.13992232 13.99555802 -52.35065556 14.56446693 -48.9375 16 C-39.90506147 19.52516004 -29.45103734 19.29775965 -20.33203125 16.03125 C-11.71277086 12.21971777 -5.86270622 7.36932346 0 0 Z " fill="#060707" transform="translate(196,384)"/>
<path d="M0 0 C0 3.17757926 -0.52555873 4.27004306 -1.875 7.0625 C-5.06474354 14.65227983 -5.32769215 22.87922881 -6 31 C-6.33 31 -6.66 31 -7 31 C-7 27.37 -7 23.74 -7 20 C-17.17729177 24.99419306 -26.06122007 29.74913044 -34 38 C-32.35 40.31 -30.7 42.62 -29 45 C-36.60280297 41.76584551 -41.38031818 33.90665322 -45.28515625 26.9453125 C-46 25 -46 25 -45 22 C-44.34 22 -43.68 22 -43 22 C-41.26418632 20.70264445 -39.56180097 19.36047163 -37.875 18 C-26.53558399 9.22402044 -13.6459083 4.07808754 0 0 Z " fill="#69A4DE" transform="translate(125,337)"/>
<path d="M0 0 C-0.125 2.25 -0.125 2.25 -1 5 C-9.32206144 11.77377094 -19.14763089 12.17932695 -29.4375 12.1875 C-30.24509766 12.19974609 -31.05269531 12.21199219 -31.88476562 12.22460938 C-37.82777507 12.23897604 -43.85233065 11.90767839 -49.0625 8.75 C-50 7 -50 7 -50.1875 4.0625 C-49 1 -49 1 -45.75 -1.25 C-33.14651089 -6.641867 -11.64961983 -8.54305454 0 0 Z " fill="#080807" transform="translate(853,442)"/>
<path d="M0 0 C6.8186033 1.15158634 11.63616242 2.86815122 16.8125 7.6875 C18.68427139 11.33252849 19.11343626 14.9233845 19 19 C17.40594023 23.69362043 15.28109703 26.48718218 11 29 C4.42096112 30.86875423 -0.81835448 29.586646 -7 27 C-7 26.01 -7 25.02 -7 24 C-7.350625 23.29875 -7.70125 22.5975 -8.0625 21.875 C-9.41673929 17.72199952 -9.14342263 14.19746758 -8 10 C-6.11419223 6.49778557 -4.07633253 4.33485901 -0.1875 3.125 C0.8953125 3.063125 0.8953125 3.063125 2 3 C2 2.34 2 1.68 2 1 C1.34 0.67 0.68 0.34 0 0 Z " fill="#D1963D" transform="translate(778,381)"/>
<path d="M0 0 C6.99689594 1.20581427 12.98164403 2.68954506 17.9375 8.125 C19.53802004 12.45581893 19.65002973 16.44248821 19 21 C17.18766463 24.83378636 15.69973473 26.53351018 12.1875 28.875 C5.18924315 31.34497301 -0.35427048 29.53170648 -7 27 C-6.34 26.67 -5.68 26.34 -5 26 C-5.495 25.38125 -5.99 24.7625 -6.5 24.125 C-8.62750674 19.69269429 -8.93855624 15.82793331 -8 11 C-6.00982758 7.42541848 -3.78491147 4.55382891 0.203125 3.31640625 C0.79609375 3.21199219 1.3890625 3.10757812 2 3 C2 2.34 2 1.68 2 1 C1.34 0.67 0.68 0.34 0 0 Z " fill="#CF6243" transform="translate(912,355)"/>
<path d="M0 0 C3.56568061 1.54335429 6.31019147 3.24343581 8.9375 6.125 C10.53802004 10.45581893 10.65002973 14.44248821 10 19 C8.18766463 22.83378636 6.69973473 24.53351018 3.1875 26.875 C-4.61617313 29.62923758 -10.68638041 26.96247882 -18 24 C-17.01 23.34 -16.02 22.68 -15 22 C-15.66 21.01 -16.32 20.02 -17 19 C-17.76603375 14.7868144 -17.9475779 10.70817554 -15.83203125 6.89453125 C-11.32843264 1.46474269 -7.25546156 -2.17663847 0 0 Z " fill="#D89A3D" transform="translate(926,258)"/>
<path d="M0 0 C4.5007346 3.63889181 6.72702564 6.58872649 7.375 12.3125 C6.82414791 17.72921221 4.97706877 21.14275358 0.9375 24.9375 C-6.6335571 27.67596746 -13.86739762 26.22985768 -21 23 C-20.01 22.34 -19.02 21.68 -18 21 C-18.515625 20.175 -19.03125 19.35 -19.5625 18.5 C-21.27531453 14.32966898 -21.4692336 11.2128853 -20 7 C-17.77730751 3.41704776 -15.17252412 0.79224603 -11.6875 -1.5625 C-7.51088613 -2.24241389 -3.93057995 -1.51944379 0 0 Z " fill="#D16243" transform="translate(776,284)"/>
<path d="M0 0 C6.85981709 10.28972563 11.32686309 19.42716319 10 32 C9.03925976 35.2536409 7.68975892 38.06639076 6 41 C5.13375 42.546875 5.13375 42.546875 4.25 44.125 C-1.30356842 51.22122631 -8.61245208 56.63956077 -17 60 C-17.99 59.67 -18.98 59.34 -20 59 C-19.113125 58.360625 -18.22625 57.72125 -17.3125 57.0625 C-10.23294343 51.06315746 -7.88743669 42.21682752 -5.2109375 33.6484375 C-4 30 -4 30 -2.4140625 26.4140625 C0.10599859 20.32971611 0.1338207 14.59872464 0.0625 8.125 C0.05798828 7.34125 0.05347656 6.5575 0.04882812 5.75 C0.03714093 3.83329986 0.01920908 1.91663952 0 0 Z " fill="#68A0D7" transform="translate(202,350)"/>
<path d="M0 0 C-2.90600261 1.25664978 -4.79604584 2 -8 2 C-8 58.43 -8 114.86 -8 173 C30.28 173 68.56 173 108 173 C108 176.63 108 180.26 108 184 C107.67 184 107.34 184 107 184 C107 180.7 107 177.4 107 174 C101.36621045 174.0952059 95.73276977 174.20161168 90.09936523 174.31738281 C88.19219397 174.35512008 86.28496474 174.39005663 84.37768555 174.421875 C71.48113483 174.63948092 58.8037398 175.42418359 46 177 C46 176.67 46 176.34 46 176 C38.36695736 175.97669324 30.73391847 175.95899237 23.1008482 175.94818783 C19.55541909 175.94299874 16.01001457 175.93597448 12.46459961 175.92456055 C8.3761371 175.91148272 4.28769988 175.90673897 0.19921875 175.90234375 C-1.05643387 175.89718246 -2.31208649 175.89202118 -3.60578918 175.88670349 C-10.79572229 175.88625109 -17.85403471 176.19318363 -25 177 C-19.38308992 174.09103183 -15.5194164 174 -9 174 C-9.33 116.91 -9.66 59.82 -10 1 C-3 -1 -3 -1 0 0 Z " fill="#776F62" transform="translate(846,249)"/>
<path d="M0 0 C38.28 0 76.56 0 116 0 C116 3.63 116 7.26 116 11 C115.67 11 115.34 11 115 11 C115 7.7 115 4.4 115 1 C109.36621045 1.0952059 103.73276977 1.20161168 98.09936523 1.31738281 C96.19219397 1.35512008 94.28496474 1.39005663 92.37768555 1.421875 C79.48113483 1.63948092 66.8037398 2.42418359 54 4 C54 3.67 54 3.34 54 3 C53.38247864 2.99191315 52.76495728 2.98382629 52.12872314 2.97549438 C45.70474562 2.88947413 39.28107757 2.78997143 32.85742188 2.68261719 C30.45968826 2.64432095 28.06189707 2.60946924 25.6640625 2.578125 C22.21854058 2.53248895 18.77341528 2.4744913 15.328125 2.4140625 C13.71855927 2.39673569 13.71855927 2.39673569 12.07647705 2.37905884 C11.07574158 2.35918915 10.0750061 2.33931946 9.04394531 2.31884766 C8.16458313 2.30552399 7.28522095 2.29220032 6.37921143 2.2784729 C4 2 4 2 0 0 Z " fill="#84827D" transform="translate(838,422)"/>
<path d="M0 0 C1.36026098 1.30585054 2.68364976 2.64989719 4 4 C4.66 4.48984375 5.32 4.9796875 6 5.484375 C8.47097066 7.59967564 9.77774759 8.95755876 11 12 C10.48919059 17.58221558 8.13454247 22.87211954 6 28 C5.67 28 5.34 28 5 28 C4.7525 27.113125 4.505 26.22625 4.25 25.3125 C2.94802442 21.8622647 1.31966596 19.82709289 -1 17 C-2.9386481 13.21963621 -3.43190264 10.2326459 -3 6 C-1.5 2.625 -1.5 2.625 0 0 Z " fill="#070A0C" transform="translate(70,376)"/>
<path d="M0 0 C2.38000264 3.07871901 4.48883169 6.27060755 6.5625 9.5625 C8.34966075 12.39505371 10.14209266 15.21313899 12 18 C11.01 18 10.02 18 9 18 C8.34 20.64 7.68 23.28 7 26 C2.36374043 24.17861231 0.09310593 20.92594855 -2.3125 16.6875 C-3.77801635 10.95866337 -2.02289098 5.39437594 0 0 Z " fill="#07090B" transform="translate(70,292)"/>
<path d="M0 0 C2.5 2.125 2.5 2.125 4 5 C4 8.50732933 3.6345092 10.2434698 1.375 12.9375 C-2.11319754 14.49800943 -4.36432898 13.99154664 -8 13 C-10 11.3125 -10 11.3125 -11 9 C-10.87304813 5.88967921 -10.47953174 3.79921957 -8.875 1.125 C-5.79484632 -0.72309221 -3.49557617 -0.49060718 0 0 Z " fill="#EFEEEE" transform="translate(78,244)"/>
<path d="M0 0 C2.375 1.625 2.375 1.625 4 4 C4.61195145 7.6717087 4.48706506 9.28813568 2.375 12.375 C-0.71186432 14.48706506 -2.3282913 14.61195145 -6 14 C-8.375 12.375 -8.375 12.375 -10 10 C-10.61195145 6.3282913 -10.48706506 4.71186432 -8.375 1.625 C-5.28813568 -0.48706506 -3.6717087 -0.61195145 0 0 Z " fill="#F0EFEF" transform="translate(174,529)"/>
<path d="M0 0 C5.16484202 2.23656105 8.80305504 5.79435754 11 11 C10.40974092 15.36164897 8.91523036 19.05609357 7 23 C5.31066078 21.3563186 3.64740076 19.6857124 2 18 C1.13375 17.13375 1.13375 17.13375 0.25 16.25 C-1.72340505 12.69787092 -2.02868405 9.03010894 -2 5 C-1.0625 1.9375 -1.0625 1.9375 0 0 Z " fill="#080C10" transform="translate(69,454)"/>
<path d="M0 0 C3.89569135 -0.08732726 7.79112982 -0.14050185 11.6875 -0.1875 C12.79029297 -0.21263672 13.89308594 -0.23777344 15.02929688 -0.26367188 C16.09599609 -0.27333984 17.16269531 -0.28300781 18.26171875 -0.29296875 C19.24100342 -0.3086792 20.22028809 -0.32438965 21.22924805 -0.34057617 C24.4966933 0.06105271 26.35539654 1.07199121 29 3 C30.12256131 5.24512262 30.13413762 6.51456649 30.125 9 C30.12886719 10.051875 30.12886719 10.051875 30.1328125 11.125 C30 13 30 13 29 15 C28.34 14.67 27.68 14.34 27 14 C27.33 13.34 27.66 12.68 28 12 C28.349104 7.90814871 28.349104 7.90814871 27 4.125 C24.26691443 2.58763936 22.02104893 2.81698586 18.9375 2.9921875 C17 3 17 3 14 2 C11.60745424 1.77439324 9.21071877 1.59151405 6.8125 1.4375 C5.54019531 1.35371094 4.26789063 1.26992188 2.95703125 1.18359375 C1.98121094 1.12300781 1.00539062 1.06242188 0 1 C0 0.67 0 0.34 0 0 Z " fill="#62707C" transform="translate(149,527)"/>
<path d="M0 0 C0.99 0.33 1.98 0.66 3 1 C3 4.63 3 8.26 3 12 C1.68 12.33 0.36 12.66 -1 13 C-2 12 -2 12 -2.09765625 9.49609375 C-2.08605469 8.48675781 -2.07445312 7.47742188 -2.0625 6.4375 C-2.05347656 5.42558594 -2.04445313 4.41367188 -2.03515625 3.37109375 C-2.02355469 2.58863281 -2.01195312 1.80617187 -2 1 C-1.34 0.67 -0.68 0.34 0 0 Z " fill="#503529" transform="translate(656,229)"/>
<path d="M0 0 C1.5625 1.0625 1.5625 1.0625 3 3 C2.92539346 7.10335951 2.61371623 9.274699 -0.0625 12.4375 C-0.701875 12.953125 -1.34125 13.46875 -2 14 C-1.67 12.68 -1.34 11.36 -1 10 C-1.928125 10.515625 -2.85625 11.03125 -3.8125 11.5625 C-7 13 -7 13 -10 12 C-9.36191406 11.69707031 -8.72382812 11.39414062 -8.06640625 11.08203125 C-7.24011719 10.66308594 -6.41382813 10.24414062 -5.5625 9.8125 C-4.73878906 9.40644531 -3.91507813 9.00039063 -3.06640625 8.58203125 C-0.77441279 7.14415009 -0.77441279 7.14415009 -0.21484375 4.44921875 C0.02912792 2.07771237 0.02912792 2.07771237 0 0 Z " fill="#73492C" transform="translate(631,307)"/>
<path d="M0 0 C0 0.33 0 0.66 0 1 C-8.27227802 4.13776063 -14.44601931 5.8577633 -23 3 C-23 2.67 -23 2.34 -23 2 C-7.25512528 -0.29612756 -7.25512528 -0.29612756 0 0 Z " fill="#556473" transform="translate(365,77)"/>
<path d="M0 0 C-0.66 0.66 -1.32 1.32 -2 2 C-1.34 2.66 -0.68 3.32 0 4 C-5.72040011 4.8320582 -11.22240116 5.12036664 -17 5 C-13.86875441 3.36017707 -10.6857317 2.04844701 -7.375 0.8125 C-6.41335938 0.44769531 -5.45171875 0.08289063 -4.4609375 -0.29296875 C-2 -1 -2 -1 0 0 Z " fill="#2F3031" transform="translate(392,157)"/>
<path d="M0 0 C-0.99 0.66 -1.98 1.32 -3 2 C-1.02 2.66 0.96 3.32 3 4 C-0.04719867 5.01573289 -0.98833004 5.0097124 -4.01171875 4.44140625 C-4.76904297 4.30283203 -5.52636719 4.16425781 -6.30664062 4.02148438 C-7.48516602 3.79428711 -7.48516602 3.79428711 -8.6875 3.5625 C-9.48478516 3.41490234 -10.28207031 3.26730469 -11.10351562 3.11523438 C-13.07025852 2.75015036 -15.03530467 2.37594711 -17 2 C-17 1.67 -17 1.34 -17 1 C-11.29309366 0.00749455 -5.78591511 -0.10477512 0 0 Z " fill="#556370" transform="translate(383,75)"/>
<path d="M0 0 C-1.39750048 3.15835107 -3.05198234 5.32272825 -5.5 7.75 C-6.41265625 8.67039062 -6.41265625 8.67039062 -7.34375 9.609375 C-9 11 -9 11 -11 11 C-9.60249952 7.84164893 -7.94801766 5.67727175 -5.5 3.25 C-4.8915625 2.63640625 -4.283125 2.0228125 -3.65625 1.390625 C-2 0 -2 0 0 0 Z " fill="#A07739" transform="translate(269,464)"/>
<path d="M0 0 C6.22222222 -0.47863248 6.22222222 -0.47863248 9.4375 1.5 C11.7384032 5.18144512 11.34728373 7.69368174 11 12 C10.67 12.66 10.34 13.32 10 14 C9.34 13.67 8.68 13.34 8 13 C8.33 12.34 8.66 11.68 9 11 C9.38938338 6.89294529 9.38938338 6.89294529 7.875 3.1875 C5.33323785 1.57771731 2.9601892 1.32890991 0 1 C0 0.67 0 0.34 0 0 Z " fill="#4C545B" transform="translate(168,528)"/>
<path d="M0 0 C0.66 0 1.32 0 2 0 C2 3.63 2 7.26 2 11 C1.34 11 0.68 11 0 11 C-0.19491452 9.54263913 -0.38069358 8.08405407 -0.5625 6.625 C-0.66691406 5.81289062 -0.77132812 5.00078125 -0.87890625 4.1640625 C-1 2 -1 2 0 0 Z " fill="#D46747" transform="translate(656,229)"/>
<path d="M0 0 C0.99 0.33 1.98 0.66 3 1 C0.525 4.465 0.525 4.465 -2 8 C-3.32 7.34 -4.64 6.68 -6 6 C-4.02 4.02 -2.04 2.04 0 0 Z " fill="#EBEAEA" transform="translate(365,194)"/>
<path d="M0 0 C1.051875 0.6496875 1.051875 0.6496875 2.125 1.3125 C6.23942462 3.72748837 10.30517827 3.7356314 15 4 C15 4.33 15 4.66 15 5 C7.87399867 5.35368021 2.52940894 4.95671348 -4 2 C-2.3125 0.8125 -2.3125 0.8125 0 0 Z " fill="#624B40" transform="translate(759,305)"/>
<path d="M0 0 C0 0.99 0 1.98 0 3 C-0.66 3.66 -1.32 4.32 -2 5 C-2 4.34 -2 3.68 -2 3 C-3.03060547 3.34224609 -3.03060547 3.34224609 -4.08203125 3.69140625 C-5.43361328 4.12259766 -5.43361328 4.12259766 -6.8125 4.5625 C-7.70582031 4.85253906 -8.59914063 5.14257812 -9.51953125 5.44140625 C-12 6 -12 6 -15 5 C-10.05 3.35 -5.1 1.7 0 0 Z " fill="#546576" transform="translate(125,337)"/>
<path d="M0 0 C0.99 1.32 1.98 2.64 3 4 C2.34 4 1.68 4 1 4 C0.731875 4.969375 0.46375 5.93875 0.1875 6.9375 C-0.204375 7.948125 -0.59625 8.95875 -1 10 C-1.99 10.33 -2.98 10.66 -4 11 C-3.71125 10.29875 -3.4225 9.5975 -3.125 8.875 C-1.97866412 5.94547497 -0.97374346 2.99078347 0 0 Z " fill="#537495" transform="translate(68,450)"/>
<path d="M0 0 C-1.44077046 3.36179774 -3.24750021 5.59156268 -6 8 C-6.66 8 -7.32 8 -8 8 C-6.48291727 4.46014029 -4.24676932 0 0 0 Z " fill="#A37837" transform="translate(208,535)"/>
<path d="M0 0 C3.48670834 1.1094072 6.77484237 2.26337666 10 4 C10.33 3.34 10.66 2.68 11 2 C11.33 3.65 11.66 5.3 12 7 C8.04 5.02 4.08 3.04 0 1 C0 0.67 0 0.34 0 0 Z " fill="#766245" transform="translate(779,220)"/>
<path d="M0 0 C0 0.33 0 0.66 0 1 C-5.15171623 1.09038099 -9.91913204 0.84681133 -15 0 C-15 -0.33 -15 -0.66 -15 -1 C-9.43842552 -1.91457003 -5.324335 -2.32086397 0 0 Z " fill="#586877" transform="translate(146,415)"/>
<path d="M0 0 C0.66 0.33 1.32 0.66 2 1 C-0.97 3.97 -3.94 6.94 -7 10 C-7.33 9.34 -7.66 8.68 -8 8 C-5.33333333 5.33333333 -2.66666667 2.66666667 0 0 Z " fill="#11171C" transform="translate(415,90)"/>
<path d="M0 0 C2 0 2 0 4 1.875 C4.66 2.57625 5.32 3.2775 6 4 C6.66 4.66 7.32 5.32 8 6 C6.53984709 5.71758359 5.08190207 5.42373386 3.625 5.125 C2.81289063 4.96257812 2.00078125 4.80015625 1.1640625 4.6328125 C-1 4 -1 4 -3 2 C-2.01 1.67 -1.02 1.34 0 1 C0 0.67 0 0.34 0 0 Z " fill="#675844" transform="translate(911,279)"/>
<path d="M0 0 C2 0 2 0 4 1.875 C4.66 2.57625 5.32 3.2775 6 4 C6.66 4.66 7.32 5.32 8 6 C3.545 5.01 3.545 5.01 -1 4 C-0.34 3.67 0.32 3.34 1 3 C0.67 2.01 0.34 1.02 0 0 Z " fill="#64493C" transform="translate(906,378)"/>
<path d="M0 0 C0.1546875 0.86625 0.1546875 0.86625 0.3125 1.75 C1.09792798 4.32049158 2.30504197 5.93657284 4 8 C2.68 8.33 1.36 8.66 0 9 C-0.87890625 2.84765625 -0.87890625 2.84765625 -1 1 C-0.67 0.67 -0.34 0.34 0 0 Z " fill="#63462C" transform="translate(379,308)"/>
<path d="M0 0 C3.64734979 0.22330713 5.38372835 0.38372835 8 3 C4.37 3 0.74 3 -3 3 C-2.01 2.01 -1.02 1.02 0 0 Z " fill="#685840" transform="translate(920,257)"/>
</svg>
