<?xml version="1.0" encoding="UTF-8"?>
<svg version="1.1" xmlns="http://www.w3.org/2000/svg" width="1008" height="606">
<path d="M0 0 C332.64 0 665.28 0 1008 0 C1008 199.98 1008 399.96 1008 606 C675.36 606 342.72 606 0 606 C0 406.02 0 206.04 0 0 Z " fill="#D6CDC1" transform="translate(0,0)"/>
<path d="M0 0 C3.38962725 0.01133621 6.77893807 0.00463941 10.16855431 -0.00688457 C42.07134846 -0.09847159 74.56212338 1.02205244 105.83520508 7.69824219 C106.74012695 7.89135986 107.64504883 8.08447754 108.57739258 8.28344727 C129.99642592 13.15882345 129.99642592 13.15882345 135.39770508 21.26074219 C135.01848254 31.3101395 127.75368617 37.38063207 120.88989258 43.89990234 C118.62551631 45.96496015 116.2378534 47.85978322 113.83520508 49.76074219 C106.46359539 55.66436656 96.61184638 63.60895722 94.39770508 73.26074219 C93.07252857 86.61119067 96.05017009 95.50375808 102.96020508 106.76074219 C109.96615614 118.2108723 112.64606137 129.76841282 109.77661133 143.15917969 C104.41887085 158.25610176 89.69797726 168.9045947 77.63208008 178.44824219 C65.10797692 188.46752471 54.08475423 198.17025582 50.39770508 214.26074219 C50.99083496 214.25026855 51.58396484 214.23979492 52.19506836 214.22900391 C82.50290572 213.76561719 82.50290572 213.76561719 90.39770508 218.26074219 C88.75176265 218.11614538 87.10595777 217.96998282 85.46020508 217.82324219 C84.54368164 217.74203125 83.6271582 217.66082031 82.68286133 217.57714844 C80.9195626 217.40731824 79.15650085 217.22982915 77.39941406 217.00463867 C71.35806009 216.24534282 65.41857326 216.143646 59.33520508 216.19824219 C56.05583008 216.21886719 52.77645508 216.23949219 49.39770508 216.26074219 C49.72770508 225.17074219 50.05770508 234.08074219 50.39770508 243.26074219 C51.05770508 243.59074219 51.71770508 243.92074219 52.39770508 244.26074219 C51.40770508 244.59074219 50.41770508 244.92074219 49.39770508 245.26074219 C49.39770508 252.19074219 49.39770508 259.12074219 49.39770508 266.26074219 C50.38770508 266.59074219 51.37770508 266.92074219 52.39770508 267.26074219 C48.67272101 268.50240355 45.22467543 268.39226764 41.34619141 268.37426758 C40.5264534 268.3744136 39.70671539 268.37455963 38.86213684 268.37471008 C36.1513098 268.37401315 33.44055138 268.36623097 30.72973633 268.35839844 C28.85072365 268.35653348 26.97171048 268.35510994 25.09269714 268.35411072 C20.14595193 268.35029166 15.19923606 268.34046657 10.25250244 268.32940674 C5.20520423 268.31917949 0.15790129 268.31461028 -4.8894043 268.30957031 C-14.79371406 268.29884378 -24.69800205 268.28177466 -34.60229492 268.26074219 C-34.60816116 267.60643219 -34.6140274 266.95212219 -34.62007141 266.27798462 C-34.6843001 259.43130293 -34.76879437 252.58507853 -34.86474609 245.73876953 C-34.89787862 243.18804984 -34.92594639 240.6372589 -34.94873047 238.08642578 C-34.98249101 234.4072449 -35.03481907 230.72871021 -35.09057617 227.04980469 C-35.09696609 225.92023346 -35.10335602 224.79066223 -35.10993958 223.62686157 C-35.41374351 207.04524119 -42.02371601 197.27423233 -53.71948242 185.91308594 C-58.17800861 181.81100019 -62.87029413 178.03994822 -67.60229492 174.26074219 C-93.23278526 153.53938048 -93.23278526 153.53938048 -95.60229492 140.26074219 C-96.61314165 125.5454653 -93.56997921 115.13762922 -85.83129883 102.61816406 C-80.13430296 93.3560745 -78.32024264 85.27130882 -79.60229492 74.26074219 C-82.94201331 62.45365698 -93.47415803 53.97387482 -102.71948242 46.65136719 C-106.00076711 43.93030183 -109.067743 41.06388877 -112.10229492 38.07324219 C-112.60680176 37.58605713 -113.11130859 37.09887207 -113.63110352 36.59692383 C-117.8214262 32.40162789 -120.60229492 28.67422243 -120.60229492 22.63574219 C-119.21922374 17.96787696 -116.47637169 16.35832211 -112.36791992 13.95214844 C-79.28413533 -0.89445676 -35.534849 -0.11979122 0 0 Z " fill="#DD6544" transform="translate(498.602294921875,275.7392578125)"/>
<path d="M0 0 C3.79985164 -0.08522343 7.59931105 -0.14783994 11.39989853 -0.1883049 C13.29404188 -0.21219505 15.18791562 -0.2552187 17.08169556 -0.29934692 C30.382985 -0.36669129 40.9606497 3.97122554 50.71789551 12.96618652 C58.15548821 20.78848229 62.56703188 31.5992321 63.03039551 42.37243652 C62.66202273 56.59162587 56.76958545 67.45921769 46.71789551 77.12243652 C35.70827068 86.16131956 24.84560862 86.53538902 11.15539551 86.30993652 C9.55840291 86.29486291 7.96139657 86.28117924 6.36437988 86.2689209 C2.48187427 86.23612577 -1.39996082 86.18449227 -5.28210449 86.12243652 C-2.23843607 83.66239482 0.77670309 81.38704622 4.09289551 79.30993652 C14.37409435 72.46149677 19.80777101 64.17317235 22.71789551 52.12243652 C23.9477849 38.22182621 21.62828148 27.85995077 12.98742676 16.63806152 C7.09430607 10.10592774 0.19069794 6.24914396 -8.28210449 4.12243652 C-9.48866699 3.78212402 -9.48866699 3.78212402 -10.71960449 3.43493652 C-24.38329492 1.76863281 -35.20335152 5.6288845 -46.40710449 13.24743652 C-54.8629634 20.8082463 -58.45237057 31.14661924 -59.59460449 42.12634277 C-60.06093189 53.3036275 -56.44462076 63.5406198 -49.28210449 72.12243652 C-44.51363345 77.10855562 -39.5598897 80.31985384 -33.28210449 83.12243652 C-33.28210449 83.78243652 -33.28210449 84.44243652 -33.28210449 85.12243652 C-31.30210449 85.45243652 -29.32210449 85.78243652 -27.28210449 86.12243652 C-27.28210449 86.45243652 -27.28210449 86.78243652 -27.28210449 87.12243652 C-36.85358984 87.38512604 -46.42512164 87.64603532 -55.99671555 87.90473938 C-60.44229228 88.02495036 -64.88785133 88.14574971 -69.33337402 88.26794434 C-73.6321871 88.38608383 -77.93104124 88.50261165 -82.22992706 88.61807251 C-83.86118344 88.66215902 -85.49242484 88.7068036 -87.1236496 88.75204468 C-90.8522515 88.85529305 -94.58051068 88.9512621 -98.30981445 89.02526855 C-100.85276564 89.08747282 -103.39525139 89.18418502 -105.93505859 89.32507324 C-107.01025757 89.37035156 -108.08545654 89.41562988 -109.1932373 89.46228027 C-110.1135675 89.51634033 -111.03389771 89.57040039 -111.9821167 89.62609863 C-114.28210449 89.12243652 -114.28210449 89.12243652 -115.99713135 86.79626465 C-116.42117249 85.91390137 -116.84521362 85.03153809 -117.28210449 84.12243652 C-117.82608887 83.09247559 -118.37007324 82.06251465 -118.93054199 81.00134277 C-119.50030762 79.90692871 -120.07007324 78.81251465 -120.65710449 77.68493652 C-123.16286254 72.99262527 -125.63871092 68.98664182 -129.28210449 65.12243652 C-133.46634341 68.63140922 -137.47798615 72.20304187 -141.28210449 76.12243652 C-140.19796979 79.19415151 -138.97712443 81.57990662 -137.15710449 84.30993652 C-135.28210449 87.12243652 -135.28210449 87.12243652 -135.28210449 89.12243652 C-138.96407015 89.95346652 -142.46925904 90.30351387 -146.23913574 90.43884277 C-147.35095215 90.4807373 -148.46276855 90.52263184 -149.60827637 90.5657959 C-150.75876465 90.6051123 -151.90925293 90.64442871 -153.09460449 90.68493652 C-154.26442871 90.72812012 -155.43425293 90.77130371 -156.63952637 90.8157959 C-159.5202748 90.92161931 -162.40110572 91.02370477 -165.28210449 91.12243652 C-165.28210449 91.45243652 -165.28210449 91.78243652 -165.28210449 92.12243652 C-166.17013763 92.14305145 -167.05817078 92.16366638 -167.97311401 92.18490601 C-206.71224674 93.08534421 -245.45090939 93.99367053 -284.18584824 95.06123352 C-310.24530581 95.77925831 -336.30536449 96.46745607 -362.36676025 97.11169434 C-365.97571195 97.20092108 -369.5846375 97.29110581 -373.19354248 97.38220215 C-377.43201606 97.48910427 -381.67053802 97.59383836 -385.9091053 97.69695663 C-387.45617455 97.73489772 -389.00322751 97.77351054 -390.55026054 97.81290054 C-395.46060008 97.93754946 -400.37084469 98.04174808 -405.28210449 98.12243652 C-406.03180889 98.1357476 -406.78151329 98.14905869 -407.553936 98.16277313 C-409.83954695 98.19924759 -412.12495787 98.22300435 -414.4107666 98.24304199 C-415.44162935 98.26061145 -415.44162935 98.26061145 -416.4933176 98.27853584 C-428.68225911 98.33609458 -438.53857822 93.47006106 -447.27819824 85.24353027 C-456.39274393 75.54094938 -459.81963824 64.10003392 -459.58679199 50.97009277 C-458.67409729 39.44439686 -453.44016602 29.90435118 -445.04382324 22.02087402 C-433.69724024 12.81034896 -422.80781059 10.89095286 -408.46643066 10.55993652 C-407.20357648 10.52380312 -405.94072229 10.48766972 -404.6395998 10.45044136 C-401.17735616 10.3516238 -397.71491304 10.26363043 -394.25233078 10.1776185 C-390.56201096 10.08408839 -386.87197022 9.98055708 -383.18188477 9.87826538 C-376.06970597 9.68269644 -368.95731362 9.49643244 -361.84480083 9.31345904 C-353.63030285 9.1017487 -345.41608153 8.8800976 -337.20185149 8.65827632 C-297.19718642 7.57928099 -257.19064349 6.57489799 -217.1819458 5.65742493 C-215.59554019 5.62102995 -214.00913476 5.58462765 -212.42272949 5.54821777 C-211.65257759 5.53055044 -210.88242569 5.51288311 -210.08893585 5.4946804 C-193.86546419 5.12150072 -177.64374913 4.69058941 -161.42211533 4.24533081 C-157.77560329 4.14534107 -154.12907271 4.04603252 -150.48254395 3.94665527 C-145.00573014 3.79730154 -139.52891879 3.64785811 -134.05210972 3.49833107 C-132.32570199 3.45120039 -130.59929398 3.40408025 -128.8728857 3.35696983 C-123.77367047 3.21781295 -118.67446071 3.07845841 -113.57525635 2.93890381 C-99.64645078 2.55795971 -85.71755612 2.18057974 -71.78849697 1.80901432 C-65.39574732 1.63837045 -59.00304644 1.46623886 -52.61044312 1.29019165 C-37.79382276 0.88290381 -22.97704988 0.50116997 -8.15818787 0.18461609 C-5.43872169 0.12582251 -2.71936879 0.0631085 0 0 Z " fill="#6FB2F5" transform="translate(509.2821044921875,77.8775634765625)"/>
<path d="M0 0 C16.4501397 15.01860082 28.39131993 36.52645539 29.71704102 59.02490234 C30.81504165 87.80603995 24.25102355 110.33748914 5.0703125 132.16796875 C-8.10575913 146.12484462 -25.39285033 156.09967018 -44.44140625 159.3359375 C-46.09140625 159.3359375 -47.74140625 159.3359375 -49.44140625 159.3359375 C-49.44140625 223.0259375 -49.44140625 286.7159375 -49.44140625 352.3359375 C-20.07140625 352.3359375 9.29859375 352.3359375 39.55859375 352.3359375 C48.79859375 352.6659375 58.03859375 352.9959375 67.55859375 353.3359375 C67.55859375 366.8359375 67.55859375 366.8359375 66.55859375 371.3359375 C66.22859375 371.3359375 65.89859375 371.3359375 65.55859375 371.3359375 C65.53081861 370.00273071 65.51186034 368.66934037 65.49609375 367.3359375 C65.48449219 366.5934375 65.47289062 365.8509375 65.4609375 365.0859375 C65.58964451 361.46154802 66.09448191 357.93320571 66.55859375 354.3359375 C59.63913395 354.45441724 52.71980811 354.57922014 45.80053711 354.70825195 C43.45062798 354.75134734 41.10069263 354.7930382 38.75073242 354.83325195 C35.357179 354.89157528 31.96375452 354.95508507 28.5703125 355.01953125 C27.01494026 355.04459999 27.01494026 355.04459999 25.42814636 355.07017517 C18.76671366 355.20301145 12.18508752 355.64245952 5.55859375 356.3359375 C5.55859375 355.6759375 5.55859375 355.0159375 5.55859375 354.3359375 C-2.26604841 354.25911944 -10.09059137 354.20701923 -17.91552734 354.17114258 C-20.57098407 354.15787936 -23.22593828 354.13578162 -25.88134766 354.10961914 C-46.84863275 353.89295361 -46.84863275 353.89295361 -67.44140625 357.3359375 C-69.27391302 357.73557993 -71.10713424 358.13197701 -72.94140625 358.5234375 C-74.67390625 358.925625 -74.67390625 358.925625 -76.44140625 359.3359375 C-75.78140625 359.0059375 -75.12140625 358.6759375 -74.44140625 358.3359375 C-74.44140625 292.6659375 -74.44140625 226.9959375 -74.44140625 159.3359375 C-77.74140625 159.0059375 -81.04140625 158.6759375 -84.44140625 158.3359375 C-107.42401814 152.51491269 -127.98405781 137.67048292 -140.48974609 117.47998047 C-153.17148292 96.1791309 -157.67009216 70.14479346 -151.75390625 45.8359375 C-150.02504701 39.33539561 -147.56255011 33.28447051 -144.44140625 27.3359375 C-143.81492187 26.02109375 -143.81492187 26.02109375 -143.17578125 24.6796875 C-132.3475183 3.02316159 -112.02788644 -12.07012159 -89.44140625 -19.6640625 C-57.44564673 -29.22903164 -25.22880496 -21.45730001 0 0 Z " fill="#DC9D3D" transform="translate(887.44140625,72.6640625)"/>
<path d="M0 0 C1 2 1 2 0.9375 5.5 C0.59587188 9.05878466 0.59587188 9.05878466 3 11 C6.45786015 11.50007794 6.45786015 11.50007794 10 11 C12.09764165 9.48105194 12.09764165 9.48105194 13 7 C13.25086724 3.83267579 13.25086724 3.83267579 13 1 C15.71663793 3.71663793 15.30753121 5.30194653 15.4140625 9.1015625 C15.45273438 10.31328125 15.49140625 11.525 15.53125 12.7734375 C15.5621875 14.04445313 15.593125 15.31546875 15.625 16.625 C15.66367188 17.90375 15.70234375 19.1825 15.7421875 20.5 C15.83671049 23.66652017 15.92226357 26.8330304 16 30 C17.19363159 29.13713379 17.19363159 29.13713379 18.41137695 28.25683594 C20.30940755 26.88476562 22.20743815 25.51269531 24.10546875 24.140625 C26.79129214 22.15434805 29.40666793 20.10500812 32 18 C31.06264468 20.8790199 30.12227222 23.71230066 28.9375 26.5 C26.86459972 32.02773408 26.86914124 37.55924688 26.9375 43.375 C26.94201172 44.11105469 26.94652344 44.84710938 26.95117188 45.60546875 C26.96284858 47.40368158 26.98077989 49.20185197 27 51 C26.505 49.02 26.505 49.02 26 47 C25.01 47.66 24.02 48.32 23 49 C24.22007944 51.6905528 24.22007944 51.6905528 26 54 C26.66 53.34 27.32 52.68 28 52 C28.4125 52.9178125 28.825 53.835625 29.25 54.78125 C35.12528719 67.44687057 41.71591496 74.66530799 55 80 C65.6474706 83.47672509 76.73021917 82.64510078 86.78125 77.60546875 C90.34863294 75.4833057 93.7174504 73.20758746 97.0625 70.75 C99.77110756 69.13636145 101.1903501 68.66512242 104.1875 68.125 C111.2527261 66.76216451 118.37320164 63.31964203 123.125 57.8125 C126.07785056 53.38322416 126.78620532 49.23200924 126 44 C123.3097907 36.65682665 117.69843254 33.43375959 111 30 C110.34 30.66 109.68 31.32 109 32 C108.5978125 30.76636719 108.5978125 30.76636719 108.1875 29.5078125 C105.33649625 21.38620313 101.78738062 15.36181046 96 9 C100.28707104 6.85646448 106.48315149 9.91008451 110.94091797 11.29931641 C122.61271376 15.27110368 133.68570685 21.79763211 140 32.6875 C144.40170969 41.6775643 145.20811341 49.52401183 142 59 C138.04404814 69.99361207 129.4724633 76.39151265 119.30126953 81.31665039 C109.42054056 85.82241917 98.88241132 88.62953493 88 89 C86.77152344 89.0515625 85.54304688 89.103125 84.27734375 89.15625 C58.95862158 89.88144005 35.74591739 83.40906473 15.328125 68.26171875 C14.67070313 67.63716797 14.67070313 67.63716797 14 67 C14 66.34 14 65.68 14 65 C13.01 65 12.02 65 11 65 C7.69258002 81.08429836 4.38685384 100.90827 13 116 C13.63164063 115.443125 14.26328125 114.88625 14.9140625 114.3125 C38.10255185 94.53211715 64.08475065 89.34382243 94 91 C109.69756921 92.53240791 126.39248139 98.96093573 137 111 C143.35012953 119.18915219 145.00915577 127.76427722 144 138 C141.72293279 148.34613759 134.39757248 155.94449928 125.875 161.8125 C112.33119115 169.85532206 96.84415896 172.39207856 81.3125 172.3125 C80.17272705 172.30758545 79.0329541 172.3026709 77.85864258 172.29760742 C56.85339991 172.00729469 31.40443415 165.45364959 16 150 C16 149.34 16 148.68 16 148 C14.68 147.67 13.36 147.34 12 147 C11.51490207 148.37291868 11.03724487 149.74846703 10.5625 151.125 C10.29566406 151.89070312 10.02882813 152.65640625 9.75390625 153.4453125 C6.04741847 166.00512082 7.45855915 179.61413176 11 192 C11.33676199 193.33247148 11.6707196 194.66565997 12 196 C12.99257812 195.34773437 13.98515625 194.69546875 15.0078125 194.0234375 C41.09573262 177.12664666 71.81735065 169.26894453 102.875 175.1875 C116.52315198 178.28474764 130.14644154 183.63984966 139 195 C143.68780066 203.4066942 145.36291286 211.52733548 142.875 220.9375 C138.9662671 232.73608266 131.07645637 239.43402883 120.375 245.1875 C97.64026027 256.08851623 70.20957964 255.83871423 46.65234375 247.8671875 C35.55830916 243.54409273 24.61496541 237.29095123 16 229 C16 228.34 16 227.68 16 227 C15.34 227 14.68 227 14 227 C14 226.34 14 225.68 14 225 C13.01 225 12.02 225 11 225 C7.61948204 232.18360067 7.71092946 240.81909821 10.02734375 248.33203125 C16.4003369 262.08427963 27.95172432 269.8206287 41.53125 275.46875 C45.31573275 276.81800037 49.11808804 277.97436286 53 279 C53.69174316 279.18546387 54.38348633 279.37092773 55.09619141 279.56201172 C67.97760161 282.87569734 80.9584095 283.72236296 94.19702148 284.22924805 C94.87361816 284.25987335 95.55021484 284.29049866 96.24731445 284.322052 C98.10184958 284.40509647 99.9570575 284.47270332 101.81225586 284.53930664 C105.26342206 285.0380698 107.21649876 285.93279192 110 288 C111.60725635 291.21451269 111.05748185 294.43612536 111 298 C110.34 298.33 109.68 298.66 109 299 C109.0928125 297.1128125 109.0928125 297.1128125 109.1875 295.1875 C109.17106609 291.93816354 109.17106609 291.93816354 107.875 289 C105.10184376 287.52098334 103.08815875 287.61398016 100 288 C98 289 98 289 97 291 C96.60984439 294.12124489 96.44122451 296.09975061 98.125 298.8125 C100.66676215 300.42228269 103.0398108 300.67109009 106 301 C106 301.33 106 301.66 106 302 C71.69141373 302.96192298 33.30510822 297.98685228 7 274 C-1.678136 265.76282619 -8.26362338 254.24570562 -9.3359375 242.23828125 C-9.43862952 231.91773297 -8.29492117 223.09296626 -2.6875 214.125 C-0.63222918 210.31894292 -1.0120012 209.12092766 -2 205 C-2.74191137 203.16657155 -3.53650987 201.35381981 -4.375 199.5625 C-11.83086133 182.03582308 -12.14039287 162.91385269 -6 145 C-4.52047296 141.50617711 -2.8130241 138.15245827 -0.9765625 134.83203125 C0.307605 131.1079455 -0.43650764 129.55845293 -2 126 C-2.39058594 125.07703125 -2.78117187 124.1540625 -3.18359375 123.203125 C-3.59738281 122.22859375 -4.01117188 121.2540625 -4.4375 120.25 C-11.83479637 101.10019432 -12.63643342 78.00295714 -4.36328125 58.953125 C-3.28686284 56.65475842 -2.21007174 54.35656634 -1.1328125 52.05859375 C0.58081058 47.43181142 0.13630087 43.70512729 -1 39 C-2.45182268 32.91794843 -2.18601007 26.75621313 -2.18530273 20.54296875 C-2.1875002 18.37480348 -2.205716 16.20713866 -2.22460938 14.0390625 C-2.22754173 12.6588559 -2.22952758 11.27864689 -2.23046875 9.8984375 C-2.23457764 8.64724121 -2.23868652 7.39604492 -2.24291992 6.10693359 C-2 3 -2 3 0 0 Z " fill="#6BA9E6" transform="translate(68,242)"/>
<path d="M0 0 C2.34049095 0.01005268 4.68098609 0.01917447 7.02148438 0.02734375 C12.70191583 0.04916934 18.38218781 0.08246457 24.0625 0.125 C23.95167771 3.48629968 23.82127731 6.84657307 23.6875 10.20703125 C23.6565625 11.15259888 23.625625 12.0981665 23.59375 13.0723877 C23.0557059 25.95462065 18.39560564 34.31215193 9.0625 43.125 C-4.13342123 55.23012935 -24.12332742 58.2091288 -41.1875 61.125 C-63.52450437 65.01692203 -79.36150965 74.032097 -95.9375 89.125 C-97.22720703 90.28515625 -97.22720703 90.28515625 -98.54296875 91.46875 C-99.33316406 92.1803125 -100.12335938 92.891875 -100.9375 93.625 C-101.7315625 94.33914063 -102.525625 95.05328125 -103.34375 95.7890625 C-104.71145545 97.02082133 -106.0779559 98.25399572 -107.43359375 99.49902344 C-131.26349517 121.3042572 -158.42848431 133.45888541 -190.9140625 132.49609375 C-211.53231559 131.46228256 -231.47594812 123.08368146 -250.6003418 115.89208984 C-261.87526116 111.66386822 -273.12610521 108.47571395 -284.9375 106.125 C-286.14664063 105.87878906 -287.35578125 105.63257813 -288.6015625 105.37890625 C-315.55753172 100.88624471 -351.03160875 102.67205438 -375.9375 115.125 C-377.93710012 115.164992 -379.93797242 115.16846799 -381.9375 115.125 C-382.14203151 111.75090441 -382.26551449 108.37841008 -382.375 105 C-382.43365234 104.04867187 -382.49230469 103.09734375 -382.55273438 102.1171875 C-382.71985016 95.2415666 -382.71985016 95.2415666 -380.64477539 92.2800293 C-378.83310938 90.66059211 -377.01081259 89.39108525 -374.9375 88.125 C-374.27564697 87.70347656 -373.61379395 87.28195312 -372.93188477 86.84765625 C-370.81904451 85.56120815 -368.67518714 84.36523089 -366.5 83.1875 C-365.72446777 82.76146484 -364.94893555 82.33542969 -364.14990234 81.89648438 C-357.65435527 78.38680426 -351.00382682 75.34629154 -344.1953125 72.5 C-341.71625223 71.453682 -339.31991856 70.37008306 -336.9375 69.125 C-336.9375 68.795 -336.9375 68.465 -336.9375 68.125 C-334.39597565 67.64506844 -331.85428778 67.16603273 -329.3125 66.6875 C-328.59964844 66.55279297 -327.88679687 66.41808594 -327.15234375 66.27929688 C-325.73081186 66.01194455 -324.30876737 65.74730375 -322.88623047 65.48535156 C-321.30783445 65.19348079 -319.73166408 64.88959102 -318.15625 64.58203125 C-299.78852317 61.97399237 -282.75766801 63.17712203 -264.9375 68.125 C-264.15536133 68.34043457 -263.37322266 68.55586914 -262.56738281 68.77783203 C-254.86769638 70.97507618 -247.53090068 73.83925737 -240.1875 77.0234375 C-238.42188721 77.78793213 -238.42188721 77.78793213 -236.62060547 78.56787109 C-234.27872866 79.59274349 -231.94409145 80.63434751 -229.61767578 81.69384766 C-228.5501709 82.16612793 -227.48266602 82.6384082 -226.3828125 83.125 C-224.95219482 83.7746875 -224.95219482 83.7746875 -223.49267578 84.4375 C-220.97489179 85.36823478 -220.97489179 85.36823478 -218.69702148 84.36987305 C-213.2515987 80.51720054 -210.25910913 73.18697938 -207.9375 67.125 C-207.2775 68.445 -206.6175 69.765 -205.9375 71.125 C-207.2575 73.105 -208.5775 75.085 -209.9375 77.125 C-208.0503125 77.0321875 -208.0503125 77.0321875 -206.125 76.9375 C-197.57266294 76.97784121 -190.3585113 79.18413107 -183.59375 84.4296875 C-181.60801308 86.46225784 -180.31396721 88.64903764 -178.9375 91.125 C-149.50966053 84.6921607 -126.22631491 63.38735948 -104.921875 43.28515625 C-73.21619328 13.45506285 -43.77879135 -0.32900049 0 0 Z " fill="#6EB0F2" transform="translate(929.9375,426.875)"/>
<path d="M0 0 C16.5 0 33 0 50 0 C50 47.19 50 94.38 50 143 C-6.76 143 -63.52 143 -122 143 C-115.38387356 135.28118582 -109.28402898 130.61833864 -100.34936523 126.06884766 C-85.64224521 118.57252655 -77.94134986 108.02790215 -72.5 92.5 C-66.02143013 74.03886292 -55.72468264 64.02838698 -38.81201172 54.97851562 C-24.95852163 47.49740699 -16.84610492 36.75604353 -11.546875 22.03125 C-11.29832764 21.34240723 -11.04978027 20.65356445 -10.79370117 19.94384766 C-10.32627056 18.62130775 -9.87430176 17.29313464 -9.44262695 15.95849609 C-7.20432865 9.47715552 -4.30351271 6.1478753 0 0 Z " fill="#DA9C3D" transform="translate(320,401)"/>
<path d="M0 0 C2.52060966 2.20169106 4.89606938 4.48504153 7.25 6.86328125 C7.94738281 7.52714844 8.64476562 8.19101563 9.36328125 8.875 C22.02306501 21.7806048 26.81727892 39.4300903 26.66796875 57.11401367 C26.06640575 74.79432637 18.45634284 90.85651411 6.03125 103.27734375 C-8.13245034 116.44640221 -25.99675205 122.69979578 -45.29296875 122.13671875 C-64.92066868 120.58424531 -81.82141854 111.4208775 -94.6171875 96.57421875 C-106.62028552 81.31753373 -110.66363417 63.9761907 -108.75 44.86328125 C-106.66583304 29.4377478 -99.77701757 16.77758654 -88.75 5.86328125 C-87.75419922 4.81720703 -87.75419922 4.81720703 -86.73828125 3.75 C-80.13250957 -2.72994746 -72.1549035 -6.50894229 -63.75 -10.13671875 C-62.85796875 -10.52214844 -61.9659375 -10.90757813 -61.046875 -11.3046875 C-41.16604857 -18.13471335 -16.20126881 -12.58820176 0 0 Z " fill="#D3CABE" transform="translate(866.75,87.13671875)"/>
<path d="M0 0 C0.99 0 1.98 0 3 0 C3.24234375 0.74765625 3.4846875 1.4953125 3.734375 2.265625 C4.06953125 3.25046875 4.4046875 4.2353125 4.75 5.25 C5.07484375 6.22453125 5.3996875 7.1990625 5.734375 8.203125 C6.80549991 11.08033881 6.80549991 11.08033881 9.06835938 12.82226562 C11 15 11 15 11.36230469 17.65722656 C11.29946289 18.64174805 11.23662109 19.62626953 11.171875 20.640625 C11.11386719 21.71054687 11.05585937 22.78046875 10.99609375 23.8828125 C10.91488281 24.99398438 10.83367187 26.10515625 10.75 27.25 C10.68425781 28.37664062 10.61851563 29.50328125 10.55078125 30.6640625 C10.38584506 33.44441539 10.20159083 36.2221037 10 39 C10.66 39 11.32 39 12 39 C12.20496094 39.89203125 12.40992187 40.7840625 12.62109375 41.703125 C12.89050781 42.87359375 13.15992187 44.0440625 13.4375 45.25 C13.70433594 46.41015625 13.97117187 47.5703125 14.24609375 48.765625 C14.80972648 51.18369702 15.39357139 53.59259286 16 56 C16.99257812 55.34773438 17.98515625 54.69546875 19.0078125 54.0234375 C45.09573262 37.12664666 75.81735065 29.26894453 106.875 35.1875 C120.52315198 38.28474764 134.14644154 43.63984966 143 55 C147.68780066 63.4066942 149.36291286 71.52733548 146.875 80.9375 C142.9662671 92.73608266 135.07645637 99.43402883 124.375 105.1875 C101.64026027 116.08851623 74.20957964 115.83871423 50.65234375 107.8671875 C39.55830916 103.54409273 28.61496541 97.29095123 20 89 C20 88.34 20 87.68 20 87 C19.34 87 18.68 87 18 87 C18 86.34 18 85.68 18 85 C17.01 85 16.02 85 15 85 C11.61948204 92.18360067 11.71092946 100.81909821 14.02734375 108.33203125 C20.4003369 122.08427963 31.95172432 129.8206287 45.53125 135.46875 C49.31573275 136.81800037 53.11808804 137.97436286 57 139 C57.69174316 139.18546387 58.38348633 139.37092773 59.09619141 139.56201172 C71.97760161 142.87569734 84.9584095 143.72236296 98.19702148 144.22924805 C98.87361816 144.25987335 99.55021484 144.29049866 100.24731445 144.322052 C102.10184958 144.40509647 103.9570575 144.47270332 105.81225586 144.53930664 C109.26342206 145.0380698 111.21649876 145.93279192 114 148 C115.60725635 151.21451269 115.05748185 154.43612536 115 158 C114.34 158.33 113.68 158.66 113 159 C113.0928125 157.1128125 113.0928125 157.1128125 113.1875 155.1875 C113.17106609 151.93816354 113.17106609 151.93816354 111.875 149 C109.10184376 147.52098334 107.08815875 147.61398016 104 148 C102 149 102 149 101 151 C100.60984439 154.12124489 100.44122451 156.09975061 102.125 158.8125 C104.66676215 160.42228269 107.0398108 160.67109009 110 161 C110 161.33 110 161.66 110 162 C75.69141373 162.96192298 37.30510822 157.98685228 11 134 C2.321864 125.76282619 -4.26362338 114.24570562 -5.3359375 102.23828125 C-5.43862952 91.91773297 -4.29492117 83.09296626 1.3125 74.125 C3.36777082 70.31894292 2.9879988 69.12092766 2 65 C1.25808863 63.16657155 0.46349013 61.35381981 -0.375 59.5625 C-8.29464165 40.94560326 -7.97957391 20.7737036 -0.8671875 2.01171875 C-0.58101562 1.34785156 -0.29484375 0.68398438 0 0 Z " fill="#6BA9E6" transform="translate(64,382)"/>
<path d="M0 0 C2.0458028 -0.00281129 4.09158596 -0.0083282 6.13738251 -0.01401138 C38.4486222 -0.06041205 71.4642306 0.9822341 103.1528244 7.74712753 C104.05774628 7.94024521 104.96266815 8.13336288 105.8950119 8.33233261 C114.16620569 10.2150124 122.62231095 12.51860944 129.7153244 17.30962753 C130.65762748 20.03241489 130.57183582 22.39202641 130.7153244 25.30962753 C103.22340439 45.35581921 55.08125928 43.42586397 22.5981369 43.51275253 C21.86090267 43.51557991 21.12366844 43.51840729 20.36409378 43.52132034 C16.44747588 43.53617142 12.53089335 43.54548428 8.61425018 43.54986191 C5.46373891 43.55420256 2.31350831 43.56794191 -0.83692169 43.59087753 C-95.56051453 44.26572216 -95.56051453 44.26572216 -120.2846756 26.30962753 C-121.2846756 25.30962753 -121.2846756 25.30962753 -121.8471756 22.05962753 C-121.2846756 18.30962753 -121.2846756 18.30962753 -118.2846756 15.68462753 C-84.5112315 -2.07254411 -37.10401823 0.04648017 0 0 Z " fill="#E2A13E" transform="translate(501.28467559814453,275.690372467041)"/>
<path d="M0 0 C15.84 0 31.68 0 48 0 C48 46.53 48 93.06 48 141 C32.16 141 16.32 141 0 141 C0 94.47 0 47.94 0 0 Z " fill="#D6CDC1" transform="translate(321,402)"/>
<path d="M0 0 C5.30358353 4.76089126 9.08470853 11.2895204 11.8125 17.8125 C13.8244805 21.11214801 15.93109936 21.90818561 19.3828125 23.45703125 C24.76238456 25.93585367 28.27608951 29.85273282 30.375 35.375 C31.34376166 40.34601942 30.57010187 44.41026103 27.75 48.71875 C22.00950567 55.63343635 12.59121381 60.33739223 3.80078125 61.8046875 C0.81135376 62.50751586 -0.8374598 63.80345941 -3.25 65.6875 C-11.75090073 71.87574911 -22.04943205 75.31893499 -32.625 74.375 C-44.68519458 72.41209937 -55.06097899 67.16943746 -62.625 57.375 C-64.86773459 53.47417531 -66.81345152 49.49215563 -68.625 45.375 C-69.615 45.375 -70.605 45.375 -71.625 45.375 C-73.3125 43.875 -73.3125 43.875 -74.625 42.375 C-73.965 41.055 -73.305 39.735 -72.625 38.375 C-71.965 38.375 -71.305 38.375 -70.625 38.375 C-70.64820312 37.61316406 -70.67140625 36.85132813 -70.6953125 36.06640625 C-70.92784208 22.76239247 -68.27871796 12.03729395 -58.875 2.0625 C-41.61671439 -14.03862086 -18.44912883 -14.19478426 0 0 Z " fill="#F2F2F2" transform="translate(164.625,250.625)"/>
<path d="M0 0 C7.76741312 6.23476264 14.32130764 15.61313149 15.9765625 25.57421875 C17.03309617 38.0677294 15.93206457 49.75161402 7.59765625 59.76953125 C6.79521484 60.66285156 6.79521484 60.66285156 5.9765625 61.57421875 C5.18958984 62.49847656 5.18958984 62.49847656 4.38671875 63.44140625 C-2.41666945 70.90112131 -11.80308426 75.02385828 -21.8203125 75.91015625 C-35.40652856 76.0444074 -45.92093326 72.94412767 -56.18359375 63.609375 C-64.71950581 54.78627338 -68.39202885 43.94700816 -68.23046875 31.859375 C-67.52871534 20.72400487 -63.71420386 11.08888648 -55.625 3.25 C-39.10995152 -10.49560189 -18.08005474 -12.73980691 0 0 Z " fill="#F2F2F2" transform="translate(517.0234375,88.42578125)"/>
<path d="M0 0 C8.66171312 6.16398472 13.68824504 14.50438961 16.69140625 24.7109375 C18.74571743 37.65309794 16.75077198 49.28688586 9.26171875 60.17578125 C2.29791689 69.02736072 -7.05134499 74.5781667 -18.1953125 76.36328125 C-31.03321771 77.83450116 -41.99017878 74.92092658 -52.2421875 66.84765625 C-60.85642274 59.08795314 -66.0927063 49.31857446 -66.88671875 37.66796875 C-67.09052533 23.72420178 -63.02376784 13.81691393 -53.69140625 3.53515625 C-38.64337428 -10.60530959 -16.8576984 -10.81636361 0 0 Z " fill="#F2F2F2" transform="translate(837.68359375,109.3515625)"/>
<path d="M0 0 C8.24695755 7.5142411 13.21622876 17.6437928 14.25390625 28.70703125 C14.72780101 40.37095705 11.36913716 50.92122301 4 60 C3.00665039 61.00660646 2.00756851 62.00762623 1 63 C-5.31404505 61.00890431 -11.37574808 58.64436777 -17.47729492 56.078125 C-34.44687041 48.95169352 -50.8834837 44.03587399 -69 41 C-72.0815079 31.75547629 -69.7781615 21.69084175 -66 13 C-60.0309999 2.26984453 -50.85013782 -5.58555351 -39 -9 C-24.91951077 -12.36707351 -11.27044373 -8.86679459 0 0 Z " fill="#F2F2F2" transform="translate(710,450)"/>
<path d="M0 0 C0.69955811 0.00359528 1.39911621 0.00719055 2.11987305 0.01089478 C12.78546223 0.08937201 22.37487334 0.86847351 32.125 5.5625 C32.95257813 5.95824219 33.78015625 6.35398437 34.6328125 6.76171875 C39.89882426 9.6862013 44.41690287 14.14630573 47.125 19.5625 C47.91630731 24.95140292 47.82020334 29.32897899 44.625 33.875 C34.90413073 45.11051635 19.21360113 47.75113894 5.08203125 48.78515625 C-16.24160815 49.40675791 -36.8764907 43.72787117 -53.171875 29.56640625 C-56.46808621 26.39545107 -56.46808621 26.39545107 -57.875 24.5625 C-57.875 23.9025 -57.875 23.2425 -57.875 22.5625 C-57.215 22.5625 -56.555 22.5625 -55.875 22.5625 C-55.875 21.9025 -55.875 21.2425 -55.875 20.5625 C-40.14591362 6.24928883 -21.17104766 -0.27077053 0 0 Z " fill="#D6CDC1" transform="translate(147.875,349.4375)"/>
<path d="M0 0 C3.78825604 3.67072065 6.14053087 6.92800809 6.3125 12.25 C6.22485589 17.72775705 4.27909201 20.52410617 0.59765625 24.5234375 C-12.14091595 36.7948249 -30.85792278 36.55651146 -47.32421875 36.3125 C-68.37101462 35.6041518 -84.74606657 26.10350562 -99 11 C-87.36408042 -2.18737553 -66.37383697 -8.38941968 -49.3515625 -9.875 C-32.70391913 -10.75992456 -14.09243899 -9.95087408 0 0 Z " fill="#D6CDC1" transform="translate(189,442)"/>
<path d="M0 0 C1 2 1 2 0.9375 5.5 C0.59587188 9.05878466 0.59587188 9.05878466 3 11 C6.45786015 11.50007794 6.45786015 11.50007794 10 11 C12.09764165 9.48105194 12.09764165 9.48105194 13 7 C13.25086724 3.83267579 13.25086724 3.83267579 13 1 C15.71663793 3.71663793 15.30753121 5.30194653 15.4140625 9.1015625 C15.45273438 10.31328125 15.49140625 11.525 15.53125 12.7734375 C15.5621875 14.04445313 15.593125 15.31546875 15.625 16.625 C15.66367188 17.90375 15.70234375 19.1825 15.7421875 20.5 C15.83671049 23.66652017 15.92226357 26.8330304 16 30 C17.19363159 29.13713379 17.19363159 29.13713379 18.41137695 28.25683594 C20.30940755 26.88476562 22.20743815 25.51269531 24.10546875 24.140625 C26.79129214 22.15434805 29.40666793 20.10500812 32 18 C31.06264468 20.8790199 30.12227222 23.71230066 28.9375 26.5 C26.86459972 32.02773408 26.86914124 37.55924688 26.9375 43.375 C26.94201172 44.11105469 26.94652344 44.84710938 26.95117188 45.60546875 C26.96284858 47.40368158 26.98077989 49.20185197 27 51 C26.67 49.68 26.34 48.36 26 47 C25.01 47.66 24.02 48.32 23 49 C24.22007944 51.6905528 24.22007944 51.6905528 26 54 C26.66 53.34 27.32 52.68 28 52 C28.4125 52.9178125 28.825 53.835625 29.25 54.78125 C35.12528719 67.44687057 41.71591496 74.66530799 55 80 C65.6474706 83.47672509 76.73021917 82.64510078 86.78125 77.60546875 C90.34863294 75.4833057 93.7174504 73.20758746 97.0625 70.75 C99.77110756 69.13636145 101.1903501 68.66512242 104.1875 68.125 C111.2527261 66.76216451 118.37320164 63.31964203 123.125 57.8125 C126.07785056 53.38322416 126.78620532 49.23200924 126 44 C123.3097907 36.65682665 117.69843254 33.43375959 111 30 C110.34 30.66 109.68 31.32 109 32 C108.5978125 30.76636719 108.5978125 30.76636719 108.1875 29.5078125 C105.33649625 21.38620313 101.78738062 15.36181046 96 9 C100.28707104 6.85646448 106.48315149 9.91008451 110.94091797 11.29931641 C122.61271376 15.27110368 133.68570685 21.79763211 140 32.6875 C144.40170969 41.6775643 145.20811341 49.52401183 142 59 C138.04404814 69.99361207 129.4724633 76.39151265 119.30126953 81.31665039 C109.42054056 85.82241917 98.88241132 88.62953493 88 89 C86.77152344 89.0515625 85.54304688 89.103125 84.27734375 89.15625 C58.95862158 89.88144005 35.74591739 83.40906473 15.328125 68.26171875 C14.67070313 67.63716797 14.67070313 67.63716797 14 67 C14 66.34 14 65.68 14 65 C13.01 64.67 12.02 64.34 11 64 C11 63.34 11 62.68 11 62 C9.93507006 60.26693594 8.82286108 58.56276243 7.6875 56.875 C3.92377173 51.06179216 1 46.08703861 1 39 C0.34 39 -0.32 39 -1 39 C-2.45085619 32.91725827 -2.18601005 26.75603419 -2.18530273 20.54296875 C-2.1875002 18.37480348 -2.205716 16.20713866 -2.22460938 14.0390625 C-2.22754173 12.6588559 -2.22952758 11.27864689 -2.23046875 9.8984375 C-2.23457764 8.64724121 -2.23868652 7.39604492 -2.24291992 6.10693359 C-2 3 -2 3 0 0 Z " fill="#6DABE8" transform="translate(68,242)"/>
<path d="M0 0 C7.8073948 3.43388699 11.82819135 10.76115763 15 18.3359375 C19.59952567 30.58936136 18.65754741 42.13022492 13.375 54.125 C7.71251164 64.45957951 -1.82346799 72.80373623 -13.05224609 76.40893555 C-19.76324163 77.75458075 -26.74660751 77.29974515 -33.5625 77.1875 C-35.15949259 77.17242639 -36.75649894 77.15874272 -38.35351562 77.14648438 C-42.23602124 77.11368925 -46.11785633 77.06205574 -50 77 C-46.95633157 74.5399583 -43.94119242 72.26460969 -40.625 70.1875 C-30.35053742 63.34354735 -24.89697792 55.04937719 -22 43 C-21.24975375 33.52935897 -21.79712368 24.99855727 -25 16 C-24.20142578 15.62488281 -24.20142578 15.62488281 -23.38671875 15.2421875 C-20.41795472 13.69706972 -17.64002089 11.91542541 -14.8125 10.125 C-9.70076049 6.92500911 -4.5877643 4.27298887 1 2 C0.505 1.01 0.505 1.01 0 0 Z " fill="#020303" transform="translate(554,87)"/>
<path d="M0 0 C5.15472774 2.18128791 8.49201856 6.04834433 11 11 C9.9375 14.625 9.9375 14.625 8.9375 16.5859375 C6.43251169 23.03628239 7.01111802 30.81609967 9.03125 37.3203125 C15.36830778 51.08581023 26.96138755 58.82464792 40.53125 64.46875 C44.31573275 65.81800037 48.11808804 66.97436286 52 68 C52.69174316 68.18546387 53.38348633 68.37092773 54.09619141 68.56201172 C66.97760161 71.87569734 79.9584095 72.72236296 93.19702148 73.22924805 C93.87361816 73.25987335 94.55021484 73.29049866 95.24731445 73.322052 C97.10184958 73.40509647 98.9570575 73.47270332 100.81225586 73.53930664 C104.26342206 74.0380698 106.21649876 74.93279192 109 77 C110.60725635 80.21451269 110.05748185 83.43612536 110 87 C109.01 87.495 109.01 87.495 108 88 C108.0928125 86.1128125 108.0928125 86.1128125 108.1875 84.1875 C108.17106609 80.93816354 108.17106609 80.93816354 106.875 78 C104.10184376 76.52098334 102.08815875 76.61398016 99 77 C97 78 97 78 96 80 C95.60984439 83.12124489 95.44122451 85.09975061 97.125 87.8125 C99.66676215 89.42228269 102.0398108 89.67109009 105 90 C105 90.33 105 90.66 105 91 C70.69141373 91.96192298 32.30510822 86.98685228 6 63 C-2.678136 54.76282619 -9.26362338 43.24570562 -10.3359375 31.23828125 C-10.43629915 21.15193547 -9.55683511 12.43986546 -3.875 3.75 C-2 2 -2 2 0 2 C0 1.34 0 0.68 0 0 Z " fill="#6BA9E6" transform="translate(69,453)"/>
<path d="M0 0 C0 0.66 0 1.32 0 2 C0.59167969 2.04898437 1.18335938 2.09796875 1.79296875 2.1484375 C6.19104472 2.56456867 9.96928897 3.04965595 14 5 C14 5.66 14 6.32 14 7 C15.19625 7.061875 16.3925 7.12375 17.625 7.1875 C26.8146904 8.22316352 35.78911637 10.9692348 42 18 C44.48499142 21.54998775 44.43249013 24.74718041 44 29 C42.64794434 32.55919518 40.72695317 35.3171046 37.9375 37.9375 C26.30600084 42.14463799 14.65054609 36.09605293 3.8125 32 C1.98432464 31.32389437 0.15555237 30.6494005 -1.67382812 29.9765625 C-6.12299252 28.33623026 -10.56348564 26.67422837 -15 25 C-15 24.34 -15 23.68 -15 23 C-17.31 22.34 -19.62 21.68 -22 21 C-22.33 19.35 -22.66 17.7 -23 16 C-23.66 16 -24.32 16 -25 16 C-25 12.7 -25 9.4 -25 6 C-24.34 6 -23.68 6 -23 6 C-22.979375 5.2575 -22.95875 4.515 -22.9375 3.75 C-21.77799236 0.3487776 -20.12139356 -0.68803398 -16.95703125 -2.2734375 C-10.80016701 -4.55921943 -5.69671423 -2.39861652 0 0 Z " fill="#CCC3B8" transform="translate(739,271)"/>
<path d="M0 0 C16.67739817 3.034497 32.92203066 8.4459113 43 23 C47.57854559 31.58477298 49.39693618 39.50763087 46.67578125 49.00390625 C42.82947629 60.36495731 35.40982313 67.18006372 24.8125 72.4375 C17.63580418 75.93532795 11.19201282 78.2497901 3.125 78.625 C2.43664062 78.66367187 1.74828125 78.70234375 1.0390625 78.7421875 C-0.64023246 78.83548166 -2.32007767 78.91878238 -4 79 C-3.62488281 78.5875 -3.24976563 78.175 -2.86328125 77.75 C1.43440617 72.90021672 5.09615222 67.80769556 8 62 C10.5625 61.375 10.5625 61.375 13 61 C13 60.34 13 59.68 13 59 C13.73605469 58.63648438 14.47210938 58.27296875 15.23046875 57.8984375 C22.00858842 54.40640755 27.47359799 51.57920602 30 44 C30.58218262 38.27520423 30.04210352 34.68675182 26.77734375 29.8984375 C23.46386512 26.35920538 19.27815775 24.19307504 15 22 C14.34 22.66 13.68 23.32 13 24 C12.731875 23.17757813 12.46375 22.35515625 12.1875 21.5078125 C9.62183208 14.19903482 6.6727521 8.67117616 1.57421875 2.828125 C0 1 0 1 0 0 Z " fill="#6AA8E4" transform="translate(164,250)"/>
<path d="M0 0 C2.99745327 2.90125123 5.69955183 5.70415092 8 9.1875 C8.45375 9.86167969 8.9075 10.53585938 9.375 11.23046875 C10.90370691 13.8358851 12.25779059 16.46872738 13.6015625 19.1730957 C14.05096191 20.07623001 14.50036133 20.97936432 14.96337891 21.90986633 C15.30546387 22.59961044 15.64754883 23.28935455 16 24 C43.67223175 23.49772063 71.34014549 22.98683202 99 22 C98.01 21.01 98.01 21.01 97 20 C98.48886719 20.24169922 98.48886719 20.24169922 100.0078125 20.48828125 C103.96071825 21.04971708 107.88594906 21.19134672 111.875 21.1875 C112.57173828 21.18814453 113.26847656 21.18878906 113.98632812 21.18945312 C119.27769701 21.13530889 123.9283778 20.44903491 129 19 C128.67 19.66 128.34 20.32 128 21 C136.25 21.33 144.5 21.66 153 22 C153 22.33 153 22.66 153 23 C152.38930349 23.0145394 151.77860699 23.02907881 151.14940453 23.0440588 C136.23152616 23.3994515 121.31374005 23.75853736 106.39604759 24.12164211 C99.18171668 24.29715543 91.96736043 24.47145733 84.75292969 24.64282227 C78.45863365 24.79233434 72.16439953 24.94420607 65.8702265 25.09881264 C62.54316229 25.18045696 59.21607913 25.2606343 55.88892746 25.33868217 C36.92289813 25.73662282 36.92289813 25.73662282 18 27 C21.64724889 31.53551149 24.97677083 35.00998264 30 38 C29.75722624 41.35184423 28.78030433 42.20803321 26.27734375 44.578125 C25.17185454 45.47840364 24.05823943 46.3687786 22.9375 47.25 C22.08575195 47.93835938 22.08575195 47.93835938 21.21679688 48.640625 C19.8180802 49.76900148 18.40992986 50.8856663 17 52 C7.43895631 45.79135592 1.12392976 38.24785952 -4 28 C-22.315 27.505 -22.315 27.505 -41 27 C-41 26.67 -41 26.34 -41 26 C-29.12 25.67 -17.24 25.34 -5 25 C-7.31 21.37 -9.62 17.74 -12 14 C-9.99006295 9.98012591 -8.06153611 7.85483005 -4.875 4.75 C-3.96492188 3.85796875 -3.05484375 2.9659375 -2.1171875 2.046875 C-1.41851562 1.37140625 -0.71984375 0.6959375 0 0 Z " fill="#B55E46" transform="translate(379,142)"/>
<path d="M0 0 C0.67254255 -0.01211266 1.34508511 -0.02422531 2.03800774 -0.03670502 C12.77922855 -0.22219577 23.56558683 1.1572047 32.0625 8.3125 C32.7712581 9.62394355 33.44606511 10.95521217 34.0625 12.3125 C33.33546875 12.580625 32.6084375 12.84875 31.859375 13.125 C24.76615744 15.88953607 18.70094729 19.28408273 12.4609375 23.640625 C10.0625 25.3125 10.0625 25.3125 8.0625 26.3125 C5.32611847 23.68889775 3.06762871 21.02342189 0.875 17.9375 C-4.87001486 10.48980483 -11.95224862 6.68730017 -20.9375 4.3125 C-22.1440625 3.9721875 -22.1440625 3.9721875 -23.375 3.625 C-34.00396876 2.3287843 -42.94822931 4.80275624 -52.9375 8.3125 C-51.30337557 6.60409719 -50.06843906 5.37796953 -47.9375 4.3125 C-66.53004874 4.21135205 -85.10323707 4.1980965 -103.6875 4.8125 C-123.76952046 5.47582071 -143.84681897 5.40957808 -163.9375 5.3125 C-163.9375 4.9825 -163.9375 4.6525 -163.9375 4.3125 C-151.25065535 3.93702872 -138.56376686 3.56307467 -125.87682629 3.19085789 C-119.98044491 3.01782299 -114.08407758 2.84433908 -108.18774414 2.66967773 C-84.51710676 1.96883295 -60.84663581 1.28166282 -37.171875 0.734375 C-35.88147592 0.70445811 -35.88147592 0.70445811 -34.56500816 0.67393684 C-23.0439848 0.40886583 -11.52254187 0.18744373 0 0 Z " fill="#6CADED" transform="translate(521.9375,77.6875)"/>
<path d="M0 0 C3.8461289 5.76919335 2.67062899 14.44881695 1.41796875 21.08203125 C-1.86465441 31.5594449 -9.3856614 38.6250217 -18.73828125 43.94140625 C-26.40780706 47.53111522 -37.15462686 47.15693307 -45.3046875 45.2109375 C-47.72454968 44.29209128 -49.87171243 43.47305089 -52 42 C-52.495 40.515 -52.495 40.515 -53 39 C-52.1028125 38.8040625 -51.205625 38.608125 -50.28125 38.40625 C-30.44481279 33.65206257 -14.93075219 24.79217544 -4 7 C-2.61100398 4.68914055 -1.28789282 2.36972279 0 0 Z " fill="#040302" transform="translate(887,169)"/>
<path d="M0 0 C2.9667903 2.57360122 4.49144778 5.51704221 6.25 9 C7.06210937 10.5778125 7.06210937 10.5778125 7.890625 12.1875 C9 15 9 15 8 18 C6.58803387 19.17663844 5.17107748 20.34793194 3.7265625 21.484375 C1.82253294 23.15578556 0.33822756 24.96538805 -1.25 26.9375 C-6.56385249 33.1585956 -12.86537049 36.97284069 -21 38 C-22.17407021 35.73272667 -23.33939739 33.46165376 -24.5 31.1875 C-24.83386719 30.54490234 -25.16773438 29.90230469 -25.51171875 29.24023438 C-27.00239084 26.30452301 -28 24.33873483 -28 21 C-27.40832031 20.76925781 -26.81664062 20.53851563 -26.20703125 20.30078125 C-21.08861421 18.18828613 -17.72985202 16.19608352 -14 12 C-12.51083041 10.44786919 -11.00976076 8.90710919 -9.5 7.375 C-8.7678125 6.61960938 -8.035625 5.86421875 -7.28125 5.0859375 C-4.99175709 2.99246282 -2.70846709 1.49728638 0 0 Z " fill="#CE943C" transform="translate(670,150)"/>
<path d="M0 0 C3.73527902 1.24509301 3.93057641 2.24168985 5.75 5.625 C11.65841634 15.74136163 19.29976785 21.14992395 30.4921875 24.81640625 C41.54919983 27.55196466 52.56973077 25.89545384 62.375 20.0625 C65.03572526 18.36200468 67.53992097 16.59230457 70.0625 14.6875 C73.97369707 12.44064211 77.55241054 12.19767064 82 12 C81.34 12.66 80.68 13.32 80 14 C79.01 14 78.02 14 77 14 C76.7215625 15.2065625 76.7215625 15.2065625 76.4375 16.4375 C74.43912075 21.3900051 70.93874628 27.53062686 66 30 C68.97 30 71.94 30 75 30 C58.96048134 38.01975933 33.19099962 32.81716927 16.6875 27.875 C11.04202768 25.83534548 7.90119722 23.87197456 5.07421875 18.5390625 C4.71972656 17.70117188 4.36523438 16.86328125 4 16 C3.59394531 15.05898438 3.18789062 14.11796875 2.76953125 13.1484375 C0.9756676 8.60561555 -0.23023943 4.92358173 0 0 Z " fill="#0D0E0F" transform="translate(95,298)"/>
<path d="M0 0 C6.8186033 1.15158634 11.63616242 2.86815122 16.8125 7.6875 C18.68427139 11.33252849 19.11343626 14.9233845 19 19 C17.40594023 23.69362043 15.28109703 26.48718218 11 29 C4.42096112 30.86875423 -0.81835448 29.586646 -7 27 C-7 26.01 -7 25.02 -7 24 C-7.350625 23.29875 -7.70125 22.5975 -8.0625 21.875 C-9.41673929 17.72199952 -9.14342263 14.19746758 -8 10 C-6.11419223 6.49778557 -4.07633253 4.33485901 -0.1875 3.125 C0.8953125 3.063125 0.8953125 3.063125 2 3 C2 2.34 2 1.68 2 1 C1.34 0.67 0.68 0.34 0 0 Z " fill="#D1963D" transform="translate(778,381)"/>
<path d="M0 0 C6.99689594 1.20581427 12.98164403 2.68954506 17.9375 8.125 C19.53802004 12.45581893 19.65002973 16.44248821 19 21 C17.18766463 24.83378636 15.69973473 26.53351018 12.1875 28.875 C5.18924315 31.34497301 -0.35427048 29.53170648 -7 27 C-6.34 26.67 -5.68 26.34 -5 26 C-5.495 25.38125 -5.99 24.7625 -6.5 24.125 C-8.62750674 19.69269429 -8.93855624 15.82793331 -8 11 C-6.00982758 7.42541848 -3.78491147 4.55382891 0.203125 3.31640625 C0.79609375 3.21199219 1.3890625 3.10757812 2 3 C2 2.34 2 1.68 2 1 C1.34 0.67 0.68 0.34 0 0 Z " fill="#CF6243" transform="translate(912,355)"/>
<path d="M0 0 C3.56568061 1.54335429 6.31019147 3.24343581 8.9375 6.125 C10.53802004 10.45581893 10.65002973 14.44248821 10 19 C8.18766463 22.83378636 6.69973473 24.53351018 3.1875 26.875 C-4.61617313 29.62923758 -10.68638041 26.96247882 -18 24 C-17.01 23.34 -16.02 22.68 -15 22 C-15.66 21.01 -16.32 20.02 -17 19 C-17.76603375 14.7868144 -17.9475779 10.70817554 -15.83203125 6.89453125 C-11.32843264 1.46474269 -7.25546156 -2.17663847 0 0 Z " fill="#D89A3D" transform="translate(926,258)"/>
<path d="M0 0 C4.5007346 3.63889181 6.72702564 6.58872649 7.375 12.3125 C6.82414791 17.72921221 4.97706877 21.14275358 0.9375 24.9375 C-6.6335571 27.67596746 -13.86739762 26.22985768 -21 23 C-20.01 22.34 -19.02 21.68 -18 21 C-18.515625 20.175 -19.03125 19.35 -19.5625 18.5 C-21.27531453 14.32966898 -21.4692336 11.2128853 -20 7 C-17.77730751 3.41704776 -15.17252412 0.79224603 -11.6875 -1.5625 C-7.51088613 -2.24241389 -3.93057995 -1.51944379 0 0 Z " fill="#D16243" transform="translate(776,284)"/>
<path d="M0 0 C7.467186 3.48345153 13.90005703 6.84400032 17 15 C17.96876166 19.97101942 17.19510187 24.03526103 14.375 28.34375 C9.0015339 34.81633417 0.97483225 38.71008388 -7 41 C-9.359375 40.62890625 -9.359375 40.62890625 -11 40 C-10.52949219 39.33355469 -10.05898437 38.66710937 -9.57421875 37.98046875 C-2.45511436 27.44183596 -0.60591888 18.75410584 -0.9921875 6.1875 C-1 3 -1 3 0 0 Z " fill="#CDC5B9" transform="translate(178,271)"/>
<path d="M0 0 C0.66 1.32 1.32 2.64 2 4 C0.02 6.97 0.02 6.97 -2 10 C-0.741875 9.938125 0.51625 9.87625 1.8125 9.8125 C11.07777963 9.85620415 19.33830949 12.38790024 26 19 C26.556875 19.94875 27.11375 20.8975 27.6875 21.875 C28.120625 22.57625 28.55375 23.2775 29 24 C31.62694422 24.41780879 31.62694422 24.41780879 34 24 C24.34643151 29.46702304 9.10044284 26.64574028 -1.04907227 23.84960938 C-5.06023956 22.64366016 -9.04515808 21.37985205 -13 20 C-12.24074219 19.278125 -11.48148438 18.55625 -10.69921875 17.8125 C-8.27146184 15.28285459 -6.5671806 13.01071201 -4.8125 10 C-4.32394531 9.175 -3.83539062 8.35 -3.33203125 7.5 C-2.02658122 5.04988852 -0.9781415 2.59601536 0 0 Z " fill="#070809" transform="translate(722,494)"/>
<path d="M0 0 C1.98 0 3.96 0 6 0 C6 0.33 6 0.66 6 1 C4.35 1 2.7 1 1 1 C1 64.69 1 128.38 1 194 C30.37 194 59.74 194 90 194 C99.24 194.33 108.48 194.66 118 195 C118 208.5 118 208.5 117 213 C116.67 213 116.34 213 116 213 C115.97222486 211.66679321 115.95326659 210.33340287 115.9375 209 C115.92589844 208.2575 115.91429687 207.515 115.90234375 206.75 C116.03105076 203.12561052 116.53588816 199.59726821 117 196 C110.0805402 196.11847974 103.16121436 196.24328264 96.24194336 196.37231445 C93.89203423 196.41540984 91.54209888 196.4571007 89.19213867 196.49731445 C85.79858525 196.55563778 82.40516077 196.61914757 79.01171875 196.68359375 C77.45634651 196.70866249 77.45634651 196.70866249 75.86955261 196.73423767 C69.20811991 196.86707395 62.62649377 197.30652202 56 198 C56 197.34 56 196.68 56 196 C37.52 195.67 19.04 195.34 0 195 C0 130.65 0 66.3 0 0 Z " fill="#787064" transform="translate(837,231)"/>
<path d="M0 0 C0.53190541 1.43344 1.05015258 2.87195367 1.5625 4.3125 C1.85253906 5.11300781 2.14257812 5.91351563 2.44140625 6.73828125 C3 9 3 9 2 12 C-0.00390625 13.140625 -0.00390625 13.140625 -2.5625 14.25 C-9.18608226 17.38149305 -13.86838445 21.86838445 -19 27 C-21.64 24.69 -24.28 22.38 -27 20 C-22.03468559 11.3646706 -10.62105769 0 0 0 Z " fill="#BB5A3E" transform="translate(640,236)"/>
<path d="M0 0 C2.71663793 2.71663793 2.30753121 4.30194653 2.4140625 8.1015625 C2.45273438 9.31328125 2.49140625 10.525 2.53125 11.7734375 C2.5621875 13.04445313 2.593125 14.31546875 2.625 15.625 C2.66367188 16.90375 2.70234375 18.1825 2.7421875 19.5 C2.83671049 22.66652017 2.92226357 25.8330304 3 29 C4.19363159 28.13713379 4.19363159 28.13713379 5.41137695 27.25683594 C7.30940755 25.88476562 9.20743815 24.51269531 11.10546875 23.140625 C13.79129214 21.15434805 16.40666793 19.10500812 19 17 C18.06264468 19.8790199 17.12227222 22.71230066 15.9375 25.5 C13.86459972 31.02773408 13.86914124 36.55924688 13.9375 42.375 C13.94201172 43.11105469 13.94652344 43.84710938 13.95117188 44.60546875 C13.96284858 46.40368158 13.98077989 48.20185197 14 50 C13.67 48.68 13.34 47.36 13 46 C11.35 47.32 9.7 48.64 8 50 C1.49630728 41.25365462 0.52910778 32.66267944 0.3125 21.9375 C0.27833984 20.78572266 0.24417969 19.63394531 0.20898438 18.44726562 C0.12720179 15.6316079 0.05782625 12.81623429 0 10 C-0.99 10 -1.98 10 -3 10 C-2.505 9.46375 -2.01 8.9275 -1.5 8.375 C0.37489544 5.40641555 0.23501425 3.44687573 0 0 Z " fill="#6396C9" transform="translate(81,243)"/>
<path d="M0 0 C2.94956528 1.36944102 5.52468811 2.87830409 8 5 C8 5.66 8 6.32 8 7 C8.57621094 7.24878906 9.15242188 7.49757812 9.74609375 7.75390625 C12.32156712 9.17778148 14.02011557 10.82428143 16.0625 12.9375 C16.73410156 13.62714844 17.40570313 14.31679687 18.09765625 15.02734375 C18.72542969 15.67832031 19.35320312 16.32929688 20 17 C20.99 17.99 21.98 18.98 23 20 C20.03 23.465 20.03 23.465 17 27 C11.88505952 22.67657827 6.94157501 18.21200084 2.0625 13.625 C1.37865234 12.98433594 0.69480469 12.34367188 -0.00976562 11.68359375 C-1.67441797 10.12370973 -3.3378019 8.56249827 -5 7 C-3.64062915 4.1394109 -2.35479531 2.14072301 0 0 Z " fill="#F0F0EF" transform="translate(374,203)"/>
<path d="M0 0 C0.68994993 -0.00512478 1.37989986 -0.01024956 2.09075737 -0.01552963 C14.64016292 -0.09916979 14.64016292 -0.09916979 20.75 2.1875 C18.39157701 2.973641 16.94641639 3.22757504 14.48486328 2.7253418 C9.26930274 1.69964283 3.9235075 2.00288276 -1.375 2 C-3.16357422 1.98163086 -3.16357422 1.98163086 -4.98828125 1.96289062 C-6.12910156 1.96095703 -7.26992188 1.95902344 -8.4453125 1.95703125 C-9.48703613 1.95292236 -10.52875977 1.94881348 -11.60205078 1.94458008 C-14.47966591 1.99656672 -14.47966591 1.99656672 -17.25 4.1875 C-19.16015625 4.1640625 -19.16015625 4.1640625 -21.3125 3.8125 C-32.95141121 2.27067331 -42.23087984 4.31591724 -53.25 8.1875 C-51.61587557 6.47909719 -50.38093906 5.25296953 -48.25 4.1875 C-66.84254874 4.08635205 -85.41573707 4.0730965 -104 4.6875 C-124.08202046 5.35082071 -144.15931897 5.28457808 -164.25 5.1875 C-164.25 4.8575 -164.25 4.5275 -164.25 4.1875 C-151.56315535 3.81202872 -138.87626686 3.43807467 -126.18932629 3.06585789 C-120.29294491 2.89282299 -114.39657758 2.71933908 -108.50024414 2.54467773 C-84.83609286 1.84403911 -61.17196776 1.15736634 -37.50390625 0.6015625 C-36.21550874 0.57084498 -36.21550874 0.57084498 -34.90108299 0.53950691 C-23.26790261 0.26424236 -11.63614614 0.08464496 0 0 Z " fill="#566777" transform="translate(522.25,77.8125)"/>
<path d="M0 0 C1.95357699 3.90715399 2.24651067 5.24671584 2.22705078 9.41113281 C2.22680908 10.50699707 2.22656738 11.60286133 2.22631836 12.73193359 C2.21608643 13.87742676 2.20585449 15.02291992 2.1953125 16.203125 C2.19329834 17.26063965 2.19128418 18.3181543 2.18920898 19.40771484 C2.17875098 23.3551874 2.1508284 27.30259809 2.125 31.25 C2.08375 40.0775 2.0425 48.905 2 58 C29.06 58 56.12 58 84 58 C83.92084328 40.03448589 83.92084328 40.03448589 83.81982422 22.0690918 C83.8139843 19.8208027 83.80888756 17.5725115 83.8046875 15.32421875 C83.79445557 14.15201782 83.78422363 12.97981689 83.77368164 11.77209473 C83.77331909 10.09766296 83.77331909 10.09766296 83.77294922 8.3894043 C83.768508 7.41899704 83.76406677 6.44858978 83.75949097 5.44877625 C84 3 84 3 86 0 C86 1.65 86 3.3 86 5 C86.88969482 4.98428955 86.88969482 4.98428955 87.79736328 4.96826172 C118.10520064 4.504875 118.10520064 4.504875 126 9 C124.35405757 8.85540319 122.70825269 8.70924064 121.0625 8.5625 C119.68771484 8.44068359 119.68771484 8.44068359 118.28515625 8.31640625 C116.52185752 8.14657605 114.75879577 7.96908696 113.00170898 7.74389648 C106.96035501 6.98460063 101.02086818 6.88290381 94.9375 6.9375 C91.658125 6.958125 88.37875 6.97875 85 7 C85.33 15.91 85.66 24.82 86 34 C86.66 34.33 87.32 34.66 88 35 C86.515 35.495 86.515 35.495 85 36 C85 42.93 85 49.86 85 57 C86.485 57.495 86.485 57.495 88 58 C84.27501593 59.24166136 80.82697035 59.13152545 76.94848633 59.11352539 C76.12874832 59.11367142 75.30901031 59.11381744 74.46443176 59.1139679 C71.75360472 59.11327096 69.0428463 59.10548878 66.33203125 59.09765625 C64.45301857 59.09579129 62.5740054 59.09436776 60.69499207 59.09336853 C55.74824685 59.08954948 50.80153098 59.07972438 45.85479736 59.06866455 C39.92016455 59.05663931 33.98552194 59.05204528 28.05088043 59.04621124 C19.03389988 59.03651233 10.01698371 59.01735148 1 59 C0.67 39.53 0.34 20.06 0 0 Z " fill="#46271A" transform="translate(463,485)"/>
<path d="M0 0 C4.36568695 0.87313739 6.42547265 1.65102489 10 4 C9.39282831 8.05768401 8.07940719 11.15233502 6.125 14.75 C5.61195313 15.71421875 5.09890625 16.6784375 4.5703125 17.671875 C3 20 3 20 0 21 C-2.86468949 19.60325847 -5.34690913 17.78322501 -8 16 C-5.36 10.72 -2.72 5.44 0 0 Z " fill="#B6583C" transform="translate(628,116)"/>
<path d="M0 0 C1.35921586 1.30693833 2.68409365 2.64946454 4 4 C4.54011719 4.52078125 5.08023438 5.0415625 5.63671875 5.578125 C9.98186669 10.07520119 9.98186669 10.07520119 10.0625 14.1875 C9.47445644 16.29753867 8.88299631 18.40666688 8.27734375 20.51171875 C5.87525012 29.35963147 5.31327118 37.88272838 5 47 C4.67 47 4.34 47 4 47 C4.02618408 46.30438965 4.05236816 45.6087793 4.0793457 44.89208984 C4.18370949 41.71995915 4.2484506 38.54819022 4.3125 35.375 C4.35439453 34.28058594 4.39628906 33.18617188 4.43945312 32.05859375 C4.67747379 25.21270515 4.67747379 25.21270515 1.5625 19.3828125 C0.716875 18.59648437 -0.12875 17.81015625 -1 17 C-2.97669467 13.23486729 -3.43204933 10.2340834 -3 6 C-1.5 2.625 -1.5 2.625 0 0 Z " fill="#0E1215" transform="translate(70,374)"/>
<path d="M0 0 C11.25095803 -0.02345146 22.50190999 -0.04107859 33.75288773 -0.05181217 C38.98044973 -0.05697077 44.20799468 -0.06393598 49.43554688 -0.07543945 C72.31134381 -0.1244995 95.14660917 -0.13496452 118 1 C118.0135501 2.92185546 118.02322063 4.84373854 118.03125 6.765625 C118.03705078 7.83586914 118.04285156 8.90611328 118.04882812 10.00878906 C117.99847416 13.09347278 117.6695017 15.98724235 117 19 C116.67 19 116.34 19 116 19 C115.97222486 17.66679321 115.95326659 16.33340287 115.9375 15 C115.92589844 14.2575 115.91429687 13.515 115.90234375 12.75 C116.03105076 9.12561052 116.53588816 5.59726821 117 2 C110.0805402 2.11847974 103.16121436 2.24328264 96.24194336 2.37231445 C93.89203423 2.41540984 91.54209888 2.4571007 89.19213867 2.49731445 C85.79858525 2.55563778 82.40516077 2.61914757 79.01171875 2.68359375 C77.45634651 2.70866249 77.45634651 2.70866249 75.86955261 2.73423767 C69.20811991 2.86707395 62.62649377 3.30652202 56 4 C56 3.34 56 2.68 56 2 C37.52 1.67 19.04 1.34 0 1 C0 0.67 0 0.34 0 0 Z " fill="#4E575F" transform="translate(837,425)"/>
<path d="M0 0 C0.66 0 1.32 0 2 0 C3.40234375 2.01171875 3.40234375 2.01171875 4.9375 4.6875 C5.44152344 5.55761719 5.94554688 6.42773438 6.46484375 7.32421875 C6.97144531 8.20722656 7.47804688 9.09023438 8 10 C8.99661316 11.66869409 9.99559434 13.33598466 11 15 C10.34 15 9.68 15 9 15 C8.34 18.3 7.68 21.6 7 25 C1.97446389 21.11232112 -1.25235101 18.33522759 -3 12 C-3.04047292 7.68558627 -2.31316353 3.70106164 0 0 Z " fill="#050709" transform="translate(70,291)"/>
<path d="M0 0 C2.375 1.625 2.375 1.625 4 4 C4.61195145 7.6717087 4.48706506 9.28813568 2.375 12.375 C-0.71186432 14.48706506 -2.3282913 14.61195145 -6 14 C-8.375 12.375 -8.375 12.375 -10 10 C-10.61195145 6.3282913 -10.48706506 4.71186432 -8.375 1.625 C-5.28813568 -0.48706506 -3.6717087 -0.61195145 0 0 Z " fill="#EFEFEF" transform="translate(174,529)"/>
<path d="M0 0 C5.14837874 2.21793995 8.76994453 5.84441412 11 11 C10.40984928 15.0631616 8.93209887 18.39835228 7 22 C2.80204046 20.10783794 1.17894952 18.13249047 -1 14 C-2.23933005 8.93568729 -2.57962197 4.70401653 0 0 Z " fill="#070B0E" transform="translate(69,453)"/>
<path d="M0 0 C3.375 0.875 3.375 0.875 5.375 2.875 C6.54484597 6.63521919 6.71908929 8.21549553 4.875 11.75 C2.375 13.875 2.375 13.875 -1.1875 14.375 C-4.625 13.875 -4.625 13.875 -6.5625 12.8125 C-8.26402633 9.7097167 -8.05019574 7.33730815 -7.625 3.875 C-5.32929152 0.20186643 -4.36360172 -0.15046902 0 0 Z " fill="#F1F1F1" transform="translate(75.625,240.125)"/>
<path d="M0 0 C0.33 0 0.66 0 1 0 C1 1.65 1 3.3 1 5 C1.88969482 4.98428955 1.88969482 4.98428955 2.79736328 4.96826172 C33.10520064 4.504875 33.10520064 4.504875 41 9 C39.35405757 8.85540319 37.70825269 8.70924064 36.0625 8.5625 C34.68771484 8.44068359 34.68771484 8.44068359 33.28515625 8.31640625 C31.52185752 8.14657605 29.75879577 7.96908696 28.00170898 7.74389648 C21.96035501 6.98460063 16.02086818 6.88290381 9.9375 6.9375 C6.658125 6.958125 3.37875 6.97875 0 7 C0.33 15.91 0.66 24.82 1 34 C1.66 34.33 2.32 34.66 3 35 C1.515 35.495 1.515 35.495 0 36 C0 42.93 0 49.86 0 57 C0.99 57.33 1.98 57.66 3 58 C1.68 58 0.36 58 -1 58 C-1.0253109 50.22209364 -1.04285035 42.44419786 -1.05493164 34.66625977 C-1.059967 32.01912031 -1.06679563 29.37198365 -1.07543945 26.72485352 C-1.08753979 22.92463493 -1.09323622 19.12445305 -1.09765625 15.32421875 C-1.10281754 14.13664474 -1.10797882 12.94907074 -1.11329651 11.72550964 C-1.11337204 10.62459488 -1.11344757 9.52368011 -1.11352539 8.3894043 C-1.115746 7.41899704 -1.11796661 6.44858978 -1.12025452 5.44877625 C-1 3 -1 3 0 0 Z " fill="#5E493E" transform="translate(548,485)"/>
<path d="M0 0 C0.60408691 0.06203613 1.20817383 0.12407227 1.83056641 0.18798828 C7.51481772 0.74078408 13.19505068 1.14141564 18.8984375 1.4296875 C20.29818533 1.50375061 21.69792483 1.57797126 23.09765625 1.65234375 C25.24994999 1.76634968 27.40208421 1.87623138 29.55517578 1.97412109 C31.67044858 2.07180772 33.78421031 2.18673604 35.8984375 2.3046875 C37.14286621 2.36640137 38.38729492 2.42811523 39.66943359 2.49169922 C43.17954422 3.02740149 45.17186861 3.88884131 48 6 C49.60725635 9.21451269 49.05748185 12.43612536 49 16 C48.01 16.495 48.01 16.495 47 17 C47.0928125 15.1128125 47.0928125 15.1128125 47.1875 13.1875 C47.17106609 9.93816354 47.17106609 9.93816354 45.875 7 C43.16271063 5.55344567 41.026326 5.74780617 38 6 C37.01 6.33 36.02 6.66 35 7 C35 6.01 35 5.02 35 4 C34.1028125 4.02320313 33.205625 4.04640625 32.28125 4.0703125 C8.23314836 4.41811562 8.23314836 4.41811562 0 0 Z " fill="#505E6B" transform="translate(130,524)"/>
<path d="M0 0 C1.22138672 -0.00128906 2.44277344 -0.00257813 3.70117188 -0.00390625 C4.96380859 -0.00003906 6.22644531 0.00382812 7.52734375 0.0078125 C8.79384766 0.00394531 10.06035156 0.00007813 11.36523438 -0.00390625 C13.19538086 -0.00197266 13.19538086 -0.00197266 15.0625 0 C16.72551147 0.00169189 16.72551147 0.00169189 18.42211914 0.00341797 C21.21910202 0.12236212 23.7444167 0.49580052 26.46484375 1.1328125 C26.46484375 1.4628125 26.46484375 1.7928125 26.46484375 2.1328125 C25.15128906 2.12121094 23.83773437 2.10960937 22.484375 2.09765625 C20.74869934 2.08827422 19.01302214 2.07917446 17.27734375 2.0703125 C16.41302734 2.06193359 15.54871094 2.05355469 14.65820312 2.04492188 C9.78272964 2.00721638 9.78272964 2.00721638 4.96484375 2.6328125 C0.89134502 3.44751225 -3.20598318 3.23546295 -7.34765625 3.1953125 C-8.23130859 3.19080078 -9.11496094 3.18628906 -10.02539062 3.18164062 C-12.19534184 3.16991116 -14.36525797 3.15197745 -16.53515625 3.1328125 C-11.31575445 0.12161915 -5.90617502 0.00600265 0 0 Z " fill="#272E34" transform="translate(140.53515625,332.8671875)"/>
<path d="M0 0 C2.5 0.25 2.5 0.25 4.5 2.25 C4.75 4.75 4.75 4.75 4.5 7.25 C3.84 7.91 3.18 8.57 2.5 9.25 C-0.625 8.875 -0.625 8.875 -3.5 8.25 C-4.125 5.375 -4.125 5.375 -4.5 2.25 C-2.5 0.25 -2.5 0.25 0 0 Z " fill="#AA563C" transform="translate(549.5,240.75)"/>
<path d="M0 0 C0.33 1.32 0.66 2.64 1 4 C1.969375 4.12375 2.93875 4.2475 3.9375 4.375 C5.4534375 4.684375 5.4534375 4.684375 7 5 C7.33 5.66 7.66 6.32 8 7 C5.69 6.34 3.38 5.68 1 5 C0.9175 5.70125 0.835 6.4025 0.75 7.125 C-0.17027725 10.65272947 -1.88126977 13.06111614 -4 16 C-4.99 15.67 -5.98 15.34 -7 15 C-6.67506385 11.4257023 -6.36129314 9.44287547 -4.0625 6.625 C-2 5 -2 5 0 5 C0 3.35 0 1.7 0 0 Z " fill="#4C78A4" transform="translate(430,119)"/>
<path d="M0 0 C2.52394612 3.12488567 4.39701907 6.31314387 6 10 C5.67 10.66 5.34 11.32 5 12 C4.51499023 10.86361084 4.02998047 9.72722168 3.53027344 8.55639648 C2.48041584 6.58872351 2.48041584 6.58872351 1 5 C-2.15790119 4.27299396 -4.32433104 4.04053949 -7.484375 4.09765625 C-8.29996887 4.08536484 -9.11556274 4.07307343 -9.95587158 4.06040955 C-12.55482947 4.02867508 -15.15095338 4.04495511 -17.75 4.0625 C-19.51434929 4.04939119 -21.27867829 4.03315142 -23.04296875 4.01367188 C-27.36258401 3.97281373 -31.68028406 3.97500311 -36 4 C-36 3.67 -36 3.34 -36 3 C-24.12 2.67 -12.24 2.34 0 2 C0 1.34 0 0.68 0 0 Z " fill="#52575F" transform="translate(374,165)"/>
<path d="M0 0 C1.5625 1.0625 1.5625 1.0625 3 3 C2.89470715 8.58052085 1.25223599 11.69865562 -2 16 C-2 14.33333333 -2 12.66666667 -2 11 C-3.22976563 11.55880859 -3.22976563 11.55880859 -4.484375 12.12890625 C-5.56203125 12.60199219 -6.6396875 13.07507813 -7.75 13.5625 C-8.81734375 14.03816406 -9.8846875 14.51382812 -10.984375 15.00390625 C-13.98369837 15.9946154 -15.13421241 16.16161779 -18 15 C-17.11957031 14.67386719 -16.23914063 14.34773438 -15.33203125 14.01171875 C-13.58986328 13.35623047 -13.58986328 13.35623047 -11.8125 12.6875 C-10.66394531 12.25824219 -9.51539063 11.82898438 -8.33203125 11.38671875 C-5.29786399 10.1239645 -2.63412878 8.96576775 0 7 C0.41725678 3.37400578 0.41725678 3.37400578 0 0 Z " fill="#73442A" transform="translate(631,294)"/>
<path d="M0 0 C11.88 0 23.76 0 36 0 C36 0.33 36 0.66 36 1 C35.26885986 1.01981934 34.53771973 1.03963867 33.78442383 1.06005859 C30.46009731 1.15552914 27.13638014 1.26511966 23.8125 1.375 C22.08676758 1.42140625 22.08676758 1.42140625 20.32617188 1.46875 C19.21435547 1.50742187 18.10253906 1.54609375 16.95703125 1.5859375 C15.93585205 1.6173584 14.91467285 1.6487793 13.86254883 1.68115234 C10.91593856 2.00936326 8.71243576 2.84717825 6 4 C3.8125 3.8125 3.8125 3.8125 2 3 C1.34 2.01 0.68 1.02 0 0 Z " fill="#938E88" transform="translate(891,425)"/>
<path d="M0 0 C1.9375 0.8125 1.9375 0.8125 4 2 C4.33 2.99 4.66 3.98 5 5 C3.75 6.5625 3.75 6.5625 2 8 C-0.1875 7.6875 -0.1875 7.6875 -2 7 C-2.6875 5.1875 -2.6875 5.1875 -3 3 C-1.5625 1.25 -1.5625 1.25 0 0 Z " fill="#709FCC" transform="translate(330,223)"/>
<path d="M0 0 C0.33 0 0.66 0 1 0 C1 7.26 1 14.52 1 22 C0.67 20.68 0.34 19.36 0 18 C-0.66 18 -1.32 18 -2 18 C-1.34 12.06 -0.68 6.12 0 0 Z M-5 18 C-4.01 18.33 -3.02 18.66 -2 19 C-2.99 19.99 -3.98 20.98 -5 22 C-5 20.68 -5 19.36 -5 18 Z " fill="#6A7279" transform="translate(94,271)"/>
<path d="M0 0 C0.33 0.66 0.66 1.32 1 2 C0.67 2.598125 0.34 3.19625 0 3.8125 C-1.30143609 6.65939145 -0.80068112 8.01564312 0 11 C0.33333333 12.66666667 0.66666667 14.33333333 1 16 C0.01 16 -0.98 16 -2 16 C-2 14.68 -2 13.36 -2 12 C-2.99 12.495 -2.99 12.495 -4 13 C-4 12.34 -4 11.68 -4 11 C-5.65 11.66 -7.3 12.32 -9 13 C-7 10 -7 10 -4 9 C-3.01788795 7.16696677 -3.01788795 7.16696677 -2.375 5 C-1.06951872 1.06951872 -1.06951872 1.06951872 0 0 Z " fill="#5B5751" transform="translate(596,138)"/>
<path d="M0 0 C-1.39750048 3.15835107 -3.05198234 5.32272825 -5.5 7.75 C-6.41265625 8.67039062 -6.41265625 8.67039062 -7.34375 9.609375 C-9 11 -9 11 -11 11 C-9.60249952 7.84164893 -7.94801766 5.67727175 -5.5 3.25 C-4.8915625 2.63640625 -4.283125 2.0228125 -3.65625 1.390625 C-2 0 -2 0 0 0 Z " fill="#A07739" transform="translate(269,464)"/>
<path d="M0 0 C-1.39750048 3.15835107 -3.05198234 5.32272825 -5.5 7.75 C-6.41265625 8.67039063 -6.41265625 8.67039063 -7.34375 9.609375 C-9 11 -9 11 -11 11 C-9.60249952 7.84164893 -7.94801766 5.67727175 -5.5 3.25 C-4.8915625 2.63640625 -4.283125 2.0228125 -3.65625 1.390625 C-2 0 -2 0 0 0 Z " fill="#986D31" transform="translate(667,153)"/>
<path d="M0 0 C0.66 1.32 1.32 2.64 2 4 C0.02 6.97 0.02 6.97 -2 10 C0.97 10 3.94 10 7 10 C7 10.33 7 10.66 7 11 C3.37 11 -0.26 11 -4 11 C-1.125 2.25 -1.125 2.25 0 0 Z " fill="#6C6862" transform="translate(722,494)"/>
<path d="M0 0 C2.45391569 3.68087353 2.22802759 6.44355588 2.125 10.6875 C2.11597656 11.38939453 2.10695313 12.09128906 2.09765625 12.81445312 C2.07413704 14.54311525 2.03826713 16.27160145 2 18 C1.67 18 1.34 18 1 18 C0.67 13.71 0.34 9.42 0 5 C-0.99 5.66 -1.98 6.32 -3 7 C-1.125 1.125 -1.125 1.125 0 0 Z " fill="#211911" transform="translate(887,169)"/>
<path d="M0 0 C1.051875 0.6496875 1.051875 0.6496875 2.125 1.3125 C6.23942462 3.72748837 10.30517827 3.7356314 15 4 C15 4.33 15 4.66 15 5 C7.87399867 5.35368021 2.52940894 4.95671348 -4 2 C-2.3125 0.8125 -2.3125 0.8125 0 0 Z " fill="#624B40" transform="translate(759,305)"/>
<path d="M0 0 C0.33 1.32 0.66 2.64 1 4 C2.4540625 4.185625 2.4540625 4.185625 3.9375 4.375 C5.4534375 4.684375 5.4534375 4.684375 7 5 C7.33 5.66 7.66 6.32 8 7 C5.69 6.34 3.38 5.68 1 5 C0.67 6.65 0.34 8.3 0 10 C-0.33 9.01 -0.66 8.02 -1 7 C-1.66 6.67 -2.32 6.34 -3 6 C-2.01 5.67 -1.02 5.34 0 5 C0 3.35 0 1.7 0 0 Z " fill="#2D4359" transform="translate(430,119)"/>
<path d="M0 0 C0.66 0 1.32 0 2 0 C2 1.32 2 2.64 2 4 C2.66 4.33 3.32 4.66 4 5 C3.01 6.485 3.01 6.485 2 8 C0.68 6.68 -0.64 5.36 -2 4 C-1.34 2.68 -0.68 1.36 0 0 Z " fill="#CEC6BA" transform="translate(92,289)"/>
<path d="M0 0 C-1.44077046 3.36179774 -3.24750021 5.59156268 -6 8 C-6.66 8 -7.32 8 -8 8 C-6.48291727 4.46014029 -4.24676932 0 0 0 Z " fill="#A37837" transform="translate(208,535)"/>
<path d="M0 0 C0.33 0 0.66 0 1 0 C2.7578125 5.95703125 2.7578125 5.95703125 3 8 C2.01 9.485 2.01 9.485 1 11 C-0.98362069 8.08291076 -0.9876191 6.87619096 -0.625 3.25 C-0.41875 2.1775 -0.2125 1.105 0 0 Z " fill="#6B482F" transform="translate(379,295)"/>
<path d="M0 0 C1.98 0.495 1.98 0.495 4 1 C3.67 2.32 3.34 3.64 3 5 C1.68 4.67 0.36 4.34 -1 4 C-0.67 2.68 -0.34 1.36 0 0 Z " fill="#A37C42" transform="translate(599,76)"/>
<path d="M0 0 C2 0 2 0 4 1.875 C4.66 2.57625 5.32 3.2775 6 4 C6.66 4.66 7.32 5.32 8 6 C6.53984709 5.71758359 5.08190207 5.42373386 3.625 5.125 C2.81289063 4.96257812 2.00078125 4.80015625 1.1640625 4.6328125 C-1 4 -1 4 -3 2 C-2.01 1.67 -1.02 1.34 0 1 C0 0.67 0 0.34 0 0 Z " fill="#675844" transform="translate(911,279)"/>
<path d="M0 0 C0.33 0.66 0.66 1.32 1 2 C0.06553465 4.03144641 -0.93224776 6.03533587 -2 8 C-2.33 7.34 -2.66 6.68 -3 6 C-4.65 6.66 -6.3 7.32 -8 8 C-5.33333333 5.33333333 -2.66666667 2.66666667 0 0 Z " fill="#576877" transform="translate(99,260)"/>
<path d="M0 0 C2 0 2 0 4 1.875 C4.66 2.57625 5.32 3.2775 6 4 C6.66 4.66 7.32 5.32 8 6 C3.545 5.01 3.545 5.01 -1 4 C-0.34 3.67 0.32 3.34 1 3 C0.67 2.01 0.34 1.02 0 0 Z " fill="#64493C" transform="translate(906,378)"/>
<path d="M0 0 C3.64734979 0.22330713 5.38372835 0.38372835 8 3 C4.37 3 0.74 3 -3 3 C-2.01 2.01 -1.02 1.02 0 0 Z " fill="#685840" transform="translate(920,257)"/>
</svg>
