<?xml version="1.0" encoding="UTF-8"?>
<svg version="1.1" xmlns="http://www.w3.org/2000/svg" width="1008" height="606">
<path d="M0 0 C332.64 0 665.28 0 1008 0 C1008 199.98 1008 399.96 1008 606 C675.36 606 342.72 606 0 606 C0 406.02 0 206.04 0 0 Z " fill="#D6CDC1" transform="translate(0,0)"/>
<path d="M0 0 C4.12692101 4.67576984 6.38372919 10.77848009 8.5 16.5625 C12.60731599 27.70343059 18.34748311 34.13641014 28.3125 40.3125 C38.11261602 46.5187981 44.21706051 53.19676476 50.15234375 63.0234375 C51.83573557 65.98763735 51.83573557 65.98763735 54 68 C53.01 68 52.02 68 51 68 C51 68.66 51 69.32 51 70 C51.99 70 52.98 70 54 70 C54.25394531 70.74765625 54.50789063 71.4953125 54.76953125 72.265625 C55.11371094 73.25046875 55.45789063 74.2353125 55.8125 75.25 C56.14894531 76.22453125 56.48539062 77.1990625 56.83203125 78.203125 C57.94378127 80.86537588 59.25110146 82.73495089 61 85 C61 85.66 61 86.32 61 87 C62.20487061 86.89389404 62.20487061 86.89389404 63.43408203 86.78564453 C73.2654932 85.99361948 83.01746016 85.84392974 92.875 85.875 C94.09476532 85.87632935 94.09476532 85.87632935 95.33917236 85.87768555 C111.90525955 85.89869056 128.44758112 86.34912053 145 87 C142.525 84.03 142.525 84.03 140 81 C140.25394531 80.49984375 140.50789062 79.9996875 140.76953125 79.484375 C141.76983629 77.46471149 142.73923512 75.42976264 143.69921875 73.390625 C150.27709551 59.57741669 156.66820194 51.24722215 171.1875 45.5 C174.70079053 44.10794149 177.44080336 43.00023935 180 40.1875 C180.99 39.1046875 180.99 39.1046875 182 38 C186.91730642 38 188.43120905 39.77702716 191.75 43 C192.25660156 43.47695312 192.76320313 43.95390625 193.28515625 44.4453125 C194.53180766 45.62139874 195.76704609 46.80956174 197 48 C194.75333427 54.34034993 191.06775809 58.05740643 184.94384766 60.98193359 C181.79618113 62.34888582 178.6471829 63.68545074 175.43554688 64.89575195 C168.65386114 67.60943801 165.78761631 71.22494321 162.70703125 77.73046875 C162.41183594 78.54128906 162.11664062 79.35210937 161.8125 80.1875 C160.68601245 83.23141316 159.47237024 86.10818414 158 89 C161.72846692 89.50531187 165.45787508 90.0033133 169.1875 90.5 C170.24259766 90.64308594 171.29769531 90.78617187 172.38476562 90.93359375 C173.40634766 91.06894531 174.42792969 91.20429688 175.48046875 91.34375 C176.41785889 91.46943359 177.35524902 91.59511719 178.32104492 91.72460938 C180.93614121 91.99343546 183.37679321 92.20022141 186 92 C188.42243652 89.85196539 188.42243652 89.85196539 190.5625 87.0625 C195.14937926 81.41038362 195.14937926 81.41038362 199 81 C203.01905551 87.33305717 203.01905551 87.33305717 202.9375 90.1875 C201.83744667 92.31426978 200.45147795 94.10009797 199 96 C200.19496094 96.36351562 200.19496094 96.36351562 201.4140625 96.734375 C207.2057449 98.56629401 212.2260199 100.20529787 217 104 C217.639375 104.433125 218.27875 104.86625 218.9375 105.3125 C220.3754949 107.59637425 220.20953012 109.38830172 219.69140625 111.984375 C216.06288886 122.5624257 206.14017972 130.19668977 197.96875 137.265625 C189.44724183 144.77266791 179.70800304 153.94852352 178.6640625 165.8203125 C178.3847465 178.90414168 181.46400714 187.66755055 188.13110352 198.93017578 C190.79549884 203.47306112 192.76930205 207.8839581 194 213 C194.18046875 213.74894531 194.3609375 214.49789062 194.546875 215.26953125 C196.48369791 226.94055897 195.54572457 237.91755745 189.08203125 247.98828125 C182.74585241 256.81407372 175.38181758 264.38831362 166.875 271.125 C153.35098791 281.99044561 138.2009014 295.1359217 135 313 C134.98383597 314.66658828 134.98187387 316.3334319 135 318 C135.63800537 317.98428955 136.27601074 317.9685791 136.93334961 317.95239258 C150.32512987 317.66740991 162.91654557 318.01355931 176 321 C176 321.33 176 321.66 176 322 C174.31229485 321.85656032 172.62484514 321.71011431 170.9375 321.5625 C169.99777344 321.48128906 169.05804687 321.40007812 168.08984375 321.31640625 C166.0201927 321.1044698 163.95671296 320.8208497 161.90625 320.46875 C156.45035379 319.81404246 151.05111012 319.895483 145.5625 319.9375 C139.8390625 319.9684375 139.8390625 319.9684375 134 320 C134.33 328.91 134.66 337.82 135 347 C135.66 347.33 136.32 347.66 137 348 C136.01 348.33 135.02 348.66 134 349 C134 355.93 134 362.86 134 370 C135.65 369.67 137.3 369.34 139 369 C135.73300866 372.26699134 132.73742454 372.11583194 128.29598999 372.12442017 C127.52131378 372.12082489 126.74663757 372.11722961 125.94848633 372.11352539 C125.12874832 372.11367142 124.30901031 372.11381744 123.46443176 372.1139679 C120.75360472 372.11327096 118.0428463 372.10548878 115.33203125 372.09765625 C113.45301857 372.09579129 111.5740054 372.09436776 109.69499207 372.09336853 C104.74824685 372.08954948 99.80153098 372.07972438 94.85479736 372.06866455 C89.80749915 372.0584373 84.76019621 372.05386809 79.71289062 372.04882812 C69.80858086 372.03810159 59.90429287 372.02103248 50 372 C49.99120064 370.9688205 49.99120064 370.9688205 49.98222351 369.91680908 C49.92392681 363.38636583 49.85164474 356.8562372 49.76428509 350.32611465 C49.71986564 346.97016227 49.68209684 343.61444786 49.65356445 340.25830078 C49.6197436 336.38545313 49.56741325 332.51321265 49.51171875 328.640625 C49.50532883 327.455755 49.4989389 326.27088501 49.49235535 325.05010986 C49.14102517 304.81113201 41.10429054 293.48020122 27.03515625 279.796875 C23.12932981 276.07348833 19.08942868 272.51944071 15 269 C3.59634912 259.10787869 -6.11341948 249.65974157 -11 235 C-12.03829604 218.55747583 -8.93889499 206.55285462 -0.52978516 192.35351562 C4.91862292 183.08894914 6.42623047 173.64918754 5 163 C1.01108841 148.93739644 -12.2163036 138.39691161 -22.74780273 129.02001953 C-28.087166 124.19359874 -34.24808955 118.2022985 -36 111 C-35.84471575 107.81667278 -35.36491551 106.42188196 -33.2734375 104.00390625 C-16.36453119 89.09966409 18.96509433 89.50422936 40 88 C34.27825299 73.9301303 29.97053765 63.49028946 16.5625 55.5 C2.22358137 46.90939453 -6.50507113 34.68897866 -11.9296875 18.9375 C-13.06560288 15.81995121 -14.46842583 12.94062241 -16 10 C-14.09306022 8.32093352 -12.17585058 6.65712724 -10.25 5 C-9.71117187 4.52304688 -9.17234375 4.04609375 -8.6171875 3.5546875 C-5.39297999 0.80231523 -4.3926567 0 0 0 Z " fill="#DD6544" transform="translate(414,172)"/>
<path d="M0 0 C9.68370081 7.46720929 14.918087 19.45438313 16.4765625 31.35546875 C16.93892949 43.37701052 12.75252239 54.37107055 4.84765625 63.31640625 C-1.13860358 69.48760744 -1.13860358 69.48760744 -4.8671875 70.73046875 C-5.07472656 70.06402344 -5.28226563 69.39757812 -5.49609375 68.7109375 C-9.62726192 56.35200343 -15.53042168 46.6311468 -27.30078125 40.453125 C-37.55588861 35.72129385 -50.05138186 34.65815079 -60.8671875 38.35546875 C-72.06362048 43.23379356 -80.62761181 50.50169564 -85.3046875 62.04296875 C-88.29971473 71.42562042 -88.28561402 81.06334648 -86.8671875 90.73046875 C-87.68960937 90.85164063 -88.51203125 90.9728125 -89.359375 91.09765625 C-92.86504527 91.6239116 -96.36659486 92.17145341 -99.8671875 92.73046875 C-100.85203125 92.88644531 -101.836875 93.04242188 -102.8515625 93.203125 C-103.72296875 93.35652344 -104.594375 93.50992188 -105.4921875 93.66796875 C-106.26820313 93.80074219 -107.04421875 93.93351562 -107.84375 94.0703125 C-110.1958378 94.8376925 -111.27510111 95.8696544 -112.8671875 97.73046875 C-112.8671875 97.07046875 -112.8671875 96.41046875 -112.8671875 95.73046875 C-132.23155963 99.11080419 -151.52525779 102.76867995 -170.8046875 106.60546875 C-187.16588104 109.85660174 -203.53276428 113.06207258 -219.92578125 116.1484375 C-232.4587277 118.5082584 -244.98385631 120.90412084 -257.5 123.3515625 C-258.67092792 123.58051775 -258.67092792 123.58051775 -259.86551094 123.81409836 C-263.89888846 124.60305069 -267.93209425 125.392877 -271.96520996 126.1831665 C-280.81469188 127.91713501 -289.66504771 129.64663223 -298.515625 131.375 C-299.88244164 131.6419379 -299.88244164 131.6419379 -301.27687073 131.91426849 C-315.3788497 134.66756158 -329.48481339 137.39978206 -343.59375 140.1171875 C-344.52324085 140.29622305 -345.4527317 140.4752586 -346.41038895 140.65971947 C-355.3938773 142.38981118 -364.37777669 144.11775308 -373.36227226 145.84260654 C-395.99923866 150.18920729 -418.61875667 154.61089595 -441.20298767 159.22499084 C-455.62838682 162.0922702 -467.95434704 160.66620064 -480.5859375 152.484375 C-489.05292884 145.97465049 -495.39090134 136.59442928 -497.58203125 126.04296875 C-499.17564119 113.11944703 -497.34603481 101.51135525 -489.62109375 90.82421875 C-480.49098724 79.92502702 -469.79962692 75.45416358 -456.09838867 72.7824707 C-454.87881312 72.53318219 -453.65923758 72.28389368 -452.40270519 72.02705097 C-448.56040304 71.24632681 -444.7143907 70.48663477 -440.8671875 69.73046875 C-438.47784569 69.25347225 -436.08857228 68.77613297 -433.69937134 68.2984314 C-426.86584608 66.94022606 -420.02679035 65.61147088 -413.18627024 64.28900409 C-409.67810117 63.61012948 -406.17056085 62.92801932 -402.66293335 62.24635315 C-395.8599571 60.92477309 -389.05643572 59.60602157 -382.25271392 58.28828579 C-374.27852943 56.74372323 -366.30494444 55.19607611 -358.3313781 53.64832616 C-343.49541273 50.76861522 -328.65888294 47.89182245 -313.82205212 45.01657414 C-302.16336022 42.75721135 -290.50488403 40.49674052 -278.84667969 38.23486328 C-278.12397695 38.0946491 -277.40127422 37.95443491 -276.6566714 37.80997181 C-273.77136538 37.2501827 -270.88605969 36.69039189 -268.00075477 36.13059711 C-226.39590965 28.0587097 -184.79100984 19.98695928 -143.17578125 11.96875 C-142.2324292 11.78696323 -141.28907715 11.60517647 -140.31713867 11.41788101 C-131.53908759 9.72641615 -122.76084026 8.03599288 -113.98154068 6.35101891 C-98.95210612 3.46618382 -83.9286737 0.55920842 -68.92578125 -2.4609375 C-66.5037546 -2.94610041 -64.08171725 -3.43120985 -61.65966797 -3.91625977 C-57.3759196 -4.77467538 -53.09553123 -5.64750859 -48.81689453 -6.53100586 C-30.64352644 -10.22281154 -15.90385442 -10.81329014 0 0 Z " fill="#6EB1F3" transform="translate(551.8671875,51.26953125)"/>
<path d="M0 0 C1 2 1 2 0.9375 5.5 C0.59587188 9.05878466 0.59587188 9.05878466 3 11 C6.01826653 11.27240673 8.96370622 11.08675125 12 11 C12.33 7.7 12.66 4.4 13 1 C15.71663793 3.71663793 15.30753121 5.30194653 15.4140625 9.1015625 C15.45273438 10.31328125 15.49140625 11.525 15.53125 12.7734375 C15.5621875 14.04445313 15.593125 15.31546875 15.625 16.625 C15.66367188 17.90375 15.70234375 19.1825 15.7421875 20.5 C15.83671049 23.66652017 15.92226357 26.8330304 16 30 C16.74588379 29.39124023 17.49176758 28.78248047 18.26025391 28.15527344 C33.70279835 15.72350412 54.01191516 7.44917045 74 7 C75.06089844 6.96132812 76.12179688 6.92265625 77.21484375 6.8828125 C97.47645171 6.47981919 119.10237726 10.64821531 134.4375 24.8125 C140.86633575 31.68331821 144.42759423 40.05326154 144.2734375 49.44140625 C143.2209248 59.28991796 138.15738011 67.43337434 130.8515625 73.90234375 C112.15105875 88.09857334 86.91847879 90.2680639 64.3125 87.49609375 C60.15377593 86.87972568 56.07804272 86.01675863 52 85 C50.99380615 84.75056641 50.99380615 84.75056641 49.96728516 84.49609375 C35.24261386 80.69254317 22.42331536 74.10627429 11 64 C10.80083984 65.19496094 10.80083984 65.19496094 10.59765625 66.4140625 C9 76 9 76 8.4453125 79.015625 C6.62581866 91.2094258 8.21113213 103.68085775 13 115 C13.40347656 114.59910156 13.80695313 114.19820313 14.22265625 113.78515625 C34.57981653 94.72463038 61.14643385 89.13408848 88.22167969 89.86376953 C105.51234525 90.71158951 124.31562367 96.14561028 136.46484375 109.0703125 C143.43135468 117.82719901 144.87803932 125.97997024 144 137 C141.67323498 147.46303249 134.71117803 154.48572606 126 160.25 C104.14016581 172.92163599 76.78971742 173.68540921 52.75732422 167.52880859 C37.86975928 163.4003815 23.97222994 155.97222994 13 145 C6.39485922 156.70911319 6.21805466 172.01300023 9.4375 184.875 C9.94262802 186.58804285 10.46125491 188.29723053 11 190 C11.34281457 191.33092714 11.67984738 192.66344054 12 194 C12.79921875 193.49210938 13.5984375 192.98421875 14.421875 192.4609375 C42.64865415 174.76950549 73.9369987 167.12116137 106.95263672 174.49951172 C120.56076161 177.82608649 133.06105734 184.00591397 141 196 C144.60762592 204.62429092 144.92456659 212.66544668 142.03125 221.51953125 C137.34192324 232.79878311 127.08544416 240.07957201 116.2265625 244.74609375 C110.47002212 246.98319964 105.21283186 249 99 249 C98.67 249.66 98.34 250.32 98 251 C97.67 250.67 97.34 250.34 97 250 C95.989375 250.144375 94.97875 250.28875 93.9375 250.4375 C68.80292127 253.77986419 43.53680301 247.74772884 23.0390625 232.84765625 C18.10684599 229.02760621 18.10684599 229.02760621 16 227 C16 226.34 16 225.68 16 225 C15.34 225 14.68 225 14 225 C14 224.34 14 223.68 14 223 C13.01 223 12.02 223 11 223 C7.72793416 229.89893399 7.69607402 238.64581862 9.875 245.921875 C16.47847611 259.91081782 28.94135656 267.61734559 43 273 C60.69833563 279.33970231 79.17923654 281.30408891 97.90698242 281.53417969 C102.72672995 281.64457285 106.10992907 281.81295394 110 285 C111.12256131 287.24512262 111.13413762 288.51456649 111.125 291 C111.12886719 292.051875 111.12886719 292.051875 111.1328125 293.125 C111 295 111 295 110 297 C109.34 296.67 108.68 296.34 108 296 C108.33 295.34 108.66 294.68 109 294 C109.37615126 289.86935374 109.37615126 289.86935374 107.875 286.125 C105.11909116 284.47145469 103.14924548 284.60634432 100 285 C98 286 98 286 97 288 C96.60984439 291.12124489 96.44122451 293.09975061 98.125 295.8125 C100.66676215 297.42228269 103.0398108 297.67109009 106 298 C106 298.33 106 298.66 106 299 C71.746003 299.44293962 34.81993125 295.41568612 8 272 C7.36191406 271.45730469 6.72382812 270.91460938 6.06640625 270.35546875 C-2.98504726 262.07006253 -8.19273436 250.72855977 -9.3125 238.62109375 C-9.65337559 228.91679189 -7.82414247 220.36703696 -2.6875 212.0625 C-0.70853275 208.47104091 -0.91381849 207.80444922 -2 204 C-2.75981017 202.21526604 -3.55457653 200.44519512 -4.375 198.6875 C-11.85063307 181.00600266 -12.28743993 160.61528208 -5.7578125 142.56640625 C-4.20037123 138.80182188 -2.55707415 135.09890918 -0.71484375 131.46484375 C0.24602415 129.01429045 0.24602415 129.01429045 -0.7578125 126.66796875 C-1.20898438 125.84941406 -1.66015625 125.03085937 -2.125 124.1875 C-4.46832547 119.46243389 -6.00275117 114.90909875 -7.25 109.8125 C-7.41258301 109.15983154 -7.57516602 108.50716309 -7.74267578 107.8347168 C-12.01867214 89.81703755 -9.91564286 72.06404185 -3 55 C-2.20291793 53.78786928 -1.37692519 52.59318287 -0.5 51.4375 C1.31721298 47.27305359 0.74627322 46.10205757 -0.38671875 41.796875 C-2.08858953 34.40094358 -2.42980481 27.43112897 -2.33618164 19.86401367 C-2.3120729 17.77550113 -2.3157167 15.68823046 -2.32226562 13.59960938 C-2.27997857 3.41996785 -2.27997857 3.41996785 0 0 Z " fill="#6BAAE7" transform="translate(68,245)"/>
<path d="M0 0 C0.04413145 2.86345229 0.07623419 5.7262135 0.1015625 8.58984375 C0.11517822 9.3933728 0.12879395 10.19690186 0.14282227 11.02478027 C0.22795499 23.88309663 -5.06275578 33.71422761 -13.5 43.125 C-26.25335952 55.25154034 -45.50107056 58.43679147 -62.125 61.5 C-88.72249015 66.43025718 -106.31534808 78.3480982 -125.83984375 96.6640625 C-151.82501482 120.98611368 -179.54993617 135.38702698 -215.84765625 134.4375 C-234.78483172 133.53775298 -252.3212799 126.31685682 -270 120 C-309.99392554 105.74473941 -349.50505205 102.56945433 -390.35498047 115.98120117 C-395.26845165 117.58369246 -399.84873754 118.51358955 -405 119 C-405.20453151 115.62590441 -405.32801449 112.25341008 -405.4375 108.875 C-405.49615234 107.92367187 -405.55480469 106.97234375 -405.61523438 105.9921875 C-405.78275802 99.09978593 -405.78275802 99.09978593 -403.68530273 96.15283203 C-401.87814221 94.55164124 -400.05074799 93.27260539 -398 92 C-397.37971924 91.58379395 -396.75943848 91.16758789 -396.12036133 90.73876953 C-394.1743279 89.47124588 -392.19680942 88.2894214 -390.1875 87.125 C-389.46046875 86.70081787 -388.7334375 86.27663574 -387.984375 85.83959961 C-355.64965865 67.38186569 -322.0259672 62.25556327 -285.77294922 71.60668945 C-277.45021793 73.93335818 -269.52064526 77.29051073 -261.62744141 80.78515625 C-255.49288772 83.40539852 -251.54980526 84.58450379 -245 83 C-245.33 83.66 -245.66 84.32 -246 85 C-246.66 85 -247.32 85 -248 85 C-248 85.66 -248 86.32 -248 87 C-247.319375 87.17015625 -246.63875 87.3403125 -245.9375 87.515625 C-244.968125 87.75796875 -243.99875 88.0003125 -243 88.25 C-241.90558594 88.51941406 -240.81117188 88.78882813 -239.68359375 89.06640625 C-237.14128827 89.71074454 -234.6209598 90.37987193 -232.09765625 91.08984375 C-212.01212297 96.63979374 -194.87335576 93.14257515 -176.92724609 83.10742188 C-167.26087282 77.55299203 -158.4701989 71.27180538 -150 64 C-148.86544905 63.04974668 -147.72998635 62.10058117 -146.59375 61.15234375 C-139.94502487 55.56977782 -133.7221078 49.79199727 -127.64453125 43.58984375 C-124.18754853 40.2043496 -120.51295831 37.17965984 -116.7265625 34.171875 C-114.94683126 32.75420943 -113.19001353 31.30715003 -111.4609375 29.828125 C-77.36749992 0.7817522 -42.88887454 -0.58497101 0 0 Z " fill="#6EB0F1" transform="translate(953,423)"/>
<path d="M0 0 C16.5 0 33 0 50 0 C50 47.19 50 94.38 50 143 C-6.76 143 -63.52 143 -122 143 C-115.51680116 135.43626802 -109.06682262 130.05621012 -100 126 C-100.66 125.34 -101.32 124.68 -102 124 C-101.2265625 123.70867187 -100.453125 123.41734375 -99.65625 123.1171875 C-88.49778035 118.72561157 -80.80514411 113.78098192 -75 103 C-73.08807503 97.95055713 -71.71282169 92.78445972 -70.375 87.55859375 C-68.40486 80.67541712 -64.47358812 75.51630414 -60 70 C-59.49984375 69.360625 -58.9996875 68.72125 -58.484375 68.0625 C-53.20345885 62.05893216 -45.76575432 58.77463836 -38.84423828 55.01074219 C-25.00111208 47.42396135 -16.87170174 36.82716857 -11.546875 22.03125 C-11.29832764 21.34240723 -11.04978027 20.65356445 -10.79370117 19.94384766 C-10.32627056 18.62130775 -9.87430176 17.29313464 -9.44262695 15.95849609 C-7.20432865 9.47715552 -4.30351271 6.1478753 0 0 Z " fill="#DA9C3D" transform="translate(320,401)"/>
<path d="M0 0 C16.4501397 15.01860082 28.39131993 36.52645539 29.71704102 59.02490234 C30.81504165 87.80603995 24.25102355 110.33748914 5.0703125 132.16796875 C-8.10575913 146.12484462 -25.39285033 156.09967018 -44.44140625 159.3359375 C-46.09140625 159.3359375 -47.74140625 159.3359375 -49.44140625 159.3359375 C-49.44140625 194.9759375 -49.44140625 230.6159375 -49.44140625 267.3359375 C-50.91465051 264.38944898 -52.03607601 261.71924102 -53.12890625 258.6484375 C-56.97991904 249.05617122 -63.36864384 242.26151597 -72.44140625 237.3359375 C-76.38342357 235.76285385 -80.35198919 234.46720236 -84.44140625 233.3359375 C-84.44140625 233.0059375 -84.44140625 232.6759375 -84.44140625 232.3359375 C-76.69140625 233.2109375 -76.69140625 233.2109375 -74.44140625 234.3359375 C-74.44140625 209.5859375 -74.44140625 184.8359375 -74.44140625 159.3359375 C-77.74140625 159.0059375 -81.04140625 158.6759375 -84.44140625 158.3359375 C-107.42401814 152.51491269 -127.98405781 137.67048292 -140.48974609 117.47998047 C-153.17148292 96.1791309 -157.67009216 70.14479346 -151.75390625 45.8359375 C-150.02504701 39.33539561 -147.56255011 33.28447051 -144.44140625 27.3359375 C-143.81492187 26.02109375 -143.81492187 26.02109375 -143.17578125 24.6796875 C-132.3475183 3.02316159 -112.02788644 -12.07012159 -89.44140625 -19.6640625 C-57.44564673 -29.22903164 -25.22880496 -21.45730001 0 0 Z M-110.44140625 21.3359375 C-111.13878906 21.99980469 -111.83617187 22.66367188 -112.5546875 23.34765625 C-125.28182452 36.32192214 -130.00997791 53.93588595 -129.9296875 71.67504883 C-129.33554172 90.4100921 -121.00751109 106.47571129 -107.44140625 119.3359375 C-92.68608496 131.92864681 -74.84443606 137.84266261 -55.47802734 136.53857422 C-36.60186754 134.66046194 -20.30939359 125.31200316 -8.3203125 110.76171875 C-6.55725512 108.34651971 -4.96861206 105.90591287 -3.44140625 103.3359375 C-2.9825 102.57023437 -2.52359375 101.80453125 -2.05078125 101.015625 C6.52964368 85.35376505 8.01407857 67.0328768 3.71484375 49.8359375 C-0.46912998 37.17093593 -6.88679664 27.54205071 -16.44140625 18.3359375 C-17.00085938 17.74554688 -17.5603125 17.15515625 -18.13671875 16.546875 C-30.48027343 4.46182408 -48.68963642 0.81722364 -65.22485352 0.91577148 C-83.04877741 1.39182645 -97.93786466 8.70327155 -110.44140625 21.3359375 Z " fill="#DC9D3D" transform="translate(887.44140625,72.6640625)"/>
<path d="M0 0 C4.12692101 4.67576984 6.38372919 10.77848009 8.5 16.5625 C12.60731599 27.70343059 18.34748311 34.13641014 28.3125 40.3125 C38.11261602 46.5187981 44.21706051 53.19676476 50.15234375 63.0234375 C51.83573557 65.98763735 51.83573557 65.98763735 54 68 C53.01 68 52.02 68 51 68 C51 68.66 51 69.32 51 70 C51.99 70 52.98 70 54 70 C54.25394531 70.74765625 54.50789063 71.4953125 54.76953125 72.265625 C55.11371094 73.25046875 55.45789063 74.2353125 55.8125 75.25 C56.14894531 76.22453125 56.48539062 77.1990625 56.83203125 78.203125 C57.94378127 80.86537588 59.25110146 82.73495089 61 85 C61 85.66 61 86.32 61 87 C62.20487061 86.89389404 62.20487061 86.89389404 63.43408203 86.78564453 C73.2654932 85.99361948 83.01746016 85.84392974 92.875 85.875 C94.09476532 85.87632935 94.09476532 85.87632935 95.33917236 85.87768555 C111.90525955 85.89869056 128.44758112 86.34912053 145 87 C142.525 84.03 142.525 84.03 140 81 C140.25394531 80.49984375 140.50789062 79.9996875 140.76953125 79.484375 C141.76983629 77.46471149 142.73923512 75.42976264 143.69921875 73.390625 C150.27709551 59.57741669 156.66820194 51.24722215 171.1875 45.5 C174.70079053 44.10794149 177.44080336 43.00023935 180 40.1875 C180.99 39.1046875 180.99 39.1046875 182 38 C186.91730642 38 188.43120905 39.77702716 191.75 43 C192.25660156 43.47695312 192.76320313 43.95390625 193.28515625 44.4453125 C194.53180766 45.62139874 195.76704609 46.80956174 197 48 C194.75333427 54.34034993 191.06775809 58.05740643 184.94384766 60.98193359 C181.79618113 62.34888582 178.6471829 63.68545074 175.43554688 64.89575195 C168.65386114 67.60943801 165.78761631 71.22494321 162.70703125 77.73046875 C162.41183594 78.54128906 162.11664062 79.35210937 161.8125 80.1875 C160.6713627 83.27099865 159.48122926 86.03754149 158 89 C165.59 89.99 173.18 90.98 181 92 C181 92.66 181 93.32 181 94 C182.32 94.33 183.64 94.66 185 95 C184.505 95.928125 184.01 96.85625 183.5 97.8125 C181.78710148 100.86527516 181.78710148 100.86527516 182 104 C184.97 104.99 187.94 105.98 191 107 C189.63408831 110.54243452 188.09068516 113.92627929 186.375 117.3125 C185.70597656 118.63701172 185.70597656 118.63701172 185.0234375 119.98828125 C184.68570313 120.65214844 184.34796875 121.31601562 184 122 C184.99 122.33 185.98 122.66 187 123 C181.06 123.495 181.06 123.495 175 124 C175.33 121.69 175.66 119.38 176 117 C174.35 117 172.7 117 171 117 C170.67 118.65 170.34 120.3 170 122 C171.32 122.99 172.64 123.98 174 125 C170.20967983 125.51056617 166.41757378 126.00647633 162.625 126.5 C161.56410156 126.64308594 160.50320313 126.78617187 159.41015625 126.93359375 C152.9678406 127.76358534 146.50169222 128.53103188 140 128 C139.67 127.67 139.34 127.34 139 127 C138.67 127.66 138.34 128.32 138 129 C135.36 129 132.72 129 130 129 C130 128.01 130 127.02 130 126 C129.34 126.99 128.68 127.98 128 129 C126.02848816 129.5058136 126.02848816 129.5058136 123.60620117 129.67700195 C122.70606293 129.74126373 121.80592468 129.80552551 120.87850952 129.87173462 C116.01749821 130.08833959 111.16635216 130.16226674 106.30078125 130.16796875 C104.64929581 130.17425293 104.64929581 130.17425293 102.96444702 130.18066406 C99.41376124 130.19040266 95.86319688 130.19045944 92.3125 130.1875 C91.1005899 130.18722809 89.88867981 130.18695618 88.64004517 130.18667603 C70.00955541 130.16741389 51.55195001 129.80559682 33 128 C31.91170898 127.89816406 30.82341797 127.79632813 29.70214844 127.69140625 C-20.39537083 122.84759955 -20.39537083 122.84759955 -33.98828125 111.7578125 C-35 110 -35 110 -34.97265625 106.99609375 C-34 104 -34 104 -31.9453125 102.27734375 C-9.53791703 91.63227914 15.60160052 89.74475652 40 88 C34.27825299 73.9301303 29.97053765 63.49028946 16.5625 55.5 C2.22358137 46.90939453 -6.50507113 34.68897866 -11.9296875 18.9375 C-13.06560288 15.81995121 -14.46842583 12.94062241 -16 10 C-14.09306022 8.32093352 -12.17585058 6.65712724 -10.25 5 C-9.71117187 4.52304688 -9.17234375 4.04609375 -8.6171875 3.5546875 C-5.39297999 0.80231523 -4.3926567 0 0 0 Z " fill="#E0A03D" transform="translate(414,172)"/>
<path d="M0 0 C0.33 0 0.66 0 1 0 C1 22.44 1 44.88 1 68 C39.28 68 77.56 68 117 68 C117 71.63 117 75.26 117 79 C116.67 79 116.34 79 116 79 C116 75.7 116 72.4 116 69 C74.92509447 68.11258612 74.92509447 68.11258612 36 79 C34.56527344 79.69609375 34.56527344 79.69609375 33.1015625 80.40625 C21.87255876 86.19771325 11.66949937 93.92312405 2 102 C1.46761719 102.44214844 0.93523437 102.88429688 0.38671875 103.33984375 C-6.88722024 109.39872295 -13.7323342 115.65138051 -20.359375 122.4140625 C-23.79412367 125.77767732 -27.44642404 128.77661864 -31.2109375 131.76171875 C-33.0835321 133.26451526 -34.92247843 134.81014224 -36.7265625 136.39453125 C-53.79752728 151.325747 -76.69855831 165.24131097 -100.16015625 164.53125 C-110.89994339 163.04537914 -121.97837895 160.15700068 -132 156 C-132 155.34 -132 154.68 -132 154 C-129.56927586 152.37750672 -127.13599924 150.86365186 -124.625 149.375 C-115.96056713 144.09239223 -107.91161731 138.7046545 -101.5 130.7265625 C-99.18474011 128.06160189 -96.51248554 125.85284488 -93.82421875 123.57421875 C-91.86188953 121.92678283 -91.86188953 121.92678283 -89.6875 119.625 C-88 118 -88 118 -85 117 C-83.21744992 115.24118094 -83.21744992 115.24118094 -81.5 113.125 C-75.80746562 106.35887361 -75.80746562 106.35887361 -72.1875 104.75 C-68.64610131 102.80570268 -66.87513148 100.73392845 -64.37109375 97.64453125 C-62.15943901 94.99180576 -60.02309018 93.37350911 -56.78515625 92.19140625 C-53.41711853 90.7506608 -50.52026073 88.79244496 -47.5 86.75 C-31.22385191 76 -31.22385191 76 -25 76 C-24.67 61.81 -24.34 47.62 -24 33 C-25.65 33.66 -27.3 34.32 -29 35 C-31.3125 34.625 -31.3125 34.625 -33 34 C-32.16597656 33.72027344 -31.33195313 33.44054687 -30.47265625 33.15234375 C-18.52783833 28.89708788 -10.15294827 23.33353944 -4 12 C-2.42691635 8.05798268 -1.13126486 4.08941706 0 0 Z " fill="#D5CCC0" transform="translate(837,354)"/>
<path d="M0 0 C15.84 0 31.68 0 48 0 C48 46.53 48 93.06 48 141 C32.16 141 16.32 141 0 141 C0 94.47 0 47.94 0 0 Z " fill="#D6CDC1" transform="translate(321,402)"/>
<path d="M0 0 C9.2569678 6.82600756 15.91542902 16.3921217 17.765625 27.8828125 C18.9704243 41.85848444 15.84185888 52.91116823 7.05859375 63.84375 C0.14171392 71.37579702 -9.3579875 76.17904155 -19.5234375 76.9375 C-33.43138627 77.41446656 -44.25991144 74.22246383 -54.828125 64.80859375 C-64.22918984 54.87731701 -66.25008908 43.3580886 -66.02734375 30.21875 C-65.53553968 18.35702011 -59.3735052 9.91975086 -51.06640625 1.90625 C-36.44376397 -10.37448472 -15.57808356 -10.16937295 0 0 Z " fill="#F2F2F2" transform="translate(129.75390625,132.34375)"/>
<path d="M0 0 C8.26767603 5.86738299 15.23835447 15.34531089 17.3125 25.375 C18.15882272 39.24914292 17.57558391 51.35831889 8.15625 62.4140625 C-1.27777268 72.44770527 -11.5153402 76.4502582 -25.125 77.6875 C-37.65461564 76.58841091 -48.46843531 71.72614868 -57.125 62.4453125 C-64.87478014 52.17685381 -67.53341793 41.23213011 -66.21484375 28.609375 C-64.34753826 17.15656797 -58.83943115 8.23888828 -49.75 1 C-34.44868448 -9.65357866 -15.76956914 -9.42425864 0 0 Z " fill="#F2F2F2" transform="translate(529.6875,93.625)"/>
<path d="M0 0 C8.47660944 7.1573518 13.7967262 16.78787632 15.18359375 27.84375 C16.23549203 40.51129102 12.60192631 51.81762467 4.49609375 61.59375 C-3.90272987 70.47923443 -13.78412298 73.95127408 -25.75390625 75.28125 C-28.81640625 74.84375 -28.81640625 74.84375 -30.76171875 73.08203125 C-36.12935833 69.14896542 -42.7085722 67.57162636 -49.00195312 65.55078125 C-57.53145691 62.58261956 -60.95816478 59.00424623 -65.2421875 51.26953125 C-65.53480469 50.57214844 -65.82742188 49.87476563 -66.12890625 49.15625 C-66.58716797 48.09857422 -66.58716797 48.09857422 -67.0546875 47.01953125 C-70.44561557 37.33364954 -70.06380823 25.72439926 -66.0703125 16.33203125 C-59.91853616 4.12430063 -51.10611738 -3.95290133 -38.19140625 -8.40625 C-24.23882171 -11.41563098 -11.31297363 -8.54355768 0 0 Z " fill="#F2F2F2" transform="translate(822.81640625,314.15625)"/>
<path d="M0 0 C6.35952454 5.17635719 10.99039376 10.85710178 12.07421875 19.14453125 C12.96548844 36.47477513 4.03136116 52.17170826 -5.3125 66.1875 C-1.8475 65.6925 -1.8475 65.6925 1.6875 65.1875 C-1.70013811 67.12447684 -4.93848989 67.84462985 -8.75830078 68.57617188 C-9.71531639 68.7619857 -9.71531639 68.7619857 -10.69166565 68.95155334 C-12.79601482 69.35870558 -14.90185872 69.75748821 -17.0078125 70.15625 C-18.48039707 70.43953765 -19.95287894 70.72335961 -21.42526245 71.00769043 C-25.30350104 71.75517761 -29.18304937 72.49563356 -33.06292725 73.23455811 C-36.98022566 73.98176981 -40.89633237 74.73516949 -44.8125 75.48828125 C-49.23025139 76.33762301 -53.64810352 77.1863924 -58.06692505 78.03015137 C-58.74052504 78.15888893 -59.41412502 78.2876265 -60.10813713 78.4202652 C-62.02691289 78.78671623 -63.94585721 79.15228435 -65.86480713 79.51782227 C-69.64675455 80.2524254 -73.41677136 81.0356166 -77.18136597 81.85437012 C-79.58510622 82.23011265 -81.88341209 82.24298551 -84.3125 82.1875 C-81.91776698 80.59101132 -79.60087798 79.26881712 -77.0625 77.9375 C-66.42410757 71.98896614 -60.47216907 63.97600675 -56.85546875 52.29296875 C-54.06875777 41.48694559 -55.40654962 31.68292481 -60.3515625 21.7109375 C-61.42222633 18.89935687 -61.50997545 17.90747996 -60.3125 15.1875 C-46.40030145 -3.87221201 -20.57182964 -11.25628414 0 0 Z " fill="#010202" transform="translate(202.3125,125.8125)"/>
<path d="M0 0 C9.40762896 -0.71000973 17.7789981 2.27851591 25.08984375 8.23828125 C34.64150049 17.04768245 40.05242991 25.7777287 41.2578125 38.78125 C41.71708385 50.41612421 38.46726088 60.40848757 31.26171875 69.55859375 C23.19998495 78.26081072 13.16941732 83.00481693 1.36694336 83.47045898 C-10.50449406 83.61862236 -20.80154292 80.9492839 -30 73 C-30 72.34 -30 71.68 -30 71 C-30.66 71 -31.32 71 -32 71 C-37.27864638 65.02177398 -40.27331481 58.72897181 -42 51 C-40.92363281 50.72027344 -39.84726563 50.44054687 -38.73828125 50.15234375 C-24.69592185 46.35959887 -10.42529337 41.53168387 -2.44140625 28.4453125 C2.64479206 18.73398768 2.66731205 10.50254119 0 0 Z " fill="#F2F2F2" transform="translate(209,443)"/>
<path d="M0 0 C1.1451709 0.00161133 2.2903418 0.00322266 3.47021484 0.00488281 C17.84412158 0.21158498 32.03029338 2.8301766 42.9609375 12.8125 C46.22983088 16.27164644 47.59014785 19.69274271 47.875 24.375 C47.61458398 30.08245107 44.4130039 33.61751704 40.4375 37.4375 C29.19026018 46.61351364 14.64865189 47.75322354 0.75 47.6875 C-1.11338013 47.67904053 -1.11338013 47.67904053 -3.0144043 47.67041016 C-21.56072575 47.4250531 -40.49619554 43.35928104 -54.5625 30.375 C-54.5625 29.715 -54.5625 29.055 -54.5625 28.375 C-55.2225 28.375 -55.8825 28.375 -56.5625 28.375 C-57.2225 27.055 -57.8825 25.735 -58.5625 24.375 C-42.1043541 8.32552138 -22.92744342 -0.03354417 0 0 Z " fill="#D6CDC1" transform="translate(147.5625,268.625)"/>
<path d="M0 0 C7.59073955 6.76565916 7.59073955 6.76565916 8.43359375 11.3671875 C8.44408279 18.10115144 7.20771864 21.43484986 2.6328125 26.51953125 C-7.67346957 36.6463507 -24.00788708 38.3884476 -37.75 38.3125 C-39.33325073 38.30512817 -39.33325073 38.30512817 -40.94848633 38.29760742 C-49.004594 38.17701627 -56.27284778 37.42267225 -64 35 C-65.09183594 34.6596875 -66.18367188 34.319375 -67.30859375 33.96875 C-78.7553263 29.9778986 -88.22108664 23.26250669 -97 15 C-94.64319678 7.92959034 -85.02854932 2.99632299 -78.76953125 -0.62109375 C-56.14825931 -11.88387089 -21.54009457 -15.45267654 0 0 Z " fill="#D6CDC1" transform="translate(187,361)"/>
<path d="M0 0 C0 0.66 0 1.32 0 2 C0.66 2 1.32 2 2 2 C5.12224547 5.72267729 5.52997984 9.11009069 5.34375 13.796875 C4.48402855 19.30690796 0.33674985 23.14464916 -3.80859375 26.546875 C-9.91383883 30.5952728 -16.77746637 33.00193815 -24 34 C-23.67 32.02 -23.34 30.04 -23 28 C-23.99 30.97 -23.99 30.97 -25 34 C-44.78240313 38.02794415 -67.12111799 34.92973536 -84.05737305 23.84008789 C-89.99344213 19.79794421 -95.19384419 15.3288797 -100 10 C-91.86952087 0.78545698 -80.39672133 -3.29983979 -69 -7 C-67.94683594 -7.34417969 -66.89367187 -7.68835938 -65.80859375 -8.04296875 C-44.7884197 -13.64659462 -18.29857773 -12.19905182 0 0 Z " fill="#D5CCC0" transform="translate(190,444)"/>
<path d="M0 0 C4.12692101 4.67576984 6.38372919 10.77848009 8.5 16.5625 C12.60731599 27.70343059 18.34748311 34.13641014 28.3125 40.3125 C38.11261602 46.5187981 44.21706051 53.19676476 50.15234375 63.0234375 C51.83573557 65.98763735 51.83573557 65.98763735 54 68 C53.01 68 52.02 68 51 68 C51 68.66 51 69.32 51 70 C51.99 70 52.98 70 54 70 C54.25394531 70.74765625 54.50789063 71.4953125 54.76953125 72.265625 C55.11371094 73.25046875 55.45789063 74.2353125 55.8125 75.25 C56.14894531 76.22453125 56.48539062 77.1990625 56.83203125 78.203125 C57.94378127 80.86537588 59.25110146 82.73495089 61 85 C61 85.66 61 86.32 61 87 C62.18855591 86.89389404 62.18855591 86.89389404 63.40112305 86.78564453 C72.73568043 86.02801481 81.99702496 85.84537129 91.35766602 85.86962891 C93.79905469 85.87497058 96.24025761 85.86965754 98.68164062 85.86328125 C109.1548482 85.85933044 119.55319621 86.26439219 130 87 C130 87.33 130 87.66 130 88 C128.845 88.0825 127.69 88.165 126.5 88.25 C123.39264832 88.63435883 121.11073295 89.30251753 118.375 90.8125 C104.51933212 98.17163878 89.35990078 99.06354673 74.453125 94.75390625 C73.64359375 94.50511719 72.8340625 94.25632812 72 94 C70.66879536 93.65826458 69.33621989 93.32156694 68 93 C67.67 93.66 67.34 94.32 67 95 C64 91.25 64 91.25 64 89 C61.03 90.98 58.06 92.96 55 95 C55 94.34 55 93.68 55 93 C52.69 94.65 50.38 96.3 48 98 C43.125 93.375 43.125 93.375 42 90 C40.35 90 38.7 90 37 90 C37.7424949 92.0236029 38.49439355 94.04375627 39.25 96.0625 C39.66765625 97.18785156 40.0853125 98.31320312 40.515625 99.47265625 C42.08853544 103.21038816 43.92599505 106.52116692 46 110 C43.90603799 111.86694188 41.80129803 113.71826176 39.6875 115.5625 C39.09259766 116.09552734 38.49769531 116.62855469 37.88476562 117.17773438 C36.32180963 118.53113202 34.66512254 119.7744864 33 121 C29.58841744 119.86280581 28.88145399 118.95657056 27 116 C27 115.34 27 114.68 27 114 C25.63875 115.2684375 25.63875 115.2684375 24.25 116.5625 C21.31986634 119.00888518 21.31986634 119.00888518 18.75 118.9375 C17 118 17 118 15 116 C15.51691406 115.5875 16.03382813 115.175 16.56640625 114.75 C20.57776666 111.43927929 20.57776666 111.43927929 22.2421875 106.75390625 C21.94679303 104.31099118 21.94679303 104.31099118 21 101 C20.01 101.66 19.02 102.32 18 103 C17.01 102.67 16.02 102.34 15 102 C17.31 100.02 19.62 98.04 22 96 C21.01 95.67 20.02 95.34 19 95 C18.01 95.495 18.01 95.495 17 96 C17 94.68 17 93.36 17 92 C15.02 92 13.04 92 11 92 C11 91.67 11 91.34 11 91 C20.66855081 89.60523707 30.24416608 88.57121986 40 88 C34.27825299 73.9301303 29.97053765 63.49028946 16.5625 55.5 C2.22358137 46.90939453 -6.50507113 34.68897866 -11.9296875 18.9375 C-13.06560288 15.81995121 -14.46842583 12.94062241 -16 10 C-14.09306022 8.32093352 -12.17585058 6.65712724 -10.25 5 C-9.44175781 4.28457031 -9.44175781 4.28457031 -8.6171875 3.5546875 C-5.39297999 0.80231523 -4.3926567 0 0 0 Z " fill="#CF6242" transform="translate(414,172)"/>
<path d="M0 0 C3.0659781 2.76036613 5.25922486 6.11084148 7.5625 9.5 C7.96146484 10.08136719 8.36042969 10.66273438 8.77148438 11.26171875 C10.53160097 13.82990223 12.27296172 16.40944258 14 19 C13.319375 20.36125 13.319375 20.36125 12.625 21.75 C9.4921038 28.39682032 9.79218447 36.99542052 11.87890625 43.9140625 C18.44526067 57.91361681 30.95691528 65.62330258 45 71 C62.69833563 77.33970231 81.17923654 79.30408891 99.90698242 79.53417969 C104.72672995 79.64457285 108.10992907 79.81295394 112 83 C113.12256131 85.24512262 113.13413762 86.51456649 113.125 89 C113.12886719 90.051875 113.12886719 90.051875 113.1328125 91.125 C113 93 113 93 112 95 C111.34 94.67 110.68 94.34 110 94 C110.33 93.34 110.66 92.68 111 92 C111.37615126 87.86935374 111.37615126 87.86935374 109.875 84.125 C107.11909116 82.47145469 105.14924548 82.60634432 102 83 C100 84 100 84 99 86 C98.60984439 89.12124489 98.44122451 91.09975061 100.125 93.8125 C102.66676215 95.42228269 105.0398108 95.67109009 108 96 C108 96.33 108 96.66 108 97 C73.746003 97.44293962 36.81993125 93.41568612 10 70 C9.36191406 69.45730469 8.72382812 68.91460938 8.06640625 68.35546875 C-0.98504726 60.07006253 -6.19273436 48.72855977 -7.3125 36.62109375 C-7.65083626 26.9890833 -5.91140586 18.37829317 -0.6875 10.1875 C1.3799095 6.28239316 1.03283421 4.21740637 0 0 Z " fill="#6BA8E4" transform="translate(66,447)"/>
<path d="M0 0 C0 0.66 0 1.32 0 2 C0.80824219 2.12117188 1.61648438 2.24234375 2.44921875 2.3671875 C3.51785156 2.53476562 4.58648438 2.70234375 5.6875 2.875 C6.74324219 3.03742188 7.79898438 3.19984375 8.88671875 3.3671875 C11.80267676 3.95989164 14.25471301 4.88691942 17 6 C17.99 6 18.98 6 20 6 C21.90919741 6.94938232 23.81641473 7.90317927 25.70849609 8.88623047 C30.41654223 11.17454354 35.42947277 12.74270955 40.37304688 14.44335938 C41.18451172 14.73146484 41.99597656 15.01957031 42.83203125 15.31640625 C43.56139893 15.56849854 44.2907666 15.82059082 45.04223633 16.08032227 C47.18589543 17.08732611 48.37506656 18.30426589 50 20 C52.04100238 20.57017808 52.04100238 20.57017808 54.1875 20.6875 C55.445625 20.790625 56.70375 20.89375 58 21 C58 21.33 58 21.66 58 22 C56.02 22.33 54.04 22.66 52 23 C52.16048828 23.87011719 52.16048828 23.87011719 52.32421875 24.7578125 C53.14512841 30.10696576 53.22802353 33.37316627 50 38 C46.48940218 41.82035645 43.48337921 42.55846344 38.52645874 43.02255249 C34.02744056 42.9823919 30.11286149 41.49122694 25.92578125 39.95703125 C24.99831589 39.63216232 24.07085052 39.3072934 23.11528015 38.97257996 C21.16677383 38.28593804 19.22137766 37.59041203 17.27905273 36.88647461 C14.3173586 35.81425895 11.34659961 34.77123796 8.37304688 33.73242188 C6.47335863 33.05898096 4.57424887 32.38390554 2.67578125 31.70703125 C1.79440994 31.39643265 0.91303864 31.08583405 0.00495911 30.76582336 C-7.3563093 28.08091252 -13.32484127 25.35031746 -17 18 C-17.8565765 13.62971172 -17.36877185 10.73754369 -15.375 6.75 C-10.7007721 1.33773612 -7.20425066 -0.57634005 0 0 Z " fill="#CBC3B7" transform="translate(744,368)"/>
<path d="M0 0 C0 0.66 0 1.32 0 2 C0.59167969 2.04898437 1.18335938 2.09796875 1.79296875 2.1484375 C6.19104472 2.56456867 9.96928897 3.04965595 14 5 C14 5.66 14 6.32 14 7 C15.19625 7.061875 16.3925 7.12375 17.625 7.1875 C26.8146904 8.22316352 35.78911637 10.9692348 42 18 C44.47934039 21.54191484 44.36570056 24.75787349 44 29 C43.04605164 31.02237052 42.05464649 33.0282696 41 35 C41.33 35.66 41.66 36.32 42 37 C37.23223913 40.31094505 33.49407947 40.27308835 27.81152344 39.71508789 C19.50078394 38.15589266 11.64521565 34.89766687 3.75 31.9375 C1.9262841 31.26621044 0.10206837 30.59627713 -1.72265625 29.92773438 C-6.15435553 28.30073726 -10.57888469 26.65553 -15 25 C-15 24.34 -15 23.68 -15 23 C-17.31 22.34 -19.62 21.68 -22 21 C-22.33 19.35 -22.66 17.7 -23 16 C-23.66 16 -24.32 16 -25 16 C-25 12.7 -25 9.4 -25 6 C-24.34 6 -23.68 6 -23 6 C-22.979375 5.2575 -22.95875 4.515 -22.9375 3.75 C-21.77799236 0.3487776 -20.12139356 -0.68803398 -16.95703125 -2.2734375 C-10.80016701 -4.55921943 -5.69671423 -2.39861652 0 0 Z " fill="#CCC3B8" transform="translate(739,271)"/>
<path d="M0 0 C3.71045247 1.57780923 6.29906384 3.90703248 9.25 6.625 C10.14203125 7.44226563 11.0340625 8.25953125 11.953125 9.1015625 C12.96632813 10.04128906 12.96632813 10.04128906 14 11 C11.75333427 17.34034993 8.06775809 21.05740643 1.94384766 23.98193359 C-1.20381887 25.34888582 -4.3528171 26.68545074 -7.56445312 27.89575195 C-14.34613886 30.60943801 -17.21238369 34.22494321 -20.29296875 40.73046875 C-20.58816406 41.54128906 -20.88335938 42.35210937 -21.1875 43.1875 C-22.3286373 46.27099865 -23.51877074 49.03754149 -25 52 C-20.05 52.66 -15.1 53.32 -10 54 C-17.5 73.01785714 -17.5 73.01785714 -22 78 C-26.13813705 77.46823005 -28.27082318 75.22067834 -31.25 72.4375 C-32.14203125 71.61121094 -33.0340625 70.78492188 -33.953125 69.93359375 C-34.62859375 69.29550781 -35.3040625 68.65742188 -36 68 C-35.68289063 67.26394531 -35.36578125 66.52789062 -35.0390625 65.76953125 C-34.11219556 63.29904757 -33.63982865 61.29164842 -33.375 58.6875 C-33.25125 57.470625 -33.1275 56.25375 -33 55 C-36.53186832 52.84940691 -39.66287993 52.6202272 -43.75 52.375 C-44.92046875 52.30023438 -46.0909375 52.22546875 -47.296875 52.1484375 C-48.18890625 52.09945312 -49.0809375 52.05046875 -50 52 C-50 51.67 -50 51.34 -50 51 C-44.06 50.505 -44.06 50.505 -38 50 C-39.65 48.02 -41.3 46.04 -43 44 C-42.74605469 43.49984375 -42.49210938 42.9996875 -42.23046875 42.484375 C-41.23016371 40.46471149 -40.26076488 38.42976264 -39.30078125 36.390625 C-32.72290449 22.57741669 -26.33179806 14.24722215 -11.8125 8.5 C-7.0868871 6.61452819 -4.18044505 4.94813868 -1 1 C-0.67 0.67 -0.34 0.34 0 0 Z " fill="#D4983C" transform="translate(597,209)"/>
<path d="M0 0 C0.33 0 0.66 0 1 0 C1 22.44 1 44.88 1 68 C39.28 68 77.56 68 117 68 C117 71.63 117 75.26 117 79 C116.67 79 116.34 79 116 79 C116 75.7 116 72.4 116 69 C110.36621045 69.0952059 104.73276977 69.20161168 99.09936523 69.31738281 C97.19219397 69.35512008 95.28496474 69.39005663 93.37768555 69.421875 C80.48113483 69.63948092 67.8037398 70.42418359 55 72 C55 71.67 55 71.34 55 71 C47.41883413 70.92991291 39.83770264 70.87689506 32.25628471 70.84456348 C28.73437784 70.82903129 25.21269561 70.80802686 21.69091797 70.77368164 C17.62465491 70.73428311 13.55862084 70.72018825 9.4921875 70.70703125 C8.25201874 70.69154739 7.01184998 70.67606354 5.73410034 70.66011047 C-1.75824276 70.65869593 -8.57281613 71.50434331 -15.86105347 73.25639343 C-18.87879461 73.97128682 -21.94093271 74.49015545 -25 75 C-24.67 61.14 -24.34 47.28 -24 33 C-25.65 33.66 -27.3 34.32 -29 35 C-31.3125 34.625 -31.3125 34.625 -33 34 C-32.16597656 33.72027344 -31.33195313 33.44054687 -30.47265625 33.15234375 C-18.52783833 28.89708788 -10.15294827 23.33353944 -4 12 C-2.42691635 8.05798268 -1.13126486 4.08941706 0 0 Z " fill="#DB9D3E" transform="translate(837,354)"/>
<path d="M0 0 C0.495 1.485 0.495 1.485 1 3 C2.32 2.67 3.64 2.34 5 2 C5 5.90838866 3.49432124 7.11594107 1 10 C1.99 9.67 2.98 9.34 4 9 C6.07652686 13.39735099 6.07652686 13.39735099 5.75 15.96875 C4.86799198 18.35752173 3.78746154 19.51812111 1.9375 21.25 C1.38964844 21.77078125 0.84179688 22.2915625 0.27734375 22.828125 C-0.14417969 23.21484375 -0.56570313 23.6015625 -1 24 C-0.34 24.66 0.32 25.32 1 26 C3.02964724 25.71005039 5.05918555 25.4189153 7.0859375 25.109375 C9 25 9 25 11.0625 26.1875 C12 28 12 28 11.8125 30 C11 32 11 32 9 35 C-37.08420773 31.10146222 -37.08420773 31.10146222 -50.98828125 19.7578125 C-52 18 -52 18 -51.97265625 14.99609375 C-51 12 -51 12 -48.9453125 10.27734375 C-34.79118865 3.55315472 -15.68306854 -3.01597472 0 0 Z " fill="#E09F3D" transform="translate(431,264)"/>
<path d="M0 0 C1.0621875 -0.02449219 2.124375 -0.04898437 3.21875 -0.07421875 C10.92117194 -0.10324798 10.92117194 -0.10324798 14.9453125 2.21875 C16.75 4.375 16.75 4.375 17.375 7.25 C16.57544194 11.24779029 14.60032973 13.59269056 11.75 16.375 C1.46757228 23.06117459 -11.83964393 28.06007587 -24.25 26.375 C-29.34910806 25.23451878 -34.2535038 23.93488552 -37.25 19.375 C-37.88248764 15.65913509 -37.68699016 14.0248828 -35.57421875 10.8828125 C-33.05161391 8.16094307 -30.88660154 6.80827108 -27.5625 5.1875 C-26.10263672 4.45466797 -26.10263672 4.45466797 -24.61328125 3.70703125 C-16.49175319 0.4904911 -8.67970529 0.01068929 0 0 Z " fill="#040404" transform="translate(807.25,445.625)"/>
<path d="M0 0 C0 0.33 0 0.66 0 1 C-0.94359375 1.08636719 -1.8871875 1.17273438 -2.859375 1.26171875 C-16.65287515 2.77124838 -27.46930041 6.29916114 -37 17 C-44.97348665 27.83533974 -46.1951389 38.93414403 -45 52 C-44.1659395 56.00443822 -42.8917678 59.38251298 -41 63 C-40.59910156 63.78632813 -40.19820312 64.57265625 -39.78515625 65.3828125 C-34.8135491 73.88498125 -26.24747879 79.85585721 -17 83 C-13.65063214 83.78476766 -10.57330726 84.11982779 -7.13671875 84.09765625 C-6.25048828 84.09443359 -5.36425781 84.09121094 -4.45117188 84.08789062 C-3.53916016 84.07951172 -2.62714844 84.07113281 -1.6875 84.0625 C-0.75615234 84.05798828 0.17519531 84.05347656 1.13476562 84.04882812 C3.42324373 84.03709234 5.71158808 84.02067363 8 84 C1.19918345 88.5338777 -9.93986245 88.97110091 -18 88 C-30.89790837 85.19055461 -41.18738171 79.8054253 -49 69 C-55.66105682 58.06773117 -57.9859134 46.39923787 -55.3125 33.74609375 C-51.48973628 21.27432713 -43.98278376 11.69725142 -32.5625 5.25 C-27.84784489 3.07741598 -22.97226489 1.81256633 -17.9375 0.625 C-17.1937915 0.44485352 -16.45008301 0.26470703 -15.68383789 0.07910156 C-10.16637534 -1.10828503 -5.57692258 -0.85118541 0 0 Z " fill="#689FD5" transform="translate(110,124)"/>
<path d="M0 0 C0.33 0 0.66 0 1 0 C4.37844428 14.94623748 1.56144422 33.13292154 -5.9375 46.4375 C-6.9584375 47.7059375 -6.9584375 47.7059375 -8 49 C-8.721875 49.928125 -9.44375 50.85625 -10.1875 51.8125 C-13.98393151 54.76528006 -17.24051662 55.30287621 -22 55 C-25.8737414 53.39997638 -27.59012734 51.32562427 -30 48 C-29.11248047 47.22076172 -29.11248047 47.22076172 -28.20703125 46.42578125 C-17.05788116 36.58615613 -11.01413516 29.39852829 -7 15 C-5.3364124 9.34548255 -3.61702729 4.70213548 0 0 Z " fill="#080605" transform="translate(256,476)"/>
<path d="M0 0 C5.75371763 0.60565449 13.38380389 2.2974827 17.5390625 6.58984375 C19.41061456 8.39634186 20.62821304 8.47772238 23.1875 8.6875 C25.0746875 8.8421875 25.0746875 8.8421875 27 9 C27 9.33 27 9.66 27 10 C25.02 10.33 23.04 10.66 21 11 C21.10699219 11.58007812 21.21398437 12.16015625 21.32421875 12.7578125 C22.14512841 18.10696576 22.22802353 21.37316627 19 26 C15.53501601 29.77071787 12.37636815 30.73445305 7.42578125 31.1171875 C3.34256294 30.91993058 -0.25615782 29.56657226 -4 28 C-4 27.01 -4 26.02 -4 25 C-4.350625 24.29875 -4.70125 23.5975 -5.0625 22.875 C-6.41673929 18.72199952 -6.14342263 15.19746758 -5 11 C-3.11419223 7.49778557 -1.07633253 5.33485901 2.8125 4.125 C3.8953125 4.063125 3.8953125 4.063125 5 4 C5 3.34 5 2.68 5 2 C3.35 1.67 1.7 1.34 0 1 C0 0.67 0 0.34 0 0 Z " fill="#CF953E" transform="translate(775,380)"/>
<path d="M0 0 C3.16851437 2.56177757 5.73223597 5.08145662 7 9 C7.49428154 14.33824063 6.49647084 17.33268495 4 22 C4.33 22.66 4.66 23.32 5 24 C-0.76775846 28.00538782 -6.29115951 27.18236745 -13 26 C-15.81006149 25.17932455 -18.31485783 24.18765904 -21 23 C-20.01 22.34 -19.02 21.68 -18 21 C-18.515625 20.175 -19.03125 19.35 -19.5625 18.5 C-21.27531453 14.32966898 -21.4692336 11.2128853 -20 7 C-17.77730751 3.41704776 -15.17252412 0.79224603 -11.6875 -1.5625 C-7.51088613 -2.24241389 -3.93057995 -1.51944379 0 0 Z " fill="#D26343" transform="translate(776,284)"/>
<path d="M0 0 C6.99689594 1.20581427 12.98164403 2.68954506 17.9375 8.125 C19.53802004 12.45581893 19.65002973 16.44248821 19 21 C17.18766463 24.83378636 15.69973473 26.53351018 12.1875 28.875 C5.18924315 31.34497301 -0.35427048 29.53170648 -7 27 C-6.34 26.67 -5.68 26.34 -5 26 C-5.495 25.38125 -5.99 24.7625 -6.5 24.125 C-8.62750674 19.69269429 -8.93855624 15.82793331 -8 11 C-6.00982758 7.42541848 -3.78491147 4.55382891 0.203125 3.31640625 C0.79609375 3.21199219 1.3890625 3.10757812 2 3 C2 2.34 2 1.68 2 1 C1.34 0.67 0.68 0.34 0 0 Z " fill="#CF6243" transform="translate(912,355)"/>
<path d="M0 0 C3.56568061 1.54335429 6.31019147 3.24343581 8.9375 6.125 C10.53802004 10.45581893 10.65002973 14.44248821 10 19 C8.18766463 22.83378636 6.69973473 24.53351018 3.1875 26.875 C-4.61617313 29.62923758 -10.68638041 26.96247882 -18 24 C-17.01 23.34 -16.02 22.68 -15 22 C-15.66 21.01 -16.32 20.02 -17 19 C-17.76603375 14.7868144 -17.9475779 10.70817554 -15.83203125 6.89453125 C-11.32843264 1.46474269 -7.25546156 -2.17663847 0 0 Z " fill="#D89A3D" transform="translate(926,258)"/>
<path d="M0 0 C0.99 0 1.98 0 3 0 C7.01905551 6.33305717 7.01905551 6.33305717 6.9375 9.1875 C5.831995 11.32480967 4.52590589 13.14237543 3 15 C3.61875 15.226875 4.2375 15.45375 4.875 15.6875 C7.67567818 17.41733064 7.99366703 18.90912017 9 22 C9.65991875 23.66935001 10.32565337 25.33642588 11 27 C10.18595703 27.88751953 10.18595703 27.88751953 9.35546875 28.79296875 C8.64003906 29.58316406 7.92460938 30.37335938 7.1875 31.1875 C6.12595703 32.35345703 6.12595703 32.35345703 5.04296875 33.54296875 C2.92311782 35.93569662 2.92311782 35.93569662 1.484375 38.74609375 C0 41 0 41 -1.90234375 41.7421875 C-2.57394531 41.78601563 -3.24554687 41.82984375 -3.9375 41.875 C-4.60652344 41.93429687 -5.27554688 41.99359375 -5.96484375 42.0546875 C-8.11208938 41.996988 -9.94253296 41.59836849 -12 41 C-10.34292168 35.35086937 -8.52237988 30.73699363 -5 26 C-9.455 25.01 -9.455 25.01 -14 24 C-15.19156292 19.23374833 -14.3415946 18.12120649 -12 14 C-12.99 13.34 -13.98 12.68 -15 12 C-14.154375 11.835 -13.30875 11.67 -12.4375 11.5 C-7.64126438 9.40709719 -5.23230362 5.99872613 -2 2 C-1.34 1.34 -0.68 0.68 0 0 Z " fill="#CB5F40" transform="translate(610,253)"/>
<path d="M0 0 C0.70576172 1.64548828 0.70576172 1.64548828 1.42578125 3.32421875 C2.05450348 4.77872539 2.68342 6.23314806 3.3125 7.6875 C3.62123047 8.40873047 3.92996094 9.12996094 4.24804688 9.87304688 C5.93441749 13.76057492 7.70580366 17.42105371 10 21 C7.90603799 22.86694188 5.80129803 24.71826176 3.6875 26.5625 C2.79514648 27.36204102 2.79514648 27.36204102 1.88476562 28.17773438 C0.32180963 29.53113202 -1.33487746 30.7744864 -3 32 C-6.41158256 30.86280581 -7.11854601 29.95657056 -9 27 C-9 26.34 -9 25.68 -9 25 C-9.9075 25.845625 -10.815 26.69125 -11.75 27.5625 C-14.68013366 30.00888518 -14.68013366 30.00888518 -17.25 29.9375 C-19 29 -19 29 -21 27 C-20.48308594 26.5875 -19.96617187 26.175 -19.43359375 25.75 C-15.42223334 22.43927929 -15.42223334 22.43927929 -13.7578125 17.75390625 C-14.05320697 15.31099118 -14.05320697 15.31099118 -15 12 C-15.99 12.66 -16.98 13.32 -18 14 C-18.99 13.67 -19.98 13.34 -21 13 C-18.69 11.02 -16.38 9.04 -14 7 C-14.99 6.67 -15.98 6.34 -17 6 C-17.99 6.495 -17.99 6.495 -19 7 C-19 5.68 -19 4.36 -19 3 C-20.98 3 -22.96 3 -25 3 C-25 2.67 -25 2.34 -25 2 C-16.59071995 0.74421418 -8.51760792 -0.28373409 0 0 Z " fill="#080603" transform="translate(450,261)"/>
<path d="M0 0 C0.99 0.495 0.99 0.495 2 1 C2 1.66 2 2.32 2 3 C2.79237061 2.9292627 3.58474121 2.85852539 4.40112305 2.78564453 C13.73568043 2.02801481 22.99702496 1.84537129 32.35766602 1.86962891 C34.79905469 1.87497058 37.24025761 1.86965754 39.68164062 1.86328125 C50.1548482 1.85933044 60.55319621 2.26439219 71 3 C71 3.33 71 3.66 71 4 C69.845 4.0825 68.69 4.165 67.5 4.25 C64.39264832 4.63435883 62.11073295 5.30251753 59.375 6.8125 C45.51933212 14.17163878 30.35990078 15.06354673 15.453125 10.75390625 C14.64359375 10.50511719 13.8340625 10.25632812 13 10 C11.66879536 9.65826458 10.33621989 9.32156694 9 9 C8.67 9.66 8.34 10.32 8 11 C5 7.25 5 7.25 5 5 C3.35 5.66 1.7 6.32 0 7 C0 4.66666667 0 2.33333333 0 0 Z " fill="#100D0A" transform="translate(473,256)"/>
<path d="M0 0 C2.70258432 4.05387648 2.64603845 7.2405775 2 12 C-2.21547157 20.599562 -9.47492082 24.54369321 -18.03515625 28.01953125 C-21.02256091 29.00746086 -23.88731854 29.5698672 -27 30 C-23.64742237 16.52721907 -17.78165976 8.60776095 -7 0 C-4.27584084 -1.36207958 -2.87220643 -0.86166193 0 0 Z " fill="#F1F1F1" transform="translate(193,448)"/>
<path d="M0 0 C2.72869407 0.03287583 5.2966618 0.56397771 8 1 C8 1.66 8 2.32 8 3 C9.32 3.33 10.64 3.66 12 4 C11.505 4.928125 11.01 5.85625 10.5 6.8125 C8.78710148 9.86527516 8.78710148 9.86527516 9 13 C11.97 13.99 14.94 14.98 18 16 C16.63408831 19.54243452 15.09068516 22.92627929 13.375 26.3125 C12.92898438 27.19550781 12.48296875 28.07851563 12.0234375 28.98828125 C11.51683594 29.98408203 11.51683594 29.98408203 11 31 C11.99 31.33 12.98 31.66 14 32 C8.06 32.495 8.06 32.495 2 33 C2.33 30.69 2.66 28.38 3 26 C1.35 25.67 -0.3 25.34 -2 25 C1 23 1 23 3 23 C2.67 21.35 2.34 19.7 2 18 C0.35 17.67 -1.3 17.34 -3 17 C-3.33 18.65 -3.66 20.3 -4 22 C-4.66 20.68 -5.32 19.36 -6 18 C-6.66 18.33 -7.32 18.66 -8 19 C-2.67010309 2.67010309 -2.67010309 2.67010309 0 0 Z " fill="#D89B3D" transform="translate(587,263)"/>
<path d="M0 0 C6.98129302 2.76844378 10.68664053 6.18502199 14 13 C14 13.99 14 14.98 14 16 C14.969375 16.28875 15.93875 16.5775 16.9375 16.875 C20 18 20 18 21 20 C7.57379892 19.56213105 -5.6881531 18.84042984 -19 17 C-18.67257812 16.39671875 -18.34515625 15.7934375 -18.0078125 15.171875 C-16.82576973 12.62452701 -16.84578447 10.77587962 -17 8 C-18.98 8 -20.96 8 -23 8 C-21.625 6 -21.625 6 -20 4 C-19.34 4 -18.68 4 -18 4 C-16.61061923 5.96147874 -15.2739589 7.96166576 -14 10 C-10.47761953 8.43632643 -7.72876006 6.30504111 -4.75 3.875 C-3.85796875 3.15054687 -2.9659375 2.42609375 -2.046875 1.6796875 C-1.03367187 0.84824219 -1.03367187 0.84824219 0 0 Z " fill="#E5A646" transform="translate(459,282)"/>
<path d="M0 0 C0.33 0.99 0.66 1.98 1 3 C8.425 3.99 8.425 3.99 16 5 C8.5 24.01785714 8.5 24.01785714 4 29 C-0.13813705 28.46823005 -2.27082318 26.22067834 -5.25 23.4375 C-6.14203125 22.61121094 -7.0340625 21.78492188 -7.953125 20.93359375 C-8.62859375 20.29550781 -9.3040625 19.65742188 -10 19 C-4.36142953 4.82872556 -4.36142953 4.82872556 0 0 Z " fill="#070503" transform="translate(571,258)"/>
<path d="M0 0 C7.96763385 0.60133086 16.22038438 2.22038438 22 8 C18.7 11.96 15.4 15.92 12 20 C5.73 18.02 -0.54 16.04 -7 14 C-4.69 9.38 -2.38 4.76 0 0 Z " fill="#C28C3B" transform="translate(385,229)"/>
<path d="M0 0 C0.33 0 0.66 0 1 0 C1 22.44 1 44.88 1 68 C39.28 68 77.56 68 117 68 C117 71.63 117 75.26 117 79 C116.67 79 116.34 79 116 79 C116 75.7 116 72.4 116 69 C110.36621045 69.0952059 104.73276977 69.20161168 99.09936523 69.31738281 C97.19219397 69.35512008 95.28496474 69.39005663 93.37768555 69.421875 C80.48113483 69.63948092 67.8037398 70.42418359 55 72 C55 71.67 55 71.34 55 71 C47.36695736 70.97669324 39.73391847 70.95899237 32.1008482 70.94818783 C28.55541909 70.94299874 25.01001457 70.93597448 21.46459961 70.92456055 C17.3761371 70.91148272 13.28769988 70.90673897 9.19921875 70.90234375 C7.94356613 70.89718246 6.68791351 70.89202118 5.39421082 70.88670349 C-1.79572229 70.88625109 -8.85403471 71.19318363 -16 72 C-10.5791638 69.19257746 -6.08709267 68.9571834 0 69 C-0.10752094 61.35907968 -0.22015837 53.71824936 -0.33933926 46.07750225 C-0.39451792 42.52964549 -0.44792977 38.98178041 -0.49731445 35.43383789 C-0.55415852 31.35554042 -0.61866801 27.27739562 -0.68359375 23.19921875 C-0.70030624 21.92414963 -0.71701874 20.64908051 -0.73423767 19.33537292 C-0.75418289 18.15437515 -0.77412811 16.97337738 -0.79467773 15.7565918 C-0.81799416 14.19439156 -0.81799416 14.19439156 -0.84178162 12.60063171 C-0.89468675 9.88588267 -0.89468675 9.88588267 -2 7 C-1.40206327 4.64811553 -0.74118205 2.31074405 0 0 Z " fill="#7F7A72" transform="translate(837,354)"/>
<path d="M0 0 C2.46270362 1.30767527 3.01778421 2.54001447 4.140625 5.06640625 C4.47578125 5.79988281 4.8109375 6.53335937 5.15625 7.2890625 C5.39859375 7.85496094 5.6409375 8.42085938 5.890625 9.00390625 C5.34792969 9.59558594 4.80523438 10.18726563 4.24609375 10.796875 C3.53066406 11.58707031 2.81523438 12.37726563 2.078125 13.19140625 C1.37042969 13.96871094 0.66273438 14.74601562 -0.06640625 15.546875 C-2.18625718 17.93960287 -2.18625718 17.93960287 -3.625 20.75 C-5.109375 23.00390625 -5.109375 23.00390625 -7.01171875 23.74609375 C-7.68332031 23.78992188 -8.35492187 23.83375 -9.046875 23.87890625 C-9.71589844 23.93820312 -10.38492188 23.9975 -11.07421875 24.05859375 C-13.22146438 24.00089425 -15.05190796 23.60227474 -17.109375 23.00390625 C-15.29840341 15.19409125 -11.42072625 9.90654036 -6.109375 4.00390625 C-5.44808594 3.22660156 -4.78679688 2.44929688 -4.10546875 1.6484375 C-2.109375 0.00390625 -2.109375 0.00390625 0 0 Z " fill="#060402" transform="translate(615.109375,270.99609375)"/>
<path d="M0 0 C6.61751883 8.2800482 11.39593571 18.27806103 11 29 C8.03 29 5.06 29 2 29 C1.78085937 28.18917969 1.56171875 27.37835938 1.3359375 26.54296875 C-0.90131076 18.73078884 -3.81484814 11.9613026 -8 5 C-2.25 0 -2.25 0 0 0 Z " fill="#6EB2F6" transform="translate(478,261)"/>
<path d="M0 0 C5.88744445 0.36796528 10.62231544 1.87548274 15 6 C16.3125 9.5625 16.3125 9.5625 16 13 C11.34440451 18.61882214 2.05595998 21.25726737 -5 22 C-2.38888348 17.16459904 0.37457083 13.12896099 4 9 C3.34 7.88625 2.68 6.7725 2 5.625 C0 2.25 0 2.25 0 0 Z " fill="#DB9C3C" transform="translate(616,270)"/>
<path d="M0 0 C1.7280919 1.62643944 3.36358987 3.28407122 5 5 C5.59683594 5.56976563 6.19367188 6.13953125 6.80859375 6.7265625 C8.71607881 8.79123453 9.98023696 10.37078486 11 13 C10.47244432 16.08317378 9.49928766 18.55449292 8.18359375 21.38671875 C5.75203203 26.75541444 5.84154009 31.96263106 5.875 37.75 C5.87693359 38.54970215 5.87886719 39.3494043 5.88085938 40.17333984 C5.92002919 45.51457993 6.21630387 50.71005115 7 56 C3.98085225 51.47127838 3.87424305 47.66510383 4.11328125 42.32421875 C4.14357422 41.24849609 4.17386719 40.17277344 4.20507812 39.06445312 C4.27634286 36.82414904 4.36730142 34.58437962 4.47851562 32.34570312 C4.63059602 25.46098252 3.93775688 21.91341379 -0.63989258 16.73217773 C-2.69383965 14.11635391 -2.66851404 11.93560818 -2.5 8.6875 C-2.4690625 7.68074219 -2.438125 6.67398437 -2.40625 5.63671875 C-2 3 -2 3 0 0 Z " fill="#10161C" transform="translate(70,376)"/>
<path d="M0 0 C1.96715805 1.96715805 2.72616213 3.32968098 3.875 5.8125 C5.21437732 8.66949877 6.06347571 10.05859297 8.4375 12.25 C10.49712584 15.87494148 9.74114697 17.33395232 8.75 21.3125 C8.18993681 23.21533763 7.61369917 25.11377755 7 27 C1.57706229 24.65775244 -0.9593945 20.32897422 -3.3125 15.0625 C-3.539375 14.381875 -3.76625 13.70125 -4 13 C-4.99 14.32 -5.98 15.64 -7 17 C-6.46105575 12.40191871 -5.23428472 9.13215631 -2.9375 5.125 C-2.38964844 4.15820312 -1.84179688 3.19140625 -1.27734375 2.1953125 C-0.85582031 1.47085937 -0.43429688 0.74640625 0 0 Z " fill="#050708" transform="translate(70,291)"/>
<path d="M0 0 C1.05153233 2.68937361 1.04089242 3.87380712 0.13671875 6.6640625 C-3.67460685 14.45108354 -8.27181101 20.47616842 -15 26 C-15.99 26.33 -16.98 26.66 -18 27 C-18.44703306 25.61359341 -18.85646757 24.21503129 -19.25 22.8125 C-19.48203125 22.03519531 -19.7140625 21.25789063 -19.953125 20.45703125 C-20 18 -20 18 -18.390625 15.4609375 C-15.91178903 12.90919459 -13.39919 10.87140278 -10.5 8.8125 C-9.5615625 8.13832031 -8.623125 7.46414062 -7.65625 6.76953125 C-5 5 -5 5 -2.71875 3.94921875 C-0.64211979 3.05564985 -0.64211979 3.05564985 0 0 Z " fill="#07090A" transform="translate(565,95)"/>
<path d="M0 0 C3.375 1.0625 3.375 1.0625 5.375 2.6875 C6.83135054 6.14633253 6.28805869 8.47548371 5.375 12.0625 C4.25 14 4.25 14 2.375 15.0625 C-1.55594707 15.56280235 -3.7255787 15.6621142 -7.0625 13.4375 C-9.12291771 10.30566508 -9.3017545 8.74705227 -8.625 5.0625 C-5.92665364 1.21940065 -4.75860157 0.08204485 0 0 Z " fill="#669CD1" transform="translate(344.625,227.9375)"/>
<path d="M0 0 C2.5 2.0625 2.5 2.0625 4 5 C4 8.80284671 3.7968187 11.01930006 1.375 14 C-2.11581787 15.46981805 -4.39148956 14.98413921 -8 14 C-10.5881216 11.74582958 -10.94242643 10.39479021 -11.4375 7 C-11 4 -11 4 -9.4375 1.625 C-6.04129157 -0.63913895 -3.99900698 -0.64269755 0 0 Z " fill="#669CD1" transform="translate(643,227)"/>
<path d="M0 0 C2.375 1.625 2.375 1.625 4 4 C4.61195145 7.6717087 4.48706506 9.28813568 2.375 12.375 C-0.71186432 14.48706506 -2.3282913 14.61195145 -6 14 C-8.375 12.375 -8.375 12.375 -10 10 C-10.61195145 6.3282913 -10.48706506 4.71186432 -8.375 1.625 C-5.28813568 -0.48706506 -3.6717087 -0.61195145 0 0 Z " fill="#EFEFEF" transform="translate(174,529)"/>
<path d="M0 0 C3.375 0.875 3.375 0.875 5.375 2.875 C6.19805268 6.03003527 6.6548926 8.0783826 5.5625 11.1875 C4.375 12.875 4.375 12.875 2.375 13.875 C-3.80535883 14.32448064 -3.80535883 14.32448064 -6.5625 12.8125 C-8.26402633 9.7097167 -8.05019574 7.33730815 -7.625 3.875 C-5.32929152 0.20186643 -4.36360172 -0.15046902 0 0 Z " fill="#EFEFEF" transform="translate(75.625,243.125)"/>
<path d="M0 0 C5.14837874 2.21793995 8.76994453 5.84441412 11 11 C10.40984928 15.0631616 8.93209887 18.39835228 7 22 C2.23161364 18.50318333 -0.30593264 15.87941026 -2 10 C-1.98084263 6.47504342 -1.59568164 3.19136328 0 0 Z " fill="#06090C" transform="translate(69,454)"/>
<path d="M0 0 C0.495 0.99 0.495 0.99 1 2 C0.0625 4.125 0.0625 4.125 -1 6 C1.64 6 4.28 6 7 6 C7.33 5.01 7.66 4.02 8 3 C8.495 3.99 8.495 3.99 9 5 C9.59425781 4.93941406 10.18851563 4.87882812 10.80078125 4.81640625 C13.53345666 4.54016379 16.26670549 4.27004512 19 4 C20.40185547 3.85691406 20.40185547 3.85691406 21.83203125 3.7109375 C27.25318323 3.18019535 32.55322171 2.8972306 38 3 C38 3.33 38 3.66 38 4 C33.64640395 4.48444181 29.29203023 4.96153457 24.9375 5.4375 C23.72771484 5.57220703 22.51792969 5.70691406 21.27148438 5.84570312 C20.05654297 5.97783203 18.84160156 6.10996094 17.58984375 6.24609375 C16.49534912 6.36654053 15.40085449 6.4869873 14.27319336 6.61108398 C3.05860263 7.69299391 -8.10791716 8.14557551 -19.37109375 8.09765625 C-20.65943619 8.0962413 -21.94777863 8.09482635 -23.27516174 8.09336853 C-26.64350451 8.08961294 -30.01180175 8.0798453 -33.38012695 8.06866455 C-36.84000025 8.05829766 -40.29988116 8.05383874 -43.75976562 8.04882812 C-50.50652871 8.03821414 -57.25326215 8.02122539 -64 8 C-64 7.67 -64 7.34 -64 7 C-63.38327423 6.98969254 -62.76654846 6.97938507 -62.13113403 6.96876526 C-55.67391785 6.86003004 -49.21682253 6.74549268 -42.75976562 6.62768555 C-40.35451808 6.58455006 -37.94924411 6.54286132 -35.54394531 6.50268555 C-32.07348694 6.4444612 -28.60315897 6.38092088 -25.1328125 6.31640625 C-23.53688766 6.29133751 -23.53688766 6.29133751 -21.90872192 6.26576233 C-17.0556519 6.17089291 -12.21521399 6.00842269 -7.37451172 5.64038086 C-6.18352371 5.55003822 -6.18352371 5.55003822 -4.96847534 5.45787048 C-2.67461359 5.13358498 -2.67461359 5.13358498 -0.875 2.4375 C-0.58625 1.633125 -0.2975 0.82875 0 0 Z " fill="#4B3529" transform="translate(545,295)"/>
<path d="M0 0 C1.98 0 3.96 0 6 0 C6 0.33 6 0.66 6 1 C4.35 1 2.7 1 1 1 C1 36.64 1 72.28 1 109 C-0.80330533 105.39338934 -1.46599103 102.91606575 -2 99 C-1.34 99 -0.68 99 0 99 C0 66.33 0 33.66 0 0 Z " fill="#776E5F" transform="translate(837,231)"/>
<path d="M0 0 C2.86724686 0.57344937 3.8614515 0.8614515 6 3 C5.40522509 7.49385487 3.15666706 11.78203844 0 15 C-2.95263117 15.72175429 -4.92483172 15.41697197 -8 15 C-6.51194289 9.19657726 -3.40902445 4.82409121 0 0 Z " fill="#6DB1F4" transform="translate(552,286)"/>
<path d="M0 0 C3.59391114 1.33488128 6.75490696 2.96022723 10 5 C8.68 7.64 7.36 10.28 6 13 C2.7 11.35 -0.6 9.7 -4 8 C-2.25 2.25 -2.25 2.25 0 0 Z " fill="#AE583E" transform="translate(618,132)"/>
<path d="M0 0 C0.33 0 0.66 0 1 0 C1 20.13 1 40.26 1 61 C0.67 61 0.34 61 0 61 C-0.33 42.85 -0.66 24.7 -1 6 C-1.66 6 -2.32 6 -3 6 C-2.67 4.68 -2.34 3.36 -2 2 C-1.34 2 -0.68 2 0 2 C0 1.34 0 0.68 0 0 Z " fill="#B98531" transform="translate(836,362)"/>
<path d="M0 0 C8.25 0 16.5 0 25 0 C17.64911887 4.90058742 5.21865993 5.17677741 -3.39453125 3.546875 C-5.27710135 3.08529914 -7.14153303 2.55065688 -9 2 C-9 1.67 -9 1.34 -9 1 C-6.03 1 -3.06 1 0 1 C0 0.67 0 0.34 0 0 Z " fill="#5B6A77" transform="translate(93,208)"/>
<path d="M0 0 C0 0.33 0 0.66 0 1 C-1.45019531 1.16435547 -1.45019531 1.16435547 -2.9296875 1.33203125 C-10.56343135 2.2616852 -17.71130326 3.4275188 -25 6 C-25.33 5.67 -25.66 5.34 -26 5 C-30.455 6.485 -30.455 6.485 -35 8 C-26.90224322 -0.09775678 -10.93583563 -1.76384446 0 0 Z " fill="#4D5C69" transform="translate(110,124)"/>
<path d="M0 0 C0.33 1.32 0.66 2.64 1 4 C2.65 4 4.3 4 6 4 C6.33 4.66 6.66 5.32 7 6 C4.03 5.505 4.03 5.505 1 5 C0.896875 5.721875 0.79375 6.44375 0.6875 7.1875 C-0.07996416 10.32712612 -1.02496481 12.4397692 -3 15 C-4.32 15 -5.64 15 -7 15 C-7.375 12.875 -7.375 12.875 -7 10 C-5.58354028 8.33682958 -4.07105045 6.9447972 -2.41015625 5.52734375 C-0.75378729 3.7333264 -0.40408278 2.37846191 0 0 Z " fill="#4C79A5" transform="translate(434,124)"/>
<path d="M0 0 C2.71663793 2.71663793 2.30753121 4.30194653 2.4140625 8.1015625 C2.45273438 9.31328125 2.49140625 10.525 2.53125 11.7734375 C2.57765625 13.67996094 2.57765625 13.67996094 2.625 15.625 C2.66367188 16.90375 2.70234375 18.1825 2.7421875 19.5 C2.83671049 22.66652017 2.92226357 25.8330304 3 29 C4.32 28.34 5.64 27.68 7 27 C6.71125 27.515625 6.4225 28.03125 6.125 28.5625 C4.71219973 31.62356725 3.8751483 34.74944918 3 38 C1.06970798 34.73409457 0.71830205 32.19986908 0.62109375 28.4296875 C0.58693359 27.36878906 0.55277344 26.30789063 0.51757812 25.21484375 C0.49115234 24.11269531 0.46472656 23.01054687 0.4375 21.875 C0.37772054 19.68478234 0.31411375 17.49466473 0.24609375 15.3046875 C0.22216553 14.33515137 0.1982373 13.36561523 0.17358398 12.36669922 C0.14961658 9.98207473 0.14961658 9.98207473 -1 8 C-0.68770276 6.66158328 -0.35169068 5.32860925 0 4 C0 2.68 0 1.36 0 0 Z " fill="#4A545E" transform="translate(81,246)"/>
<path d="M0 0 C3.89569135 -0.08732726 7.79112982 -0.14050185 11.6875 -0.1875 C12.79029297 -0.21263672 13.89308594 -0.23777344 15.02929688 -0.26367188 C16.09599609 -0.27333984 17.16269531 -0.28300781 18.26171875 -0.29296875 C19.24100342 -0.3086792 20.22028809 -0.32438965 21.22924805 -0.34057617 C24.4966933 0.06105271 26.35539654 1.07199121 29 3 C30.12256131 5.24512262 30.13413762 6.51456649 30.125 9 C30.12886719 10.051875 30.12886719 10.051875 30.1328125 11.125 C30 13 30 13 29 15 C28.34 14.67 27.68 14.34 27 14 C27.33 13.34 27.66 12.68 28 12 C28.349104 7.90814871 28.349104 7.90814871 27 4.125 C23.77144357 2.30893701 20.66888992 2.8835273 17 3 C16.34 2.67 15.68 2.34 15 2 C12.45384991 1.76827173 9.92603775 1.58105471 7.375 1.4375 C6.66859375 1.39431641 5.9621875 1.35113281 5.234375 1.30664062 C3.48981463 1.20055249 1.74493303 1.09977111 0 1 C0 0.67 0 0.34 0 0 Z " fill="#606D7A" transform="translate(149,527)"/>
<path d="M0 0 C0.598125 0.226875 1.19625 0.45375 1.8125 0.6875 C2.4375 3.0625 2.4375 3.0625 2.8125 5.6875 C2.1525 6.3475 1.4925 7.0075 0.8125 7.6875 C-1.8125 7.3125 -1.8125 7.3125 -4.1875 6.6875 C-4.875 4.875 -4.875 4.875 -5.1875 2.6875 C-3.58493056 0.24147296 -2.95482043 -0.4221172 0 0 Z " fill="#9A4B30" transform="translate(440.1875,289.3125)"/>
<path d="M0 0 C1.67542976 0.28604898 3.34385343 0.61781233 5 1 C5 2.98 5 4.96 5 7 C2.625 7.625 2.625 7.625 0 8 C-0.66 7.34 -1.32 6.68 -2 6 C-1.44444444 1.44444444 -1.44444444 1.44444444 0 0 Z " fill="#100B06" transform="translate(585,288)"/>
<path d="M0 0 C0 3.23655184 -0.6550847 4.78752639 -2 7.6875 C-2.37125 8.49574219 -2.7425 9.30398438 -3.125 10.13671875 C-3.41375 10.75160156 -3.7025 11.36648438 -4 12 C-0.04 12.99 -0.04 12.99 4 14 C4.99 12.68 5.98 11.36 7 10 C7.33 10.99 7.66 11.98 8 13 C6.68 14.32 5.36 15.64 4 17 C-0.95 15.02 -0.95 15.02 -6 13 C-5.24872886 9.24364431 -4.75994274 7.16789693 -3 4 C-3.99 3.34 -4.98 2.68 -6 2 C-4.02 1.34 -2.04 0.68 0 0 Z " fill="#5D3B21" transform="translate(601,263)"/>
<path d="M0 0 C0.66 1.32 1.32 2.64 2 4 C-3.76775846 8.00538782 -9.29115951 7.18236745 -16 6 C-18.81006149 5.17932455 -21.31485783 4.18765904 -24 3 C-22.3125 1.8125 -22.3125 1.8125 -20 1 C-19.2678125 1.474375 -18.535625 1.94875 -17.78125 2.4375 C-14.3417621 4.36979657 -12.10115603 4.30609564 -8.1875 4.1875 C-7.02605469 4.16042969 -5.86460937 4.13335937 -4.66796875 4.10546875 C-3.78753906 4.07066406 -2.90710938 4.03585937 -2 4 C-1.34 2.68 -0.68 1.36 0 0 Z " fill="#69564C" transform="translate(779,304)"/>
<path d="M0 0 C-5.11162326 4.77825652 -10.37409671 8.56525309 -17 11 C-17.66 10.67 -18.32 10.34 -19 10 C-16.03 8.35 -13.06 6.7 -10 5 C-10.66 4.34 -11.32 3.68 -12 3 C-10.3789897 2.30314502 -8.75303934 1.61777139 -7.125 0.9375 C-6.22007812 0.55464844 -5.31515625 0.17179688 -4.3828125 -0.22265625 C-2 -1 -2 -1 0 0 Z " fill="#7D6F5B" transform="translate(230,522)"/>
<path d="M0 0 C1.66611905 -0.042721 3.33382885 -0.04063832 5 0 C6 1 6 1 6.0625 3.5625 C6.041875 4.366875 6.02125 5.17125 6 6 C3.625 6.625 3.625 6.625 1 7 C0.34 6.34 -0.32 5.68 -1 5 C-0.625 2.375 -0.625 2.375 0 0 Z " fill="#E8E8E8" transform="translate(584,280)"/>
<path d="M0 0 C2.89932357 2.39509338 3.50168276 4.31245243 4 8 C5.4540625 8.433125 5.4540625 8.433125 6.9375 8.875 C10 10 10 10 11 12 C8.36 11.67 5.72 11.34 3 11 C3 10.01 3 9.02 3 8 C-0.3 8 -3.6 8 -7 8 C-7 7.67 -7 7.34 -7 7 C-2.545 6.505 -2.545 6.505 2 6 C1.34 4.02 0.68 2.04 0 0 Z " fill="#F2D7AC" transform="translate(469,290)"/>
<path d="M0 0 C1.65 0 3.3 0 5 0 C5.38218767 1.65614657 5.71395102 3.32457024 6 5 C5 6 5 6 2.4375 6.0625 C1.2309375 6.0315625 1.2309375 6.0315625 0 6 C-1.125 2.25 -1.125 2.25 0 0 Z " fill="#AA5C43" transform="translate(543,250)"/>
<path d="M0 0 C2 0 2 0 3.76171875 1.64453125 C4.39722656 2.35996094 5.03273438 3.07539063 5.6875 3.8125 C6.65236328 4.87404297 6.65236328 4.87404297 7.63671875 5.95703125 C8.08660156 6.63121094 8.53648437 7.30539062 9 8 C8.67 8.99 8.34 9.98 8 11 C7.34 10.01 6.68 9.02 6 8 C2.68455701 6.89485234 -0.20410111 6.67892369 -3.6875 6.4375 C-5.45673828 6.31181641 -5.45673828 6.31181641 -7.26171875 6.18359375 C-8.16535156 6.12300781 -9.06898438 6.06242187 -10 6 C-10 5.67 -10 5.34 -10 5 C-4.06 4.505 -4.06 4.505 2 4 C1.34 2.68 0.68 1.36 0 0 Z " fill="#715937" transform="translate(557,255)"/>
<path d="M0 0 C0.66 0.99 1.32 1.98 2 3 C1.51917969 3.39832031 1.03835937 3.79664063 0.54296875 4.20703125 C-1.37391825 6.43450247 -1.47741643 7.78834669 -1.6875 10.6875 C-1.75324219 11.49574219 -1.81898437 12.30398438 -1.88671875 13.13671875 C-1.92410156 13.75160156 -1.96148437 14.36648438 -2 15 C-2.66 14.34 -3.32 13.68 -4 13 C-4.99 14.32 -5.98 15.64 -7 17 C-6.46105575 12.40191871 -5.23428472 9.13215631 -2.9375 5.125 C-2.38964844 4.15820312 -1.84179688 3.19140625 -1.27734375 2.1953125 C-0.85582031 1.47085937 -0.43429688 0.74640625 0 0 Z " fill="#3F5366" transform="translate(70,291)"/>
<path d="M0 0 C0.99 0.66 1.98 1.32 3 2 C2.25 8.75 2.25 8.75 0 11 C-0.99 11 -1.98 11 -3 11 C-3.66 11.350625 -4.32 11.70125 -5 12.0625 C-7 13 -7 13 -10 12 C-9.36191406 11.69707031 -8.72382812 11.39414062 -8.06640625 11.08203125 C-7.24011719 10.66308594 -6.41382813 10.24414062 -5.5625 9.8125 C-4.73878906 9.40644531 -3.91507813 9.00039063 -3.06640625 8.58203125 C-0.77441279 7.14415009 -0.77441279 7.14415009 -0.21484375 4.44921875 C0.02912792 2.07771237 0.02912792 2.07771237 0 0 Z " fill="#704728" transform="translate(631,277)"/>
<path d="M0 0 C1.32 0.33 2.64 0.66 4 1 C2.02 3.31 0.04 5.62 -2 8 C-2.99 7.67 -3.98 7.34 -5 7 C-3.7251791 4.15616877 -2.54862922 1.86245982 0 0 Z " fill="#E7E6E5" transform="translate(433,266)"/>
<path d="M0 0 C3.3 0 6.6 0 10 0 C10 0.99 10 1.98 10 3 C5.71 3 1.42 3 -3 3 C-2.01 2.67 -1.02 2.34 0 2 C0 1.34 0 0.68 0 0 Z " fill="#DE9E3D" transform="translate(462,298)"/>
<path d="M0 0 C1.98 0.66 3.96 1.32 6 2 C4.6071787 4.7856426 2.69573602 5.52376361 0 7 C-0.99 7.33 -1.98 7.66 -3 8 C-2.25 2.25 -2.25 2.25 0 0 Z " fill="#986B30" transform="translate(611,267)"/>
<path d="M0 0 C0.99 0.33 1.98 0.66 3 1 C-0.96 4.96 -4.92 8.92 -9 13 C-9 8.86218946 -7.28490393 7.79080004 -4.5 4.8125 C-3.6646875 3.91144531 -2.829375 3.01039063 -1.96875 2.08203125 C-0.99421875 1.05142578 -0.99421875 1.05142578 0 0 Z " fill="#5880A7" transform="translate(70,134)"/>
<path d="M0 0 C1.65 0.33 3.3 0.66 5 1 C4.67 2.65 4.34 4.3 4 6 C2.35 5.67 0.7 5.34 -1 5 C-0.67 3.35 -0.34 1.7 0 0 Z " fill="#A67C3C" transform="translate(584,111)"/>
<path d="M0 0 C-1.39750048 3.15835107 -3.05198234 5.32272825 -5.5 7.75 C-6.41265625 8.67039062 -6.41265625 8.67039062 -7.34375 9.609375 C-9 11 -9 11 -11 11 C-9.60249952 7.84164893 -7.94801766 5.67727175 -5.5 3.25 C-4.8915625 2.63640625 -4.283125 2.0228125 -3.65625 1.390625 C-2 0 -2 0 0 0 Z " fill="#A07739" transform="translate(269,464)"/>
<path d="M0 0 C2.34058637 2.12780579 3.70700306 4.11562221 5 7 C4.34 7 3.68 7 3 7 C2.731875 7.969375 2.46375 8.93875 2.1875 9.9375 C1.795625 10.948125 1.40375 11.95875 1 13 C0.01 13.33 -0.98 13.66 -2 14 C-1.690625 13.0925 -1.38125 12.185 -1.0625 11.25 C0.87665132 5.67136785 0.87665132 5.67136785 0 0 Z " fill="#557696" transform="translate(66,447)"/>
<path d="M0 0 C6.22222222 -0.47863248 6.22222222 -0.47863248 9.4375 1.5 C11.7384032 5.18144512 11.34728373 7.69368174 11 12 C10.67 12.66 10.34 13.32 10 14 C9.34 13.67 8.68 13.34 8 13 C8.33 12.34 8.66 11.68 9 11 C9.38938338 6.89294529 9.38938338 6.89294529 7.875 3.1875 C5.33323785 1.57771731 2.9601892 1.32890991 0 1 C0 0.67 0 0.34 0 0 Z " fill="#4C545B" transform="translate(168,528)"/>
<path d="M0 0 C0.66 0.33 1.32 0.66 2 1 C-1.3 4.3 -4.6 7.6 -8 11 C-8.33 10.34 -8.66 9.68 -9 9 C-6.31941902 5.42589203 -3.57410797 2.68058098 0 0 Z " fill="#11181E" transform="translate(554,104)"/>
<path d="M0 0 C-0.25 2.375 -0.25 2.375 -1 5 C-2.8125 6.375 -2.8125 6.375 -5 7 C-6.34346425 6.71018504 -7.67977235 6.38195265 -9 6 C-7.8803014 4.99406757 -6.7540588 3.9954151 -5.625 3 C-4.68527344 2.1646875 -4.68527344 2.1646875 -3.7265625 1.3125 C-2 0 -2 0 0 0 Z " fill="#999289" transform="translate(780,447)"/>
<path d="M0 0 C0 0.66 0 1.32 0 2 C-1.9375 2.5625 -1.9375 2.5625 -4 3 C-4.33 2.67 -4.66 2.34 -5 2 C-9.455 3.485 -9.455 3.485 -14 5 C-11.34451542 2.34451542 -10.30676727 1.47751209 -7 0.25 C-5.9790625 -0.14445312 -5.9790625 -0.14445312 -4.9375 -0.546875 C-3 -1 -3 -1 0 0 Z " fill="#556D83" transform="translate(89,127)"/>
<path d="M0 0 C0.33 1.32 0.66 2.64 1 4 C2.65 4 4.3 4 6 4 C6.33 4.66 6.66 5.32 7 6 C4.03 5.505 4.03 5.505 1 5 C0.67 6.65 0.34 8.3 0 10 C-0.33 9.01 -0.66 8.02 -1 7 C-1.66 6.67 -2.32 6.34 -3 6 C-2.34 5.34 -1.68 4.68 -1 4 C-0.3574765 1.93125966 -0.3574765 1.93125966 0 0 Z " fill="#2D445A" transform="translate(434,124)"/>
<path d="M0 0 C-1.44077046 3.36179774 -3.24750021 5.59156268 -6 8 C-6.66 8 -7.32 8 -8 8 C-6.48291727 4.46014029 -4.24676932 0 0 0 Z " fill="#A37837" transform="translate(208,535)"/>
<path d="M0 0 C-0.33 0.66 -0.66 1.32 -1 2 C-0.01 2.33 0.98 2.66 2 3 C0.35 3.66 -1.3 4.32 -3 5 C-3 3.68 -3 2.36 -3 1 C-4.98 1 -6.96 1 -9 1 C-9 0.67 -9 0.34 -9 0 C-5.62182575 -0.84454356 -3.32534757 -1.10844919 0 0 Z " fill="#3A3124" transform="translate(434,263)"/>
<path d="M0 0 C2 0 2 0 4 1.875 C4.66 2.57625 5.32 3.2775 6 4 C6.66 4.66 7.32 5.32 8 6 C6.53984709 5.71758359 5.08190207 5.42373386 3.625 5.125 C2.81289063 4.96257812 2.00078125 4.80015625 1.1640625 4.6328125 C-1 4 -1 4 -3 2 C-2.01 1.67 -1.02 1.34 0 1 C0 0.67 0 0.34 0 0 Z " fill="#675844" transform="translate(911,279)"/>
<path d="M0 0 C0.66 0 1.32 0 2 0 C3.625 2.5 3.625 2.5 5 5 C4.01 5.495 4.01 5.495 3 6 C3 5.34 3 4.68 3 4 C1.02 4 -0.96 4 -3 4 C-1.625 2 -1.625 2 0 0 Z " fill="#D49639" transform="translate(439,286)"/>
<path d="M0 0 C0.1546875 0.86625 0.1546875 0.86625 0.3125 1.75 C1.09792798 4.32049158 2.30504197 5.93657284 4 8 C3.34 8 2.68 8 2 8 C1.67 8.66 1.34 9.32 1 10 C-0.83691257 6.21812119 -1.15837626 4.05431692 0 0 Z " fill="#5E3D23" transform="translate(379,278)"/>
<path d="M0 0 C-0.28875 0.515625 -0.5775 1.03125 -0.875 1.5625 C-2.28780027 4.62356725 -3.1248517 7.74944918 -4 11 C-4.33 11 -4.66 11 -5 11 C-5.36637589 4.64948454 -5.36637589 4.64948454 -3.625 1.5625 C-2 0 -2 0 0 0 Z " fill="#567EA6" transform="translate(88,273)"/>
<path d="M0 0 C0.99 0.33 1.98 0.66 3 1 C-0.465 3.97 -0.465 3.97 -4 7 C-4 4 -4 4 -2 1.8125 C-1.34 1.214375 -0.68 0.61625 0 0 Z " fill="#1B1916" transform="translate(231,519)"/>
<path d="M0 0 C2 0 2 0 4 1.875 C4.66 2.57625 5.32 3.2775 6 4 C6.66 4.66 7.32 5.32 8 6 C3.545 5.01 3.545 5.01 -1 4 C-0.34 3.67 0.32 3.34 1 3 C0.67 2.01 0.34 1.02 0 0 Z " fill="#64493C" transform="translate(906,378)"/>
<path d="M0 0 C0.66 0.33 1.32 0.66 2 1 C2 1.99 2 2.98 2 4 C1.01 4.66 0.02 5.32 -1 6 C-1 5.34 -1 4.68 -1 4 C-1.66 3.67 -2.32 3.34 -3 3 C-2.01 2.01 -1.02 1.02 0 0 Z " fill="#674A30" transform="translate(470,261)"/>
<path d="M0 0 C3.64734979 0.22330713 5.38372835 0.38372835 8 3 C4.37 3 0.74 3 -3 3 C-2.01 2.01 -1.02 1.02 0 0 Z " fill="#685840" transform="translate(920,257)"/>
</svg>
