<?xml version="1.0" encoding="UTF-8"?>
<svg version="1.1" xmlns="http://www.w3.org/2000/svg" width="1008" height="606">
<path d="M0 0 C332.64 0 665.28 0 1008 0 C1008 199.98 1008 399.96 1008 606 C675.36 606 342.72 606 0 606 C0 406.02 0 206.04 0 0 Z " fill="#D6CDC1" transform="translate(0,0)"/>
<path d="M0 0 C2.5934408 1.16704836 3.06218894 2.37430012 4.203125 4.94140625 C4.53828125 5.67488281 4.8734375 6.40835938 5.21875 7.1640625 C5.46109375 7.72996094 5.7034375 8.29585938 5.953125 8.87890625 C5.13908203 9.54986328 5.13908203 9.54986328 4.30859375 10.234375 C0.46433016 13.4829509 -2.81020178 16.26576773 -5.046875 20.87890625 C-4.345625 21.03746094 -3.644375 21.19601562 -2.921875 21.359375 C4.57804662 23.20378507 11.87928428 25.71892225 16.953125 31.87890625 C16.76705624 41.74055039 9.4305573 48.17811422 2.953125 54.87890625 C0.48262196 57.18677429 -2.03513704 59.43101497 -4.56640625 61.671875 C-18.27681405 73.83484498 -18.27681405 73.83484498 -24.28515625 90.50390625 C-24.61646449 103.310074 -21.86618269 111.82447416 -15.484375 122.87890625 C-8.43775604 135.12436408 -5.351001 148.32306183 -8.92578125 162.3203125 C-15.05231859 178.15225552 -29.35050414 190.28025141 -42.32421875 200.6171875 C-54.67433473 210.87646605 -65.5747912 222.42409847 -68.046875 238.87890625 C-68.046875 239.86890625 -68.046875 240.85890625 -68.046875 241.87890625 C-67.08986694 241.85534058 -67.08986694 241.85534058 -66.11352539 241.83129883 C-52.72174513 241.54631616 -40.13032943 241.89246556 -27.046875 244.87890625 C-27.046875 245.20890625 -27.046875 245.53890625 -27.046875 245.87890625 C-28.73458015 245.73546657 -30.42202986 245.58902056 -32.109375 245.44140625 C-33.51896484 245.31958984 -33.51896484 245.31958984 -34.95703125 245.1953125 C-37.0266823 244.98337605 -39.09016204 244.69975595 -41.140625 244.34765625 C-46.59652121 243.69294871 -51.99576488 243.77438925 -57.484375 243.81640625 C-63.2078125 243.84734375 -63.2078125 243.84734375 -69.046875 243.87890625 C-68.716875 252.78890625 -68.386875 261.69890625 -68.046875 270.87890625 C-67.386875 271.20890625 -66.726875 271.53890625 -66.046875 271.87890625 C-67.036875 272.20890625 -68.026875 272.53890625 -69.046875 272.87890625 C-69.046875 279.80890625 -69.046875 286.73890625 -69.046875 293.87890625 C-67.396875 293.54890625 -65.746875 293.21890625 -64.046875 292.87890625 C-67.31386634 296.14589759 -70.30945046 295.99473819 -74.75088501 296.00332642 C-75.52556122 295.99973114 -76.30023743 295.99613586 -77.09838867 295.99243164 C-77.91812668 295.99257767 -78.73786469 295.99272369 -79.58244324 295.99287415 C-82.29327028 295.99217721 -85.0040287 295.98439503 -87.71484375 295.9765625 C-89.59385643 295.97469754 -91.4728696 295.97327401 -93.35188293 295.97227478 C-98.29862815 295.96845573 -103.24534402 295.95863063 -108.19207764 295.9475708 C-113.23937585 295.93734355 -118.28667879 295.93277434 -123.33398438 295.92773438 C-133.23829414 295.91700784 -143.14258213 295.89993873 -153.046875 295.87890625 C-153.05496185 295.18479141 -153.06304871 294.49067657 -153.07138062 293.77552795 C-153.14966592 287.20006595 -153.23705573 280.6247933 -153.33440208 274.04958439 C-153.38412225 270.67006003 -153.43045195 267.2905633 -153.46875 263.91088867 C-153.51463201 260.01593578 -153.57258894 256.12131688 -153.6328125 252.2265625 C-153.64436371 251.02620865 -153.65591492 249.8258548 -153.66781616 248.58912659 C-153.97915362 230.71862479 -160.51829119 219.19767159 -173.046875 206.87890625 C-178.22503323 201.89077217 -183.58830852 197.12017752 -189.046875 192.44140625 C-199.98356521 182.87752235 -212.19497197 171.9543281 -214.34936523 156.74316406 C-214.48369061 154.52892152 -214.51555419 152.34694568 -214.484375 150.12890625 C-214.47390137 149.33742188 -214.46342773 148.5459375 -214.45263672 147.73046875 C-214.09428432 136.07333635 -209.44255942 127.21643611 -203.57666016 117.37109375 C-197.84199152 107.59366857 -196.02482591 96.45341821 -198.6640625 85.26171875 C-203.73897739 72.64179765 -216.12258286 61.77838529 -226.359375 53.19140625 C-231.89742104 48.462678 -236.71798944 42.85414681 -239.046875 35.87890625 C-238.89159075 32.69557903 -238.41179051 31.30078821 -236.3203125 28.8828125 C-228.40395651 21.90499356 -216.09557509 20.15799287 -206.046875 17.87890625 C-205.02335937 17.6159375 -203.99984375 17.35296875 -202.9453125 17.08203125 C-202.07132812 16.870625 -201.19734375 16.65921875 -200.296875 16.44140625 C-199.55953125 16.25707031 -198.8221875 16.07273437 -198.0625 15.8828125 C-195.28112277 15.87742223 -194.15297883 17.16053702 -192.046875 18.87890625 C-189.04298868 18.61385746 -188.21383225 18.0458635 -186.046875 15.87890625 C-186.36728897 13.27610057 -186.36728897 13.27610057 -187.046875 10.87890625 C-185.726875 11.53890625 -184.406875 12.19890625 -183.046875 12.87890625 C-183.046875 13.53890625 -183.046875 14.19890625 -183.046875 14.87890625 C-182.06589844 14.74613281 -181.08492188 14.61335938 -180.07421875 14.4765625 C-171.70415146 13.37259929 -163.39310088 12.55992211 -154.9609375 12.125 C-152.11146797 12.06551962 -152.11146797 12.06551962 -150.046875 10.87890625 C-149.716875 10.21890625 -149.386875 9.55890625 -149.046875 8.87890625 C-142.66353177 18.0709205 -137.82721041 25.4563474 -138.046875 36.87890625 C-134.746875 36.87890625 -131.446875 36.87890625 -128.046875 36.87890625 C-129.9913163 28.35646139 -131.86898409 20.61574128 -136.046875 12.87890625 C-135.716875 12.21890625 -135.386875 11.55890625 -135.046875 10.87890625 C-54.33603568 10.48400941 -54.33603568 10.48400941 -17.046875 17.87890625 C-16.81871094 17.17121094 -16.59054687 16.46351563 -16.35546875 15.734375 C-14.7663485 12.26677229 -12.70237337 9.98240156 -10.109375 7.19140625 C-9.23410156 6.23878906 -8.35882812 5.28617188 -7.45703125 4.3046875 C-3.00352622 -0.17768953 -3.00352622 -0.17768953 0 0 Z " fill="#DD6544" transform="translate(617.046875,248.12109375)"/>
<path d="M0 0 C9.68370081 7.46720929 14.918087 19.45438313 16.4765625 31.35546875 C16.93460327 43.26452867 12.83880316 54.32912439 4.953125 63.17578125 C0.90590659 67.30476165 -3.34256373 71.13397293 -7.8671875 74.73046875 C-7.73441406 74.13878906 -7.60164063 73.54710938 -7.46484375 72.9375 C-7.28824219 72.14730469 -7.11164063 71.35710937 -6.9296875 70.54296875 C-6.66865234 69.37701172 -6.66865234 69.37701172 -6.40234375 68.1875 C-6.22574219 67.37667969 -6.04914063 66.56585938 -5.8671875 65.73046875 C-5.67640625 64.93253906 -5.485625 64.13460937 -5.2890625 63.3125 C-3.54871746 52.66094381 -6.44379581 41.24432998 -12.6171875 32.48046875 C-19.80960922 23.73147815 -28.55367183 17.87086361 -39.8671875 15.73046875 C-53.60572335 14.76244183 -63.94157049 17.83741799 -74.83984375 26.25390625 C-82.9451608 33.55759853 -87.02525802 44.23463495 -88.08203125 54.8984375 C-88.64314122 67.5795228 -82.68995817 77.57598416 -75.8671875 87.73046875 C-79.63576465 88.5536686 -83.40739124 89.36199845 -87.1796875 90.16796875 C-88.23220703 90.39806641 -89.28472656 90.62816406 -90.36914062 90.86523438 C-97.19486045 92.3143872 -103.90373213 93.27340797 -110.8671875 93.73046875 C-111.1971875 94.72046875 -111.5271875 95.71046875 -111.8671875 96.73046875 C-112.8571875 96.40046875 -113.8471875 96.07046875 -114.8671875 95.73046875 C-117.02996308 96.0023165 -119.18085568 96.37144957 -121.32055664 96.78759766 C-121.97725342 96.91316795 -122.6339502 97.03873825 -123.31054688 97.16811371 C-125.50928358 97.5904914 -127.70573256 98.02374598 -129.90234375 98.45703125 C-131.46443041 98.75949839 -133.02664352 99.06131312 -134.588974 99.36251831 C-138.81976184 100.18021967 -143.04863509 101.00745738 -147.27722168 101.8364563 C-151.73258914 102.70824555 -156.18965418 103.57127311 -160.64648438 104.43554688 C-184.40121172 109.04705158 -208.14312604 113.72465154 -231.88143253 118.41988659 C-255.14435229 123.02024427 -278.42772558 127.51063236 -301.71762085 131.972229 C-321.06271334 135.67818116 -340.40174049 139.41265371 -359.73046875 143.203125 C-361.6345067 143.57624119 -363.53854924 143.94933397 -365.44259644 144.32240295 C-373.71824943 145.94429676 -381.99351722 147.5680549 -390.26714802 149.20023632 C-393.64761662 149.86639199 -397.02865814 150.52960448 -400.40984154 151.19212151 C-401.97456119 151.49942493 -403.53902507 151.80803411 -405.10320473 152.11807442 C-412.66956006 153.61746135 -420.17529734 155.05245203 -427.8671875 155.73046875 C-422.8671875 150.73046875 -422.8671875 150.73046875 -420.3671875 148.41796875 C-412.92926598 140.42220312 -408.83094953 130.1848477 -408.3671875 119.23046875 C-408.93954685 106.92474271 -413.91744619 96.31010549 -422.84765625 87.85546875 C-433.3738265 79.45134081 -444.73438596 77.80360105 -457.8671875 78.73046875 C-470.00946629 81.19554855 -478.57109512 87.89449499 -485.8671875 97.73046875 C-491.62701323 108.0881957 -492.37789037 119.64911846 -490.21875 131.19921875 C-487.15173072 141.37018867 -481.04344491 148.2228353 -472.8671875 154.73046875 C-473.5271875 155.06046875 -474.1871875 155.39046875 -474.8671875 155.73046875 C-486.34105986 148.86175605 -492.76742187 140.58694199 -497.1796875 127.98046875 C-499.74984379 115.6037938 -497.76902781 103.71797315 -491.1796875 92.98046875 C-482.28171146 80.67048686 -470.62466047 75.6150422 -456.09838867 72.7824707 C-454.87881312 72.53318219 -453.65923758 72.28389368 -452.40270519 72.02705097 C-448.56040304 71.24632681 -444.7143907 70.48663477 -440.8671875 69.73046875 C-438.47784569 69.25347225 -436.08857228 68.77613297 -433.69937134 68.2984314 C-426.86584608 66.94022606 -420.02679035 65.61147088 -413.18627024 64.28900409 C-409.67810117 63.61012948 -406.17056085 62.92801932 -402.66293335 62.24635315 C-395.8599571 60.92477309 -389.05643572 59.60602157 -382.25271392 58.28828579 C-374.27852943 56.74372323 -366.30494444 55.19607611 -358.3313781 53.64832616 C-343.49541273 50.76861522 -328.65888294 47.89182245 -313.82205212 45.01657414 C-302.16336022 42.75721135 -290.50488403 40.49674052 -278.84667969 38.23486328 C-278.12397695 38.0946491 -277.40127422 37.95443491 -276.6566714 37.80997181 C-273.77136538 37.2501827 -270.88605969 36.69039189 -268.00075477 36.13059711 C-226.39590965 28.0587097 -184.79100984 19.98695928 -143.17578125 11.96875 C-142.2324292 11.78696323 -141.28907715 11.60517647 -140.31713867 11.41788101 C-131.53908759 9.72641615 -122.76084026 8.03599288 -113.98154068 6.35101891 C-98.95210612 3.46618382 -83.9286737 0.55920842 -68.92578125 -2.4609375 C-66.5037546 -2.94610041 -64.08171725 -3.43120985 -61.65966797 -3.91625977 C-57.3759196 -4.77467538 -53.09553123 -5.64750859 -48.81689453 -6.53100586 C-30.64352644 -10.22281154 -15.90385442 -10.81329014 0 0 Z " fill="#6EB1F3" transform="translate(551.8671875,51.26953125)"/>
<path d="M0 0 C2.71663793 2.71663793 2.30753121 4.30194653 2.4140625 8.1015625 C2.45273438 9.31328125 2.49140625 10.525 2.53125 11.7734375 C2.5621875 13.04445313 2.593125 14.31546875 2.625 15.625 C2.66367188 16.90375 2.70234375 18.1825 2.7421875 19.5 C2.83671049 22.66652017 2.92226357 25.8330304 3 29 C3.74628662 28.39115967 4.49257324 27.78231934 5.26147461 27.1550293 C26.44300128 10.09733968 53.15844455 3.96207042 79.98803711 6.46459961 C95.97101792 8.23531451 112.09881866 13.83178432 123.3125 25.81640625 C129.12291549 33.3349763 132.02355861 41.54289513 131 51 C128.41549874 61.39707937 122.85509891 69.90901608 114 76 C92.3265167 88.92010927 63.44850587 90.56515328 39.1652832 84.77026367 C23.33253414 80.60225016 10.33180242 73.73367715 -2 63 C-2.50259287 65.97164131 -3.00010759 68.94391787 -3.48828125 71.91796875 C-3.8462362 74.07389589 -4.22705462 76.22609492 -4.625 78.375 C-5.76704887 89.41480573 -4.64638236 99.26364049 -2 110 C-1.65719272 111.66474384 -1.32017176 113.33075498 -1 115 C0.23363281 114.02160156 0.23363281 114.02160156 1.4921875 113.0234375 C11.03094145 105.51925347 20.07091767 99.53507479 31.5 95.25 C32.2832666 94.95585205 33.0665332 94.6617041 33.87353516 94.35864258 C44.73136437 90.4556565 55.08422978 89.58902214 66.5625 89.625 C67.2730957 89.6262085 67.98369141 89.62741699 68.71582031 89.62866211 C87.59890234 89.7158868 106.33131686 93.04650319 121 106 C128.4903021 114.07190203 131.7695358 122.90768341 131.3828125 133.890625 C130.24581961 143.12579176 124.56433505 151.38248134 117.375 157.125 C105.27855002 165.52404451 90.76522089 170.44630422 76 171 C74.783125 171.0515625 73.56625 171.103125 72.3125 171.15625 C46.41594704 171.89302002 21.65088579 164.33901688 2 147 C1.34 146.34 0.68 145.68 0 145 C-6.61032519 156.71830375 -6.74059468 171.98561086 -3.625 184.875 C-2.70875395 188.12350873 -1.59183534 191.02396002 0 194 C1.2375 193.14728516 1.2375 193.14728516 2.5 192.27734375 C29.02981833 174.38188156 60.02147847 168.26405686 91.5078125 174.0234375 C105.30976218 176.83742724 118.89343592 183.10165594 127 195 C131.30463547 203.42687114 132.19300967 210.95702491 129.875 220.0625 C126.35841836 230.6286011 118.00717966 238.07680893 108.375 243.1875 C85.12866183 254.2206605 56.77931757 254.20813648 32.734375 245.8671875 C19.29500304 240.66373836 9.15734211 232.97713121 -1 223 C-4.87976111 226.87976111 -4.39154498 231.73272151 -4.46630859 236.9465332 C-4.32745885 243.92833311 -1.57877729 249.09409032 2 255 C2.679966 256.32660034 3.35226611 257.65736713 4 259 C4.66 259 5.32 259 6 259 C6 259.66 6 260.32 6 261 C6.56074219 261.26296875 7.12148437 261.5259375 7.69921875 261.796875 C10.21472454 263.1122838 12.46750243 264.65064682 14.8125 266.25 C35.23244581 279.16655365 60.13788713 282.00832963 83.82421875 282.4296875 C93.15927972 282.72409153 93.15927972 282.72409153 97 286 C98.12256131 288.24512262 98.13413762 289.51456649 98.125 292 C98.12886719 293.051875 98.12886719 293.051875 98.1328125 294.125 C98 296 98 296 97 298 C96.34 297.67 95.68 297.34 95 297 C95.33 296.34 95.66 295.68 96 295 C96.37615126 290.86935374 96.37615126 290.86935374 94.875 287.125 C92.11909116 285.47145469 90.14924548 285.60634432 87 286 C85 287 85 287 84 289 C83.60984439 292.12124489 83.44122451 294.09975061 85.125 296.8125 C87.66676215 298.42228269 90.0398108 298.67109009 93 299 C93 299.33 93 299.66 93 300 C58.44250264 300.44686419 19.77113578 296.5875945 -6.60888672 271.80078125 C-12.08936207 266.2803278 -15.70546994 259.99454074 -19 253 C-19.37898438 252.22140625 -19.75796875 251.4428125 -20.1484375 250.640625 C-24.68263234 239.57552566 -22.41325577 226.69880188 -18 216 C-17.26335771 214.64747645 -16.49766198 213.30980891 -15.6875 212 C-13.74709448 209.2270984 -13.74709448 209.2270984 -14.24609375 206.6484375 C-15.05263244 203.81510469 -16.13933083 201.29853876 -17.375 198.625 C-24.84072242 180.92366394 -25.63155521 160.03436711 -18.5 142.0546875 C-17.08402534 138.66404847 -15.53913163 135.33632126 -14 132 C-12.38544695 127.15634085 -15.26931808 123.58803255 -17.359375 119.12890625 C-21.56395999 109.18405028 -22.52569724 99.3995839 -22.4375 88.6875 C-22.43065186 87.4102002 -22.42380371 86.13290039 -22.41674805 84.81689453 C-22.21759236 73.11966779 -20.35613895 63.69327852 -15.1875 53.125 C-12.68968354 47.98423402 -12.75751262 44.47286106 -14 39 C-14.88514935 34.48693281 -15.11665017 30.22934122 -15.09765625 25.6328125 C-15.0962413 24.95322479 -15.09482635 24.27363708 -15.09336853 23.57345581 C-15.08781518 21.42392388 -15.07527169 19.27449992 -15.0625 17.125 C-15.05747896 15.65885568 -15.05291711 14.19270971 -15.04882812 12.7265625 C-15.03786111 9.15100717 -15.02062919 5.57551414 -15 2 C-14.69449219 2.61359375 -14.38898438 3.2271875 -14.07421875 3.859375 C-12.41311402 7.19393772 -12.41311402 7.19393772 -10 10 C-6.5 10.66666667 -6.5 10.66666667 -3 10 C-0.90235835 8.48105194 -0.90235835 8.48105194 0 6 C0.25086724 2.83267579 0.25086724 2.83267579 0 0 Z " fill="#6BA9E7" transform="translate(81,244)"/>
<path d="M0 0 C0.04413145 2.86345229 0.07623419 5.7262135 0.1015625 8.58984375 C0.11517822 9.3933728 0.12879395 10.19690186 0.14282227 11.02478027 C0.22795499 23.88309663 -5.06275578 33.71422761 -13.5 43.125 C-26.25335952 55.25154034 -45.50107056 58.43679147 -62.125 61.5 C-88.72249015 66.43025718 -106.31534808 78.3480982 -125.83984375 96.6640625 C-151.82501482 120.98611368 -179.54993617 135.38702698 -215.84765625 134.4375 C-234.78483172 133.53775298 -252.3212799 126.31685682 -270 120 C-309.99392554 105.74473941 -349.50505205 102.56945433 -390.35498047 115.98120117 C-395.26845165 117.58369246 -399.84873754 118.51358955 -405 119 C-405.20453151 115.62590441 -405.32801449 112.25341008 -405.4375 108.875 C-405.49615234 107.92367187 -405.55480469 106.97234375 -405.61523438 105.9921875 C-405.78275802 99.09978593 -405.78275802 99.09978593 -403.68530273 96.15283203 C-401.87814221 94.55164124 -400.05074799 93.27260539 -398 92 C-397.37971924 91.58379395 -396.75943848 91.16758789 -396.12036133 90.73876953 C-394.1743279 89.47124588 -392.19680942 88.2894214 -390.1875 87.125 C-389.46046875 86.70081787 -388.7334375 86.27663574 -387.984375 85.83959961 C-355.64965865 67.38186569 -322.0259672 62.25556327 -285.77294922 71.60668945 C-277.45021793 73.93335818 -269.52064526 77.29051073 -261.62744141 80.78515625 C-255.49288772 83.40539852 -251.54980526 84.58450379 -245 83 C-245.33 83.66 -245.66 84.32 -246 85 C-246.66 85 -247.32 85 -248 85 C-248 85.66 -248 86.32 -248 87 C-247.319375 87.17015625 -246.63875 87.3403125 -245.9375 87.515625 C-244.968125 87.75796875 -243.99875 88.0003125 -243 88.25 C-241.90558594 88.51941406 -240.81117188 88.78882813 -239.68359375 89.06640625 C-237.14128827 89.71074454 -234.6209598 90.37987193 -232.09765625 91.08984375 C-212.01212297 96.63979374 -194.87335576 93.14257515 -176.92724609 83.10742188 C-167.26087282 77.55299203 -158.4701989 71.27180538 -150 64 C-148.86544905 63.04974668 -147.72998635 62.10058117 -146.59375 61.15234375 C-139.95292958 55.57641497 -133.73346372 49.80926055 -127.66796875 43.609375 C-123.37600715 39.41167318 -118.71423604 35.70823863 -114 32 C-112.33265764 30.66751172 -110.66579257 29.33442523 -109 28 C-109.5983667 28.01047363 -110.1967334 28.02094727 -110.81323242 28.03173828 C-141.6937694 28.5002992 -141.6937694 28.5002992 -149 22 C-148.70535099 18.75886087 -148.35705822 16.5207099 -146.5 13.8125 C-137.43939812 7.24356364 -125.31374647 7.80102027 -114.625 7.75 C-113.5525 7.729375 -112.48 7.70875 -111.375 7.6875 C-103.83815314 7.65082435 -96.59528793 8.30545017 -89.96484375 12.19335938 C-88.03871973 13.2103037 -88.03871973 13.2103037 -86.08056641 12.52441406 C-85.10095947 12.02506348 -85.10095947 12.02506348 -84.1015625 11.515625 C-83.37453125 11.15726562 -82.6475 10.79890625 -81.8984375 10.4296875 C-80.77308594 9.84574219 -80.77308594 9.84574219 -79.625 9.25 C-55.0758205 -3.10982996 -26.77533197 -0.36519478 0 0 Z " fill="#6EB0F1" transform="translate(953,423)"/>
<path d="M0 0 C16.5 0 33 0 50 0 C50 47.19 50 94.38 50 143 C-6.76 143 -63.52 143 -122 143 C-115.38387356 135.28118582 -109.28402898 130.61833864 -100.34936523 126.06884766 C-85.64224521 118.57252655 -77.94134986 108.02790215 -72.5 92.5 C-66.02143013 74.03886292 -55.72468264 64.02838698 -38.81201172 54.97851562 C-26.52303793 48.34227109 -18.17493907 39.06672115 -13 26 C-12.30735035 23.18404933 -12 20.9075298 -12 18 C-11.22227452 16.08068461 -10.38178325 14.18628941 -9.5 12.3125 C-9.0359375 11.31863281 -8.571875 10.32476562 -8.09375 9.30078125 C-7.7328125 8.54152344 -7.371875 7.78226562 -7 7 C-6.34 7 -5.68 7 -5 7 C-3.35 4.69 -1.7 2.38 0 0 Z " fill="#E4A23D" transform="translate(320,401)"/>
<path d="M0 0 C16.4501397 15.01860082 28.39131993 36.52645539 29.71704102 59.02490234 C30.81504165 87.80603995 24.25102355 110.33748914 5.0703125 132.16796875 C-8.10575913 146.12484462 -25.39285033 156.09967018 -44.44140625 159.3359375 C-46.09140625 159.3359375 -47.74140625 159.3359375 -49.44140625 159.3359375 C-49.44140625 174.1859375 -49.44140625 189.0359375 -49.44140625 204.3359375 C-48.78140625 204.6659375 -48.12140625 204.9959375 -47.44140625 205.3359375 C-48.32493774 205.32022705 -48.32493774 205.32022705 -49.22631836 205.30419922 C-51.94380271 205.26214196 -54.66121821 205.2364557 -57.37890625 205.2109375 C-58.30509766 205.19417969 -59.23128906 205.17742187 -60.18554688 205.16015625 C-66.26013587 205.11752756 -71.55975704 205.80369248 -77.44140625 207.3359375 C-76.78140625 206.6759375 -76.12140625 206.0159375 -75.44140625 205.3359375 C-75.11143178 203.27686553 -75.11143178 203.27686553 -75.12255859 200.88623047 C-75.1026889 199.96542694 -75.08281921 199.04462341 -75.06234741 198.09591675 C-75.0507962 197.10004547 -75.039245 196.10417419 -75.02734375 195.078125 C-75.0079776 194.05993683 -74.98861145 193.04174866 -74.96865845 191.9927063 C-74.9087527 188.73220261 -74.86243326 185.47166383 -74.81640625 182.2109375 C-74.7782366 180.00389063 -74.73918548 177.79685881 -74.69921875 175.58984375 C-74.60304231 170.17200839 -74.51802726 164.75408277 -74.44140625 159.3359375 C-75.45685265 159.2447187 -75.45685265 159.2447187 -76.49281311 159.1516571 C-77.38600754 159.0676918 -78.27920197 158.9837265 -79.19946289 158.8972168 C-80.08267715 158.81577927 -80.96589142 158.73434174 -81.87586975 158.6504364 C-102.34126088 156.14166561 -121.47383708 141.72010711 -134.44140625 126.3359375 C-150.94781674 104.73088021 -156.21154189 79.35660439 -153.125 52.59228516 C-151.64113551 43.65128131 -148.64965341 35.3563615 -144.44140625 27.3359375 C-143.81492187 26.02109375 -143.81492187 26.02109375 -143.17578125 24.6796875 C-132.3475183 3.02316159 -112.02788644 -12.07012159 -89.44140625 -19.6640625 C-57.44564673 -29.22903164 -25.22880496 -21.45730001 0 0 Z M-110.44140625 21.3359375 C-111.13878906 21.99980469 -111.83617187 22.66367188 -112.5546875 23.34765625 C-125.28182452 36.32192214 -130.00997791 53.93588595 -129.9296875 71.67504883 C-129.33554172 90.4100921 -121.00751109 106.47571129 -107.44140625 119.3359375 C-92.68608496 131.92864681 -74.84443606 137.84266261 -55.47802734 136.53857422 C-36.60186754 134.66046194 -20.30939359 125.31200316 -8.3203125 110.76171875 C-6.55725512 108.34651971 -4.96861206 105.90591287 -3.44140625 103.3359375 C-2.9825 102.57023437 -2.52359375 101.80453125 -2.05078125 101.015625 C6.52964368 85.35376505 8.01407857 67.0328768 3.71484375 49.8359375 C-0.46912998 37.17093593 -6.88679664 27.54205071 -16.44140625 18.3359375 C-17.00085938 17.74554688 -17.5603125 17.15515625 -18.13671875 16.546875 C-30.48027343 4.46182408 -48.68963642 0.81722364 -65.22485352 0.91577148 C-83.04877741 1.39182645 -97.93786466 8.70327155 -110.44140625 21.3359375 Z " fill="#DC9D3D" transform="translate(887.44140625,72.6640625)"/>
<path d="M0 0 C1.7280919 1.62643944 3.36358987 3.28407122 5 5 C5.59683594 5.56976563 6.19367188 6.13953125 6.80859375 6.7265625 C8.71607881 8.79123453 9.98023696 10.37078486 11 13 C10.47244432 16.08317378 9.49928766 18.55449292 8.18359375 21.38671875 C3.2683381 32.2392139 5.12333141 48.1524411 9 59 C9.63932266 60.34665837 10.29690234 61.68551307 11 63 C11.825 62.43152344 12.65 61.86304688 13.5 61.27734375 C40.02981833 43.38188156 71.02147847 37.26405686 102.5078125 43.0234375 C116.30976218 45.83742724 129.89343592 52.10165594 138 64 C142.30463547 72.42687114 143.19300967 79.95702491 140.875 89.0625 C137.35841836 99.6286011 129.00717966 107.07680893 119.375 112.1875 C96.12866183 123.2206605 67.77931757 123.20813648 43.734375 114.8671875 C30.29500304 109.66373836 20.15734211 101.97713121 10 92 C6.12023889 95.87976111 6.60845502 100.73272151 6.53369141 105.9465332 C6.67254115 112.92833311 9.42122271 118.09409032 13 124 C13.679966 125.32660034 14.35226611 126.65736713 15 128 C15.66 128 16.32 128 17 128 C17 128.66 17 129.32 17 130 C17.56074219 130.26296875 18.12148437 130.5259375 18.69921875 130.796875 C21.21472454 132.1122838 23.46750243 133.65064682 25.8125 135.25 C46.23244581 148.16655365 71.13788713 151.00832963 94.82421875 151.4296875 C104.15927972 151.72409153 104.15927972 151.72409153 108 155 C109.12256131 157.24512262 109.13413762 158.51456649 109.125 161 C109.12886719 162.051875 109.12886719 162.051875 109.1328125 163.125 C109 165 109 165 108 167 C107.34 166.67 106.68 166.34 106 166 C106.33 165.34 106.66 164.68 107 164 C107.37615126 159.86935374 107.37615126 159.86935374 105.875 156.125 C103.11909116 154.47145469 101.14924548 154.60634432 98 155 C96 156 96 156 95 158 C94.60984439 161.12124489 94.44122451 163.09975061 96.125 165.8125 C98.66676215 167.42228269 101.0398108 167.67109009 104 168 C104 168.33 104 168.66 104 169 C69.44250264 169.44686419 30.77113578 165.5875945 4.39111328 140.80078125 C-1.08936207 135.2803278 -4.70546994 128.99454074 -8 122 C-8.37898438 121.22140625 -8.75796875 120.4428125 -9.1484375 119.640625 C-13.68263234 108.57552566 -11.41325577 95.69880188 -7 85 C-6.26335771 83.64747645 -5.49766198 82.30980891 -4.6875 81 C-2.74709448 78.2270984 -2.74709448 78.2270984 -3.24609375 75.6484375 C-4.05263244 72.81510469 -5.13933083 70.29853876 -6.375 67.625 C-13.68846332 50.28467248 -14.57886017 29.81761086 -7.8984375 12.07421875 C-7.60195313 11.38972656 -7.30546875 10.70523437 -7 10 C-6.34 10 -5.68 10 -5 10 C-4.731875 9.46375 -4.46375 8.9275 -4.1875 8.375 C-2.79166667 5.58333333 -1.39583333 2.79166667 0 0 Z " fill="#6BA9E7" transform="translate(70,375)"/>
<path d="M0 0 C6.10477064 5.02745817 10.60952915 13.19700475 12 21 C12.03888349 23.33300933 12.0448635 25.66709801 12 28 C15.3 28 18.6 28 22 28 C20.0555587 19.47755514 18.17789091 11.73683503 14 4 C14.33 3.34 14.66 2.68 15 2 C53.8278956 1.81002535 53.8278956 1.81002535 70.3125 2.4375 C71.35124268 2.47673584 72.38998535 2.51597168 73.46020508 2.55639648 C79.99524044 2.83669231 86.4916059 3.35099215 93 4 C93 4.66 93 5.32 93 6 C93.73863281 5.87238281 94.47726562 5.74476563 95.23828125 5.61328125 C103.21793941 4.83255231 103.21793941 4.83255231 106.64794922 7.07958984 C110.12487876 10.05935989 113.09190168 13.47364456 116 17 C119.1612658 14.53721355 121.74119327 12.32876781 124 9 C126.64 9.33 129.28 9.66 132 10 C131.67 10.763125 131.34 11.52625 131 12.3125 C129.82563314 14.99069135 129.82563314 14.99069135 130 18 C132.64 18.99 135.28 19.98 138 21 C137.10825333 24.56698669 135.97696469 27.4342299 134.4375 30.75 C133.98246094 31.73484375 133.52742187 32.7196875 133.05859375 33.734375 C132.53458984 34.85585938 132.53458984 34.85585938 132 36 C133.65 36.33 135.3 36.66 137 37 C133.82542231 39.11638513 132.11804623 39.47761203 128.40625 40.03515625 C127.2925 40.20466797 126.17875 40.37417969 125.03125 40.54882812 C123.8659375 40.71833984 122.700625 40.88785156 121.5 41.0625 C119.7984375 41.32256836 119.7984375 41.32256836 118.0625 41.58789062 C108.84475888 42.96738055 99.64908277 44.17234215 90.3125 44.0625 C88.79076172 44.04896484 88.79076172 44.04896484 87.23828125 44.03515625 C86.49964844 44.02355469 85.76101563 44.01195312 85 44 C85 43.34 85 42.68 85 42 C84.34 43.32 83.68 44.64 83 46 C76.84765625 46.09765625 76.84765625 46.09765625 75 46 C74.67 45.67 74.34 45.34 74 45 C71.92003746 45.23633174 69.84043852 45.47625043 67.76266479 45.73110962 C62.56287374 46.23720569 57.34914886 46.16297174 52.12890625 46.16796875 C50.89373764 46.17129715 49.65856903 46.17462555 48.38597107 46.17805481 C45.77123382 46.18310358 43.15649017 46.18546377 40.54174805 46.18530273 C36.63383613 46.18746061 32.72622036 46.20555871 28.81835938 46.22460938 C-9.53922581 46.30998687 -9.53922581 46.30998687 -25 43 C-25.04125 42.236875 -25.0825 41.47375 -25.125 40.6875 C-25.77823609 37.67594887 -25.77823609 37.67594887 -29.0625 36.1875 C-30.031875 35.795625 -31.00125 35.40375 -32 35 C-31.74347656 34.26394531 -31.48695313 33.52789062 -31.22265625 32.76953125 C-30.66403203 29.87062819 -30.66403203 29.87062819 -32.87109375 27.76171875 C-34.14146484 26.73498047 -34.14146484 26.73498047 -35.4375 25.6875 C-36.28183594 24.99011719 -37.12617188 24.29273438 -37.99609375 23.57421875 C-38.65738281 23.05472656 -39.31867188 22.53523438 -40 22 C-42.96184809 23.30371946 -44.75770306 24.57928724 -46.75 27.125 C-47.4925 28.07375 -48.235 29.0225 -49 30 C-48.42765625 30.26554687 -47.8553125 30.53109375 -47.265625 30.8046875 C-44.8923988 32.05676891 -42.87786714 33.4936352 -40.75 35.125 C-40.04359375 35.66382813 -39.3371875 36.20265625 -38.609375 36.7578125 C-38.07828125 37.16773438 -37.5471875 37.57765625 -37 38 C-35.68 37.01 -34.36 36.02 -33 35 C-31.68 35.99 -30.36 36.98 -29 38 C-29.66 39.32 -30.32 40.64 -31 42 C-39.69644024 41.8098194 -48.04825733 40.3661069 -56.5625 38.6875 C-57.60204834 38.48680908 -58.64159668 38.28611816 -59.71264648 38.0793457 C-69.36783033 36.11914516 -79.21286907 34.10138887 -86.98828125 27.7578125 C-88 26 -88 26 -87.97265625 22.99609375 C-87 20 -87 20 -84.9453125 18.27734375 C-76.27548379 14.15857471 -67.45365861 11.68347868 -58.12744141 9.50195312 C-56.31185223 9.07357909 -54.5044779 8.6106333 -52.69921875 8.140625 C-51.82910156 7.92921875 -50.95898438 7.7178125 -50.0625 7.5 C-49.35222656 7.3246875 -48.64195312 7.149375 -47.91015625 6.96875 C-45.22223751 7.01272413 -44.04360538 8.34727133 -42 10 C-38.99611368 9.73495121 -38.16695725 9.16695725 -36 7 C-36.32041397 4.39719432 -36.32041397 4.39719432 -37 2 C-35.68 2.66 -34.36 3.32 -33 4 C-33 4.66 -33 5.32 -33 6 C-32.01902344 5.86722656 -31.03804688 5.73445313 -30.02734375 5.59765625 C-21.65727646 4.49369304 -13.34622588 3.68101586 -4.9140625 3.24609375 C-2.06459297 3.18661337 -2.06459297 3.18661337 0 2 C0 1.34 0 0.68 0 0 Z " fill="#DF9F3E" transform="translate(467,257)"/>
<path d="M0 0 C15.84 0 31.68 0 48 0 C48 46.53 48 93.06 48 141 C32.16 141 16.32 141 0 141 C0 94.47 0 47.94 0 0 Z " fill="#D6CDC1" transform="translate(321,402)"/>
<path d="M0 0 C9.6827586 6.17142856 15.94730454 15.36287396 19.1875 26.3125 C21.52035067 37.63701784 19.39014928 48.98631806 13.375 58.875 C12.55711929 60.05255114 11.72548185 61.22077464 10.875 62.375 C10.2975 63.24125 9.72 64.1075 9.125 65 C1.90791147 72.6180379 -8.75611909 77.70735273 -19.23046875 78.54296875 C-31.68438944 78.65979727 -43.37445756 75.29006697 -52.5625 66.5 C-62.05006002 56.1069882 -64.93909922 45.36563312 -64.47265625 31.5078125 C-63.88939196 22.34700916 -60.11232558 15.17025385 -54.125 8.375 C-53.60035156 7.75753906 -53.07570313 7.14007813 -52.53515625 6.50390625 C-39.02407907 -8.27880172 -16.86665138 -9.2139522 0 0 Z " fill="#F2F2F2" transform="translate(124.125,134.625)"/>
<path d="M0 0 C9.24607577 7.37187122 14.95160359 16.52881872 16.77734375 28.38671875 C17.95471196 39.03909781 14.90823824 49.6593739 9.0234375 58.61328125 C1.72090425 67.50106194 -7.34720462 74.13428626 -18.9765625 75.61328125 C-32.13684328 76.75383892 -43.15403375 73.95400149 -53.6015625 65.75390625 C-62.21993877 57.98602764 -67.01083527 47.93170193 -68.19921875 36.46484375 C-68.72413896 23.82111351 -63.80343071 12.71549932 -55.4765625 3.42578125 C-39.99791656 -11.30438084 -17.1229679 -12.45587737 0 0 Z " fill="#F2F2F2" transform="translate(530.9765625,74.38671875)"/>
<path d="M0 0 C8.57041488 6.12172492 15.00862523 14.83644858 17.25 25.25 C18.4190419 37.97627889 18.04816494 49.39948654 10.23046875 59.984375 C1.64399686 70.14979531 -8.28894701 75.83007868 -21.5703125 77.6328125 C-34.03580158 78.17795051 -44.50019446 73.29595935 -53.75 65.25 C-60.88829107 58.70277762 -65.3029931 49.22073508 -66.0234375 39.59765625 C-66.42687328 27.55523925 -64.53140042 16.6874422 -56.59765625 7.08984375 C-40.65892775 -8.78149054 -19.18204191 -11.77957607 0 0 Z " fill="#F2F2F2" transform="translate(851.75,283.75)"/>
<path d="M0 0 C9.13013833 6.84386801 15.34068361 16.73692251 17.1640625 28.03125 C18.0947071 39.55818132 16.27600974 50.09945118 9.37109375 59.546875 C0.82514328 69.55699181 -9.28377598 75.85818131 -22.5625 76.94921875 C-33.92160898 77.41826634 -43.76140285 73.81889527 -52.61328125 66.7890625 C-60.89391019 59.03728045 -65.91043844 50.26139128 -66.984375 38.84375 C-67.36522114 26.07857637 -65.06103402 15.9689328 -56.30078125 6.2890625 C-40.9755552 -9.6700288 -18.75691402 -11.95495619 0 0 Z " fill="#F2F2F2" transform="translate(297.61328125,362.2109375)"/>
<path d="M0 0 C4.76114353 3.78771135 7.77369511 8.50858533 9.6875 14.25 C11.2737304 31.92513873 4.59084561 45.48867972 -4.3125 60.25 C-1.6725 60.25 0.9675 60.25 3.6875 60.25 C0.15518041 62.2947784 -3.32522984 62.99438136 -7.3125 63.77807617 C-8.00891602 63.91652451 -8.70533203 64.05497284 -9.42285156 64.19761658 C-11.71825319 64.65213592 -14.0152415 65.09793679 -16.3125 65.54296875 C-17.91151067 65.85612226 -19.51046828 66.16954679 -21.109375 66.48323059 C-24.45756778 67.13857357 -27.80660427 67.789382 -31.15625 68.43725586 C-35.44893416 69.26808811 -39.73891935 70.11203801 -44.02832031 70.95963573 C-47.32826012 71.60987394 -50.62970557 72.25218465 -53.93164062 72.89220619 C-55.5142008 73.20013739 -57.09623985 73.51075942 -58.67773438 73.82411766 C-60.88782428 74.26098973 -63.09975602 74.68691438 -65.3125 75.11010742 C-67.1996875 75.47745247 -67.1996875 75.47745247 -69.125 75.85221863 C-71.98140901 76.20868178 -73.64855457 76.223927 -76.3125 75.25 C-74.765625 74.26 -74.765625 74.26 -73.1875 73.25 C-64.75923439 67.14970291 -60.11084198 57.68238807 -57.6953125 47.69921875 C-55.86406675 35.98298321 -58.89307206 25.63853092 -64.3125 15.25 C-61.67007983 12.88806019 -58.99567241 10.56549463 -56.3125 8.25 C-55.17361328 7.24259766 -55.17361328 7.24259766 -54.01171875 6.21484375 C-38.16220137 -7.24816692 -17.96123582 -12.21898199 0 0 Z " fill="#010202" transform="translate(200.3125,130.75)"/>
<path d="M0 0 C4.46973409 4.16820441 6.69097966 7.43954576 7.4375 13.625 C7.32496536 19.19034964 4.69658308 22.99907976 1 27 C-12.53242458 38.17788184 -32.20759343 38.98799042 -49 38 C-66.7708511 36.18317177 -82.74706629 30.63566307 -96.515625 19.02734375 C-98 17 -98 17 -98.04296875 14.53125 C-95.86785804 9.25232964 -90.4790599 6.28076596 -86 3 C-85.23429687 2.43796875 -84.46859375 1.8759375 -83.6796875 1.296875 C-60.95493764 -13.74738449 -22.6090689 -16.33737513 0 0 Z " fill="#D6CDC1" transform="translate(188,277)"/>
<path d="M0 0 C4.1681626 4.0258351 6.09355088 7.05345427 6.375 12.9375 C6.16007433 19.2357567 3.67963468 22.33705326 -0.8125 26.625 C-15.43543647 38.03089045 -35.65563717 38.46841528 -53.35253906 36.78173828 C-68.31885637 34.76472394 -83.71906549 28.06704079 -95.0625 18 C-95.0625 17.34 -95.0625 16.68 -95.0625 16 C-95.7225 16 -96.3825 16 -97.0625 16 C-97.0625 15.34 -97.0625 14.68 -97.0625 14 C-97.7225 14 -98.3825 14 -99.0625 14 C-94.3560347 2.80356677 -78.99418977 -2.56578609 -68.52734375 -7.09765625 C-48.6623091 -14.48670652 -17.17375528 -13.91789751 0 0 Z " fill="#D6CDC1" transform="translate(189.0625,361)"/>
<path d="M0 0 C4.09339952 3.77127019 6.84332027 7.11984328 7.3125 12.75 C7.21889729 17.93558991 5.07783318 20.79230224 1.5625 24.52734375 C-10.17122945 35.61233335 -27.51238296 37.6337808 -42.98828125 37.28515625 C-65.27497396 35.98378328 -82.90849468 27.14236449 -98 11 C-94.18862103 6.81264361 -90.31068046 4.12910403 -85.3125 1.5 C-84.21168091 0.91798828 -84.21168091 0.91798828 -83.08862305 0.32421875 C-59.4470637 -11.64289795 -22.86430933 -15.40933172 0 0 Z " fill="#D6CDC1" transform="translate(188,442)"/>
<path d="M0 0 C2.77581023 2.70211615 5.32734946 5.47686343 7.75 8.5 C8.36359375 9.2528125 8.9771875 10.005625 9.609375 10.78125 C11 13 11 13 11 17 C10.6803125 17.76183594 10.360625 18.52367187 10.03125 19.30859375 C7.50164374 25.91048282 7.88803538 33.93698089 10.2734375 40.5078125 C11.74117373 43.42180589 13.30976749 46.21067847 15 49 C15.679966 50.32660034 16.35226611 51.65736713 17 53 C17.66 53 18.32 53 19 53 C19 53.66 19 54.32 19 55 C19.56074219 55.26296875 20.12148437 55.5259375 20.69921875 55.796875 C23.21472454 57.1122838 25.46750243 58.65064682 27.8125 60.25 C48.23244581 73.16655365 73.13788713 76.00832963 96.82421875 76.4296875 C106.15927972 76.72409153 106.15927972 76.72409153 110 80 C111.12256131 82.24512262 111.13413762 83.51456649 111.125 86 C111.12886719 87.051875 111.12886719 87.051875 111.1328125 88.125 C111 90 111 90 110 92 C109.34 91.67 108.68 91.34 108 91 C108.33 90.34 108.66 89.68 109 89 C109.37615126 84.86935374 109.37615126 84.86935374 107.875 81.125 C105.11909116 79.47145469 103.14924548 79.60634432 100 80 C98 81 98 81 97 83 C96.60984439 86.12124489 96.44122451 88.09975061 98.125 90.8125 C100.66676215 92.42228269 103.0398108 92.67109009 106 93 C106 93.33 106 93.66 106 94 C71.44250264 94.44686419 32.77113578 90.5875945 6.39111328 65.80078125 C0.91063793 60.2803278 -2.70546994 53.99454074 -6 47 C-6.37898438 46.22140625 -6.75796875 45.4428125 -7.1484375 44.640625 C-11.70663657 33.51694653 -9.34236438 20.76573406 -5 10 C-3.45153689 6.5960131 -1.80406185 3.27540738 0 0 Z " fill="#6AA6E1" transform="translate(68,450)"/>
<path d="M0 0 C6.48279541 3.42642463 9.0693275 12.65686493 11.78515625 19.0390625 C16.77494221 30.52417328 22.1536699 35.75078983 32.79077148 42.12915039 C46.34165391 50.38045364 54.42453064 62.16902839 59.80761719 76.8503418 C61.09176486 80.32371252 62.43856318 83.14942093 64.84765625 85.9765625 C63.29299428 90.05989152 60.59677781 92.05865243 57.22265625 94.7265625 C56.21976562 95.52578125 55.216875 96.325 54.18359375 97.1484375 C53.41273438 97.75171875 52.641875 98.355 51.84765625 98.9765625 C47.9685386 95.42899337 45.65833377 92.15302662 43.41015625 87.4140625 C43.11431641 86.8048999 42.81847656 86.1957373 42.51367188 85.56811523 C41.07793268 82.60786389 39.68792781 79.62946812 38.3125 76.640625 C33.24413659 65.9092102 27.43476241 61.1940373 17.40429688 55.37548828 C3.84350207 47.38406468 -3.56370363 34.70749233 -8.828125 20.2265625 C-9.96486967 17.00478294 -9.96486967 17.00478294 -11.8828125 14.7890625 C-13.15234375 12.9765625 -13.15234375 12.9765625 -13.140625 11.02734375 C-11.72745014 8.09486627 -9.7443888 6.34329147 -7.33984375 4.1640625 C-6.46714844 3.35324219 -5.59445312 2.54242188 -4.6953125 1.70703125 C-2.15234375 -0.0234375 -2.15234375 -0.0234375 0 0 Z " fill="#CF6142" transform="translate(399.15234375,157.0234375)"/>
<path d="M0 0 C2.94228606 0.55167864 5.74690232 1.21891964 8.625 2.0625 C17.47313541 4.2703837 26.22205548 2.901605 35 1 C33 3 33 3 30 4 C29.67 24.13 29.34 44.26 29 65 C67.28 65 105.56 65 145 65 C145 68.63 145 72.26 145 76 C144.67 76 144.34 76 144 76 C144 72.7 144 69.4 144 66 C138.36621045 66.0952059 132.73276977 66.20161168 127.09936523 66.31738281 C125.19219397 66.35512008 123.28496474 66.39005663 121.37768555 66.421875 C108.48113483 66.63948092 95.8037398 67.42418359 83 69 C83 68.67 83 68.34 83 68 C75.41883413 67.92991291 67.83770264 67.87689506 60.25628471 67.84456348 C56.73437784 67.82903129 53.21269561 67.80802686 49.69091797 67.77368164 C45.62465491 67.73428311 41.55862084 67.72018825 37.4921875 67.70703125 C36.25201874 67.69154739 35.01184998 67.67606354 33.73410034 67.66011047 C26.24175724 67.65869593 19.42718387 68.50434331 12.13894653 70.25639343 C9.12120539 70.97128682 6.05906729 71.49015545 3 72 C3.33 48.9 3.66 25.8 4 2 C2.68 1.34 1.36 0.68 0 0 Z " fill="#DB9D3E" transform="translate(809,357)"/>
<path d="M0 0 C0 0.66 0 1.32 0 2 C0.59167969 2.04898437 1.18335938 2.09796875 1.79296875 2.1484375 C6.19104472 2.56456867 9.96928897 3.04965595 14 5 C14 5.66 14 6.32 14 7 C15.19625 7.061875 16.3925 7.12375 17.625 7.1875 C26.8146904 8.22316352 35.78911637 10.9692348 42 18 C44.48499142 21.54998775 44.43249013 24.74718041 44 29 C42.64794434 32.55919518 40.72695317 35.3171046 37.9375 37.9375 C26.30600084 42.14463799 14.65054609 36.09605293 3.8125 32 C1.98432464 31.32389437 0.15555237 30.6494005 -1.67382812 29.9765625 C-6.12299252 28.33623026 -10.56348564 26.67422837 -15 25 C-15 24.34 -15 23.68 -15 23 C-17.31 22.34 -19.62 21.68 -22 21 C-22.33 19.35 -22.66 17.7 -23 16 C-23.66 16 -24.32 16 -25 16 C-25 12.7 -25 9.4 -25 6 C-24.34 6 -23.68 6 -23 6 C-22.979375 5.2575 -22.95875 4.515 -22.9375 3.75 C-21.77799236 0.3487776 -20.12139356 -0.68803398 -16.95703125 -2.2734375 C-10.80016701 -4.55921943 -5.69671423 -2.39861652 0 0 Z " fill="#CCC3B8" transform="translate(739,271)"/>
<path d="M0 0 C4.29718953 1.38914475 6.70687757 3.38031985 9.8125 6.625 C10.60269531 7.44226563 11.39289063 8.25953125 12.20703125 9.1015625 C12.79871094 9.72804687 13.39039063 10.35453125 14 11 C13.72285156 11.54269531 13.44570313 12.08539063 13.16015625 12.64453125 C12.33906406 14.31159722 11.55898363 15.99915512 10.80859375 17.69921875 C5.64138477 28.96108447 -1.31130498 36.53606586 -13 41 C-14.72382243 41.49805049 -16.45310372 41.9776222 -18.1875 42.4375 C-24.70254291 44.32075459 -28.36199763 47.1641633 -31.7734375 53.0703125 C-32.96011275 55.34520522 -34.13218856 57.62777712 -35.2890625 59.91796875 C-37.41096331 63.74029693 -39.69698438 66.18035252 -43 69 C-46.86969751 67.71010083 -48.15446294 65.8079307 -50.75 62.6875 C-51.97976563 61.23923828 -51.97976563 61.23923828 -53.234375 59.76171875 C-55 57 -55 57 -54.87890625 54.81640625 C-53.5308105 52.0303417 -51.72700642 49.56583811 -50 47 C-49.44945369 45.75388542 -48.90828497 44.50359879 -48.375 43.25 C-43.54788819 33.46429862 -35.00924684 27.5777141 -25 24 C-23.53240234 23.51853516 -23.53240234 23.51853516 -22.03515625 23.02734375 C-11.99749844 19.6994223 -9.10817866 14.63030587 -4.4296875 5.48828125 C-3.13686158 3.23819898 -1.92945919 1.70682929 0 0 Z " fill="#D3973C" transform="translate(620,183)"/>
<path d="M0 0 C16.5 0 33 0 50 0 C50 47.19 50 94.38 50 143 C-6.76 143 -63.52 143 -122 143 C-120 141 -120 141 -117.87981987 140.76952171 C-116.99674219 140.77873964 -116.11366451 140.78795757 -115.2038269 140.79745483 C-114.19137909 140.80311966 -113.17893127 140.80878448 -112.13580322 140.81462097 C-111.02090515 140.83116226 -109.90600708 140.84770355 -108.75732422 140.86474609 C-107.5866037 140.87420761 -106.41588318 140.88366913 -105.20968628 140.89341736 C-101.99490017 140.92137351 -98.78036456 140.95829242 -95.56572104 140.99914122 C-92.20787297 141.03970903 -88.84992681 141.06889597 -85.49197388 141.09927368 C-79.13123198 141.15855403 -72.77064546 141.22811668 -66.41005051 141.30134451 C-58.45965446 141.39232791 -50.5091332 141.46963854 -42.55859375 141.546875 C-28.37223179 141.68475068 -14.18619477 141.84336341 0 142 C-0.33 109.99 -0.66 77.98 -1 45 C-2.32 46.98 -3.64 48.96 -5 51 C-7.87426437 54.69548276 -9.93033868 56.29522636 -14.5 57 C-18.56269258 57.22233641 -20.86724599 56.77472498 -24 54 C-26.3125 50.8125 -26.3125 50.8125 -28 48 C-27.12988281 47.12601562 -27.12988281 47.12601562 -26.2421875 46.234375 C-18.7770587 38.39968537 -12 29.25874115 -12 18 C-11.22227452 16.08068461 -10.38178325 14.18628941 -9.5 12.3125 C-9.0359375 11.31863281 -8.571875 10.32476562 -8.09375 9.30078125 C-7.7328125 8.54152344 -7.371875 7.78226562 -7 7 C-6.34 7 -5.68 7 -5 7 C-3.35 4.69 -1.7 2.38 0 0 Z M1 1 C1 47.53 1 94.06 1 142 C16.84 142 32.68 142 49 142 C49 95.47 49 48.94 49 1 C33.16 1 17.32 1 1 1 Z " fill="#201D18" transform="translate(320,401)"/>
<path d="M0 0 C6.8915095 7.38376018 9.35772115 17.31286662 9.2109375 27.19140625 C8.05228041 42.61871087 0.39737196 52.77489735 -10.91015625 62.671875 C-12.25491365 63.803633 -13.62408961 64.90632763 -15 66 C-14.86722656 65.40832031 -14.73445312 64.81664063 -14.59765625 64.20703125 C-14.42105469 63.41683594 -14.24445312 62.62664062 -14.0625 61.8125 C-13.88847656 61.03519531 -13.71445312 60.25789063 -13.53515625 59.45703125 C-13.35855469 58.64621094 -13.18195312 57.83539063 -13 57 C-12.80921875 56.20207031 -12.6184375 55.40414062 -12.421875 54.58203125 C-10.45922308 42.56987458 -14.74870133 31.04673001 -21 21 C-20.278125 20.28070313 -19.55625 19.56140625 -18.8125 18.8203125 C-17.03107423 17.03393833 -15.25899433 15.23815354 -13.5 13.4296875 C-12.675 12.58664063 -11.85 11.74359375 -11 10.875 C-10.175 10.02679688 -9.35 9.17859375 -8.5 8.3046875 C-6 6 -6 6 -3.25 4.3828125 C-0.69016696 3.14160988 -0.69016696 3.14160988 0 0 Z " fill="#040505" transform="translate(559,60)"/>
<path d="M0 0 C1.0725 -0.020625 2.145 -0.04125 3.25 -0.0625 C11.35075289 -0.10191972 18.75980119 0.67320079 25.625 5.25 C25.625 6.24 25.625 7.23 25.625 8.25 C23.359375 9.96875 23.359375 9.96875 20.375 11.75 C16.37960446 14.12234176 16.37960446 14.12234176 12.66796875 16.89453125 C2.7981079 23.44298577 -15.38549905 20.57858263 -26.5 19.078125 C-29.86122469 18.10994615 -31.80060494 16.57831318 -34.375 14.25 C-34.08035099 11.00886087 -33.73205822 8.7707099 -31.875 6.0625 C-22.81439812 -0.50643636 -10.68874647 0.05102027 0 0 Z " fill="#060606" transform="translate(838.375,430.75)"/>
<path d="M0 0 C2.5934408 1.16704836 3.06218894 2.37430012 4.203125 4.94140625 C4.53828125 5.67488281 4.8734375 6.40835938 5.21875 7.1640625 C5.46109375 7.72996094 5.7034375 8.29585938 5.953125 8.87890625 C5.13908203 9.54986328 5.13908203 9.54986328 4.30859375 10.234375 C0.46433016 13.4829509 -2.81020178 16.26576773 -5.046875 20.87890625 C-4.28761719 21.06066406 -3.52835938 21.24242187 -2.74609375 21.4296875 C-1.75222656 21.68105469 -0.75835938 21.93242187 0.265625 22.19140625 C1.25175781 22.43503906 2.23789062 22.67867188 3.25390625 22.9296875 C5.95453512 23.87940214 7.16268716 24.69738302 8.953125 26.87890625 C8.38464844 27.3171875 7.81617188 27.75546875 7.23046875 28.20703125 C0.69509043 33.57498807 -3.17337667 39.40591912 -7.046875 46.87890625 C-8.50567609 46.73782878 -9.96391051 46.5908821 -11.421875 46.44140625 C-12.23398437 46.36019531 -13.04609375 46.27898437 -13.8828125 46.1953125 C-16.046875 45.87890625 -16.046875 45.87890625 -18.046875 44.87890625 C-17.44332092 41.02864746 -16.27914897 38.01789466 -14.484375 34.56640625 C-14.02933594 33.68339844 -13.57429687 32.80039062 -13.10546875 31.890625 C-12.58146484 30.89482422 -12.58146484 30.89482422 -12.046875 29.87890625 C-15.016875 28.88890625 -17.986875 27.89890625 -21.046875 26.87890625 C-20.171875 22.12890625 -20.171875 22.12890625 -19.046875 19.87890625 C-22.19627133 18.67520508 -22.19627133 18.67520508 -26.046875 18.87890625 C-28.81641979 21.22606873 -30.93135405 23.94032548 -33.046875 26.87890625 C-34.11174355 25.98588969 -35.17362541 25.08931155 -36.234375 24.19140625 C-36.8840625 23.64742188 -37.53375 23.1034375 -38.203125 22.54296875 C-40.046875 20.87890625 -40.046875 20.87890625 -42.234375 18.06640625 C-46.66307813 14.62185937 -51.57979192 14.97481999 -57.046875 14.87890625 C-57.046875 14.54890625 -57.046875 14.21890625 -57.046875 13.87890625 C-47.73071356 13.59904242 -38.92471968 14.3915678 -29.734375 15.87890625 C-28.50525391 16.0696875 -27.27613281 16.26046875 -26.00976562 16.45703125 C-23.02064761 16.92226363 -20.03323056 17.39631479 -17.046875 17.87890625 C-16.76384521 17.11215576 -16.48081543 16.34540527 -16.18920898 15.55541992 C-14.72349202 12.12121281 -12.64554665 9.92123564 -10.109375 7.19140625 C-9.23410156 6.23878906 -8.35882812 5.28617188 -7.45703125 4.3046875 C-3.00352622 -0.17768953 -3.00352622 -0.17768953 0 0 Z " fill="#C15C3E" transform="translate(617.046875,248.12109375)"/>
<path d="M0 0 C6.8186033 1.15158634 11.63616242 2.86815122 16.8125 7.6875 C18.68427139 11.33252849 19.11343626 14.9233845 19 19 C17.40594023 23.69362043 15.28109703 26.48718218 11 29 C4.42096112 30.86875423 -0.81835448 29.586646 -7 27 C-7 26.01 -7 25.02 -7 24 C-7.350625 23.29875 -7.70125 22.5975 -8.0625 21.875 C-9.41673929 17.72199952 -9.14342263 14.19746758 -8 10 C-6.11419223 6.49778557 -4.07633253 4.33485901 -0.1875 3.125 C0.8953125 3.063125 0.8953125 3.063125 2 3 C2 2.34 2 1.68 2 1 C1.34 0.67 0.68 0.34 0 0 Z " fill="#D1963D" transform="translate(778,381)"/>
<path d="M0 0 C6.99689594 1.20581427 12.98164403 2.68954506 17.9375 8.125 C19.53802004 12.45581893 19.65002973 16.44248821 19 21 C17.18766463 24.83378636 15.69973473 26.53351018 12.1875 28.875 C5.18924315 31.34497301 -0.35427048 29.53170648 -7 27 C-6.34 26.67 -5.68 26.34 -5 26 C-5.495 25.38125 -5.99 24.7625 -6.5 24.125 C-8.62750674 19.69269429 -8.93855624 15.82793331 -8 11 C-6.00982758 7.42541848 -3.78491147 4.55382891 0.203125 3.31640625 C0.79609375 3.21199219 1.3890625 3.10757812 2 3 C2 2.34 2 1.68 2 1 C1.34 0.67 0.68 0.34 0 0 Z " fill="#CF6243" transform="translate(912,355)"/>
<path d="M0 0 C3.56568061 1.54335429 6.31019147 3.24343581 8.9375 6.125 C10.53802004 10.45581893 10.65002973 14.44248821 10 19 C8.18766463 22.83378636 6.69973473 24.53351018 3.1875 26.875 C-4.61617313 29.62923758 -10.68638041 26.96247882 -18 24 C-17.01 23.34 -16.02 22.68 -15 22 C-15.66 21.01 -16.32 20.02 -17 19 C-17.76603375 14.7868144 -17.9475779 10.70817554 -15.83203125 6.89453125 C-11.32843264 1.46474269 -7.25546156 -2.17663847 0 0 Z " fill="#D89A3D" transform="translate(926,258)"/>
<path d="M0 0 C4.5007346 3.63889181 6.72702564 6.58872649 7.375 12.3125 C6.82414791 17.72921221 4.97706877 21.14275358 0.9375 24.9375 C-6.6335571 27.67596746 -13.86739762 26.22985768 -21 23 C-20.01 22.34 -19.02 21.68 -18 21 C-18.515625 20.175 -19.03125 19.35 -19.5625 18.5 C-21.27531453 14.32966898 -21.4692336 11.2128853 -20 7 C-17.77730751 3.41704776 -15.17252412 0.79224603 -11.6875 -1.5625 C-7.51088613 -2.24241389 -3.93057995 -1.51944379 0 0 Z " fill="#D16243" transform="translate(776,284)"/>
<path d="M0 0 C-3.79541663 2.21399303 -7.75629421 3.00980198 -12 4 C-10.33710937 4.07347656 -10.33710937 4.07347656 -8.640625 4.1484375 C-7.17705935 4.22349215 -5.71351888 4.29903881 -4.25 4.375 C-3.52039063 4.4059375 -2.79078125 4.436875 -2.0390625 4.46875 C1.82991759 4.67978528 4.62577514 5.12907766 8 7 C6.69546875 6.95359375 5.3909375 6.9071875 4.046875 6.859375 C-9.65602889 6.51562157 -21.50926036 7.16493159 -32 17 C-40.18211193 24.97154287 -44.99336989 33.24248805 -45.29272461 44.78710938 C-45.4066331 57.53361043 -43.0227981 67.50921445 -34 77 C-31.73618112 79.12728506 -29.43409529 81.06265885 -27 83 C-27.99 83.495 -27.99 83.495 -29 84 C-40.47387236 77.1312873 -46.90023437 68.85647324 -51.3125 56.25 C-53.88265629 43.87332505 -51.90184031 31.9875044 -45.3125 21.25 C-35.55371865 7.74912956 -22.64284911 3.27145625 -6.93896484 0.29443359 C-4.60646345 -0.05975889 -2.35462888 -0.12689617 0 0 Z " fill="#6391BF" transform="translate(106,123)"/>
<path d="M0 0 C9.34350191 1.39784674 18.59519042 3.54922613 27 8 C25.65070536 11.83663072 23.92248975 14.65172569 21.375 17.8125 C20.74335938 18.60269531 20.11171875 19.39289063 19.4609375 20.20703125 C18.97882813 20.79871094 18.49671875 21.39039063 18 22 C17.34515625 21.81824219 16.6903125 21.63648438 16.015625 21.44921875 C15.10296875 21.19785156 14.1903125 20.94648438 13.25 20.6875 C12.25742187 20.41292969 11.26484375 20.13835937 10.2421875 19.85546875 C8.04912766 19.27681802 5.84502958 18.73872479 3.6328125 18.23828125 C2.55773437 17.99464844 1.48265625 17.75101563 0.375 17.5 C-0.62789063 17.2834375 -1.63078125 17.066875 -2.6640625 16.84375 C-3.43492187 16.5653125 -4.20578125 16.286875 -5 16 C-6.39211215 11.82366356 -4.9535579 10.21039485 -3.0625 6.3125 C-2.49660156 5.13300781 -1.93070312 3.95351562 -1.34765625 2.73828125 C-0.90292969 1.83464844 -0.45820313 0.93101562 0 0 Z " fill="#C68E3B" transform="translate(377,223)"/>
<path d="M0 0 C3.92674825 1.30891608 5.11598069 3.50923214 7 7 C8.49616137 10.27758309 9.76751531 13.61540742 11 17 C11.37640625 18.02351563 11.7528125 19.04703125 12.140625 20.1015625 C13.97132294 25.29713483 15.23040634 29.43733261 15 35 C11.7 35 8.4 35 5 35 C4.814375 33.453125 4.62875 31.90625 4.4375 30.3125 C3.34417406 24.14358793 0.77750866 19.32816113 -2.34375 13.9453125 C-3.81060234 11.33680622 -4.96587681 8.80247386 -6 6 C-4.02 4.02 -2.04 2.04 0 0 Z " fill="#6AAAE9" transform="translate(474,250)"/>
<path d="M0 0 C3.33531653 1.15220025 6.36092603 2.46161704 9.4375 4.1875 C8.73625 4.868125 8.035 5.54875 7.3125 6.25 C1.54290855 12.0684863 -2.8122431 17.86952083 -6.5625 25.1875 C-8.02130109 25.04642253 -9.47953551 24.89947585 -10.9375 24.75 C-12.15566406 24.62818359 -12.15566406 24.62818359 -13.3984375 24.50390625 C-15.5625 24.1875 -15.5625 24.1875 -17.5625 23.1875 C-16.32137071 15.06243264 -9.0225452 0.4748708 0 0 Z " fill="#060402" transform="translate(616.5625,269.8125)"/>
<path d="M0 0 C-1.65 0.66 -3.3 1.32 -5 2 C-5.33 22.13 -5.66 42.26 -6 63 C32.28 63 70.56 63 110 63 C110 66.63 110 70.26 110 74 C109.67 74 109.34 74 109 74 C109 70.7 109 67.4 109 64 C103.36621045 64.0952059 97.73276977 64.20161168 92.09936523 64.31738281 C90.19219397 64.35512008 88.28496474 64.39005663 86.37768555 64.421875 C73.48113483 64.63948092 60.8037398 65.42418359 48 67 C48 66.67 48 66.34 48 66 C40.36695736 65.97669324 32.73391847 65.95899237 25.1008482 65.94818783 C21.55541909 65.94299874 18.01001457 65.93597448 14.46459961 65.92456055 C10.3761371 65.91148272 6.28769988 65.90673897 2.19921875 65.90234375 C0.94356613 65.89718246 -0.31208649 65.89202118 -1.60578918 65.88670349 C-8.79572229 65.88625109 -15.85403471 66.19318363 -23 67 C-17.38308992 64.09103183 -13.5194164 64 -7 64 C-7 43.54 -7 23.08 -7 2 C-8.32 1.67 -9.64 1.34 -11 1 C-3.375 -1.125 -3.375 -1.125 0 0 Z " fill="#7F7B73" transform="translate(844,359)"/>
<path d="M0 0 C3.75514634 2.0408404 4.77457968 3.28395898 6.0625 7.375 C5.98603205 11.81014124 4.80644332 13.63226802 2 17 C-0.82001327 18.41000664 -2.87007255 18.24548451 -6 18 C-10.63235294 15.73529412 -10.63235294 15.73529412 -12 13 C-12.68839635 6.00130378 -12.68839635 6.00130378 -9.9375 2 C-6.23727467 -0.51930235 -4.3968344 -0.7066341 0 0 Z " fill="#649CD2" transform="translate(646,222)"/>
<path d="M0 0 C2.875 1.5625 2.875 1.5625 5 4 C6.14009771 7.91908586 6.40888632 10.03158504 4.8125 13.8125 C2.85980888 16.16919618 1.94024566 17.18326509 -1 18 C-4.78825503 17.86470518 -7.23184073 17.49240979 -10.4375 15.4375 C-12.25759307 12.59815481 -12.63409202 10.33922437 -12.4453125 6.97265625 C-10.97112337 0.44225703 -5.94328138 -0.95517022 0 0 Z " fill="#649CD3" transform="translate(344,225)"/>
<path d="M0 0 C2.92710398 1.33810468 5.16754924 2.85686733 7.5625 5 C9.66995197 6.87746278 11.63332529 8.42221686 14 10 C13.01 10.33 12.02 10.66 11 11 C11 11.99 11 12.98 11 14 C12.4540625 14.61875 12.4540625 14.61875 13.9375 15.25 C14.948125 15.8275 15.95875 16.405 17 17 C17.33 18.32 17.66 19.64 18 21 C22.29 21.66 26.58 22.32 31 23 C31 23.33 31 23.66 31 24 C24.30738458 24.21943001 17.77852729 23.79079491 11.125 23.125 C10.29250732 23.04652832 9.46001465 22.96805664 8.60229492 22.88720703 C7.80799072 22.80325684 7.01368652 22.71930664 6.1953125 22.6328125 C5.12821045 22.52283936 5.12821045 22.52283936 4.03955078 22.41064453 C2 22 2 22 -2 20 C2.29 20.33 6.58 20.66 11 21 C11.33 19.68 11.66 18.36 12 17 C10.68 16.34 9.36 15.68 8 15 C6.68 15.99 5.36 16.98 4 18 C0.37 15.03 -3.26 12.06 -7 9 C-5.04783565 5.09567131 -3.12613393 2.96160056 0 0 Z " fill="#0A0603" transform="translate(425,278)"/>
<path d="M0 0 C1.98 0.99 1.98 0.99 4 2 C4 2.66 4 3.32 4 4 C4.85207031 3.84144531 5.70414062 3.68289063 6.58203125 3.51953125 C9.98463271 3.00233583 13.24779039 2.76340532 16.6875 2.6875 C17.80511719 2.65011719 18.92273438 2.61273438 20.07421875 2.57421875 C23 3 23 3 24.89453125 5.01953125 C25.25933594 5.67308594 25.62414062 6.32664062 26 7 C24.44533803 11.08332902 21.74912156 13.08208993 18.375 15.75 C17.37210937 16.54921875 16.36921875 17.3484375 15.3359375 18.171875 C14.56507813 18.77515625 13.79421875 19.3784375 13 20 C9.99149352 17.11243851 7.41285434 14.42008536 5.3125 10.8125 C3.96902334 8.52377593 2.89244764 6.89244764 1 5 C0.375 2.375 0.375 2.375 0 0 Z " fill="#0B0906" transform="translate(430,259)"/>
<path d="M0 0 C2.63318609 0.35109148 3.71836235 0.66035568 5.44140625 2.73828125 C6 5 6 5 4.83984375 7.48046875 C3.89818359 8.82044922 3.89818359 8.82044922 2.9375 10.1875 C-0.33492562 14.99912977 -3.25321415 19.87351028 -6 25 C-8.64 25 -11.28 25 -14 25 C-11.48054911 15.6780317 -6.01054733 7.43858517 0 0 Z " fill="#6DB0F2" transform="translate(556,278)"/>
<path d="M0 0 C2.4375 1.0625 2.4375 1.0625 5 3 C6.125 6.4375 6.125 6.4375 6 10 C1.34440451 15.61882214 -7.94404002 18.25726737 -15 19 C-11.44820852 10.86525176 -7.44063118 4.96042078 0 0 Z " fill="#E09F3C" transform="translate(626,274)"/>
<path d="M0 0 C2.64 0 5.28 0 8 0 C8 15.18 8 30.36 8 46 C9.485 45.505 9.485 45.505 11 45 C17.27 45 23.54 45 30 45 C30 30.15 30 15.3 30 0 C31.98 0 33.96 0 36 0 C36 0.33 36 0.66 36 1 C34.35 1 32.7 1 31 1 C31 15.85 31 30.7 31 46 C31.66 46.33 32.32 46.66 33 47 C32.410979 46.98952637 31.82195801 46.97905273 31.21508789 46.96826172 C28.49760354 46.92620446 25.78018804 46.9005182 23.0625 46.875 C21.67321289 46.84986328 21.67321289 46.84986328 20.25585938 46.82421875 C14.18127038 46.78159006 8.88164921 47.46775498 3 49 C3.66 48.34 4.32 47.68 5 47 C5.32997447 44.94092803 5.32997447 44.94092803 5.31884766 42.55029297 C5.33871735 41.62948944 5.35858704 40.70868591 5.37905884 39.75997925 C5.39638565 38.26617233 5.39638565 38.26617233 5.4140625 36.7421875 C5.43342865 35.72399933 5.4527948 34.70581116 5.4727478 33.6567688 C5.53265355 30.39626511 5.57897299 27.13572633 5.625 23.875 C5.66316965 21.66795313 5.70222077 19.46092131 5.7421875 17.25390625 C5.83836394 11.83607089 5.92337899 6.41814527 6 1 C4.02 1 2.04 1 0 1 C0 0.67 0 0.34 0 0 Z " fill="#88704E" transform="translate(807,231)"/>
<path d="M0 0 C0.66 0 1.32 0 2 0 C3.40234375 2.01171875 3.40234375 2.01171875 4.9375 4.6875 C5.44152344 5.55761719 5.94554688 6.42773438 6.46484375 7.32421875 C6.97144531 8.20722656 7.47804688 9.09023438 8 10 C8.99661316 11.66869409 9.99559434 13.33598466 11 15 C10.34 15 9.68 15 9 15 C8.34 17.97 7.68 20.94 7 24 C2.2783676 21.6391838 0.26055275 19.22097389 -2.3125 14.6875 C-3.48358099 10.10963794 -2.77313458 5.81914019 -0.9375 1.5 C-0.628125 1.005 -0.31875 0.51 0 0 Z " fill="#050709" transform="translate(70,292)"/>
<path d="M0 0 C1.7283032 1.62663831 3.36546644 3.28185858 5 5 C5.59683594 5.58136719 6.19367188 6.16273438 6.80859375 6.76171875 C8.68165754 8.81833445 9.97689931 10.40427292 11 13 C10.30890365 16.6981568 8.85427056 19.74502146 7 23 C3.51409184 22.3817727 2.91797534 21.91611115 0.25 19.1875 C-3.05786707 14.29185674 -2.78974858 8.68618975 -2 3 C-1.34 2.01 -0.68 1.02 0 0 Z " fill="#05070A" transform="translate(70,375)"/>
<path d="M0 0 C2.77581023 2.70211615 5.32734946 5.47686343 7.75 8.5 C8.36359375 9.2528125 8.9771875 10.005625 9.609375 10.78125 C11 13 11 13 11 17 C10.34375 19.140625 10.34375 19.140625 9.5 21.25 C9.2215625 21.95640625 8.943125 22.6628125 8.65625 23.390625 C8.33140625 24.18726563 8.33140625 24.18726563 8 25 C3.73659264 23.47735451 2.07387345 20.93320826 0 17 C-1.38913439 11.21906382 -0.9510444 5.81193802 0 0 Z " fill="#0B0F13" transform="translate(68,450)"/>
<path d="M0 0 C2.375 1.625 2.375 1.625 4 4 C4.61195145 7.6717087 4.48706506 9.28813568 2.375 12.375 C-0.71186432 14.48706506 -2.3282913 14.61195145 -6 14 C-8.375 12.375 -8.375 12.375 -10 10 C-10.61195145 6.3282913 -10.48706506 4.71186432 -8.375 1.625 C-5.28813568 -0.48706506 -3.6717087 -0.61195145 0 0 Z " fill="#EFEFEF" transform="translate(174,529)"/>
<path d="M0 0 C3.375 0.875 3.375 0.875 5.375 2.875 C6.54484597 6.63521919 6.71908929 8.21549553 4.875 11.75 C2.375 13.875 2.375 13.875 -1.125 14.5 C-4.625 13.875 -4.625 13.875 -7.125 11.6875 C-8.625 8.875 -8.625 8.875 -8.625 6.3125 C-6.70833983 1.64064083 -5.21453191 -0.17981145 0 0 Z " fill="#F0F0EF" transform="translate(75.625,241.125)"/>
<path d="M0 0 C11.2570365 -0.55463501 21.93052592 1.14589068 33 3 C26.84965831 10.48291572 26.84965831 10.48291572 23 13 C22.34515625 12.21753906 21.6903125 11.43507813 21.015625 10.62890625 C14.56179066 3.29983306 14.56179066 3.29983306 5.3125 0.8125 C3.54059983 0.82375731 1.76696754 0.86740034 0 1 C0 0.67 0 0.34 0 0 Z " fill="#1B150E" transform="translate(560,262)"/>
<path d="M0 0 C3.91211733 1.15585285 6.8745041 2.35534962 10 5 C9.43454163 8.95820859 8.19097652 11.6659053 6 15 C2.51329166 13.8905928 -0.77484237 12.73662334 -4 11 C-3.39301257 6.87248551 -1.96189209 3.6678852 0 0 Z " fill="#B4593E" transform="translate(619,129)"/>
<path d="M0 0 C2.43158266 0.92998964 3.91694237 2.12174358 5.84375 3.86328125 C6.76414062 4.68505859 6.76414062 4.68505859 7.703125 5.5234375 C8.39148438 6.15572266 8.39148438 6.15572266 9.09375 6.80078125 C8.38515965 9.99937136 7.86061364 11.85372906 5.09375 13.80078125 C1.78385324 13.36545036 -0.15396944 12.07517609 -2.65625 9.92578125 C-3.57664062 9.15621094 -3.57664062 9.15621094 -4.515625 8.37109375 C-5.90625 6.80078125 -5.90625 6.80078125 -5.90625 3.80078125 C-2.7283178 -0.28513157 -2.7283178 -0.28513157 0 0 Z " fill="#ECEBEB" transform="translate(422.90625,254.19921875)"/>
<path d="M0 0 C2 3 2 3 3 6 C2.34 6 1.68 6 1 6 C0.7525 6.99 0.505 7.98 0.25 9 C-0.52914031 11.77396055 -1.5408139 14.10989476 -2.9375 16.625 C-11.26474839 33.15474399 -9.6692962 54.62925041 -5 72 C-4.6456534 73.99638413 -4.30629793 75.99568149 -4 78 C-11.34418058 70.65581942 -10.45333393 56.01927129 -10.5 46.5 C-10.40396524 32.33801488 -8.26744929 21.12098474 -2.0390625 8.3203125 C-0.81220175 5.58063098 -0.24236838 2.98921002 0 0 Z " fill="#4A5F74" transform="translate(69,286)"/>
<path d="M0 0 C2.89932357 2.39509338 3.50168276 4.31245243 4 8 C4.969375 8.28875 5.93875 8.5775 6.9375 8.875 C10 10 10 10 11 12 C5.57818523 13.0188167 1.00105558 12.86360471 -4.4375 12.0625 C-5.16904297 11.96259766 -5.90058594 11.86269531 -6.65429688 11.75976562 C-8.43738769 11.51502767 -10.21888442 11.25872147 -12 11 C-8.87085918 7.7286255 -6.86532554 6.88653255 -2.375 6.4375 C-1.55773437 6.35371094 -0.74046875 6.26992188 0.1015625 6.18359375 C1.04128906 6.09271484 1.04128906 6.09271484 2 6 C1.34 4.02 0.68 2.04 0 0 Z " fill="#ECBB71" transform="translate(469,290)"/>
<path d="M0 0 C6.75 1.75 6.75 1.75 9 4 C9 4.99 9 5.98 9 7 C13.29 7.66 17.58 8.32 22 9 C22 9.33 22 9.66 22 10 C15.30738458 10.21943001 8.77852729 9.79079491 2.125 9.125 C1.29250732 9.04652832 0.46001465 8.96805664 -0.39770508 8.88720703 C-1.19200928 8.80325684 -1.98631348 8.71930664 -2.8046875 8.6328125 C-3.51608887 8.55949707 -4.22749023 8.48618164 -4.96044922 8.41064453 C-7 8 -7 8 -11 6 C-6.71 6.33 -2.42 6.66 2 7 C2.33 5.68 2.66 4.36 3 3 C1.64555699 1.22809091 1.64555699 1.22809091 0 0 Z " fill="#3A2313" transform="translate(434,292)"/>
<path d="M0 0 C0.84884766 1.07894531 0.84884766 1.07894531 1.71484375 2.1796875 C3.92363041 4.90574556 6.21039294 7.52216072 8.5625 10.125 C9.32691406 10.97320312 10.09132813 11.82140625 10.87890625 12.6953125 C12.54883667 14.5097857 14.2372722 16.27669423 16 18 C11.28525063 16.71102612 8.35230484 14.97487942 4.75 11.6875 C3.89921875 10.92824219 3.0484375 10.16898438 2.171875 9.38671875 C-0.02184589 6.97599309 -1.01859127 5.08053295 -2 2 C-1.34 1.34 -0.68 0.68 0 0 Z " fill="#5B7FA3" transform="translate(63,189)"/>
<path d="M0 0 C0.33 0.99 0.66 1.98 1 3 C2.65 3.33 4.3 3.66 6 4 C5.01 4.33 4.02 4.66 3 5 C2.34 4.67 1.68 4.34 1 4 C0.731875 5.0725 0.46375 6.145 0.1875 7.25 C-0.86227827 10.56508928 -1.74612328 12.43877646 -4 15 C-5.32 14.67 -6.64 14.34 -8 14 C-7.58682778 9.17965738 -5.61980085 7.09007389 -2 4 C-1.34 4 -0.68 4 0 4 C0 2.68 0 1.36 0 0 Z " fill="#5181B1" transform="translate(434,124)"/>
<path d="M0 0 C1.9375 0.8125 1.9375 0.8125 3.9375 2.8125 C3.57068342 5.74703261 3.07312754 6.67687246 0.9375 8.8125 C-1.6875 8.4375 -1.6875 8.4375 -4.0625 7.8125 C-4.75 5.5 -4.75 5.5 -5.0625 2.8125 C-3.54188901 0.41153528 -2.87462184 -0.26132926 0 0 Z " fill="#A97D3C" transform="translate(590.0625,101.1875)"/>
<path d="M0 0 C2.00720923 0.28674418 4.0085944 0.61866701 6 1 C6.04254356 2.99954746 6.04080783 5.00041636 6 7 C5 8 5 8 2.5625 8.1875 C0 8 0 8 -2 6 C-1.44444444 1.44444444 -1.44444444 1.44444444 0 0 Z " fill="#140D07" transform="translate(585,286)"/>
<path d="M0 0 C2.5625 0.1875 2.5625 0.1875 4.5625 2.1875 C4.02678571 5.72321429 4.02678571 5.72321429 2.5625 7.1875 C0.0625 7.3125 0.0625 7.3125 -2.4375 7.1875 C-3.4375 6.1875 -3.4375 6.1875 -3.5625 3.6875 C-3.39599509 0.35740177 -3.31519894 0.2550153 0 0 Z " fill="#AC583D" transform="translate(545.4375,248.8125)"/>
<path d="M0 0 C1.67542976 0.28604898 3.34385343 0.61781233 5 1 C5 2.98 5 4.96 5 7 C2.625 7.625 2.625 7.625 0 8 C-0.66 7.34 -1.32 6.68 -2 6 C-1.44444444 1.44444444 -1.44444444 1.44444444 0 0 Z " fill="#EDEDEC" transform="translate(586,276)"/>
<path d="M0 0 C1 2 1 2 0.4375 5 C0.293125 5.99 0.14875 6.98 0 8 C0.66 8.66 1.32 9.32 2 10 C1.625 12.625 1.625 12.625 1 15 C0.01 14.67 -0.98 14.34 -2 14 C-2.33 12.35 -2.66 10.7 -3 9 C-4.32 9.33 -5.64 9.66 -7 10 C-5.625 8.5 -5.625 8.5 -4 7 C-3.34 7 -2.68 7 -2 7 C-1.855625 6.030625 -1.71125 5.06125 -1.5625 4.0625 C-1 1 -1 1 0 0 Z " fill="#6C6660" transform="translate(591,148)"/>
<path d="M0 0 C0 3 0 3 -1 5 C-0.34 5.33 0.32 5.66 1 6 C-0.1241176 7.29243468 -1.24932592 8.58392075 -2.375 9.875 C-3.00148438 10.59429687 -3.62796875 11.31359375 -4.2734375 12.0546875 C-5.47426834 13.4076598 -6.7208345 14.7208345 -8 16 C-8 15.34 -8 14.68 -8 14 C-8.66 13.67 -9.32 13.34 -10 13 C-9.01 13 -8.02 13 -7 13 C-6.773125 12.154375 -6.54625 11.30875 -6.3125 10.4375 C-4.74263602 6.32595149 -2.65700952 3.49606516 0 0 Z " fill="#734F2B" transform="translate(613,264)"/>
<path d="M0 0 C0.99 0.66 1.98 1.32 3 2 C2.25 8.75 2.25 8.75 0 11 C-0.99 11 -1.98 11 -3 11 C-3.66 11.350625 -4.32 11.70125 -5 12.0625 C-7 13 -7 13 -10 12 C-9.36191406 11.69707031 -8.72382812 11.39414062 -8.06640625 11.08203125 C-7.24011719 10.66308594 -6.41382813 10.24414062 -5.5625 9.8125 C-4.73878906 9.40644531 -3.91507813 9.00039063 -3.06640625 8.58203125 C-0.77441279 7.14415009 -0.77441279 7.14415009 -0.21484375 4.44921875 C0.02912792 2.07771237 0.02912792 2.07771237 0 0 Z " fill="#714828" transform="translate(631,278)"/>
<path d="M0 0 C1.65 1.65 3.3 3.3 5 5 C4.67 5.66 4.34 6.32 4 7 C3.67 6.67 3.34 6.34 3 6 C1.51361008 5.84344973 0.02050873 5.74933057 -1.47265625 5.68359375 C-2.82133789 5.62075195 -2.82133789 5.62075195 -4.19726562 5.55664062 C-5.14279297 5.51732422 -6.08832031 5.47800781 -7.0625 5.4375 C-8.01189453 5.39431641 -8.96128906 5.35113281 -9.93945312 5.30664062 C-12.29281353 5.20020724 -14.64628354 5.09818992 -17 5 C-17 4.67 -17 4.34 -17 4 C-15.41058594 3.90912109 -15.41058594 3.90912109 -13.7890625 3.81640625 C-12.40102779 3.73199873 -11.01300768 3.64735083 -9.625 3.5625 C-8.92632812 3.52318359 -8.22765625 3.48386719 -7.5078125 3.44335938 C-3.62639508 3.25719866 -3.62639508 3.25719866 0 2 C0 1.34 0 0.68 0 0 Z " fill="#695940" transform="translate(467,257)"/>
<path d="M0 0 C0.99 0.33 1.98 0.66 3 1 C-0.96 4.96 -4.92 8.92 -9 13 C-9 8.86218946 -7.28490393 7.79080004 -4.5 4.8125 C-3.6646875 3.91144531 -2.829375 3.01039063 -1.96875 2.08203125 C-0.99421875 1.05142578 -0.99421875 1.05142578 0 0 Z " fill="#5880A7" transform="translate(70,134)"/>
<path d="M0 0 C-1.39750048 3.15835107 -3.05198234 5.32272825 -5.5 7.75 C-6.41265625 8.67039062 -6.41265625 8.67039062 -7.34375 9.609375 C-9 11 -9 11 -11 11 C-9.60249952 7.84164893 -7.94801766 5.67727175 -5.5 3.25 C-4.8915625 2.63640625 -4.283125 2.0228125 -3.65625 1.390625 C-2 0 -2 0 0 0 Z " fill="#A07739" transform="translate(269,464)"/>
<path d="M0 0 C3.80635497 3.20760251 7.54563567 6.40746109 11 10 C5.40717158 8.63589551 2.08806189 5.84616474 -2 2 C-1.34 1.34 -0.68 0.68 0 0 Z " fill="#4A5E71" transform="translate(68,197)"/>
<path d="M0 0 C1.051875 0.6496875 1.051875 0.6496875 2.125 1.3125 C6.23942462 3.72748837 10.30517827 3.7356314 15 4 C15 4.33 15 4.66 15 5 C7.87399867 5.35368021 2.52940894 4.95671348 -4 2 C-2.3125 0.8125 -2.3125 0.8125 0 0 Z " fill="#624B40" transform="translate(759,305)"/>
<path d="M0 0 C0.33 0.66 0.66 1.32 1 2 C0.67 2.66 0.34 3.32 0 4 C3.96 4.33 7.92 4.66 12 5 C12 5.33 12 5.66 12 6 C7.05 6.33 2.1 6.66 -3 7 C-1 1 -1 1 0 0 Z " fill="#513A2B" transform="translate(553,296)"/>
<path d="M0 0 C1.65 0.33 3.3 0.66 5 1 C4.67 2.32 4.34 3.64 4 5 C2.35 4.67 0.7 4.34 -1 4 C-0.67 2.68 -0.34 1.36 0 0 Z " fill="#BD5B3A" transform="translate(436,288)"/>
<path d="M0 0 C0.33 0.99 0.66 1.98 1 3 C2.65 3.33 4.3 3.66 6 4 C5.01 4.33 4.02 4.66 3 5 C2.34 4.67 1.68 4.34 1 4 C0.71125 5.134375 0.4225 6.26875 0.125 7.4375 C-0.24625 8.613125 -0.6175 9.78875 -1 11 C-1.99 11.495 -1.99 11.495 -3 12 C-2.34 10.02 -1.68 8.04 -1 6 C-1.66 5.67 -2.32 5.34 -3 5 C-2.01 4.67 -1.02 4.34 0 4 C0 2.68 0 1.36 0 0 Z " fill="#2E475F" transform="translate(434,124)"/>
<path d="M0 0 C-1.44077046 3.36179774 -3.24750021 5.59156268 -6 8 C-6.66 8 -7.32 8 -8 8 C-6.48291727 4.46014029 -4.24676932 0 0 0 Z " fill="#A37837" transform="translate(208,535)"/>
<path d="M0 0 C2.3431213 0.25561323 4.67843403 0.59270772 7 1 C7.33 1.66 7.66 2.32 8 3 C5.69 3.33 3.38 3.66 1 4 C0.67 2.68 0.34 1.36 0 0 Z " fill="#ECC282" transform="translate(472,299)"/>
<path d="M0 0 C2 0 2 0 4 1.875 C4.66 2.57625 5.32 3.2775 6 4 C6.66 4.66 7.32 5.32 8 6 C6.53984709 5.71758359 5.08190207 5.42373386 3.625 5.125 C2.81289063 4.96257812 2.00078125 4.80015625 1.1640625 4.6328125 C-1 4 -1 4 -3 2 C-2.01 1.67 -1.02 1.34 0 1 C0 0.67 0 0.34 0 0 Z " fill="#675844" transform="translate(911,279)"/>
<path d="M0 0 C0.1546875 0.86625 0.1546875 0.86625 0.3125 1.75 C1.09792798 4.32049158 2.30504197 5.93657284 4 8 C3.34 8 2.68 8 2 8 C1.67 8.66 1.34 9.32 1 10 C-0.83691257 6.21812119 -1.15837626 4.05431692 0 0 Z " fill="#5C3D25" transform="translate(379,279)"/>
<path d="M0 0 C2 0 2 0 4 1.875 C4.66 2.57625 5.32 3.2775 6 4 C6.66 4.66 7.32 5.32 8 6 C3.545 5.01 3.545 5.01 -1 4 C-0.34 3.67 0.32 3.34 1 3 C0.67 2.01 0.34 1.02 0 0 Z " fill="#64493C" transform="translate(906,378)"/>
<path d="M0 0 C3.64734979 0.22330713 5.38372835 0.38372835 8 3 C4.37 3 0.74 3 -3 3 C-2.01 2.01 -1.02 1.02 0 0 Z " fill="#685840" transform="translate(920,257)"/>
<path d="M0 0 C0.66 0.33 1.32 0.66 2 1 C1.67 1.33 1.34 1.66 1 2 C1.99 2.66 2.98 3.32 4 4 C-0.455 4.495 -0.455 4.495 -5 5 C-3.35 3.35 -1.7 1.7 0 0 Z " fill="#292A2B" transform="translate(129,202)"/>
</svg>
