<?xml version="1.0" encoding="UTF-8"?>
<svg version="1.1" xmlns="http://www.w3.org/2000/svg" width="1008" height="606">
<path d="M0 0 C332.64 0 665.28 0 1008 0 C1008 199.98 1008 399.96 1008 606 C675.36 606 342.72 606 0 606 C0 406.02 0 206.04 0 0 Z " fill="#D6CDC1" transform="translate(0,0)"/>
<path d="M0 0 C1.0003125 -0.020625 2.000625 -0.04125 3.03125 -0.0625 C15.43936777 -0.12729435 26.66138679 4.02760017 35.9296875 12.390625 C44.06151177 21.30940001 48.207434 31.1151452 48.0625 43.0625 C48.05420166 43.94397705 48.04590332 44.8254541 48.03735352 45.73364258 C47.71629547 58.13151042 43.29726996 66.36965509 34.74609375 75.1875 C23.62319346 85.61381462 11.00570089 87.45947819 -3.69750977 87.93603516 C-5.00580246 87.98509506 -6.31409515 88.03415497 -7.66203308 88.08470154 C-11.22313115 88.21805275 -14.78451523 88.34120535 -18.34604383 88.46243334 C-22.07783332 88.59122488 -25.80927049 88.72952704 -29.54075623 88.86679077 C-36.59508877 89.12485468 -43.64969409 89.37444977 -50.7044391 89.62095106 C-58.74101094 89.9021753 -66.77722971 90.19291902 -74.81343377 90.48443532 C-91.33358776 91.08349795 -107.85414115 91.670694 -124.375 92.25 C-123.41546008 93.54126232 -122.45429223 94.83131503 -121.49243164 96.12084961 C-120.68981651 97.1986393 -120.68981651 97.1986393 -119.87098694 98.29820251 C-115.49873812 104.00262682 -110.20688405 107.46327637 -103.875 110.75 C-89.8257155 118.07442514 -82.32830389 129.24031757 -76.07617188 143.49951172 C-75.76615234 144.20092285 -75.45613281 144.90233398 -75.13671875 145.625 C-74.86819092 146.25148437 -74.59966309 146.87796875 -74.32299805 147.5234375 C-73.42445479 149.35062205 -73.42445479 149.35062205 -71.7644043 150.86035156 C-71.30590088 151.31893555 -70.84739746 151.77751953 -70.375 152.25 C-70.38788405 155.31640407 -71.56787762 156.47813482 -73.5546875 158.828125 C-74.44414062 159.70984375 -75.33359375 160.5915625 -76.25 161.5 C-77.13429688 162.39203125 -78.01859375 163.2840625 -78.9296875 164.203125 C-81.375 166.25 -81.375 166.25 -84.375 166.25 C-89.28046642 161.08373663 -92.32508603 154.48317012 -95.375 148.125 C-100.66828117 137.19652716 -107.09537643 130.77225793 -117.78515625 124.93359375 C-129.27465622 118.54244559 -139.67356449 108.47790153 -143.44506836 95.59472656 C-143.90538452 93.93908691 -143.90538452 93.93908691 -144.375 92.25 C-145.32838037 92.31484872 -146.28176073 92.37969744 -147.26403141 92.44651127 C-157.42366489 93.11991285 -167.57766689 93.55447348 -177.75366211 93.88256836 C-179.43019788 93.93837822 -181.10672662 93.99439977 -182.7832489 94.0506134 C-186.3667422 94.17033867 -189.95027872 94.28863182 -193.53385735 94.40577507 C-199.25732095 94.59291879 -204.98066322 94.78361231 -210.70399475 94.9747467 C-221.87814778 95.3474525 -233.05241104 95.71678354 -244.2266922 96.08562469 C-261.22283588 96.64673784 -278.21890386 97.21009043 -295.21484375 97.77734375 C-296.17504283 97.80935363 -297.13524192 97.84136352 -298.12453794 97.8743434 C-327.88060801 98.86673696 -357.63114717 99.93480017 -387.375 101.25 C-387.375 102.24 -387.375 103.23 -387.375 104.25 C-388.550625 102.703125 -388.550625 102.703125 -389.75 101.125 C-396.37411727 93.40727846 -407.3822353 88.0029416 -417.53125 87.046875 C-428.31786594 86.83114268 -437.24238503 89.67100336 -446.375 95.25 C-447.70182111 95.92953512 -449.03338705 96.60015623 -450.375 97.25 C-461.84887236 90.3812873 -468.27523437 82.10647324 -472.6875 69.5 C-475.21430448 57.16324873 -473.26261541 45.42432453 -466.80078125 34.6171875 C-459.36744263 24.394181 -448.75323452 17.59418416 -436.375 15.25 C-432.59033663 14.88157096 -428.80792557 14.75881337 -425.00805664 14.64331055 C-423.3172271 14.58160219 -423.3172271 14.58160219 -421.59223938 14.51864719 C-417.82345056 14.38318516 -414.05436251 14.25997464 -410.28515625 14.13671875 C-407.57948355 14.04293487 -404.8739048 13.94655452 -402.1683197 13.85028076 C-396.33285588 13.64399498 -390.49720371 13.44399912 -384.66137695 13.2482605 C-376.1160802 12.96162299 -367.57114132 12.66525563 -359.02625394 12.36669171 C-345.10122391 11.88039178 -331.17594559 11.40162975 -317.25048828 10.92773438 C-304.31643469 10.48755883 -291.38249526 10.0442886 -278.44873047 9.59570312 C-277.67973341 9.56903214 -276.91073634 9.54236116 -276.11843634 9.51488197 C-272.25870887 9.38098932 -268.39898415 9.24701771 -264.53926086 9.11300468 C-256.88214455 8.84716055 -249.22501061 8.58182537 -241.56787109 8.31665039 C-240.81484852 8.29057178 -240.06182595 8.26449316 -239.28598452 8.23762429 C-221.96291785 7.63781493 -204.63967181 7.04325138 -187.31640625 6.44921875 C-156.48198232 5.39178318 -125.64771971 4.32980042 -94.8137207 3.26004028 C-88.70265102 3.04806774 -82.59155214 2.83695023 -76.48044491 2.62606335 C-71.96440235 2.47003887 -67.44838516 2.31328966 -62.93237495 2.15633202 C-60.88773134 2.08539751 -58.84307831 2.01473358 -56.79841423 1.94439125 C-45.00457394 1.53842825 -33.21344495 1.09086944 -21.42351437 0.58286667 C-14.2814307 0.27719842 -7.14929771 0.03896075 0 0 Z " fill="#6FB2F4" transform="translate(523.375,75.75)"/>
<path d="M0 0 C2.92161155 0.0110059 5.84317801 0.01046293 8.76480675 0.00986195 C11.60093499 0.01013328 14.43703315 0.01560281 17.2731514 0.02286339 C19.26070038 0.02754841 21.24825555 0.02931674 23.23580933 0.03102112 C25.03146835 0.0405909 25.03146835 0.0405909 26.86340332 0.050354 C27.91305267 0.0541658 28.96270203 0.0579776 30.04415894 0.06190491 C32.46939535 0.18044106 34.45807104 0.53900626 36.77990723 1.19561768 C41.10336168 1.66406889 45.44279176 1.94366516 49.77990723 2.25811768 C51.53367676 2.39443604 51.53367676 2.39443604 53.32287598 2.5335083 C58.8140974 2.93879823 64.22676253 3.22933015 69.73303223 3.11749268 C76.79465527 3.06192159 83.5865692 4.18187868 90.52990723 5.38311768 C91.18710754 5.49510498 91.84430786 5.60709229 92.52142334 5.72247314 C119.44371087 10.34010845 119.44371087 10.34010845 129.77990723 18.19561768 C131.77990723 21.19561768 131.77990723 21.19561768 131.65490723 24.50811768 C129.1497597 35.06552511 118.44616546 43.18508026 110.21740723 49.69561768 C102.84579754 55.59924205 92.99404853 63.54383271 90.77990723 73.19561768 C89.45473071 86.54606615 92.43237223 95.43863357 99.34240723 106.69561768 C106.34835828 118.14574779 109.02826352 129.70328831 106.15881348 143.09405518 C100.80107299 158.19097725 86.08017941 168.83947019 74.01428223 178.38311768 C61.49017907 188.4024002 50.46695637 198.10513131 46.77990723 214.19561768 C48.07541504 214.16081299 49.37092285 214.1260083 50.70568848 214.09014893 C66.38952622 213.80039541 81.89930507 214.80187756 96.77990723 220.19561768 C93.59228357 222.32070011 91.514785 222.69763397 87.77990723 223.19561768 C88.43990723 222.20561768 89.09990723 221.21561768 89.77990723 220.19561768 C87.44729699 219.71269446 85.11391134 219.23421909 82.77990723 218.75811768 C82.13150879 218.62341064 81.48311035 218.48870361 80.81506348 218.34991455 C72.39133887 216.64014867 64.36226265 216.05677903 55.77990723 216.13311768 C50.82990723 216.16405518 50.82990723 216.16405518 45.77990723 216.19561768 C45.77990723 225.43561768 45.77990723 234.67561768 45.77990723 244.19561768 C46.43990723 244.52561768 47.09990723 244.85561768 47.77990723 245.19561768 C47.44990723 245.52561768 47.11990723 245.85561768 46.77990723 246.19561768 C46.62335695 247.6820076 46.5292378 249.17510895 46.46350098 250.66827393 C46.42160645 251.56739502 46.37971191 252.46651611 46.33654785 253.3928833 C46.29723145 254.33841064 46.25791504 255.28393799 46.21740723 256.25811768 C46.15263184 257.68220947 46.15263184 257.68220947 46.08654785 259.1350708 C45.98011447 261.48843121 45.87809714 263.84190122 45.77990723 266.19561768 C46.76990723 266.52561768 47.75990723 266.85561768 48.77990723 267.19561768 C45.05492315 268.43727903 41.60687757 268.32714313 37.72839355 268.30914307 C36.90865555 268.30928909 36.08891754 268.30943512 35.24433899 268.30958557 C32.53351195 268.30888864 29.82275352 268.30110645 27.11193848 268.29327393 C25.2329258 268.29140897 23.35391263 268.28998543 21.47489929 268.28898621 C16.52815408 268.28516715 11.58143821 268.27534206 6.63470459 268.26428223 C1.58740638 268.25405498 -3.45989657 268.24948577 -8.50720215 268.2444458 C-18.41151192 268.23371927 -28.31579991 268.21665015 -38.22009277 268.19561768 C-38.22595901 267.54130768 -38.23182526 266.88699768 -38.23786926 266.21286011 C-38.30209795 259.36617842 -38.38659222 252.51995402 -38.48254395 245.67364502 C-38.51567647 243.12292533 -38.54374424 240.57213438 -38.56652832 238.02130127 C-38.60028886 234.34212039 -38.65261692 230.66358569 -38.70837402 226.98468018 C-38.71476395 225.85510895 -38.72115387 224.72553772 -38.72773743 223.56173706 C-39.03154136 206.98011668 -45.64151386 197.20910781 -57.33728027 185.84796143 C-61.79580646 181.74587568 -66.48809199 177.97482371 -71.22009277 174.19561768 C-96.85058311 153.47425597 -96.85058311 153.47425597 -99.22009277 140.19561768 C-100.2309395 125.48034078 -97.18777706 115.0725047 -89.44909668 102.55303955 C-83.75210081 93.29094999 -81.93804049 85.20618431 -83.22009277 74.19561768 C-86.55981116 62.38853247 -97.09195589 53.90875031 -106.33728027 46.58624268 C-109.61856497 43.86517732 -112.68554085 40.99876426 -115.72009277 38.00811768 C-116.22459961 37.52093262 -116.72910645 37.03374756 -117.24890137 36.53179932 C-121.43922405 32.33650338 -124.22009277 28.60909791 -124.22009277 22.57061768 C-122.8370216 17.90275245 -120.09416954 16.2931976 -115.98571777 13.88702393 C-81.6220056 -1.53395871 -36.98753219 -0.17661457 0 0 Z " fill="#DC6544" transform="translate(502.2200927734375,275.80438232421875)"/>
<path d="M0 0 C1 2 1 2 0.4375 4.9375 C-0.37098636 8.16588156 -0.37098636 8.16588156 2 11 C5.05996253 11.86477202 7.2096797 12.19224007 10.3125 11.4375 C12.81996393 9.3015122 12.67454734 7.18943606 13 4 C13.33 3.01 13.66 2.02 14 1 C16 3 16 3 16.22705078 5.79736328 C16.21657715 6.95993652 16.20610352 8.12250977 16.1953125 9.3203125 C16.18886719 10.57714844 16.18242188 11.83398438 16.17578125 13.12890625 C16.15902344 14.44761719 16.14226562 15.76632813 16.125 17.125 C16.11496983 18.46483721 16.10584404 19.80468152 16.09765625 21.14453125 C16.07402075 24.42986573 16.04107234 27.71484465 16 31 C16.64159058 30.42100952 16.64159058 30.42100952 17.29614258 29.83032227 C38.08442778 11.48036224 63.83223405 6.58435579 90.74365234 7.78125 C106.2100845 8.8202306 123.01115979 14.0589336 134.390625 25.0859375 C140.61957676 32.49415683 144.57964478 40.74209458 144.3125 50.54296875 C142.9737657 61.06876716 137.26041781 69.98313183 129.08984375 76.5625 C114.82319241 86.37582279 98.60888835 89.23497552 81.6875 89.25 C81.01049042 89.25067474 80.33348083 89.25134949 79.63595581 89.25204468 C69.43030279 89.23585219 59.88475656 88.77623967 50 86 C48.74832031 85.6596875 47.49664062 85.319375 46.20703125 84.96875 C32.80664682 81.05590586 21.52348089 74.11711708 11 65 C10.31385898 68.99693798 9.64902287 72.99686656 9 77 C8.88269531 77.7115625 8.76539062 78.423125 8.64453125 79.15625 C6.76175277 92.03554626 7.91967454 104.991958 13 117 C13.42667969 116.5875 13.85335937 116.175 14.29296875 115.75 C32.78309368 98.67046192 55.47257296 91.85052091 80.0625 91.75 C81.29677734 91.729375 82.53105469 91.70875 83.80273438 91.6875 C102.26276031 91.61022098 120.50395452 96.30090741 134.25390625 109.09765625 C140.91747779 116.05575029 144.13683953 122.83085262 144.5 132.5 C144.16529351 141.99450743 140.62240941 150.16396448 134 157 C120.69632902 168.22278044 103.21264657 173.39466228 86 174 C85.15695313 174.03996094 84.31390625 174.07992187 83.4453125 174.12109375 C58.70292636 174.74515987 35.56777223 166.63129694 16.4765625 151.00390625 C14.18518829 149.00302917 14.18518829 149.00302917 12 148 C6.69950781 162.5053648 5.65899808 178.27549472 11 193 C11.64020207 194.34624052 12.29817174 195.68483487 13 197 C14.2375 196.14728516 14.2375 196.14728516 15.5 195.27734375 C41.48356538 177.74387341 71.89325472 171.04445448 102.87670898 176.65795898 C115.63810824 179.20218476 129.90641265 184.2507043 138 195 C142.88850044 203.12203979 145.26884669 210.88747407 143.57421875 220.38671875 C140.97754343 230.53446219 135.36361781 237.86201023 126.5859375 243.4765625 C125.73257813 243.97929687 124.87921875 244.48203125 124 245 C123.22914063 245.46148437 122.45828125 245.92296875 121.6640625 246.3984375 C100.32599257 258.09538613 72.83067558 257.33840767 50 251 C45.80045835 249.64077335 41.92493527 248.01322111 38 246 C37.0203125 245.50886719 36.040625 245.01773438 35.03125 244.51171875 C27.91235587 240.66788287 22.26799348 235.93536771 16.49609375 230.35546875 C14.03888344 227.90486116 14.03888344 227.90486116 11 226 C8.02117377 233.85545304 7.51468217 242.29831377 10.0625 250.36328125 C16.65602606 264.46411008 28.64841341 272.26703536 42.8125 277.6875 C59.75515424 283.78444089 77.13934737 285.47279125 95.01098633 286.22973633 C96.2358374 286.2892749 97.46068848 286.34881348 98.72265625 286.41015625 C99.81328369 286.45277588 100.90391113 286.49539551 102.02758789 286.53930664 C105.3480441 287.05394326 107.30179794 288.02544668 110 290 C111.60725635 293.21451269 111.05748185 296.43612536 111 300 C110.34 300.33 109.68 300.66 109 301 C109.0928125 299.1128125 109.0928125 299.1128125 109.1875 297.1875 C109.17106609 293.93816354 109.17106609 293.93816354 107.875 291 C105.10184376 289.52098334 103.08815875 289.61398016 100 290 C98 291 98 291 97 293 C96.60984439 296.12124489 96.44122451 298.09975061 98.125 300.8125 C100.66676215 302.42228269 103.0398108 302.67109009 106 303 C106 303.33 106 303.66 106 304 C71.23527727 304.98857031 33.07837877 299.91122927 6.44140625 275.62890625 C5 274 5 274 5 272 C4.34 272 3.68 272 3 272 C-6.39454922 259.82873672 -10.15017007 247.2358145 -9 232 C-7.71942879 225.95543847 -5.95485271 220.27102545 -2.6875 215 C-0.74687498 212.22654429 -0.74687498 212.22654429 -1.24609375 209.64453125 C-2.04918687 206.82746366 -3.13635023 204.3412133 -4.375 201.6875 C-11.8323633 184.04921463 -12.33559654 163.59738677 -5.7578125 145.6015625 C-4.92938376 143.6162747 -4.07502187 141.64140317 -3.18359375 139.68359375 C-0.47794547 134.29719743 -0.47794547 134.29719743 -0.7578125 128.5703125 C-1.20898438 127.76335937 -1.66015625 126.95640625 -2.125 126.125 C-11.08336709 107.69285291 -12.56583786 83.81815724 -6.296875 64.26171875 C-5.35008253 61.88047865 -4.37237317 59.54475008 -3.328125 57.20703125 C-3.04662598 56.57522949 -2.76512695 55.94342773 -2.47509766 55.29248047 C-1.67751374 53.55208915 -0.82868772 51.83544047 0.0234375 50.12109375 C1.24508487 46.21670875 0.50952717 44.73535864 -1 41 C-2.20285466 34.13817838 -2.18610205 27.33177604 -2.18530273 20.39208984 C-2.18750855 18.24166618 -2.20576397 16.09174075 -2.22460938 13.94140625 C-2.22754043 12.57031424 -2.22952715 11.19921982 -2.23046875 9.828125 C-2.23457764 8.5896582 -2.23868652 7.35119141 -2.24291992 6.07519531 C-2 3 -2 3 0 0 Z " fill="#6BA9E7" transform="translate(68,240)"/>
<path d="M0 0 C16.4501397 15.01860082 28.39131993 36.52645539 29.71704102 59.02490234 C30.81504165 87.80603995 24.25102355 110.33748914 5.0703125 132.16796875 C-8.10575913 146.12484462 -25.39285033 156.09967018 -44.44140625 159.3359375 C-46.09140625 159.3359375 -47.74140625 159.3359375 -49.44140625 159.3359375 C-49.44140625 200.9159375 -49.44140625 242.4959375 -49.44140625 285.3359375 C-48.12140625 285.0059375 -46.80140625 284.6759375 -45.44140625 284.3359375 C-43.52579371 284.26905159 -41.60805033 284.25062031 -39.69140625 284.2734375 C-38.7065625 284.28246094 -37.72171875 284.29148437 -36.70703125 284.30078125 C-35.58554687 284.31818359 -35.58554687 284.31818359 -34.44140625 284.3359375 C-34.44140625 284.6659375 -34.44140625 284.9959375 -34.44140625 285.3359375 C-35.85679687 285.46548828 -35.85679687 285.46548828 -37.30078125 285.59765625 C-51.47412059 287.14875463 -61.22995298 290.99499117 -71.44140625 301.3359375 C-72.76140625 302.6559375 -74.08140625 303.9759375 -75.44140625 305.3359375 C-75.11140625 257.1559375 -74.78140625 208.9759375 -74.44140625 159.3359375 C-77.74140625 159.0059375 -81.04140625 158.6759375 -84.44140625 158.3359375 C-107.42401814 152.51491269 -127.98405781 137.67048292 -140.48974609 117.47998047 C-153.17148292 96.1791309 -157.67009216 70.14479346 -151.75390625 45.8359375 C-150.02504701 39.33539561 -147.56255011 33.28447051 -144.44140625 27.3359375 C-143.81492187 26.02109375 -143.81492187 26.02109375 -143.17578125 24.6796875 C-132.3475183 3.02316159 -112.02788644 -12.07012159 -89.44140625 -19.6640625 C-57.44564673 -29.22903164 -25.22880496 -21.45730001 0 0 Z " fill="#DC9D3D" transform="translate(887.44140625,72.6640625)"/>
<path d="M0 0 C0.33 0.66 0.66 1.32 1 2 C2.8248291 1.99214478 2.8248291 1.99214478 4.68652344 1.98413086 C27.81325523 1.89328922 50.89512034 1.85736752 74 3 C72.91719014 21.0451405 70.45120023 35.18257552 56.875 48.1875 C42.76067232 59.4914527 22.43626099 62.37646882 5.14819336 65.12524414 C-18.04832622 68.93303977 -34.85927485 80.3226896 -51.67211914 96.01025391 C-56.58825275 100.59121521 -61.72277902 104.84353903 -67 109 C-68.45212891 110.1446875 -68.45212891 110.1446875 -69.93359375 111.3125 C-81.08621101 119.89812993 -92.67026352 126.49617481 -106 131 C-106.62938477 131.21317871 -107.25876953 131.42635742 -107.90722656 131.64599609 C-126.81940976 137.73284219 -148.15148769 136.79924465 -167 131 C-167.89332031 130.72623535 -168.78664063 130.4524707 -169.70703125 130.17041016 C-181.06486949 126.62588858 -192.20642649 122.57241265 -203.3125 118.3125 C-213.36675422 114.46817838 -223.46024659 111.22429137 -234 109 C-234.83547363 108.81598633 -235.67094727 108.63197266 -236.53173828 108.44238281 C-246.10006458 106.57303541 -255.66390231 106.60269894 -265.375 106.625 C-266.26328491 106.62554382 -267.15156982 106.62608765 -268.06677246 106.62664795 C-286.8135599 106.6794332 -303.65225113 109.19338411 -321.48535156 115.06884766 C-325.81108243 116.48020131 -329.38150856 117.32566286 -334 117 C-334 100.33333333 -334 83.66666667 -334 67 C-320.06955487 62.35651829 -300.67651716 66.83364378 -287 71 C-287.66 71.66 -288.32 72.32 -289 73 C-286.03 72.505 -286.03 72.505 -283 72 C-283 71.34 -283 70.68 -283 70 C-281.16830682 69.51460131 -279.33453941 69.03702814 -277.5 68.5625 C-276.4790625 68.29566406 -275.458125 68.02882813 -274.40625 67.75390625 C-244.27147164 61.08416746 -212.88218289 69.23605444 -185.77099609 82.59863281 C-182.6306859 84.09850442 -180.51193948 85.04799433 -177 84.71875 C-176.34 84.4815625 -175.68 84.244375 -175 84 C-175 84.99 -175 85.98 -175 87 C-171.91729306 87.98114627 -168.83372822 88.95956877 -165.75 89.9375 C-164.87730469 90.21529297 -164.00460937 90.49308594 -163.10546875 90.77929688 C-162.26113281 91.04677734 -161.41679688 91.31425781 -160.546875 91.58984375 C-159.77182617 91.83597412 -158.99677734 92.08210449 -158.19824219 92.33569336 C-146.39540023 95.90250066 -131.45630187 95.51308861 -120 91 C-119.07832031 90.67128906 -118.15664063 90.34257813 -117.20703125 90.00390625 C-97.30468736 82.40578553 -80.3682428 68.41895235 -65 54 C-63.67276923 52.82639556 -62.33982548 51.65920514 -61 50.5 C-57.798943 47.72444137 -54.67900383 44.8701228 -51.5625 42 C-46.89325579 37.73507582 -42.0682602 33.77929526 -37 30 C-38.30195312 29.82984375 -39.60390625 29.6596875 -40.9453125 29.484375 C-42.67198891 29.24038812 -44.39854539 28.99555146 -46.125 28.75 C-46.9809375 28.64042969 -47.836875 28.53085937 -48.71875 28.41796875 C-54.14410757 27.62503187 -57.78646063 26.58083537 -62 23 C-62.33 22.01 -62.66 21.02 -63 20 C-60.33333333 17.33333333 -57.66666667 14.66666667 -55 12 C-51 13.33333333 -47 14.66666667 -43 16 C-28.44310103 16.80785352 -16.71783235 15.67494303 -5.3984375 5.5703125 C-4.229812 4.41535513 -3.1102491 3.21118084 -2 2 C-1.34 1.34 -0.68 0.68 0 0 Z " fill="#6EB0F1" transform="translate(882,425)"/>
<path d="M0 0 C16.5 0 33 0 50 0 C50 47.19 50 94.38 50 143 C-6.76 143 -63.52 143 -122 143 C-115.38387356 135.28118582 -109.28402898 130.61833864 -100.34936523 126.06884766 C-85.64224521 118.57252655 -77.94134986 108.02790215 -72.5 92.5 C-66.02143013 74.03886292 -55.72468264 64.02838698 -38.81201172 54.97851562 C-24.95852163 47.49740699 -16.84610492 36.75604353 -11.546875 22.03125 C-11.29832764 21.34240723 -11.04978027 20.65356445 -10.79370117 19.94384766 C-10.32627056 18.62130775 -9.87430176 17.29313464 -9.44262695 15.95849609 C-7.20432865 9.47715552 -4.30351271 6.1478753 0 0 Z " fill="#DA9C3D" transform="translate(320,401)"/>
<path d="M0 0 C2.52060966 2.20169106 4.89606938 4.48504153 7.25 6.86328125 C7.94738281 7.52714844 8.64476562 8.19101563 9.36328125 8.875 C22.0334166 21.7911574 26.78845512 39.4165234 26.67236328 57.10742188 C26.03785548 76.56566099 16.91159442 92.73152902 3.125 106.05078125 C-11.63429555 118.50793365 -29.74463473 123.379871 -48.75 121.86328125 C-66.9018677 119.80872919 -82.80398533 110.28082615 -94.6171875 96.57421875 C-106.62028552 81.31753373 -110.66363417 63.9761907 -108.75 44.86328125 C-106.66583304 29.4377478 -99.77701757 16.77758654 -88.75 5.86328125 C-87.75419922 4.81720703 -87.75419922 4.81720703 -86.73828125 3.75 C-80.13250957 -2.72994746 -72.1549035 -6.50894229 -63.75 -10.13671875 C-62.85796875 -10.52214844 -61.9659375 -10.90757813 -61.046875 -11.3046875 C-41.16604857 -18.13471335 -16.20126881 -12.58820176 0 0 Z " fill="#D6CDC1" transform="translate(866.75,87.13671875)"/>
<path d="M0 0 C0.5671875 0.721875 1.134375 1.44375 1.71875 2.1875 C3.90033749 4.87712841 6.16607095 7.44226953 8.5 10 C11.46134644 13.24531117 14.2853847 16.54503508 17 20 C15 19 13 18 11 17 C5.69950781 31.5053648 4.65899808 47.27549472 10 62 C10.64020207 63.34624052 11.29817174 64.68483487 12 66 C12.825 65.43152344 13.65 64.86304688 14.5 64.27734375 C40.48356538 46.74387341 70.89325472 40.04445448 101.87670898 45.65795898 C114.63810824 48.20218476 128.90641265 53.2507043 137 64 C141.88850044 72.12203979 144.26884669 79.88747407 142.57421875 89.38671875 C139.97754343 99.53446219 134.36361781 106.86201023 125.5859375 112.4765625 C124.73257813 112.97929687 123.87921875 113.48203125 123 114 C122.22914063 114.46148437 121.45828125 114.92296875 120.6640625 115.3984375 C99.32599257 127.09538613 71.83067558 126.33840767 49 120 C44.80045835 118.64077335 40.92493527 117.01322111 37 115 C35.53046875 114.26330078 35.53046875 114.26330078 34.03125 113.51171875 C26.91235587 109.66788287 21.26799348 104.93536771 15.49609375 99.35546875 C13.03888344 96.90486116 13.03888344 96.90486116 10 95 C7.02117377 102.85545304 6.51468217 111.29831377 9.0625 119.36328125 C15.65602606 133.46411008 27.64841341 141.26703536 41.8125 146.6875 C58.75515424 152.78444089 76.13934737 154.47279125 94.01098633 155.22973633 C95.2358374 155.2892749 96.46068848 155.34881348 97.72265625 155.41015625 C98.81328369 155.45277588 99.90391113 155.49539551 101.02758789 155.53930664 C104.3480441 156.05394326 106.30179794 157.02544668 109 159 C110.60725635 162.21451269 110.05748185 165.43612536 110 169 C109.34 169.33 108.68 169.66 108 170 C108.0928125 168.1128125 108.0928125 168.1128125 108.1875 166.1875 C108.17106609 162.93816354 108.17106609 162.93816354 106.875 160 C104.10184376 158.52098334 102.08815875 158.61398016 99 159 C97 160 97 160 96 162 C95.60984439 165.12124489 95.44122451 167.09975061 97.125 169.8125 C99.66676215 171.42228269 102.0398108 171.67109009 105 172 C105 172.33 105 172.66 105 173 C70.23527727 173.98857031 32.07837877 168.91122927 5.44140625 144.62890625 C4 143 4 143 4 141 C3.34 141 2.68 141 2 141 C-7.39454922 128.82873672 -11.15017007 116.2358145 -10 101 C-8.71942879 94.95543847 -6.95485271 89.27102545 -3.6875 84 C-1.74687498 81.22654429 -1.74687498 81.22654429 -2.24609375 78.64453125 C-3.04918687 75.82746366 -4.13635023 73.3412133 -5.375 70.6875 C-12.86268724 52.97749192 -13.22136617 32.70093388 -6.79296875 14.6015625 C-4.75926075 9.62481482 -2.50947079 4.75478676 0 0 Z " fill="#6BA9E7" transform="translate(69,371)"/>
<path d="M0 0 C1.09123798 0.00030024 1.09123798 0.00030024 2.20452118 0.00060654 C7.08567752 0.00326546 11.96656745 0.02084407 16.84765625 0.046875 C18.74048592 0.05346886 18.74048592 0.05346886 20.67155457 0.06019592 C21.83447525 0.06965744 22.99739594 0.07911896 24.19555664 0.08886719 C25.21202774 0.09569519 26.22849884 0.10252319 27.27577209 0.10955811 C29.66499949 0.23562194 31.64663075 0.60729917 33.9375 1.25 C38.26095446 1.71845122 42.60038454 1.99804748 46.9375 2.3125 C48.69126953 2.44881836 48.69126953 2.44881836 50.48046875 2.58789062 C55.97169018 2.99318055 61.3843553 3.28371247 66.890625 3.171875 C73.95232058 3.11630334 80.74405155 4.23660716 87.6875 5.4375 C88.34436798 5.54915497 89.00123596 5.66080994 89.67800903 5.77584839 C115.39581124 10.17425109 115.39581124 10.17425109 125.9375 17.25 C127.1265123 20.0706872 126.88539388 22.12363252 126.9375 25.25 C85.04209365 55.7987338 -2.2588892 46.40529263 -51.0625 42.25 C-52.34253906 42.14139648 -53.62257813 42.03279297 -54.94140625 41.92089844 C-111.76922366 36.8816168 -111.76922366 36.8816168 -125.0625 25.25 C-126.0625 21.75 -126.0625 21.75 -125.0625 18.25 C-97.51877136 -5.85076256 -34.42471592 -0.02091315 0 0 Z " fill="#E2A13E" transform="translate(505.0625,275.75)"/>
<path d="M0 0 C15.84 0 31.68 0 48 0 C48 46.53 48 93.06 48 141 C32.16 141 16.32 141 0 141 C0 94.47 0 47.94 0 0 Z " fill="#D6CDC1" transform="translate(321,402)"/>
<path d="M0 0 C8.23116524 7.52618118 12.31421688 17.31466785 13.6953125 28.29296875 C14.14318656 39.59432412 10.6581319 50.60904462 3.3125 59.25 C-4.38963924 67.53882562 -13.66954574 72.6792938 -25.03515625 73.48828125 C-33.71460166 73.66168763 -40.66731909 72.59547584 -48.6875 69.25 C-48.66429688 70.19230469 -48.64109375 71.13460937 -48.6171875 72.10546875 C-48.6875 75.25 -48.6875 75.25 -49.8125 77.5625 C-52.42406205 79.91290584 -54.19824078 80.18021482 -57.6875 80.25 C-60.5 79.1875 -60.5 79.1875 -62.6875 77.25 C-63.69115183 74.10522426 -63.96751895 72.16642567 -63 69 C-61.4006025 66.86747 -60.19427489 66.13474408 -57.6875 65.25 C-56.3675 65.25 -55.0475 65.25 -53.6875 65.25 C-54.19539063 64.86070312 -54.70328125 64.47140625 -55.2265625 64.0703125 C-63.0107523 57.74383614 -68.86835008 49.26284169 -70.6875 39.25 C-71.79383961 27.09392276 -70.37247502 15.73805746 -62.375 6.12109375 C-61.818125 5.50363281 -61.26125 4.88617188 -60.6875 4.25 C-60.089375 3.56035156 -59.49125 2.87070313 -58.875 2.16015625 C-42.73188085 -15.31737396 -17.84617451 -14.12822149 0 0 Z " fill="#F2F2F2" transform="translate(130.6875,172.75)"/>
<path d="M0 0 C8.22296773 6.2670191 15.15650596 14.98274268 17.27734375 25.33984375 C18.93021259 38.94770911 16.82112026 50.41357496 8.46484375 61.4375 C1.62971375 69.52176053 -6.90571815 74.69771679 -17.4375 76.6875 C-30.60725981 77.72275174 -42.16085141 75.27693763 -52.4375 66.6875 C-60.74257105 58.98424569 -65.87458358 49.67906754 -66.67578125 38.3046875 C-66.9405089 24.9568406 -63.62872386 14.45458358 -54.4375 4.52734375 C-39.34788531 -9.88862743 -17.44371901 -11.57699737 0 0 Z " fill="#F2F2F2" transform="translate(532.4375,85.3125)"/>
<path d="M0 0 C9.5984508 6.61103672 15.23491329 14.69444752 18.859375 25.73046875 C21.20618461 38.6144535 18.91929012 50.81989367 11.625 61.6875 C5.04759406 70.17566074 -4.0816413 76.15142116 -14.75 77.875 C-28.70862744 78.88336318 -39.64158562 77.12373962 -50.71875 67.8125 C-59.50933183 59.42763733 -63.76291547 50.71515883 -64.27197266 38.57495117 C-64.45611126 26.59152149 -62.38947378 17.84025268 -54.5 8.5 C-39.71532781 -6.67374251 -18.68127222 -11.13641539 0 0 Z " fill="#F2F2F2" transform="translate(870.75,364.125)"/>
<path d="M0 0 C14.23416937 -0.56372948 25.98307133 -0.16080742 37 10 C42.16762497 15.11073368 46.44303512 20.1426851 49 27 C48.18125567 30.10292235 47.10977042 30.92999671 44.390625 32.6640625 C40.49268814 34.19988555 36.87679395 34.81003324 32.75 35.375 C22.54177124 36.97428917 13.447307 40.31461486 6.8671875 48.7265625 C6.20976563 49.68304688 5.55234375 50.63953125 4.875 51.625 C2.65733222 54.84363845 1.27269643 56.81820238 -2 59 C-1.42176904 63.06225548 -0.10882263 65.84762346 2.0625 69.3125 C2.61035156 70.19550781 3.15820312 71.07851562 3.72265625 71.98828125 C4.35494141 72.98408203 4.35494141 72.98408203 5 74 C12.2848958 72.61618792 16.4905443 66.54642231 20.59375 60.828125 C24.25887302 56.06346507 28.68287166 53.39216885 34.53125 52.40234375 C35.8409375 52.24894531 37.150625 52.09554687 38.5 51.9375 C44.30959453 51.28141507 44.30959453 51.28141507 50 50 C49.22762065 59.78347178 43.73442287 67.15922636 36.83203125 73.73046875 C25.63548594 82.70314851 13.8529895 84.1345787 0 83 C-7.47943574 81.47269399 -13.32122847 78.00358851 -19 73 C-19.61746094 72.47535156 -20.23492188 71.95070313 -20.87109375 71.41015625 C-28.07065453 64.82991253 -32.45512167 55.62236743 -33.25390625 45.9140625 C-33.64841279 34.3842907 -31.6611676 23.97145559 -23.98046875 15.0625 C-18.2014549 9.04411871 -12.34020544 3.12691986 -4 1 C-3.01 1.33 -2.02 1.66 -1 2 C-1.185625 2.556875 -1.37125 3.11375 -1.5625 3.6875 C-2.07551165 6.399133 -1.6640724 8.34371039 -1 11 C-0.34 11 0.32 11 1 11 C0.47731534 8.23723823 -0.10869587 5.6739124 -1 3 C-0.67 2.01 -0.34 1.02 0 0 Z " fill="#F0F0F0" transform="translate(593,146)"/>
<path d="M0 0 C4.15101777 4.0043082 6.50937206 7.72353257 6.875 13.5625 C6.60935204 19.38461786 3.3272029 22.89829826 -0.8125 26.6875 C-14.6934724 37.92727258 -34.66834329 38.9979653 -51.82714844 37.34423828 C-65.74556021 35.58354991 -78.90608024 31.55173152 -90.5625 23.5625 C-91.68785156 22.79292969 -91.68785156 22.79292969 -92.8359375 22.0078125 C-93.69058594 21.29238281 -93.69058594 21.29238281 -94.5625 20.5625 C-94.5625 19.9025 -94.5625 19.2425 -94.5625 18.5625 C-95.2225 18.5625 -95.8825 18.5625 -96.5625 18.5625 C-98.1875 16.0625 -98.1875 16.0625 -99.5625 13.5625 C-76.65021936 -11.39822958 -28.30742211 -23.27270819 0 0 Z " fill="#D6CDC1" transform="translate(188.5625,275.4375)"/>
<path d="M0 0 C15.08492684 -0.51293414 32.41951904 1.82192804 43.96875 12.328125 C48.48616178 17.34747143 50.09195006 20.71299142 49.984375 27.5 C49.15437452 33.10455766 45.76962775 36.43939823 41.45703125 39.8515625 C32.8438444 45.53683435 21.89161159 48.74142587 11.58984375 49.1640625 C10.45417969 49.215625 9.31851563 49.2671875 8.1484375 49.3203125 C-13.2013845 49.82118809 -32.65834844 44.8399734 -49.41015625 31.1640625 C-51.66312783 28.91931344 -53.50604333 26.72101413 -55.41015625 24.1640625 C-40.95009891 7.98256976 -21.11355137 1.43722716 0 0 Z " fill="#D6CDC1" transform="translate(145.41015625,347.8359375)"/>
<path d="M0 0 C6.07362767 4.85890213 9.35481917 11.61296565 10.27929688 19.33203125 C11.21840377 32.90159829 9.91548699 44.23052502 0.91015625 54.9375 C-9.98490276 66.7014901 -21.76568491 70.94260731 -37.62359619 71.56614685 C-38.84423767 71.60570999 -40.06487915 71.64527313 -41.32250977 71.68603516 C-42.63080246 71.73509506 -43.93909515 71.78415497 -45.28703308 71.83470154 C-48.84813115 71.96805275 -52.40951523 72.09120535 -55.97104383 72.21243334 C-59.70283332 72.34122488 -63.43427049 72.47952704 -67.16575623 72.61679077 C-74.22008877 72.87485468 -81.27469409 73.12444977 -88.3294391 73.37095106 C-96.36601094 73.6521753 -104.40222971 73.94291902 -112.43843377 74.23443532 C-128.95858776 74.83349795 -145.47914115 75.420694 -162 76 C-161.04046008 77.29126232 -160.07929223 78.58131503 -159.11743164 79.87084961 C-158.58235489 80.58937607 -158.04727814 81.30790253 -157.49598694 82.04820251 C-153.12373812 87.75262682 -147.83188405 91.21327637 -141.5 94.5 C-127.4507155 101.82442514 -119.95330389 112.99031757 -113.70117188 127.24951172 C-113.39115234 127.95092285 -113.08113281 128.65233398 -112.76171875 129.375 C-112.49319092 130.00148437 -112.22466309 130.62796875 -111.94799805 131.2734375 C-111.04945479 133.10062205 -111.04945479 133.10062205 -109.3894043 134.61035156 C-108.93090088 135.06893555 -108.47239746 135.52751953 -108 136 C-108.01288405 139.06640407 -109.19287762 140.22813482 -111.1796875 142.578125 C-112.06914062 143.45984375 -112.95859375 144.3415625 -113.875 145.25 C-114.75929688 146.14203125 -115.64359375 147.0340625 -116.5546875 147.953125 C-119 150 -119 150 -122 150 C-126.90546642 144.83373663 -129.95008603 138.23317012 -133 131.875 C-138.29328117 120.94652716 -144.72037643 114.52225793 -155.41015625 108.68359375 C-168.60923984 101.34147277 -177.84742886 90.533999 -182 76 C-187.28 76 -192.56 76 -198 76 C-198 75.67 -198 75.34 -198 75 C-193.38 74.67 -188.76 74.34 -184 74 C-184.86625 72.7625 -185.7325 71.525 -186.625 70.25 C-188.1015625 68.140625 -188.1015625 68.140625 -189 66 C-187.93595374 62.113918 -184.93117189 59.85737965 -182 57.25 C-181.113125 56.45078125 -180.22625 55.6515625 -179.3125 54.828125 C-177 53 -177 53 -175 53 C-170.39484667 58.53525819 -164 66.56392872 -164 74 C-163.24565674 73.94013916 -162.49131348 73.88027832 -161.71411133 73.81860352 C-149.32850105 72.91178266 -136.92638468 72.49624887 -124.51635742 72.07006836 C-120.73401456 71.9391105 -116.95198741 71.80081714 -113.16992188 71.66210938 C-97.10720807 71.09316679 -81.07233024 70.87517606 -65 71 C-65 70.34 -65 69.68 -65 69 C-66.65 68.67 -68.3 68.34 -70 68 C-67 67 -67 67 -64.1875 67.9375 C-54.10051202 71.02318198 -43.41261087 69.31244441 -34 65 C-22.72855416 58.97351047 -17.37396116 50.3545705 -12.6875 38.75 C-10.90621204 29.03388386 -11.66454207 20.22867633 -15 11 C-15.34943032 9.67079447 -15.6880857 8.33850602 -16 7 C-13.8967433 6.01888025 -11.79236311 5.04016866 -9.6875 4.0625 C-7.92986328 3.24458984 -7.92986328 3.24458984 -6.13671875 2.41015625 C-3 1 -3 1 0 0 Z " fill="#CF6142" transform="translate(561,92)"/>
<path d="M0 0 C4.03293407 3.71556305 6.80249766 7.09081072 7.375 12.625 C7.27270175 17.75851194 5.36774616 21.19846921 2 25 C-12.23598122 37.38159489 -32.11418721 38.07211788 -50 37 C-64.6885663 35.53017638 -76.55207082 30.10672627 -88 21 C-88.66644531 20.48695313 -89.33289063 19.97390625 -90.01953125 19.4453125 C-91.39545019 18.3561776 -92.70788309 17.18735068 -94 16 C-94 15.34 -94 14.68 -94 14 C-94.66 14 -95.32 14 -96 14 C-96.66 12.68 -97.32 11.36 -98 10 C-71.30082225 -8.25931609 -29.35457384 -19.78342574 0 0 Z " fill="#D6CDC1" transform="translate(188,441)"/>
<path d="M0 0 C0.56847656 0.72574219 1.13695313 1.45148438 1.72265625 2.19921875 C3.17127697 3.9807986 4.67517464 5.71979488 6.24609375 7.39453125 C8.46085723 9.83827206 10.36260739 12.13345358 12 15 C11 18.6875 11 18.6875 9.97265625 20.62109375 C7.36069967 27.0093731 8.01436942 34.89869351 10.06640625 41.35546875 C16.62988008 55.46604328 28.65914929 63.27114388 42.8125 68.6875 C59.75515424 74.78444089 77.13934737 76.47279125 95.01098633 77.22973633 C96.2358374 77.2892749 97.46068848 77.34881348 98.72265625 77.41015625 C99.81328369 77.45277588 100.90391113 77.49539551 102.02758789 77.53930664 C105.3480441 78.05394326 107.30179794 79.02544668 110 81 C111.60725635 84.21451269 111.05748185 87.43612536 111 91 C110.01 91.495 110.01 91.495 109 92 C109.0928125 90.1128125 109.0928125 90.1128125 109.1875 88.1875 C109.17106609 84.93816354 109.17106609 84.93816354 107.875 82 C105.10184376 80.52098334 103.08815875 80.61398016 100 81 C98 82 98 82 97 84 C96.60984439 87.12124489 96.44122451 89.09975061 98.125 91.8125 C100.66676215 93.42228269 103.0398108 93.67109009 106 94 C106 94.33 106 94.66 106 95 C71.23527727 95.98857031 33.07837877 90.91122927 6.44140625 66.62890625 C5 65 5 65 5 63 C4.34 63 3.68 63 3 63 C-6.400124 50.82151422 -10.13838932 38.24176807 -9 23 C-7.2879936 14.77492579 -4.03881291 7.33276278 0 0 Z " fill="#6AA6E1" transform="translate(68,449)"/>
<path d="M0 0 C0 0.66 0 1.32 0 2 C0.59167969 2.04898437 1.18335938 2.09796875 1.79296875 2.1484375 C6.19104472 2.56456867 9.96928897 3.04965595 14 5 C14 5.66 14 6.32 14 7 C15.19625 7.061875 16.3925 7.12375 17.625 7.1875 C26.8146904 8.22316352 35.78911637 10.9692348 42 18 C44.48499142 21.54998775 44.43249013 24.74718041 44 29 C42.64794434 32.55919518 40.72695317 35.3171046 37.9375 37.9375 C26.30600084 42.14463799 14.65054609 36.09605293 3.8125 32 C1.98432464 31.32389437 0.15555237 30.6494005 -1.67382812 29.9765625 C-6.12299252 28.33623026 -10.56348564 26.67422837 -15 25 C-15 24.34 -15 23.68 -15 23 C-17.31 22.34 -19.62 21.68 -22 21 C-22.33 19.35 -22.66 17.7 -23 16 C-23.66 16 -24.32 16 -25 16 C-25 12.7 -25 9.4 -25 6 C-24.34 6 -23.68 6 -23 6 C-22.979375 5.2575 -22.95875 4.515 -22.9375 3.75 C-21.77799236 0.3487776 -20.12139356 -0.68803398 -16.95703125 -2.2734375 C-10.80016701 -4.55921943 -5.69671423 -2.39861652 0 0 Z " fill="#CCC3B8" transform="translate(739,271)"/>
<path d="M0 0 C1.45560361 0.50656447 2.90705797 1.02516702 4.35473633 1.55395508 C5.13762527 1.83064529 5.92051422 2.10733551 6.72712708 2.39241028 C8.37866708 2.97832796 10.02836229 3.56946893 11.67626953 4.16552734 C14.15839396 5.06322459 16.64546872 5.94577346 19.1340332 6.82543945 C43.6014573 15.51994447 43.6014573 15.51994447 47.74926758 19.57348633 C49.47187451 24.1383947 49.76677949 28.06945752 48.99926758 32.88598633 C47.18693221 36.71977269 45.69900231 38.41949651 42.18676758 40.76098633 C35.9725464 42.95424086 30.84562468 41.79031495 24.75317383 39.69848633 C23.76920876 39.36554565 23.76920876 39.36554565 22.7653656 39.02587891 C20.69396614 38.32246814 18.62795807 37.60453548 16.56176758 36.88598633 C15.14868823 36.40324226 13.73527924 35.92146195 12.3215332 35.44067383 C8.87689813 34.26689093 5.43693616 33.08004027 1.99926758 31.88598633 C1.66926758 32.54598633 1.33926758 33.20598633 0.99926758 33.88598633 C0.5377832 33.3059082 0.07629883 32.72583008 -0.39916992 32.12817383 C-6.60528349 24.6955556 -13.49869927 19.38652137 -23.00073242 16.88598633 C-22.34073242 16.55598633 -21.68073242 16.22598633 -21.00073242 15.88598633 C-21.08323242 14.85473633 -21.16573242 13.82348633 -21.25073242 12.76098633 C-20.95344839 8.15308378 -19.9576245 6.38756905 -17.00073242 2.88598633 C-11.51442525 -1.74689528 -6.74271537 -2.11326456 0 0 Z " fill="#CCC3B8" transform="translate(882.000732421875,343.114013671875)"/>
<path d="M0 0 C4.20059624 1.40019875 5.19051525 4.36825877 7.1875 8.0625 C7.55552734 8.72572266 7.92355469 9.38894531 8.30273438 10.07226562 C9.21012062 11.71027457 10.10615573 13.35456221 11 15 C10.24332031 15.73476562 9.48664063 16.46953125 8.70703125 17.2265625 C6.45508558 19.53375071 4.57633151 21.77844254 2.6875 24.375 C-1.39441414 29.70466082 -6.08084427 35.7726553 -13 37 C-13.33 39.31 -13.66 41.62 -14 44 C-15 41 -15 41 -15 39 C-16.11375 39.309375 -17.2275 39.61875 -18.375 39.9375 C-21.6219324 40.77504793 -24.65541611 41.13646927 -28 41.3125 C-34.75782571 41.96248934 -38.82556713 44.52449181 -43.28515625 49.6015625 C-44.83456682 51.52086574 -46.37127206 53.45050142 -47.89453125 55.390625 C-50.40873842 58.50656264 -52.64684462 60.81654998 -56 63 C-57.9296875 62.97265625 -57.9296875 62.97265625 -60 62 C-61.95703125 59.41796875 -61.95703125 59.41796875 -63.8125 56.1875 C-64.43769531 55.12917969 -65.06289063 54.07085937 -65.70703125 52.98046875 C-67 50 -67 50 -66.83203125 47.75 C-65.79081137 45.5600164 -64.26556899 44.17311057 -62.5 42.54296875 C-60.71837168 40.7103042 -59.34919126 38.71225637 -57.875 36.625 C-51.94465284 28.85196291 -43.25179902 23.90439343 -33.59765625 22.5078125 C-32.43105469 22.38148438 -31.26445313 22.25515625 -30.0625 22.125 C-24.39223982 21.3697645 -20.58571483 20.41262499 -16 17 C-15.67 16.34 -15.34 15.68 -15 15 C-14.34 15 -13.68 15 -13 15 C-12.75121094 14.26136719 -12.50242187 13.52273437 -12.24609375 12.76171875 C-10.89006664 9.75635459 -9.42633781 8.08829916 -7.0625 5.8125 C-6.37285156 5.13832031 -5.68320312 4.46414062 -4.97265625 3.76953125 C-3 2 -3 2 0 0 Z " fill="#D3983D" transform="translate(657,158)"/>
<path d="M0 0 C6.07362767 4.85890213 9.35481917 11.61296565 10.27929688 19.33203125 C11.21840377 32.90159829 9.91548699 44.23052502 0.91015625 54.9375 C-5.925134 62.31793609 -14.68261326 69.57045926 -25.19824219 70.11352539 C-25.97329102 70.10828857 -26.74833984 70.10305176 -27.546875 70.09765625 C-28.39121094 70.09443359 -29.23554687 70.09121094 -30.10546875 70.08789062 C-31.41451172 70.07532227 -31.41451172 70.07532227 -32.75 70.0625 C-33.63816406 70.05798828 -34.52632812 70.05347656 -35.44140625 70.04882812 C-37.62767329 70.037074 -39.81380179 70.02064249 -42 70 C-42 69.34 -42 68.68 -42 68 C-40.85724609 67.5978125 -40.85724609 67.5978125 -39.69140625 67.1875 C-27.99222212 62.74736021 -20.42263198 56.36667088 -15 45 C-10.15569582 33.88011995 -10.95054884 22.20418093 -15 11 C-15.34943032 9.67079447 -15.6880857 8.33850602 -16 7 C-13.8967433 6.01888025 -11.79236311 5.04016866 -9.6875 4.0625 C-8.51574219 3.51722656 -7.34398437 2.97195312 -6.13671875 2.41015625 C-3 1 -3 1 0 0 Z " fill="#040404" transform="translate(561,92)"/>
<path d="M0 0 C6 6.52485089 6 6.52485089 6 9 C-1.14909849 9.28874462 -8.29836335 9.57307288 -15.44775391 9.85449219 C-17.87422558 9.95050713 -20.30065911 10.04749172 -22.72705078 10.14550781 C-48.59792872 11.18928963 -48.59792872 11.18928963 -60 11 C-52.5612153 1.14863648 -41.81883369 -4.88347991 -29.875 -7.75 C-18.50148839 -8.73900101 -9.21276697 -7.15509313 0 0 Z " fill="#030405" transform="translate(202,165)"/>
<path d="M0 0 C-2.52083286 1.68055524 -4.62195707 2.75349078 -7.39453125 3.8828125 C-20.85158656 9.45176679 -33.1835703 15.40623295 -45 24 C-45.66 24 -46.32 24 -47 24 C-47 14.76 -47 5.52 -47 -4 C-33.06955487 -8.64348171 -13.67651716 -4.16635622 0 0 Z " fill="#D5CDC1" transform="translate(595,496)"/>
<path d="M0 0 C6.8186033 1.15158634 11.63616242 2.86815122 16.8125 7.6875 C18.68427139 11.33252849 19.11343626 14.9233845 19 19 C17.40594023 23.69362043 15.28109703 26.48718218 11 29 C4.42096112 30.86875423 -0.81835448 29.586646 -7 27 C-7 26.01 -7 25.02 -7 24 C-7.350625 23.29875 -7.70125 22.5975 -8.0625 21.875 C-9.41673929 17.72199952 -9.14342263 14.19746758 -8 10 C-6.11419223 6.49778557 -4.07633253 4.33485901 -0.1875 3.125 C0.8953125 3.063125 0.8953125 3.063125 2 3 C2 2.34 2 1.68 2 1 C1.34 0.67 0.68 0.34 0 0 Z " fill="#D1963D" transform="translate(778,381)"/>
<path d="M0 0 C6.99689594 1.20581427 12.98164403 2.68954506 17.9375 8.125 C19.53802004 12.45581893 19.65002973 16.44248821 19 21 C17.18766463 24.83378636 15.69973473 26.53351018 12.1875 28.875 C5.18924315 31.34497301 -0.35427048 29.53170648 -7 27 C-6.34 26.67 -5.68 26.34 -5 26 C-5.495 25.38125 -5.99 24.7625 -6.5 24.125 C-8.62750674 19.69269429 -8.93855624 15.82793331 -8 11 C-6.00982758 7.42541848 -3.78491147 4.55382891 0.203125 3.31640625 C0.79609375 3.21199219 1.3890625 3.10757812 2 3 C2 2.34 2 1.68 2 1 C1.34 0.67 0.68 0.34 0 0 Z " fill="#CF6243" transform="translate(912,355)"/>
<path d="M0 0 C3.56568061 1.54335429 6.31019147 3.24343581 8.9375 6.125 C10.53802004 10.45581893 10.65002973 14.44248821 10 19 C8.18766463 22.83378636 6.69973473 24.53351018 3.1875 26.875 C-4.61617313 29.62923758 -10.68638041 26.96247882 -18 24 C-17.01 23.34 -16.02 22.68 -15 22 C-15.66 21.01 -16.32 20.02 -17 19 C-17.76603375 14.7868144 -17.9475779 10.70817554 -15.83203125 6.89453125 C-11.32843264 1.46474269 -7.25546156 -2.17663847 0 0 Z " fill="#D89A3D" transform="translate(926,258)"/>
<path d="M0 0 C4.5007346 3.63889181 6.72702564 6.58872649 7.375 12.3125 C6.82414791 17.72921221 4.97706877 21.14275358 0.9375 24.9375 C-6.6335571 27.67596746 -13.86739762 26.22985768 -21 23 C-20.01 22.34 -19.02 21.68 -18 21 C-18.515625 20.175 -19.03125 19.35 -19.5625 18.5 C-21.27531453 14.32966898 -21.4692336 11.2128853 -20 7 C-17.77730751 3.41704776 -15.17252412 0.79224603 -11.6875 -1.5625 C-7.51088613 -2.24241389 -3.93057995 -1.51944379 0 0 Z " fill="#D16243" transform="translate(776,284)"/>
<path d="M0 0 C1.3756311 -0.02610352 1.3756311 -0.02610352 2.77905273 -0.05273438 C15.18908715 -0.04326919 25.48499932 5.02752211 34.84765625 12.8828125 C36.0625 14.3125 36.0625 14.3125 36.0625 17.3125 C34.16917466 18.13082722 32.27272267 18.94192268 30.375 19.75 C28.79138672 20.42869141 28.79138672 20.42869141 27.17578125 21.12109375 C24.44277471 22.16697455 21.94207663 22.84770748 19.0625 23.3125 C18.67320312 22.74402344 18.28390625 22.17554687 17.8828125 21.58984375 C10.46879078 11.35712714 1.53120124 5.67871944 -10.9375 3.3125 C-18.90872308 2.63391528 -26.23796636 3.18849072 -33.9375 5.3125 C-33.9375 4.9825 -33.9375 4.6525 -33.9375 4.3125 C-48.7875 3.8175 -48.7875 3.8175 -63.9375 3.3125 C-63.9375 2.9825 -63.9375 2.6525 -63.9375 2.3125 C-15.24310113 0.12736262 -15.24310113 0.12736262 0 0 Z " fill="#6BA8E4" transform="translate(524.9375,75.6875)"/>
<path d="M0 0 C4 1.33333333 8 2.66666667 12 4 C14.70024042 4.12391712 17.36223834 4.18924982 20.0625 4.1875 C20.82457764 4.18959473 21.58665527 4.19168945 22.37182617 4.19384766 C27.45437622 4.15392528 32.1102339 3.64980904 37.01953125 2.2421875 C39.57089748 1.93018611 40.8401513 2.68953001 43 4 C42.04738281 4.53109375 41.09476563 5.0621875 40.11328125 5.609375 C38.84622221 6.32268231 37.57930249 7.03623716 36.3125 7.75 C35.37374023 8.27207031 35.37374023 8.27207031 34.41601562 8.8046875 C31.49443733 10.45667942 29.10070783 11.90398405 26.65234375 14.23828125 C22.64550889 16.89966936 18.95163062 16.54530366 14.25 16.4375 C12.96609375 16.44813477 12.96609375 16.44813477 11.65625 16.45898438 C5.31994929 16.39658141 -1.87597302 15.85818012 -6.75292969 11.39624023 C-7.16446289 10.93548096 -7.57599609 10.47472168 -8 10 C-6.63928617 5.1014302 -4.24735734 3.58534795 0 1 C0 0.67 0 0.34 0 0 Z " fill="#0A0A0A" transform="translate(827,437)"/>
<path d="M0 0 C0.67119549 1.4562545 1.33681807 2.91507867 2 4.375 C2.556875 5.59316406 2.556875 5.59316406 3.125 6.8359375 C4 9 4 9 4 11 C2.3125 12.19140625 2.3125 12.19140625 0 13.5625 C-7.58434597 18.45947928 -12.91881341 25.00767627 -17 33 C-18.4589426 32.52269162 -19.91713496 32.04308958 -21.375 31.5625 C-22.18710937 31.29566406 -22.99921875 31.02882813 -23.8359375 30.75390625 C-26 30 -26 30 -28 29 C-26.66588295 24.17107633 -24.55808967 20.53216891 -21.5 16.625 C-21.06220215 16.06063232 -20.6244043 15.49626465 -20.17333984 14.91479492 C-15.63658385 9.25396578 -7.87137777 0 0 0 Z " fill="#BC5B3F" transform="translate(628,241)"/>
<path d="M0 0 C3.18559952 1.39633107 5.23943845 3.04557493 7.625 5.5625 C10.04521959 8.14015389 10.04521959 8.14015389 13 10 C13 10.66 13 11.32 13 12 C13.56847656 12.24105469 14.13695312 12.48210937 14.72265625 12.73046875 C17.44788908 14.24968088 19.26690339 16.07418981 21.4375 18.3125 C22.21867187 19.11171875 22.99984375 19.9109375 23.8046875 20.734375 C24.52914063 21.48203125 25.25359375 22.2296875 26 23 C27.0184839 24.02317737 28.03874585 25.04459587 29.0625 26.0625 C30.0215625 27.0215625 30.0215625 27.0215625 31 28 C29.35 29.98 27.7 31.96 26 34 C21.36403322 33.15233735 19.00733571 30.30762457 15.875 27 C12.31087316 23.02011003 12.31087316 23.02011003 8 20 C8 19.34 8 18.68 8 18 C7.43796875 17.76539063 6.8759375 17.53078125 6.296875 17.2890625 C3.45364109 15.69337 1.51901873 13.71075457 -0.75 11.375 C-1.54921875 10.55773437 -2.3484375 9.74046875 -3.171875 8.8984375 C-3.77515625 8.27195313 -4.3784375 7.64546875 -5 7 C-3.64062915 4.1394109 -2.35479531 2.14072301 0 0 Z " fill="#EFEFEF" transform="translate(390,219)"/>
<path d="M0 0 C2.89932357 2.39509338 3.50168276 4.31245243 4 8 C4.886875 8.2475 5.77375 8.495 6.6875 8.75 C14.13068266 11.55874817 17.61517948 17.04826419 21 24 C21.36059866 25.66098088 21.69794851 27.32738116 22 29 C18.39585115 29.02953103 14.79173424 29.04697407 11.1875 29.0625 C10.18267578 29.07087891 9.17785156 29.07925781 8.14257812 29.08789062 C3.03949728 29.10429925 -2.04349678 29.01538078 -7.13671875 28.68359375 C-8.02447998 28.6261499 -8.91224121 28.56870605 -9.8269043 28.50952148 C-12 28 -12 28 -14 25 C-13.01 25.33 -12.02 25.66 -11 26 C-6.92693464 26.45256282 -4.73388661 26.44033197 -1.1875 24.3125 C2.13584308 19.28000905 2.41961835 13.9164279 3 8 C-0.3 8 -3.6 8 -7 8 C-7 7.67 -7 7.34 -7 7 C-2.545 6.505 -2.545 6.505 2 6 C1.34 4.02 0.68 2.04 0 0 Z " fill="#E8AD52" transform="translate(469,290)"/>
<path d="M0 0 C2.64 0 5.28 0 8 0 C8.33 46.2 8.66 92.4 9 140 C9.66 140.33 10.32 140.66 11 141 C9.35 142.98 7.7 144.96 6 147 C4.65939855 144.3187971 4.89420696 142.29577732 4.91770935 139.29269409 C4.92474884 138.07830658 4.93178833 136.86391907 4.93904114 135.61273193 C4.95202442 134.25988679 4.96510447 132.90704258 4.97827148 131.55419922 C4.98841147 130.13520609 4.99810545 128.71620971 5.00738525 127.29721069 C5.03389434 123.43790348 5.06666807 119.57867153 5.10053515 115.71942282 C5.13485042 111.68888061 5.16344791 107.65829803 5.19264221 103.62771606 C5.24882256 95.99206488 5.31017294 88.35646426 5.37336355 80.72086823 C5.44504223 72.02936034 5.51098358 63.33781193 5.57643402 54.64625525 C5.71122173 36.7641174 5.85324368 18.88204344 6 1 C4.02 1 2.04 1 0 1 C0 0.67 0 0.34 0 0 Z " fill="#987544" transform="translate(807,231)"/>
<path d="M0 0 C1.08667969 0.01804687 2.17335938 0.03609375 3.29296875 0.0546875 C4.54013672 0.08949219 4.54013672 0.08949219 5.8125 0.125 C6.31623716 7.07937138 5.97215645 11.4203283 1.8125 17.125 C-1.88876859 19.59251239 -3.80973532 19.43221156 -8.1875 19.125 C-10.94892665 18.10763229 -11.86835371 17.76329259 -13.1875 15.125 C-13.73552111 9.42558046 -12.79711802 6.55967357 -9.1875 2.125 C-5.66070901 -0.22619399 -4.15870515 -0.08943452 0 0 Z " fill="#E8A949" transform="translate(466.1875,297.875)"/>
<path d="M0 0 C2.27034041 2.27034041 3.43076735 4.4792292 4.9375 7.3125 C6.87032632 10.93593143 8.86067042 14.49405391 11 18 C10.34 18 9.68 18 9 18 C8.34 20.97 7.68 23.94 7 27 C0.61853698 23.80926849 -1.50024373 19.37437848 -4 13 C-4.99 14.32 -5.98 15.64 -7 17 C-6.37954537 12.76677156 -4.89476441 9.47709705 -2.9375 5.6875 C-2.38964844 4.61886719 -1.84179688 3.55023438 -1.27734375 2.44921875 C-0.64505859 1.23685547 -0.64505859 1.23685547 0 0 Z " fill="#050709" transform="translate(70,287)"/>
<path d="M0 0 C3.3 1.65 6.6 3.3 10 5 C8.42986223 10.96652354 5.24970218 15.82909025 2 21 C-1.70429324 19.62411965 -4.53151468 18.08109119 -8 16 C-5.36 10.72 -2.72 5.44 0 0 Z " fill="#BB5B3E" transform="translate(625,120)"/>
<path d="M0 0 C0.51304687 0.144375 1.02609375 0.28875 1.5546875 0.4375 C8.13134145 2.03184035 14.36520753 2.1212823 21.08105469 2.03125 C28.10145767 1.94896817 35.00458847 2.37018803 42 3 C42 3.33 42 3.66 42 4 C-2.88 5.65 -47.76 7.3 -94 9 C-94 8.34 -94 7.68 -94 7 C-80.85672796 5.95701686 -67.69078668 5.52249968 -54.51635742 5.07006836 C-50.73401456 4.9391105 -46.95198741 4.80081714 -43.16992188 4.66210938 C-27.10720807 4.09316679 -11.07233024 3.87517606 5 4 C5 3.34 5 2.68 5 2 C3.35 1.67 1.7 1.34 0 1 C0 0.67 0 0.34 0 0 Z " fill="#5E6C7A" transform="translate(491,159)"/>
<path d="M0 0 C0.66 0 1.32 0 2 0 C3.2265625 1.46875 3.2265625 1.46875 4.625 3.5 C7.97591712 8.14483561 11.86515481 12.05405637 16 16 C13 16 13 16 10 14 C9.01 16.97 8.02 19.94 7 23 C2.2783676 20.6391838 0.26055275 18.22097389 -2.3125 13.6875 C-3.31060361 9.78582225 -2.76711472 6.96342608 -2 3 C-1.34 2.01 -0.68 1.02 0 0 Z " fill="#0A0D10" transform="translate(70,374)"/>
<path d="M0 0 C0.33 0.66 0.66 1.32 1 2 C2.8248291 1.99214478 2.8248291 1.99214478 4.68652344 1.98413086 C27.81572968 1.8932795 50.89202198 1.88732006 74 3 C73.67 7.95 73.34 12.9 73 18 C72.67 18 72.34 18 72 18 C71.97305149 16.04174127 71.95362782 14.08337774 71.9375 12.125 C71.92589844 11.03445313 71.91429687 9.94390625 71.90234375 8.8203125 C72 6 72 6 73 4 C44.29 4.495 44.29 4.495 15 5 C15 4.67 15 4.34 15 4 C6.0204597 2.91238583 6.0204597 2.91238583 -2.19140625 5.48828125 C-3.7104748 7.31965125 -3.7104748 7.31965125 -4.82421875 9.2734375 C-6.26238825 11.38530102 -7.67255934 12.02982474 -10 13 C-10 13.66 -10 14.32 -10 15 C-11.98 15 -13.96 15 -16 15 C-16 14.34 -16 13.68 -16 13 C-14.20703125 11.66796875 -14.20703125 11.66796875 -11.8125 10.1875 C-8.01891174 7.74791258 -5.03896381 5.31523324 -2 2 C-1.34 1.34 -0.68 0.68 0 0 Z " fill="#59636B" transform="translate(882,425)"/>
<path d="M0 0 C1.42062788 8.01028734 1.42062788 8.01028734 -0.0625 11.5 C-2.7573758 13.58635546 -4.60188919 13.93203778 -8 14 C-10.8125 12.9375 -10.8125 12.9375 -13 11 C-14.00365183 7.85522426 -14.28001895 5.91642567 -13.3125 2.75 C-9.63447532 -2.15403291 -5.46504062 -0.9108401 0 0 Z " fill="#EAEAEA" transform="translate(81,239)"/>
<path d="M0 0 C2.375 1.625 2.375 1.625 4 4 C4.61195145 7.6717087 4.48706506 9.28813568 2.375 12.375 C-0.71186432 14.48706506 -2.3282913 14.61195145 -6 14 C-8.375 12.375 -8.375 12.375 -10 10 C-10.61195145 6.3282913 -10.48706506 4.71186432 -8.375 1.625 C-5.28813568 -0.48706506 -3.6717087 -0.61195145 0 0 Z " fill="#F0EFEF" transform="translate(174,529)"/>
<path d="M0 0 C3.74020498 1.68152073 5.56134348 3.69039473 8 7 C7.0409375 8.11375 7.0409375 8.11375 6.0625 9.25 C4.21666593 11.7111121 3.43930826 13.03466926 3 16 C5.31 16 7.62 16 10 16 C10 16.33 10 16.66 10 17 C1.91403173 17.16811716 -6.06726257 16.63840746 -14.125 16 C-15.98898437 15.85691406 -15.98898437 15.85691406 -17.890625 15.7109375 C-20.92736218 15.47734233 -23.96378646 15.24028968 -27 15 C-27 14.67 -27 14.34 -27 14 C-19.41 14 -11.82 14 -4 14 C-4.66 13.67 -5.32 13.34 -6 13 C-5.51675181 7.84535266 -2.81389239 4.18449681 0 0 Z " fill="#6195C9" transform="translate(566,263)"/>
<path d="M0 0 C2.375 1.625 2.375 1.625 4 4 C4.61195145 7.6717087 4.48706506 9.28813568 2.375 12.375 C-0.69477548 14.4753727 -2.34556561 14.53293835 -6 14 C-8.375 13 -8.375 13 -10 11 C-10.56641498 8.22572253 -10.56641498 5.77427747 -10 3 C-7.21052771 -0.43319666 -4.246332 -0.61925675 0 0 Z " fill="#669CD1" transform="translate(337,222)"/>
<path d="M0 0 C5.14837874 2.21793995 8.76994453 5.84441412 11 11 C10.40984928 15.0631616 8.93209887 18.39835228 7 22 C0.45138889 16.875 0.45138889 16.875 -1 13 C-1.23046875 10.2734375 -1.23046875 10.2734375 -1.1875 7.375 C-1.18105469 6.41335938 -1.17460938 5.45171875 -1.16796875 4.4609375 C-1 2 -1 2 0 0 Z " fill="#060809" transform="translate(69,453)"/>
<path d="M0 0 C5.13076254 9.02464482 5.13076254 9.02464482 4 14 C-0.84210526 18 -0.84210526 18 -4 18 C-4.67667998 16.75539217 -5.34094719 15.50403104 -6 14.25 C-6.37125 13.55390625 -6.7425 12.8578125 -7.125 12.140625 C-8 10 -8 10 -8 6 C-6.7578125 4.296875 -6.7578125 4.296875 -5.125 2.75 C-4.59132813 2.22921875 -4.05765625 1.7084375 -3.5078125 1.171875 C-2 0 -2 0 0 0 Z " fill="#639AD0" transform="translate(474,247)"/>
<path d="M0 0 C0.96736084 -0.00902344 1.93472168 -0.01804687 2.93139648 -0.02734375 C3.79579346 -0.02347656 4.66019043 -0.01960938 5.55078125 -0.015625 C6.26532471 -0.01336914 6.97986816 -0.01111328 7.71606445 -0.00878906 C9.6875 0.25 9.6875 0.25 13.6875 2.25 C7.4175 1.92 1.1475 1.59 -5.3125 1.25 C-5.3125 1.91 -5.3125 2.57 -5.3125 3.25 C-2.8375 3.745 -2.8375 3.745 -0.3125 4.25 C-3.3125 5.25 -3.3125 5.25 -6.625 4.3125 C-15.69398475 1.8528307 -25.36238527 2.78100283 -34.3125 5.25 C-34.3125 4.92 -34.3125 4.59 -34.3125 4.25 C-49.1625 3.755 -49.1625 3.755 -64.3125 3.25 C-64.3125 2.92 -64.3125 2.59 -64.3125 2.25 C-15.46691138 0.05807805 -15.46691138 0.05807805 0 0 Z " fill="#4E6072" transform="translate(525.3125,75.75)"/>
<path d="M0 0 C2.97 0.495 2.97 0.495 6 1 C5.68853528 2.89600369 5.37578283 4.79179587 5.0625 6.6875 C4.88847656 7.74324219 4.71445312 8.79898438 4.53515625 9.88671875 C4.06832879 12.60249604 3.55577384 15.30124235 3 18 C0.69 17.34 -1.62 16.68 -4 16 C-3.39891424 10.34979382 -1.92471317 5.33835539 0 0 Z " fill="#A27839" transform="translate(366,210)"/>
<path d="M0 0 C2.4375 0.75 2.4375 0.75 4.4375 2.75 C4.6875 5.75 4.6875 5.75 4.4375 8.75 C2.4375 10.75 2.4375 10.75 -0.5 11.0625 C-3.5625 10.75 -3.5625 10.75 -5.5 9.625 C-6.5625 7.75 -6.5625 7.75 -6.4375 4.6875 C-5.31039351 0.90364248 -4.04478927 -0.39461359 0 0 Z " fill="#AB563C" transform="translate(548.5625,243.25)"/>
<path d="M0 0 C3.0625 0.1875 3.0625 0.1875 5.0625 2.1875 C5.375 5.1875 5.375 5.1875 5.0625 8.1875 C2.0625 10.1875 2.0625 10.1875 -0.5 9.9375 C-2.9375 9.1875 -2.9375 9.1875 -4.9375 7.1875 C-4.23164336 0.2701049 -4.23164336 0.2701049 0 0 Z " fill="#6A9CCE" transform="translate(651.9375,215.8125)"/>
<path d="M0 0 C0.51304687 0.144375 1.02609375 0.28875 1.5546875 0.4375 C8.13134145 2.03184035 14.36520753 2.1212823 21.08105469 2.03125 C28.10145767 1.94896817 35.00458847 2.37018803 42 3 C42 3.33 42 3.66 42 4 C23.65159456 4.78639011 5.36620266 5.14327931 -13 5 C-13 4.67 -13 4.34 -13 4 C-7.06 4 -1.12 4 5 4 C5 3.34 5 2.68 5 2 C2.525 1.505 2.525 1.505 0 1 C0 0.67 0 0.34 0 0 Z " fill="#414A53" transform="translate(491,159)"/>
<path d="M0 0 C0.79075928 0.00523682 1.58151855 0.01047363 2.39624023 0.01586914 C3.67724609 0.02070313 3.67724609 0.02070313 4.98413086 0.02563477 C5.88196289 0.03401367 6.77979492 0.04239258 7.70483398 0.05102539 C8.6065332 0.05553711 9.50823242 0.06004883 10.43725586 0.06469727 C12.67234712 0.07652315 14.90730835 0.09300319 17.14233398 0.11352539 C14.53756717 1.48207024 12.03170577 2.54278771 9.20874023 3.36743164 C8.47719727 3.58206055 7.7456543 3.79668945 6.99194336 4.01782227 C6.23719727 4.2350293 5.48245117 4.45223633 4.70483398 4.67602539 C3.95395508 4.89709961 3.20307617 5.11817383 2.42944336 5.34594727 C-1.31202169 6.43515125 -5.01535082 7.4336724 -8.85766602 8.11352539 C-7.87900264 6.96726217 -6.89972014 5.82152751 -5.92016602 4.67602539 C-5.37489258 4.03793945 -4.82961914 3.39985352 -4.26782227 2.74243164 C-1.9994602 0.12219069 -1.9994602 0.12219069 0 0 Z " fill="#D3CABE" transform="translate(883.857666015625,427.886474609375)"/>
<path d="M0 0 C0.33 1.32 0.66 2.64 1 4 C1.94875 4.0825 2.8975 4.165 3.875 4.25 C7 5 7 5 8.375 7.0625 C8.58125 7.701875 8.7875 8.34125 9 9 C8.01 8.34 7.02 7.68 6 7 C4.34450469 6.61500109 2.6777567 6.27206865 1 6 C0.896875 6.721875 0.79375 7.44375 0.6875 8.1875 C-0.05986932 11.24491993 -1.28045189 13.38329635 -3 16 C-4.32 15.67 -5.64 15.34 -7 15 C-6.5788897 10.08704646 -4.38433097 8.38433097 -1 5 C-0.12761142 2.32209104 -0.12761142 2.32209104 0 0 Z " fill="#588CBF" transform="translate(431,120)"/>
<path d="M0 0 C0.33 0.66 0.66 1.32 1 2 C1.99 1.67 2.98 1.34 4 1 C8.74598472 0.6978212 13.37675552 0.80690465 18 2 C18 2.33 18 2.66 18 3 C12.06 3 6.12 3 0 3 C0 4.65 0 6.3 0 8 C0.66 8.66 1.32 9.32 2 10 C1.625 12.625 1.625 12.625 1 15 C0.01 14.67 -0.98 14.34 -2 14 C-2 12.35 -2 10.7 -2 9 C-2.99 8.67 -3.98 8.34 -5 8 C-4.01 8 -3.02 8 -2 8 C-2 7.01 -2 6.02 -2 5 C-2.66 4.34 -3.32 3.68 -4 3 C-3.01 2.67 -2.02 2.34 -1 2 C-0.67 1.34 -0.34 0.68 0 0 Z " fill="#777572" transform="translate(593,143)"/>
<path d="M0 0 C3.125 0.375 3.125 0.375 6 1 C6.6875 3.3125 6.6875 3.3125 7 6 C5.875 7.875 5.875 7.875 4 9 C1.3125 8.6875 1.3125 8.6875 -1 8 C-1.625 5.125 -1.625 5.125 -2 2 C-1.34 1.34 -0.68 0.68 0 0 Z " fill="#A77D3D" transform="translate(595,82)"/>
<path d="M0 0 C0.33 0.66 0.66 1.32 1 2 C0.67 2.66 0.34 3.32 0 4 C2.31 4.66 4.62 5.32 7 6 C7.33 5.34 7.66 4.68 8 4 C8 5.32 8 6.64 8 8 C10.31 8 12.62 8 15 8 C15 8.33 15 8.66 15 9 C6.91403173 9.16811716 -1.06726257 8.63840746 -9.125 8 C-10.98898437 7.85691406 -10.98898437 7.85691406 -12.890625 7.7109375 C-15.92736218 7.47734233 -18.96378646 7.24028968 -22 7 C-22 6.67 -22 6.34 -22 6 C-14.41 6 -6.82 6 1 6 C0.34 5.67 -0.32 5.34 -1 5 C-0.67 3.35 -0.34 1.7 0 0 Z " fill="#5F5545" transform="translate(561,271)"/>
<path d="M0 0 C1 2 1 2 0.4375 4.875 C-0.02551447 8.1822462 0.21619528 9.27182808 2 12 C1.01 12 0.02 12 -1 12 C-0.35387471 28.02431639 -0.35387471 28.02431639 1 44 C-3.46294656 37.30558016 -2.18620161 28.19610106 -2.18530273 20.39208984 C-2.18750855 18.24166618 -2.20576397 16.09174075 -2.22460938 13.94140625 C-2.22754043 12.57031424 -2.22952715 11.19921982 -2.23046875 9.828125 C-2.23457764 8.5896582 -2.23868652 7.35119141 -2.24291992 6.07519531 C-2 3 -2 3 0 0 Z " fill="#5F676E" transform="translate(68,240)"/>
<path d="M0 0 C1.5625 1.0625 1.5625 1.0625 3 3 C2.89470715 8.58052085 1.25223599 11.69865562 -2 16 C-2 14.33333333 -2 12.66666667 -2 11 C-3.22976563 11.55880859 -3.22976563 11.55880859 -4.484375 12.12890625 C-5.56203125 12.60199219 -6.6396875 13.07507813 -7.75 13.5625 C-8.81734375 14.03816406 -9.8846875 14.51382812 -10.984375 15.00390625 C-13.98369837 15.9946154 -15.13421241 16.16161779 -18 15 C-17.11957031 14.67386719 -16.23914063 14.34773438 -15.33203125 14.01171875 C-13.58986328 13.35623047 -13.58986328 13.35623047 -11.8125 12.6875 C-10.66394531 12.25824219 -9.51539063 11.82898438 -8.33203125 11.38671875 C-5.29786399 10.1239645 -2.63412878 8.96576775 0 7 C0.41725678 3.37400578 0.41725678 3.37400578 0 0 Z " fill="#73442A" transform="translate(631,294)"/>
<path d="M0 0 C8.57142857 0.85714286 8.57142857 0.85714286 12 3 C11.34 4.32 10.68 5.64 10 7 C5.87248551 6.39301257 2.6678852 4.96189209 -1 3 C-0.67 2.01 -0.34 1.02 0 0 Z " fill="#15100A" transform="translate(604,284)"/>
<path d="M0 0 C2.21460369 1.82945522 2.94372483 2.67038832 3.4375 5.5625 C3.73987379 8.17317795 3.73987379 8.17317795 6.0625 9.3125 C6.701875 9.539375 7.34125 9.76625 8 10 C7.01 10 6.02 10 5 10 C4.95101563 10.71027344 4.90203125 11.42054688 4.8515625 12.15234375 C4.77679688 13.07144531 4.70203125 13.99054688 4.625 14.9375 C4.55539062 15.85402344 4.48578125 16.77054687 4.4140625 17.71484375 C4.27742188 18.46894531 4.14078125 19.22304688 4 20 C3.34 20.33 2.68 20.66 2 21 C2.33 16.71 2.66 12.42 3 8 C-0.3 8 -3.6 8 -7 8 C-7 7.67 -7 7.34 -7 7 C-2.545 6.505 -2.545 6.505 2 6 C1.34 4.02 0.68 2.04 0 0 Z " fill="#F5D8AB" transform="translate(469,290)"/>
<path d="M0 0 C4.08327357 -0.0580772 8.16644083 -0.09362249 12.25 -0.125 C13.98830078 -0.15013672 13.98830078 -0.15013672 15.76171875 -0.17578125 C16.87675781 -0.18222656 17.99179687 -0.18867187 19.140625 -0.1953125 C20.68024902 -0.21102295 20.68024902 -0.21102295 22.25097656 -0.22705078 C25 0 25 0 29 2 C22.73 1.67 16.46 1.34 10 1 C10 1.66 10 2.32 10 3 C11.65 3.33 13.3 3.66 15 4 C11.89433868 5.03522044 11.09037865 5.01714008 8.0625 4.25 C7.39347656 4.09015625 6.72445312 3.9303125 6.03515625 3.765625 C3.6603695 2.87223114 1.99634666 1.54794289 0 0 Z " fill="#65717B" transform="translate(510,76)"/>
<path d="M0 0 C0.66 0.33 1.32 0.66 2 1 C-0.38957269 4.24299151 -2.2047869 6.50902342 -6 8 C-6 8.66 -6 9.32 -6 10 C-7.98 10 -9.96 10 -12 10 C-12 9.34 -12 8.68 -12 8 C-10.13671875 6.5625 -10.13671875 6.5625 -7.6875 5 C-6.88699219 4.484375 -6.08648438 3.96875 -5.26171875 3.4375 C-4.51535156 2.963125 -3.76898437 2.48875 -3 2 C-2.01 1.34 -1.02 0.68 0 0 Z " fill="#9F9B94" transform="translate(878,430)"/>
<path d="M0 0 C0 0.66 0 1.32 0 2 C-1.64453125 3.62109375 -1.64453125 3.62109375 -3.8125 5.4375 C-9.38990814 9.76453529 -9.38990814 9.76453529 -12 16 C-12.66 14.35 -13.32 12.7 -14 11 C-3.27808989 0 -3.27808989 0 0 0 Z " fill="#81493A" transform="translate(386,145)"/>
<path d="M0 0 C2.64752004 2.57784846 4.94432065 4.91648098 7 8 C3.7 8.66 0.4 9.32 -3 10 C-2.34 9.34 -1.68 8.68 -1 8 C-0.54188325 6.02764667 -0.54188325 6.02764667 -0.375 3.875 C-0.25125 2.59625 -0.1275 1.3175 0 0 Z " fill="#846B46" transform="translate(813,424)"/>
<path d="M0 0 C1.6875 2.3125 1.6875 2.3125 3 5 C2.67 5.99 2.34 6.98 2 8 C1.34 6.68 0.68 5.36 0 4 C-3.71795643 5.61111445 -5.1675353 7.3350706 -7 11 C-7.66 9.68 -8.32 8.36 -9 7 C-7.88121617 5.82737096 -6.75476949 4.66204862 -5.625 3.5 C-4.68527344 2.52546875 -4.68527344 2.52546875 -3.7265625 1.53125 C-2 0 -2 0 0 0 Z " fill="#49627A" transform="translate(474,247)"/>
<path d="M0 0 C0.33 0.66 0.66 1.32 1 2 C0.34249689 3.33787589 -0.3256926 4.67051448 -1 6 C-1.44811137 8.35564596 -1.44811137 8.35564596 -1.625 10.75 C-1.69976562 11.54921875 -1.77453125 12.3484375 -1.8515625 13.171875 C-1.90054688 13.77515625 -1.94953125 14.3784375 -2 15 C-2.66 14.34 -3.32 13.68 -4 13 C-4.99 14.32 -5.98 15.64 -7 17 C-6.37954537 12.76677156 -4.89476441 9.47709705 -2.9375 5.6875 C-2.38964844 4.61886719 -1.84179688 3.55023438 -1.27734375 2.44921875 C-0.64505859 1.23685547 -0.64505859 1.23685547 0 0 Z " fill="#3F5366" transform="translate(70,287)"/>
<path d="M0 0 C0.33 1.32 0.66 2.64 1 4 C1.94875 4.0825 2.8975 4.165 3.875 4.25 C7 5 7 5 8.375 7.0625 C8.58125 7.701875 8.7875 8.34125 9 9 C8.01 8.34 7.02 7.68 6 7 C4.34450469 6.61500109 2.6777567 6.27206865 1 6 C0.896875 6.763125 0.79375 7.52625 0.6875 8.3125 C-0.05790616 11.22636046 -0.84458939 12.02950397 -3 14 C-2.80083984 13.11248047 -2.80083984 13.11248047 -2.59765625 12.20703125 C-1.68994822 8.14553475 -0.7908887 4.08625829 0 0 Z " fill="#314B64" transform="translate(431,120)"/>
<path d="M0 0 C-1.39750048 3.15835107 -3.05198234 5.32272825 -5.5 7.75 C-6.41265625 8.67039062 -6.41265625 8.67039062 -7.34375 9.609375 C-9 11 -9 11 -11 11 C-9.60249952 7.84164893 -7.94801766 5.67727175 -5.5 3.25 C-4.8915625 2.63640625 -4.283125 2.0228125 -3.65625 1.390625 C-2 0 -2 0 0 0 Z " fill="#A07739" transform="translate(269,464)"/>
<path d="M0 0 C10.55808656 3.07517084 10.55808656 3.07517084 15 5 C11.06329512 6.31223496 8.87511856 5.24296256 5 4 C4.67 4.66 4.34 5.32 4 6 C2.68 4.02 1.36 2.04 0 0 Z " fill="#706C67" transform="translate(879,371)"/>
<path d="M0 0 C1.051875 0.6496875 1.051875 0.6496875 2.125 1.3125 C6.23942462 3.72748837 10.30517827 3.7356314 15 4 C15 4.33 15 4.66 15 5 C7.87399867 5.35368021 2.52940894 4.95671348 -4 2 C-2.3125 0.8125 -2.3125 0.8125 0 0 Z " fill="#624B40" transform="translate(759,305)"/>
<path d="M0 0 C1.98 0.495 1.98 0.495 4 1 C3.67 2.65 3.34 4.3 3 6 C1.68 5.67 0.36 5.34 -1 5 C-0.67 3.35 -0.34 1.7 0 0 Z " fill="#8E8D8B" transform="translate(462,235)"/>
<path d="M0 0 C-1.44077046 3.36179774 -3.24750021 5.59156268 -6 8 C-6.66 8 -7.32 8 -8 8 C-6.48291727 4.46014029 -4.24676932 0 0 0 Z " fill="#A37837" transform="translate(208,535)"/>
<path d="M0 0 C0.99 1.32 1.98 2.64 3 4 C2.34 4 1.68 4 1 4 C0.67 7.3 0.34 10.6 0 14 C-0.33 14 -0.66 14 -1 14 C-2.51708428 4.58997722 -2.51708428 4.58997722 0 0 Z " fill="#425B74" transform="translate(68,449)"/>
<path d="M0 0 C0.66 0.99 1.32 1.98 2 3 C0.625 6.6875 0.625 6.6875 -1 10 C-1.99 10 -2.98 10 -4 10 C-2.8905928 6.51329166 -1.73662334 3.22515763 0 0 Z " fill="#456483" transform="translate(69,371)"/>
<path d="M0 0 C-1.52708963 3.43595166 -3.59927045 6.11912454 -6 9 C-6.8125 7.3125 -6.8125 7.3125 -7 5 C-2.79545455 0 -2.79545455 0 0 0 Z " fill="#537AA1" transform="translate(87,353)"/>
<path d="M0 0 C0.33 0 0.66 0 1 0 C2.7578125 5.95703125 2.7578125 5.95703125 3 8 C2.01 9.485 2.01 9.485 1 11 C-0.98362069 8.08291076 -0.9876191 6.87619096 -0.625 3.25 C-0.41875 2.1775 -0.2125 1.105 0 0 Z " fill="#6B482F" transform="translate(379,295)"/>
<path d="M0 0 C2 0 2 0 4 1.875 C4.66 2.57625 5.32 3.2775 6 4 C6.66 4.66 7.32 5.32 8 6 C6.53984709 5.71758359 5.08190207 5.42373386 3.625 5.125 C2.81289063 4.96257812 2.00078125 4.80015625 1.1640625 4.6328125 C-1 4 -1 4 -3 2 C-2.01 1.67 -1.02 1.34 0 1 C0 0.67 0 0.34 0 0 Z " fill="#675844" transform="translate(911,279)"/>
<path d="M0 0 C-1.28519565 2.86697492 -2.57129254 4.97607712 -5 7 C-5.66 7 -6.32 7 -7 7 C-3.86206897 0 -3.86206897 0 0 0 Z " fill="#837C74" transform="translate(601,136)"/>
<path d="M0 0 C0.99 0.33 1.98 0.66 3 1 C3 2.65 3 4.3 3 6 C1.68 5.67 0.36 5.34 -1 5 C-0.67 3.35 -0.34 1.7 0 0 Z " fill="#456E96" transform="translate(425,130)"/>
<path d="M0 0 C2 0 2 0 4 1.875 C4.66 2.57625 5.32 3.2775 6 4 C6.66 4.66 7.32 5.32 8 6 C3.545 5.01 3.545 5.01 -1 4 C-0.34 3.67 0.32 3.34 1 3 C0.67 2.01 0.34 1.02 0 0 Z " fill="#64493C" transform="translate(906,378)"/>
<path d="M0 0 C3.64734979 0.22330713 5.38372835 0.38372835 8 3 C4.37 3 0.74 3 -3 3 C-2.01 2.01 -1.02 1.02 0 0 Z " fill="#685840" transform="translate(920,257)"/>
</svg>
