<?xml version="1.0" encoding="UTF-8"?>
<svg version="1.1" xmlns="http://www.w3.org/2000/svg" width="1008" height="606">
<path d="M0 0 C332.64 0 665.28 0 1008 0 C1008 199.98 1008 399.96 1008 606 C675.36 606 342.72 606 0 606 C0 406.02 0 206.04 0 0 Z " fill="#D6CDC1" transform="translate(0,0)"/>
<path d="M0 0 C3.38962725 0.01133621 6.77893807 0.00463941 10.16855431 -0.00688457 C42.07134846 -0.09847159 74.56212338 1.02205244 105.83520508 7.69824219 C106.74012695 7.89135986 107.64504883 8.08447754 108.57739258 8.28344727 C129.99642592 13.15882345 129.99642592 13.15882345 135.39770508 21.26074219 C135.01848254 31.3101395 127.75368617 37.38063207 120.88989258 43.89990234 C118.62551631 45.96496015 116.2378534 47.85978322 113.83520508 49.76074219 C106.46359539 55.66436656 96.61184638 63.60895722 94.39770508 73.26074219 C93.07252857 86.61119067 96.05017009 95.50375808 102.96020508 106.76074219 C109.96615614 118.2108723 112.64606137 129.76841282 109.77661133 143.15917969 C104.41887085 158.25610176 89.69797726 168.9045947 77.63208008 178.44824219 C65.10797692 188.46752471 54.08475423 198.17025582 50.39770508 214.26074219 C51.09331543 214.25550537 51.78892578 214.25026855 52.50561523 214.24487305 C55.67796921 214.22399882 58.85030869 214.21104886 62.02270508 214.19824219 C63.66432617 214.18567383 63.66432617 214.18567383 65.33911133 214.17285156 C66.93432617 214.16801758 66.93432617 214.16801758 68.56176758 214.16308594 C69.53581543 214.15784912 70.50986328 214.1526123 71.51342773 214.1472168 C74.54645829 214.26659713 77.41685775 214.70207495 80.39770508 215.26074219 C80.72770508 214.27074219 81.05770508 213.28074219 81.39770508 212.26074219 C81.72770508 214.24074219 82.05770508 216.22074219 82.39770508 218.26074219 C82.06770508 217.60074219 81.73770508 216.94074219 81.39770508 216.26074219 C70.83770508 216.26074219 60.27770508 216.26074219 49.39770508 216.26074219 C49.72770508 225.17074219 50.05770508 234.08074219 50.39770508 243.26074219 C51.05770508 243.59074219 51.71770508 243.92074219 52.39770508 244.26074219 C51.40770508 244.59074219 50.41770508 244.92074219 49.39770508 245.26074219 C49.39770508 252.19074219 49.39770508 259.12074219 49.39770508 266.26074219 C51.04770508 265.93074219 52.69770508 265.60074219 54.39770508 265.26074219 C51.13071374 268.52773353 48.13512962 268.37657413 43.69369507 268.38516235 C42.91901886 268.38156708 42.14434265 268.3779718 41.34619141 268.37426758 C40.5264534 268.3744136 39.70671539 268.37455963 38.86213684 268.37471008 C36.1513098 268.37401315 33.44055138 268.36623097 30.72973633 268.35839844 C28.85072365 268.35653348 26.97171048 268.35510994 25.09269714 268.35411072 C20.14595193 268.35029166 15.19923606 268.34046657 10.25250244 268.32940674 C5.20520423 268.31917949 0.15790129 268.31461028 -4.8894043 268.30957031 C-14.79371406 268.29884378 -24.69800205 268.28177466 -34.60229492 268.26074219 C-34.60816116 267.60643219 -34.6140274 266.95212219 -34.62007141 266.27798462 C-34.6843001 259.43130293 -34.76879437 252.58507853 -34.86474609 245.73876953 C-34.89787862 243.18804984 -34.92594639 240.6372589 -34.94873047 238.08642578 C-34.98249101 234.4072449 -35.03481907 230.72871021 -35.09057617 227.04980469 C-35.09696609 225.92023346 -35.10335602 224.79066223 -35.10993958 223.62686157 C-35.41374351 207.04524119 -42.02371601 197.27423233 -53.71948242 185.91308594 C-58.17800861 181.81100019 -62.87029413 178.03994822 -67.60229492 174.26074219 C-93.23278526 153.53938048 -93.23278526 153.53938048 -95.60229492 140.26074219 C-96.61314165 125.5454653 -93.56997921 115.13762922 -85.83129883 102.61816406 C-80.13430296 93.3560745 -78.32024264 85.27130882 -79.60229492 74.26074219 C-82.94201331 62.45365698 -93.47415803 53.97387482 -102.71948242 46.65136719 C-106.00076711 43.93030183 -109.067743 41.06388877 -112.10229492 38.07324219 C-112.60680176 37.58605713 -113.11130859 37.09887207 -113.63110352 36.59692383 C-117.8214262 32.40162789 -120.60229492 28.67422243 -120.60229492 22.63574219 C-119.21922374 17.96787696 -116.47637169 16.35832211 -112.36791992 13.95214844 C-79.28413533 -0.89445676 -35.534849 -0.11979122 0 0 Z " fill="#DD6544" transform="translate(498.602294921875,275.7392578125)"/>
<path d="M0 0 C0 0.33 0 0.66 0 1 C-0.82242187 1.21914062 -1.64484375 1.43828125 -2.4921875 1.6640625 C-13.72253113 4.8542063 -23.3158947 9.03336971 -30 19 C-36.07545019 30.51968477 -38.10488842 42.26940153 -35.31640625 55.16015625 C-34.38455266 57.59998868 -33.32901835 59.7534241 -32 62 C-31.55269531 62.78632813 -31.10539062 63.57265625 -30.64453125 64.3828125 C-23.96261685 75.23868415 -14.88329022 80.29221313 -2.765625 83.40625 C1.15252616 84.247435 5.00728934 84.67272863 9 85 C9 85.33 9 85.66 9 86 C-24.66445019 87.97873701 -58.27856793 89.54039313 -92 90 C-88.5385781 85.81039697 -85.34837525 82.28543908 -81 79 C-80.34 79 -79.68 79 -79 79 C-80.09740625 77.37042688 -81.20318192 75.74648772 -82.3125 74.125 C-82.92738281 73.22007812 -83.54226563 72.31515625 -84.17578125 71.3828125 C-85.94913949 68.80028615 -85.94913949 68.80028615 -89 67 C-94.445 72.445 -94.445 72.445 -100 78 C-98.13744708 81.9469935 -98.13744708 81.9469935 -95.875 85.125 C-94 88 -94 88 -94 90 C-94.71027344 90.06058594 -95.42054688 90.12117188 -96.15234375 90.18359375 C-97.07144531 90.26738281 -97.99054688 90.35117188 -98.9375 90.4375 C-100.31228516 90.55931641 -100.31228516 90.55931641 -101.71484375 90.68359375 C-103.96159732 90.76044976 -103.96159732 90.76044976 -105 92 C-107.29419961 92.21802298 -109.59485731 92.36807939 -111.89599609 92.49316406 C-112.62683253 92.53415411 -113.35766897 92.57514416 -114.11065197 92.61737633 C-116.58135142 92.75470868 -119.05236581 92.88517416 -121.5234375 93.015625 C-123.29054215 93.11221604 -125.05762649 93.20917935 -126.82469177 93.30648804 C-131.65941869 93.57135802 -136.49446267 93.82997408 -141.32959366 94.08734894 C-145.40289649 94.30489857 -149.47600417 94.52599096 -153.54912281 94.74695778 C-188.13722688 96.62183004 -222.73134117 98.38031242 -257.32757759 100.09793186 C-278.0266926 101.12573182 -298.72100311 102.18587404 -319.40917969 103.41552734 C-350.82660387 105.28223634 -350.82660387 105.28223634 -365.95721436 105.47177124 C-367.93346316 105.49826981 -369.90941229 105.5449402 -371.88525391 105.59301758 C-383.06281172 105.59534011 -393.44404358 102.36210203 -402 95 C-402 94.34 -402 93.68 -402 93 C-402.66 93 -403.32 93 -404 93 C-412.45105347 83.21676076 -416.43090372 72.13806248 -416.2734375 59.3203125 C-415.27948396 47.25087663 -409.93010781 37.40025279 -401.1875 29.1875 C-392.62958717 22.15541659 -382.82415505 18.88611884 -371.8371582 18.36499023 C-371.03571884 18.32043512 -370.23427948 18.27588001 -369.40855408 18.22997475 C-366.7063199 18.0817768 -364.00362243 17.94524043 -361.30078125 17.80859375 C-359.3180939 17.70237667 -357.33544416 17.59545566 -355.35282898 17.48789978 C-349.84389121 17.19119336 -344.33445674 16.9048058 -338.82489014 16.62004852 C-332.85756373 16.30991025 -326.89073349 15.99048085 -320.92382812 15.67236328 C-309.37512859 15.05827749 -297.82601522 14.4524488 -286.27670121 13.85005617 C-273.91654811 13.20533274 -261.55660769 12.55664251 -249.19677734 11.90576172 C-245.56267851 11.71441218 -241.92857913 11.5230732 -238.29447937 11.33174133 C-237.38240831 11.28372126 -236.47033725 11.23570118 -235.53062767 11.18622595 C-200.02771479 9.31724231 -164.52462736 7.45118237 -129.02018738 5.61140442 C-127.74271652 5.54519733 -127.74271652 5.54519733 -126.43943816 5.47765273 C-119.37239814 5.11140423 -119.37239814 5.11140423 -116.1450268 4.94426477 C-105.53781393 4.39476402 -94.93097373 3.83875056 -84.32455635 3.27409637 C-77.12707011 2.89097414 -69.92941219 2.51120259 -62.73162651 2.13374817 C-58.49840104 1.91155493 -54.26528911 1.68757151 -50.03240967 1.45887375 C-33.35211757 0.55856552 -16.71228484 -0.3226003 0 0 Z " fill="#6EB2F4" transform="translate(466,76)"/>
<path d="M0 0 C16.4501397 15.01860082 28.39131993 36.52645539 29.71704102 59.02490234 C30.78237415 86.94974934 24.69676406 110.10004342 5.9140625 131.32421875 C-7.46123486 145.6858815 -24.940187 156.02276463 -44.44140625 159.3359375 C-46.09140625 159.3359375 -47.74140625 159.3359375 -49.44140625 159.3359375 C-49.44140625 222.0359375 -49.44140625 284.7359375 -49.44140625 349.3359375 C-11.16140625 349.3359375 27.11859375 349.3359375 66.55859375 349.3359375 C66.55859375 352.9659375 66.55859375 356.5959375 66.55859375 360.3359375 C66.22859375 360.3359375 65.89859375 360.3359375 65.55859375 360.3359375 C65.55859375 357.0359375 65.55859375 353.7359375 65.55859375 350.3359375 C59.9248042 350.4311434 54.29136352 350.53754918 48.65795898 350.65332031 C46.75078772 350.69105758 44.84355849 350.72599413 42.9362793 350.7578125 C30.03972858 350.97541842 17.36233355 351.76012109 4.55859375 353.3359375 C4.55859375 353.0059375 4.55859375 352.6759375 4.55859375 352.3359375 C-3.02257212 352.26585041 -10.60370361 352.21283256 -18.18512154 352.18050098 C-21.70702841 352.16496879 -25.22871064 352.14396436 -28.75048828 352.10961914 C-32.81675134 352.07022061 -36.88278541 352.05612575 -40.94921875 352.04296875 C-42.18938751 352.02748489 -43.42955627 352.01200104 -44.70730591 351.99604797 C-52.19964901 351.99463343 -59.01422238 352.84028081 -66.30245972 354.59233093 C-69.32020086 355.30722432 -72.38233896 355.82609295 -75.44140625 356.3359375 C-75.11140625 291.3259375 -74.78140625 226.3159375 -74.44140625 159.3359375 C-77.74140625 159.0059375 -81.04140625 158.6759375 -84.44140625 158.3359375 C-107.42401814 152.51491269 -127.98405781 137.67048292 -140.48974609 117.47998047 C-153.17148292 96.1791309 -157.67009216 70.14479346 -151.75390625 45.8359375 C-150.02504701 39.33539561 -147.56255011 33.28447051 -144.44140625 27.3359375 C-143.81492187 26.02109375 -143.81492187 26.02109375 -143.17578125 24.6796875 C-132.3475183 3.02316159 -112.02788644 -12.07012159 -89.44140625 -19.6640625 C-57.44564673 -29.22903164 -25.22880496 -21.45730001 0 0 Z " fill="#DC9D3D" transform="translate(887.44140625,72.6640625)"/>
<path d="M0 0 C2.72450906 2.69227906 3.9008757 4.31502976 4.45410156 8.13793945 C4.42268066 9.85823364 4.42268066 9.85823364 4.390625 11.61328125 C4.37128906 13.4840332 4.37128906 13.4840332 4.3515625 15.39257812 C4.31804687 16.68615234 4.28453125 17.97972656 4.25 19.3125 C4.22292969 21.28186523 4.22292969 21.28186523 4.1953125 23.29101562 C4.14822786 26.52808488 4.08247042 29.76367053 4 33 C5.27230469 32.03900391 5.27230469 32.03900391 6.5703125 31.05859375 C20.10201682 21.00485521 37.42334692 10.09370383 55 11 C55.33 9.35 55.66 7.7 56 6 C57 9 57 9 56 12 C55.16368653 21.53397352 54.65951795 31.68568716 59.22265625 40.3203125 C59.47917969 40.87460937 59.73570312 41.42890625 60 42 C59.505 42.99 59.505 42.99 59 44 C55.91532502 38.60540561 54.44356295 34.20988129 54 28 C40.53742267 31.0356792 28.56189611 35.42694825 17.8671875 44.51953125 C15.99509539 46.0038888 14.16847949 47.01213712 12 48 C11.67932303 51.0838435 11.63167662 52.51727314 13.546875 55.02734375 C31.76248378 70.82066413 55.6168339 74.44638141 79 73 C88.65446397 72.05850394 97.4206868 69.59865729 106 65 C105.67 64.34 105.34 63.68 105 63 C105.67804688 62.79246094 106.35609375 62.58492188 107.0546875 62.37109375 C117.11554848 59.04069794 124.97067023 54.41772462 130.94140625 45.50390625 C131.29074219 45.00761719 131.64007813 44.51132812 132 44 C132.33 44 132.66 44 133 44 C133.47865944 55.48782665 130.87716434 64.96882936 122.9375 73.625 C108.56963918 87.02878358 89.32915203 90.39572314 70.4375 90.3125 C69.7742572 90.31034485 69.1110144 90.3081897 68.42767334 90.30596924 C45.78467391 90.18794812 21.61719735 85.6961661 4.65625 69.41796875 C2.94437575 67.77214918 2.94437575 67.77214918 0 67 C-3.7450562 85.01193697 -3.62457477 100.16235446 1 118 C1.57105469 117.5153125 2.14210938 117.030625 2.73046875 116.53125 C21.41873486 101.08149106 41.89336761 92.60471767 66.22998047 92.68432617 C68.23280274 92.68747298 70.23560659 92.66319042 72.23828125 92.63867188 C90.91758802 92.62947025 109.3109556 97.12128797 123.25390625 110.09765625 C129.48821555 116.60751513 133.08591231 123.34051115 133.5 132.4375 C133.0393719 142.34798329 129.41655132 149.64693586 122.5390625 156.71484375 C104.58297797 172.87531982 81.24199667 173.94463663 58.29394531 173.1953125 C51.19089675 172.77414152 44.72590594 171.25366994 38 169 C37.04528809 168.68651611 37.04528809 168.68651611 36.07128906 168.36669922 C22.90917316 163.94064765 11.89075478 156.49478872 1 148 C0.51490207 149.37291868 0.03724487 150.74846703 -0.4375 152.125 C-0.70433594 152.89070312 -0.97117187 153.65640625 -1.24609375 154.4453125 C-4.90507538 166.84414146 -3.84967057 180.83264744 0 193 C0.34281457 194.33092714 0.67984738 195.66344054 1 197 C2.2375 196.14728516 2.2375 196.14728516 3.5 195.27734375 C29.2539954 177.89878512 61.00476739 170.30465993 91.875 176.1875 C106.38545596 179.48043486 120.20082111 185.083484 128.6875 197.875 C133.0093345 205.14601088 134.21224215 212.44321217 132.41796875 220.66796875 C129.13868437 231.28446476 121.71741546 238.77775909 112.30078125 244.3984375 C89.57397502 255.42564526 61.53827234 256.6648939 37.60546875 248.8984375 C25.44402961 244.50955958 15.75626121 238.42445413 6 230 C4.7729277 228.97665013 3.54421598 227.95525593 2.3125 226.9375 C1.549375 226.298125 0.78625 225.65875 0 225 C-2.95496875 232.78929763 -3.65636056 241.96566397 -0.4375 249.8125 C8.1385959 265.91882644 23.07514304 273.48622173 40 278.6875 C55.05791196 283.0253527 70.47467749 284.36163141 86.09399414 284.53417969 C95.14074029 284.71962924 95.14074029 284.71962924 99 288 C100.12256131 290.24512262 100.13413762 291.51456649 100.125 294 C100.12886719 295.051875 100.12886719 295.051875 100.1328125 296.125 C100 298 100 298 99 300 C98.34 299.67 97.68 299.34 97 299 C97.33 298.34 97.66 297.68 98 297 C98.37615126 292.86935374 98.37615126 292.86935374 96.875 289.125 C94.11909116 287.47145469 92.14924548 287.60634432 89 288 C87 289 87 289 86 291 C85.60984439 294.12124489 85.44122451 296.09975061 87.125 298.8125 C89.66676215 300.42228269 92.0398108 300.67109009 95 301 C95 301.33 95 301.66 95 302 C60.96833039 302.44006469 22.18581444 298.64165444 -3.8347168 274.26123047 C-14.04348529 264.28196801 -20.05699352 252.67539921 -20.25 238.3125 C-20.16197742 228.9429856 -18.06200364 221.98991353 -12.890625 214.203125 C-11.32008061 210.31809415 -12.56748741 207.06883508 -14.0859375 203.31640625 C-14.72402344 201.95322266 -14.72402344 201.95322266 -15.375 200.5625 C-22.79469769 183.16384658 -23.45910472 162.68550445 -16.5 144.98046875 C-15.09283582 141.61007671 -13.54569663 138.30890148 -12 135 C-10.62986765 130.88960295 -11.93416745 129.44059952 -13.75 125.5625 C-18.0421499 116.02989134 -20.45459091 106.46193803 -21 96 C-21.05285156 95.17371094 -21.10570312 94.34742188 -21.16015625 93.49609375 C-21.60243578 80.59306923 -18.78273242 63.11052725 -11.15625 52.4140625 C-9.54445148 47.65490067 -10.93210782 44.45768684 -12.19580078 39.6875 C-13.4741149 33.82603783 -13.48403731 28.01770522 -13.44604492 22.04931641 C-13.43738875 19.97331914 -13.46667001 17.8999563 -13.49804688 15.82421875 C-13.49965606 14.48697998 -13.49908679 13.14973639 -13.49609375 11.8125 C-13.49794678 10.62269531 -13.4997998 9.43289062 -13.50170898 8.20703125 C-12.9005599 4.3643576 -11.74052166 2.71539064 -9 0 C-5.39297148 -1.20234284 -3.64185324 -1.0405295 0 0 Z " fill="#6BA9E6" transform="translate(79,242)"/>
<path d="M0 0 C0.04413145 2.86345229 0.07623419 5.7262135 0.1015625 8.58984375 C0.11517822 9.3933728 0.12879395 10.19690186 0.14282227 11.02478027 C0.22795499 23.88309663 -5.06275578 33.71422761 -13.5 43.125 C-26.25335952 55.25154034 -45.50107056 58.43679147 -62.125 61.5 C-88.72249015 66.43025718 -106.31534808 78.3480982 -125.83984375 96.6640625 C-151.82501482 120.98611368 -179.54993617 135.38702698 -215.84765625 134.4375 C-234.78483172 133.53775298 -252.3212799 126.31685682 -270 120 C-309.99392554 105.74473941 -349.50505205 102.56945433 -390.35498047 115.98120117 C-395.26845165 117.58369246 -399.84873754 118.51358955 -405 119 C-405 102.33333333 -405 85.66666667 -405 69 C-402.56780381 67.78390191 -400.98946238 67.8707485 -398.2734375 67.8671875 C-396.84837891 67.86525391 -396.84837891 67.86525391 -395.39453125 67.86328125 C-394.39808594 67.86714844 -393.40164063 67.87101562 -392.375 67.875 C-391.40175781 67.87113281 -390.42851563 67.86726563 -389.42578125 67.86328125 C-383.85625703 67.87077724 -378.50881745 68.17564014 -373 69 C-373 69.66 -373 70.32 -373 71 C-372.34 71 -371.68 71 -371 71 C-369.375 73.5 -369.375 73.5 -368 76 C-366.86304688 75.60167969 -365.72609375 75.20335937 -364.5546875 74.79296875 C-340.67437785 66.53271343 -317.88504863 64.17731453 -293 70 C-292.67 68.35 -292.34 66.7 -292 65 C-290.875 68.75 -290.875 68.75 -292 71 C-290.48019531 71.18175781 -290.48019531 71.18175781 -288.9296875 71.3671875 C-285.13249686 71.97866353 -281.7661121 72.90048346 -278.125 74.125 C-277.49005615 74.33656738 -276.8551123 74.54813477 -276.20092773 74.76611328 C-272.57223813 76.00668339 -269.04066535 77.3840831 -265.52734375 78.921875 C-264.78274902 79.24526855 -264.0381543 79.56866211 -263.27099609 79.90185547 C-261.83515192 80.53454117 -260.40646035 81.18380624 -258.98681641 81.85205078 C-253.86196143 84.11692608 -250.497776 84.09341243 -245 83 C-245.33 83.66 -245.66 84.32 -246 85 C-246.66 85 -247.32 85 -248 85 C-248 85.66 -248 86.32 -248 87 C-247.319375 87.17015625 -246.63875 87.3403125 -245.9375 87.515625 C-244.968125 87.75796875 -243.99875 88.0003125 -243 88.25 C-241.90558594 88.51941406 -240.81117188 88.78882813 -239.68359375 89.06640625 C-237.14128827 89.71074454 -234.6209598 90.37987193 -232.09765625 91.08984375 C-212.01212297 96.63979374 -194.87335576 93.14257515 -176.92724609 83.10742188 C-167.26087282 77.55299203 -158.4701989 71.27180538 -150 64 C-148.86544905 63.04974668 -147.72998635 62.10058117 -146.59375 61.15234375 C-139.94502487 55.56977782 -133.7221078 49.79199727 -127.64453125 43.58984375 C-124.18754853 40.2043496 -120.51295831 37.17965984 -116.7265625 34.171875 C-114.94683126 32.75420943 -113.19001353 31.30715003 -111.4609375 29.828125 C-77.36749992 0.7817522 -42.88887454 -0.58497101 0 0 Z " fill="#6EB0F1" transform="translate(953,423)"/>
<path d="M0 0 C2.52060966 2.20169106 4.89606938 4.48504153 7.25 6.86328125 C7.94738281 7.52714844 8.64476562 8.19101563 9.36328125 8.875 C21.11929389 20.85928473 26.35459396 37.22339896 26.4375 53.73828125 C26.39037509 55.78036065 26.33374537 57.82237563 26.25 59.86328125 C25.59 59.86328125 24.93 59.86328125 24.25 59.86328125 C24.8275 60.50265625 25.405 61.14203125 26 61.80078125 C32.96061715 71.2749546 34.24116031 81.37547763 33.25 92.86328125 C31.23610828 104.31809213 25.79361644 113.79484986 16.4375 120.80078125 C4.82021584 128.11211289 -7.70984113 130.1304139 -21.140625 127.09765625 C-26.16598847 125.36761309 -30.51790923 123.06594454 -34.75 119.86328125 C-34.75 120.52328125 -34.75 121.18328125 -34.75 121.86328125 C-53.64961763 122.63879747 -71.08750255 118.1202791 -85.73828125 105.7578125 C-99.72358007 92.58719128 -108.5603842 76.73404182 -109.29101562 57.35180664 C-109.44870188 38.62835613 -104.29967047 21.87803589 -91.04296875 8.1328125 C-90.28628906 7.38386719 -89.52960937 6.63492188 -88.75 5.86328125 C-87.75419922 4.81720703 -87.75419922 4.81720703 -86.73828125 3.75 C-80.13250957 -2.72994746 -72.1549035 -6.50894229 -63.75 -10.13671875 C-62.85796875 -10.52214844 -61.9659375 -10.90757813 -61.046875 -11.3046875 C-41.16604857 -18.13471335 -16.20126881 -12.58820176 0 0 Z " fill="#D5CCC0" transform="translate(866.75,87.13671875)"/>
<path d="M0 0 C16.5 0 33 0 50 0 C50 47.19 50 94.38 50 143 C-6.76 143 -63.52 143 -122 143 C-115.38387356 135.28118582 -109.28402898 130.61833864 -100.34936523 126.06884766 C-85.64224521 118.57252655 -77.94134986 108.02790215 -72.5 92.5 C-66.02143013 74.03886292 -55.72468264 64.02838698 -38.81201172 54.97851562 C-24.95852163 47.49740699 -16.84610492 36.75604353 -11.546875 22.03125 C-11.29832764 21.34240723 -11.04978027 20.65356445 -10.79370117 19.94384766 C-10.32627056 18.62130775 -9.87430176 17.29313464 -9.44262695 15.95849609 C-7.20432865 9.47715552 -4.30351271 6.1478753 0 0 Z " fill="#DA9C3D" transform="translate(320,401)"/>
<path d="M0 0 C2.84913009 3.39182154 4.68499913 6.76277497 6 11 C5.03523618 13.01723344 4.03161608 15.01612292 3 17 C2.63757636 20.2376512 2.99434857 22.90729043 4 26 C5.62842089 27.83690142 5.62842089 27.83690142 7.5546875 29.5546875 C11.45011588 33.82879656 11.67860302 36.98122694 11.46264648 42.62988281 C11.39247314 43.65952148 11.3222998 44.68916016 11.25 45.75 C10.93211438 54.50745016 11.10709645 61.66603952 14 70 C14.3460919 71.33007868 14.68401873 72.66244823 15 74 C15.825 73.43152344 16.65 72.86304688 17.5 72.27734375 C43.2539954 54.89878512 75.00476739 47.30465993 105.875 53.1875 C120.38545596 56.48043486 134.20082111 62.083484 142.6875 74.875 C147.0093345 82.14601088 148.21224215 89.44321217 146.41796875 97.66796875 C143.13868437 108.28446476 135.71741546 115.77775909 126.30078125 121.3984375 C103.57397502 132.42564526 75.53827234 133.6648939 51.60546875 125.8984375 C39.44402961 121.50955958 29.75626121 115.42445413 20 107 C18.7729277 105.97665013 17.54421598 104.95525593 16.3125 103.9375 C15.549375 103.298125 14.78625 102.65875 14 102 C11.04503125 109.78929763 10.34363944 118.96566397 13.5625 126.8125 C22.1385959 142.91882644 37.07514304 150.48622173 54 155.6875 C69.05791196 160.0253527 84.47467749 161.36163141 100.09399414 161.53417969 C109.14074029 161.71962924 109.14074029 161.71962924 113 165 C114.12256131 167.24512262 114.13413762 168.51456649 114.125 171 C114.12886719 172.051875 114.12886719 172.051875 114.1328125 173.125 C114 175 114 175 113 177 C112.34 176.67 111.68 176.34 111 176 C111.33 175.34 111.66 174.68 112 174 C112.37615126 169.86935374 112.37615126 169.86935374 110.875 166.125 C108.11909116 164.47145469 106.14924548 164.60634432 103 165 C101 166 101 166 100 168 C99.60984439 171.12124489 99.44122451 173.09975061 101.125 175.8125 C103.66676215 177.42228269 106.0398108 177.67109009 109 178 C109 178.33 109 178.66 109 179 C74.96833039 179.44006469 36.18581444 175.64165444 10.1652832 151.26123047 C-0.04348529 141.28196801 -6.05699352 129.67539921 -6.25 115.3125 C-6.16197742 105.9429856 -4.06200364 98.98991353 1.109375 91.203125 C2.67991939 87.31809415 1.43251259 84.06883508 -0.0859375 80.31640625 C-0.51132813 79.40761719 -0.93671875 78.49882812 -1.375 77.5625 C-8.79469769 60.16384658 -9.45910472 39.68550445 -2.5 21.98046875 C-1.09283582 18.61007671 0.45430337 15.30890148 2 12 C3.40307565 8.94931384 3.40307565 8.94931384 1.5625 6 C1.046875 5.01 0.53125 4.02 0 3 C0 2.01 0 1.02 0 0 Z " fill="#6BA9E5" transform="translate(65,365)"/>
<path d="M0 0 C2.0458028 -0.00281129 4.09158596 -0.0083282 6.13738251 -0.01401138 C38.4486222 -0.06041205 71.4642306 0.9822341 103.1528244 7.74712753 C104.05774628 7.94024521 104.96266815 8.13336288 105.8950119 8.33233261 C114.16620569 10.2150124 122.62231095 12.51860944 129.7153244 17.30962753 C130.65762748 20.03241489 130.57183582 22.39202641 130.7153244 25.30962753 C113.51035528 37.85491752 87.70290798 39.62129397 67.0903244 41.55962753 C66.21055939 41.6433461 65.33079437 41.72706467 64.42436981 41.81332016 C44.99426358 43.57944304 25.53634513 43.71824098 6.04174805 43.74308395 C3.63610128 43.74705202 1.23051236 43.75589976 -1.17511749 43.76556015 C-95.83195838 44.06858417 -95.83195838 44.06858417 -120.2846756 26.30962753 C-121.2846756 25.30962753 -121.2846756 25.30962753 -121.8471756 22.05962753 C-121.2846756 18.30962753 -121.2846756 18.30962753 -118.2846756 15.68462753 C-84.5112315 -2.07254411 -37.10401823 0.04648017 0 0 Z " fill="#E2A13E" transform="translate(501.28467559814453,275.690372467041)"/>
<path d="M0 0 C5.10984177 4.25154803 8.94987362 9.10085447 12 15 C12.32097656 15.61875 12.64195312 16.2375 12.97265625 16.875 C16.79674282 25.98166198 16.50388555 38.72154026 13.4375 48 C7.80234041 60.8465876 -0.72453614 68.64354454 -13.6171875 73.859375 C-15.99736882 74.99874049 -17.20790432 76.1135835 -19 78 C-34.95416735 87.97593913 -59.184769 86.8334126 -76.89453125 83.0390625 C-87.9775422 80.3774466 -98.14908437 76.34695145 -107 69 C-107.5775 68.54496094 -108.155 68.08992188 -108.75 67.62109375 C-110.1875 66.375 -110.1875 66.375 -112 64 C-111.84377777 60.79223685 -111.34404928 59.36785143 -109.13671875 57.0078125 C-97.60281076 48.14123571 -84.08497576 39 -69 39 C-67.68 43.29 -66.36 47.58 -65 52 C-69.20191697 40.88056546 -70.31855518 27.79876297 -66.125 16.4375 C-60.48106026 5.19731578 -51.30625852 -2.5797759 -39.8125 -7.3125 C-25.43013213 -10.82818992 -12.02279628 -8.89185975 0 0 Z " fill="#F2F2F2" transform="translate(202,231)"/>
<path d="M0 0 C15.84 0 31.68 0 48 0 C48 46.53 48 93.06 48 141 C32.16 141 16.32 141 0 141 C0 94.47 0 47.94 0 0 Z " fill="#D6CDC1" transform="translate(321,402)"/>
<path d="M0 0 C7.68039626 6.98702716 12.5927232 16.52229031 13.6953125 26.828125 C14.11955945 40.57372628 10.75433596 52.05803545 1.3125 62.25 C-8.96384772 71.40157334 -19.92946158 74.16107996 -33.37109375 73.62890625 C-45.12219689 72.8138156 -53.45567715 66.83676033 -61.4375 58.5625 C-69.03292269 49.5009841 -71.58913901 37.82103391 -70.6875 26.25 C-68.73853932 14.67185223 -62.98657541 4.50857477 -53.6875 -2.75 C-35.66665829 -13.81327254 -16.7930869 -13.26543626 0 0 Z " fill="#F2F2F2" transform="translate(886.6875,141.75)"/>
<path d="M0 0 C10.20650619 6.13692637 17.60994182 15.60404172 21 27 C23.85055706 39.00336612 21.84156389 49.71616813 15.6484375 60.3125 C9.07033532 69.7202886 0.25679907 76.49127514 -11 79 C-24.87713816 79.84650543 -36.96882843 79.25694057 -48.03515625 69.8515625 C-55.77985018 62.55338174 -61.72950272 53.60212369 -62.37109375 42.6796875 C-62.71046278 29.43192984 -60.62842777 19.37666091 -51.8671875 8.9609375 C-38.4813391 -5.09700371 -17.43973023 -8.81137794 0 0 Z " fill="#F2F2F2" transform="translate(491,81)"/>
<path d="M0 0 C0.44472656 0.66128906 0.88945313 1.32257813 1.34765625 2.00390625 C1.88519531 2.77863281 2.42273438 3.55335937 2.9765625 4.3515625 C8.0166687 12.20927023 10.91401922 19.3793788 10.78515625 28.75390625 C10.77685791 29.53886475 10.76855957 30.32382324 10.76000977 31.13256836 C10.36394508 44.89053065 4.77529844 54.0269914 -5.02734375 63.31640625 C-13.64311775 70.67418948 -23.93803082 73.12568688 -35.04296875 73.63671875 C-36.21172043 73.699198 -36.21172043 73.699198 -37.40408325 73.76293945 C-39.90315378 73.89352852 -42.40260509 74.01186504 -44.90234375 74.12890625 C-46.61670379 74.21458962 -48.33105925 74.3003646 -50.04541016 74.38623047 C-61.58501961 74.9460292 -73.09884976 75.27121074 -84.65234375 75.00390625 C-81.64335064 73.40098469 -78.64035152 72.30857164 -75.40234375 71.25390625 C-66.08440219 67.88358696 -58.19109941 61.49713705 -53.3984375 52.703125 C-52.39018373 50.48943131 -51.481356 48.29056563 -50.65234375 46.00390625 C-50.29527344 45.04871094 -49.93820312 44.09351563 -49.5703125 43.109375 C-46.87185655 33.98055594 -48.73235792 25.33666141 -51.875 16.5859375 C-52.65234375 14.00390625 -52.65234375 14.00390625 -51.65234375 12.00390625 C-40.7805682 4.00312385 -12.06252558 -13.86386273 0 0 Z " fill="#010101" transform="translate(560.65234375,85.99609375)"/>
<path d="M0 0 C2.72450906 2.69227906 3.9008757 4.31502976 4.45410156 8.13793945 C4.42268066 9.85823364 4.42268066 9.85823364 4.390625 11.61328125 C4.37128906 13.4840332 4.37128906 13.4840332 4.3515625 15.39257812 C4.31804687 16.68615234 4.28453125 17.97972656 4.25 19.3125 C4.22292969 21.28186523 4.22292969 21.28186523 4.1953125 23.29101562 C4.14822786 26.52808488 4.08247042 29.76367053 4 33 C5.27230469 32.03900391 5.27230469 32.03900391 6.5703125 31.05859375 C20.10201682 21.00485521 37.42334692 10.09370383 55 11 C55.33 9.35 55.66 7.7 56 6 C57 9 57 9 56 12 C55.16368653 21.53397352 54.65951795 31.68568716 59.22265625 40.3203125 C59.47917969 40.87460937 59.73570312 41.42890625 60 42 C59.505 42.99 59.505 42.99 59 44 C55.91532502 38.60540561 54.44356295 34.20988129 54 28 C40.53742267 31.0356792 28.56189611 35.42694825 17.8671875 44.51953125 C15.99509539 46.0038888 14.16847949 47.01213712 12 48 C11.67932303 51.0838435 11.63167662 52.51727314 13.546875 55.02734375 C31.76248378 70.82066413 55.6168339 74.44638141 79 73 C88.65446397 72.05850394 97.4206868 69.59865729 106 65 C105.67 64.34 105.34 63.68 105 63 C105.67804688 62.79246094 106.35609375 62.58492188 107.0546875 62.37109375 C117.11554848 59.04069794 124.97067023 54.41772462 130.94140625 45.50390625 C131.29074219 45.00761719 131.64007813 44.51132812 132 44 C132.33 44 132.66 44 133 44 C133.47865944 55.48782665 130.87716434 64.96882936 122.9375 73.625 C108.56963918 87.02878358 89.32915203 90.39572314 70.4375 90.3125 C69.7742572 90.31034485 69.1110144 90.3081897 68.42767334 90.30596924 C45.72335856 90.18762853 21.7920175 85.63486392 4.65625 69.515625 C2.86801191 67.80187459 2.86801191 67.80187459 0 66 C0 65.34 0 64.68 0 64 C-1.06492994 62.26693594 -2.17713892 60.56276243 -3.3125 58.875 C-6.7407109 53.58694999 -10 48.48228712 -10 42 C-10.66 42 -11.32 42 -12 42 C-13.22918565 35.53734146 -13.25818819 29.13001495 -13.29516602 22.57739258 C-13.30673732 21.14890682 -13.32726991 19.72046599 -13.35668945 18.29223633 C-13.39940313 16.21406083 -13.41553106 14.13715376 -13.42578125 12.05859375 C-13.44036377 10.82423584 -13.45494629 9.58987793 -13.4699707 8.31811523 C-12.91260935 4.38299934 -11.81186764 2.76040198 -9 0 C-5.39297148 -1.20234284 -3.64185324 -1.0405295 0 0 Z " fill="#6BA8E5" transform="translate(79,242)"/>
<path d="M0 0 C7.63185961 6.17817206 12.8377704 14.42441179 15 24 C15.26312083 27.0274373 15.28039748 30.02528546 15.25 33.0625 C15.25773438 33.83916016 15.26546875 34.61582031 15.2734375 35.41601562 C15.25791003 40.00050146 14.73928699 43.6862922 13 48 C12.07445312 47.855625 11.14890625 47.71125 10.1953125 47.5625 C-10.67966663 44.56630776 -30.76973027 44.77495787 -51 51 C-51.6791748 51.2077002 -52.35834961 51.41540039 -53.05810547 51.62939453 C-56.40354393 52.6702928 -59.7147818 53.78249677 -63 55 C-63.64995297 53.58521865 -64.29478722 52.16808513 -64.9375 50.75 C-65.29714844 49.96109375 -65.65679688 49.1721875 -66.02734375 48.359375 C-69.6716517 39.51936697 -69.43900599 26.96767188 -66.4375 17.9375 C-61.92347258 7.59483366 -53.38038317 -1.54194206 -43.0546875 -6.22265625 C-28.10175548 -11.87975411 -12.83148841 -9.31601213 0 0 Z " fill="#F2F2F2" transform="translate(647,445)"/>
<path d="M0 0 C3.41216395 3.05557745 6.72112791 6.4581495 7.23828125 11.171875 C7.40670103 17.02224627 7.09933614 20.49073024 3 25 C-10.74693009 37.35051507 -28.88981294 38.99748625 -46.62548828 38.16845703 C-61.25813559 37.13036052 -74.83595787 32.08100701 -87 24 C-87.71671875 23.53078125 -88.4334375 23.0615625 -89.171875 22.578125 C-90.82833925 21.45172931 -92.42250324 20.23456268 -94 19 C-94 18.34 -94 17.68 -94 17 C-95.32 16.34 -96.64 15.68 -98 15 C-93.63213684 5.1508968 -81.56936791 -1.01372397 -71.91455078 -4.82275391 C-49.05998981 -12.97199543 -20.94819919 -13.56777404 0 0 Z " fill="#D6CDC1" transform="translate(188,361)"/>
<path d="M0 0 C3.87455957 3.49345535 5.36014675 6.0781586 5.875 11.3125 C5.69679008 16.64889697 3.60952304 20.38529385 -0.08984375 24.09375 C-14.34345156 35.90646514 -33.90644503 36.57652268 -51.5 35.5 C-70.63973536 33.48109662 -84.73548255 24.27891003 -98.5 11.5 C-98.18012757 8.57636601 -97.69159974 7.65801676 -95.3828125 5.75390625 C-70.2363612 -9.66877564 -25.64283372 -21.35381882 0 0 Z " fill="#D6CDC1" transform="translate(189.5,443.5)"/>
<path d="M0 0 C2.42222231 2.31851861 4.49977699 4.7956107 6.5625 7.4375 C7.16191406 8.19933594 7.76132813 8.96117187 8.37890625 9.74609375 C9.86481735 11.81204725 11.11881979 13.61244469 12 16 C11.25245372 17.56305131 10.50442841 19.12587542 9.75390625 20.6875 C7.61102153 27.26049353 7.95648878 35.42103284 10.5625 41.8125 C19.1385959 57.91882644 34.07514304 65.48622173 51 70.6875 C66.05791196 75.0253527 81.47467749 76.36163141 97.09399414 76.53417969 C106.14074029 76.71962924 106.14074029 76.71962924 110 80 C111.12256131 82.24512262 111.13413762 83.51456649 111.125 86 C111.12886719 87.051875 111.12886719 87.051875 111.1328125 88.125 C111 90 111 90 110 92 C109.34 91.67 108.68 91.34 108 91 C108.33 90.34 108.66 89.68 109 89 C109.37615126 84.86935374 109.37615126 84.86935374 107.875 81.125 C105.11909116 79.47145469 103.14924548 79.60634432 100 80 C98 81 98 81 97 83 C96.60984439 86.12124489 96.44122451 88.09975061 98.125 90.8125 C100.66676215 92.42228269 103.0398108 92.67109009 106 93 C106 93.33 106 93.66 106 94 C71.96833039 94.44006469 33.18581444 90.64165444 7.1652832 66.26123047 C-3.04348529 56.28196801 -9.05699352 44.67539921 -9.25 30.3125 C-9.16201195 20.94666106 -6.93109037 13.96560904 -2.0859375 6.0078125 C-1.00095803 4.00177133 -0.44933905 2.22672462 0 0 Z " fill="#6BA8E4" transform="translate(68,450)"/>
<path d="M0 0 C0.18433594 0.81082031 0.36867187 1.62164062 0.55859375 2.45703125 C3.74983866 14.64049514 10.09573433 22.79653791 20.64453125 29.6328125 C28.84280553 34.39134649 36.03313908 35.147735 45.38085938 34.87304688 C47.25415001 34.84342274 49.1284119 34.91483339 51 35 C51.66 35.66 52.32 36.32 53 37 C34.17750804 48.01543564 10.96532922 48.56831044 -9.93994141 43.54785156 C-20.29818417 40.79318259 -29.67633601 36.9092914 -38 30 C-38.86625 29.31744141 -38.86625 29.31744141 -39.75 28.62109375 C-41.1875 27.375 -41.1875 27.375 -43 25 C-42.84377777 21.79223685 -42.34404928 20.36785143 -40.13671875 18.0078125 C-29.21086141 9.60866858 -14.59494602 -0.91391503 0 0 Z " fill="#D3CABE" transform="translate(133,270)"/>
<path d="M0 0 C0 0.66 0 1.32 0 2 C0.59167969 2.04898437 1.18335938 2.09796875 1.79296875 2.1484375 C6.19104472 2.56456867 9.96928897 3.04965595 14 5 C14 5.66 14 6.32 14 7 C15.19625 7.061875 16.3925 7.12375 17.625 7.1875 C26.8146904 8.22316352 35.78911637 10.9692348 42 18 C44.48499142 21.54998775 44.43249013 24.74718041 44 29 C42.64794434 32.55919518 40.72695317 35.3171046 37.9375 37.9375 C26.30600084 42.14463799 14.65054609 36.09605293 3.8125 32 C1.98432464 31.32389437 0.15555237 30.6494005 -1.67382812 29.9765625 C-6.12299252 28.33623026 -10.56348564 26.67422837 -15 25 C-15 24.34 -15 23.68 -15 23 C-17.31 22.34 -19.62 21.68 -22 21 C-22.33 19.35 -22.66 17.7 -23 16 C-23.66 16 -24.32 16 -25 16 C-25 12.7 -25 9.4 -25 6 C-24.34 6 -23.68 6 -23 6 C-22.979375 5.2575 -22.95875 4.515 -22.9375 3.75 C-21.77799236 0.3487776 -20.12139356 -0.68803398 -16.95703125 -2.2734375 C-10.80016701 -4.55921943 -5.69671423 -2.39861652 0 0 Z " fill="#CCC3B8" transform="translate(739,271)"/>
<path d="M0 0 C1.48168945 1.09887695 1.48168945 1.09887695 3 3 C3.34057617 5.91088867 3.34057617 5.91088867 3.29296875 9.41796875 C3.28330078 10.67158203 3.27363281 11.92519531 3.26367188 13.21679688 C3.23853516 14.52712891 3.21339844 15.83746094 3.1875 17.1875 C3.17244967 18.52277163 3.15876187 19.85805937 3.14648438 21.19335938 C3.11107694 24.46264576 3.0616889 27.73112093 3 31 C3.84820312 30.35933594 4.69640625 29.71867187 5.5703125 29.05859375 C19.10201682 19.00485521 36.42334692 8.09370383 54 9 C54.33 7.35 54.66 5.7 55 4 C56 7 56 7 55 10 C54.16368653 19.53397352 53.65951795 29.68568716 58.22265625 38.3203125 C58.47917969 38.87460937 58.73570312 39.42890625 59 40 C58.505 40.99 58.505 40.99 58 42 C54.91532502 36.60540561 53.44356295 32.20988129 53 26 C39.53742267 29.0356792 27.56189611 33.42694825 16.8671875 42.51953125 C15 44 15 44 12.8046875 45.03515625 C12.20914063 45.35355469 11.61359375 45.67195313 11 46 C10.18828772 48.55519921 10.18828772 48.55519921 10 51 C3.81219996 45.33467842 1.94696657 38.40790621 1.49758911 30.14346313 C1.37564974 26.61634233 1.33448361 23.09146846 1.3125 19.5625 C1.28330264 17.39489741 1.24872648 15.22749609 1.21000671 13.06004333 C1.17758907 11.11251316 1.15929998 9.16476277 1.1418457 7.21704102 C1.02664017 4.60419549 0.77566626 2.47802716 0 0 Z " fill="#69A1D8" transform="translate(80,244)"/>
<path d="M0 0 C0 0.66 0 1.32 0 2 C-1.64935547 2.03867188 -1.64935547 2.03867188 -3.33203125 2.078125 C-20.18384161 2.64743001 -32.17783383 8.40127349 -46 18 C-48.96793018 15.1220071 -51.67937574 12.18873764 -54.3125 9 C-62.91191362 -0.77540181 -75.30162946 -3.98413036 -88 -5 C-88 -5.33 -88 -5.66 -88 -6 C-80.52956662 -6.4320418 -73.05883874 -6.85869153 -65.58789062 -7.28173828 C-63.0507117 -7.42602823 -60.51360054 -7.57151534 -57.9765625 -7.71826172 C-54.31267539 -7.92997218 -50.64855954 -8.13725901 -46.984375 -8.34375 C-45.30550201 -8.44218201 -45.30550201 -8.44218201 -43.5927124 -8.54260254 C-12.903986 -10.24896233 -12.903986 -10.24896233 0 0 Z " fill="#6AA6E1" transform="translate(555,81)"/>
<path d="M0 0 C1.42505859 -0.00193359 1.42505859 -0.00193359 2.87890625 -0.00390625 C3.87535156 -0.00003906 4.87179687 0.00382812 5.8984375 0.0078125 C6.87167969 0.00394531 7.84492187 0.00007813 8.84765625 -0.00390625 C14.41718047 0.00358974 19.76462005 0.30845264 25.2734375 1.1328125 C26.2634375 4.1028125 27.2534375 7.0728125 28.2734375 10.1328125 C27.25765625 10.62910156 26.241875 11.12539063 25.1953125 11.63671875 C17.64926374 15.35039425 10.24313378 19.17270384 3.01953125 23.4921875 C-0.20275513 25.41730881 -3.46755875 27.27052464 -6.7265625 29.1328125 C-6.7265625 19.8928125 -6.7265625 10.6528125 -6.7265625 1.1328125 C-4.29436631 -0.08328559 -2.71602488 0.003561 0 0 Z " fill="#D6CDC1" transform="translate(554.7265625,490.8671875)"/>
<path d="M0 0 C6.8186033 1.15158634 11.63616242 2.86815122 16.8125 7.6875 C18.68427139 11.33252849 19.11343626 14.9233845 19 19 C17.40594023 23.69362043 15.28109703 26.48718218 11 29 C4.42096112 30.86875423 -0.81835448 29.586646 -7 27 C-7 26.01 -7 25.02 -7 24 C-7.350625 23.29875 -7.70125 22.5975 -8.0625 21.875 C-9.41673929 17.72199952 -9.14342263 14.19746758 -8 10 C-6.11419223 6.49778557 -4.07633253 4.33485901 -0.1875 3.125 C0.8953125 3.063125 0.8953125 3.063125 2 3 C2 2.34 2 1.68 2 1 C1.34 0.67 0.68 0.34 0 0 Z " fill="#D1963D" transform="translate(778,381)"/>
<path d="M0 0 C6.99689594 1.20581427 12.98164403 2.68954506 17.9375 8.125 C19.53802004 12.45581893 19.65002973 16.44248821 19 21 C17.18766463 24.83378636 15.69973473 26.53351018 12.1875 28.875 C5.18924315 31.34497301 -0.35427048 29.53170648 -7 27 C-6.34 26.67 -5.68 26.34 -5 26 C-5.495 25.38125 -5.99 24.7625 -6.5 24.125 C-8.62750674 19.69269429 -8.93855624 15.82793331 -8 11 C-6.00982758 7.42541848 -3.78491147 4.55382891 0.203125 3.31640625 C0.79609375 3.21199219 1.3890625 3.10757812 2 3 C2 2.34 2 1.68 2 1 C1.34 0.67 0.68 0.34 0 0 Z " fill="#CF6243" transform="translate(912,355)"/>
<path d="M0 0 C3.56568061 1.54335429 6.31019147 3.24343581 8.9375 6.125 C10.53802004 10.45581893 10.65002973 14.44248821 10 19 C8.18766463 22.83378636 6.69973473 24.53351018 3.1875 26.875 C-4.61617313 29.62923758 -10.68638041 26.96247882 -18 24 C-17.01 23.34 -16.02 22.68 -15 22 C-15.66 21.01 -16.32 20.02 -17 19 C-17.76603375 14.7868144 -17.9475779 10.70817554 -15.83203125 6.89453125 C-11.32843264 1.46474269 -7.25546156 -2.17663847 0 0 Z " fill="#D89A3D" transform="translate(926,258)"/>
<path d="M0 0 C4.5007346 3.63889181 6.72702564 6.58872649 7.375 12.3125 C6.82414791 17.72921221 4.97706877 21.14275358 0.9375 24.9375 C-6.6335571 27.67596746 -13.86739762 26.22985768 -21 23 C-20.01 22.34 -19.02 21.68 -18 21 C-18.515625 20.175 -19.03125 19.35 -19.5625 18.5 C-21.27531453 14.32966898 -21.4692336 11.2128853 -20 7 C-17.77730751 3.41704776 -15.17252412 0.79224603 -11.6875 -1.5625 C-7.51088613 -2.24241389 -3.93057995 -1.51944379 0 0 Z " fill="#D16243" transform="translate(776,284)"/>
<path d="M0 0 C0.33 0 0.66 0 1 0 C1.80042543 8.13765853 -0.2770702 13.35775191 -5 20 C-11.44711065 27.17672194 -20.42112358 32.32882385 -30.15307617 33.19067383 C-32.45962775 33.26726781 -34.75486986 33.27309555 -37.0625 33.25 C-38.22749023 33.26160156 -38.22749023 33.26160156 -39.41601562 33.2734375 C-44.00050146 33.25791003 -47.6862922 32.73928699 -52 31 C-51.67 30.34 -51.34 29.68 -51 29 C-48.31104307 28.2928489 -45.65737338 27.68382742 -42.9375 27.125 C-36.76417028 25.77958842 -31.47533068 24.26189913 -26 21 C-26.33 20.34 -26.66 19.68 -27 19 C-26.32195312 18.79246094 -25.64390625 18.58492188 -24.9453125 18.37109375 C-14.88445152 15.04069794 -7.02932977 10.41772462 -1.05859375 1.50390625 C-0.53458984 0.75947266 -0.53458984 0.75947266 0 0 Z " fill="#08090A" transform="translate(211,286)"/>
<path d="M0 0 C0.33 0 0.66 0 1 0 C1.99170839 3.15013254 2.44694594 4.79342273 2 8 C-0.49689277 11.84373888 -3.68549675 14.85685216 -7 18 C-7.75925781 18.76570313 -8.51851562 19.53140625 -9.30078125 20.3203125 C-14.07101245 24.9221826 -19.16820147 28.57403567 -24.8125 32 C-25.44687988 32.38615479 -26.08125977 32.77230957 -26.73486328 33.17016602 C-32.51834338 36.55112457 -36.24262136 37.5126988 -42.75 35.9375 C-51.60001397 33.53473208 -58.90452654 28.75311256 -64 21 C-64 20.34 -64 19.68 -64 19 C-61.54524861 19.96452179 -59.12286024 20.94185888 -56.73828125 22.0703125 C-46.75055199 26.41280348 -34.46190132 26.84213184 -24.0625 23.5 C-12.56487013 18.43115242 -5.57064448 11.14128896 0 0 Z " fill="#0C0B09" transform="translate(897,189)"/>
<path d="M0 0 C1.98 0 3.96 0 6 0 C6 0.33 6 0.66 6 1 C4.35 1 2.7 1 1 1 C1 63.7 1 126.4 1 191 C39.28 191 77.56 191 117 191 C117 194.63 117 198.26 117 202 C116.67 202 116.34 202 116 202 C116 198.7 116 195.4 116 192 C110.36621045 192.0952059 104.73276977 192.20161168 99.09936523 192.31738281 C97.19219397 192.35512008 95.28496474 192.39005663 93.37768555 192.421875 C80.48113483 192.63948092 67.8037398 193.42418359 55 195 C55 194.67 55 194.34 55 194 C47.36695736 193.97669324 39.73391847 193.95899237 32.1008482 193.94818783 C28.55541909 193.94299874 25.01001457 193.93597448 21.46459961 193.92456055 C17.3761371 193.91148272 13.28769988 193.90673897 9.19921875 193.90234375 C7.94356613 193.89718246 6.68791351 193.89202118 5.39421082 193.88670349 C-1.79572229 193.88625109 -8.85403471 194.19318363 -16 195 C-10.38308992 192.09103183 -6.5194164 192 0 192 C0 128.64 0 65.28 0 0 Z " fill="#776F61" transform="translate(837,231)"/>
<path d="M0 0 C4.26592532 3.29639684 7.25960779 6.25701349 10 11 C10 11.66 10 12.32 10 13 C8.23947136 14.58070528 6.41580202 16.09166286 4.5625 17.5625 C3.55316406 18.36816406 2.54382813 19.17382812 1.50390625 20.00390625 C0.67761719 20.66261719 -0.14867187 21.32132813 -1 22 C-1.33 22.33 -1.66 22.66 -2 23 C6.25 23 14.5 23 23 23 C23 23.33 23 23.66 23 24 C10.31601228 24.85785424 -2.28840915 25.11941996 -15 25 C-15 24.67 -15 24.34 -15 24 C-11.7 24 -8.4 24 -5 24 C-5.433125 23.39671875 -5.86625 22.7934375 -6.3125 22.171875 C-6.869375 21.37265625 -7.42625 20.5734375 -8 19.75 C-8.8353125 18.56664062 -8.8353125 18.56664062 -9.6875 17.359375 C-11 15 -11 15 -11 11 C-9.21665022 8.92714539 -7.48372834 7.10700368 -5.5 5.25 C-4.97535156 4.74339844 -4.45070313 4.23679688 -3.91015625 3.71484375 C-2.61558637 2.46734913 -1.3089224 1.23242693 0 0 Z " fill="#BE5B3F" transform="translate(377,142)"/>
<path d="M0 0 C1.19287411 3.87684087 2 6.91621923 2 11 C1.443125 11.21914062 0.88625 11.43828125 0.3125 11.6640625 C-5.46337205 14.06417149 -10.16390222 17.04678655 -15 21 C-16.03590338 19.93106782 -17.05333942 18.84421512 -18.0625 17.75 C-18.63097656 17.14671875 -19.19945312 16.5434375 -19.78515625 15.921875 C-21 14 -21 14 -20.9453125 11.98828125 C-17.71471989 5.19335711 -7.34212111 -0.64783422 0 0 Z " fill="#B75A3E" transform="translate(645,235)"/>
<path d="M0 0 C1.95357699 3.90715399 2.24651067 5.24671584 2.22705078 9.41113281 C2.22680908 10.50699707 2.22656738 11.60286133 2.22631836 12.73193359 C2.21608643 13.87742676 2.20585449 15.02291992 2.1953125 16.203125 C2.19329834 17.26063965 2.19128418 18.3181543 2.18920898 19.40771484 C2.17875098 23.3551874 2.1508284 27.30259809 2.125 31.25 C2.08375 40.0775 2.0425 48.905 2 58 C29.06 58 56.12 58 84 58 C83.92084328 40.03448589 83.92084328 40.03448589 83.81982422 22.0690918 C83.8139843 19.8208027 83.80888756 17.5725115 83.8046875 15.32421875 C83.79445557 14.15201782 83.78422363 12.97981689 83.77368164 11.77209473 C83.77331909 10.09766296 83.77331909 10.09766296 83.77294922 8.3894043 C83.768508 7.41899704 83.76406677 6.44858978 83.75949097 5.44877625 C84 3 84 3 86 0 C86 1.65 86 3.3 86 5 C87.04341553 4.99214478 87.04341553 4.99214478 88.10791016 4.98413086 C91.28026413 4.96325663 94.45260361 4.95030668 97.625 4.9375 C98.71941406 4.92912109 99.81382812 4.92074219 100.94140625 4.91210938 C102.53662109 4.90727539 102.53662109 4.90727539 104.1640625 4.90234375 C105.62513428 4.89448853 105.62513428 4.89448853 107.11572266 4.88647461 C110.14875321 5.00585494 113.01915268 5.44133276 116 6 C116.33 5.01 116.66 4.02 117 3 C117.495 5.97 117.495 5.97 118 9 C117.505 8.01 117.505 8.01 117 7 C106.44 7 95.88 7 85 7 C85.33 15.91 85.66 24.82 86 34 C86.66 34.33 87.32 34.66 88 35 C86.515 35.495 86.515 35.495 85 36 C85 42.93 85 49.86 85 57 C86.65 56.67 88.3 56.34 90 56 C86.73300866 59.26699134 83.73742454 59.11583194 79.29598999 59.12442017 C78.52131378 59.12082489 77.74663757 59.11722961 76.94848633 59.11352539 C76.12874832 59.11367142 75.30901031 59.11381744 74.46443176 59.1139679 C71.75360472 59.11327096 69.0428463 59.10548878 66.33203125 59.09765625 C64.45301857 59.09579129 62.5740054 59.09436776 60.69499207 59.09336853 C55.74824685 59.08954948 50.80153098 59.07972438 45.85479736 59.06866455 C39.92016455 59.05663931 33.98552194 59.05204528 28.05088043 59.04621124 C19.03389988 59.03651233 10.01698371 59.01735148 1 59 C0.67 39.53 0.34 20.06 0 0 Z " fill="#46271A" transform="translate(463,485)"/>
<path d="M0 0 C2.86410042 2.33392489 3.88945114 5.35250405 5.19140625 8.70703125 C5.45953125 9.36574219 5.72765625 10.02445313 6.00390625 10.703125 C6.66187755 12.32455428 7.30328252 13.95268866 7.94140625 15.58203125 C6.48852964 16.92130846 5.02893366 18.25329972 3.56640625 19.58203125 C2.34824219 20.69578125 2.34824219 20.69578125 1.10546875 21.83203125 C-1.05859375 23.58203125 -1.05859375 23.58203125 -3.05859375 23.58203125 C-4.42505076 20.98366989 -5.77690044 18.37937569 -7.12109375 15.76953125 C-7.51103516 15.03154297 -7.90097656 14.29355469 -8.30273438 13.53320312 C-8.66689453 12.82099609 -9.03105469 12.10878906 -9.40625 11.375 C-9.74664307 10.72039795 -10.08703613 10.0657959 -10.43774414 9.39135742 C-11.05859375 7.58203125 -11.05859375 7.58203125 -10.05859375 4.58203125 C-8.3515625 3.125 -8.3515625 3.125 -6.24609375 1.76953125 C-5.21548828 1.07923828 -5.21548828 1.07923828 -4.1640625 0.375 C-2.05859375 -0.41796875 -2.05859375 -0.41796875 0 0 Z " fill="#C18A38" transform="translate(674.05859375,149.41796875)"/>
<path d="M0 0 C4.06776462 1.2297893 7.39925838 2.761038 11 5 C9.71554544 7.64956093 8.42290321 10.29453793 7.125 12.9375 C6.76019531 13.69224609 6.39539063 14.44699219 6.01953125 15.22460938 C5.66503906 15.94326172 5.31054688 16.66191406 4.9453125 17.40234375 C4.62062988 18.06741943 4.29594727 18.73249512 3.96142578 19.41772461 C3 21 3 21 1 22 C-1.1640625 21.00390625 -1.1640625 21.00390625 -3.625 19.5625 C-4.44226563 19.08941406 -5.25953125 18.61632812 -6.1015625 18.12890625 C-6.72804688 17.75636719 -7.35453125 17.38382813 -8 17 C-6.3341708 10.83643195 -3.12194714 5.51740344 0 0 Z " fill="#B6583D" transform="translate(630,113)"/>
<path d="M0 0 C38.28 0 76.56 0 116 0 C116 3.63 116 7.26 116 11 C115.67 11 115.34 11 115 11 C115 7.7 115 4.4 115 1 C109.36621045 1.0952059 103.73276977 1.20161168 98.09936523 1.31738281 C96.19219397 1.35512008 94.28496474 1.39005663 92.37768555 1.421875 C79.48113483 1.63948092 66.8037398 2.42418359 54 4 C54 3.67 54 3.34 54 3 C53.38247864 2.99191315 52.76495728 2.98382629 52.12872314 2.97549438 C45.70474562 2.88947413 39.28107757 2.78997143 32.85742188 2.68261719 C30.45968826 2.64432095 28.06189707 2.60946924 25.6640625 2.578125 C22.21854058 2.53248895 18.77341528 2.4744913 15.328125 2.4140625 C13.71855927 2.39673569 13.71855927 2.39673569 12.07647705 2.37905884 C11.07574158 2.35918915 10.0750061 2.33931946 9.04394531 2.31884766 C8.16458313 2.30552399 7.28522095 2.29220032 6.37921143 2.2784729 C4 2 4 2 0 0 Z " fill="#84827D" transform="translate(838,422)"/>
<path d="M0 0 C4.66666667 4 9.33333333 8 14 12 C12.64062915 14.8605891 11.35479531 16.85927699 9 19 C5.82431967 17.57911395 3.50601536 15.83591377 0.9375 13.5 C-1.33432007 11.44184439 -3.43707257 9.70861829 -6 8 C-6 5 -6 5 -4.6875 3.61328125 C-3.125 2.40885417 -1.5625 1.20442708 0 0 Z " fill="#EEEEED" transform="translate(371,199)"/>
<path d="M0 0 C1.7283032 1.62663831 3.36546644 3.28185858 5 5 C5.59683594 5.58136719 6.19367188 6.16273438 6.80859375 6.76171875 C8.68165754 8.81833445 9.97689931 10.40427292 11 13 C10.30890365 16.6981568 8.85427056 19.74502146 7 23 C2.98529239 21.15956901 0.20382759 18.85874644 -2 15 C-3.38619887 10.30372624 -3.40185916 6.99591184 -1.5625 2.4375 C-1.046875 1.633125 -0.53125 0.82875 0 0 Z " fill="#06080A" transform="translate(70,376)"/>
<path d="M0 0 C0.66 0 1.32 0 2 0 C3.40234375 2.01171875 3.40234375 2.01171875 4.9375 4.6875 C5.44152344 5.55761719 5.94554688 6.42773438 6.46484375 7.32421875 C6.97144531 8.20722656 7.47804688 9.09023438 8 10 C8.99661316 11.66869409 9.99559434 13.33598466 11 15 C10.34 15 9.68 15 9 15 C8.34 17.97 7.68 20.94 7 24 C2.2783676 21.6391838 0.26055275 19.22097389 -2.3125 14.6875 C-3.48358099 10.10963794 -2.77313458 5.81914019 -0.9375 1.5 C-0.628125 1.005 -0.31875 0.51 0 0 Z " fill="#050709" transform="translate(70,293)"/>
<path d="M0 0 C2.375 1.625 2.375 1.625 4 4 C4.61195145 7.6717087 4.48706506 9.28813568 2.375 12.375 C-0.71186432 14.48706506 -2.3282913 14.61195145 -6 14 C-8.375 12.375 -8.375 12.375 -10 10 C-10.61195145 6.3282913 -10.48706506 4.71186432 -8.375 1.625 C-5.28813568 -0.48706506 -3.6717087 -0.61195145 0 0 Z " fill="#EFEEEE" transform="translate(174,529)"/>
<path d="M0 0 C3.4375 0.5 3.4375 0.5 5.3125 1.625 C6.91703174 4.29921957 7.31054813 6.38967921 7.4375 9.5 C6.375 11.8125 6.375 11.8125 4.4375 13.5 C0.90438262 14.65210349 -0.88658458 14.75534582 -4.375 13.4375 C-6.5625 11.5 -6.5625 11.5 -7.625 8.625 C-7.5625 5.5 -7.5625 5.5 -6.0625 2.625 C-3.5625 0.5 -3.5625 0.5 0 0 Z " fill="#EEEEEE" transform="translate(74.5625,242.5)"/>
<path d="M0 0 C1.35921586 1.30693833 2.68409365 2.64946454 4 4 C4.84498047 4.74636719 4.84498047 4.74636719 5.70703125 5.5078125 C7.53450137 7.28165483 8.86170033 8.71450769 10 11 C9.651456 14.32205995 8.49218943 17.0337449 7 20 C6.67 20.66 6.34 21.32 6 22 C1.73659264 20.47735451 0.07387345 17.93320826 -2 14 C-3.17498184 9.49061022 -3.56854886 6.21125626 -1.5625 1.9375 C-1.046875 1.298125 -0.53125 0.65875 0 0 Z " fill="#070A0D" transform="translate(70,453)"/>
<path d="M0 0 C0.33 0 0.66 0 1 0 C1 1.65 1 3.3 1 5 C2.04341553 4.99214478 2.04341553 4.99214478 3.10791016 4.98413086 C6.28026413 4.96325663 9.45260361 4.95030668 12.625 4.9375 C13.71941406 4.92912109 14.81382812 4.92074219 15.94140625 4.91210938 C17.53662109 4.90727539 17.53662109 4.90727539 19.1640625 4.90234375 C20.62513428 4.89448853 20.62513428 4.89448853 22.11572266 4.88647461 C25.14875321 5.00585494 28.01915268 5.44133276 31 6 C31.33 5.01 31.66 4.02 32 3 C32.495 5.97 32.495 5.97 33 9 C32.505 8.01 32.505 8.01 32 7 C21.44 7 10.88 7 0 7 C0.33 15.91 0.66 24.82 1 34 C1.66 34.33 2.32 34.66 3 35 C1.515 35.495 1.515 35.495 0 36 C0 42.93 0 49.86 0 57 C2.475 56.505 2.475 56.505 5 56 C4.34 56.66 3.68 57.32 3 58 C1.68 58 0.36 58 -1 58 C-1.0253109 50.22209364 -1.04285035 42.44419786 -1.05493164 34.66625977 C-1.059967 32.01912031 -1.06679563 29.37198365 -1.07543945 26.72485352 C-1.08753979 22.92463493 -1.09323622 19.12445305 -1.09765625 15.32421875 C-1.10281754 14.13664474 -1.10797882 12.94907074 -1.11329651 11.72550964 C-1.11337204 10.62459488 -1.11344757 9.52368011 -1.11352539 8.3894043 C-1.115746 7.41899704 -1.11796661 6.44858978 -1.12025452 5.44877625 C-1 3 -1 3 0 0 Z " fill="#59443B" transform="translate(548,485)"/>
<path d="M0 0 C0.66 0.33 1.32 0.66 2 1 C0.68 2.32 -0.64 3.64 -2 5 C6.25 5 14.5 5 23 5 C23 5.33 23 5.66 23 6 C10.31601228 6.85785424 -2.28840915 7.11941996 -15 7 C-15 6.67 -15 6.34 -15 6 C-11.7 6 -8.4 6 -5 6 C-5.33 4.68 -5.66 3.36 -6 2 C-4.7934375 1.7834375 -4.7934375 1.7834375 -3.5625 1.5625 C-1.07896294 1.25864751 -1.07896294 1.25864751 0 0 Z " fill="#545259" transform="translate(377,160)"/>
<path d="M0 0 C3.89569135 -0.08732726 7.79112982 -0.14050185 11.6875 -0.1875 C12.79029297 -0.21263672 13.89308594 -0.23777344 15.02929688 -0.26367188 C16.09599609 -0.27333984 17.16269531 -0.28300781 18.26171875 -0.29296875 C19.24100342 -0.3086792 20.22028809 -0.32438965 21.22924805 -0.34057617 C24.4966933 0.06105271 26.35539654 1.07199121 29 3 C30.12256131 5.24512262 30.13413762 6.51456649 30.125 9 C30.12886719 10.051875 30.12886719 10.051875 30.1328125 11.125 C30 13 30 13 29 15 C28.34 14.67 27.68 14.34 27 14 C27.33 13.34 27.66 12.68 28 12 C28.349104 7.90814871 28.349104 7.90814871 27 4.125 C23.77583276 2.31140593 20.65989797 2.88193878 17 3 C16.67 2.67 16.34 2.34 16 2 C13.30764224 1.76321284 10.63501844 1.57801975 7.9375 1.4375 C7.17888672 1.39431641 6.42027344 1.35113281 5.63867188 1.30664062 C3.75934562 1.20026367 1.87969756 1.09960066 0 1 C0 0.67 0 0.34 0 0 Z " fill="#525C66" transform="translate(149,527)"/>
<path d="M0 0 C1.5625 1.0625 1.5625 1.0625 3 3 C2.89470715 8.58052085 1.25223599 11.69865562 -2 16 C-2 14.33333333 -2 12.66666667 -2 11 C-3.22976563 11.55880859 -3.22976563 11.55880859 -4.484375 12.12890625 C-5.56203125 12.60199219 -6.6396875 13.07507813 -7.75 13.5625 C-8.81734375 14.03816406 -9.8846875 14.51382812 -10.984375 15.00390625 C-13.98369837 15.9946154 -15.13421241 16.16161779 -18 15 C-17.11957031 14.67386719 -16.23914063 14.34773438 -15.33203125 14.01171875 C-13.58986328 13.35623047 -13.58986328 13.35623047 -11.8125 12.6875 C-10.66394531 12.25824219 -9.51539063 11.82898438 -8.33203125 11.38671875 C-5.29786399 10.1239645 -2.63412878 8.96576775 0 7 C0.41725678 3.37400578 0.41725678 3.37400578 0 0 Z " fill="#73442A" transform="translate(631,294)"/>
<path d="M0 0 C0.38218767 1.65614657 0.71395102 3.32457024 1 5 C0 6 0 6 -2.5 6.125 C-5 6 -5 6 -6 5 C-6.04063832 3.33382885 -6.042721 1.66611905 -6 0 C-3.50907189 -1.24546405 -2.58919267 -0.7767578 0 0 Z " fill="#A9573C" transform="translate(553,241)"/>
<path d="M0 0 C1 3 1 3 0.4375 5.5625 C0.293125 6.366875 0.14875 7.17125 0 8 C0.66 8.66 1.32 9.32 2 10 C1.625 12.625 1.625 12.625 1 15 C0.01 14.67 -0.98 14.34 -2 14 C-2 12.35 -2 10.7 -2 9 C-2.99 8.67 -3.98 8.34 -5 8 C-4.01 8 -3.02 8 -2 8 C-1.7834375 6.576875 -1.7834375 6.576875 -1.5625 5.125 C-1 2 -1 2 0 0 Z " fill="#635E57" transform="translate(595,139)"/>
<path d="M0 0 C0.33 0 0.66 0 1 0 C1.8931507 6.58183362 1.95494281 12.42150508 1 19 C0.67 19 0.34 19 0 19 C-0.33 15.37 -0.66 11.74 -1 8 C-2.32 7.67 -3.64 7.34 -5 7 C-3.35 6.67 -1.7 6.34 0 6 C0 4.02 0 2.04 0 0 Z " fill="#586D82" transform="translate(428,109)"/>
<path d="M0 0 C-0.33 0.33 -0.66 0.66 -1 1 C1.64 1.33 4.28 1.66 7 2 C7 2.33 7 2.66 7 3 C0.4 3 -6.2 3 -13 3 C-3.5 -1.75 -3.5 -1.75 0 0 Z " fill="#28292A" transform="translate(489,158)"/>
<path d="M0 0 C-1.39750048 3.15835107 -3.05198234 5.32272825 -5.5 7.75 C-6.41265625 8.67039062 -6.41265625 8.67039062 -7.34375 9.609375 C-9 11 -9 11 -11 11 C-9.60249952 7.84164893 -7.94801766 5.67727175 -5.5 3.25 C-4.8915625 2.63640625 -4.283125 2.0228125 -3.65625 1.390625 C-2 0 -2 0 0 0 Z " fill="#A07739" transform="translate(269,464)"/>
<path d="M0 0 C1.051875 0.6496875 1.051875 0.6496875 2.125 1.3125 C6.23942462 3.72748837 10.30517827 3.7356314 15 4 C15 4.33 15 4.66 15 5 C7.87399867 5.35368021 2.52940894 4.95671348 -4 2 C-2.3125 0.8125 -2.3125 0.8125 0 0 Z " fill="#624B40" transform="translate(759,305)"/>
<path d="M0 0 C-1.44077046 3.36179774 -3.24750021 5.59156268 -6 8 C-6.66 8 -7.32 8 -8 8 C-6.48291727 4.46014029 -4.24676932 0 0 0 Z " fill="#A37837" transform="translate(208,535)"/>
<path d="M0 0 C0.33 0 0.66 0 1 0 C2.7578125 5.95703125 2.7578125 5.95703125 3 8 C2.01 9.485 2.01 9.485 1 11 C-0.98362069 8.08291076 -0.9876191 6.87619096 -0.625 3.25 C-0.41875 2.1775 -0.2125 1.105 0 0 Z " fill="#6B482F" transform="translate(379,295)"/>
<path d="M0 0 C0.33 0 0.66 0 1 0 C1.33 2.64 1.66 5.28 2 8 C1.01 8.495 1.01 8.495 0 9 C-0.33 8.34 -0.66 7.68 -1 7 C-1.99 7.66 -2.98 8.32 -4 9 C-2.80100302 5.9168649 -1.52299523 2.93720508 0 0 Z " fill="#231E1A" transform="translate(897,189)"/>
<path d="M0 0 C-1.44253657 3.36591866 -3.33264727 5.51047079 -6 8 C-6.33 6.68 -6.66 5.36 -7 4 C-2.25 0 -2.25 0 0 0 Z " fill="#8A6735" transform="translate(670,151)"/>
<path d="M0 0 C2 0 2 0 4 1.875 C4.66 2.57625 5.32 3.2775 6 4 C6.66 4.66 7.32 5.32 8 6 C6.53984709 5.71758359 5.08190207 5.42373386 3.625 5.125 C2.81289063 4.96257812 2.00078125 4.80015625 1.1640625 4.6328125 C-1 4 -1 4 -3 2 C-2.01 1.67 -1.02 1.34 0 1 C0 0.67 0 0.34 0 0 Z " fill="#675844" transform="translate(911,279)"/>
<path d="M0 0 C0.66 0.33 1.32 0.66 2 1 C-0.31 3.31 -2.62 5.62 -5 8 C-5.66 6.68 -6.32 5.36 -7 4 C-5.824375 3.566875 -5.824375 3.566875 -4.625 3.125 C-1.90328368 2.15087746 -1.90328368 2.15087746 0 0 Z " fill="#141B22" transform="translate(515,94)"/>
<path d="M0 0 C-1.28519565 2.86697492 -2.57129254 4.97607712 -5 7 C-5.66 7 -6.32 7 -7 7 C-3.86206897 0 -3.86206897 0 0 0 Z " fill="#847E77" transform="translate(603,132)"/>
<path d="M0 0 C2 0 2 0 4 1.875 C4.66 2.57625 5.32 3.2775 6 4 C6.66 4.66 7.32 5.32 8 6 C3.545 5.01 3.545 5.01 -1 4 C-0.34 3.67 0.32 3.34 1 3 C0.67 2.01 0.34 1.02 0 0 Z " fill="#64493C" transform="translate(906,378)"/>
<path d="M0 0 C3.64734979 0.22330713 5.38372835 0.38372835 8 3 C4.37 3 0.74 3 -3 3 C-2.01 2.01 -1.02 1.02 0 0 Z " fill="#685840" transform="translate(920,257)"/>
<path d="M0 0 C0.33 0 0.66 0 1 0 C1.66 2.97 2.32 5.94 3 9 C2.01 9.33 1.02 9.66 0 10 C-1.125 2.25 -1.125 2.25 0 0 Z " fill="#A27B3F" transform="translate(898,186)"/>
</svg>
