<?xml version="1.0" encoding="UTF-8"?>
<svg version="1.1" xmlns="http://www.w3.org/2000/svg" width="1008" height="606">
<path d="M0 0 C332.64 0 665.28 0 1008 0 C1008 199.98 1008 399.96 1008 606 C675.36 606 342.72 606 0 606 C0 406.02 0 206.04 0 0 Z " fill="#D6CDC1" transform="translate(0,0)"/>
<path d="M0 0 C9.35941476 7.6452918 15.60061537 17.87199985 17 30 C18.22083667 42.11957862 14.07974571 53.28081512 7 63 C-6.03644115 77.58436737 -24.41911028 78.80708006 -42.7109375 81.234375 C-44.19122892 81.43454669 -45.67145705 81.63518697 -47.15162659 81.83625793 C-50.27513216 82.25978906 -53.39898378 82.68061767 -56.52316284 83.09915161 C-63.94897371 84.09421015 -71.37281331 85.10382297 -78.79680443 86.11235237 C-81.27263594 86.44857941 -83.74853801 86.78428352 -86.22444153 87.11997986 C-99.13778227 88.87271495 -112.04011052 90.69596726 -124.9375 92.5625 C-143.94488651 95.3088144 -162.96964969 97.91887358 -182 100.5 C-203.20181275 103.37617746 -224.39406124 106.30802446 -245.57202148 109.35571289 C-247.58056127 109.64472971 -249.58910623 109.93371058 -251.59765625 110.22265625 C-252.60173019 110.36711685 -253.60580414 110.51157745 -254.64030457 110.66041565 C-262.19435985 111.7453283 -269.75084523 112.81223556 -277.30859375 113.87109375 C-278.48260239 114.03558014 -279.65661102 114.20006653 -280.86619568 114.36953735 C-283.33084523 114.71474426 -285.79550093 115.05990718 -288.26016235 115.4050293 C-311.07191669 118.59953541 -333.87758377 121.83493484 -356.6796875 125.09765625 C-358.56822228 125.36782216 -358.56822228 125.36782216 -360.49490929 125.64344597 C-373.29525639 127.4746511 -386.09541613 129.30714964 -398.8950119 131.14359951 C-403.73724014 131.8380895 -408.57962671 132.53147094 -413.42204666 133.22462273 C-415.69975792 133.55093873 -417.9773957 133.87776815 -420.25495529 134.20514107 C-423.40733634 134.6582284 -426.55996191 135.10957708 -429.71264648 135.56054688 C-430.62716615 135.69244384 -431.54168581 135.8243408 -432.48391819 135.96023464 C-467.78598487 140.99577279 -467.78598487 140.99577279 -483.03125 131.015625 C-489.36849978 126.21158081 -493.53512134 121.13079123 -497 114 C-497.48919922 113.00419922 -497.48919922 113.00419922 -497.98828125 111.98828125 C-502.29177167 102.58586853 -502.40306239 91.48786789 -499.375 81.6875 C-497.30270928 76.21956097 -494.63414558 71.57141914 -491 67 C-490.52175781 66.38511719 -490.04351562 65.77023438 -489.55078125 65.13671875 C-481.06194598 55.49323082 -468.36861924 52.02267898 -456.125 50.484375 C-454.75717148 50.29356899 -453.38966819 50.1004203 -452.02246094 49.9052124 C-449.00331957 49.47849413 -445.98260297 49.06692827 -442.95996094 48.66577148 C-437.65857659 47.95966786 -432.36451041 47.2051161 -427.0703125 46.44726562 C-415.80830738 44.83975581 -404.54123664 43.26982195 -393.27323914 41.70495224 C-387.70303476 40.93074148 -382.13326786 40.15339668 -376.56347656 39.3762207 C-369.87867687 38.44361328 -363.19385388 37.51117592 -356.5088501 36.58003235 C-338.92054191 34.1301583 -321.33457751 31.66399231 -303.75 29.1875 C-301.20019996 28.82866165 -298.65039529 28.46985615 -296.10058594 28.11108398 C-288.7336705 27.07443561 -281.3668269 26.0372774 -274 25 C-264.08339834 23.60370457 -254.1667478 22.20775722 -244.25 20.8125 C-242.98241852 20.63414612 -241.71483704 20.45579224 -240.40884399 20.27203369 C-212.67209214 16.37010555 -184.93229661 12.48994178 -157.19267654 8.6084671 C-127.6892599 4.48012454 -98.18691858 0.34432206 -68.6875 -3.8125 C-67.93406689 -3.91866009 -67.18063377 -4.02482018 -66.40436935 -4.13419724 C-61.50261635 -4.82488578 -56.60090236 -5.51585041 -51.69921875 -6.20703125 C-50.50000793 -6.37613007 -49.30079712 -6.54522888 -48.06524658 -6.7194519 C-46.963078 -6.87495514 -45.86090942 -7.03045837 -44.7253418 -7.19067383 C-43.72222458 -7.33213837 -42.71910736 -7.47360291 -41.68559265 -7.61935425 C-39.4095692 -7.94194921 -37.13436534 -8.26959158 -34.859375 -8.59936523 C-22.17100542 -10.37716702 -10.3105112 -7.72018572 0 0 Z " fill="#6EB1F3" transform="translate(553,62)"/>
<path d="M0 0 C1.54396652 3.49965745 1.03130282 5.47899061 -0.0625 9.125 C-5.9914628 18.0369722 -15.46767283 25.09380264 -23.75 31.6875 C-31.19158075 37.71315766 -39.26373265 44.64850798 -40.49609375 54.640625 C-40.50821583 66.22933684 -37.83087069 73.56750149 -31.5 83.125 C-24.83282874 93.21195869 -22.83308966 101.9845729 -24.0625 114.125 C-27.7384501 129.81342991 -41.57871948 139.01606462 -53.53125 148.359375 C-72.03784339 162.58319262 -72.03784339 162.58319262 -84.0625 182.125 C-83.10549194 182.10143433 -83.10549194 182.10143433 -82.12915039 182.07739258 C-68.73737013 181.79240991 -56.14595443 182.13855931 -43.0625 185.125 C-43.0625 185.455 -43.0625 185.785 -43.0625 186.125 C-44.75020515 185.98156032 -46.43765486 185.83511431 -48.125 185.6875 C-49.53458984 185.56568359 -49.53458984 185.56568359 -50.97265625 185.44140625 C-53.0423073 185.2294698 -55.10578704 184.9458497 -57.15625 184.59375 C-62.61214621 183.93904246 -68.01138988 184.020483 -73.5 184.0625 C-79.2234375 184.0934375 -79.2234375 184.0934375 -85.0625 184.125 C-84.7325 193.035 -84.4025 201.945 -84.0625 211.125 C-83.4025 211.455 -82.7425 211.785 -82.0625 212.125 C-83.0525 212.455 -84.0425 212.785 -85.0625 213.125 C-85.0625 220.055 -85.0625 226.985 -85.0625 234.125 C-83.4125 233.795 -81.7625 233.465 -80.0625 233.125 C-83.32949134 236.39199134 -86.32507546 236.24083194 -90.76651001 236.24942017 C-91.54118622 236.24582489 -92.31586243 236.24222961 -93.11401367 236.23852539 C-93.93375168 236.23867142 -94.75348969 236.23881744 -95.59806824 236.2389679 C-98.30889528 236.23827096 -101.0196537 236.23048878 -103.73046875 236.22265625 C-105.60948143 236.22079129 -107.4884946 236.21936776 -109.36750793 236.21836853 C-114.31425315 236.21454948 -119.26096902 236.20472438 -124.20770264 236.19366455 C-129.25500085 236.1834373 -134.30230379 236.17886809 -139.34960938 236.17382812 C-149.25391914 236.16310159 -159.15820713 236.14603248 -169.0625 236.125 C-169.06836624 235.50605362 -169.07423248 234.88710724 -169.08027649 234.24940491 C-169.14447835 227.77592133 -169.2289659 221.30292263 -169.32495117 214.82983398 C-169.35809475 212.41778986 -169.38615918 210.00567015 -169.40893555 207.59350586 C-169.44267572 204.11539665 -169.49500262 200.63797356 -169.55078125 197.16015625 C-169.55717117 196.09104507 -169.5635611 195.0219339 -169.57014465 193.92042542 C-169.85491561 179.24063113 -175.84058873 169.73814516 -186.2265625 159.6640625 C-190.25070204 156.06118274 -194.49522922 152.8095256 -198.81640625 149.57421875 C-202.85510675 146.54969951 -206.75145386 143.35993397 -210.6328125 140.13671875 C-212.08948293 138.93063311 -213.55952193 137.74005164 -215.0546875 136.58203125 C-222.07621594 131.01161869 -227.02948029 123.52619619 -230.0625 115.125 C-231.7580023 100.27789879 -227.6381036 89.93028983 -219.59228516 77.78125 C-214.10501078 69.44109235 -213.18291468 62.06317179 -214.0625 52.125 C-216.67231059 41.65072663 -227.2615981 33.72240739 -235.2890625 27.34765625 C-253.68662335 12.60369551 -253.68662335 12.60369551 -255.25 5 C-255.0625 1.125 -255.0625 1.125 -253.375 -1.5625 C-220.1595492 -28.60677415 -30.33894695 -27.58086086 0 0 Z " fill="#DD6544" transform="translate(633.0625,307.875)"/>
<path d="M0 0 C3.875 1.75 3.875 1.75 5 4 C5.15441209 6.10374996 5.24992639 8.21195119 5.31640625 10.3203125 C5.35830078 11.57714844 5.40019531 12.83398438 5.44335938 14.12890625 C5.48267578 15.44761719 5.52199219 16.76632812 5.5625 18.125 C5.60569512 19.46485751 5.64930973 20.80470156 5.69335938 22.14453125 C5.79970981 25.42957815 5.90173808 28.71470281 6 32 C6.43062744 31.61328125 6.86125488 31.2265625 7.30493164 30.828125 C28.40487383 12.25396916 55.69117967 7.32773464 83 9 C96.41986048 10.30822539 109.23958577 14.86407705 120 23 C121.5778125 24.11375 121.5778125 24.11375 123.1875 25.25 C129.84994763 31.76439324 133.85309764 39.98349536 134.375 49.3125 C134.14415789 58.97489133 128.80617439 67.50041004 122 74 C103.74631823 89.60347349 79.72600818 89.91309854 57 89 C38.80564226 87.54353906 18.82627106 81.27623775 5.5859375 68.3828125 C3.9354441 66.76452828 3.9354441 66.76452828 1 66 C-1.99796872 81.89994122 -5.55871265 101.07807055 3 116 C3.55945313 115.5153125 4.11890625 115.030625 4.6953125 114.53125 C22.3649945 99.75916858 42.97003736 91.94724782 66 91 C66.81726563 90.95875 67.63453125 90.9175 68.4765625 90.875 C88.46472424 90.34019969 110.45951036 95.16733464 125.3515625 109.1796875 C132.18671373 116.72750853 134.51854373 124.59410382 134.30078125 134.69140625 C133.39957274 144.6046999 128.22539696 151.42420497 121 158 C108.10205555 167.7912967 92.55294425 170.39938714 77 173 C78.68802734 173.12955078 78.68802734 173.12955078 80.41015625 173.26171875 C96.80728976 174.69177444 114.82066106 178.39808129 126.5 191.00390625 C132.15203674 198.52523639 135.01377522 206.63328812 134 216 C131.28532269 226.920759 126.06114819 234.2818543 116.6796875 240.40625 C95.30226011 253.12052169 68.81534099 254.7816933 45 249 C27.261763 244.47891811 14.72120235 235.72120235 2 223 C-1.96546234 229.87628044 -1.8458618 236.24223889 -1 244 C0.13721987 247.77556998 1.75822989 250.76955179 4 254 C4.69222656 255.02480469 4.69222656 255.02480469 5.3984375 256.0703125 C18.67359147 273.25388743 43.24714433 278.27605411 63.4375 281.125 C71.32346676 282.13574216 79.25080536 282.36296268 87.19506836 282.48291016 C96.10722498 282.71975272 96.10722498 282.71975272 100 286 C101.12256131 288.24512262 101.13413762 289.51456649 101.125 292 C101.12886719 293.051875 101.12886719 293.051875 101.1328125 294.125 C101 296 101 296 100 298 C99.34 297.67 98.68 297.34 98 297 C98.33 296.34 98.66 295.68 99 295 C99.37615126 290.86935374 99.37615126 290.86935374 97.875 287.125 C95.17393914 285.50436349 93.09341008 285.74221583 90 286 C89.01 286.33 88.02 286.66 87 287 C86.54440428 292.19212465 86.54440428 292.19212465 88.125 296.9375 C90.68102669 298.38591512 93.10340247 298.67815583 96 299 C96 299.33 96 299.66 96 300 C60.51553287 300.45885087 22.4249584 296.10533032 -4.6875 270.8125 C-13.96895327 261.15321766 -19.00416946 249.93637267 -19.4375 236.625 C-19.25410224 227.97910571 -17.23741498 220.43431347 -12.6875 213.0625 C-10.68006158 209.41937101 -10.90131892 208.87257886 -12 205 C-12.69299759 203.15537377 -13.38869921 201.31147037 -14.12060547 199.48193359 C-21.71746401 180.46935337 -22.44207458 160.5963782 -14.4375 141.4375 C-14.02371094 140.52871094 -13.60992187 139.61992187 -13.18359375 138.68359375 C-10.48015816 133.37695919 -10.48015816 133.37695919 -10.7578125 127.75390625 C-11.20898438 127.03074219 -11.66015625 126.30757813 -12.125 125.5625 C-18.21537487 114.19936224 -19.36646969 103.58190448 -19.4375 90.875 C-19.4475708 89.70791504 -19.4576416 88.54083008 -19.46801758 87.33837891 C-19.3648246 76.93272077 -17.67991275 66.99955256 -13.4375 57.4375 C-13.02371094 56.48746094 -12.60992187 55.53742188 -12.18359375 54.55859375 C-11 52 -11 52 -9.84082031 50.2331543 C-8.63143992 47.02113267 -9.47858158 44.99737223 -10.36328125 41.7109375 C-12.18842654 33.9452614 -12.34592595 26.60316842 -12.1875 18.625 C-12.17239296 17.29168216 -12.15871542 15.95834733 -12.14648438 14.625 C-12.11160627 11.41621435 -12.06260026 8.2083437 -12 5 C-11.70480469 5.61230469 -11.40960938 6.22460938 -11.10546875 6.85546875 C-9.69519647 9.59129731 -8.50177172 11.1743828 -6 13 C-2.37350049 13.08916154 -2.37350049 13.08916154 1 12 C3.32821558 9.18138229 3.32821558 9.18138229 2.75 6 C2.14014017 2.84584582 2.14014017 2.84584582 0 0 Z " fill="#6BAAE8" transform="translate(78,244)"/>
<path d="M0 0 C9.35941476 7.6452918 15.60061537 17.87199985 17 30 C18.22083667 42.11957862 14.07974571 53.28081512 7 63 C-6.03644115 77.58436737 -24.41911028 78.80708006 -42.7109375 81.234375 C-44.19122892 81.43454669 -45.67145705 81.63518697 -47.15162659 81.83625793 C-50.27513216 82.25978906 -53.39898378 82.68061767 -56.52316284 83.09915161 C-63.94897371 84.09421015 -71.37281331 85.10382297 -78.79680443 86.11235237 C-81.27263594 86.44857941 -83.74853801 86.78428352 -86.22444153 87.11997986 C-99.13778174 88.87271488 -112.04012001 90.69590287 -124.9375 92.5625 C-146.64641927 95.69950454 -168.37752119 98.66807058 -190.11324978 101.61235905 C-192.16121964 101.88982403 -194.20914366 102.16762564 -196.25706482 102.44544983 C-198.87938793 102.80113075 -201.50194451 103.15492187 -204.12464905 103.50779724 C-209.87986824 104.28564157 -215.62902064 105.08387573 -221.36914062 105.96679688 C-222.33305725 106.11312561 -223.29697388 106.25945435 -224.2901001 106.41021729 C-226.03150729 106.67722915 -227.77171411 106.9522745 -229.51019287 107.23773193 C-234.30298292 107.96997254 -238.23308429 107.9299367 -243 107 C-243 106.67 -243 106.34 -243 106 C-242.20078125 105.97421875 -241.4015625 105.9484375 -240.578125 105.921875 C-226.42311441 105.19086506 -214.71188443 101.38559924 -204.8984375 90.71484375 C-197.41082681 80.91722551 -194.56840837 69.18344125 -196 57 C-198.19986112 46.09693833 -203.82208407 36.83769591 -212.6875 30.0625 C-222.53870448 23.80585716 -233.44804994 21.62285781 -245 23 C-248.01615821 23.82426873 -250.81865959 24.80760794 -253.6953125 26.02734375 C-255.79351675 26.91285707 -257.7802206 27.51410359 -260 28 C-259.01 27.01 -258.02 26.02 -257 25 C-257.33 24.34 -257.66 23.68 -258 23 C-223.21089468 17.85278258 -188.39178233 12.92925352 -153.5625 8.0625 C-152.48228199 7.91155758 -151.40206398 7.76061516 -150.28911209 7.60509872 C-140.58590735 6.24935817 -130.88261649 4.89423465 -121.179245 3.53968811 C-103.19352587 1.02870682 -85.20955653 -1.49459912 -67.22663498 -4.02553177 C-65.20490248 -4.31005094 -63.18315722 -4.5944792 -61.16140747 -4.87887573 C-57.49690938 -5.39437944 -53.83243141 -5.91002572 -50.16796875 -6.42578125 C-49.12186432 -6.57300629 -48.07575989 -6.72023132 -46.99795532 -6.87191772 C-45.55493546 -7.07514145 -45.55493546 -7.07514145 -44.08276367 -7.2824707 C-43.20202682 -7.40645233 -42.32128998 -7.53043396 -41.41386414 -7.65817261 C-39.26030122 -7.96313873 -37.10762588 -8.27366441 -34.95507812 -8.58569336 C-22.22687137 -10.37020814 -10.35014896 -7.74986523 0 0 Z " fill="#6EB1F3" transform="translate(553,62)"/>
<path d="M0 0 C1.37924904 0.00212242 1.37924904 0.00212242 2.78636169 0.00428772 C5.68964046 0.00983313 8.59283876 0.02237508 11.49609375 0.03515625 C13.4785145 0.04017832 15.46093648 0.04473998 17.44335938 0.04882812 C22.27346795 0.05978461 27.10351726 0.07701083 31.93359375 0.09765625 C31.9777252 2.96110854 32.00982794 5.82386975 32.03515625 8.6875 C32.04877197 9.49102905 32.0623877 10.29455811 32.07641602 11.12243652 C32.16154874 23.98075288 26.87083797 33.81188386 18.43359375 43.22265625 C5.68023423 55.34919659 -13.56747681 58.53444772 -30.19140625 61.59765625 C-56.7888964 66.52791343 -74.38175433 78.44575445 -93.90625 96.76171875 C-119.89142107 121.08376993 -147.61634242 135.48468323 -183.9140625 134.53515625 C-202.85123797 133.63540923 -220.38768615 126.41451307 -238.06640625 120.09765625 C-278.06033179 105.84239566 -317.5714583 102.66711058 -358.42138672 116.07885742 C-363.3348579 117.68134871 -367.91514379 118.6112458 -373.06640625 119.09765625 C-373.27093776 115.72356066 -373.39442074 112.35106633 -373.50390625 108.97265625 C-373.56255859 108.02132812 -373.62121094 107.07 -373.68164062 106.08984375 C-373.84916427 99.19744218 -373.84916427 99.19744218 -371.75170898 96.25048828 C-369.94454846 94.64929749 -368.11715424 93.37026164 -366.06640625 92.09765625 C-365.44612549 91.6814502 -364.82584473 91.26524414 -364.18676758 90.83642578 C-362.24073415 89.56890213 -360.26321567 88.38707765 -358.25390625 87.22265625 C-357.526875 86.79847412 -356.79984375 86.37429199 -356.05078125 85.93725586 C-323.7160649 67.47952194 -290.09237345 62.35321952 -253.83935547 71.7043457 C-245.51662418 74.03101443 -237.58705151 77.38816698 -229.69384766 80.8828125 C-223.55929397 83.50305477 -219.61621151 84.68216004 -213.06640625 83.09765625 C-213.39640625 83.75765625 -213.72640625 84.41765625 -214.06640625 85.09765625 C-214.72640625 85.09765625 -215.38640625 85.09765625 -216.06640625 85.09765625 C-216.06640625 85.75765625 -216.06640625 86.41765625 -216.06640625 87.09765625 C-215.38578125 87.2678125 -214.70515625 87.43796875 -214.00390625 87.61328125 C-213.03453125 87.855625 -212.06515625 88.09796875 -211.06640625 88.34765625 C-209.97199219 88.61707031 -208.87757813 88.88648438 -207.75 89.1640625 C-205.20769452 89.80840079 -202.68736605 90.47752818 -200.1640625 91.1875 C-180.07852922 96.73744999 -162.93976201 93.2402314 -144.99365234 83.20507812 C-135.32727907 77.65064828 -126.53660515 71.36946163 -118.06640625 64.09765625 C-116.9318553 63.14740293 -115.7963926 62.19823742 -114.66015625 61.25 C-108.02509786 55.67890928 -101.80497457 49.92289594 -95.75390625 43.71875 C-92.06976123 40.12563763 -88.13283254 36.95825985 -84.0859375 33.77734375 C-83.08626953 32.94589844 -83.08626953 32.94589844 -82.06640625 32.09765625 C-82.06640625 31.76765625 -82.06640625 31.43765625 -82.06640625 31.09765625 C-83.13761719 31.2575 -84.20882813 31.41734375 -85.3125 31.58203125 C-90.91135933 32.27711306 -96.49326279 32.31987735 -102.12890625 32.34765625 C-103.17884766 32.36828125 -104.22878906 32.38890625 -105.31054688 32.41015625 C-111.36417066 32.4406339 -115.72955226 32.02885484 -121.06640625 29.09765625 C-122.06640625 28.09765625 -122.06640625 28.09765625 -122.50390625 24.78515625 C-122.06640625 21.09765625 -122.06640625 21.09765625 -119.56640625 18.78515625 C-106.27663823 12.37758953 -88.06452444 12.20398174 -74.06640625 16.09765625 C-70.87890625 17.59765625 -70.87890625 17.59765625 -69.06640625 19.09765625 C-69.06640625 19.75765625 -69.06640625 20.41765625 -69.06640625 21.09765625 C-68.31302979 20.64495361 -68.31302979 20.64495361 -67.54443359 20.18310547 C-51.7197546 10.72148408 -37.50009082 3.50609158 -19.06640625 1.09765625 C-18.06859634 0.96482742 -18.06859634 0.96482742 -17.05062866 0.82931519 C-11.34580516 0.12828022 -5.74346593 -0.0339854 0 0 Z " fill="#6EB0F1" transform="translate(921.06640625,422.90234375)"/>
<path d="M0 0 C16.5 0 33 0 50 0 C50 47.19 50 94.38 50 143 C-6.76 143 -63.52 143 -122 143 C-115.38387356 135.28118582 -109.28402898 130.61833864 -100.34936523 126.06884766 C-85.64224521 118.57252655 -77.94134986 108.02790215 -72.5 92.5 C-66.02143013 74.03886292 -55.72468264 64.02838698 -38.81201172 54.97851562 C-24.95852163 47.49740699 -16.84610492 36.75604353 -11.546875 22.03125 C-11.29832764 21.34240723 -11.04978027 20.65356445 -10.79370117 19.94384766 C-10.32627056 18.62130775 -9.87430176 17.29313464 -9.44262695 15.95849609 C-7.20432865 9.47715552 -4.30351271 6.1478753 0 0 Z " fill="#DA9C3D" transform="translate(320,401)"/>
<path d="M0 0 C0.66 0 1.32 0 2 0 C3.41015625 1.65234375 3.41015625 1.65234375 5.0625 3.9375 C22.82052914 27.07346886 47.2583929 34.68799354 75 39 C74.67 39.99 74.34 40.98 74 42 C74.93513428 41.93099487 74.93513428 41.93099487 75.88916016 41.8605957 C96.29586363 40.43735316 115.34108654 41.480651 132 55 C138.91885949 61.2324647 142.97923977 69.10951714 143.5 78.5 C143.02923626 87.2718977 139.14428354 95.77643538 133 102 C116.01504202 116.29840927 92.63160977 120.28408918 71 119 C46.79046083 116.59945341 28.00411678 107.00411678 11 90 C7.03453766 96.87628044 7.1541382 103.24223889 8 111 C9.13721987 114.77556998 10.75822989 117.76955179 13 121 C13.46148437 121.68320312 13.92296875 122.36640625 14.3984375 123.0703125 C27.67359147 140.25388743 52.24714433 145.27605411 72.4375 148.125 C80.32346676 149.13574216 88.25080536 149.36296268 96.19506836 149.48291016 C105.10722498 149.71975272 105.10722498 149.71975272 109 153 C110.12256131 155.24512262 110.13413762 156.51456649 110.125 159 C110.12886719 160.051875 110.12886719 160.051875 110.1328125 161.125 C110 163 110 163 109 165 C108.34 164.67 107.68 164.34 107 164 C107.33 163.34 107.66 162.68 108 162 C108.37615126 157.86935374 108.37615126 157.86935374 106.875 154.125 C104.17393914 152.50436349 102.09341008 152.74221583 99 153 C98.01 153.33 97.02 153.66 96 154 C95.54440428 159.19212465 95.54440428 159.19212465 97.125 163.9375 C99.68102669 165.38591512 102.10340247 165.67815583 105 166 C105 166.33 105 166.66 105 167 C69.51553287 167.45885087 31.4249584 163.10533032 4.3125 137.8125 C-4.96895327 128.15321766 -10.00416946 116.93637267 -10.4375 103.625 C-10.25410224 94.97910571 -8.23741498 87.43431347 -3.6875 80.0625 C-1.68125562 76.42153798 -1.89002437 75.86859154 -3 72 C-3.72994948 70.17209327 -4.46202809 68.34485646 -5.22216797 66.52929688 C-8.54351901 58.50864903 -9.81170587 51.7784487 -9 43 C-7.37532534 45.43701199 -6.07853201 47.77993415 -4.75 50.375 C-1.69458705 55.88549549 1.37440554 58.97893549 7.375 61.3125 C8.24125 61.539375 9.1075 61.76625 10 62 C9.79503906 61.26394531 9.59007813 60.52789062 9.37890625 59.76953125 C9.10949219 58.79371094 8.84007813 57.81789063 8.5625 56.8125 C8.29566406 55.84957031 8.02882813 54.88664062 7.75390625 53.89453125 C7 51 7 51 6.61328125 48.453125 C5.85098346 45.40393384 4.44925775 43.48915166 2.625 40.9375 C-2.80285586 32.64525203 -5.37889221 22.91350929 -4 13 C-2.86722692 8.59150217 -1.50751334 4.29372102 0 0 Z " fill="#6BAAE8" transform="translate(69,377)"/>
<path d="M0 0 C16.4501397 15.01860082 28.39131993 36.52645539 29.71704102 59.02490234 C30.81504165 87.80603995 24.25102355 110.33748914 5.0703125 132.16796875 C-2.03630252 139.69571652 -12.03105988 149.12386281 -22.44140625 151.3359375 C-22.27640625 150.2015625 -22.11140625 149.0671875 -21.94140625 147.8984375 C-20.87368068 139.06262153 -21.7863367 131.06938488 -23.44140625 122.3359375 C-22.56935547 121.93375 -22.56935547 121.93375 -21.6796875 121.5234375 C-9.88741815 115.26715498 -2.60196395 102.14625031 1.75390625 90.00390625 C7.27819182 71.86647915 5.62866248 53.09225394 -2.97680664 36.17553711 C-11.95354237 19.75927402 -27.17856155 8.91896886 -44.87890625 3.4609375 C-63.15566369 -0.59247351 -81.22875387 2.14324125 -97.40234375 11.3515625 C-102.26135619 14.52428528 -106.36868612 18.21989056 -110.44140625 22.3359375 C-111.37726562 23.22152344 -111.37726562 23.22152344 -112.33203125 24.125 C-124.64507376 36.71536329 -129.0069869 54.59671321 -128.9296875 71.67504883 C-128.33068328 90.56329208 -119.92136469 106.22820671 -106.44140625 119.3359375 C-105.45140625 119.9959375 -104.46140625 120.6559375 -103.44140625 121.3359375 C-102.78140625 121.0059375 -102.12140625 120.6759375 -101.44140625 120.3359375 C-101.76882813 121.58246094 -102.09625 122.82898438 -102.43359375 124.11328125 C-103.68222867 129.73213837 -103.6650301 135.16687454 -103.56640625 140.8984375 C-103.55738281 141.90712891 -103.54835938 142.91582031 -103.5390625 143.95507812 C-103.51573981 146.41562207 -103.48301388 148.87564646 -103.44140625 151.3359375 C-128.55089845 135.89477314 -144.87944792 117.21223916 -152.44140625 88.3359375 C-156.33307389 67.80654698 -154.16942961 45.87640554 -144.44140625 27.3359375 C-143.81492187 26.02109375 -143.81492187 26.02109375 -143.17578125 24.6796875 C-132.3475183 3.02316159 -112.02788644 -12.07012159 -89.44140625 -19.6640625 C-57.44564673 -29.22903164 -25.22880496 -21.45730001 0 0 Z " fill="#DB9C3D" transform="translate(887.44140625,72.6640625)"/>
<path d="M0 0 C1.3125 3.5625 1.3125 3.5625 1 7 C-7.81310733 17.63650885 -29.48217617 19.06035019 -42.3125 21.125 C-43.26318359 21.28355469 -44.21386719 21.44210937 -45.19335938 21.60546875 C-69.65589411 25.33996732 -94.37809284 25.34941874 -119.05786133 25.31567383 C-122.71521335 25.31105279 -126.37223195 25.31794457 -130.02954102 25.33618164 C-226.39048174 25.81184263 -226.39048174 25.81184263 -250.5625 8.125 C-252 6 -252 6 -251.89453125 3.05859375 C-251 0 -251 0 -248.9453125 -1.72265625 C-207.0349122 -21.63299877 -34.31052669 -30.66047066 0 0 Z " fill="#E1A03D" transform="translate(631,306)"/>
<path d="M0 0 C15.84 0 31.68 0 48 0 C48 46.53 48 93.06 48 141 C32.16 141 16.32 141 0 141 C0 94.47 0 47.94 0 0 Z " fill="#D6CDC1" transform="translate(321,402)"/>
<path d="M0 0 C9.01747939 7.11145241 14.90953811 16.1473514 17.1875 27.4375 C18.69066972 40.2301006 15.48882068 51.81454532 7.51171875 61.9296875 C-1.09850641 71.22004809 -11.55550877 76.44866279 -24.25 76.9375 C-37.37673736 76.46588069 -48.20551682 71.58863921 -57.125 62.0625 C-65.81929764 51.76070796 -67.70656689 40.60394606 -67.00341797 27.47460938 C-65.93829344 16.10964891 -58.52568301 7.11556385 -50.0625 0.0078125 C-34.77126453 -10.66419559 -15.41777318 -10.34222526 0 0 Z " fill="#F2F2F2" transform="translate(340.8125,91.5625)"/>
<path d="M0 0 C7.7337104 7.7337104 13.86795607 17.7141088 14.8125 28.8125 C14.87566406 29.4415625 14.93882812 30.070625 15.00390625 30.71875 C15.60743139 41.46539124 11.25925851 52.35112946 4.8125 60.8125 C-2.36222915 68.71397973 -12.68277046 74.29809993 -23.37890625 75.03125 C-37.25663174 75.39054386 -48.11035471 71.63114427 -58.4375 62.1875 C-67.76183922 52.3903241 -69.68524114 41.30644509 -69.45703125 28.37109375 C-68.97624646 16.82989041 -63.26669886 8.53023298 -55.01953125 0.7734375 C-38.40541747 -13.04715272 -17.23318225 -11.8266937 0 0 Z " fill="#F2F2F2" transform="translate(852.1875,178.1875)"/>
<path d="M0 0 C6.08330716 4.30086366 11.52172034 9.48730742 13.81640625 16.7109375 C15.40315583 29.02579932 12.58603293 37.98165645 6.81640625 48.7109375 C6.22988281 49.80664062 5.64335937 50.90234375 5.0390625 52.03125 C3.37122533 54.98872998 1.6626684 57.86095347 -0.18359375 60.7109375 C-0.5854892 61.49780441 -0.98738464 62.28467133 -1.40145874 63.09538269 C-3.7838527 67.25201022 -5.67329611 70.1085978 -10.21942139 71.92169189 C-13.99128139 72.68280349 -17.743036 73.16601203 -21.56640625 73.55078125 C-22.98632708 73.72712418 -24.40575092 73.90751039 -25.82467651 74.09169006 C-29.55763684 74.5655709 -33.29469991 74.9860347 -37.03527832 75.39477539 C-40.76687917 75.81115656 -44.49248466 76.27500575 -48.21875 76.73632812 C-52.55473711 77.27023348 -56.89105847 77.79835009 -61.23126221 78.29696655 C-70.12685073 79.31898286 -78.99295152 80.46220201 -87.82644653 81.93919373 C-92.57930213 82.68428067 -96.45195654 82.63195746 -101.18359375 81.7109375 C-101.18359375 81.3809375 -101.18359375 81.0509375 -101.18359375 80.7109375 C-100.384375 80.68515625 -99.58515625 80.659375 -98.76171875 80.6328125 C-84.60670816 79.90180256 -72.89547818 76.09653674 -63.08203125 65.42578125 C-55.63123243 55.67633173 -52.6679756 43.85059742 -54.18359375 31.7109375 C-55.2465612 27.58776778 -56.61977136 23.66759657 -58.18359375 19.7109375 C-58.67859375 18.2259375 -58.67859375 18.2259375 -59.18359375 16.7109375 C-57.54002335 15.01600553 -55.87336519 13.35919122 -54.18359375 11.7109375 C-53.64863281 11.16824219 -53.11367188 10.62554687 -52.5625 10.06640625 C-39.08532653 -2.7731375 -17.05512995 -10.06832359 0 0 Z " fill="#010202" transform="translate(411.18359375,87.2890625)"/>
<path d="M0 0 C-1.32 0.33 -2.64 0.66 -4 1 C-4 57.1 -4 113.2 -4 171 C34.28 171 72.56 171 112 171 C112 174.63 112 178.26 112 182 C111.67 182 111.34 182 111 182 C111 178.7 111 175.4 111 172 C105.36621045 172.0952059 99.73276977 172.20161168 94.09936523 172.31738281 C92.19219397 172.35512008 90.28496474 172.39005663 88.37768555 172.421875 C75.48113483 172.63948092 62.8037398 173.42418359 50 175 C50 174.67 50 174.34 50 174 C42.41883413 173.92991291 34.83770264 173.87689506 27.25628471 173.84456348 C23.73437784 173.82903129 20.21269561 173.80802686 16.69091797 173.77368164 C12.62465491 173.73428311 8.55862084 173.72018825 4.4921875 173.70703125 C3.25201874 173.69154739 2.01184998 173.67606354 0.73410034 173.66011047 C-6.75824276 173.65869593 -13.57281613 174.50434331 -20.86105347 176.25639343 C-23.89697444 176.97559357 -26.92133217 177.50201738 -30 178 C-29.99815641 177.0947867 -29.99631283 176.1895734 -29.99441338 175.2569294 C-29.95029613 153.25828635 -29.91717358 131.25965091 -29.89637566 109.26097298 C-29.8860513 98.62269632 -29.8719689 87.98444914 -29.84912109 77.34619141 C-29.82922262 68.07678644 -29.816292 58.80740282 -29.81182301 49.5379771 C-29.80920961 44.62727205 -29.80304306 39.71662807 -29.78853989 34.80594254 C-29.77501187 30.18822864 -29.77076762 25.57060125 -29.77378464 20.95286942 C-29.77323232 19.25406932 -29.76922651 17.55526647 -29.76158905 15.85648346 C-29.75170243 13.54493095 -29.75400786 11.23370912 -29.75949097 8.92214966 C-29.75764738 7.62610872 -29.75580379 6.33006779 -29.75390434 4.99475288 C-29.68448316 1.88430378 -29.68448316 1.88430378 -32 0 C-30.96875 0.165 -29.9375 0.33 -28.875 0.5 C-20.12450349 1.57626428 -7.46556405 -2.48852135 0 0 Z " fill="#DD9E3E" transform="translate(842,251)"/>
<path d="M0 0 C1.09054688 0.00870117 2.18109375 0.01740234 3.3046875 0.02636719 C17.15224079 0.27776622 30.41438537 2.71225233 41.625 11.375 C46.44062818 16.43858735 48.07302248 19.83328147 47.953125 26.77734375 C47.41403976 31.04510193 45.76001402 33.4947501 42.625 36.375 C33.14472897 43.56752738 21.18044505 47.56791698 9.3125 47.4375 C7.70955078 47.42396484 7.70955078 47.42396484 6.07421875 47.41015625 C5.26597656 47.39855469 4.45773438 47.38695312 3.625 47.375 C3.13 43.415 3.13 43.415 2.625 39.375 C2.295 42.345 1.965 45.315 1.625 48.375 C-18.66085888 47.79951464 -38.06176964 42.2487867 -53.375 28.375 C-54.08140625 27.76011719 -54.7878125 27.14523437 -55.515625 26.51171875 C-60.64886159 21.7682279 -63.64437702 16.78146161 -66.375 10.375 C-65.23800618 9.59118682 -64.08964876 8.82386146 -62.9375 8.0625 C-62.29941406 7.63324219 -61.66132812 7.20398438 -61.00390625 6.76171875 C-53.98720334 3.06048616 -47.56102613 1.92295282 -39.6875 2.125 C-38.87216797 2.13015625 -38.05683594 2.1353125 -37.21679688 2.140625 C-33.85042514 2.1841674 -30.75817633 2.29629973 -27.44848633 2.97607422 C-24.05053553 3.41711414 -22.02725064 2.9612025 -18.7734375 1.9609375 C-12.42529047 0.24315751 -6.55165038 -0.0875998 0 0 Z " fill="#D4CBBF" transform="translate(147.375,351.625)"/>
<path d="M0 0 C4.43919635 4.0184882 7.79702792 7.60492951 8.3125 13.6875 C8.20484109 19.09980713 6.16269861 22.83198764 2.41015625 26.59375 C-12.23601178 38.73180046 -33.2153506 39.41429924 -51.30517578 37.79345703 C-66.00776927 36.06623697 -80.49256474 31.57454574 -92 22 C-92.5775 21.53335937 -93.155 21.06671875 -93.75 20.5859375 C-95.1875 19.3125 -95.1875 19.3125 -97 17 C-96.43308754 11.87717284 -92.77709694 9.125437 -89 6 C-64.19307252 -11.80142409 -26.5703088 -17.41525422 0 0 Z " fill="#D6CDC1" transform="translate(187,279)"/>
<path d="M0 0 C3.7658846 3.5506912 5.36454572 6.32564162 5.625 11.5 C5.39636356 17.49425096 2.6911819 20.62716728 -1.5625 24.6875 C-16.72865875 36.40850664 -36.83761989 36.67084604 -55.11132812 34.83105469 C-73.08489168 32.34497527 -87.6791341 23.14337386 -99.8125 10.0625 C-76.82496754 -13.81071673 -27.12501473 -18.68612126 0 0 Z " fill="#D6CDC1" transform="translate(189.8125,443.9375)"/>
<path d="M0 0 C0.56847656 0.72574219 1.13695313 1.45148438 1.72265625 2.19921875 C3.17127697 3.9807986 4.67517464 5.71979488 6.24609375 7.39453125 C8.46085723 9.83827206 10.36260739 12.13345358 12 15 C11 18.6875 11 18.6875 9.96875 20.61328125 C7.47952612 26.74600622 7.99168891 34.66136995 9.87890625 40.91015625 C11.0717592 43.4572713 12.39733764 45.69052244 14 48 C14.46148437 48.68320312 14.92296875 49.36640625 15.3984375 50.0703125 C28.67359147 67.25388743 53.24714433 72.27605411 73.4375 75.125 C81.32346676 76.13574216 89.25080536 76.36296268 97.19506836 76.48291016 C106.10722498 76.71975272 106.10722498 76.71975272 110 80 C111.12256131 82.24512262 111.13413762 83.51456649 111.125 86 C111.12886719 87.051875 111.12886719 87.051875 111.1328125 88.125 C111 90 111 90 110 92 C109.34 91.67 108.68 91.34 108 91 C108.33 90.34 108.66 89.68 109 89 C109.37615126 84.86935374 109.37615126 84.86935374 107.875 81.125 C105.17393914 79.50436349 103.09341008 79.74221583 100 80 C98.515 80.495 98.515 80.495 97 81 C96.54440428 86.19212465 96.54440428 86.19212465 98.125 90.9375 C100.68102669 92.38591512 103.10340247 92.67815583 106 93 C106 93.33 106 93.66 106 94 C70.51553287 94.45885087 32.4249584 90.10533032 5.3125 64.8125 C-3.96895327 55.15321766 -9.00416946 43.93637267 -9.4375 30.625 C-9.22388864 20.55475015 -6.14141842 12.50993394 -1 4 C-0.23959428 1.73014106 -0.23959428 1.73014106 0 0 Z " fill="#6BA8E5" transform="translate(68,450)"/>
<path d="M0 0 C0.66 0 1.32 0 2 0 C3.41015625 1.65234375 3.41015625 1.65234375 5.0625 3.9375 C22.82052914 27.07346886 47.2583929 34.68799354 75 39 C69.45865723 49.28929418 61.98815442 54.96812602 51 59 C40.60981868 61.95379722 28.48453574 61.02254375 19 56 C18.67 56 18.34 56 18 56 C18 56.99 18 57.98 18 59 C15.69 60.32 13.38 61.64 11 63 C10.35035977 61.10546779 9.70544885 59.20931351 9.0625 57.3125 C8.70285156 56.25675781 8.34320313 55.20101562 7.97265625 54.11328125 C7 51 7 51 6.58203125 48.421875 C5.85000047 45.37584088 4.44284753 43.48018547 2.625 40.9375 C-2.80285586 32.64525203 -5.37889221 22.91350929 -4 13 C-2.86722692 8.59150217 -1.50751334 4.29372102 0 0 Z " fill="#F1F1F1" transform="translate(69,377)"/>
<path d="M0 0 C0.82999512 0.00829834 1.65999023 0.01659668 2.51513672 0.02514648 C13.45577948 0.32531448 21.69727985 3.8394771 29.625 11.4375 C37.36214305 19.81812822 41.80195062 28.74243804 41.6875 40.1875 C41.67847656 41.35796875 41.66945313 42.5284375 41.66015625 43.734375 C41.64855469 44.62640625 41.63695312 45.5184375 41.625 46.4375 C21.33914112 45.86201464 1.93823036 40.3112867 -13.375 26.4375 C-14.08140625 25.82261719 -14.7878125 25.20773437 -15.515625 24.57421875 C-20.64886159 19.8307279 -23.64437702 14.84396161 -26.375 8.4375 C-25.23800618 7.65368682 -24.08964876 6.88636146 -22.9375 6.125 C-22.29941406 5.69574219 -21.66132812 5.26648438 -21.00390625 4.82421875 C-14.17697909 1.22309075 -7.67596531 -0.09973886 0 0 Z " fill="#F2F2F2" transform="translate(107.375,353.5625)"/>
<path d="M0 0 C0 0.66 0 1.32 0 2 C0.59167969 2.04898437 1.18335938 2.09796875 1.79296875 2.1484375 C6.19104472 2.56456867 9.96928897 3.04965595 14 5 C14 5.66 14 6.32 14 7 C15.19625 7.061875 16.3925 7.12375 17.625 7.1875 C26.8146904 8.22316352 35.78911637 10.9692348 42 18 C44.48499142 21.54998775 44.43249013 24.74718041 44 29 C42.64794434 32.55919518 40.72695317 35.3171046 37.9375 37.9375 C26.30600084 42.14463799 14.65054609 36.09605293 3.8125 32 C1.98432464 31.32389437 0.15555237 30.6494005 -1.67382812 29.9765625 C-6.12299252 28.33623026 -10.56348564 26.67422837 -15 25 C-15 24.34 -15 23.68 -15 23 C-17.31 22.34 -19.62 21.68 -22 21 C-22.33 19.35 -22.66 17.7 -23 16 C-23.66 16 -24.32 16 -25 16 C-25 12.7 -25 9.4 -25 6 C-24.34 6 -23.68 6 -23 6 C-22.979375 5.2575 -22.95875 4.515 -22.9375 3.75 C-21.77799236 0.3487776 -20.12139356 -0.68803398 -16.95703125 -2.2734375 C-10.80016701 -4.55921943 -5.69671423 -2.39861652 0 0 Z " fill="#CCC3B8" transform="translate(739,271)"/>
<path d="M0 0 C0 0.66 0 1.32 0 2 C1.32 1.67 2.64 1.34 4 1 C1.30616627 3.79201446 -1.46955568 6.22316648 -4.5625 8.5625 C-7.22427219 10.57790593 -9.69714346 12.57942555 -12 15 C-12.66 14.67 -13.32 14.34 -14 14 C-13.67 13.34 -13.34 12.68 -13 12 C-14.60681641 12.23976563 -14.60681641 12.23976563 -16.24609375 12.484375 C-21.84495308 13.17945681 -27.42685654 13.2222211 -33.0625 13.25 C-34.11244141 13.270625 -35.16238281 13.29125 -36.24414062 13.3125 C-42.29776441 13.34297765 -46.66314601 12.93119859 -52 10 C-53 9 -53 9 -53.4375 5.6875 C-53 2 -53 2 -50.5 -0.3125 C-37.64673859 -6.50960818 -11.64361524 -9.63609537 0 0 Z " fill="#080808" transform="translate(852,442)"/>
<path d="M0 0 C6.8186033 1.15158634 11.63616242 2.86815122 16.8125 7.6875 C18.68427139 11.33252849 19.11343626 14.9233845 19 19 C17.40594023 23.69362043 15.28109703 26.48718218 11 29 C4.42096112 30.86875423 -0.81835448 29.586646 -7 27 C-7 26.01 -7 25.02 -7 24 C-7.350625 23.29875 -7.70125 22.5975 -8.0625 21.875 C-9.41673929 17.72199952 -9.14342263 14.19746758 -8 10 C-6.11419223 6.49778557 -4.07633253 4.33485901 -0.1875 3.125 C0.8953125 3.063125 0.8953125 3.063125 2 3 C2 2.34 2 1.68 2 1 C1.34 0.67 0.68 0.34 0 0 Z " fill="#D1963D" transform="translate(778,381)"/>
<path d="M0 0 C6.99689594 1.20581427 12.98164403 2.68954506 17.9375 8.125 C19.53802004 12.45581893 19.65002973 16.44248821 19 21 C17.18766463 24.83378636 15.69973473 26.53351018 12.1875 28.875 C5.18924315 31.34497301 -0.35427048 29.53170648 -7 27 C-6.34 26.67 -5.68 26.34 -5 26 C-5.495 25.38125 -5.99 24.7625 -6.5 24.125 C-8.62750674 19.69269429 -8.93855624 15.82793331 -8 11 C-6.00982758 7.42541848 -3.78491147 4.55382891 0.203125 3.31640625 C0.79609375 3.21199219 1.3890625 3.10757812 2 3 C2 2.34 2 1.68 2 1 C1.34 0.67 0.68 0.34 0 0 Z " fill="#CF6243" transform="translate(912,355)"/>
<path d="M0 0 C3.56568061 1.54335429 6.31019147 3.24343581 8.9375 6.125 C10.53802004 10.45581893 10.65002973 14.44248821 10 19 C8.18766463 22.83378636 6.69973473 24.53351018 3.1875 26.875 C-4.61617313 29.62923758 -10.68638041 26.96247882 -18 24 C-17.01 23.34 -16.02 22.68 -15 22 C-15.66 21.01 -16.32 20.02 -17 19 C-17.76603375 14.7868144 -17.9475779 10.70817554 -15.83203125 6.89453125 C-11.32843264 1.46474269 -7.25546156 -2.17663847 0 0 Z " fill="#D89A3D" transform="translate(926,258)"/>
<path d="M0 0 C4.5007346 3.63889181 6.72702564 6.58872649 7.375 12.3125 C6.82414791 17.72921221 4.97706877 21.14275358 0.9375 24.9375 C-6.6335571 27.67596746 -13.86739762 26.22985768 -21 23 C-20.01 22.34 -19.02 21.68 -18 21 C-18.515625 20.175 -19.03125 19.35 -19.5625 18.5 C-21.27531453 14.32966898 -21.4692336 11.2128853 -20 7 C-17.77730751 3.41704776 -15.17252412 0.79224603 -11.6875 -1.5625 C-7.51088613 -2.24241389 -3.93057995 -1.51944379 0 0 Z " fill="#D16243" transform="translate(776,284)"/>
<path d="M0 0 C1.99609375 1.5 1.99609375 1.5 3.99609375 4.5 C-15.14390625 4.5 -34.28390625 4.5 -54.00390625 4.5 C-38.81085732 -10.69304893 -17.7934731 -10.93230987 0 0 Z " fill="#F1EFEC" transform="translate(531.00390625,326.5)"/>
<path d="M0 0 C0.9590625 0.4021875 0.9590625 0.4021875 1.9375 0.8125 C3.4534375 1.4003125 3.4534375 1.4003125 5 2 C5.56203125 2.26425781 6.1240625 2.52851563 6.703125 2.80078125 C16.22090476 6.75403229 28.77712241 6.59720223 38.375 3.0625 C39.91843487 2.37897884 41.46035159 1.69200804 43 1 C44.32526025 0.63589266 45.65686132 0.29132003 47 0 C46.34 0.99 45.68 1.98 45 3 C46.27738037 2.75552124 46.27738037 2.75552124 47.58056641 2.50610352 C51.01868628 1.99723428 54.23767119 1.88641134 57.7109375 1.90234375 C58.95488281 1.90556641 60.19882813 1.90878906 61.48046875 1.91210938 C62.76566406 1.92048828 64.05085938 1.92886719 65.375 1.9375 C66.68339844 1.94201172 67.99179688 1.94652344 69.33984375 1.95117188 C72.55994281 1.96292406 75.7799477 1.97935457 79 2 C79 2.33 79 2.66 79 3 C78.27635254 3.0093457 77.55270508 3.01869141 76.80712891 3.02832031 C50.15212122 3.45926195 27.6723393 6.55387406 6 23 C1.34034194 19.26843318 -1.58419092 16.53622915 -4 11 C-3.21793819 7.08969097 -0.09627873 5.28146854 3 3 C2.01 2.01 1.02 1.02 0 0 Z " fill="#68A1DA" transform="translate(84,431)"/>
<path d="M0 0 C-1.32 0.33 -2.64 0.66 -4 1 C-4 57.1 -4 113.2 -4 171 C34.28 171 72.56 171 112 171 C112 174.63 112 178.26 112 182 C111.67 182 111.34 182 111 182 C111 178.7 111 175.4 111 172 C105.36621045 172.0952059 99.73276977 172.20161168 94.09936523 172.31738281 C92.19219397 172.35512008 90.28496474 172.39005663 88.37768555 172.421875 C75.48113483 172.63948092 62.8037398 173.42418359 50 175 C50 174.67 50 174.34 50 174 C42.36695736 173.97669324 34.73391847 173.95899237 27.1008482 173.94818783 C23.55541909 173.94299874 20.01001457 173.93597448 16.46459961 173.92456055 C12.3761371 173.91148272 8.28769988 173.90673897 4.19921875 173.90234375 C2.94356613 173.89718246 1.68791351 173.89202118 0.39421082 173.88670349 C-6.79572229 173.88625109 -13.85403471 174.19318363 -21 175 C-15.38308992 172.09103183 -11.5194164 172 -5 172 C-5 115.9 -5 59.8 -5 2 C-6.32 1.67 -7.64 1.34 -9 1 C-3.375 -1.125 -3.375 -1.125 0 0 Z " fill="#7E786F" transform="translate(842,251)"/>
<path d="M0 0 C0.33 0 0.66 0 1 0 C1.09796875 1.02738281 1.1959375 2.05476563 1.296875 3.11328125 C2.38172094 13.53663243 3.89359713 22.83853599 10.125 31.5625 C13.40694215 36.16713924 14.24163796 40.48131717 15 46 C15.32391704 47.66852229 15.65475857 49.33575926 16 51 C8.32392093 48.57597503 2.54587728 45.34009955 -1.375 38.0625 C-6.38115889 26.70237022 -4.3215644 13.53081942 -1 2 C-0.67 1.34 -0.34 0.68 0 0 Z " fill="#070708" transform="translate(64,389)"/>
<path d="M0 0 C2.38586603 2.38586603 3.4148152 4.70857882 4.875 7.75 C6.99970164 12.08272491 9.17739897 16.09178319 12 20 C11.34 20 10.68 20 10 20 C9.34 23.96 8.68 27.92 8 32 C7.443125 31.29875 6.88625 30.5975 6.3125 29.875 C4.71916739 27.8941 3.06893257 25.95809121 1.375 24.0625 C-0.9742615 21.03318912 -2.03692398 18.67719936 -3 15 C-3.66 15.66 -4.32 16.32 -5 17 C-4.43449764 12.6173567 -2.72977604 9.02721979 -0.83984375 5.0859375 C0.18674314 2.91095885 0.18674314 2.91095885 0 0 Z " fill="#0E1217" transform="translate(69,289)"/>
<path d="M0 0 C2.5 2.125 2.5 2.125 4 5 C4 8.50732933 3.6345092 10.2434698 1.375 12.9375 C-2.11319754 14.49800943 -4.36432898 13.99154664 -8 13 C-10 11.3125 -10 11.3125 -11 9 C-10.87304813 5.88967921 -10.47953174 3.79921957 -8.875 1.125 C-5.79484632 -0.72309221 -3.49557617 -0.49060718 0 0 Z " fill="#EFEEEE" transform="translate(78,244)"/>
<path d="M0 0 C2.375 1.625 2.375 1.625 4 4 C4.61195145 7.6717087 4.48706506 9.28813568 2.375 12.375 C-0.71186432 14.48706506 -2.3282913 14.61195145 -6 14 C-8.375 12.375 -8.375 12.375 -10 10 C-10.61195145 6.3282913 -10.48706506 4.71186432 -8.375 1.625 C-5.28813568 -0.48706506 -3.6717087 -0.61195145 0 0 Z " fill="#F0EFEF" transform="translate(174,529)"/>
<path d="M0 0 C5.16484202 2.23656105 8.80305504 5.79435754 11 11 C10.40974092 15.36164897 8.91523036 19.05609357 7 23 C5.31066078 21.3563186 3.64740076 19.6857124 2 18 C1.13375 17.13375 1.13375 17.13375 0.25 16.25 C-1.72340505 12.69787092 -2.02868405 9.03010894 -2 5 C-1.0625 1.9375 -1.0625 1.9375 0 0 Z " fill="#080C10" transform="translate(69,454)"/>
<path d="M0 0 C0 0.33 0 0.66 0 1 C-14.25275304 2.14303226 -28.48482512 2.15337267 -42.77587891 2.13037109 C-46.75557226 2.12499247 -50.73515373 2.13035438 -54.71484375 2.13671875 C-57.28385441 2.13605817 -59.852865 2.13477743 -62.421875 2.1328125 C-63.59200134 2.13483673 -64.76212769 2.13686096 -65.9677124 2.13894653 C-73.68643027 2.11732644 -81.3130318 1.69541773 -89 1 C-89 0.67 -89 0.34 -89 0 C-80.34905241 -0.15559296 -71.69801961 -0.30372317 -63.04679489 -0.4429636 C-59.02738313 -0.50787649 -55.00804196 -0.57512509 -50.98876953 -0.64819336 C-16.8546348 -1.26554923 -16.8546348 -1.26554923 0 0 Z " fill="#9C6530" transform="translate(551,331)"/>
<path d="M0 0 C0.66 0.33 1.32 0.66 2 1 C1.34 1.66 0.68 2.32 0 3 C1.27738037 2.75552124 1.27738037 2.75552124 2.58056641 2.50610352 C6.01868628 1.99723428 9.23767119 1.88641134 12.7109375 1.90234375 C13.95488281 1.90556641 15.19882813 1.90878906 16.48046875 1.91210938 C17.76566406 1.92048828 19.05085938 1.92886719 20.375 1.9375 C21.68339844 1.94201172 22.99179688 1.94652344 24.33984375 1.95117188 C27.55994281 1.96292406 30.7799477 1.97935457 34 2 C34 2.33 34 2.66 34 3 C33.27635254 3.0093457 32.55270508 3.01869141 31.80712891 3.02832031 C14.22285659 3.31261192 -2.97400941 3.68784573 -19.15234375 11.36328125 C-21 12 -21 12 -24 11 C-22.68 10.34 -21.36 9.68 -20 9 C-23.63 8.34 -27.26 7.68 -31 7 C-31 6.67 -31 6.34 -31 6 C-29.82824219 5.97421875 -28.65648438 5.9484375 -27.44921875 5.921875 C-17.42223765 5.59732195 -9.09997046 4.54998523 0 0 Z " fill="#4E6071" transform="translate(129,431)"/>
<path d="M0 0 C0.66 0.99 1.32 1.98 2 3 C1.34 3 0.68 3 0 3 C-0.19335938 3.92683594 -0.38671875 4.85367187 -0.5859375 5.80859375 C-0.84632812 7.00613281 -1.10671875 8.20367187 -1.375 9.4375 C-1.63023438 10.63246094 -1.88546875 11.82742188 -2.1484375 13.05859375 C-2.42945312 14.02925781 -2.71046875 14.99992187 -3 16 C-3.66 16.33 -4.32 16.66 -5 17 C-7.99773799 25.37441483 -8.22990583 33.61558073 -8.0390625 42.36328125 C-7.9960502 46.36772626 -8.34324404 50.05946422 -9 54 C-9.33 54 -9.66 54 -10 54 C-13.63831974 34.89882135 -8.91403631 16.88975302 0 0 Z " fill="#3D4B59" transform="translate(69,374)"/>
<path d="M0 0 C3.23861303 1.44424635 5.61969163 3.25772247 8.25 5.625 C8.95640625 6.25664062 9.6628125 6.88828125 10.390625 7.5390625 C10.92171875 8.02117187 11.4528125 8.50328125 12 9 C9.48580485 11.69378051 7.32759923 13.44805246 4 15 C3.32779649 13.06441401 2.66241923 11.12645628 2 9.1875 C1.62875 8.10855469 1.2575 7.02960938 0.875 5.91796875 C0 3 0 3 0 0 Z " fill="#C5BDB2" transform="translate(76,425)"/>
<path d="M0 0 C-0.33 0.99 -0.66 1.98 -1 3 C0.4540625 2.7525 0.4540625 2.7525 1.9375 2.5 C6.29487763 1.86603727 10.60630704 1.9103328 15 2 C15 2.33 15 2.66 15 3 C13.88882813 3.15855469 12.77765625 3.31710937 11.6328125 3.48046875 C2.93598747 4.8114458 -4.35249895 6.42959996 -12 11 C-13.32824824 11.67674133 -14.6601083 12.34661461 -16 13 C-14.75679238 9.27037715 -13.2044877 8.32521873 -10.125 5.9375 C-8.79855469 4.89916016 -8.79855469 4.89916016 -7.4453125 3.83984375 C-2.3418259 0 -2.3418259 0 0 0 Z " fill="#57738F" transform="translate(96,350)"/>
<path d="M0 0 C0 0.33 0 0.66 0 1 C-1.65 1 -3.3 1 -5 1 C-5 1.66 -5 2.32 -5 3 C-3.515 3.495 -3.515 3.495 -2 4 C-3.86591797 3.93039063 -3.86591797 3.93039063 -5.76953125 3.859375 C-15.42102028 3.61011034 -23.08197929 3.92552815 -32 8 C-33.32510114 8.36468596 -34.65672399 8.70931385 -36 9 C-35.01 8.01 -34.02 7.02 -33 6 C-33.33 5.34 -33.66 4.68 -34 4 C-29.64710244 3.3248677 -25.29250257 2.66140624 -20.9375 2 C-19.70837891 1.80921875 -18.47925781 1.6184375 -17.21289062 1.421875 C-16.01728516 1.24140625 -14.82167969 1.0609375 -13.58984375 0.875 C-11.94810181 0.62363281 -11.94810181 0.62363281 -10.27319336 0.3671875 C-6.82256319 -0.0199049 -3.46935691 -0.06143853 0 0 Z " fill="#56626C" transform="translate(329,81)"/>
<path d="M0 0 C1.33333333 2.66666667 2.66666667 5.33333333 4 8 C3.34 8 2.68 8 2 8 C2 16.91 2 25.82 2 35 C1.67 35 1.34 35 1 35 C0.15937224 30.63106263 -0.11732956 26.5164802 -0.09765625 22.0703125 C-0.09443359 20.78125 -0.09121094 19.4921875 -0.08789062 18.1640625 C-0.07953733 16.81770764 -0.07107241 15.47135348 -0.0625 14.125 C-0.0574783 12.75520996 -0.05291657 11.38541815 -0.04882812 10.015625 C-0.03707254 6.6770381 -0.02063964 3.33854185 0 0 Z " fill="#5F7A93" transform="translate(66,249)"/>
<path d="M0 0 C3.89569135 -0.08732726 7.79112982 -0.14050185 11.6875 -0.1875 C12.79029297 -0.21263672 13.89308594 -0.23777344 15.02929688 -0.26367188 C16.09599609 -0.27333984 17.16269531 -0.28300781 18.26171875 -0.29296875 C19.24100342 -0.3086792 20.22028809 -0.32438965 21.22924805 -0.34057617 C24.4966933 0.06105271 26.35539654 1.07199121 29 3 C30.12256131 5.24512262 30.13413762 6.51456649 30.125 9 C30.12886719 10.051875 30.12886719 10.051875 30.1328125 11.125 C30 13 30 13 29 15 C28.34 14.67 27.68 14.34 27 14 C27.33 13.34 27.66 12.68 28 12 C28.349104 7.90814871 28.349104 7.90814871 27 4.125 C24.26691443 2.58763936 22.02104893 2.81698586 18.9375 2.9921875 C17 3 17 3 14 2 C11.60745424 1.77439324 9.21071877 1.59151405 6.8125 1.4375 C5.54019531 1.35371094 4.26789063 1.26992188 2.95703125 1.18359375 C1.98121094 1.12300781 1.00539062 1.06242188 0 1 C0 0.67 0 0.34 0 0 Z " fill="#62707C" transform="translate(149,527)"/>
<path d="M0 0 C-0.309375 0.598125 -0.61875 1.19625 -0.9375 1.8125 C-3.03056501 6.12175148 -2.79458315 8.36401829 -2 13 C-1.93343688 15.63589958 -1.90432589 18.24148596 -1.9375 20.875 C-1.94201172 21.56335938 -1.94652344 22.25171875 -1.95117188 22.9609375 C-1.96283664 24.64066335 -1.98076729 26.32034375 -2 28 C-1.34 28.33 -0.68 28.66 0 29 C-1.65 29.66 -3.3 30.32 -5 31 C-4.7525 29.2984375 -4.7525 29.2984375 -4.5 27.5625 C-3.43227443 18.72668403 -4.34493045 10.73344738 -6 2 C-2.25 0 -2.25 0 0 0 Z " fill="#856A41" transform="translate(870,193)"/>
<path d="M0 0 C4.95 0 9.9 0 15 0 C13.02 0.99 13.02 0.99 11 2 C13.97 2.33 16.94 2.66 20 3 C20 3.33 20 3.66 20 4 C13.07 4 6.14 4 -1 4 C-0.67 2.68 -0.34 1.36 0 0 Z " fill="#596A79" transform="translate(144,415)"/>
<path d="M0 0 C0.66 0.66 1.32 1.32 2 2 C-1.35173048 2.53737595 -4.70659961 3.05186798 -8.0625 3.5625 C-9.00544922 3.71396484 -9.94839844 3.86542969 -10.91992188 4.02148438 C-16.25575833 4.82093025 -20.70773703 5.10836575 -26 4 C-26 3.67 -26 3.34 -26 3 C-25.17757813 2.96261719 -24.35515625 2.92523438 -23.5078125 2.88671875 C-16.971725 2.50179905 -11.19215642 1.75729253 -5.0234375 -0.4765625 C-3 -1 -3 -1 0 0 Z " fill="#2B2F32" transform="translate(336,165)"/>
<path d="M0 0 C0.33 0 0.66 0 1 0 C2.33257403 15.74487472 2.33257403 15.74487472 1 23 C0.67 23 0.34 23 0 23 C-1.2723312 16.32026118 -3.07680491 6.15360983 0 0 Z " fill="#5A758E" transform="translate(59,405)"/>
<path d="M0 0 C2.35333796 4.70667591 2.17102038 6.8693886 2 12 C5.96 12 9.92 12 14 12 C14 12.33 14 12.66 14 13 C5.585 13.495 5.585 13.495 -3 14 C-2.01 13.67 -1.02 13.34 0 13 C0 8.71 0 4.42 0 0 Z " fill="#758089" transform="translate(149,387)"/>
<path d="M0 0 C3.3 0 6.6 0 10 0 C10.66 1.32 11.32 2.64 12 4 C7.48281619 5.36884358 4.41225737 4.47075246 0 3 C0 2.01 0 1.02 0 0 Z " fill="#445B70" transform="translate(480,318)"/>
<path d="M0 0 C1.5625 1.0625 1.5625 1.0625 3 3 C2.92539346 7.10335951 2.61371623 9.274699 -0.0625 12.4375 C-0.701875 12.953125 -1.34125 13.46875 -2 14 C-1.67 12.68 -1.34 11.36 -1 10 C-1.928125 10.515625 -2.85625 11.03125 -3.8125 11.5625 C-7 13 -7 13 -10 12 C-9.36191406 11.69707031 -8.72382812 11.39414062 -8.06640625 11.08203125 C-7.24011719 10.66308594 -6.41382813 10.24414062 -5.5625 9.8125 C-4.73878906 9.40644531 -3.91507813 9.00039063 -3.06640625 8.58203125 C-0.77441279 7.14415009 -0.77441279 7.14415009 -0.21484375 4.44921875 C0.02912792 2.07771237 0.02912792 2.07771237 0 0 Z " fill="#73492C" transform="translate(631,307)"/>
<path d="M0 0 C2.27076842 -0.02699725 4.54162821 -0.04639453 6.8125 -0.0625 C8.07707031 -0.07410156 9.34164062 -0.08570313 10.64453125 -0.09765625 C14 0 14 0 17 1 C17 1.66 17 2.32 17 3 C10.375 6.125 10.375 6.125 7 5 C8.32 4.34 9.64 3.68 11 3 C7.37 2.34 3.74 1.68 0 1 C0 0.67 0 0.34 0 0 Z " fill="#637E97" transform="translate(98,437)"/>
<path d="M0 0 C0.92683594 0.05671875 1.85367188 0.1134375 2.80859375 0.171875 C5.08160878 0.31247387 7.35336963 0.46378752 9.625 0.625 C9.625 0.955 9.625 1.285 9.625 1.625 C1.045 1.955 -7.535 2.285 -16.375 2.625 C-16.375 2.295 -16.375 1.965 -16.375 1.625 C-10.79183083 -0.80488426 -5.92192307 -0.42239109 0 0 Z " fill="#694531" transform="translate(541.375,330.375)"/>
<path d="M0 0 C-1.39750048 3.15835107 -3.05198234 5.32272825 -5.5 7.75 C-6.41265625 8.67039062 -6.41265625 8.67039062 -7.34375 9.609375 C-9 11 -9 11 -11 11 C-9.60249952 7.84164893 -7.94801766 5.67727175 -5.5 3.25 C-4.8915625 2.63640625 -4.283125 2.0228125 -3.65625 1.390625 C-2 0 -2 0 0 0 Z " fill="#A07739" transform="translate(269,464)"/>
<path d="M0 0 C-1.39750048 3.15835107 -3.05198234 5.32272825 -5.5 7.75 C-6.41265625 8.67039063 -6.41265625 8.67039063 -7.34375 9.609375 C-9 11 -9 11 -11 11 C-9.60249952 7.84164893 -7.94801766 5.67727175 -5.5 3.25 C-4.8915625 2.63640625 -4.283125 2.0228125 -3.65625 1.390625 C-2 0 -2 0 0 0 Z " fill="#5983AB" transform="translate(71,122)"/>
<path d="M0 0 C1.2684375 0.433125 1.2684375 0.433125 2.5625 0.875 C0.60150793 2.83599207 -0.84860058 3.68489009 -3.3125 4.875 C-3.99054688 5.205 -4.66859375 5.535 -5.3671875 5.875 C-6.05039063 6.205 -6.73359375 6.535 -7.4375 6.875 C-8.77175541 7.53981931 -10.10536355 8.20594492 -11.4375 8.875 C-9.67929657 3.60038971 -5.65660313 -0.20569466 0 0 Z " fill="#526373" transform="translate(91.4375,354.125)"/>
<path d="M0 0 C6.22222222 -0.47863248 6.22222222 -0.47863248 9.4375 1.5 C11.7384032 5.18144512 11.34728373 7.69368174 11 12 C10.67 12.66 10.34 13.32 10 14 C9.34 13.67 8.68 13.34 8 13 C8.33 12.34 8.66 11.68 9 11 C9.38938338 6.89294529 9.38938338 6.89294529 7.875 3.1875 C5.33323785 1.57771731 2.9601892 1.32890991 0 1 C0 0.67 0 0.34 0 0 Z " fill="#4C545B" transform="translate(168,528)"/>
<path d="M0 0 C1.051875 0.6496875 1.051875 0.6496875 2.125 1.3125 C6.23942462 3.72748837 10.30517827 3.7356314 15 4 C15 4.33 15 4.66 15 5 C7.87399867 5.35368021 2.52940894 4.95671348 -4 2 C-2.3125 0.8125 -2.3125 0.8125 0 0 Z " fill="#624B40" transform="translate(759,305)"/>
<path d="M0 0 C0.66 0.99 1.32 1.98 2 3 C1.34 3 0.68 3 0 3 C-0.19335938 3.62648438 -0.38671875 4.25296875 -0.5859375 4.8984375 C-0.84632812 5.71570313 -1.10671875 6.53296875 -1.375 7.375 C-1.63023438 8.18710937 -1.88546875 8.99921875 -2.1484375 9.8359375 C-3 12 -3 12 -5 14 C-5.33 13.34 -5.66 12.68 -6 12 C-4.78515625 9.1796875 -4.78515625 9.1796875 -3.0625 5.875 C-2.49660156 4.77929688 -1.93070312 3.68359375 -1.34765625 2.5546875 C-0.90292969 1.71164062 -0.45820312 0.86859375 0 0 Z " fill="#4B5A68" transform="translate(69,374)"/>
<path d="M0 0 C0.99 1.32 1.98 2.64 3 4 C2.34 4 1.68 4 1 4 C0.731875 4.969375 0.46375 5.93875 0.1875 6.9375 C-0.204375 7.948125 -0.59625 8.95875 -1 10 C-1.99 10.33 -2.98 10.66 -4 11 C-3.71125 10.29875 -3.4225 9.5975 -3.125 8.875 C-1.97866412 5.94547497 -0.97374346 2.99078347 0 0 Z " fill="#537495" transform="translate(68,450)"/>
<path d="M0 0 C0.66 0.33 1.32 0.66 2 1 C1.16855469 1.81404297 1.16855469 1.81404297 0.3203125 2.64453125 C-0.76636719 3.71767578 -0.76636719 3.71767578 -1.875 4.8125 C-2.59429687 5.52019531 -3.31359375 6.22789063 -4.0546875 6.95703125 C-6.15358937 9.04399194 -6.15358937 9.04399194 -8 12 C-8.33 11.01 -8.66 10.02 -9 9 C-6 6 -3 3 0 0 Z " fill="#10151A" transform="translate(361,95)"/>
<path d="M0 0 C-3.23319447 2.15546298 -5.16896958 2.68074747 -9 3 C-9.99 2.34 -10.98 1.68 -12 1 C-3.96428571 -1.27678571 -3.96428571 -1.27678571 0 0 Z " fill="#516273" transform="translate(124,436)"/>
<path d="M0 0 C-1.44077046 3.36179774 -3.24750021 5.59156268 -6 8 C-6.66 8 -7.32 8 -8 8 C-6.48291727 4.46014029 -4.24676932 0 0 0 Z " fill="#A37837" transform="translate(208,535)"/>
<path d="M0 0 C2 0 2 0 4 1.875 C4.66 2.57625 5.32 3.2775 6 4 C6.66 4.66 7.32 5.32 8 6 C6.53984709 5.71758359 5.08190207 5.42373386 3.625 5.125 C2.81289063 4.96257812 2.00078125 4.80015625 1.1640625 4.6328125 C-1 4 -1 4 -3 2 C-2.01 1.67 -1.02 1.34 0 1 C0 0.67 0 0.34 0 0 Z " fill="#675844" transform="translate(911,279)"/>
<path d="M0 0 C-0.6875 2.4375 -0.6875 2.4375 -2 5 C-4.625 5.8125 -4.625 5.8125 -7 6 C-5.52522876 2.59668175 -4.14385429 0 0 0 Z " fill="#5F8EBC" transform="translate(96,350)"/>
<path d="M0 0 C2 0 2 0 4 1.875 C4.66 2.57625 5.32 3.2775 6 4 C6.66 4.66 7.32 5.32 8 6 C3.545 5.01 3.545 5.01 -1 4 C-0.34 3.67 0.32 3.34 1 3 C0.67 2.01 0.34 1.02 0 0 Z " fill="#64493C" transform="translate(906,378)"/>
<path d="M0 0 C0.1546875 0.86625 0.1546875 0.86625 0.3125 1.75 C1.09792798 4.32049158 2.30504197 5.93657284 4 8 C2.68 8.33 1.36 8.66 0 9 C-0.87890625 2.84765625 -0.87890625 2.84765625 -1 1 C-0.67 0.67 -0.34 0.34 0 0 Z " fill="#63462C" transform="translate(379,308)"/>
<path d="M0 0 C3.64734979 0.22330713 5.38372835 0.38372835 8 3 C4.37 3 0.74 3 -3 3 C-2.01 2.01 -1.02 1.02 0 0 Z " fill="#685840" transform="translate(920,257)"/>
</svg>
