<?xml version="1.0" encoding="UTF-8"?>
<svg version="1.1" xmlns="http://www.w3.org/2000/svg" width="1008" height="606">
<path d="M0 0 C332.64 0 665.28 0 1008 0 C1008 199.98 1008 399.96 1008 606 C675.36 606 342.72 606 0 606 C0 406.02 0 206.04 0 0 Z " fill="#D6CDC1" transform="translate(0,0)"/>
<path d="M0 0 C3.38962725 0.01133621 6.77893807 0.00463941 10.16855431 -0.00688457 C42.07134846 -0.09847159 74.56212338 1.02205244 105.83520508 7.69824219 C106.74012695 7.89135986 107.64504883 8.08447754 108.57739258 8.28344727 C129.99642592 13.15882345 129.99642592 13.15882345 135.39770508 21.26074219 C135.01848254 31.3101395 127.75368617 37.38063207 120.88989258 43.89990234 C118.62551631 45.96496015 116.2378534 47.85978322 113.83520508 49.76074219 C106.46359539 55.66436656 96.61184638 63.60895722 94.39770508 73.26074219 C93.07252857 86.61119067 96.05017009 95.50375808 102.96020508 106.76074219 C109.96615614 118.2108723 112.64606137 129.76841282 109.77661133 143.15917969 C104.41887085 158.25610176 89.69797726 168.9045947 77.63208008 178.44824219 C65.68322924 188.00732286 52.95548983 198.34563704 50.39770508 214.26074219 C50.72770508 214.92074219 51.05770508 215.58074219 51.39770508 216.26074219 C50.73770508 216.26074219 50.07770508 216.26074219 49.39770508 216.26074219 C49.39770508 225.50074219 49.39770508 234.74074219 49.39770508 244.26074219 C50.05770508 244.59074219 50.71770508 244.92074219 51.39770508 245.26074219 C51.06770508 245.59074219 50.73770508 245.92074219 50.39770508 246.26074219 C50.24115481 247.74713211 50.14703565 249.24023346 50.08129883 250.73339844 C50.0394043 251.63251953 49.99750977 252.53164063 49.9543457 253.45800781 C49.9150293 254.40353516 49.87571289 255.3490625 49.83520508 256.32324219 C49.77042969 257.74733398 49.77042969 257.74733398 49.7043457 259.20019531 C49.59791232 261.55355572 49.49589499 263.90702573 49.39770508 266.26074219 C50.38770508 266.59074219 51.37770508 266.92074219 52.39770508 267.26074219 C48.67272101 268.50240355 45.22467543 268.39226764 41.34619141 268.37426758 C40.5264534 268.3744136 39.70671539 268.37455963 38.86213684 268.37471008 C36.1513098 268.37401315 33.44055138 268.36623097 30.72973633 268.35839844 C28.85072365 268.35653348 26.97171048 268.35510994 25.09269714 268.35411072 C20.14595193 268.35029166 15.19923606 268.34046657 10.25250244 268.32940674 C5.20520423 268.31917949 0.15790129 268.31461028 -4.8894043 268.30957031 C-14.79371406 268.29884378 -24.69800205 268.28177466 -34.60229492 268.26074219 C-34.60816116 267.60643219 -34.6140274 266.95212219 -34.62007141 266.27798462 C-34.6843001 259.43130293 -34.76879437 252.58507853 -34.86474609 245.73876953 C-34.89787862 243.18804984 -34.92594639 240.6372589 -34.94873047 238.08642578 C-34.98249101 234.4072449 -35.03481907 230.72871021 -35.09057617 227.04980469 C-35.09696609 225.92023346 -35.10335602 224.79066223 -35.10993958 223.62686157 C-35.41374351 207.04524119 -42.02371601 197.27423233 -53.71948242 185.91308594 C-58.17800861 181.81100019 -62.87029413 178.03994822 -67.60229492 174.26074219 C-93.23278526 153.53938048 -93.23278526 153.53938048 -95.60229492 140.26074219 C-96.61314165 125.5454653 -93.56997921 115.13762922 -85.83129883 102.61816406 C-80.13430296 93.3560745 -78.32024264 85.27130882 -79.60229492 74.26074219 C-82.94201331 62.45365698 -93.47415803 53.97387482 -102.71948242 46.65136719 C-106.00076711 43.93030183 -109.067743 41.06388877 -112.10229492 38.07324219 C-112.60680176 37.58605713 -113.11130859 37.09887207 -113.63110352 36.59692383 C-117.8214262 32.40162789 -120.60229492 28.67422243 -120.60229492 22.63574219 C-119.21922374 17.96787696 -116.47637169 16.35832211 -112.36791992 13.95214844 C-79.28413533 -0.89445676 -35.534849 -0.11979122 0 0 Z " fill="#DD6544" transform="translate(498.602294921875,275.7392578125)"/>
<path d="M0 0 C0 0.33 0 0.66 0 1 C-1.59485229 1.05945801 -1.59485229 1.05945801 -3.22192383 1.12011719 C-7.21676621 1.27379459 -11.21029723 1.45096318 -15.20385742 1.63476562 C-16.92299255 1.71070683 -18.6424111 1.7805167 -20.36206055 1.84375 C-35.10541993 2.39249964 -46.99348072 4.10421661 -57.90625 14.8828125 C-66.38416567 24.04327222 -69.5333563 33.85019787 -69.30859375 46.3046875 C-68.37755928 57.45353061 -64.18700421 67.59287027 -55.67578125 75.03125 C-45.96971817 82.22318371 -35.12279454 86.16945436 -23 85 C-10.84906601 82.39410117 -1.20685939 77.71503215 6.30859375 67.6640625 C8.85315913 63.65622511 10.59503239 59.52447196 12 55 C12.19335938 54.3915625 12.38671875 53.783125 12.5859375 53.15625 C14.27697008 44.35011808 13.26528327 34.59594097 11 26 C16.1071031 21.77303258 20.73982877 18.26431725 27 16 C30.00760253 19.48856242 31.96282888 22.73456733 33.6875 27 C34.31205078 28.5159375 34.31205078 28.5159375 34.94921875 30.0625 C38.95262464 41.25417744 37.06758055 52.36427738 32.375 63.0625 C26.68843454 73.55249007 17.60620536 80.67849265 6.5625 84.8125 C-2.32821632 87.39147651 -11.85989436 87.16402562 -21.0456543 87.28125 C-22.19508514 87.29929687 -23.34451599 87.31734375 -24.52877808 87.3359375 C-27.0047656 87.37429975 -29.48078282 87.41078318 -31.95682335 87.44555664 C-35.87914785 87.50077327 -39.80136116 87.56124128 -43.72358704 87.62304688 C-52.75164276 87.76463904 -61.77981361 87.89820074 -70.80799866 88.03125 C-79.7586177 88.16318844 -88.70916956 88.29845581 -97.65964699 88.43969727 C-101.51717017 88.49912118 -105.37474408 88.55335978 -109.23234558 88.60742188 C-111.60241088 88.64427127 -113.97247235 88.68136746 -116.3425293 88.71875 C-117.40922348 88.73228516 -118.47591766 88.74582031 -119.57493591 88.75976562 C-125.12963902 88.85318803 -130.50262526 89.18932345 -136 90 C-131.25409693 96.70849457 -125.43228877 100.29373327 -118.3671875 104.13671875 C-106.90539957 110.47926265 -98.09230348 119.42302436 -92 131 C-91.68724121 131.58072266 -91.37448242 132.16144531 -91.05224609 132.75976562 C-90.04068721 134.64487681 -89.04822582 136.53876583 -88.0625 138.4375 C-87.58369385 139.34278442 -87.58369385 139.34278442 -87.09521484 140.26635742 C-86.31805648 141.80697494 -85.65051152 143.40177841 -85 145 C-86.34549913 149.0364974 -88.35422005 149.86986428 -91.875 152.1875 C-92.94492187 152.90292969 -94.01484375 153.61835938 -95.1171875 154.35546875 C-98 156 -98 156 -101 156 C-102.61328125 153.796875 -102.61328125 153.796875 -104.3125 150.75 C-105.23482422 149.11224609 -105.23482422 149.11224609 -106.17578125 147.44140625 C-107.87961318 144.2271109 -109.44866706 140.977324 -111 137.6875 C-115.74976442 128.21258134 -121.85751375 124.36661663 -130.94042969 119.48022461 C-137.10556152 116.10200153 -142.10549972 112.06295344 -147 107 C-147.87205078 106.12408203 -147.87205078 106.12408203 -148.76171875 105.23046875 C-151.74565553 102.02104557 -153.74544739 98.71577529 -155.66796875 94.77734375 C-156.32768677 93.43337524 -156.32768677 93.43337524 -157.00073242 92.06225586 C-157.49536987 91.04143921 -157.49536987 91.04143921 -158 90 C-170.29182075 90.08759999 -182.58342948 90.19511128 -194.875 90.3125 C-195.85423809 90.3218092 -196.83347618 90.33111839 -197.84238815 90.34070969 C-228.53784488 90.63654758 -259.22735925 91.12680169 -289.91796875 91.734375 C-290.76115441 91.75103077 -291.60434008 91.76768653 -292.47307682 91.78484702 C-308.70072437 92.10556658 -324.92825227 92.43210183 -341.15545654 92.77456665 C-361.12947453 93.19597601 -381.10353839 93.60201028 -401.07926178 93.93460846 C-403.62580062 93.97708059 -406.1723258 94.02038315 -408.71883392 94.06465912 C-415.17429837 94.17541128 -421.62920191 94.26608879 -428.08544731 94.31501579 C-429.90029705 94.33119122 -431.71510377 94.3539597 -433.5297718 94.38430977 C-449.30748361 94.6368682 -461.30232183 91.86255298 -473.22265625 80.96875 C-482.54869999 71.34636468 -485.41948222 59.75467867 -485.26953125 46.6953125 C-484.43152342 35.20610376 -479.02239042 25.93267138 -470.90234375 17.93359375 C-462.11420886 10.54900854 -451.67204438 6.96870065 -440.30591965 6.76763058 C-439.64285793 6.75465812 -438.97979621 6.74168566 -438.29664171 6.72832009 C-436.07076306 6.68588881 -433.84482729 6.64996285 -431.61883545 6.61399841 C-430.00776449 6.58464817 -428.39670073 6.55490021 -426.78564382 6.52478844 C-422.35378063 6.44312386 -417.92183506 6.36716524 -413.48985529 6.29213345 C-408.70907985 6.21021304 -403.92839959 6.12305195 -399.14770508 6.03656006 C-389.76798219 5.86772016 -380.38817905 5.70382463 -371.00833854 5.54166489 C-363.36058404 5.40935603 -355.71286313 5.27524335 -348.06516266 5.13984871 C-346.97539376 5.12055667 -345.88562486 5.10126463 -344.76283266 5.08138799 C-342.54823508 5.0421749 -340.33363758 5.00295742 -338.11904016 4.96373559 C-317.31648922 4.59551726 -296.51384417 4.2328596 -275.71116248 3.87211425 C-257.96263951 3.56420845 -240.21420185 3.2517406 -222.46582031 2.93579102 C-201.80463919 2.56799169 -181.14341052 2.20306473 -160.48210073 1.84256035 C-158.26231077 1.80382194 -156.04252086 1.76508034 -153.82273102 1.72633553 C-152.73098497 1.70728174 -151.63923891 1.68822796 -150.51440965 1.66859679 C-142.92155284 1.53589651 -135.32873232 1.40123658 -127.73592377 1.2658062 C-39.41697641 -0.3075047 -39.41697641 -0.3075047 0 0 Z " fill="#6FB3F6" transform="translate(535,80)"/>
<path d="M0 0 C16.4501397 15.01860082 28.39131993 36.52645539 29.71704102 59.02490234 C30.81504165 87.80603995 24.25102355 110.33748914 5.0703125 132.16796875 C-8.10575913 146.12484462 -25.39285033 156.09967018 -44.44140625 159.3359375 C-46.09140625 159.3359375 -47.74140625 159.3359375 -49.44140625 159.3359375 C-49.44140625 224.0159375 -49.44140625 288.6959375 -49.44140625 355.3359375 C-27.99140625 355.3359375 -6.54140625 355.3359375 15.55859375 355.3359375 C51.03292411 355.91629464 51.03292411 355.91629464 68.55859375 356.3359375 C68.57218039 358.08200946 68.58183081 359.82811231 68.58984375 361.57421875 C68.59564453 362.54657471 68.60144531 363.51893066 68.60742188 364.52075195 C68.54904286 367.88659401 68.14703003 371.02598342 67.55859375 374.3359375 C67.22859375 374.3359375 66.89859375 374.3359375 66.55859375 374.3359375 C66.88859375 368.7259375 67.21859375 363.1159375 67.55859375 357.3359375 C60.47841437 357.45479401 53.39835808 357.57907943 46.31835938 357.70825195 C43.91311183 357.75138744 41.50783786 357.79307618 39.10253906 357.83325195 C35.63208069 357.8914763 32.16175272 357.95501662 28.69140625 358.01953125 C27.09548141 358.04459999 27.09548141 358.04459999 25.46731567 358.07017517 C19.11807895 358.19429215 12.8659082 358.59227055 6.55859375 359.3359375 C7.21859375 358.6759375 7.87859375 358.0159375 8.55859375 357.3359375 C0.58623758 357.26588751 -7.38598626 357.21285105 -15.35857582 357.18050098 C-19.06207918 357.16496091 -22.76536931 357.1439412 -26.46875 357.10961914 C-30.05440691 357.07660273 -33.63986102 357.0589973 -37.22565842 357.05130577 C-39.2338099 357.04320732 -41.2418818 357.01985884 -43.24990845 356.99604797 C-50.90890688 356.99467089 -57.87606414 357.79182062 -65.32553101 359.59233093 C-68.33473361 360.31047997 -71.38979001 360.82733479 -74.44140625 361.3359375 C-74.44140625 294.6759375 -74.44140625 228.0159375 -74.44140625 159.3359375 C-77.74140625 159.0059375 -81.04140625 158.6759375 -84.44140625 158.3359375 C-107.42401814 152.51491269 -127.98405781 137.67048292 -140.48974609 117.47998047 C-152.98818645 96.48700439 -157.68023341 70.67686545 -152.00854492 46.65771484 C-151.2404284 43.85175839 -150.39712604 41.0836319 -149.44140625 38.3359375 C-150.47201172 38.67818359 -150.47201172 38.67818359 -151.5234375 39.02734375 C-152.42449219 39.31480469 -153.32554687 39.60226563 -154.25390625 39.8984375 C-155.14722656 40.18847656 -156.04054688 40.47851562 -156.9609375 40.77734375 C-159.44140625 41.3359375 -159.44140625 41.3359375 -162.44140625 40.3359375 C-153.03138347 36.89174616 -153.03138347 36.89174616 -148.44140625 37.3359375 C-148.11140625 36.1190625 -147.78140625 34.9021875 -147.44140625 33.6484375 C-140.59532418 13.27014649 -123.01004633 -3.64543054 -104.44140625 -13.6640625 C-69.14294858 -30.90917984 -29.67771284 -25.24113167 0 0 Z " fill="#DF9E3D" transform="translate(887.44140625,72.6640625)"/>
<path d="M0 0 C2.02558881 3.34939881 2.21738987 5.86962551 2.125 9.75 C2.10695313 10.73484375 2.08890625 11.7196875 2.0703125 12.734375 C2.04710937 13.48203125 2.02390625 14.2296875 2 15 C2.95777344 14.95359375 3.91554688 14.9071875 4.90234375 14.859375 C23.15335193 14.24729851 41.14431542 18.75198373 55.625 30.375 C62.49663719 37.03379887 66.83327215 45.68511763 67.375 55.25 C67.10100445 65.30221173 62.1929575 73.48665438 55.48046875 80.61328125 C41.99780114 93.30863981 22.39434473 96.23427811 4.6875 96.25 C4.01049042 96.25067474 3.33348083 96.25134949 2.63595581 96.25204468 C-7.56719043 96.23585617 -17.11894406 95.78323861 -27 93 C-28.89492187 92.47212891 -28.89492187 92.47212891 -30.828125 91.93359375 C-44.42582218 87.88668047 -55.44223304 81.33061168 -66 72 C-66.31307386 73.70822826 -66.62543008 75.41658805 -66.9375 77.125 C-67.11152344 78.07632813 -67.28554687 79.02765625 -67.46484375 80.0078125 C-67.64144531 80.99523437 -67.81804687 81.98265625 -68 83 C-68.18175781 83.94617188 -68.36351563 84.89234375 -68.55078125 85.8671875 C-70.29208114 98.01086151 -70.08969002 113.06503488 -64 124 C-63.57332031 123.5875 -63.14664063 123.175 -62.70703125 122.75 C-52.94328565 113.73111747 -41.42871216 107.55135938 -29 103 C-27.88238281 102.58492188 -26.76476562 102.16984375 -25.61328125 101.7421875 C-2.99283267 94.74818935 24.6387914 96.89957016 45.64550781 107.86743164 C54.98021034 113.04003616 62.15056148 119.78857853 66.140625 129.88671875 C68.30905886 137.74236322 67.87716485 146.17510957 64.453125 153.58984375 C56.57332589 166.65929551 44.05326223 173.85125745 29.6953125 177.94140625 C2.93873408 184.45742005 -24.15144928 180.66828106 -48.08056641 167.17382812 C-52.49354833 164.47507246 -56.52616056 161.27593612 -60.5234375 158.00390625 C-62.81481171 156.00302917 -62.81481171 156.00302917 -65 155 C-65.48509793 156.37291868 -65.96275513 157.74846703 -66.4375 159.125 C-66.70433594 159.89070312 -66.97117187 160.65640625 -67.24609375 161.4453125 C-71.15060602 174.67614683 -70.53915254 191.77462787 -64 204 C-63.14019531 203.41992188 -62.28039062 202.83984375 -61.39453125 202.2421875 C-35.14204896 184.77800941 -4.51711705 177.50672158 26.75 183.6875 C33.94387158 185.24134266 40.59220039 187.29363361 47 191 C48.19302734 191.67869141 48.19302734 191.67869141 49.41015625 192.37109375 C58.76964167 198.13678677 64.40817259 205.23157423 67 216 C68.19797235 224.19521992 66.08797606 232.44718229 61.3125 239.1875 C49.71663193 253.23796788 32.85077482 259.7905593 15.06689453 261.82128906 C-9.1726221 263.91712253 -34.76921333 259.25311617 -53.90722656 243.42236328 C-57.73824904 240.08121887 -61.40013783 236.58772098 -65 233 C-69.14387727 239.2158159 -68.97982272 246.76771736 -68 254 C-64.41267429 265.4370827 -56.40938969 273.21746197 -46.34375 279.2734375 C-26.16457586 289.69305779 -4.37098329 292.28175827 18.01098633 293.22973633 C19.2358374 293.2892749 20.46068848 293.34881348 21.72265625 293.41015625 C22.81328369 293.45277588 23.90391113 293.49539551 25.02758789 293.53930664 C28.3480441 294.05394326 30.30179794 295.02544668 33 297 C34.60725635 300.21451269 34.05748185 303.43612536 34 307 C33.34 307.33 32.68 307.66 32 308 C32.0928125 306.1128125 32.0928125 306.1128125 32.1875 304.1875 C32.17106609 300.93816354 32.17106609 300.93816354 30.875 298 C28.10184376 296.52098334 26.08815875 296.61398016 23 297 C21 298 21 298 20 300 C19.60984439 303.12124489 19.44122451 305.09975061 21.125 307.8125 C23.66676215 309.42228269 26.0398108 309.67109009 29 310 C29 310.33 29 310.66 29 311 C-5.76472273 311.98857031 -43.92162123 306.91122927 -70.55859375 282.62890625 C-72 281 -72 281 -72 279 C-72.66 279 -73.32 279 -74 279 C-83.39454922 266.82873672 -87.15017007 254.2358145 -86 239 C-84.71942879 232.95543847 -82.95485271 227.27102545 -79.6875 222 C-77.76403879 219.24845565 -77.76403879 219.24845565 -78.2109375 216.7890625 C-79.22031022 213.2212797 -80.57081264 209.81622565 -81.9375 206.375 C-88.66827736 188.74307316 -89.69660677 168.77736692 -82.18945312 151.09033203 C-80.87294061 148.28341391 -79.4770922 145.54507428 -77.9765625 142.83203125 C-76.6899815 139.10094636 -77.4438806 137.57262916 -79 134 C-79.4021875 132.97261719 -79.804375 131.94523438 -80.21875 130.88671875 C-80.6415625 129.83097656 -81.064375 128.77523437 -81.5 127.6875 C-84.78046465 119.17758877 -86.42071731 111.08922128 -87 102 C-87.05414063 101.18144531 -87.10828125 100.36289062 -87.1640625 99.51953125 C-87.63317655 85.42478635 -84.15894549 71.45114787 -77.94140625 58.85546875 C-76.44647859 55.80581632 -75.89205989 54.42276543 -76.75 51.0625 C-77.1625 50.051875 -77.575 49.04125 -78 48 C-78.93585966 42.29125605 -79.12036019 36.77728911 -79 31 C-78.1646875 32.051875 -78.1646875 32.051875 -77.3125 33.125 C-76.549375 34.07375 -75.78625 35.0225 -75 36 C-74.278125 36.969375 -73.55625 37.93875 -72.8125 38.9375 C-67.41586341 45.35735209 -59.63662226 48.93090831 -52 52 C-52.99 53.65 -53.98 55.3 -55 57 C-46.88412957 69.17380565 -30.60223871 74.68704312 -16.93359375 77.4765625 C-15.96550781 77.64929688 -14.99742187 77.82203125 -14 78 C-13.26910156 78.13148438 -12.53820312 78.26296875 -11.78515625 78.3984375 C6.03401179 80.929375 24.54992978 79.18273282 40.25 70.125 C43.90064018 67.30405077 46.91212835 64.17574329 49 60 C49.37362894 54.39556595 49.23200076 50.7958721 46 46 C36.34487901 35.78294075 22.12384886 32.47996196 8.45703125 31.83203125 C7.25433594 31.82558594 6.05164063 31.81914062 4.8125 31.8125 C3.60207031 31.79832031 2.39164062 31.78414063 1.14453125 31.76953125 C-2.16208002 31.75243337 -2.16208002 31.75243337 -5 34 C-4.06264468 31.1209801 -3.12227222 28.28769934 -1.9375 25.5 C0.19439335 19.81495107 0.1283858 14.1054034 0.0625 8.125 C0.05798828 7.34125 0.05347656 6.5575 0.04882812 5.75 C0.03714093 3.83329986 0.01920908 1.91663952 0 0 Z " fill="#6BA9E6" transform="translate(145,233)"/>
<path d="M0 0 C2.39322542 0.01005012 4.78645493 0.01917237 7.1796875 0.02734375 C12.99488202 0.04919553 18.80992153 0.08251198 24.625 0.125 C24.51600717 3.48632081 24.38670808 6.84657354 24.25390625 10.20703125 C24.22349243 11.15259888 24.19307861 12.0981665 24.16174316 13.0723877 C23.65890401 25.17475207 19.28110182 34.57300937 10.625 43.125 C-4.64429044 55.63388126 -24.97089036 58.19605583 -43.75146484 61.54931641 C-67.69561512 65.83359115 -83.98630289 77.4440549 -101.59375 93.6171875 C-106.04742556 97.6330017 -110.67933364 101.39744438 -115.375 105.125 C-116.26316406 105.85460937 -117.15132812 106.58421875 -118.06640625 107.3359375 C-131.21758824 117.76177023 -146.13104317 125.02823115 -162.375 129.125 C-163.27734375 129.36863281 -164.1796875 129.61226562 -165.109375 129.86328125 C-192.5787359 136.13346145 -220.50805235 126.1161786 -245.6875 116.125 C-254.98281394 112.43866747 -264.23973468 109.00879292 -273.9375 106.5 C-274.79706299 106.27699219 -275.65662598 106.05398438 -276.54223633 105.82421875 C-289.33271515 102.71659879 -301.96063257 101.74574798 -315.0625 101.8125 C-316.18109909 101.81523422 -316.18109909 101.81523422 -317.32229614 101.81802368 C-328.8929077 101.86553873 -340.08646067 102.43245941 -351.375 105.125 C-352.62168457 105.42229004 -352.62168457 105.42229004 -353.89355469 105.72558594 C-363.82390497 108.14382075 -363.82390497 108.14382075 -373.54296875 111.27734375 C-376.61820246 112.19779301 -379.18272777 112.27701296 -382.375 112.125 C-382.52084064 108.89631254 -382.60924106 105.66847635 -382.6875 102.4375 C-382.72939453 101.52548828 -382.77128906 100.61347656 -382.81445312 99.67382812 C-382.93799493 92.87902911 -382.93799493 92.87902911 -380.19921875 89.2109375 C-367.59180041 79.89923433 -352.44430364 71.6433085 -337.375 67.125 C-337.705 66.465 -338.035 65.805 -338.375 65.125 C-337.488125 65.186875 -336.60125 65.24875 -335.6875 65.3125 C-330.79645311 65.3323823 -326.22008986 63.99578691 -321.4921875 62.859375 C-293.76217174 56.32648908 -265.07961616 65.26923257 -239.375 75.125 C-239.045 74.135 -238.715 73.145 -238.375 72.125 C-238.02695312 72.8778125 -237.67890625 73.630625 -237.3203125 74.40625 C-234.8484357 77.8609212 -232.06896063 79.07706995 -228.25 80.625 C-227.20223389 81.06610107 -227.20223389 81.06610107 -226.13330078 81.51611328 C-210.12270974 88.06347306 -190.33291919 94.40571081 -173.375 88.125 C-165.70958516 83.74476295 -162.05024093 74.1507228 -159.375 66.125 C-159.045 66.785 -158.715 67.445 -158.375 68.125 C-157.73433594 68.10179687 -157.09367188 68.07859375 -156.43359375 68.0546875 C-150.95614634 67.94040395 -146.66061389 68.57040768 -141.375 70.125 C-128.41798325 68.9899225 -113.24486724 50.83416339 -104.20239258 42.23999023 C-72.85573988 12.50270247 -42.91990651 -0.31471431 0 0 Z " fill="#6EB0F1" transform="translate(930.375,429.875)"/>
<path d="M0 0 C16.5 0 33 0 50 0 C50 47.19 50 94.38 50 143 C-6.76 143 -63.52 143 -122 143 C-115.38387356 135.28118582 -109.28402898 130.61833864 -100.34936523 126.06884766 C-85.64224521 118.57252655 -77.94134986 108.02790215 -72.5 92.5 C-66.02143013 74.03886292 -55.72468264 64.02838698 -38.81201172 54.97851562 C-24.95852163 47.49740699 -16.84610492 36.75604353 -11.546875 22.03125 C-11.29832764 21.34240723 -11.04978027 20.65356445 -10.79370117 19.94384766 C-10.32627056 18.62130775 -9.87430176 17.29313464 -9.44262695 15.95849609 C-7.20432865 9.47715552 -4.30351271 6.1478753 0 0 Z " fill="#DA9C3D" transform="translate(320,401)"/>
<path d="M0 0 C3.58156903 2.78283844 6.81139719 5.77846841 10 9 C10.69738281 9.66386719 11.39476562 10.32773438 12.11328125 11.01171875 C24.7834166 23.92787615 29.53845512 41.55324215 29.42236328 59.24414062 C28.78785548 78.70237974 19.66159442 94.86824777 5.875 108.1875 C-8.88429555 120.6446524 -26.99463473 125.51658975 -46 124 C-60.52649635 122.35579217 -74.14663897 115.7496294 -85 106 C-85.6290625 105.4740625 -86.258125 104.948125 -86.90625 104.40625 C-88.625 102.875 -88.625 102.875 -91 100 C-90.83886719 99.21625 -90.67773438 98.4325 -90.51171875 97.625 C-89.86116767 94.28782194 -90.61033804 93.09431958 -92.1875 90.125 C-101.26834382 71.40837191 -102.44245888 52.83240572 -98 33 C-98.99 32.34 -99.98 31.68 -101 31 C-96.38991668 15.94039449 -84.78920984 3.97345867 -71.16210938 -3.46972656 C-48.44713043 -15.23148707 -21.4691639 -14.17300273 0 0 Z " fill="#D6CDC1" transform="translate(864,85)"/>
<path d="M0 0 C0.66 0 1.32 0 2 0 C2.14695312 0.87011719 2.14695312 0.87011719 2.296875 1.7578125 C3.491502 7.99870874 5.41856281 12.41856281 10 17 C10.13525391 19.52197266 10.13525391 19.52197266 9.9765625 22.6640625 C9.925 23.78554688 9.8734375 24.90703125 9.8203125 26.0625 C9.75585938 27.238125 9.69140625 28.41375 9.625 29.625 C9.56828125 30.80835938 9.5115625 31.99171875 9.453125 33.2109375 C9.31133757 36.14121112 9.15989667 39.07066772 9 42 C9.66 42 10.32 42 11 42 C11.19335938 42.81984375 11.38671875 43.6396875 11.5859375 44.484375 C11.84632812 45.56203125 12.10671875 46.6396875 12.375 47.75 C12.63023438 48.81734375 12.88546875 49.8846875 13.1484375 50.984375 C13.87533541 53.55852722 14.7026224 55.67600186 16 58 C16.85980469 57.41992188 17.71960938 56.83984375 18.60546875 56.2421875 C44.85795104 38.77800941 75.48288295 31.50672158 106.75 37.6875 C113.94387158 39.24134266 120.59220039 41.29363361 127 45 C127.79535156 45.45246094 128.59070313 45.90492188 129.41015625 46.37109375 C138.76964167 52.13678677 144.40817259 59.23157423 147 70 C148.19797235 78.19521992 146.08797606 86.44718229 141.3125 93.1875 C129.71663193 107.23796788 112.85077482 113.7905593 95.06689453 115.82128906 C70.8273779 117.91712253 45.23078667 113.25311617 26.09277344 97.42236328 C22.26175096 94.08121887 18.59986217 90.58772098 15 87 C10.85612273 93.2158159 11.02017728 100.76771736 12 108 C15.58732571 119.4370827 23.59061031 127.21746197 33.65625 133.2734375 C53.83542414 143.69305779 75.62901671 146.28175827 98.01098633 147.22973633 C99.2358374 147.2892749 100.46068848 147.34881348 101.72265625 147.41015625 C102.81328369 147.45277588 103.90391113 147.49539551 105.02758789 147.53930664 C108.3480441 148.05394326 110.30179794 149.02544668 113 151 C114.60725635 154.21451269 114.05748185 157.43612536 114 161 C113.34 161.33 112.68 161.66 112 162 C112.0928125 160.1128125 112.0928125 160.1128125 112.1875 158.1875 C112.17106609 154.93816354 112.17106609 154.93816354 110.875 152 C108.10184376 150.52098334 106.08815875 150.61398016 103 151 C101 152 101 152 100 154 C99.60984439 157.12124489 99.44122451 159.09975061 101.125 161.8125 C103.66676215 163.42228269 106.0398108 163.67109009 109 164 C109 164.33 109 164.66 109 165 C74.23527727 165.98857031 36.07837877 160.91122927 9.44140625 136.62890625 C8 135 8 135 8 133 C7.34 133 6.68 133 6 133 C-3.39454922 120.82873672 -7.15017007 108.2358145 -6 93 C-4.71942879 86.95543847 -2.95485271 81.27102545 0.3125 76 C2.23596121 73.24845565 2.23596121 73.24845565 1.7890625 70.7890625 C0.77968978 67.2212797 -0.57081264 63.81622565 -1.9375 60.375 C-9.06734353 41.69768047 -9.28479837 21.57052105 -1.36328125 3.0078125 C-0.91339844 2.01523437 -0.46351562 1.02265625 0 0 Z " fill="#6BA9E6" transform="translate(65,379)"/>
<path d="M0 0 C9.57830106 6.62545295 16.61390928 15.81110588 19.45703125 27.18359375 C21.09436461 38.01004292 19.43523309 47.89742107 14.83984375 57.71484375 C15.82984375 56.72484375 15.82984375 56.72484375 16.83984375 55.71484375 C32.28985037 54.01291169 49.86848085 57.37525343 62.1484375 67.19921875 C66.66522497 71.24659412 68.6548099 74.45743075 69.15234375 80.52734375 C69.05785007 85.69614822 66.89470415 88.63397246 63.296875 92.27734375 C49.82587108 104.60778212 31.19462257 105.43812512 13.83984375 104.71484375 C-2.65156476 103.48019285 -21.03171685 98.54746756 -33.16015625 86.71484375 C-34.63565314 84.76755789 -35.89286284 82.81075207 -37.16015625 80.71484375 C-36.17015625 79.72484375 -35.18015625 78.73484375 -34.16015625 77.71484375 C-35.02898437 77.26753906 -35.8978125 76.82023437 -36.79296875 76.359375 C-48.24297629 70.35260371 -57.09472633 64.02076565 -62.03515625 51.46484375 C-65.59033284 39.61425511 -65.11386503 28.1171675 -60.16015625 16.71484375 C-54.11294812 6.53172126 -44.7359408 -1.59608309 -33.27880859 -4.81347656 C-22.09270077 -7.30386148 -9.79334383 -5.82641975 0 0 Z " fill="#F2F2F2" transform="translate(126.16015625,208.28515625)"/>
<path d="M0 0 C2.0458028 -0.00281129 4.09158596 -0.0083282 6.13738251 -0.01401138 C38.4486222 -0.06041205 71.4642306 0.9822341 103.1528244 7.74712753 C104.05774628 7.94024521 104.96266815 8.13336288 105.8950119 8.33233261 C114.16620569 10.2150124 122.62231095 12.51860944 129.7153244 17.30962753 C130.65762748 20.03241489 130.57183582 22.39202641 130.7153244 25.30962753 C103.22340439 45.35581921 55.08125928 43.42586397 22.5981369 43.51275253 C21.86090267 43.51557991 21.12366844 43.51840729 20.36409378 43.52132034 C16.44747588 43.53617142 12.53089335 43.54548428 8.61425018 43.54986191 C5.46373891 43.55420256 2.31350831 43.56794191 -0.83692169 43.59087753 C-95.56051453 44.26572216 -95.56051453 44.26572216 -120.2846756 26.30962753 C-121.2846756 25.30962753 -121.2846756 25.30962753 -121.8471756 22.05962753 C-121.2846756 18.30962753 -121.2846756 18.30962753 -118.2846756 15.68462753 C-84.5112315 -2.07254411 -37.10401823 0.04648017 0 0 Z " fill="#E2A13E" transform="translate(501.28467559814453,275.690372467041)"/>
<path d="M0 0 C15.84 0 31.68 0 48 0 C48 46.53 48 93.06 48 141 C32.16 141 16.32 141 0 141 C0 94.47 0 47.94 0 0 Z " fill="#D6CDC1" transform="translate(321,402)"/>
<path d="M0 0 C9.80772311 6.78414758 17.63634722 16.79392754 19.83984375 28.71484375 C20.84987107 42.49095411 18.60375558 53.25586832 9.96484375 64.30859375 C2.50619804 72.75441316 -8.19185639 77.75169887 -19.37890625 78.953125 C-31.96776698 79.3626941 -42.56387549 74.54411512 -51.84765625 66.33984375 C-52.61078125 65.47359375 -53.37390625 64.60734375 -54.16015625 63.71484375 C-54.65257812 63.17601562 -55.145 62.6371875 -55.65234375 62.08203125 C-62.8165754 53.56336775 -64.915424 43.06334292 -64.5390625 32.13671875 C-63.0709227 18.87805413 -56.39674619 9.93399871 -46.5 1.44140625 C-33.39312693 -8.23010944 -13.72869508 -8.16770467 0 0 Z " fill="#F2F2F2" transform="translate(529.16015625,87.28515625)"/>
<path d="M0 0 C7.95960112 6.44348662 14.12459873 15.73199599 15.21899414 26.06835938 C15.9667898 39.91897123 13.84644948 50.91306593 5 62 C-0.61417823 67.76191976 -7.27715262 68.1312986 -14.9375 68.375 C-29.29430475 68.14711421 -42.8926539 63.59011394 -56 58 C-56.87011719 57.63390625 -57.74023438 57.2678125 -58.63671875 56.890625 C-62.71143727 54.81184069 -64.64025827 52.49054992 -66.5 48.3125 C-69.62525295 38.00195565 -69.6598309 25.32059501 -65.32421875 15.38671875 C-59.44130863 4.78359757 -50.53895093 -3.92008042 -38.8828125 -7.68359375 C-24.88675348 -11.29467659 -11.62402977 -8.43936408 0 0 Z " fill="#F2F2F2" transform="translate(757,453)"/>
<path d="M0 0 C2.02558881 3.34939881 2.21738987 5.86962551 2.125 9.75 C2.10695313 10.73484375 2.08890625 11.7196875 2.0703125 12.734375 C2.04710937 13.48203125 2.02390625 14.2296875 2 15 C2.95777344 14.95359375 3.91554688 14.9071875 4.90234375 14.859375 C23.15335193 14.24729851 41.14431542 18.75198373 55.625 30.375 C62.49663719 37.03379887 66.83327215 45.68511763 67.375 55.25 C67.10100445 65.30221173 62.1929575 73.48665438 55.48046875 80.61328125 C41.99780114 93.30863981 22.39434473 96.23427811 4.6875 96.25 C4.01049042 96.25067474 3.33348083 96.25134949 2.63595581 96.25204468 C-7.56719043 96.23585617 -17.11894406 95.78323861 -27 93 C-28.89492187 92.47212891 -28.89492187 92.47212891 -30.828125 91.93359375 C-48.70831363 86.6112238 -61.48750712 78.02866851 -71.25 62.26953125 C-72.80321624 59.3676518 -73.61010019 57.23494997 -74 54 C-74.66 54 -75.32 54 -76 54 C-78.85739572 46.38027809 -79.16729501 39.03016059 -79 31 C-78.1646875 32.051875 -78.1646875 32.051875 -77.3125 33.125 C-76.549375 34.07375 -75.78625 35.0225 -75 36 C-74.278125 36.969375 -73.55625 37.93875 -72.8125 38.9375 C-67.41586341 45.35735209 -59.63662226 48.93090831 -52 52 C-52.99 53.65 -53.98 55.3 -55 57 C-46.88412957 69.17380565 -30.60223871 74.68704312 -16.93359375 77.4765625 C-15.96550781 77.64929688 -14.99742187 77.82203125 -14 78 C-13.26910156 78.13148438 -12.53820312 78.26296875 -11.78515625 78.3984375 C6.03401179 80.929375 24.54992978 79.18273282 40.25 70.125 C43.90064018 67.30405077 46.91212835 64.17574329 49 60 C49.37362894 54.39556595 49.23200076 50.7958721 46 46 C36.34487901 35.78294075 22.12384886 32.47996196 8.45703125 31.83203125 C7.25433594 31.82558594 6.05164063 31.81914062 4.8125 31.8125 C3.60207031 31.79832031 2.39164062 31.78414063 1.14453125 31.76953125 C-2.16208002 31.75243337 -2.16208002 31.75243337 -5 34 C-4.06264468 31.1209801 -3.12227222 28.28769934 -1.9375 25.5 C0.19439335 19.81495107 0.1283858 14.1054034 0.0625 8.125 C0.05798828 7.34125 0.05347656 6.5575 0.04882812 5.75 C0.03714093 3.83329986 0.01920908 1.91663952 0 0 Z " fill="#6BA8E4" transform="translate(145,233)"/>
<path d="M0 0 C16.09799127 -0.44255646 32.4318479 1.72360332 45.35546875 12.0625 C49.48934516 16.01227665 51.10989712 19.04783882 51.41015625 24.84375 C51.33088347 29.7946955 50.14598243 32.62027375 46.91796875 36.34375 C33.96136402 48.41576726 15.19700261 49.83980914 -1.68164062 49.28808594 C-20.52660449 48.22893934 -38.16437007 40.7871349 -51.83984375 27.71875 C-54.02734375 25.15625 -54.02734375 25.15625 -54.02734375 23.15625 C-53.36734375 23.15625 -52.70734375 23.15625 -52.02734375 23.15625 C-52.02734375 22.49625 -52.02734375 21.83625 -52.02734375 21.15625 C-37.51432629 7.94964164 -19.52237243 1.00760632 0 0 Z " fill="#D6CDC1" transform="translate(144.02734375,347.84375)"/>
<path d="M0 0 C6.59740668 5.27792534 9.7246911 13.79019896 11 22 C12.00236837 33.29592049 8.96720991 44.47544764 2.09375 53.50390625 C-7.16259522 64.43877886 -17.86196084 69.62614456 -31.96900368 70.80126953 C-36.99296829 71.13067107 -42.01226968 71.2170163 -47.0456543 71.28125 C-48.76980057 71.30832031 -48.76980057 71.30832031 -50.52877808 71.3359375 C-53.0047656 71.37429975 -55.48078282 71.41078318 -57.95682335 71.44555664 C-61.87914785 71.50077327 -65.80136116 71.56124128 -69.72358704 71.62304688 C-78.75164276 71.76463904 -87.77981361 71.89820074 -96.80799866 72.03125 C-105.7586177 72.16318844 -114.70916956 72.29845581 -123.65964699 72.43969727 C-127.51717017 72.49912118 -131.37474408 72.55335978 -135.23234558 72.60742188 C-137.60241088 72.64427127 -139.97247235 72.68136746 -142.3425293 72.71875 C-143.40922348 72.73228516 -144.47591766 72.74582031 -145.57493591 72.75976562 C-151.12963902 72.85318803 -156.50262526 73.18932345 -162 74 C-157.25409693 80.70849457 -151.43228877 84.29373327 -144.3671875 88.13671875 C-132.90539957 94.47926265 -124.09230348 103.42302436 -118 115 C-117.68724121 115.58072266 -117.37448242 116.16144531 -117.05224609 116.75976562 C-116.04068721 118.64487681 -115.04822582 120.53876583 -114.0625 122.4375 C-113.7432959 123.04102295 -113.4240918 123.6445459 -113.09521484 124.26635742 C-112.31805648 125.80697494 -111.65051152 127.40177841 -111 129 C-112.34549913 133.0364974 -114.35422005 133.86986428 -117.875 136.1875 C-118.94492187 136.90292969 -120.01484375 137.61835938 -121.1171875 138.35546875 C-124 140 -124 140 -127 140 C-128.61328125 137.796875 -128.61328125 137.796875 -130.3125 134.75 C-130.92738281 133.65816406 -131.54226563 132.56632813 -132.17578125 131.44140625 C-133.87961318 128.2271109 -135.44866706 124.977324 -137 121.6875 C-141.74976442 112.21258134 -147.85751375 108.36661663 -156.94042969 103.48022461 C-163.10556152 100.10200153 -168.10549972 96.06295344 -173 91 C-173.58136719 90.41605469 -174.16273438 89.83210938 -174.76171875 89.23046875 C-179.1984211 84.45849922 -180.8963919 80.20721621 -184 74 C-214.03 74 -244.06 74 -275 74 C-275 73.67 -275 73.34 -275 73 C-244.99800176 72.36995702 -215.00942898 71.80544456 -185 72 C-185.433125 71.32453125 -185.86625 70.6490625 -186.3125 69.953125 C-186.869375 69.06109375 -187.42625 68.1690625 -188 67.25 C-188.556875 66.36828125 -189.11375 65.4865625 -189.6875 64.578125 C-191 62 -191 62 -191 58 C-189.609375 56.18359375 -189.609375 56.18359375 -187.75 54.4375 C-187.11449219 53.83679688 -186.47898437 53.23609375 -185.82421875 52.6171875 C-183.95567604 50.96070639 -182.06612966 49.40496817 -180 48 C-173.14724014 50.75012073 -169.4874886 58.57751613 -166.5625 65 C-165 68.66108787 -165 68.66108787 -165 71 C-155.39578478 70.85731103 -145.79162434 70.71116554 -136.1875 70.5625 C-135.47456913 70.55147877 -134.76163826 70.54045753 -134.02710342 70.52910233 C-113.34092412 70.20856226 -92.65745128 69.83309552 -71.9753418 69.30493164 C-71.16438553 69.28449295 -70.35342926 69.26405426 -69.51789856 69.24299622 C-67.98856845 69.2043372 -66.45925967 69.16482131 -64.92997742 69.12431335 C-61.03899241 69.02672068 -57.16089846 69.00898816 -53.26953125 69.07421875 C-43.56478381 69.11273378 -33.5472874 65.01202723 -26 59 C-20.16315347 53.15303762 -16.44332934 46.86834872 -14 39 C-13.80664062 38.3915625 -13.61328125 37.783125 -13.4140625 37.15625 C-11.72302992 28.35011808 -12.73471673 18.59594097 -15 10 C-10.20732567 6.1126086 -5.67865696 2.47531201 0 0 Z " fill="#C66044" transform="translate(561,96)"/>
<path d="M0 0 C4.7528386 4.11912679 7.7211475 7.53016359 8.4375 13.875 C8.18709588 19.20359964 6.09203245 23.03075049 2.26953125 26.62890625 C-12.69601713 38.54757652 -32.83348037 39.66278072 -51.20751953 37.77294922 C-65.13860729 35.88821365 -76.05073079 30.60814257 -87 22 C-87.763125 21.46632813 -88.52625 20.93265625 -89.3125 20.3828125 C-89.869375 19.92648437 -90.42625 19.47015625 -91 19 C-91 18.34 -91 17.68 -91 17 C-91.66 17 -92.32 17 -93 17 C-93 16.34 -93 15.68 -93 15 C-93.66 15 -94.32 15 -95 15 C-95.66 13.68 -96.32 12.36 -97 11 C-70.25848942 -7.28826711 -29.88653379 -18.60859651 0 0 Z " fill="#D6CDC1" transform="translate(187,440)"/>
<path d="M0 0 C10.21883747 2.67226614 19.38952359 6.89555741 25.48046875 15.91015625 C26.72448726 19.64221177 26.99727893 23.0340799 26.48046875 26.91015625 C22.60558722 34.65991931 15.41348829 39.80351923 7.48046875 42.91015625 C-14.88519932 50.23458556 -40.4288575 48.18266651 -61.765625 38.42578125 C-69.35290586 34.43139187 -75.0462457 30.30828235 -79.51953125 22.91015625 C-78.1171875 20.91015625 -78.1171875 20.91015625 -75.51953125 18.91015625 C-72.32042647 18.49110665 -69.17112687 18.73238286 -65.95703125 18.91015625 C-54.23833421 19.22318706 -45.29939949 17.07617777 -36.51953125 8.91015625 C-34.66148065 6.9036139 -32.88469949 4.86438028 -31.16015625 2.7421875 C-23.34760615 -5.98182677 -10.30480259 -2.29588866 0 0 Z " fill="#D4CBC0" transform="translate(168.51953125,266.08984375)"/>
<path d="M0 0 C2.34361911 2.95199222 4.09278947 5.96309133 5.8125 9.3125 C7.72060892 12.92256536 9.5897022 15.82935156 12.4375 18.75 C14.96289413 21.48584364 15.00480856 21.71148658 14.9375 25.75 C14.33297339 27.84569226 13.68973752 29.93078744 13 32 C11.86709993 43.57278936 13.41293415 51.91574657 20.79296875 61.2734375 C40.29503006 82.26328494 72.10922428 85.09032453 99.01098633 86.22973633 C100.2358374 86.2892749 101.46068848 86.34881348 102.72265625 86.41015625 C103.81328369 86.45277588 104.90391113 86.49539551 106.02758789 86.53930664 C109.3480441 87.05394326 111.30179794 88.02544668 114 90 C115.60725635 93.21451269 115.05748185 96.43612536 115 100 C114.01 100.495 114.01 100.495 113 101 C113.0928125 99.1128125 113.0928125 99.1128125 113.1875 97.1875 C113.17106609 93.93816354 113.17106609 93.93816354 111.875 91 C109.10184376 89.52098334 107.08815875 89.61398016 104 90 C102 91 102 91 101 93 C100.60984439 96.12124489 100.44122451 98.09975061 102.125 100.8125 C104.66676215 102.42228269 107.0398108 102.67109009 110 103 C110 103.33 110 103.66 110 104 C75.23527727 104.98857031 37.07837877 99.91122927 10.44140625 75.62890625 C9 74 9 74 9 72 C8.34 72 7.68 72 7 72 C-2.39454922 59.82873672 -6.15017007 47.2358145 -5 32 C-3.71942879 25.95543847 -1.95485271 20.27102545 1.3125 15 C3.24648727 12.18223897 3.24648727 12.18223897 2.875 9.3125 C2.04415886 6.99823365 2.04415886 6.99823365 0.9375 4.875 C0 3 0 3 0 0 Z " fill="#6AA6E1" transform="translate(64,440)"/>
<path d="M0 0 C-0.31193464 1.72926874 -0.62457362 3.45841044 -0.9375 5.1875 C-1.11152344 6.15042969 -1.28554688 7.11335938 -1.46484375 8.10546875 C-1.78621324 9.84367893 -2.13021659 11.57824996 -2.51855469 13.30273438 C-6.99383839 38.37521632 -0.36475049 61.41479983 12 83 C5.92799599 86.03600201 -2.95803787 84.32815388 -9.1875 82.4375 C-19.39781282 78.59853014 -28.55045332 71.88117364 -33.50390625 62 C-38.63271969 50.07660466 -40.07349614 38.31301418 -35.37890625 25.9140625 C-30.34771801 15.2815797 -22.64170989 7.22670286 -11.734375 2.62109375 C-4.17247387 0 -4.17247387 0 0 0 Z " fill="#F2F1F1" transform="translate(738,111)"/>
<path d="M0 0 C0 0.66 0 1.32 0 2 C0.59167969 2.04898437 1.18335938 2.09796875 1.79296875 2.1484375 C6.19104472 2.56456867 9.96928897 3.04965595 14 5 C14 5.66 14 6.32 14 7 C15.19625 7.061875 16.3925 7.12375 17.625 7.1875 C26.8146904 8.22316352 35.78911637 10.9692348 42 18 C44.48499142 21.54998775 44.43249013 24.74718041 44 29 C42.64794434 32.55919518 40.72695317 35.3171046 37.9375 37.9375 C26.30600084 42.14463799 14.65054609 36.09605293 3.8125 32 C1.98432464 31.32389437 0.15555237 30.6494005 -1.67382812 29.9765625 C-6.12299252 28.33623026 -10.56348564 26.67422837 -15 25 C-15 24.34 -15 23.68 -15 23 C-17.31 22.34 -19.62 21.68 -22 21 C-22.33 19.35 -22.66 17.7 -23 16 C-23.66 16 -24.32 16 -25 16 C-25 12.7 -25 9.4 -25 6 C-24.34 6 -23.68 6 -23 6 C-22.979375 5.2575 -22.95875 4.515 -22.9375 3.75 C-21.77799236 0.3487776 -20.12139356 -0.68803398 -16.95703125 -2.2734375 C-10.80016701 -4.55921943 -5.69671423 -2.39861652 0 0 Z " fill="#CCC3B8" transform="translate(739,271)"/>
<path d="M0 0 C6.59740668 5.27792534 9.7246911 13.79019896 11 22 C12.00236837 33.29592049 8.96720991 44.47544764 2.09375 53.50390625 C-5.31167464 62.25221599 -14.95479017 69.20179674 -26.69189453 70.23754883 C-29.48830795 70.29328068 -32.26666709 70.26337855 -35.0625 70.1875 C-36.02349609 70.17396484 -36.98449219 70.16042969 -37.97460938 70.14648438 C-40.31701752 70.11152306 -42.65819156 70.06246104 -45 70 C-43.53309575 67.06619149 -41.53832494 66.93652678 -38.5 65.8125 C-26.83507822 61.03859963 -20.14186974 54.06494624 -14.90234375 42.59765625 C-11.20802191 32.270738 -12.24749739 20.44476436 -15 10 C-10.20732567 6.1126086 -5.67865696 2.47531201 0 0 Z " fill="#040404" transform="translate(561,96)"/>
<path d="M0 0 C4.22274722 1.49363548 5.41825557 3.97105623 7.375 7.875 C7.91898438 8.92429688 8.46296875 9.97359375 9.0234375 11.0546875 C10 14 10 14 9.296875 16.24609375 C7.87114189 18.17426896 6.273615 19.81314852 4.52734375 21.453125 C2.90997291 23.03691008 2.90997291 23.03691008 1.31640625 25.109375 C-6.34001448 34.59633291 -14.92815783 38.00642152 -26.75 39.5625 C-27.54188721 39.64097168 -28.33377441 39.71944336 -29.1496582 39.80029297 C-36.08411157 40.59068868 -41.29799707 43.01110487 -46.0234375 48.23828125 C-46.69246094 49.26501953 -46.69246094 49.26501953 -47.375 50.3125 C-48.7734375 52.42578125 -48.7734375 52.42578125 -50 54 C-50.66 54 -51.32 54 -52 54 C-53.40091134 51.26246389 -54.76592679 48.50851493 -56.125 45.75 C-56.52332031 44.97269531 -56.92164063 44.19539063 -57.33203125 43.39453125 C-57.69941406 42.64042969 -58.06679688 41.88632813 -58.4453125 41.109375 C-58.79094238 40.41811523 -59.13657227 39.72685547 -59.49267578 39.01464844 C-60 37 -60 37 -59.19238281 34.85229492 C-54.40234265 27.41125588 -46.28475332 23.35556777 -38 21 C-35.7977836 20.76599826 -33.58739874 20.59902374 -31.375 20.5 C-24.98593575 20.19430315 -20.16177021 18.87132765 -15 15 C-13.07027185 12.83503639 -11.40181332 10.60076818 -9.73828125 8.2265625 C-7.0332941 4.7617475 -3.63992607 2.41086012 0 0 Z " fill="#CF943B" transform="translate(664,154)"/>
<path d="M0 0 C3.28513193 0.32388625 4.83802765 1.46582203 6.9375 3.9375 C15.05622854 13.9471729 18.17060053 25.25187475 17 38 C15.53295325 44.81344908 13.69576211 51.6983331 9 57 C8.01 57 7.02 57 6 57 C-1.71247585 40.59518456 -7.5682844 19.87350547 -2 2 C-1.34 1.34 -0.68 0.68 0 0 Z " fill="#F0F0F0" transform="translate(767,121)"/>
<path d="M0 0 C6.8186033 1.15158634 11.63616242 2.86815122 16.8125 7.6875 C18.68427139 11.33252849 19.11343626 14.9233845 19 19 C17.40594023 23.69362043 15.28109703 26.48718218 11 29 C4.42096112 30.86875423 -0.81835448 29.586646 -7 27 C-7 26.01 -7 25.02 -7 24 C-7.350625 23.29875 -7.70125 22.5975 -8.0625 21.875 C-9.41673929 17.72199952 -9.14342263 14.19746758 -8 10 C-6.11419223 6.49778557 -4.07633253 4.33485901 -0.1875 3.125 C0.8953125 3.063125 0.8953125 3.063125 2 3 C2 2.34 2 1.68 2 1 C1.34 0.67 0.68 0.34 0 0 Z " fill="#D1963D" transform="translate(778,381)"/>
<path d="M0 0 C6.99689594 1.20581427 12.98164403 2.68954506 17.9375 8.125 C19.53802004 12.45581893 19.65002973 16.44248821 19 21 C17.18766463 24.83378636 15.69973473 26.53351018 12.1875 28.875 C5.18924315 31.34497301 -0.35427048 29.53170648 -7 27 C-6.34 26.67 -5.68 26.34 -5 26 C-5.495 25.38125 -5.99 24.7625 -6.5 24.125 C-8.62750674 19.69269429 -8.93855624 15.82793331 -8 11 C-6.00982758 7.42541848 -3.78491147 4.55382891 0.203125 3.31640625 C0.79609375 3.21199219 1.3890625 3.10757812 2 3 C2 2.34 2 1.68 2 1 C1.34 0.67 0.68 0.34 0 0 Z " fill="#CF6243" transform="translate(912,355)"/>
<path d="M0 0 C3.56568061 1.54335429 6.31019147 3.24343581 8.9375 6.125 C10.53802004 10.45581893 10.65002973 14.44248821 10 19 C8.18766463 22.83378636 6.69973473 24.53351018 3.1875 26.875 C-4.61617313 29.62923758 -10.68638041 26.96247882 -18 24 C-17.01 23.34 -16.02 22.68 -15 22 C-15.66 21.01 -16.32 20.02 -17 19 C-17.76603375 14.7868144 -17.9475779 10.70817554 -15.83203125 6.89453125 C-11.32843264 1.46474269 -7.25546156 -2.17663847 0 0 Z " fill="#D89A3D" transform="translate(926,258)"/>
<path d="M0 0 C4.5007346 3.63889181 6.72702564 6.58872649 7.375 12.3125 C6.82414791 17.72921221 4.97706877 21.14275358 0.9375 24.9375 C-6.6335571 27.67596746 -13.86739762 26.22985768 -21 23 C-20.01 22.34 -19.02 21.68 -18 21 C-18.515625 20.175 -19.03125 19.35 -19.5625 18.5 C-21.27531453 14.32966898 -21.4692336 11.2128853 -20 7 C-17.77730751 3.41704776 -15.17252412 0.79224603 -11.6875 -1.5625 C-7.51088613 -2.24241389 -3.93057995 -1.51944379 0 0 Z " fill="#D16243" transform="translate(776,284)"/>
<path d="M0 0 C0 0.33 0 0.66 0 1 C-1.61056274 1.07516846 -1.61056274 1.07516846 -3.25366211 1.15185547 C-7.27408714 1.34158 -11.29394632 1.54162143 -15.3137207 1.74462891 C-17.04665804 1.83073559 -18.77973296 1.91412164 -20.51293945 1.99462891 C-23.01816099 2.11148635 -25.52270857 2.2384359 -28.02734375 2.3671875 C-28.79022202 2.40061249 -29.55310028 2.43403748 -30.33909607 2.46847534 C-35.72021669 2.75851554 -40.77606681 3.6879298 -46 5 C-45.67 4.01 -45.34 3.02 -45 2 C-45.62159343 2.01177402 -46.24318686 2.02354805 -46.88361645 2.03567886 C-68.48483358 2.44460411 -90.08613914 2.84874336 -111.6875 3.25 C-112.55457942 3.2661084 -113.42165885 3.28221681 -114.31501341 3.29881334 C-186.29182928 4.63547052 -258.27028121 5.87272844 -330.24927332 7.08532352 C-334.97970973 7.16502193 -339.71014452 7.24481598 -344.44057846 7.32466125 C-361.19505653 7.60744658 -377.94954994 7.88930483 -394.70406103 8.17012715 C-398.28204517 8.23015442 -401.86002659 8.2903412 -405.43800735 8.35056877 C-410.98594212 8.4439221 -416.53388517 8.53676573 -422.08183539 8.62919569 C-424.10177126 8.66292308 -426.12170433 8.69681834 -428.14163435 8.73089457 C-430.88704328 8.77717616 -433.63246186 8.82283596 -436.37788391 8.86833191 C-437.17135511 8.88184895 -437.9648263 8.89536599 -438.78234208 8.90929264 C-442.85539452 8.97607364 -446.92640372 9.01362091 -451 9 C-447.46206214 6.82336575 -444.54040968 6.71596999 -440.42896748 6.64458275 C-439.7670596 6.63045644 -439.10515172 6.61633014 -438.42318603 6.60177577 C-436.19522544 6.55659797 -433.96728309 6.52522972 -431.73908997 6.4937439 C-430.12887375 6.46396534 -428.51867297 6.43334201 -426.9084875 6.40194476 C-422.47442113 6.3179567 -418.04022747 6.2460483 -413.60592091 6.17606783 C-408.82438031 6.09851903 -404.04304409 6.00986977 -399.26167297 5.92259216 C-389.87853342 5.75308604 -380.49524532 5.59390421 -371.11186878 5.43813466 C-360.14538359 5.25569543 -349.17908474 5.06305166 -338.21278223 4.86999352 C-318.59063579 4.52489994 -298.96834173 4.18906086 -279.34594727 3.85839844 C-260.40409637 3.5391955 -241.46236827 3.21369659 -222.52075195 2.88085938 C-221.36068336 2.86047585 -220.20061477 2.84009233 -219.00539259 2.81909113 C-217.2680238 2.78856247 -217.2680238 2.78856247 -215.49555665 2.75741708 C-193.84793679 2.37706555 -172.20022157 2.00241187 -150.55245427 1.63055217 C-144.02713859 1.5183691 -137.50184058 1.40521774 -130.97655531 1.29128005 C-39.68694651 -0.30239081 -39.68694651 -0.30239081 0 0 Z " fill="#526373" transform="translate(535,80)"/>
<path d="M0 0 C0.99 1.051875 0.99 1.051875 2 2.125 C8.51432235 8.56653662 15.56525865 12.49586113 24 16 C23.01 17.65 22.02 19.3 21 21 C26.78693474 29.6804021 36.65319425 34.14399839 46 38 C46 38.33 46 38.66 46 39 C32.30267212 39.61179132 23.09595518 38.40263747 12.2578125 29.1953125 C5.69451416 22.81369716 0.74790853 13.96037454 -0.2421875 4.74609375 C-0.25 2.8125 -0.25 2.8125 0 0 Z " fill="#060708" transform="translate(69,269)"/>
<path d="M0 0 C3.79139846 -0.11771717 7.58231735 -0.18775198 11.375 -0.25 C12.96634766 -0.30027344 12.96634766 -0.30027344 14.58984375 -0.3515625 C23.92132495 -0.4660592 31.60681703 1.49348137 38.9375 7.5 C39.64777344 8.0671875 40.35804688 8.634375 41.08984375 9.21875 C43.00802438 11.00748286 44.49923099 12.8547001 46 15 C45.35933594 15.37511719 44.71867188 15.75023438 44.05859375 16.13671875 C38.85544598 19.21518323 33.86173705 22.40654218 29 26 C28.64808594 25.35933594 28.29617188 24.71867187 27.93359375 24.05859375 C21.65567633 13.0599447 14.19224549 5.86393675 1.63671875 2.3359375 C1.09660156 2.22507812 0.55648437 2.11421875 0 2 C0 1.34 0 0.68 0 0 Z " fill="#6AA6E1" transform="translate(516,81)"/>
<path d="M0 0 C3.81271791 3.17726492 7.45516471 6.399999 10.9375 9.9375 C13.51837301 12.55807875 16.1450273 15.04395197 18.9375 17.4375 C22.80718774 20.75764628 26.36922389 24.32948933 29.921875 27.984375 C31.84942304 29.85395167 33.81500432 31.44491299 36 33 C35.65120368 36.25543229 34.97866739 37.01873107 32.4375 39.25 C31.633125 39.8275 30.82875 40.405 30 41 C25.66228543 37.32417103 21.49367785 33.54924206 17.5 29.5 C14.1465881 26.10065095 10.68124343 22.93817209 7.0546875 19.8359375 C3.85258182 16.97474041 0.87624223 13.89718278 -2.1171875 10.8203125 C-3.87753339 8.93616102 -3.87753339 8.93616102 -6 8 C-4.55746343 4.63408134 -2.66735273 2.48952921 0 0 Z " fill="#EFEFEF" transform="translate(381,208)"/>
<path d="M0 0 C0.33 0.66 0.66 1.32 1 2 C3.01669827 3.13350534 3.01669827 3.13350534 5 4 C4.67515625 5.45019531 4.67515625 5.45019531 4.34375 6.9296875 C4.06196644 8.24467745 3.7807471 9.55978838 3.5 10.875 C3.2215625 12.15117188 2.943125 13.42734375 2.65625 14.7421875 C1.19633291 22.92410855 1.99804364 30.73791577 3.6875 38.8125 C3.86394043 39.67689697 4.04038086 40.54129395 4.22216797 41.43188477 C5.96408435 49.54697915 8.52873027 57.1947533 12.3359375 64.59765625 C12.55507813 65.39042969 12.77421875 66.18320313 13 67 C11.625 69.3125 11.625 69.3125 10 71 C-1.70935652 54.44363316 -7.92805228 36.17644759 -4.61914062 15.63574219 C-2.33931818 4.67863636 -2.33931818 4.67863636 0 0 Z " fill="#0E0B08" transform="translate(762,114)"/>
<path d="M0 0 C2.64 0 5.28 0 8 0 C8 66.33 8 132.66 8 201 C9.32 201.33 10.64 201.66 12 202 C10.02 202.33 8.04 202.66 6 203 C6 136.34 6 69.68 6 1 C4.02 1 2.04 1 0 1 C0 0.67 0 0.34 0 0 Z " fill="#997643" transform="translate(807,231)"/>
<path d="M0 0 C1.98 0 3.96 0 6 0 C6 0.33 6 0.66 6 1 C4.35 1 2.7 1 1 1 C1 65.68 1 130.36 1 197 C22.45 197 43.9 197 66 197 C101.47433036 197.58035714 101.47433036 197.58035714 119 198 C119.01358664 199.74607196 119.02323706 201.49217481 119.03125 203.23828125 C119.03705078 204.21063721 119.04285156 205.18299316 119.04882812 206.18481445 C118.99044911 209.55065651 118.58843628 212.69004592 118 216 C117.67 216 117.34 216 117 216 C117.33 210.39 117.66 204.78 118 199 C110.91982062 199.11885651 103.83976433 199.24314193 96.75976562 199.37231445 C94.35451808 199.41544994 91.94924411 199.45713868 89.54394531 199.49731445 C86.07348694 199.5555388 82.60315897 199.61907912 79.1328125 199.68359375 C77.53688766 199.70866249 77.53688766 199.70866249 75.90872192 199.73423767 C69.5594852 199.85835465 63.30731445 200.25633305 57 201 C57.66 200.34 58.32 199.68 59 199 C50.97580169 198.97670287 42.95161781 198.95899716 34.92739391 198.94818783 C31.20036298 198.94299668 27.47335539 198.93596853 23.74633789 198.92456055 C20.14126167 198.91359643 16.53620773 198.90769488 12.9311161 198.90512276 C11.56419843 198.90329264 10.1972818 198.89971964 8.83037376 198.89426994 C0.82512556 198.86365928 -7.04292887 199.09060387 -15 200 C-11 198 -11 198 0 197 C0 131.99 0 66.98 0 0 Z " fill="#787064" transform="translate(837,231)"/>
<path d="M0 0 C2.21460369 1.82945522 2.94372483 2.67038832 3.4375 5.5625 C3.73987379 8.17317795 3.73987379 8.17317795 6.0625 9.3125 C6.701875 9.539375 7.34125 9.76625 8 10 C7.01 10 6.02 10 5 10 C4.97421875 10.65226562 4.9484375 11.30453125 4.921875 11.9765625 C4.54198188 17.83037019 3.88742747 21.52356837 0 26 C-0.66 26 -1.32 26 -2 26 C-2 26.66 -2 27.32 -2 28 C-11.01470128 28.77416328 -11.01470128 28.77416328 -14.625 25.9375 C-16.35598675 22.23948285 -16.56800402 20.04702864 -16 16 C-13.73220014 11.63238546 -11.55651599 8.92386231 -7 7 C-4.00739696 6.48611867 -1.02920781 6.19138786 2 6 C1.34 4.02 0.68 2.04 0 0 Z " fill="#E9AC50" transform="translate(469,290)"/>
<path d="M0 0 C0.99 3.63 1.98 7.26 3 11 C1.659375 11.70125 0.31875 12.4025 -1.0625 13.125 C-7.54265839 16.73188061 -12.5914624 21.00438887 -17 27 C-20.87132028 26.42647107 -23.08172796 24.51295648 -26 22 C-25.01803338 15.34103885 -18.60877614 10.03227394 -13.54296875 6.0859375 C-4.50400246 0 -4.50400246 0 0 0 Z " fill="#BB5A3E" transform="translate(636,238)"/>
<path d="M0 0 C0.33 0.66 0.66 1.32 1 2 C1.59425781 1.96519531 2.18851563 1.93039062 2.80078125 1.89453125 C9.6632295 1.67040775 15.48050228 2.91772696 22 5 C18.6567084 8.75059616 14.96929574 10.98047359 10.625 13.375 C9.92544189 13.76349121 9.22588379 14.15198242 8.50512695 14.55224609 C1.92998808 18.14192051 -4.85395342 21.70127173 -12 24 C-12.99 23.67 -13.98 23.34 -15 23 C-14.13375 22.38125 -13.2675 21.7625 -12.375 21.125 C-5.94305709 15.7574448 -2.59304964 7.77914893 0 0 Z " fill="#090A0B" transform="translate(771,496)"/>
<path d="M0 0 C2.27034041 2.27034041 3.43076735 4.4792292 4.9375 7.3125 C6.87032632 10.93593143 8.86067042 14.49405391 11 18 C10.34 18 9.68 18 9 18 C8.68692614 19.70822826 8.37456992 21.41658805 8.0625 23.125 C7.88847656 24.07632812 7.71445313 25.02765625 7.53515625 26.0078125 C7.35855469 26.99523437 7.18195313 27.98265625 7 29 C6.73703125 30.3921875 6.73703125 30.3921875 6.46875 31.8125 C5.87812339 35.82876092 5.64693916 39.82355396 5.4375 43.875 C5.39431641 44.65875 5.35113281 45.4425 5.30664062 46.25 C5.20146649 48.16650649 5.10032075 50.08323333 5 52 C4.67 52 4.34 52 4 52 C3.97281684 49.14576808 3.95307295 46.29179985 3.9375 43.4375 C3.92912109 42.63763672 3.92074219 41.83777344 3.91210938 41.01367188 C3.89672153 37.24364917 4.02290723 33.86979741 4.6796875 30.13671875 C5.29680904 27.07054839 5.29680904 27.07054839 3.85546875 24.9609375 C3.30503906 24.43757813 2.75460938 23.91421875 2.1875 23.375 C-1.95721486 19.04799445 -3.41298399 15.10894131 -4.11328125 9.0703125 C-3.9111398 5.37600322 -2.06330039 3.00116421 0 0 Z " fill="#13191F" transform="translate(70,287)"/>
<path d="M0 0 C3.48670834 1.1094072 6.77484237 2.26337666 10 4 C8.3341708 10.16356805 5.12194714 15.48259656 2 21 C-2.11704694 20.27758802 -5.30487372 18.97646289 -9 17 C-7.57997238 13.24069983 -5.87350167 9.77000304 -3.9375 6.25 C-3.14666016 4.80367188 -3.14666016 4.80367188 -2.33984375 3.328125 C-1 1 -1 1 0 0 Z " fill="#BC5B3F" transform="translate(627,118)"/>
<path d="M0 0 C0.515625 0.66 1.03125 1.32 1.5625 2 C3.82235693 4.88435706 3.82235693 4.88435706 5.859375 6.8671875 C10.96603196 12.11683085 10.96603196 12.11683085 11.125 16.25 C10.75375 17.4875 10.3825 18.725 10 20 C7.05156028 30.03420615 6.33481871 39.60907452 6 50 C5.67 50 5.34 50 5 50 C5.02618408 49.27409668 5.05236816 48.54819336 5.0793457 47.80029297 C5.1836681 44.49208459 5.24843872 41.1842228 5.3125 37.875 C5.35439453 36.73289062 5.39628906 35.59078125 5.43945312 34.4140625 C5.71004008 27.36574584 5.71004008 27.36574584 2.55859375 21.34375 C1.71425781 20.5703125 0.86992188 19.796875 0 19 C-2.1133165 14.98469865 -3.10622314 10.54103903 -3 6 C-1.5625 2.5 -1.5625 2.5 0 0 Z " fill="#12171C" transform="translate(69,371)"/>
<path d="M0 0 C1.25173004 -0.00311188 2.50346008 -0.00622375 3.79312134 -0.00942993 C5.16082791 -0.00762326 6.52853423 -0.00561303 7.89624023 -0.00341797 C9.33637518 -0.00443469 10.77650992 -0.00577477 12.21664429 -0.00741577 C16.07996496 -0.01011514 19.94324546 -0.0056506 23.80656052 0.00082397 C26.20259471 0.0043912 28.59862291 0.00601247 30.99465942 0.00708008 C59.88594754 0.02306476 88.75922665 0.42019004 117.64233398 1.12939453 C117.65592062 2.87546649 117.66557104 4.62156935 117.67358398 6.36767578 C117.67938477 7.34003174 117.68518555 8.3123877 117.69116211 9.31420898 C117.6327831 12.68005104 117.23077026 15.81944046 116.64233398 19.12939453 C116.31233398 19.12939453 115.98233398 19.12939453 115.64233398 19.12939453 C115.97233398 13.51939453 116.30233398 7.90939453 116.64233398 2.12939453 C109.5621546 2.24825105 102.48209831 2.37253646 95.40209961 2.50170898 C92.99685206 2.54484447 90.5915781 2.58653321 88.1862793 2.62670898 C84.71582093 2.68493333 81.24549295 2.74847365 77.77514648 2.81298828 C76.71119659 2.82970078 75.6472467 2.84641327 74.55105591 2.8636322 C68.20181919 2.98774918 61.94964843 3.38572758 55.64233398 4.12939453 C56.30233398 3.46939453 56.96233398 2.80939453 57.64233398 2.12939453 C49.61813568 2.1060974 41.5939518 2.08839169 33.5697279 2.07758236 C29.84269696 2.07239121 26.11568938 2.06536306 22.38867188 2.05395508 C18.78359565 2.04299096 15.17854171 2.03708941 11.57345009 2.03451729 C10.20653241 2.03268717 8.83961579 2.02911417 7.47270775 2.02366447 C-0.53254046 1.99305381 -8.40059488 2.2199984 -16.35766602 3.12939453 C-11.19230151 0.14937655 -5.84633617 0.00427461 0 0 Z " fill="#575654" transform="translate(838.357666015625,427.87060546875)"/>
<path d="M0 0 C0.66 1.32 1.32 2.64 2 4 C11.60421525 3.85731103 21.20837479 3.71111026 30.8125 3.5625 C31.88278002 3.54596815 31.88278002 3.54596815 32.97468185 3.52910233 C53.54314088 3.21071704 74.10892754 2.84048936 94.6730957 2.30493164 C121.30418306 1.61989459 121.30418306 1.61989459 132 3 C132 3.33 132 3.66 132 4 C131.0911203 4.01407851 131.0911203 4.01407851 130.16387939 4.02844143 C115.39833099 4.25745975 100.63286452 4.49130963 85.86747742 4.73049068 C78.72695365 4.84604267 71.58641103 4.95997886 64.44580078 5.07006836 C58.2196888 5.16606283 51.99363452 5.26513271 45.76762962 5.36784559 C42.47316715 5.42208956 39.17869278 5.47436847 35.88415527 5.5238781 C32.20003567 5.57950356 28.51604291 5.64056393 24.83203125 5.70288086 C23.74805557 5.71798706 22.6640799 5.73309326 21.54725647 5.74865723 C15.96658655 5.84900952 10.49929217 5.99640746 5 7 C4.67 7.66 4.34 8.32 4 9 C0 3.375 0 3.375 0 0 Z " fill="#4F5C69" transform="translate(394,163)"/>
<path d="M0 0 C2.375 1.625 2.375 1.625 4 4 C4.61195145 7.6717087 4.48706506 9.28813568 2.375 12.375 C-0.71186432 14.48706506 -2.3282913 14.61195145 -6 14 C-8.375 12.375 -8.375 12.375 -10 10 C-10.61195145 6.3282913 -10.48706506 4.71186432 -8.375 1.625 C-5.28813568 -0.48706506 -3.6717087 -0.61195145 0 0 Z " fill="#F0EFEF" transform="translate(174,529)"/>
<path d="M0 0 C1.35824882 1.30794331 2.68456137 2.64900897 4 4 C4.928125 4.928125 5.85625 5.85625 6.8125 6.8125 C9 10 9 10 8.9375 13.5625 C8.1357748 16.50215908 7.25967729 19.22870996 6 22 C1.70754471 20.46698025 -0.01922537 18.0322912 -2 14 C-2.61357248 8.76218611 -2.97794964 4.46692447 0 0 Z " fill="#050708" transform="translate(70,452)"/>
<path d="M0 0 C3 0.1875 3 0.1875 6 1 C8 4 8 4 7.75 6.5625 C7 9 7 9 5 11 C2.0625 11.375 2.0625 11.375 -1 11 C-3 9.3125 -3 9.3125 -4 7 C-3.17824769 3.86240027 -2.29744125 2.29744125 0 0 Z " fill="#699CCE" transform="translate(330,222)"/>
<path d="M0 0 C16.17 0 32.34 0 49 0 C49 0.33 49 0.66 49 1 C47.9262915 1.0501123 46.85258301 1.10022461 45.74633789 1.15185547 C41.72591286 1.34158 37.70605368 1.54162143 33.6862793 1.74462891 C31.95334196 1.83073559 30.22026704 1.91412164 28.48706055 1.99462891 C25.98183901 2.11148635 23.47729143 2.2384359 20.97265625 2.3671875 C20.20977798 2.40061249 19.44689972 2.43403748 18.66090393 2.46847534 C13.27978331 2.75851554 8.22393319 3.6879298 3 5 C3.33 4.01 3.66 3.02 4 2 C2.68 2 1.36 2 0 2 C0 1.34 0 0.68 0 0 Z " fill="#5D666E" transform="translate(486,80)"/>
<path d="M0 0 C2.4375 0.8125 2.4375 0.8125 4.4375 2.8125 C4.0625 6.4375 4.0625 6.4375 3.4375 9.8125 C0.625 10.4375 0.625 10.4375 -2.5625 10.8125 C-3.5525 10.1525 -4.5425 9.4925 -5.5625 8.8125 C-5.9696827 5.62290219 -6.07733719 3.65249753 -4.375 0.875 C-2.5625 -0.1875 -2.5625 -0.1875 0 0 Z " fill="#AB563C" transform="translate(549.5625,241.1875)"/>
<path d="M0 0 C0.33 1.32 0.66 2.64 1 4 C1.969375 4.12375 2.93875 4.2475 3.9375 4.375 C5.4534375 4.684375 5.4534375 4.684375 7 5 C7.33 5.66 7.66 6.32 8 7 C5.69 6.34 3.38 5.68 1 5 C0.9175 5.70125 0.835 6.4025 0.75 7.125 C-0.17027725 10.65272947 -1.88126977 13.06111614 -4 16 C-4.99 15.67 -5.98 15.34 -7 15 C-6.67506385 11.4257023 -6.36129314 9.44287547 -4.0625 6.625 C-2 5 -2 5 0 5 C0 3.35 0 1.7 0 0 Z " fill="#4C78A4" transform="translate(430,119)"/>
<path d="M0 0 C3.23569026 2.56379829 3.5761452 4.87334958 4.125 8.875 C4.27195312 9.90367187 4.41890625 10.93234375 4.5703125 11.9921875 C4.71210937 12.98476563 4.85390625 13.97734375 5 15 C5.32114661 16.66905774 5.65015884 18.33672009 6 20 C5.34 20 4.68 20 4 20 C3.67 20.99 3.34 21.98 3 23 C0.14260428 15.38027809 -0.16729501 8.03016059 0 0 Z " fill="#5D83A7" transform="translate(66,264)"/>
<path d="M0 0 C1.5625 1.0625 1.5625 1.0625 3 3 C2.89470715 8.58052085 1.25223599 11.69865562 -2 16 C-2 14.33333333 -2 12.66666667 -2 11 C-3.22976563 11.55880859 -3.22976563 11.55880859 -4.484375 12.12890625 C-5.56203125 12.60199219 -6.6396875 13.07507813 -7.75 13.5625 C-8.81734375 14.03816406 -9.8846875 14.51382812 -10.984375 15.00390625 C-13.98369837 15.9946154 -15.13421241 16.16161779 -18 15 C-17.11957031 14.67386719 -16.23914063 14.34773438 -15.33203125 14.01171875 C-13.58986328 13.35623047 -13.58986328 13.35623047 -11.8125 12.6875 C-10.66394531 12.25824219 -9.51539063 11.82898438 -8.33203125 11.38671875 C-5.29786399 10.1239645 -2.63412878 8.96576775 0 7 C0.41725678 3.37400578 0.41725678 3.37400578 0 0 Z " fill="#73442A" transform="translate(631,294)"/>
<path d="M0 0 C2.21460369 1.82945522 2.94372483 2.67038832 3.4375 5.5625 C3.73987379 8.17317795 3.73987379 8.17317795 6.0625 9.3125 C6.701875 9.539375 7.34125 9.76625 8 10 C7.01 10 6.02 10 5 10 C4.95101563 10.71027344 4.90203125 11.42054688 4.8515625 12.15234375 C4.77679688 13.07144531 4.70203125 13.99054688 4.625 14.9375 C4.55539062 15.85402344 4.48578125 16.77054687 4.4140625 17.71484375 C4.27742188 18.46894531 4.14078125 19.22304688 4 20 C3.34 20.33 2.68 20.66 2 21 C2.33 16.71 2.66 12.42 3 8 C-0.3 8 -3.6 8 -7 8 C-7 7.67 -7 7.34 -7 7 C-2.545 6.505 -2.545 6.505 2 6 C1.34 4.02 0.68 2.04 0 0 Z " fill="#F5D8AB" transform="translate(469,290)"/>
<path d="M0 0 C0.625 1.875 0.625 1.875 1 4 C0.34 4.66 -0.32 5.32 -1 6 C-3.625 5.625 -3.625 5.625 -6 5 C-6 3.35 -6 1.7 -6 0 C-3.50907189 -1.24546405 -2.58919267 -0.7767578 0 0 Z " fill="#A77C3B" transform="translate(602,79)"/>
<path d="M0 0 C5.94 0 11.88 0 18 0 C18.33 0.99 18.66 1.98 19 3 C15.7 3.33 12.4 3.66 9 4 C9.66 3.34 10.32 2.68 11 2 C7.37 1.67 3.74 1.34 0 1 C0 0.67 0 0.34 0 0 Z " fill="#777877" transform="translate(885,428)"/>
<path d="M0 0 C1.04722851 1.29656863 2.03465478 2.64136599 3 4 C3.8971875 5.2065625 3.8971875 5.2065625 4.8125 6.4375 C6.68801246 12.06403739 5.17706882 17.29248646 4 23 C3.67 23 3.34 23 3 23 C1.82938389 14.73364929 1.82938389 14.73364929 2.625 11.3125 C3.17632202 7.91268088 1.60536817 5.95387744 0 3 C0 2.01 0 1.02 0 0 Z " fill="#4B6278" transform="translate(64,440)"/>
<path d="M0 0 C-1.39750048 3.15835107 -3.05198234 5.32272825 -5.5 7.75 C-6.41265625 8.67039062 -6.41265625 8.67039062 -7.34375 9.609375 C-9 11 -9 11 -11 11 C-9.60249952 7.84164893 -7.94801766 5.67727175 -5.5 3.25 C-4.8915625 2.63640625 -4.283125 2.0228125 -3.65625 1.390625 C-2 0 -2 0 0 0 Z " fill="#A07739" transform="translate(269,464)"/>
<path d="M0 0 C0.53625 0.763125 1.0725 1.52625 1.625 2.3125 C4.20205814 5.22864474 6.45814404 6.4705622 10 8 C5.82366356 9.39211215 4.21039485 7.9535579 0.3125 6.0625 C-0.86699219 5.49660156 -2.04648437 4.93070312 -3.26171875 4.34765625 C-4.16535156 3.90292969 -5.06898438 3.45820313 -6 3 C-3 2 -3 2 0 3 C0 2.01 0 1.02 0 0 Z " fill="#5D6975" transform="translate(691,502)"/>
<path d="M0 0 C1.051875 0.6496875 1.051875 0.6496875 2.125 1.3125 C6.23942462 3.72748837 10.30517827 3.7356314 15 4 C15 4.33 15 4.66 15 5 C7.87399867 5.35368021 2.52940894 4.95671348 -4 2 C-2.3125 0.8125 -2.3125 0.8125 0 0 Z " fill="#624B40" transform="translate(759,305)"/>
<path d="M0 0 C0.33 1.32 0.66 2.64 1 4 C2.4540625 4.185625 2.4540625 4.185625 3.9375 4.375 C5.4534375 4.684375 5.4534375 4.684375 7 5 C7.33 5.66 7.66 6.32 8 7 C5.69 6.34 3.38 5.68 1 5 C0.67 6.65 0.34 8.3 0 10 C-0.33 9.01 -0.66 8.02 -1 7 C-1.66 6.67 -2.32 6.34 -3 6 C-2.01 5.67 -1.02 5.34 0 5 C0 3.35 0 1.7 0 0 Z " fill="#2D4359" transform="translate(430,119)"/>
<path d="M0 0 C-1.44077046 3.36179774 -3.24750021 5.59156268 -6 8 C-6.66 8 -7.32 8 -8 8 C-6.48291727 4.46014029 -4.24676932 0 0 0 Z " fill="#A37837" transform="translate(208,535)"/>
<path d="M0 0 C0.33 0 0.66 0 1 0 C2.7578125 5.95703125 2.7578125 5.95703125 3 8 C2.01 9.485 2.01 9.485 1 11 C-0.98362069 8.08291076 -0.9876191 6.87619096 -0.625 3.25 C-0.41875 2.1775 -0.2125 1.105 0 0 Z " fill="#6B482F" transform="translate(379,295)"/>
<path d="M0 0 C2 0 2 0 4 1.875 C4.66 2.57625 5.32 3.2775 6 4 C6.66 4.66 7.32 5.32 8 6 C6.53984709 5.71758359 5.08190207 5.42373386 3.625 5.125 C2.81289063 4.96257812 2.00078125 4.80015625 1.1640625 4.6328125 C-1 4 -1 4 -3 2 C-2.01 1.67 -1.02 1.34 0 1 C0 0.67 0 0.34 0 0 Z " fill="#675844" transform="translate(911,279)"/>
<path d="M0 0 C2 0 2 0 4 1.875 C4.66 2.57625 5.32 3.2775 6 4 C6.66 4.66 7.32 5.32 8 6 C3.545 5.01 3.545 5.01 -1 4 C-0.34 3.67 0.32 3.34 1 3 C0.67 2.01 0.34 1.02 0 0 Z " fill="#64493C" transform="translate(906,378)"/>
<path d="M0 0 C3.64734979 0.22330713 5.38372835 0.38372835 8 3 C4.37 3 0.74 3 -3 3 C-2.01 2.01 -1.02 1.02 0 0 Z " fill="#685840" transform="translate(920,257)"/>
<path d="M0 0 C1.32 0.66 2.64 1.32 4 2 C2.824375 2.0928125 2.824375 2.0928125 1.625 2.1875 C0.75875 2.455625 -0.1075 2.72375 -1 3 C-2.37466625 5.47636012 -2.37466625 5.47636012 -3 8 C-3.33 7.34 -3.66 6.68 -4 6 C-2.68 4.02 -1.36 2.04 0 0 Z " fill="#673C2D" transform="translate(627,118)"/>
<path d="M0 0 C2.31 0 4.62 0 7 0 C7.33 0.99 7.66 1.98 8 3 C6.35 3.33 4.7 3.66 3 4 C3.33 3.01 3.66 2.02 4 1 C2.68 0.67 1.36 0.34 0 0 Z " fill="#5580AA" transform="translate(486,81)"/>
</svg>
